%TF.GenerationSoftware,KiCad,Pcbnew,9.0.4*%
%TF.CreationDate,2026-03-05T01:36:55+00:00*%
%TF.ProjectId,ESP32_Breakout V1,45535033-325f-4427-9265-616b6f757420,rev?*%
%TF.SameCoordinates,Original*%
%TF.FileFunction,Copper,L2,Bot*%
%TF.FilePolarity,Positive*%
%FSLAX46Y46*%
G04 Gerber Fmt 4.6, Leading zero omitted, Abs format (unit mm)*
G04 Created by KiCad (PCBNEW 9.0.4) date 2026-03-05 01:36:55*
%MOMM*%
%LPD*%
G01*
G04 APERTURE LIST*
G04 Aperture macros list*
%AMRoundRect*
0 Rectangle with rounded corners*
0 $1 Rounding radius*
0 $2 $3 $4 $5 $6 $7 $8 $9 X,Y pos of 4 corners*
0 Add a 4 corners polygon primitive as box body*
4,1,4,$2,$3,$4,$5,$6,$7,$8,$9,$2,$3,0*
0 Add four circle primitives for the rounded corners*
1,1,$1+$1,$2,$3*
1,1,$1+$1,$4,$5*
1,1,$1+$1,$6,$7*
1,1,$1+$1,$8,$9*
0 Add four rect primitives between the rounded corners*
20,1,$1+$1,$2,$3,$4,$5,0*
20,1,$1+$1,$4,$5,$6,$7,0*
20,1,$1+$1,$6,$7,$8,$9,0*
20,1,$1+$1,$8,$9,$2,$3,0*%
G04 Aperture macros list end*
%ADD10C,0.250000*%
%TA.AperFunction,ComponentPad*%
%ADD11R,1.700000X1.700000*%
%TD*%
%TA.AperFunction,ComponentPad*%
%ADD12C,1.700000*%
%TD*%
%TA.AperFunction,ComponentPad*%
%ADD13O,2.000000X2.500000*%
%TD*%
%TA.AperFunction,ComponentPad*%
%ADD14R,1.905000X2.000000*%
%TD*%
%TA.AperFunction,ComponentPad*%
%ADD15O,1.905000X2.000000*%
%TD*%
%TA.AperFunction,SMDPad,CuDef*%
%ADD16RoundRect,0.250000X0.350000X0.450000X-0.350000X0.450000X-0.350000X-0.450000X0.350000X-0.450000X0*%
%TD*%
%TA.AperFunction,SMDPad,CuDef*%
%ADD17RoundRect,0.250000X-0.350000X-0.450000X0.350000X-0.450000X0.350000X0.450000X-0.350000X0.450000X0*%
%TD*%
%TA.AperFunction,SMDPad,CuDef*%
%ADD18RoundRect,0.250000X0.250000X0.475000X-0.250000X0.475000X-0.250000X-0.475000X0.250000X-0.475000X0*%
%TD*%
%TA.AperFunction,ViaPad*%
%ADD19C,2.000000*%
%TD*%
%TA.AperFunction,Conductor*%
%ADD20C,0.600000*%
%TD*%
G04 APERTURE END LIST*
D10*
G36*
X100383019Y-20967311D02*
G01*
X100446427Y-21094127D01*
X100446427Y-21293095D01*
X99744046Y-21152619D01*
X99744046Y-21094127D01*
X99807454Y-20967310D01*
X99934268Y-20903904D01*
X100256205Y-20903904D01*
X100383019Y-20967311D01*
G37*
G36*
X104973574Y-20976874D02*
G01*
X105040123Y-21043423D01*
X105113094Y-21189365D01*
X105113094Y-21701777D01*
X105040124Y-21847715D01*
X104973572Y-21914268D01*
X104827634Y-21987238D01*
X104505697Y-21987238D01*
X104410713Y-21939746D01*
X104410713Y-20951396D01*
X104505697Y-20903904D01*
X104827634Y-20903904D01*
X104973574Y-20976874D01*
G37*
G36*
X106783098Y-20976874D02*
G01*
X106849647Y-21043423D01*
X106922618Y-21189365D01*
X106922618Y-21701777D01*
X106849648Y-21847715D01*
X106783096Y-21914268D01*
X106637158Y-21987238D01*
X106410459Y-21987238D01*
X106264521Y-21914269D01*
X106197969Y-21847716D01*
X106124999Y-21701776D01*
X106124999Y-21189365D01*
X106197970Y-21043422D01*
X106264519Y-20976874D01*
X106410459Y-20903904D01*
X106637158Y-20903904D01*
X106783098Y-20976874D01*
G37*
G36*
X116446428Y-21034857D02*
G01*
X115839031Y-21034857D01*
X115693093Y-20961888D01*
X115626541Y-20895335D01*
X115553571Y-20749395D01*
X115553571Y-20522698D01*
X115626541Y-20376757D01*
X115693091Y-20310208D01*
X115839031Y-20237238D01*
X116446428Y-20237238D01*
X116446428Y-21034857D01*
G37*
G36*
X120632936Y-22459460D02*
G01*
X99271824Y-22459460D01*
X99271824Y-21064619D01*
X99494046Y-21064619D01*
X99494046Y-21255095D01*
X99496448Y-21279481D01*
X99501134Y-21290795D01*
X99503511Y-21302809D01*
X99510375Y-21313106D01*
X99515112Y-21324541D01*
X99523771Y-21333200D01*
X99530565Y-21343391D01*
X99540849Y-21350278D01*
X99549600Y-21359029D01*
X99560914Y-21363715D01*
X99571090Y-21370530D01*
X99594532Y-21377668D01*
X100446427Y-21548046D01*
X100446427Y-21797015D01*
X100383019Y-21923830D01*
X100256205Y-21987238D01*
X99934268Y-21987238D01*
X99770186Y-21905197D01*
X99747300Y-21896439D01*
X99698650Y-21892981D01*
X99652380Y-21908405D01*
X99615535Y-21940361D01*
X99593723Y-21983984D01*
X99590265Y-22032634D01*
X99605689Y-22078904D01*
X99637645Y-22115749D01*
X99658382Y-22128803D01*
X99848859Y-22224042D01*
X99871744Y-22232799D01*
X99876225Y-22233117D01*
X99880374Y-22234836D01*
X99904760Y-22237238D01*
X100285713Y-22237238D01*
X100310099Y-22234836D01*
X100314247Y-22233117D01*
X100318729Y-22232799D01*
X100341615Y-22224041D01*
X100532091Y-22128803D01*
X100536167Y-22126236D01*
X100538093Y-22125595D01*
X100540491Y-22123515D01*
X100552828Y-22115749D01*
X100563097Y-22103908D01*
X100571519Y-22096604D01*
X101114075Y-22096604D01*
X101117533Y-22145254D01*
X101139345Y-22188877D01*
X101176190Y-22220833D01*
X101222460Y-22236257D01*
X101271110Y-22232799D01*
X101293996Y-22224041D01*
X101484472Y-22128803D01*
X101488548Y-22126236D01*
X101490474Y-22125595D01*
X101492872Y-22123515D01*
X101505209Y-22115749D01*
X101515478Y-22103908D01*
X101527319Y-22093639D01*
X101535085Y-22081301D01*
X101537165Y-22078904D01*
X101537806Y-22076979D01*
X101540374Y-22072901D01*
X101635612Y-21882424D01*
X101644369Y-21859538D01*
X101644687Y-21855058D01*
X101646406Y-21850909D01*
X101648808Y-21826523D01*
X101648808Y-20778904D01*
X102351189Y-20778904D01*
X102351189Y-22112238D01*
X102353591Y-22136624D01*
X102372255Y-22181684D01*
X102406743Y-22216172D01*
X102451803Y-22234836D01*
X102500575Y-22234836D01*
X102545635Y-22216172D01*
X102580123Y-22181684D01*
X102587185Y-22164633D01*
X102706002Y-22224042D01*
X102728887Y-22232799D01*
X102733368Y-22233117D01*
X102737517Y-22234836D01*
X102761903Y-22237238D01*
X103047618Y-22237238D01*
X103072004Y-22234836D01*
X103076152Y-22233117D01*
X103080634Y-22232799D01*
X103103520Y-22224041D01*
X103293996Y-22128803D01*
X103298072Y-22126236D01*
X103299998Y-22125595D01*
X103302396Y-22123515D01*
X103314733Y-22115749D01*
X103325002Y-22103908D01*
X103336843Y-22093639D01*
X103344609Y-22081301D01*
X103346689Y-22078904D01*
X103347330Y-22076979D01*
X103349898Y-22072901D01*
X103445136Y-21882424D01*
X103453893Y-21859538D01*
X103454211Y-21855058D01*
X103455930Y-21850909D01*
X103458332Y-21826523D01*
X103458332Y-20778904D01*
X103455930Y-20754518D01*
X103437266Y-20709458D01*
X103402778Y-20674970D01*
X103357718Y-20656306D01*
X103308946Y-20656306D01*
X103263886Y-20674970D01*
X103229398Y-20709458D01*
X103210734Y-20754518D01*
X103208332Y-20778904D01*
X103208332Y-21797015D01*
X103144924Y-21923830D01*
X103018110Y-21987238D01*
X102791411Y-21987238D01*
X102645473Y-21914269D01*
X102601189Y-21869984D01*
X102601189Y-20778904D01*
X102598787Y-20754518D01*
X102580123Y-20709458D01*
X102545635Y-20674970D01*
X102500575Y-20656306D01*
X102451803Y-20656306D01*
X102406743Y-20674970D01*
X102372255Y-20709458D01*
X102353591Y-20754518D01*
X102351189Y-20778904D01*
X101648808Y-20778904D01*
X101648808Y-20112238D01*
X104160713Y-20112238D01*
X104160713Y-22112238D01*
X104163115Y-22136624D01*
X104181779Y-22181684D01*
X104216267Y-22216172D01*
X104261327Y-22234836D01*
X104310099Y-22234836D01*
X104355159Y-22216172D01*
X104371622Y-22199708D01*
X104420288Y-22224042D01*
X104443173Y-22232799D01*
X104447654Y-22233117D01*
X104451803Y-22234836D01*
X104476189Y-22237238D01*
X104857142Y-22237238D01*
X104881528Y-22234836D01*
X104885676Y-22233117D01*
X104890158Y-22232799D01*
X104913044Y-22224041D01*
X105103520Y-22128803D01*
X105114014Y-22122196D01*
X105117065Y-22120933D01*
X105120499Y-22118114D01*
X105124257Y-22115749D01*
X105126418Y-22113257D01*
X105136007Y-22105388D01*
X105231245Y-22010149D01*
X105239113Y-22000560D01*
X105241605Y-21998400D01*
X105243969Y-21994643D01*
X105246790Y-21991207D01*
X105248054Y-21988155D01*
X105254659Y-21977663D01*
X105349898Y-21787186D01*
X105358655Y-21764301D01*
X105358973Y-21759819D01*
X105360692Y-21755671D01*
X105363094Y-21731285D01*
X105363094Y-21159857D01*
X105874999Y-21159857D01*
X105874999Y-21731285D01*
X105877401Y-21755671D01*
X105879119Y-21759819D01*
X105879438Y-21764301D01*
X105888196Y-21787187D01*
X105983434Y-21977663D01*
X105990039Y-21988155D01*
X105991303Y-21991207D01*
X105994123Y-21994643D01*
X105996488Y-21998400D01*
X105998979Y-22000560D01*
X106006848Y-22010149D01*
X106102086Y-22105388D01*
X106111674Y-22113257D01*
X106113836Y-22115749D01*
X106117593Y-22118114D01*
X106121028Y-22120933D01*
X106124078Y-22122196D01*
X106134573Y-22128803D01*
X106325050Y-22224042D01*
X106347935Y-22232799D01*
X106352416Y-22233117D01*
X106356565Y-22234836D01*
X106380951Y-22237238D01*
X106666666Y-22237238D01*
X106691052Y-22234836D01*
X106695200Y-22233117D01*
X106699682Y-22232799D01*
X106722568Y-22224041D01*
X106913044Y-22128803D01*
X106923538Y-22122196D01*
X106926589Y-22120933D01*
X106930023Y-22118114D01*
X106933781Y-22115749D01*
X106935942Y-22113257D01*
X106945531Y-22105388D01*
X107040769Y-22010149D01*
X107048637Y-22000560D01*
X107051129Y-21998400D01*
X107053493Y-21994643D01*
X107056314Y-21991207D01*
X107057578Y-21988155D01*
X107064183Y-21977663D01*
X107159422Y-21787186D01*
X107168179Y-21764301D01*
X107168497Y-21759819D01*
X107170216Y-21755671D01*
X107172618Y-21731285D01*
X107172618Y-21159857D01*
X107170216Y-21135471D01*
X107168497Y-21131321D01*
X107168179Y-21126842D01*
X107159422Y-21103956D01*
X107064184Y-20913479D01*
X107057574Y-20902980D01*
X107056313Y-20899934D01*
X107053497Y-20896502D01*
X107051129Y-20892741D01*
X107048634Y-20890577D01*
X107040768Y-20880992D01*
X106945530Y-20785754D01*
X106935944Y-20777887D01*
X106933781Y-20775393D01*
X106930019Y-20773025D01*
X106926588Y-20770209D01*
X106923540Y-20768946D01*
X106913044Y-20762339D01*
X106722568Y-20667101D01*
X106699682Y-20658343D01*
X106695200Y-20658024D01*
X106691052Y-20656306D01*
X106666666Y-20653904D01*
X106380951Y-20653904D01*
X106356565Y-20656306D01*
X106352416Y-20658024D01*
X106347935Y-20658343D01*
X106325050Y-20667100D01*
X106134573Y-20762339D01*
X106124076Y-20768946D01*
X106121029Y-20770209D01*
X106117597Y-20773025D01*
X106113836Y-20775393D01*
X106111672Y-20777887D01*
X106102087Y-20785754D01*
X106006849Y-20880992D01*
X105998982Y-20890577D01*
X105996488Y-20892741D01*
X105994120Y-20896502D01*
X105991304Y-20899934D01*
X105990041Y-20902981D01*
X105983434Y-20913478D01*
X105888195Y-21103956D01*
X105879438Y-21126841D01*
X105879119Y-21131322D01*
X105877401Y-21135471D01*
X105874999Y-21159857D01*
X105363094Y-21159857D01*
X105360692Y-21135471D01*
X105358973Y-21131321D01*
X105358655Y-21126842D01*
X105349898Y-21103956D01*
X105254660Y-20913479D01*
X105248050Y-20902980D01*
X105246789Y-20899934D01*
X105243973Y-20896502D01*
X105241605Y-20892741D01*
X105239110Y-20890577D01*
X105231244Y-20880992D01*
X105136006Y-20785754D01*
X105126420Y-20777887D01*
X105124257Y-20775393D01*
X105120495Y-20773025D01*
X105117064Y-20770209D01*
X105114016Y-20768946D01*
X105103520Y-20762339D01*
X104913044Y-20667101D01*
X104890158Y-20658343D01*
X104885676Y-20658024D01*
X104881528Y-20656306D01*
X104857142Y-20653904D01*
X104476189Y-20653904D01*
X104451803Y-20656306D01*
X104447654Y-20658024D01*
X104443173Y-20658343D01*
X104420288Y-20667100D01*
X104410713Y-20671887D01*
X104410713Y-20112238D01*
X107779761Y-20112238D01*
X107779761Y-22112238D01*
X107782163Y-22136624D01*
X107800827Y-22181684D01*
X107835315Y-22216172D01*
X107880375Y-22234836D01*
X107929147Y-22234836D01*
X107974207Y-22216172D01*
X108008695Y-22181684D01*
X108027359Y-22136624D01*
X108029761Y-22112238D01*
X108029761Y-20675684D01*
X108458154Y-21593669D01*
X108463443Y-21602597D01*
X108464544Y-21605625D01*
X108466504Y-21607765D01*
X108470643Y-21614752D01*
X108484653Y-21627582D01*
X108497484Y-21641593D01*
X108502514Y-21643940D01*
X108506611Y-21647692D01*
X108524466Y-21654184D01*
X108541680Y-21662218D01*
X108547228Y-21662461D01*
X108552448Y-21664360D01*
X108571422Y-21663525D01*
X108590406Y-21664360D01*
X108595628Y-21662460D01*
X108601174Y-21662217D01*
X108618378Y-21654188D01*
X108636243Y-21647692D01*
X108640341Y-21643938D01*
X108645370Y-21641592D01*
X108658195Y-21627587D01*
X108672211Y-21614752D01*
X108676351Y-21607762D01*
X108678310Y-21605624D01*
X108679409Y-21602600D01*
X108684700Y-21593670D01*
X109113094Y-20675682D01*
X109113094Y-22112238D01*
X109115496Y-22136624D01*
X109134160Y-22181684D01*
X109168648Y-22216172D01*
X109213708Y-22234836D01*
X109262480Y-22234836D01*
X109307540Y-22216172D01*
X109342028Y-22181684D01*
X109360692Y-22136624D01*
X109363094Y-22112238D01*
X109363094Y-20493190D01*
X111494047Y-20493190D01*
X111494047Y-20683666D01*
X111495262Y-20696009D01*
X111495029Y-20699300D01*
X111496013Y-20703629D01*
X111496449Y-20708052D01*
X111497712Y-20711103D01*
X111500462Y-20723194D01*
X111595700Y-21008908D01*
X111605690Y-21031283D01*
X111608633Y-21034676D01*
X111610352Y-21038826D01*
X111625897Y-21057768D01*
X112555365Y-21987238D01*
X111619047Y-21987238D01*
X111594661Y-21989640D01*
X111549601Y-22008304D01*
X111515113Y-22042792D01*
X111496449Y-22087852D01*
X111496449Y-22136624D01*
X111515113Y-22181684D01*
X111549601Y-22216172D01*
X111594661Y-22234836D01*
X111619047Y-22237238D01*
X112857142Y-22237238D01*
X112881528Y-22234836D01*
X112881529Y-22234836D01*
X112926589Y-22216172D01*
X112961076Y-22181685D01*
X112979740Y-22136625D01*
X112979740Y-22087852D01*
X112961076Y-22042792D01*
X112945531Y-22023850D01*
X112176776Y-21255095D01*
X113398809Y-21255095D01*
X113398809Y-21731285D01*
X113401211Y-21755671D01*
X113402929Y-21759819D01*
X113403248Y-21764301D01*
X113412006Y-21787187D01*
X113507244Y-21977663D01*
X113513849Y-21988155D01*
X113515113Y-21991207D01*
X113517933Y-21994643D01*
X113520298Y-21998400D01*
X113522789Y-22000560D01*
X113530658Y-22010149D01*
X113625896Y-22105388D01*
X113635484Y-22113257D01*
X113637646Y-22115749D01*
X113641403Y-22118114D01*
X113644838Y-22120933D01*
X113647888Y-22122196D01*
X113658383Y-22128803D01*
X113848860Y-22224042D01*
X113871745Y-22232799D01*
X113876226Y-22233117D01*
X113880375Y-22234836D01*
X113904761Y-22237238D01*
X114476190Y-22237238D01*
X114500576Y-22234836D01*
X114504724Y-22233117D01*
X114509206Y-22232799D01*
X114532092Y-22224041D01*
X114722568Y-22128803D01*
X114733062Y-22122196D01*
X114736113Y-22120933D01*
X114739547Y-22118114D01*
X114743305Y-22115749D01*
X114745466Y-22113257D01*
X114755055Y-22105388D01*
X114850293Y-22010149D01*
X114865838Y-21991207D01*
X114884503Y-21946147D01*
X114884502Y-21897373D01*
X114865837Y-21852314D01*
X114831350Y-21817827D01*
X114786290Y-21799162D01*
X114737517Y-21799163D01*
X114692457Y-21817828D01*
X114673515Y-21833373D01*
X114592620Y-21914268D01*
X114446682Y-21987238D01*
X113934269Y-21987238D01*
X113788331Y-21914269D01*
X113721779Y-21847716D01*
X113648809Y-21701776D01*
X113648809Y-21284603D01*
X113721779Y-21138663D01*
X113788331Y-21072110D01*
X113934269Y-20999142D01*
X114190476Y-20999142D01*
X114203374Y-20997871D01*
X114206653Y-20998090D01*
X114208911Y-20997326D01*
X114214862Y-20996740D01*
X114233631Y-20988965D01*
X114252855Y-20982464D01*
X114256025Y-20979690D01*
X114259922Y-20978076D01*
X114274287Y-20963711D01*
X114289559Y-20950348D01*
X114291426Y-20946571D01*
X114294410Y-20943588D01*
X114302183Y-20924819D01*
X114311180Y-20906629D01*
X114311460Y-20902423D01*
X114313074Y-20898528D01*
X114313074Y-20878216D01*
X114314424Y-20857964D01*
X114313074Y-20853972D01*
X114313074Y-20849756D01*
X114305300Y-20830988D01*
X114298798Y-20811763D01*
X114295324Y-20806903D01*
X114294410Y-20804696D01*
X114292082Y-20802368D01*
X114284548Y-20791828D01*
X114023239Y-20493190D01*
X115303571Y-20493190D01*
X115303571Y-20778904D01*
X115305973Y-20803290D01*
X115307691Y-20807438D01*
X115308010Y-20811920D01*
X115316768Y-20834806D01*
X115412006Y-21025282D01*
X115418611Y-21035774D01*
X115419875Y-21038826D01*
X115422695Y-21042262D01*
X115425060Y-21046019D01*
X115427551Y-21048179D01*
X115435420Y-21057768D01*
X115530658Y-21153007D01*
X115540246Y-21160876D01*
X115542408Y-21163368D01*
X115546165Y-21165733D01*
X115549600Y-21168552D01*
X115552650Y-21169815D01*
X115563145Y-21176422D01*
X115753622Y-21271661D01*
X115776507Y-21280418D01*
X115780988Y-21280736D01*
X115785137Y-21282455D01*
X115809523Y-21284857D01*
X116446428Y-21284857D01*
X116446428Y-22112238D01*
X116448830Y-22136624D01*
X116467494Y-22181684D01*
X116501982Y-22216172D01*
X116547042Y-22234836D01*
X116595814Y-22234836D01*
X116640874Y-22216172D01*
X116675362Y-22181684D01*
X116694026Y-22136624D01*
X116696428Y-22112238D01*
X116696428Y-21540809D01*
X117303571Y-21540809D01*
X117303571Y-21731285D01*
X117305973Y-21755671D01*
X117307691Y-21759819D01*
X117308010Y-21764301D01*
X117316768Y-21787187D01*
X117412006Y-21977663D01*
X117418611Y-21988155D01*
X117419875Y-21991207D01*
X117422695Y-21994643D01*
X117425060Y-21998400D01*
X117427551Y-22000560D01*
X117435420Y-22010149D01*
X117530658Y-22105388D01*
X117540246Y-22113257D01*
X117542408Y-22115749D01*
X117546165Y-22118114D01*
X117549600Y-22120933D01*
X117552650Y-22122196D01*
X117563145Y-22128803D01*
X117753622Y-22224042D01*
X117776507Y-22232799D01*
X117780988Y-22233117D01*
X117785137Y-22234836D01*
X117809523Y-22237238D01*
X118285714Y-22237238D01*
X118298057Y-22236022D01*
X118301348Y-22236256D01*
X118305677Y-22235271D01*
X118310100Y-22234836D01*
X118313151Y-22233572D01*
X118325242Y-22230823D01*
X118610956Y-22135585D01*
X118633331Y-22125595D01*
X118670177Y-22093640D01*
X118691989Y-22050015D01*
X118695446Y-22001366D01*
X118680023Y-21955097D01*
X118648068Y-21918251D01*
X118604443Y-21896439D01*
X118555794Y-21892982D01*
X118531900Y-21898415D01*
X118265431Y-21987238D01*
X117839031Y-21987238D01*
X117693093Y-21914269D01*
X117626541Y-21847716D01*
X117553571Y-21701776D01*
X117553571Y-21570317D01*
X117626541Y-21424376D01*
X117693091Y-21357827D01*
X117853149Y-21277797D01*
X118220793Y-21185887D01*
X118222592Y-21185243D01*
X118223492Y-21185180D01*
X118233638Y-21181297D01*
X118243868Y-21177642D01*
X118244592Y-21177105D01*
X118246378Y-21176422D01*
X118436854Y-21081183D01*
X118447350Y-21074575D01*
X118450398Y-21073313D01*
X118453829Y-21070496D01*
X118457591Y-21068129D01*
X118459754Y-21065634D01*
X118469340Y-21057768D01*
X118564578Y-20962530D01*
X118572444Y-20952944D01*
X118574939Y-20950781D01*
X118577306Y-20947019D01*
X118580123Y-20943588D01*
X118581385Y-20940540D01*
X118587993Y-20930044D01*
X118683232Y-20739567D01*
X118691989Y-20716682D01*
X118692307Y-20712200D01*
X118694026Y-20708052D01*
X118696428Y-20683666D01*
X118696428Y-20493190D01*
X118694026Y-20468804D01*
X118692307Y-20464655D01*
X118691989Y-20460174D01*
X118683232Y-20437289D01*
X118587993Y-20246812D01*
X118581385Y-20236315D01*
X118580123Y-20233268D01*
X118577306Y-20229836D01*
X118574939Y-20226075D01*
X118572444Y-20223911D01*
X118564578Y-20214326D01*
X118469340Y-20119088D01*
X118459754Y-20111221D01*
X118457591Y-20108727D01*
X118453829Y-20106359D01*
X118450398Y-20103543D01*
X118447350Y-20102280D01*
X118436854Y-20095673D01*
X118421212Y-20087852D01*
X119210735Y-20087852D01*
X119210735Y-20136624D01*
X119229399Y-20181684D01*
X119263887Y-20216172D01*
X119308947Y-20234836D01*
X119333333Y-20237238D01*
X120160714Y-20237238D01*
X120160714Y-20939619D01*
X119619047Y-20939619D01*
X119594661Y-20942021D01*
X119549601Y-20960685D01*
X119515113Y-20995173D01*
X119496449Y-21040233D01*
X119496449Y-21089005D01*
X119515113Y-21134065D01*
X119549601Y-21168553D01*
X119594661Y-21187217D01*
X119619047Y-21189619D01*
X120160714Y-21189619D01*
X120160714Y-21987238D01*
X119333333Y-21987238D01*
X119308947Y-21989640D01*
X119263887Y-22008304D01*
X119229399Y-22042792D01*
X119210735Y-22087852D01*
X119210735Y-22136624D01*
X119229399Y-22181684D01*
X119263887Y-22216172D01*
X119308947Y-22234836D01*
X119333333Y-22237238D01*
X120285714Y-22237238D01*
X120310100Y-22234836D01*
X120355160Y-22216172D01*
X120389648Y-22181684D01*
X120408312Y-22136624D01*
X120410714Y-22112238D01*
X120410714Y-20112238D01*
X120408312Y-20087852D01*
X120389648Y-20042792D01*
X120355160Y-20008304D01*
X120310100Y-19989640D01*
X120285714Y-19987238D01*
X119333333Y-19987238D01*
X119308947Y-19989640D01*
X119263887Y-20008304D01*
X119229399Y-20042792D01*
X119210735Y-20087852D01*
X118421212Y-20087852D01*
X118246378Y-20000435D01*
X118223492Y-19991677D01*
X118219010Y-19991358D01*
X118214862Y-19989640D01*
X118190476Y-19987238D01*
X117714285Y-19987238D01*
X117701941Y-19988453D01*
X117698651Y-19988220D01*
X117694321Y-19989204D01*
X117689899Y-19989640D01*
X117686847Y-19990903D01*
X117674757Y-19993653D01*
X117389043Y-20088891D01*
X117366668Y-20098881D01*
X117329822Y-20130836D01*
X117308010Y-20174461D01*
X117304553Y-20223110D01*
X117319976Y-20269379D01*
X117351931Y-20306225D01*
X117395556Y-20328037D01*
X117444205Y-20331494D01*
X117468099Y-20326061D01*
X117734568Y-20237238D01*
X118160968Y-20237238D01*
X118306908Y-20310208D01*
X118373458Y-20376758D01*
X118446428Y-20522698D01*
X118446428Y-20654158D01*
X118373458Y-20800098D01*
X118306907Y-20866648D01*
X118146848Y-20946678D01*
X117779206Y-21038589D01*
X117777406Y-21039232D01*
X117776507Y-21039296D01*
X117766349Y-21043182D01*
X117756131Y-21046834D01*
X117755408Y-21047369D01*
X117753622Y-21048053D01*
X117563145Y-21143292D01*
X117552648Y-21149899D01*
X117549601Y-21151162D01*
X117546169Y-21153978D01*
X117542408Y-21156346D01*
X117540244Y-21158840D01*
X117530659Y-21166707D01*
X117435421Y-21261945D01*
X117427554Y-21271530D01*
X117425060Y-21273694D01*
X117422692Y-21277455D01*
X117419876Y-21280887D01*
X117418613Y-21283934D01*
X117412006Y-21294431D01*
X117316768Y-21484907D01*
X117308010Y-21507793D01*
X117307691Y-21512274D01*
X117305973Y-21516423D01*
X117303571Y-21540809D01*
X116696428Y-21540809D01*
X116696428Y-20112238D01*
X116694026Y-20087852D01*
X116675362Y-20042792D01*
X116640874Y-20008304D01*
X116595814Y-19989640D01*
X116571428Y-19987238D01*
X115809523Y-19987238D01*
X115785137Y-19989640D01*
X115780988Y-19991358D01*
X115776507Y-19991677D01*
X115753622Y-20000434D01*
X115563145Y-20095673D01*
X115552648Y-20102280D01*
X115549601Y-20103543D01*
X115546169Y-20106359D01*
X115542408Y-20108727D01*
X115540244Y-20111221D01*
X115530659Y-20119088D01*
X115435421Y-20214326D01*
X115427554Y-20223911D01*
X115425060Y-20226075D01*
X115422692Y-20229836D01*
X115419876Y-20233268D01*
X115418613Y-20236315D01*
X115412006Y-20246812D01*
X115316768Y-20437288D01*
X115308010Y-20460174D01*
X115307691Y-20464655D01*
X115305973Y-20468804D01*
X115303571Y-20493190D01*
X114023239Y-20493190D01*
X113799280Y-20237238D01*
X114761904Y-20237238D01*
X114786290Y-20234836D01*
X114831350Y-20216172D01*
X114865838Y-20181684D01*
X114884502Y-20136624D01*
X114884502Y-20087852D01*
X114865838Y-20042792D01*
X114831350Y-20008304D01*
X114786290Y-19989640D01*
X114761904Y-19987238D01*
X113523809Y-19987238D01*
X113510915Y-19988508D01*
X113507631Y-19988289D01*
X113505367Y-19989054D01*
X113499423Y-19989640D01*
X113480668Y-19997408D01*
X113461430Y-20003915D01*
X113458257Y-20006690D01*
X113454363Y-20008304D01*
X113440005Y-20022661D01*
X113424725Y-20036032D01*
X113422856Y-20039810D01*
X113419875Y-20042792D01*
X113412104Y-20061551D01*
X113403105Y-20079750D01*
X113402824Y-20083956D01*
X113401211Y-20087852D01*
X113401211Y-20108154D01*
X113399860Y-20128416D01*
X113401211Y-20132410D01*
X113401211Y-20136624D01*
X113408979Y-20155378D01*
X113415486Y-20174617D01*
X113418961Y-20179478D01*
X113419875Y-20181684D01*
X113422201Y-20184010D01*
X113429737Y-20194551D01*
X113915005Y-20749142D01*
X113904761Y-20749142D01*
X113880375Y-20751544D01*
X113876226Y-20753262D01*
X113871745Y-20753581D01*
X113848860Y-20762338D01*
X113658383Y-20857577D01*
X113647888Y-20864183D01*
X113644838Y-20865447D01*
X113641403Y-20868265D01*
X113637646Y-20870631D01*
X113635484Y-20873122D01*
X113625896Y-20880992D01*
X113530658Y-20976231D01*
X113522789Y-20985819D01*
X113520298Y-20987980D01*
X113517933Y-20991736D01*
X113515113Y-20995173D01*
X113513849Y-20998224D01*
X113507244Y-21008717D01*
X113412006Y-21199193D01*
X113403248Y-21222079D01*
X113402929Y-21226560D01*
X113401211Y-21230709D01*
X113398809Y-21255095D01*
X112176776Y-21255095D01*
X111823538Y-20901857D01*
X111744047Y-20663383D01*
X111744047Y-20522698D01*
X111817017Y-20376757D01*
X111883567Y-20310208D01*
X112029507Y-20237238D01*
X112446682Y-20237238D01*
X112592622Y-20310208D01*
X112673516Y-20391102D01*
X112692458Y-20406647D01*
X112737517Y-20425312D01*
X112786291Y-20425312D01*
X112831350Y-20406647D01*
X112865837Y-20372160D01*
X112884502Y-20327101D01*
X112884502Y-20278327D01*
X112865837Y-20233268D01*
X112850292Y-20214326D01*
X112755054Y-20119088D01*
X112745468Y-20111221D01*
X112743305Y-20108727D01*
X112739543Y-20106359D01*
X112736112Y-20103543D01*
X112733064Y-20102280D01*
X112722568Y-20095673D01*
X112532092Y-20000435D01*
X112509206Y-19991677D01*
X112504724Y-19991358D01*
X112500576Y-19989640D01*
X112476190Y-19987238D01*
X111999999Y-19987238D01*
X111975613Y-19989640D01*
X111971464Y-19991358D01*
X111966983Y-19991677D01*
X111944098Y-20000434D01*
X111753621Y-20095673D01*
X111743124Y-20102280D01*
X111740077Y-20103543D01*
X111736645Y-20106359D01*
X111732884Y-20108727D01*
X111730720Y-20111221D01*
X111721135Y-20119088D01*
X111625897Y-20214326D01*
X111618030Y-20223911D01*
X111615536Y-20226075D01*
X111613168Y-20229836D01*
X111610352Y-20233268D01*
X111609089Y-20236315D01*
X111602482Y-20246812D01*
X111507244Y-20437288D01*
X111498486Y-20460174D01*
X111498167Y-20464655D01*
X111496449Y-20468804D01*
X111494047Y-20493190D01*
X109363094Y-20493190D01*
X109363094Y-20112238D01*
X109361515Y-20096210D01*
X109361645Y-20093259D01*
X109361068Y-20091673D01*
X109360692Y-20087852D01*
X109352392Y-20067815D01*
X109344977Y-20047422D01*
X109343094Y-20045366D01*
X109342028Y-20042792D01*
X109326690Y-20027454D01*
X109312037Y-20011454D01*
X109309511Y-20010275D01*
X109307540Y-20008304D01*
X109287501Y-20000003D01*
X109267841Y-19990829D01*
X109265054Y-19990706D01*
X109262480Y-19989640D01*
X109240794Y-19989640D01*
X109219116Y-19988687D01*
X109216495Y-19989640D01*
X109213708Y-19989640D01*
X109193664Y-19997942D01*
X109173279Y-20005355D01*
X109171223Y-20007237D01*
X109168648Y-20008304D01*
X109153305Y-20023646D01*
X109137310Y-20038295D01*
X109135352Y-20041599D01*
X109134160Y-20042792D01*
X109133030Y-20045519D01*
X109124821Y-20059377D01*
X108571427Y-21245220D01*
X108018034Y-20059377D01*
X108009824Y-20045519D01*
X108008695Y-20042792D01*
X108007502Y-20041599D01*
X108005545Y-20038295D01*
X107989544Y-20023641D01*
X107974207Y-20008304D01*
X107971632Y-20007237D01*
X107969577Y-20005355D01*
X107949183Y-19997939D01*
X107929147Y-19989640D01*
X107926361Y-19989640D01*
X107923740Y-19988687D01*
X107902061Y-19989640D01*
X107880375Y-19989640D01*
X107877800Y-19990706D01*
X107875014Y-19990829D01*
X107855353Y-20000003D01*
X107835315Y-20008304D01*
X107833343Y-20010275D01*
X107830818Y-20011454D01*
X107816164Y-20027454D01*
X107800827Y-20042792D01*
X107799760Y-20045366D01*
X107797878Y-20047422D01*
X107790462Y-20067815D01*
X107782163Y-20087852D01*
X107781786Y-20091673D01*
X107781210Y-20093259D01*
X107781339Y-20096210D01*
X107779761Y-20112238D01*
X104410713Y-20112238D01*
X104408311Y-20087852D01*
X104389647Y-20042792D01*
X104355159Y-20008304D01*
X104310099Y-19989640D01*
X104261327Y-19989640D01*
X104216267Y-20008304D01*
X104181779Y-20042792D01*
X104163115Y-20087852D01*
X104160713Y-20112238D01*
X101648808Y-20112238D01*
X101646406Y-20087852D01*
X101627742Y-20042792D01*
X101593254Y-20008304D01*
X101548194Y-19989640D01*
X101499422Y-19989640D01*
X101454362Y-20008304D01*
X101419874Y-20042792D01*
X101401210Y-20087852D01*
X101398808Y-20112238D01*
X101398808Y-21797015D01*
X101335400Y-21923830D01*
X101182192Y-22000435D01*
X101161455Y-22013489D01*
X101129499Y-22050334D01*
X101114075Y-22096604D01*
X100571519Y-22096604D01*
X100574938Y-22093639D01*
X100582704Y-22081301D01*
X100584784Y-22078904D01*
X100585425Y-22076979D01*
X100587993Y-22072901D01*
X100683231Y-21882424D01*
X100691988Y-21859538D01*
X100692306Y-21855058D01*
X100694025Y-21850909D01*
X100696427Y-21826523D01*
X100696427Y-21064619D01*
X100694025Y-21040233D01*
X100692306Y-21036083D01*
X100691988Y-21031604D01*
X100683231Y-21008718D01*
X100587993Y-20818241D01*
X100585425Y-20814162D01*
X100584784Y-20812238D01*
X100582704Y-20809840D01*
X100574938Y-20797503D01*
X100563097Y-20787233D01*
X100552828Y-20775393D01*
X100540491Y-20767626D01*
X100538093Y-20765547D01*
X100536167Y-20764905D01*
X100532091Y-20762339D01*
X100341615Y-20667101D01*
X100318729Y-20658343D01*
X100314247Y-20658024D01*
X100310099Y-20656306D01*
X100285713Y-20653904D01*
X99904760Y-20653904D01*
X99880374Y-20656306D01*
X99876225Y-20658024D01*
X99871744Y-20658343D01*
X99848859Y-20667100D01*
X99658382Y-20762339D01*
X99654305Y-20764905D01*
X99652380Y-20765547D01*
X99649981Y-20767626D01*
X99637645Y-20775393D01*
X99627375Y-20787233D01*
X99615535Y-20797503D01*
X99607768Y-20809839D01*
X99605689Y-20812238D01*
X99605047Y-20814163D01*
X99602481Y-20818240D01*
X99507242Y-21008718D01*
X99498485Y-21031603D01*
X99498166Y-21036084D01*
X99496448Y-21040233D01*
X99494046Y-21064619D01*
X99271824Y-21064619D01*
X99271824Y-19765016D01*
X120632936Y-19765016D01*
X120632936Y-22459460D01*
G37*
G36*
X115027381Y-19387238D02*
G01*
X114696474Y-19387238D01*
X114457998Y-19307746D01*
X114302732Y-19152478D01*
X114222702Y-18992419D01*
X114134524Y-18639706D01*
X114134524Y-18384769D01*
X114222702Y-18032055D01*
X114302732Y-17871995D01*
X114457999Y-17716729D01*
X114696474Y-17637238D01*
X115027381Y-17637238D01*
X115027381Y-19387238D01*
G37*
G36*
X113027381Y-18434857D02*
G01*
X112419984Y-18434857D01*
X112274046Y-18361888D01*
X112207494Y-18295335D01*
X112134524Y-18149395D01*
X112134524Y-17922698D01*
X112207494Y-17776757D01*
X112274044Y-17710208D01*
X112419984Y-17637238D01*
X113027381Y-17637238D01*
X113027381Y-18434857D01*
G37*
G36*
X117306725Y-19859460D02*
G01*
X103188223Y-19859460D01*
X103188223Y-17489349D01*
X103410445Y-17489349D01*
X103410734Y-17512996D01*
X103410734Y-17536624D01*
X103411031Y-17537342D01*
X103411041Y-17538117D01*
X103418439Y-17561478D01*
X104275582Y-19561478D01*
X104287396Y-19582946D01*
X104322301Y-19617010D01*
X104367586Y-19635124D01*
X104416354Y-19634529D01*
X104461183Y-19615317D01*
X104495247Y-19580412D01*
X104513361Y-19535127D01*
X104512766Y-19486358D01*
X104505368Y-19462998D01*
X103722899Y-17637238D01*
X104866665Y-17637238D01*
X104891051Y-17634836D01*
X104936111Y-17616172D01*
X104970599Y-17581684D01*
X104989263Y-17536624D01*
X104989263Y-17487852D01*
X105220258Y-17487852D01*
X105220258Y-17536624D01*
X105238922Y-17581684D01*
X105273410Y-17616172D01*
X105318470Y-17634836D01*
X105342856Y-17637238D01*
X105789285Y-17637238D01*
X105789285Y-19512238D01*
X105791687Y-19536624D01*
X105810351Y-19581684D01*
X105844839Y-19616172D01*
X105889899Y-19634836D01*
X105938671Y-19634836D01*
X105983731Y-19616172D01*
X106018219Y-19581684D01*
X106036883Y-19536624D01*
X106039285Y-19512238D01*
X106039285Y-18655095D01*
X108455952Y-18655095D01*
X108455952Y-19131285D01*
X108458354Y-19155671D01*
X108460072Y-19159819D01*
X108460391Y-19164301D01*
X108469149Y-19187187D01*
X108564387Y-19377663D01*
X108570992Y-19388155D01*
X108572256Y-19391207D01*
X108575076Y-19394643D01*
X108577441Y-19398400D01*
X108579932Y-19400560D01*
X108587801Y-19410149D01*
X108683039Y-19505388D01*
X108692627Y-19513257D01*
X108694789Y-19515749D01*
X108698546Y-19518114D01*
X108701981Y-19520933D01*
X108705031Y-19522196D01*
X108715526Y-19528803D01*
X108906003Y-19624042D01*
X108928888Y-19632799D01*
X108933369Y-19633117D01*
X108937518Y-19634836D01*
X108961904Y-19637238D01*
X109533333Y-19637238D01*
X109557719Y-19634836D01*
X109561867Y-19633117D01*
X109566349Y-19632799D01*
X109589235Y-19624041D01*
X109779711Y-19528803D01*
X109790205Y-19522196D01*
X109793256Y-19520933D01*
X109796690Y-19518114D01*
X109800448Y-19515749D01*
X109802609Y-19513257D01*
X109812198Y-19505388D01*
X109907436Y-19410149D01*
X109922981Y-19391207D01*
X109941646Y-19346147D01*
X109941645Y-19297373D01*
X109922980Y-19252314D01*
X109888493Y-19217827D01*
X109843433Y-19199162D01*
X109794660Y-19199163D01*
X109749600Y-19217828D01*
X109730658Y-19233373D01*
X109649763Y-19314268D01*
X109503825Y-19387238D01*
X108991412Y-19387238D01*
X108845474Y-19314269D01*
X108778922Y-19247716D01*
X108705952Y-19101776D01*
X108705952Y-18684603D01*
X108778922Y-18538663D01*
X108845474Y-18472110D01*
X108991412Y-18399142D01*
X109247619Y-18399142D01*
X109260517Y-18397871D01*
X109263796Y-18398090D01*
X109266054Y-18397326D01*
X109272005Y-18396740D01*
X109290774Y-18388965D01*
X109309998Y-18382464D01*
X109313168Y-18379690D01*
X109317065Y-18378076D01*
X109331430Y-18363711D01*
X109346702Y-18350348D01*
X109348569Y-18346571D01*
X109351553Y-18343588D01*
X109359326Y-18324819D01*
X109368323Y-18306629D01*
X109368603Y-18302423D01*
X109370217Y-18298528D01*
X109370217Y-18278216D01*
X109371567Y-18257964D01*
X109370217Y-18253972D01*
X109370217Y-18249756D01*
X109362443Y-18230988D01*
X109355941Y-18211763D01*
X109352467Y-18206903D01*
X109351553Y-18204696D01*
X109349225Y-18202368D01*
X109341691Y-18191828D01*
X109080382Y-17893190D01*
X111884524Y-17893190D01*
X111884524Y-18178904D01*
X111886926Y-18203290D01*
X111888644Y-18207438D01*
X111888963Y-18211920D01*
X111897721Y-18234806D01*
X111992959Y-18425282D01*
X111999564Y-18435774D01*
X112000828Y-18438826D01*
X112003648Y-18442262D01*
X112006013Y-18446019D01*
X112008504Y-18448179D01*
X112016373Y-18457768D01*
X112111611Y-18553007D01*
X112121199Y-18560876D01*
X112123361Y-18563368D01*
X112127118Y-18565733D01*
X112130553Y-18568552D01*
X112133603Y-18569815D01*
X112144098Y-18576422D01*
X112334575Y-18671661D01*
X112357460Y-18680418D01*
X112361941Y-18680736D01*
X112366090Y-18682455D01*
X112390476Y-18684857D01*
X113027381Y-18684857D01*
X113027381Y-19512238D01*
X113029783Y-19536624D01*
X113048447Y-19581684D01*
X113082935Y-19616172D01*
X113127995Y-19634836D01*
X113176767Y-19634836D01*
X113221827Y-19616172D01*
X113256315Y-19581684D01*
X113274979Y-19536624D01*
X113277381Y-19512238D01*
X113277381Y-18369380D01*
X113884524Y-18369380D01*
X113884524Y-18655095D01*
X113884943Y-18659349D01*
X113884672Y-18661171D01*
X113886021Y-18670299D01*
X113886926Y-18679481D01*
X113887630Y-18681182D01*
X113888256Y-18685412D01*
X113983494Y-19066364D01*
X113984137Y-19068163D01*
X113984201Y-19069063D01*
X113988083Y-19079209D01*
X113991739Y-19089439D01*
X113992275Y-19090163D01*
X113992959Y-19091949D01*
X114088197Y-19282425D01*
X114094802Y-19292917D01*
X114096066Y-19295969D01*
X114098886Y-19299405D01*
X114101251Y-19303162D01*
X114103742Y-19305322D01*
X114111611Y-19314911D01*
X114302087Y-19505388D01*
X114321029Y-19520933D01*
X114325180Y-19522652D01*
X114328573Y-19525595D01*
X114350948Y-19535585D01*
X114636663Y-19630823D01*
X114648753Y-19633572D01*
X114651805Y-19634836D01*
X114656227Y-19635271D01*
X114660557Y-19636256D01*
X114663847Y-19636022D01*
X114676191Y-19637238D01*
X115152381Y-19637238D01*
X115176767Y-19634836D01*
X115221827Y-19616172D01*
X115256315Y-19581684D01*
X115274979Y-19536624D01*
X115277381Y-19512238D01*
X115277381Y-17512238D01*
X115274979Y-17487852D01*
X115696450Y-17487852D01*
X115696450Y-17536624D01*
X115715114Y-17581684D01*
X115749602Y-17616172D01*
X115794662Y-17634836D01*
X115819048Y-17637238D01*
X116265477Y-17637238D01*
X116265477Y-19512238D01*
X116267879Y-19536624D01*
X116286543Y-19581684D01*
X116321031Y-19616172D01*
X116366091Y-19634836D01*
X116414863Y-19634836D01*
X116459923Y-19616172D01*
X116494411Y-19581684D01*
X116513075Y-19536624D01*
X116515477Y-19512238D01*
X116515477Y-17637238D01*
X116961905Y-17637238D01*
X116986291Y-17634836D01*
X117031351Y-17616172D01*
X117065839Y-17581684D01*
X117084503Y-17536624D01*
X117084503Y-17487852D01*
X117065839Y-17442792D01*
X117031351Y-17408304D01*
X116986291Y-17389640D01*
X116961905Y-17387238D01*
X115819048Y-17387238D01*
X115794662Y-17389640D01*
X115749602Y-17408304D01*
X115715114Y-17442792D01*
X115696450Y-17487852D01*
X115274979Y-17487852D01*
X115256315Y-17442792D01*
X115221827Y-17408304D01*
X115176767Y-17389640D01*
X115152381Y-17387238D01*
X114676191Y-17387238D01*
X114663847Y-17388453D01*
X114660557Y-17388220D01*
X114656227Y-17389204D01*
X114651805Y-17389640D01*
X114648753Y-17390903D01*
X114636663Y-17393653D01*
X114350948Y-17488891D01*
X114328573Y-17498881D01*
X114325181Y-17501822D01*
X114321030Y-17503542D01*
X114302088Y-17519087D01*
X114111612Y-17709564D01*
X114103745Y-17719149D01*
X114101251Y-17721313D01*
X114098883Y-17725074D01*
X114096067Y-17728506D01*
X114094804Y-17731553D01*
X114088197Y-17742050D01*
X113992959Y-17932526D01*
X113992275Y-17934311D01*
X113991739Y-17935036D01*
X113988083Y-17945265D01*
X113984201Y-17955412D01*
X113984137Y-17956311D01*
X113983494Y-17958111D01*
X113888256Y-18339063D01*
X113887630Y-18343292D01*
X113886926Y-18344994D01*
X113886021Y-18354175D01*
X113884672Y-18363304D01*
X113884943Y-18365125D01*
X113884524Y-18369380D01*
X113277381Y-18369380D01*
X113277381Y-17512238D01*
X113274979Y-17487852D01*
X113256315Y-17442792D01*
X113221827Y-17408304D01*
X113176767Y-17389640D01*
X113152381Y-17387238D01*
X112390476Y-17387238D01*
X112366090Y-17389640D01*
X112361941Y-17391358D01*
X112357460Y-17391677D01*
X112334575Y-17400434D01*
X112144098Y-17495673D01*
X112133601Y-17502280D01*
X112130554Y-17503543D01*
X112127122Y-17506359D01*
X112123361Y-17508727D01*
X112121197Y-17511221D01*
X112111612Y-17519088D01*
X112016374Y-17614326D01*
X112008507Y-17623911D01*
X112006013Y-17626075D01*
X112003645Y-17629836D01*
X112000829Y-17633268D01*
X111999566Y-17636315D01*
X111992959Y-17646812D01*
X111897721Y-17837288D01*
X111888963Y-17860174D01*
X111888644Y-17864655D01*
X111886926Y-17868804D01*
X111884524Y-17893190D01*
X109080382Y-17893190D01*
X108856423Y-17637238D01*
X109819047Y-17637238D01*
X109843433Y-17634836D01*
X109888493Y-17616172D01*
X109922981Y-17581684D01*
X109941645Y-17536624D01*
X109941645Y-17487852D01*
X109922981Y-17442792D01*
X109888493Y-17408304D01*
X109843433Y-17389640D01*
X109819047Y-17387238D01*
X108580952Y-17387238D01*
X108568058Y-17388508D01*
X108564774Y-17388289D01*
X108562510Y-17389054D01*
X108556566Y-17389640D01*
X108537811Y-17397408D01*
X108518573Y-17403915D01*
X108515400Y-17406690D01*
X108511506Y-17408304D01*
X108497148Y-17422661D01*
X108481868Y-17436032D01*
X108479999Y-17439810D01*
X108477018Y-17442792D01*
X108469247Y-17461551D01*
X108460248Y-17479750D01*
X108459967Y-17483956D01*
X108458354Y-17487852D01*
X108458354Y-17508154D01*
X108457003Y-17528416D01*
X108458354Y-17532410D01*
X108458354Y-17536624D01*
X108466122Y-17555378D01*
X108472629Y-17574617D01*
X108476104Y-17579478D01*
X108477018Y-17581684D01*
X108479344Y-17584010D01*
X108486880Y-17594551D01*
X108972148Y-18149142D01*
X108961904Y-18149142D01*
X108937518Y-18151544D01*
X108933369Y-18153262D01*
X108928888Y-18153581D01*
X108906003Y-18162338D01*
X108715526Y-18257577D01*
X108705031Y-18264183D01*
X108701981Y-18265447D01*
X108698546Y-18268265D01*
X108694789Y-18270631D01*
X108692627Y-18273122D01*
X108683039Y-18280992D01*
X108587801Y-18376231D01*
X108579932Y-18385819D01*
X108577441Y-18387980D01*
X108575076Y-18391736D01*
X108572256Y-18395173D01*
X108570992Y-18398224D01*
X108564387Y-18408717D01*
X108469149Y-18599193D01*
X108460391Y-18622079D01*
X108460072Y-18626560D01*
X108458354Y-18630709D01*
X108455952Y-18655095D01*
X106039285Y-18655095D01*
X106039285Y-17637238D01*
X106485713Y-17637238D01*
X106510099Y-17634836D01*
X106555159Y-17616172D01*
X106589647Y-17581684D01*
X106608311Y-17536624D01*
X106608311Y-17487852D01*
X106589647Y-17442792D01*
X106555159Y-17408304D01*
X106510099Y-17389640D01*
X106485713Y-17387238D01*
X105342856Y-17387238D01*
X105318470Y-17389640D01*
X105273410Y-17408304D01*
X105238922Y-17442792D01*
X105220258Y-17487852D01*
X104989263Y-17487852D01*
X104970599Y-17442792D01*
X104936111Y-17408304D01*
X104891051Y-17389640D01*
X104866665Y-17387238D01*
X103533332Y-17387238D01*
X103508946Y-17389640D01*
X103508227Y-17389937D01*
X103507453Y-17389947D01*
X103485765Y-17399241D01*
X103463886Y-17408304D01*
X103463336Y-17408853D01*
X103462624Y-17409159D01*
X103446118Y-17426071D01*
X103429398Y-17442792D01*
X103429101Y-17443508D01*
X103428559Y-17444064D01*
X103419768Y-17466040D01*
X103410734Y-17487852D01*
X103410734Y-17488626D01*
X103410445Y-17489349D01*
X103188223Y-17489349D01*
X103188223Y-17165016D01*
X117306725Y-17165016D01*
X117306725Y-19859460D01*
G37*
G36*
X122566244Y-62806874D02*
G01*
X122632793Y-62873423D01*
X122705764Y-63019365D01*
X122705764Y-63531777D01*
X122632794Y-63677715D01*
X122566242Y-63744268D01*
X122420304Y-63817238D01*
X122098367Y-63817238D01*
X122003383Y-63769746D01*
X122003383Y-62781396D01*
X122098367Y-62733904D01*
X122420304Y-62733904D01*
X122566244Y-62806874D01*
G37*
G36*
X123822482Y-63292137D02*
G01*
X123845367Y-63300894D01*
X123849848Y-63301212D01*
X123853997Y-63302931D01*
X123878383Y-63305333D01*
X124325066Y-63305333D01*
X124451880Y-63368740D01*
X124515288Y-63495555D01*
X124515288Y-63627015D01*
X124451880Y-63753830D01*
X124325066Y-63817238D01*
X123907891Y-63817238D01*
X123812907Y-63769746D01*
X123812907Y-63287349D01*
X123822482Y-63292137D01*
G37*
G36*
X125632006Y-63292137D02*
G01*
X125654891Y-63300894D01*
X125659372Y-63301212D01*
X125663521Y-63302931D01*
X125687907Y-63305333D01*
X126134590Y-63305333D01*
X126261404Y-63368740D01*
X126324812Y-63495555D01*
X126324812Y-63627015D01*
X126261404Y-63753830D01*
X126134590Y-63817238D01*
X125717415Y-63817238D01*
X125622431Y-63769746D01*
X125622431Y-63287349D01*
X125632006Y-63292137D01*
G37*
G36*
X114562097Y-63245809D02*
G01*
X113956572Y-63245809D01*
X114259335Y-62337521D01*
X114562097Y-63245809D01*
G37*
G36*
X128701796Y-64289460D02*
G01*
X109150577Y-64289460D01*
X109150577Y-62618510D01*
X109372799Y-62618510D01*
X109374831Y-62625759D01*
X109374831Y-62633290D01*
X109381359Y-62649051D01*
X109385962Y-62665472D01*
X109392234Y-62675306D01*
X109393495Y-62678350D01*
X109395374Y-62680229D01*
X109399139Y-62686132D01*
X110287865Y-63817238D01*
X109497429Y-63817238D01*
X109473043Y-63819640D01*
X109427983Y-63838304D01*
X109393495Y-63872792D01*
X109374831Y-63917852D01*
X109374831Y-63966624D01*
X109393495Y-64011684D01*
X109427983Y-64046172D01*
X109473043Y-64064836D01*
X109497429Y-64067238D01*
X110545048Y-64067238D01*
X110552012Y-64066552D01*
X110554654Y-64066869D01*
X110557829Y-64065979D01*
X110569434Y-64064836D01*
X110585186Y-64058311D01*
X110601617Y-64053706D01*
X110607539Y-64049052D01*
X110614494Y-64046172D01*
X110626553Y-64034112D01*
X110639967Y-64023573D01*
X110643657Y-64017008D01*
X110648982Y-64011684D01*
X110655507Y-63995929D01*
X110663868Y-63981058D01*
X110664765Y-63973578D01*
X110667646Y-63966624D01*
X110667646Y-63949574D01*
X110669679Y-63932632D01*
X110667646Y-63925378D01*
X110667646Y-63917852D01*
X110661120Y-63902097D01*
X110656516Y-63885670D01*
X110650242Y-63875834D01*
X110648982Y-63872792D01*
X110647102Y-63870912D01*
X110643338Y-63865011D01*
X109754612Y-62733904D01*
X110545048Y-62733904D01*
X110569434Y-62731502D01*
X110614494Y-62712838D01*
X110648982Y-62678350D01*
X110667646Y-62633290D01*
X110667646Y-62608904D01*
X111181953Y-62608904D01*
X111181953Y-63942238D01*
X111184355Y-63966624D01*
X111203019Y-64011684D01*
X111237507Y-64046172D01*
X111282567Y-64064836D01*
X111331339Y-64064836D01*
X111376399Y-64046172D01*
X111410887Y-64011684D01*
X111429551Y-63966624D01*
X111431953Y-63942238D01*
X111431953Y-62618510D01*
X111944228Y-62618510D01*
X111946260Y-62625759D01*
X111946260Y-62633290D01*
X111952788Y-62649051D01*
X111957391Y-62665472D01*
X111963663Y-62675306D01*
X111964924Y-62678350D01*
X111966803Y-62680229D01*
X111970568Y-62686132D01*
X112859294Y-63817238D01*
X112068858Y-63817238D01*
X112044472Y-63819640D01*
X111999412Y-63838304D01*
X111964924Y-63872792D01*
X111946260Y-63917852D01*
X111946260Y-63966624D01*
X111964924Y-64011684D01*
X111999412Y-64046172D01*
X112044472Y-64064836D01*
X112068858Y-64067238D01*
X113116477Y-64067238D01*
X113123441Y-64066552D01*
X113126083Y-64066869D01*
X113129258Y-64065979D01*
X113140863Y-64064836D01*
X113156615Y-64058311D01*
X113173046Y-64053706D01*
X113178968Y-64049052D01*
X113185923Y-64046172D01*
X113197982Y-64034112D01*
X113211396Y-64023573D01*
X113215086Y-64017008D01*
X113220411Y-64011684D01*
X113226936Y-63995929D01*
X113235297Y-63981058D01*
X113236194Y-63973578D01*
X113239075Y-63966624D01*
X113239075Y-63949574D01*
X113241108Y-63932632D01*
X113239419Y-63926604D01*
X113468650Y-63926604D01*
X113472107Y-63975253D01*
X113493919Y-64018878D01*
X113530765Y-64050833D01*
X113577034Y-64066256D01*
X113625683Y-64062799D01*
X113669308Y-64040987D01*
X113701263Y-64004141D01*
X113711253Y-63981766D01*
X113873239Y-63495809D01*
X114645430Y-63495809D01*
X114807416Y-63981767D01*
X114817406Y-64004142D01*
X114849361Y-64040987D01*
X114892986Y-64062799D01*
X114941635Y-64066256D01*
X114987904Y-64050833D01*
X115024750Y-64018878D01*
X115046562Y-63975254D01*
X115050019Y-63926604D01*
X115044586Y-63902710D01*
X115017887Y-63822614D01*
X116898642Y-63822614D01*
X116898642Y-63871387D01*
X116917307Y-63916447D01*
X116917311Y-63916451D01*
X116932852Y-63935388D01*
X117028090Y-64030626D01*
X117047026Y-64046166D01*
X117047032Y-64046172D01*
X117078893Y-64059369D01*
X117092091Y-64064836D01*
X117092092Y-64064836D01*
X117140864Y-64064836D01*
X117140865Y-64064836D01*
X117154062Y-64059369D01*
X117185924Y-64046172D01*
X117185929Y-64046166D01*
X117204866Y-64030626D01*
X117300104Y-63935388D01*
X117315644Y-63916451D01*
X117315649Y-63916447D01*
X117334314Y-63871388D01*
X117334315Y-63822614D01*
X117315650Y-63777554D01*
X117300105Y-63758612D01*
X117204867Y-63663373D01*
X117185925Y-63647828D01*
X117185924Y-63647827D01*
X117140864Y-63629162D01*
X117092091Y-63629163D01*
X117088306Y-63630731D01*
X117047032Y-63647827D01*
X117047031Y-63647828D01*
X117028089Y-63663373D01*
X116932851Y-63758612D01*
X116917306Y-63777554D01*
X116914182Y-63785097D01*
X116899225Y-63821207D01*
X116898642Y-63822614D01*
X115017887Y-63822614D01*
X114391096Y-61942238D01*
X117943859Y-61942238D01*
X117943859Y-63942238D01*
X117946261Y-63966624D01*
X117964925Y-64011684D01*
X117999413Y-64046172D01*
X118044473Y-64064836D01*
X118093245Y-64064836D01*
X118138305Y-64046172D01*
X118172793Y-64011684D01*
X118191457Y-63966624D01*
X118193859Y-63942238D01*
X118193859Y-62505684D01*
X118622252Y-63423669D01*
X118627541Y-63432597D01*
X118628642Y-63435625D01*
X118630602Y-63437765D01*
X118634741Y-63444752D01*
X118648751Y-63457582D01*
X118661582Y-63471593D01*
X118666612Y-63473940D01*
X118670709Y-63477692D01*
X118688564Y-63484184D01*
X118705778Y-63492218D01*
X118711326Y-63492461D01*
X118716546Y-63494360D01*
X118735520Y-63493525D01*
X118754504Y-63494360D01*
X118759726Y-63492460D01*
X118765272Y-63492217D01*
X118782476Y-63484188D01*
X118800341Y-63477692D01*
X118804439Y-63473938D01*
X118809468Y-63471592D01*
X118822293Y-63457587D01*
X118836309Y-63444752D01*
X118840449Y-63437762D01*
X118842408Y-63435624D01*
X118843507Y-63432600D01*
X118848798Y-63423670D01*
X119277192Y-62505682D01*
X119277192Y-63942238D01*
X119279594Y-63966624D01*
X119298258Y-64011684D01*
X119332746Y-64046172D01*
X119377806Y-64064836D01*
X119426578Y-64064836D01*
X119471638Y-64046172D01*
X119506126Y-64011684D01*
X119524790Y-63966624D01*
X119527192Y-63942238D01*
X119527192Y-61942238D01*
X121753383Y-61942238D01*
X121753383Y-63942238D01*
X121755785Y-63966624D01*
X121774449Y-64011684D01*
X121808937Y-64046172D01*
X121853997Y-64064836D01*
X121902769Y-64064836D01*
X121947829Y-64046172D01*
X121964292Y-64029708D01*
X122012958Y-64054042D01*
X122035843Y-64062799D01*
X122040324Y-64063117D01*
X122044473Y-64064836D01*
X122068859Y-64067238D01*
X122449812Y-64067238D01*
X122474198Y-64064836D01*
X122478346Y-64063117D01*
X122482828Y-64062799D01*
X122505714Y-64054041D01*
X122696190Y-63958803D01*
X122706684Y-63952196D01*
X122709735Y-63950933D01*
X122713169Y-63948114D01*
X122716927Y-63945749D01*
X122719088Y-63943257D01*
X122728677Y-63935388D01*
X122823915Y-63840149D01*
X122831783Y-63830560D01*
X122834275Y-63828400D01*
X122836639Y-63824643D01*
X122839460Y-63821207D01*
X122840724Y-63818155D01*
X122847329Y-63807663D01*
X122942568Y-63617186D01*
X122951325Y-63594301D01*
X122951643Y-63589819D01*
X122953362Y-63585671D01*
X122955764Y-63561285D01*
X122955764Y-62989857D01*
X122953362Y-62965471D01*
X122951643Y-62961321D01*
X122951325Y-62956842D01*
X122942568Y-62933956D01*
X122922900Y-62894619D01*
X123562907Y-62894619D01*
X123562907Y-63942238D01*
X123565309Y-63966624D01*
X123583973Y-64011684D01*
X123618461Y-64046172D01*
X123663521Y-64064836D01*
X123712293Y-64064836D01*
X123757353Y-64046172D01*
X123773816Y-64029708D01*
X123822482Y-64054042D01*
X123845367Y-64062799D01*
X123849848Y-64063117D01*
X123853997Y-64064836D01*
X123878383Y-64067238D01*
X124354574Y-64067238D01*
X124378960Y-64064836D01*
X124383108Y-64063117D01*
X124387590Y-64062799D01*
X124410476Y-64054041D01*
X124600952Y-63958803D01*
X124605028Y-63956236D01*
X124606954Y-63955595D01*
X124609352Y-63953515D01*
X124621689Y-63945749D01*
X124631958Y-63933908D01*
X124643799Y-63923639D01*
X124651565Y-63911301D01*
X124653645Y-63908904D01*
X124654286Y-63906979D01*
X124656854Y-63902901D01*
X124752092Y-63712424D01*
X124760849Y-63689538D01*
X124761167Y-63685058D01*
X124762886Y-63680909D01*
X124765288Y-63656523D01*
X124765288Y-63466047D01*
X124762886Y-63441661D01*
X124761167Y-63437512D01*
X124760849Y-63433031D01*
X124752092Y-63410146D01*
X124656853Y-63219669D01*
X124654286Y-63215592D01*
X124653645Y-63213667D01*
X124651565Y-63211268D01*
X124643799Y-63198932D01*
X124631958Y-63188662D01*
X124621689Y-63176822D01*
X124609352Y-63169055D01*
X124606954Y-63166976D01*
X124605028Y-63166334D01*
X124600952Y-63163768D01*
X124410476Y-63068530D01*
X124387590Y-63059772D01*
X124383108Y-63059453D01*
X124378960Y-63057735D01*
X124354574Y-63055333D01*
X123907891Y-63055333D01*
X123812907Y-63007841D01*
X123812907Y-62924127D01*
X123827661Y-62894619D01*
X125372431Y-62894619D01*
X125372431Y-63942238D01*
X125374833Y-63966624D01*
X125393497Y-64011684D01*
X125427985Y-64046172D01*
X125473045Y-64064836D01*
X125521817Y-64064836D01*
X125566877Y-64046172D01*
X125583340Y-64029708D01*
X125632006Y-64054042D01*
X125654891Y-64062799D01*
X125659372Y-64063117D01*
X125663521Y-64064836D01*
X125687907Y-64067238D01*
X126164098Y-64067238D01*
X126188484Y-64064836D01*
X126192632Y-64063117D01*
X126197114Y-64062799D01*
X126220000Y-64054041D01*
X126410476Y-63958803D01*
X126414552Y-63956236D01*
X126416478Y-63955595D01*
X126418876Y-63953515D01*
X126431213Y-63945749D01*
X126441482Y-63933908D01*
X126453323Y-63923639D01*
X126461089Y-63911301D01*
X126463169Y-63908904D01*
X126463810Y-63906979D01*
X126466378Y-63902901D01*
X126561616Y-63712424D01*
X126570373Y-63689538D01*
X126570691Y-63685058D01*
X126572410Y-63680909D01*
X126574812Y-63656523D01*
X126574812Y-63466047D01*
X126572410Y-63441661D01*
X126570691Y-63437512D01*
X126570373Y-63433031D01*
X126561616Y-63410146D01*
X126541947Y-63370809D01*
X127086717Y-63370809D01*
X127086717Y-63561285D01*
X127089119Y-63585671D01*
X127090837Y-63589819D01*
X127091156Y-63594301D01*
X127099914Y-63617187D01*
X127195152Y-63807663D01*
X127201757Y-63818155D01*
X127203021Y-63821207D01*
X127205841Y-63824643D01*
X127208206Y-63828400D01*
X127210697Y-63830560D01*
X127218566Y-63840149D01*
X127313804Y-63935388D01*
X127323392Y-63943257D01*
X127325554Y-63945749D01*
X127329311Y-63948114D01*
X127332746Y-63950933D01*
X127335796Y-63952196D01*
X127346291Y-63958803D01*
X127536768Y-64054042D01*
X127559653Y-64062799D01*
X127564134Y-64063117D01*
X127568283Y-64064836D01*
X127592669Y-64067238D01*
X128068860Y-64067238D01*
X128081203Y-64066022D01*
X128084494Y-64066256D01*
X128088823Y-64065271D01*
X128093246Y-64064836D01*
X128096297Y-64063572D01*
X128108388Y-64060823D01*
X128394102Y-63965585D01*
X128416477Y-63955595D01*
X128453323Y-63923640D01*
X128475135Y-63880015D01*
X128478592Y-63831366D01*
X128463169Y-63785097D01*
X128431214Y-63748251D01*
X128387589Y-63726439D01*
X128338940Y-63722982D01*
X128315046Y-63728415D01*
X128048577Y-63817238D01*
X127622177Y-63817238D01*
X127476239Y-63744269D01*
X127409687Y-63677716D01*
X127336717Y-63531776D01*
X127336717Y-63400317D01*
X127409687Y-63254376D01*
X127476237Y-63187827D01*
X127636295Y-63107797D01*
X128003939Y-63015887D01*
X128005738Y-63015243D01*
X128006638Y-63015180D01*
X128016784Y-63011297D01*
X128027014Y-63007642D01*
X128027738Y-63007105D01*
X128029524Y-63006422D01*
X128220000Y-62911183D01*
X128230496Y-62904575D01*
X128233544Y-62903313D01*
X128236975Y-62900496D01*
X128240737Y-62898129D01*
X128242900Y-62895634D01*
X128252486Y-62887768D01*
X128347724Y-62792530D01*
X128355590Y-62782944D01*
X128358085Y-62780781D01*
X128360452Y-62777019D01*
X128363269Y-62773588D01*
X128364531Y-62770540D01*
X128371139Y-62760044D01*
X128466378Y-62569567D01*
X128475135Y-62546682D01*
X128475453Y-62542200D01*
X128477172Y-62538052D01*
X128479574Y-62513666D01*
X128479574Y-62323190D01*
X128477172Y-62298804D01*
X128475453Y-62294655D01*
X128475135Y-62290174D01*
X128466378Y-62267289D01*
X128371139Y-62076812D01*
X128364531Y-62066315D01*
X128363269Y-62063268D01*
X128360452Y-62059836D01*
X128358085Y-62056075D01*
X128355590Y-62053911D01*
X128347724Y-62044326D01*
X128252486Y-61949088D01*
X128242900Y-61941221D01*
X128240737Y-61938727D01*
X128236975Y-61936359D01*
X128233544Y-61933543D01*
X128230496Y-61932280D01*
X128220000Y-61925673D01*
X128029524Y-61830435D01*
X128006638Y-61821677D01*
X128002156Y-61821358D01*
X127998008Y-61819640D01*
X127973622Y-61817238D01*
X127497431Y-61817238D01*
X127485087Y-61818453D01*
X127481797Y-61818220D01*
X127477467Y-61819204D01*
X127473045Y-61819640D01*
X127469993Y-61820903D01*
X127457903Y-61823653D01*
X127172189Y-61918891D01*
X127149814Y-61928881D01*
X127112968Y-61960836D01*
X127091156Y-62004461D01*
X127087699Y-62053110D01*
X127103122Y-62099379D01*
X127135077Y-62136225D01*
X127178702Y-62158037D01*
X127227351Y-62161494D01*
X127251245Y-62156061D01*
X127517714Y-62067238D01*
X127944114Y-62067238D01*
X128090054Y-62140208D01*
X128156604Y-62206758D01*
X128229574Y-62352698D01*
X128229574Y-62484158D01*
X128156604Y-62630098D01*
X128090053Y-62696648D01*
X127929994Y-62776678D01*
X127562352Y-62868589D01*
X127560552Y-62869232D01*
X127559653Y-62869296D01*
X127549495Y-62873182D01*
X127539277Y-62876834D01*
X127538554Y-62877369D01*
X127536768Y-62878053D01*
X127346291Y-62973292D01*
X127335794Y-62979899D01*
X127332747Y-62981162D01*
X127329315Y-62983978D01*
X127325554Y-62986346D01*
X127323390Y-62988840D01*
X127313805Y-62996707D01*
X127218567Y-63091945D01*
X127210700Y-63101530D01*
X127208206Y-63103694D01*
X127205838Y-63107455D01*
X127203022Y-63110887D01*
X127201759Y-63113934D01*
X127195152Y-63124431D01*
X127099914Y-63314907D01*
X127091156Y-63337793D01*
X127090837Y-63342274D01*
X127089119Y-63346423D01*
X127086717Y-63370809D01*
X126541947Y-63370809D01*
X126466377Y-63219669D01*
X126463810Y-63215592D01*
X126463169Y-63213667D01*
X126461089Y-63211268D01*
X126453323Y-63198932D01*
X126441482Y-63188662D01*
X126431213Y-63176822D01*
X126418876Y-63169055D01*
X126416478Y-63166976D01*
X126414552Y-63166334D01*
X126410476Y-63163768D01*
X126220000Y-63068530D01*
X126197114Y-63059772D01*
X126192632Y-63059453D01*
X126188484Y-63057735D01*
X126164098Y-63055333D01*
X125717415Y-63055333D01*
X125622431Y-63007841D01*
X125622431Y-62924127D01*
X125685839Y-62797310D01*
X125812653Y-62733904D01*
X126134590Y-62733904D01*
X126298673Y-62815946D01*
X126321558Y-62824703D01*
X126370208Y-62828161D01*
X126416479Y-62812737D01*
X126453324Y-62780781D01*
X126475135Y-62737158D01*
X126478593Y-62688508D01*
X126463169Y-62642238D01*
X126431213Y-62605393D01*
X126410476Y-62592339D01*
X126220000Y-62497101D01*
X126197114Y-62488343D01*
X126192632Y-62488024D01*
X126188484Y-62486306D01*
X126164098Y-62483904D01*
X125783145Y-62483904D01*
X125758759Y-62486306D01*
X125754610Y-62488024D01*
X125750129Y-62488343D01*
X125727244Y-62497100D01*
X125536767Y-62592339D01*
X125532690Y-62594905D01*
X125530765Y-62595547D01*
X125528366Y-62597626D01*
X125516030Y-62605393D01*
X125505760Y-62617233D01*
X125493920Y-62627503D01*
X125486153Y-62639839D01*
X125484074Y-62642238D01*
X125483432Y-62644163D01*
X125480866Y-62648240D01*
X125385627Y-62838718D01*
X125376870Y-62861603D01*
X125376551Y-62866084D01*
X125374833Y-62870233D01*
X125372431Y-62894619D01*
X123827661Y-62894619D01*
X123876315Y-62797310D01*
X124003129Y-62733904D01*
X124325066Y-62733904D01*
X124489149Y-62815946D01*
X124512034Y-62824703D01*
X124560684Y-62828161D01*
X124606955Y-62812737D01*
X124643800Y-62780781D01*
X124665611Y-62737158D01*
X124669069Y-62688508D01*
X124653645Y-62642238D01*
X124621689Y-62605393D01*
X124600952Y-62592339D01*
X124410476Y-62497101D01*
X124387590Y-62488343D01*
X124383108Y-62488024D01*
X124378960Y-62486306D01*
X124354574Y-62483904D01*
X123973621Y-62483904D01*
X123949235Y-62486306D01*
X123945086Y-62488024D01*
X123940605Y-62488343D01*
X123917720Y-62497100D01*
X123727243Y-62592339D01*
X123723166Y-62594905D01*
X123721241Y-62595547D01*
X123718842Y-62597626D01*
X123706506Y-62605393D01*
X123696236Y-62617233D01*
X123684396Y-62627503D01*
X123676629Y-62639839D01*
X123674550Y-62642238D01*
X123673908Y-62644163D01*
X123671342Y-62648240D01*
X123576103Y-62838718D01*
X123567346Y-62861603D01*
X123567027Y-62866084D01*
X123565309Y-62870233D01*
X123562907Y-62894619D01*
X122922900Y-62894619D01*
X122847330Y-62743479D01*
X122840720Y-62732980D01*
X122839459Y-62729934D01*
X122836643Y-62726502D01*
X122834275Y-62722741D01*
X122831780Y-62720577D01*
X122823914Y-62710992D01*
X122728676Y-62615754D01*
X122719090Y-62607887D01*
X122716927Y-62605393D01*
X122713165Y-62603025D01*
X122709734Y-62600209D01*
X122706686Y-62598946D01*
X122696190Y-62592339D01*
X122505714Y-62497101D01*
X122482828Y-62488343D01*
X122478346Y-62488024D01*
X122474198Y-62486306D01*
X122449812Y-62483904D01*
X122068859Y-62483904D01*
X122044473Y-62486306D01*
X122040324Y-62488024D01*
X122035843Y-62488343D01*
X122012958Y-62497100D01*
X122003383Y-62501887D01*
X122003383Y-61942238D01*
X122000981Y-61917852D01*
X121982317Y-61872792D01*
X121947829Y-61838304D01*
X121902769Y-61819640D01*
X121853997Y-61819640D01*
X121808937Y-61838304D01*
X121774449Y-61872792D01*
X121755785Y-61917852D01*
X121753383Y-61942238D01*
X119527192Y-61942238D01*
X119525613Y-61926210D01*
X119525743Y-61923259D01*
X119525166Y-61921673D01*
X119524790Y-61917852D01*
X119516490Y-61897815D01*
X119509075Y-61877422D01*
X119507192Y-61875366D01*
X119506126Y-61872792D01*
X119490788Y-61857454D01*
X119476135Y-61841454D01*
X119473609Y-61840275D01*
X119471638Y-61838304D01*
X119451599Y-61830003D01*
X119431939Y-61820829D01*
X119429152Y-61820706D01*
X119426578Y-61819640D01*
X119404892Y-61819640D01*
X119383214Y-61818687D01*
X119380593Y-61819640D01*
X119377806Y-61819640D01*
X119357762Y-61827942D01*
X119337377Y-61835355D01*
X119335321Y-61837237D01*
X119332746Y-61838304D01*
X119317403Y-61853646D01*
X119301408Y-61868295D01*
X119299450Y-61871599D01*
X119298258Y-61872792D01*
X119297128Y-61875519D01*
X119288919Y-61889377D01*
X118735525Y-63075220D01*
X118182132Y-61889377D01*
X118173922Y-61875519D01*
X118172793Y-61872792D01*
X118171600Y-61871599D01*
X118169643Y-61868295D01*
X118153642Y-61853641D01*
X118138305Y-61838304D01*
X118135730Y-61837237D01*
X118133675Y-61835355D01*
X118113281Y-61827939D01*
X118093245Y-61819640D01*
X118090459Y-61819640D01*
X118087838Y-61818687D01*
X118066159Y-61819640D01*
X118044473Y-61819640D01*
X118041898Y-61820706D01*
X118039112Y-61820829D01*
X118019451Y-61830003D01*
X117999413Y-61838304D01*
X117997441Y-61840275D01*
X117994916Y-61841454D01*
X117980262Y-61857454D01*
X117964925Y-61872792D01*
X117963858Y-61875366D01*
X117961976Y-61877422D01*
X117954560Y-61897815D01*
X117946261Y-61917852D01*
X117945884Y-61921673D01*
X117945308Y-61923259D01*
X117945437Y-61926210D01*
X117943859Y-61942238D01*
X114391096Y-61942238D01*
X114377920Y-61902710D01*
X114367930Y-61880335D01*
X114362078Y-61873587D01*
X114358084Y-61865599D01*
X114346246Y-61855332D01*
X114335975Y-61843489D01*
X114327983Y-61839493D01*
X114321238Y-61833643D01*
X114306370Y-61828687D01*
X114292350Y-61821677D01*
X114283440Y-61821043D01*
X114274969Y-61818220D01*
X114259335Y-61819330D01*
X114243701Y-61818220D01*
X114235229Y-61821043D01*
X114226320Y-61821677D01*
X114212299Y-61828687D01*
X114197432Y-61833643D01*
X114190685Y-61839493D01*
X114182695Y-61843489D01*
X114172426Y-61855329D01*
X114160586Y-61865598D01*
X114156590Y-61873588D01*
X114150740Y-61880335D01*
X114140750Y-61902710D01*
X113474083Y-63902710D01*
X113468650Y-63926604D01*
X113239419Y-63926604D01*
X113239075Y-63925378D01*
X113239075Y-63917852D01*
X113232549Y-63902097D01*
X113227945Y-63885670D01*
X113221671Y-63875834D01*
X113220411Y-63872792D01*
X113218531Y-63870912D01*
X113214767Y-63865011D01*
X112326041Y-62733904D01*
X113116477Y-62733904D01*
X113140863Y-62731502D01*
X113185923Y-62712838D01*
X113220411Y-62678350D01*
X113239075Y-62633290D01*
X113239075Y-62584518D01*
X113220411Y-62539458D01*
X113185923Y-62504970D01*
X113140863Y-62486306D01*
X113116477Y-62483904D01*
X112068858Y-62483904D01*
X112061889Y-62484590D01*
X112059252Y-62484274D01*
X112056082Y-62485162D01*
X112044472Y-62486306D01*
X112028710Y-62492834D01*
X112012290Y-62497437D01*
X112006370Y-62502087D01*
X111999412Y-62504970D01*
X111987349Y-62517032D01*
X111973939Y-62527569D01*
X111970249Y-62534132D01*
X111964924Y-62539458D01*
X111958396Y-62555216D01*
X111950039Y-62570084D01*
X111949141Y-62577560D01*
X111946260Y-62584518D01*
X111946260Y-62601576D01*
X111944228Y-62618510D01*
X111431953Y-62618510D01*
X111431953Y-62608904D01*
X111429551Y-62584518D01*
X111410887Y-62539458D01*
X111376399Y-62504970D01*
X111331339Y-62486306D01*
X111282567Y-62486306D01*
X111237507Y-62504970D01*
X111203019Y-62539458D01*
X111184355Y-62584518D01*
X111181953Y-62608904D01*
X110667646Y-62608904D01*
X110667646Y-62584518D01*
X110648982Y-62539458D01*
X110614494Y-62504970D01*
X110569434Y-62486306D01*
X110545048Y-62483904D01*
X109497429Y-62483904D01*
X109490460Y-62484590D01*
X109487823Y-62484274D01*
X109484653Y-62485162D01*
X109473043Y-62486306D01*
X109457281Y-62492834D01*
X109440861Y-62497437D01*
X109434941Y-62502087D01*
X109427983Y-62504970D01*
X109415920Y-62517032D01*
X109402510Y-62527569D01*
X109398820Y-62534132D01*
X109393495Y-62539458D01*
X109386967Y-62555216D01*
X109378610Y-62570084D01*
X109377712Y-62577560D01*
X109374831Y-62584518D01*
X109374831Y-62601576D01*
X109372799Y-62618510D01*
X109150577Y-62618510D01*
X109150577Y-62013089D01*
X111089117Y-62013089D01*
X111089117Y-62061863D01*
X111107782Y-62106922D01*
X111123327Y-62125864D01*
X111218565Y-62221102D01*
X111237501Y-62236642D01*
X111237507Y-62236648D01*
X111269368Y-62249845D01*
X111282566Y-62255312D01*
X111282567Y-62255312D01*
X111331339Y-62255312D01*
X111331340Y-62255312D01*
X111344537Y-62249845D01*
X111376399Y-62236648D01*
X111376404Y-62236642D01*
X111395341Y-62221102D01*
X111490579Y-62125864D01*
X111506124Y-62106922D01*
X111524789Y-62061863D01*
X111524789Y-62013089D01*
X111506124Y-61968030D01*
X111490579Y-61949088D01*
X111395341Y-61853850D01*
X111376404Y-61838309D01*
X111376399Y-61838304D01*
X111344537Y-61825106D01*
X111331340Y-61819640D01*
X111282566Y-61819640D01*
X111269368Y-61825106D01*
X111237507Y-61838304D01*
X111237501Y-61838309D01*
X111218565Y-61853850D01*
X111123327Y-61949088D01*
X111107782Y-61968030D01*
X111089117Y-62013089D01*
X109150577Y-62013089D01*
X109150577Y-61595016D01*
X128701796Y-61595016D01*
X128701796Y-64289460D01*
G37*
D11*
%TO.P,J3,1,Pin_1*%
%TO.N,IO14*%
X93960000Y-59750000D03*
D12*
%TO.P,J3,2,Pin_2*%
%TO.N,IO12*%
X96500000Y-59750000D03*
%TO.P,J3,3,Pin_3*%
%TO.N,IO13*%
X99040000Y-59750000D03*
%TO.P,J3,4,Pin_4*%
%TO.N,IO15*%
X101580000Y-59750000D03*
%TD*%
D11*
%TO.P,J4,1,Pin_1*%
%TO.N,IO00*%
X127080000Y-59750000D03*
D12*
%TO.P,J4,2,Pin_2*%
%TO.N,GND*%
X124540000Y-59750000D03*
%TO.P,J4,3,Pin_3*%
X122000000Y-59750000D03*
%TD*%
D11*
%TO.P,J2,1,Pin_1*%
%TO.N,+3.3V*%
X107960000Y-59750000D03*
D12*
%TO.P,J2,2,Pin_2*%
%TO.N,TXD0*%
X110500000Y-59750000D03*
%TO.P,J2,3,Pin_3*%
%TO.N,RXD0*%
X113040000Y-59750000D03*
%TO.P,J2,4,Pin_4*%
%TO.N,GND*%
X115580000Y-59750000D03*
%TD*%
D13*
%TO.P,SW1,1,A*%
%TO.N,GND*%
X115150000Y-53000000D03*
%TO.P,SW1,2,B*%
%TO.N,En*%
X108650000Y-53000000D03*
%TD*%
D11*
%TO.P,J6,1,Pin_1*%
%TO.N,GND*%
X93980000Y-22000000D03*
D12*
%TO.P,J6,2,Pin_2*%
%TO.N,+3.3V*%
X93980000Y-24540000D03*
%TO.P,J6,3,Pin_3*%
%TO.N,En*%
X93980000Y-27080000D03*
%TO.P,J6,4,Pin_4*%
%TO.N,Sensor_VP*%
X93980000Y-29620000D03*
%TO.P,J6,5,Pin_5*%
%TO.N,Sensor VN*%
X93980000Y-32160000D03*
%TO.P,J6,6,Pin_6*%
%TO.N,IO34*%
X93980000Y-34700000D03*
%TO.P,J6,7,Pin_7*%
%TO.N,IO35*%
X93980000Y-37240000D03*
%TO.P,J6,8,Pin_8*%
%TO.N,I032*%
X93980000Y-39780000D03*
%TO.P,J6,9,Pin_9*%
%TO.N,IO33*%
X93980000Y-42320000D03*
%TO.P,J6,10,Pin_10*%
%TO.N,IO25*%
X93980000Y-44860000D03*
%TO.P,J6,11,Pin_11*%
%TO.N,IO26*%
X93980000Y-47400000D03*
%TO.P,J6,12,Pin_12*%
%TO.N,IO27*%
X93980000Y-49940000D03*
%TO.P,J6,13,Pin_13*%
%TO.N,IO14*%
X93980000Y-52480000D03*
%TO.P,J6,14,Pin_14*%
%TO.N,IO12*%
X93980000Y-55020000D03*
%TD*%
D14*
%TO.P,U1,1,GND*%
%TO.N,GND*%
X121580000Y-25250000D03*
D15*
%TO.P,U1,2,VO*%
%TO.N,+3.3V*%
X119040000Y-25250000D03*
%TO.P,U1,3,VI*%
%TO.N,+5V*%
X116500000Y-25250000D03*
%TD*%
D16*
%TO.P,R1,1*%
%TO.N,+3.3V*%
X111400000Y-56000000D03*
%TO.P,R1,2*%
%TO.N,En*%
X109400000Y-56000000D03*
%TD*%
D17*
%TO.P,R3,1*%
%TO.N,IO12*%
X103000000Y-62600000D03*
%TO.P,R3,2*%
%TO.N,GND*%
X105000000Y-62600000D03*
%TD*%
D18*
%TO.P,C5,1*%
%TO.N,+5V*%
X112200000Y-24250000D03*
%TO.P,C5,2*%
%TO.N,GND*%
X110300000Y-24250000D03*
%TD*%
D11*
%TO.P,J8,1,Pin_1*%
%TO.N,GND*%
X127000000Y-22020000D03*
D12*
%TO.P,J8,2,Pin_2*%
%TO.N,IO23*%
X127000000Y-24560000D03*
%TO.P,J8,3,Pin_3*%
%TO.N,IO22*%
X127000000Y-27100000D03*
%TO.P,J8,4,Pin_4*%
%TO.N,TXD0*%
X127000000Y-29640000D03*
%TO.P,J8,5,Pin_5*%
%TO.N,RXD0*%
X127000000Y-32180000D03*
%TO.P,J8,6,Pin_6*%
%TO.N,IO21*%
X127000000Y-34720000D03*
%TO.P,J8,7,Pin_7*%
%TO.N,+5V*%
X127000000Y-37260000D03*
%TO.P,J8,8,Pin_8*%
%TO.N,IO19*%
X127000000Y-39800000D03*
%TO.P,J8,9,Pin_9*%
%TO.N,IO18*%
X127000000Y-42340000D03*
%TO.P,J8,10,Pin_10*%
%TO.N,IO05*%
X127000000Y-44880000D03*
%TO.P,J8,11,Pin_11*%
%TO.N,IO17*%
X127000000Y-47420000D03*
%TO.P,J8,12,Pin_12*%
%TO.N,IO16*%
X127000000Y-49960000D03*
%TO.P,J8,13,Pin_13*%
%TO.N,IO04*%
X127000000Y-52500000D03*
%TO.P,J8,14,Pin_14*%
%TO.N,IO00*%
X127000000Y-55040000D03*
%TD*%
D18*
%TO.P,C3,1*%
%TO.N,GND*%
X112850000Y-53000000D03*
%TO.P,C3,2*%
%TO.N,En*%
X110950000Y-53000000D03*
%TD*%
D19*
%TO.N,GND*%
X108825000Y-41000000D03*
X112400000Y-34100000D03*
X105250000Y-40900000D03*
X119600000Y-17800000D03*
X105250000Y-34100000D03*
X105250000Y-37580000D03*
X108825000Y-34000000D03*
X112400000Y-40900000D03*
X126500000Y-19500000D03*
X112500000Y-37580000D03*
X113750000Y-27000000D03*
%TO.N,+3.3V*%
X100250000Y-26500000D03*
%TO.N,En*%
X95990000Y-28250000D03*
%TO.N,IO12*%
X100800000Y-52750000D03*
%TO.N,IO00*%
X124000000Y-55250000D03*
%TO.N,IO13*%
X102250000Y-56750000D03*
%TO.N,RXD0*%
X123892207Y-35282207D03*
%TO.N,IO14*%
X99000000Y-51000000D03*
%TO.N,IO15*%
X104875000Y-57125000D03*
%TO.N,TXD0*%
X124150789Y-31638619D03*
%TD*%
D20*
%TO.N,GND*%
X115150000Y-53000000D02*
X112850000Y-53000000D01*
%TO.N,+3.3V*%
X109300000Y-26500000D02*
X100250000Y-26500000D01*
X111400000Y-56000000D02*
X111400000Y-56310000D01*
X112659000Y-55051000D02*
X115895999Y-55051000D01*
X111710000Y-56000000D02*
X112659000Y-55051000D01*
X116951000Y-53995999D02*
X116951000Y-34151000D01*
X116951000Y-34151000D02*
X109300000Y-26500000D01*
X111400000Y-56310000D02*
X107960000Y-59750000D01*
X115895999Y-55051000D02*
X116951000Y-53995999D01*
%TO.N,En*%
X109600000Y-56000000D02*
X109450000Y-56000000D01*
X109400000Y-56000000D02*
X108600000Y-55200000D01*
X95990000Y-40340000D02*
X95990000Y-28250000D01*
X108600000Y-55200000D02*
X108600000Y-53050000D01*
X110950000Y-53000000D02*
X108650000Y-53000000D01*
X108600000Y-53050000D02*
X108650000Y-53000000D01*
X108650000Y-53000000D02*
X95990000Y-40340000D01*
%TO.N,+5V*%
X115500000Y-24250000D02*
X112200000Y-24250000D01*
X116500000Y-25250000D02*
X115500000Y-24250000D01*
%TO.N,IO12*%
X100101000Y-55166050D02*
X96500000Y-58767050D01*
X103000000Y-62600000D02*
X99350000Y-62600000D01*
X100782950Y-54467050D02*
X100101000Y-55149000D01*
X99350000Y-62600000D02*
X96500000Y-59750000D01*
X100800000Y-52750000D02*
X100800000Y-54467050D01*
X100101000Y-55149000D02*
X100101000Y-55166050D01*
X96500000Y-58767050D02*
X96500000Y-59750000D01*
X100800000Y-54467050D02*
X100782950Y-54467050D01*
%TO.N,IO00*%
X124000000Y-56670000D02*
X127080000Y-59750000D01*
X124000000Y-55250000D02*
X124000000Y-56670000D01*
%TO.N,IO13*%
X99040000Y-59750000D02*
X102040000Y-56750000D01*
X102040000Y-56750000D02*
X102250000Y-56750000D01*
%TO.N,RXD0*%
X122250000Y-53750000D02*
X122250000Y-36924414D01*
X114307050Y-57500000D02*
X118500000Y-57500000D01*
X122250000Y-36924414D02*
X123892207Y-35282207D01*
X113040000Y-58767050D02*
X114307050Y-57500000D01*
X118500000Y-57500000D02*
X122250000Y-53750000D01*
X113040000Y-59750000D02*
X113040000Y-58767050D01*
%TO.N,IO14*%
X99000000Y-54710000D02*
X93960000Y-59750000D01*
X99000000Y-51000000D02*
X99000000Y-54710000D01*
%TO.N,IO15*%
X102250000Y-59750000D02*
X101580000Y-59750000D01*
X104875000Y-57125000D02*
X102250000Y-59750000D01*
%TO.N,TXD0*%
X110500000Y-59750000D02*
X114000000Y-56250000D01*
X114000000Y-56250000D02*
X118192950Y-56250000D01*
X118192950Y-56250000D02*
X121000000Y-53442950D01*
X121000000Y-34789408D02*
X124150789Y-31638619D01*
X121000000Y-53442950D02*
X121000000Y-34789408D01*
%TD*%
%TA.AperFunction,Conductor*%
%TO.N,GND*%
G36*
X115001716Y-58320185D02*
G01*
X115047471Y-58372989D01*
X115057415Y-58442147D01*
X115028390Y-58505703D01*
X114990972Y-58534985D01*
X114872439Y-58595380D01*
X114818282Y-58634727D01*
X114818282Y-58634728D01*
X115450591Y-59267037D01*
X115387007Y-59284075D01*
X115272993Y-59349901D01*
X115179901Y-59442993D01*
X115114075Y-59557007D01*
X115097037Y-59620591D01*
X114464728Y-58988282D01*
X114464727Y-58988282D01*
X114425380Y-59042440D01*
X114425376Y-59042446D01*
X114420760Y-59051505D01*
X114417867Y-59054567D01*
X114416819Y-59058647D01*
X114394078Y-59079750D01*
X114372781Y-59102297D01*
X114368693Y-59103308D01*
X114365605Y-59106175D01*
X114335065Y-59111633D01*
X114304959Y-59119087D01*
X114300972Y-59117727D01*
X114296826Y-59118469D01*
X114268181Y-59106550D01*
X114238826Y-59096543D01*
X114235101Y-59092785D01*
X114232318Y-59091627D01*
X114224988Y-59082582D01*
X114208310Y-59065756D01*
X114203573Y-59058911D01*
X114195051Y-59042184D01*
X114131020Y-58954053D01*
X114130202Y-58952870D01*
X114119655Y-58921012D01*
X114108374Y-58889394D01*
X114108710Y-58887948D01*
X114108244Y-58886541D01*
X114116591Y-58854055D01*
X114124199Y-58821340D01*
X114125406Y-58819751D01*
X114125633Y-58818869D01*
X114127137Y-58817473D01*
X114144487Y-58794638D01*
X114602308Y-58336819D01*
X114663631Y-58303334D01*
X114689989Y-58300500D01*
X114934677Y-58300500D01*
X115001716Y-58320185D01*
G37*
%TD.AperFunction*%
%TA.AperFunction,Conductor*%
G36*
X128902539Y-16560185D02*
G01*
X128948294Y-16612989D01*
X128959500Y-16664500D01*
X128959500Y-64335500D01*
X128939815Y-64402539D01*
X128887011Y-64448294D01*
X128835500Y-64459500D01*
X92164500Y-64459500D01*
X92097461Y-64439815D01*
X92051706Y-64387011D01*
X92040500Y-64335500D01*
X92040500Y-64074275D01*
X109365393Y-64074275D01*
X128486009Y-64074275D01*
X128486009Y-61810803D01*
X109365393Y-61810803D01*
X109365393Y-64074275D01*
X92040500Y-64074275D01*
X92040500Y-58852135D01*
X92609500Y-58852135D01*
X92609500Y-60647870D01*
X92609501Y-60647876D01*
X92615908Y-60707483D01*
X92666202Y-60842328D01*
X92666206Y-60842335D01*
X92752452Y-60957544D01*
X92752455Y-60957547D01*
X92867664Y-61043793D01*
X92867671Y-61043797D01*
X93002517Y-61094091D01*
X93002516Y-61094091D01*
X93009444Y-61094835D01*
X93062127Y-61100500D01*
X94857872Y-61100499D01*
X94917483Y-61094091D01*
X95052331Y-61043796D01*
X95167546Y-60957546D01*
X95253796Y-60842331D01*
X95302810Y-60710916D01*
X95344681Y-60654984D01*
X95410145Y-60630566D01*
X95478418Y-60645417D01*
X95506673Y-60666569D01*
X95620213Y-60780109D01*
X95792179Y-60905048D01*
X95792181Y-60905049D01*
X95792184Y-60905051D01*
X95981588Y-61001557D01*
X96183757Y-61067246D01*
X96393713Y-61100500D01*
X96393714Y-61100500D01*
X96606285Y-61100500D01*
X96606287Y-61100500D01*
X96640686Y-61095051D01*
X96709977Y-61104005D01*
X96747765Y-61129843D01*
X98839707Y-63221786D01*
X98839711Y-63221789D01*
X98970814Y-63309390D01*
X98970818Y-63309392D01*
X98970821Y-63309394D01*
X99116503Y-63369738D01*
X99271153Y-63400499D01*
X99271157Y-63400500D01*
X99271158Y-63400500D01*
X99428843Y-63400500D01*
X101915202Y-63400500D01*
X101982241Y-63420185D01*
X102020739Y-63459401D01*
X102057288Y-63518656D01*
X102181344Y-63642712D01*
X102330666Y-63734814D01*
X102497203Y-63789999D01*
X102599991Y-63800500D01*
X103400008Y-63800499D01*
X103400016Y-63800498D01*
X103400019Y-63800498D01*
X103456302Y-63794748D01*
X103502797Y-63789999D01*
X103669334Y-63734814D01*
X103818656Y-63642712D01*
X103912675Y-63548692D01*
X103973994Y-63515210D01*
X104043686Y-63520194D01*
X104088034Y-63548695D01*
X104181654Y-63642315D01*
X104330875Y-63734356D01*
X104330880Y-63734358D01*
X104497302Y-63789505D01*
X104497309Y-63789506D01*
X104600019Y-63799999D01*
X104749999Y-63799999D01*
X105250000Y-63799999D01*
X105399972Y-63799999D01*
X105399986Y-63799998D01*
X105502697Y-63789505D01*
X105669119Y-63734358D01*
X105669124Y-63734356D01*
X105818345Y-63642315D01*
X105942315Y-63518345D01*
X106034356Y-63369124D01*
X106034358Y-63369119D01*
X106089505Y-63202697D01*
X106089506Y-63202690D01*
X106099999Y-63099986D01*
X106100000Y-63099973D01*
X106100000Y-62850000D01*
X105250000Y-62850000D01*
X105250000Y-63799999D01*
X104749999Y-63799999D01*
X104750000Y-63799998D01*
X104750000Y-62350000D01*
X105250000Y-62350000D01*
X106099999Y-62350000D01*
X106099999Y-62100028D01*
X106099998Y-62100013D01*
X106089505Y-61997302D01*
X106034358Y-61830880D01*
X106034356Y-61830875D01*
X106030447Y-61824538D01*
X105942315Y-61681654D01*
X105818345Y-61557684D01*
X105669124Y-61465643D01*
X105669119Y-61465641D01*
X105502697Y-61410494D01*
X105502690Y-61410493D01*
X105399986Y-61400000D01*
X105250000Y-61400000D01*
X105250000Y-62350000D01*
X104750000Y-62350000D01*
X104750000Y-61400000D01*
X104600027Y-61400000D01*
X104600012Y-61400001D01*
X104497302Y-61410494D01*
X104330880Y-61465641D01*
X104330875Y-61465643D01*
X104181657Y-61557682D01*
X104088034Y-61651305D01*
X104026710Y-61684789D01*
X103957019Y-61679805D01*
X103912672Y-61651304D01*
X103818657Y-61557289D01*
X103818656Y-61557288D01*
X103669334Y-61465186D01*
X103502797Y-61410001D01*
X103502795Y-61410000D01*
X103400010Y-61399500D01*
X102599998Y-61399500D01*
X102599980Y-61399501D01*
X102497203Y-61410000D01*
X102497200Y-61410001D01*
X102330668Y-61465185D01*
X102330663Y-61465187D01*
X102181342Y-61557289D01*
X102057289Y-61681342D01*
X102020741Y-61740597D01*
X101968793Y-61787321D01*
X101915202Y-61799500D01*
X99732940Y-61799500D01*
X99665901Y-61779815D01*
X99645259Y-61763181D01*
X99177045Y-61294967D01*
X99143560Y-61233644D01*
X99148544Y-61163952D01*
X99190416Y-61108019D01*
X99245326Y-61084813D01*
X99356243Y-61067246D01*
X99558412Y-61001557D01*
X99747816Y-60905051D01*
X99834138Y-60842335D01*
X99919786Y-60780109D01*
X99919788Y-60780106D01*
X99919792Y-60780104D01*
X100070104Y-60629792D01*
X100070106Y-60629788D01*
X100070109Y-60629786D01*
X100195048Y-60457820D01*
X100195047Y-60457820D01*
X100195051Y-60457816D01*
X100199514Y-60449054D01*
X100247488Y-60398259D01*
X100315308Y-60381463D01*
X100381444Y-60403999D01*
X100420486Y-60449056D01*
X100424951Y-60457820D01*
X100549890Y-60629786D01*
X100700213Y-60780109D01*
X100872179Y-60905048D01*
X100872181Y-60905049D01*
X100872184Y-60905051D01*
X101061588Y-61001557D01*
X101263757Y-61067246D01*
X101473713Y-61100500D01*
X101473714Y-61100500D01*
X101686286Y-61100500D01*
X101686287Y-61100500D01*
X101896243Y-61067246D01*
X102098412Y-61001557D01*
X102287816Y-60905051D01*
X102374138Y-60842335D01*
X102459786Y-60780109D01*
X102459788Y-60780106D01*
X102459792Y-60780104D01*
X102610104Y-60629792D01*
X102735051Y-60457816D01*
X102789286Y-60351370D01*
X102812084Y-60319992D01*
X104496131Y-58635945D01*
X104557452Y-58602462D01*
X104603203Y-58601155D01*
X104756908Y-58625500D01*
X104756910Y-58625500D01*
X104993097Y-58625500D01*
X105226368Y-58588553D01*
X105450992Y-58515568D01*
X105661433Y-58408343D01*
X105852510Y-58269517D01*
X106019517Y-58102510D01*
X106158343Y-57911433D01*
X106265568Y-57700992D01*
X106338553Y-57476368D01*
X106375500Y-57243097D01*
X106375500Y-57006902D01*
X106338553Y-56773631D01*
X106279263Y-56591158D01*
X106265568Y-56549008D01*
X106265566Y-56549005D01*
X106265566Y-56549003D01*
X106209002Y-56437991D01*
X106158343Y-56338567D01*
X106019517Y-56147490D01*
X105852510Y-55980483D01*
X105661433Y-55841657D01*
X105630689Y-55825992D01*
X105450996Y-55734433D01*
X105226368Y-55661446D01*
X104993097Y-55624500D01*
X104993092Y-55624500D01*
X104756908Y-55624500D01*
X104756903Y-55624500D01*
X104523631Y-55661446D01*
X104299003Y-55734433D01*
X104088566Y-55841657D01*
X103897491Y-55980482D01*
X103782650Y-56095323D01*
X103721327Y-56128807D01*
X103651635Y-56123823D01*
X103595702Y-56081951D01*
X103584484Y-56063936D01*
X103541962Y-55980483D01*
X103533343Y-55963567D01*
X103394517Y-55772490D01*
X103227510Y-55605483D01*
X103036433Y-55466657D01*
X102825996Y-55359433D01*
X102601368Y-55286446D01*
X102368097Y-55249500D01*
X102368092Y-55249500D01*
X102131908Y-55249500D01*
X102131903Y-55249500D01*
X101898631Y-55286446D01*
X101674003Y-55359433D01*
X101463566Y-55466657D01*
X101364805Y-55538412D01*
X101272490Y-55605483D01*
X101272488Y-55605485D01*
X101272487Y-55605485D01*
X101105485Y-55772487D01*
X101105485Y-55772488D01*
X101105483Y-55772490D01*
X101055230Y-55841657D01*
X100966657Y-55963566D01*
X100859433Y-56174003D01*
X100786446Y-56398631D01*
X100749500Y-56631902D01*
X100749500Y-56857059D01*
X100729815Y-56924098D01*
X100713181Y-56944740D01*
X99287764Y-58370156D01*
X99226441Y-58403641D01*
X99180686Y-58404948D01*
X99146287Y-58399500D01*
X98933713Y-58399500D01*
X98885042Y-58407208D01*
X98723760Y-58432753D01*
X98521585Y-58498444D01*
X98332179Y-58594951D01*
X98160213Y-58719890D01*
X98009890Y-58870213D01*
X97884949Y-59042182D01*
X97880484Y-59050946D01*
X97832509Y-59101742D01*
X97764688Y-59118536D01*
X97698553Y-59095998D01*
X97659516Y-59050946D01*
X97655050Y-59042182D01*
X97591855Y-58955201D01*
X97568375Y-58889395D01*
X97584201Y-58821341D01*
X97604488Y-58794639D01*
X100722789Y-55676339D01*
X100750339Y-55635106D01*
X100765754Y-55616322D01*
X101250272Y-55131804D01*
X101269056Y-55116389D01*
X101310289Y-55088839D01*
X101421789Y-54977339D01*
X101509394Y-54846229D01*
X101569737Y-54700547D01*
X101600500Y-54545892D01*
X101600500Y-54086302D01*
X101620185Y-54019263D01*
X101651609Y-53985988D01*
X101777510Y-53894517D01*
X101944517Y-53727510D01*
X102083343Y-53536433D01*
X102190568Y-53325992D01*
X102263553Y-53101368D01*
X102300500Y-52868097D01*
X102300500Y-52631902D01*
X102263553Y-52398631D01*
X102200854Y-52205666D01*
X102190568Y-52174008D01*
X102190566Y-52174005D01*
X102190566Y-52174003D01*
X102112309Y-52020416D01*
X102083343Y-51963567D01*
X101944517Y-51772490D01*
X101777510Y-51605483D01*
X101586433Y-51466657D01*
X101553526Y-51449890D01*
X101375996Y-51359433D01*
X101151368Y-51286446D01*
X100918097Y-51249500D01*
X100918092Y-51249500D01*
X100681908Y-51249500D01*
X100681902Y-51249500D01*
X100643052Y-51255653D01*
X100573759Y-51246698D01*
X100520307Y-51201701D01*
X100499668Y-51134950D01*
X100500529Y-51122975D01*
X100500118Y-51122943D01*
X100500500Y-51118092D01*
X100500500Y-50881902D01*
X100463553Y-50648631D01*
X100429689Y-50544412D01*
X100390568Y-50424008D01*
X100390566Y-50424005D01*
X100390566Y-50424003D01*
X100283342Y-50213566D01*
X100144517Y-50022490D01*
X99977510Y-49855483D01*
X99786433Y-49716657D01*
X99575996Y-49609433D01*
X99351368Y-49536446D01*
X99118097Y-49499500D01*
X99118092Y-49499500D01*
X98881908Y-49499500D01*
X98881903Y-49499500D01*
X98648631Y-49536446D01*
X98424003Y-49609433D01*
X98213566Y-49716657D01*
X98104550Y-49795862D01*
X98022490Y-49855483D01*
X98022488Y-49855485D01*
X98022487Y-49855485D01*
X97855485Y-50022487D01*
X97855485Y-50022488D01*
X97855483Y-50022490D01*
X97823663Y-50066286D01*
X97716657Y-50213566D01*
X97609433Y-50424003D01*
X97536446Y-50648631D01*
X97499500Y-50881902D01*
X97499500Y-51118097D01*
X97536446Y-51351368D01*
X97609433Y-51575996D01*
X97709394Y-51772179D01*
X97716657Y-51786433D01*
X97855483Y-51977510D01*
X98022490Y-52144517D01*
X98148388Y-52235987D01*
X98191051Y-52291313D01*
X98199500Y-52336302D01*
X98199500Y-54327059D01*
X98179815Y-54394098D01*
X98163181Y-54414740D01*
X94214739Y-58363181D01*
X94153416Y-58396666D01*
X94127058Y-58399500D01*
X93062129Y-58399500D01*
X93062123Y-58399501D01*
X93002516Y-58405908D01*
X92867671Y-58456202D01*
X92867664Y-58456206D01*
X92752455Y-58542452D01*
X92752452Y-58542455D01*
X92666206Y-58657664D01*
X92666202Y-58657671D01*
X92615908Y-58792517D01*
X92609501Y-58852116D01*
X92609501Y-58852123D01*
X92609500Y-58852135D01*
X92040500Y-58852135D01*
X92040500Y-24433713D01*
X92629500Y-24433713D01*
X92629500Y-24646286D01*
X92649887Y-24775008D01*
X92662754Y-24856243D01*
X92725872Y-25050500D01*
X92728444Y-25058414D01*
X92824951Y-25247820D01*
X92949890Y-25419786D01*
X93100213Y-25570109D01*
X93272182Y-25695050D01*
X93280946Y-25699516D01*
X93331742Y-25747491D01*
X93348536Y-25815312D01*
X93325998Y-25881447D01*
X93280946Y-25920484D01*
X93272182Y-25924949D01*
X93100213Y-26049890D01*
X92949890Y-26200213D01*
X92824951Y-26372179D01*
X92728444Y-26561585D01*
X92662753Y-26763760D01*
X92629500Y-26973713D01*
X92629500Y-27186286D01*
X92650707Y-27320185D01*
X92662754Y-27396243D01*
X92689159Y-27477510D01*
X92728444Y-27598414D01*
X92824951Y-27787820D01*
X92949890Y-27959786D01*
X93100213Y-28110109D01*
X93272182Y-28235050D01*
X93280946Y-28239516D01*
X93331742Y-28287491D01*
X93348536Y-28355312D01*
X93325998Y-28421447D01*
X93280946Y-28460484D01*
X93272182Y-28464949D01*
X93100213Y-28589890D01*
X92949890Y-28740213D01*
X92824951Y-28912179D01*
X92728444Y-29101585D01*
X92662753Y-29303760D01*
X92648379Y-29394517D01*
X92629500Y-29513713D01*
X92629500Y-29726287D01*
X92662754Y-29936243D01*
X92669252Y-29956243D01*
X92728444Y-30138414D01*
X92824951Y-30327820D01*
X92949890Y-30499786D01*
X93100213Y-30650109D01*
X93272182Y-30775050D01*
X93280946Y-30779516D01*
X93331742Y-30827491D01*
X93348536Y-30895312D01*
X93325998Y-30961447D01*
X93280946Y-31000484D01*
X93272182Y-31004949D01*
X93100213Y-31129890D01*
X92949890Y-31280213D01*
X92824951Y-31452179D01*
X92728444Y-31641585D01*
X92662753Y-31843760D01*
X92629500Y-32053713D01*
X92629500Y-32266286D01*
X92653473Y-32417649D01*
X92662754Y-32476243D01*
X92708206Y-32616130D01*
X92728444Y-32678414D01*
X92824951Y-32867820D01*
X92949890Y-33039786D01*
X93100213Y-33190109D01*
X93272182Y-33315050D01*
X93280946Y-33319516D01*
X93331742Y-33367491D01*
X93348536Y-33435312D01*
X93325998Y-33501447D01*
X93280946Y-33540484D01*
X93272182Y-33544949D01*
X93100213Y-33669890D01*
X92949890Y-33820213D01*
X92824951Y-33992179D01*
X92728444Y-34181585D01*
X92662753Y-34383760D01*
X92647102Y-34482578D01*
X92629500Y-34593713D01*
X92629500Y-34806287D01*
X92662754Y-35016243D01*
X92696787Y-35120986D01*
X92728444Y-35218414D01*
X92824951Y-35407820D01*
X92949890Y-35579786D01*
X93100213Y-35730109D01*
X93272182Y-35855050D01*
X93280946Y-35859516D01*
X93331742Y-35907491D01*
X93348536Y-35975312D01*
X93325998Y-36041447D01*
X93280946Y-36080484D01*
X93272182Y-36084949D01*
X93100213Y-36209890D01*
X92949890Y-36360213D01*
X92824951Y-36532179D01*
X92728444Y-36721585D01*
X92662753Y-36923760D01*
X92629500Y-37133713D01*
X92629500Y-37346287D01*
X92662754Y-37556243D01*
X92669252Y-37576243D01*
X92728444Y-37758414D01*
X92824951Y-37947820D01*
X92949890Y-38119786D01*
X93100213Y-38270109D01*
X93272182Y-38395050D01*
X93280946Y-38399516D01*
X93331742Y-38447491D01*
X93348536Y-38515312D01*
X93325998Y-38581447D01*
X93280946Y-38620484D01*
X93272182Y-38624949D01*
X93100213Y-38749890D01*
X92949890Y-38900213D01*
X92824951Y-39072179D01*
X92728444Y-39261585D01*
X92662753Y-39463760D01*
X92629500Y-39673713D01*
X92629500Y-39886287D01*
X92662754Y-40096243D01*
X92669252Y-40116243D01*
X92728444Y-40298414D01*
X92824951Y-40487820D01*
X92949890Y-40659786D01*
X93100213Y-40810109D01*
X93272182Y-40935050D01*
X93280946Y-40939516D01*
X93331742Y-40987491D01*
X93348536Y-41055312D01*
X93325998Y-41121447D01*
X93280946Y-41160484D01*
X93272182Y-41164949D01*
X93100213Y-41289890D01*
X92949890Y-41440213D01*
X92824951Y-41612179D01*
X92728444Y-41801585D01*
X92662753Y-42003760D01*
X92629500Y-42213713D01*
X92629500Y-42426287D01*
X92662754Y-42636243D01*
X92669252Y-42656243D01*
X92728444Y-42838414D01*
X92824951Y-43027820D01*
X92949890Y-43199786D01*
X93100213Y-43350109D01*
X93272182Y-43475050D01*
X93280946Y-43479516D01*
X93331742Y-43527491D01*
X93348536Y-43595312D01*
X93325998Y-43661447D01*
X93280946Y-43700484D01*
X93272182Y-43704949D01*
X93100213Y-43829890D01*
X92949890Y-43980213D01*
X92824951Y-44152179D01*
X92728444Y-44341585D01*
X92662753Y-44543760D01*
X92629500Y-44753713D01*
X92629500Y-44966287D01*
X92662754Y-45176243D01*
X92669252Y-45196243D01*
X92728444Y-45378414D01*
X92824951Y-45567820D01*
X92949890Y-45739786D01*
X93100213Y-45890109D01*
X93272182Y-46015050D01*
X93280946Y-46019516D01*
X93331742Y-46067491D01*
X93348536Y-46135312D01*
X93325998Y-46201447D01*
X93280946Y-46240484D01*
X93272182Y-46244949D01*
X93100213Y-46369890D01*
X92949890Y-46520213D01*
X92824951Y-46692179D01*
X92728444Y-46881585D01*
X92662753Y-47083760D01*
X92629500Y-47293713D01*
X92629500Y-47506287D01*
X92662754Y-47716243D01*
X92669252Y-47736243D01*
X92728444Y-47918414D01*
X92824951Y-48107820D01*
X92949890Y-48279786D01*
X93100213Y-48430109D01*
X93272182Y-48555050D01*
X93280946Y-48559516D01*
X93331742Y-48607491D01*
X93348536Y-48675312D01*
X93325998Y-48741447D01*
X93280946Y-48780484D01*
X93272182Y-48784949D01*
X93100213Y-48909890D01*
X92949890Y-49060213D01*
X92824951Y-49232179D01*
X92728444Y-49421585D01*
X92662753Y-49623760D01*
X92629500Y-49833713D01*
X92629500Y-50046286D01*
X92655994Y-50213567D01*
X92662754Y-50256243D01*
X92717264Y-50424008D01*
X92728444Y-50458414D01*
X92824951Y-50647820D01*
X92949890Y-50819786D01*
X93100213Y-50970109D01*
X93272182Y-51095050D01*
X93280946Y-51099516D01*
X93331742Y-51147491D01*
X93348536Y-51215312D01*
X93325998Y-51281447D01*
X93280946Y-51320484D01*
X93272182Y-51324949D01*
X93100213Y-51449890D01*
X92949890Y-51600213D01*
X92824951Y-51772179D01*
X92728444Y-51961585D01*
X92662753Y-52163760D01*
X92656116Y-52205666D01*
X92629500Y-52373713D01*
X92629500Y-52586287D01*
X92662754Y-52796243D01*
X92709709Y-52940756D01*
X92728444Y-52998414D01*
X92824951Y-53187820D01*
X92949890Y-53359786D01*
X93100213Y-53510109D01*
X93272182Y-53635050D01*
X93280946Y-53639516D01*
X93331742Y-53687491D01*
X93348536Y-53755312D01*
X93325998Y-53821447D01*
X93280946Y-53860484D01*
X93272182Y-53864949D01*
X93100213Y-53989890D01*
X92949890Y-54140213D01*
X92824951Y-54312179D01*
X92728444Y-54501585D01*
X92662753Y-54703760D01*
X92629500Y-54913713D01*
X92629500Y-55126286D01*
X92653662Y-55278842D01*
X92662754Y-55336243D01*
X92705128Y-55466657D01*
X92728444Y-55538414D01*
X92824951Y-55727820D01*
X92949890Y-55899786D01*
X93100213Y-56050109D01*
X93272179Y-56175048D01*
X93272181Y-56175049D01*
X93272184Y-56175051D01*
X93461588Y-56271557D01*
X93663757Y-56337246D01*
X93873713Y-56370500D01*
X93873714Y-56370500D01*
X94086286Y-56370500D01*
X94086287Y-56370500D01*
X94296243Y-56337246D01*
X94498412Y-56271557D01*
X94687816Y-56175051D01*
X94725751Y-56147490D01*
X94859786Y-56050109D01*
X94859788Y-56050106D01*
X94859792Y-56050104D01*
X95010104Y-55899792D01*
X95010106Y-55899788D01*
X95010109Y-55899786D01*
X95120520Y-55747816D01*
X95135051Y-55727816D01*
X95231557Y-55538412D01*
X95297246Y-55336243D01*
X95330500Y-55126287D01*
X95330500Y-54913713D01*
X95297246Y-54703757D01*
X95231557Y-54501588D01*
X95135051Y-54312184D01*
X95135049Y-54312181D01*
X95135048Y-54312179D01*
X95010109Y-54140213D01*
X94859786Y-53989890D01*
X94687820Y-53864951D01*
X94687115Y-53864591D01*
X94679054Y-53860485D01*
X94628259Y-53812512D01*
X94611463Y-53744692D01*
X94633999Y-53678556D01*
X94679054Y-53639515D01*
X94687816Y-53635051D01*
X94734177Y-53601368D01*
X94859786Y-53510109D01*
X94859788Y-53510106D01*
X94859792Y-53510104D01*
X95010104Y-53359792D01*
X95010106Y-53359788D01*
X95010109Y-53359786D01*
X95135048Y-53187820D01*
X95135047Y-53187820D01*
X95135051Y-53187816D01*
X95231557Y-52998412D01*
X95297246Y-52796243D01*
X95330500Y-52586287D01*
X95330500Y-52373713D01*
X95297246Y-52163757D01*
X95231557Y-51961588D01*
X95135051Y-51772184D01*
X95135049Y-51772181D01*
X95135048Y-51772179D01*
X95010109Y-51600213D01*
X94859786Y-51449890D01*
X94687820Y-51324951D01*
X94687115Y-51324591D01*
X94679054Y-51320485D01*
X94628259Y-51272512D01*
X94611463Y-51204692D01*
X94633999Y-51138556D01*
X94679054Y-51099515D01*
X94687816Y-51095051D01*
X94709789Y-51079086D01*
X94859786Y-50970109D01*
X94859788Y-50970106D01*
X94859792Y-50970104D01*
X95010104Y-50819792D01*
X95010106Y-50819788D01*
X95010109Y-50819786D01*
X95135048Y-50647820D01*
X95135047Y-50647820D01*
X95135051Y-50647816D01*
X95231557Y-50458412D01*
X95297246Y-50256243D01*
X95330500Y-50046287D01*
X95330500Y-49833713D01*
X95297246Y-49623757D01*
X95231557Y-49421588D01*
X95135051Y-49232184D01*
X95135049Y-49232181D01*
X95135048Y-49232179D01*
X95010109Y-49060213D01*
X94859786Y-48909890D01*
X94687820Y-48784951D01*
X94687115Y-48784591D01*
X94679054Y-48780485D01*
X94628259Y-48732512D01*
X94611463Y-48664692D01*
X94633999Y-48598556D01*
X94679054Y-48559515D01*
X94687816Y-48555051D01*
X94709789Y-48539086D01*
X94859786Y-48430109D01*
X94859788Y-48430106D01*
X94859792Y-48430104D01*
X95010104Y-48279792D01*
X95010106Y-48279788D01*
X95010109Y-48279786D01*
X95135048Y-48107820D01*
X95135047Y-48107820D01*
X95135051Y-48107816D01*
X95231557Y-47918412D01*
X95297246Y-47716243D01*
X95330500Y-47506287D01*
X95330500Y-47293713D01*
X95297246Y-47083757D01*
X95231557Y-46881588D01*
X95135051Y-46692184D01*
X95135049Y-46692181D01*
X95135048Y-46692179D01*
X95010109Y-46520213D01*
X94859786Y-46369890D01*
X94687820Y-46244951D01*
X94687115Y-46244591D01*
X94679054Y-46240485D01*
X94628259Y-46192512D01*
X94611463Y-46124692D01*
X94633999Y-46058556D01*
X94679054Y-46019515D01*
X94687816Y-46015051D01*
X94709789Y-45999086D01*
X94859786Y-45890109D01*
X94859788Y-45890106D01*
X94859792Y-45890104D01*
X95010104Y-45739792D01*
X95010106Y-45739788D01*
X95010109Y-45739786D01*
X95135048Y-45567820D01*
X95135047Y-45567820D01*
X95135051Y-45567816D01*
X95231557Y-45378412D01*
X95297246Y-45176243D01*
X95330500Y-44966287D01*
X95330500Y-44753713D01*
X95297246Y-44543757D01*
X95231557Y-44341588D01*
X95135051Y-44152184D01*
X95135049Y-44152181D01*
X95135048Y-44152179D01*
X95010109Y-43980213D01*
X94859786Y-43829890D01*
X94687820Y-43704951D01*
X94687115Y-43704591D01*
X94679054Y-43700485D01*
X94628259Y-43652512D01*
X94611463Y-43584692D01*
X94633999Y-43518556D01*
X94679054Y-43479515D01*
X94687816Y-43475051D01*
X94709789Y-43459086D01*
X94859786Y-43350109D01*
X94859788Y-43350106D01*
X94859792Y-43350104D01*
X95010104Y-43199792D01*
X95010106Y-43199788D01*
X95010109Y-43199786D01*
X95135048Y-43027820D01*
X95135047Y-43027820D01*
X95135051Y-43027816D01*
X95231557Y-42838412D01*
X95297246Y-42636243D01*
X95330500Y-42426287D01*
X95330500Y-42213713D01*
X95297246Y-42003757D01*
X95231557Y-41801588D01*
X95135051Y-41612184D01*
X95135049Y-41612181D01*
X95135048Y-41612179D01*
X95010109Y-41440213D01*
X94859786Y-41289890D01*
X94687820Y-41164951D01*
X94687115Y-41164591D01*
X94679054Y-41160485D01*
X94628259Y-41112512D01*
X94611463Y-41044692D01*
X94633999Y-40978556D01*
X94679054Y-40939515D01*
X94687816Y-40935051D01*
X94804482Y-40850289D01*
X94859786Y-40810109D01*
X94859788Y-40810106D01*
X94859792Y-40810104D01*
X95010104Y-40659792D01*
X95036572Y-40623361D01*
X95091899Y-40580696D01*
X95161512Y-40574715D01*
X95223308Y-40607319D01*
X95251451Y-40648793D01*
X95280604Y-40719176D01*
X95280609Y-40719185D01*
X95368210Y-40850288D01*
X95368213Y-40850292D01*
X107113181Y-52595259D01*
X107146666Y-52656582D01*
X107149500Y-52682940D01*
X107149500Y-53368097D01*
X107186446Y-53601368D01*
X107259433Y-53825996D01*
X107328229Y-53961014D01*
X107366657Y-54036433D01*
X107505483Y-54227510D01*
X107672490Y-54394517D01*
X107748388Y-54449660D01*
X107791051Y-54504986D01*
X107799500Y-54549975D01*
X107799500Y-55278846D01*
X107830261Y-55433489D01*
X107830264Y-55433501D01*
X107890602Y-55579172D01*
X107890609Y-55579185D01*
X107978210Y-55710288D01*
X107978213Y-55710292D01*
X108263181Y-55995259D01*
X108296666Y-56056582D01*
X108299500Y-56082940D01*
X108299500Y-56500001D01*
X108299501Y-56500019D01*
X108310000Y-56602796D01*
X108310001Y-56602799D01*
X108319645Y-56631902D01*
X108365186Y-56769334D01*
X108457288Y-56918656D01*
X108581344Y-57042712D01*
X108730666Y-57134814D01*
X108897203Y-57189999D01*
X108999991Y-57200500D01*
X109078059Y-57200499D01*
X109145097Y-57220183D01*
X109190853Y-57272986D01*
X109200797Y-57342145D01*
X109171773Y-57405701D01*
X109165740Y-57412180D01*
X108214739Y-58363181D01*
X108153416Y-58396666D01*
X108127058Y-58399500D01*
X107062129Y-58399500D01*
X107062123Y-58399501D01*
X107002516Y-58405908D01*
X106867671Y-58456202D01*
X106867664Y-58456206D01*
X106752455Y-58542452D01*
X106752452Y-58542455D01*
X106666206Y-58657664D01*
X106666202Y-58657671D01*
X106615908Y-58792517D01*
X106609501Y-58852116D01*
X106609501Y-58852123D01*
X106609500Y-58852135D01*
X106609500Y-60647870D01*
X106609501Y-60647876D01*
X106615908Y-60707483D01*
X106666202Y-60842328D01*
X106666206Y-60842335D01*
X106752452Y-60957544D01*
X106752455Y-60957547D01*
X106867664Y-61043793D01*
X106867671Y-61043797D01*
X107002517Y-61094091D01*
X107002516Y-61094091D01*
X107009444Y-61094835D01*
X107062127Y-61100500D01*
X108857872Y-61100499D01*
X108917483Y-61094091D01*
X109052331Y-61043796D01*
X109167546Y-60957546D01*
X109253796Y-60842331D01*
X109302810Y-60710916D01*
X109344681Y-60654984D01*
X109410145Y-60630566D01*
X109478418Y-60645417D01*
X109506673Y-60666569D01*
X109620213Y-60780109D01*
X109792179Y-60905048D01*
X109792181Y-60905049D01*
X109792184Y-60905051D01*
X109981588Y-61001557D01*
X110183757Y-61067246D01*
X110393713Y-61100500D01*
X110393714Y-61100500D01*
X110606286Y-61100500D01*
X110606287Y-61100500D01*
X110816243Y-61067246D01*
X111018412Y-61001557D01*
X111207816Y-60905051D01*
X111294138Y-60842335D01*
X111379786Y-60780109D01*
X111379788Y-60780106D01*
X111379792Y-60780104D01*
X111530104Y-60629792D01*
X111530106Y-60629788D01*
X111530109Y-60629786D01*
X111655048Y-60457820D01*
X111655047Y-60457820D01*
X111655051Y-60457816D01*
X111659514Y-60449054D01*
X111707488Y-60398259D01*
X111775308Y-60381463D01*
X111841444Y-60403999D01*
X111880486Y-60449056D01*
X111884951Y-60457820D01*
X112009890Y-60629786D01*
X112160213Y-60780109D01*
X112332179Y-60905048D01*
X112332181Y-60905049D01*
X112332184Y-60905051D01*
X112521588Y-61001557D01*
X112723757Y-61067246D01*
X112933713Y-61100500D01*
X112933714Y-61100500D01*
X113146286Y-61100500D01*
X113146287Y-61100500D01*
X113356243Y-61067246D01*
X113558412Y-61001557D01*
X113747816Y-60905051D01*
X113834138Y-60842335D01*
X113919786Y-60780109D01*
X113919788Y-60780106D01*
X113919792Y-60780104D01*
X114070104Y-60629792D01*
X114070106Y-60629788D01*
X114070109Y-60629786D01*
X114155890Y-60511717D01*
X114195051Y-60457816D01*
X114199793Y-60448508D01*
X114247763Y-60397711D01*
X114315583Y-60380911D01*
X114381719Y-60403445D01*
X114420763Y-60448500D01*
X114425373Y-60457547D01*
X114464728Y-60511716D01*
X115097037Y-59879408D01*
X115114075Y-59942993D01*
X115179901Y-60057007D01*
X115272993Y-60150099D01*
X115387007Y-60215925D01*
X115450590Y-60232962D01*
X114818282Y-60865269D01*
X114818282Y-60865270D01*
X114872449Y-60904624D01*
X115061782Y-61001095D01*
X115263870Y-61066757D01*
X115473754Y-61100000D01*
X115686246Y-61100000D01*
X115896127Y-61066757D01*
X115896130Y-61066757D01*
X116098217Y-61001095D01*
X116287554Y-60904622D01*
X116341716Y-60865270D01*
X116341717Y-60865270D01*
X115709408Y-60232962D01*
X115772993Y-60215925D01*
X115887007Y-60150099D01*
X115980099Y-60057007D01*
X116045925Y-59942993D01*
X116062962Y-59879408D01*
X116695270Y-60511717D01*
X116695270Y-60511716D01*
X116734622Y-60457554D01*
X116831095Y-60268217D01*
X116896757Y-60066130D01*
X116896757Y-60066127D01*
X116930000Y-59856246D01*
X116930000Y-59643753D01*
X116896757Y-59433872D01*
X116896757Y-59433869D01*
X116831095Y-59231782D01*
X116734624Y-59042449D01*
X116695270Y-58988282D01*
X116695269Y-58988282D01*
X116062962Y-59620590D01*
X116045925Y-59557007D01*
X115980099Y-59442993D01*
X115887007Y-59349901D01*
X115772993Y-59284075D01*
X115709409Y-59267037D01*
X116341716Y-58634728D01*
X116287550Y-58595375D01*
X116169029Y-58534985D01*
X116118233Y-58487010D01*
X116101438Y-58419189D01*
X116123976Y-58353054D01*
X116178691Y-58309603D01*
X116225324Y-58300500D01*
X118578844Y-58300500D01*
X118578845Y-58300499D01*
X118733497Y-58269737D01*
X118879179Y-58209394D01*
X119010289Y-58121789D01*
X122323616Y-54808460D01*
X122384937Y-54774977D01*
X122454629Y-54779961D01*
X122510562Y-54821833D01*
X122534979Y-54887297D01*
X122533768Y-54915541D01*
X122499500Y-55131902D01*
X122499500Y-55368097D01*
X122536446Y-55601364D01*
X122536446Y-55601368D01*
X122609433Y-55825996D01*
X122688149Y-55980483D01*
X122716657Y-56036433D01*
X122855483Y-56227510D01*
X123022490Y-56394517D01*
X123148388Y-56485987D01*
X123191051Y-56541313D01*
X123199500Y-56586302D01*
X123199500Y-56748846D01*
X123230261Y-56903489D01*
X123230264Y-56903501D01*
X123290602Y-57049172D01*
X123290609Y-57049185D01*
X123378210Y-57180288D01*
X123378213Y-57180292D01*
X124403391Y-58205469D01*
X124436876Y-58266792D01*
X124431892Y-58336484D01*
X124390020Y-58392417D01*
X124335109Y-58415623D01*
X124223870Y-58433242D01*
X124223869Y-58433242D01*
X124021782Y-58498904D01*
X123832439Y-58595380D01*
X123778282Y-58634727D01*
X123778282Y-58634728D01*
X124410591Y-59267037D01*
X124347007Y-59284075D01*
X124232993Y-59349901D01*
X124139901Y-59442993D01*
X124074075Y-59557007D01*
X124057037Y-59620591D01*
X123424728Y-58988282D01*
X123424727Y-58988282D01*
X123385380Y-59042440D01*
X123380483Y-59052051D01*
X123332506Y-59102845D01*
X123264684Y-59119638D01*
X123198550Y-59097098D01*
X123159516Y-59052048D01*
X123154626Y-59042452D01*
X123115270Y-58988282D01*
X123115269Y-58988282D01*
X122482962Y-59620590D01*
X122465925Y-59557007D01*
X122400099Y-59442993D01*
X122307007Y-59349901D01*
X122192993Y-59284075D01*
X122129409Y-59267037D01*
X122761716Y-58634728D01*
X122707550Y-58595375D01*
X122518217Y-58498904D01*
X122316129Y-58433242D01*
X122106246Y-58400000D01*
X121893754Y-58400000D01*
X121683872Y-58433242D01*
X121683869Y-58433242D01*
X121481782Y-58498904D01*
X121292439Y-58595380D01*
X121238282Y-58634727D01*
X121238282Y-58634728D01*
X121870591Y-59267037D01*
X121807007Y-59284075D01*
X121692993Y-59349901D01*
X121599901Y-59442993D01*
X121534075Y-59557007D01*
X121517037Y-59620591D01*
X120884728Y-58988282D01*
X120884727Y-58988282D01*
X120845380Y-59042439D01*
X120748904Y-59231782D01*
X120683242Y-59433869D01*
X120683242Y-59433872D01*
X120650000Y-59643753D01*
X120650000Y-59856246D01*
X120683242Y-60066127D01*
X120683242Y-60066130D01*
X120748904Y-60268217D01*
X120845375Y-60457550D01*
X120884728Y-60511716D01*
X121517037Y-59879408D01*
X121534075Y-59942993D01*
X121599901Y-60057007D01*
X121692993Y-60150099D01*
X121807007Y-60215925D01*
X121870590Y-60232962D01*
X121238282Y-60865269D01*
X121238282Y-60865270D01*
X121292449Y-60904624D01*
X121481782Y-61001095D01*
X121683870Y-61066757D01*
X121893754Y-61100000D01*
X122106246Y-61100000D01*
X122316127Y-61066757D01*
X122316130Y-61066757D01*
X122518217Y-61001095D01*
X122707554Y-60904622D01*
X122761716Y-60865270D01*
X122761717Y-60865270D01*
X122129408Y-60232962D01*
X122192993Y-60215925D01*
X122307007Y-60150099D01*
X122400099Y-60057007D01*
X122465925Y-59942993D01*
X122482962Y-59879408D01*
X123115270Y-60511717D01*
X123115270Y-60511716D01*
X123154622Y-60457554D01*
X123159514Y-60447954D01*
X123207488Y-60397157D01*
X123275308Y-60380361D01*
X123341444Y-60402897D01*
X123380486Y-60447954D01*
X123385375Y-60457550D01*
X123424728Y-60511716D01*
X124057037Y-59879408D01*
X124074075Y-59942993D01*
X124139901Y-60057007D01*
X124232993Y-60150099D01*
X124347007Y-60215925D01*
X124410590Y-60232962D01*
X123778282Y-60865269D01*
X123778282Y-60865270D01*
X123832449Y-60904624D01*
X124021782Y-61001095D01*
X124223870Y-61066757D01*
X124433754Y-61100000D01*
X124646246Y-61100000D01*
X124856127Y-61066757D01*
X124856130Y-61066757D01*
X125058217Y-61001095D01*
X125247554Y-60904622D01*
X125301716Y-60865270D01*
X125301717Y-60865270D01*
X124669408Y-60232962D01*
X124732993Y-60215925D01*
X124847007Y-60150099D01*
X124940099Y-60057007D01*
X125005925Y-59942993D01*
X125022962Y-59879408D01*
X125693181Y-60549628D01*
X125726666Y-60610951D01*
X125729500Y-60637300D01*
X125729500Y-60647865D01*
X125729501Y-60647876D01*
X125735908Y-60707483D01*
X125786202Y-60842328D01*
X125786206Y-60842335D01*
X125872452Y-60957544D01*
X125872455Y-60957547D01*
X125987664Y-61043793D01*
X125987671Y-61043797D01*
X126122517Y-61094091D01*
X126122516Y-61094091D01*
X126129444Y-61094835D01*
X126182127Y-61100500D01*
X127977872Y-61100499D01*
X128037483Y-61094091D01*
X128172331Y-61043796D01*
X128287546Y-60957546D01*
X128373796Y-60842331D01*
X128424091Y-60707483D01*
X128430500Y-60647873D01*
X128430499Y-58852128D01*
X128424091Y-58792517D01*
X128373796Y-58657669D01*
X128373795Y-58657668D01*
X128373793Y-58657664D01*
X128287547Y-58542455D01*
X128287544Y-58542452D01*
X128172335Y-58456206D01*
X128172328Y-58456202D01*
X128037482Y-58405908D01*
X128037483Y-58405908D01*
X127977883Y-58399501D01*
X127977881Y-58399500D01*
X127977873Y-58399500D01*
X127977865Y-58399500D01*
X126912940Y-58399500D01*
X126845901Y-58379815D01*
X126825259Y-58363181D01*
X125004733Y-56542655D01*
X124971248Y-56481332D01*
X124976232Y-56411640D01*
X125004729Y-56367297D01*
X125144517Y-56227510D01*
X125283343Y-56036433D01*
X125390568Y-55825992D01*
X125463553Y-55601368D01*
X125467067Y-55579185D01*
X125480691Y-55493163D01*
X125510620Y-55430028D01*
X125569932Y-55393097D01*
X125639794Y-55394095D01*
X125698027Y-55432705D01*
X125721094Y-55474241D01*
X125741945Y-55538414D01*
X125748444Y-55558414D01*
X125844951Y-55747820D01*
X125969890Y-55919786D01*
X126120213Y-56070109D01*
X126292179Y-56195048D01*
X126292181Y-56195049D01*
X126292184Y-56195051D01*
X126481588Y-56291557D01*
X126683757Y-56357246D01*
X126893713Y-56390500D01*
X126893714Y-56390500D01*
X127106286Y-56390500D01*
X127106287Y-56390500D01*
X127316243Y-56357246D01*
X127518412Y-56291557D01*
X127707816Y-56195051D01*
X127773279Y-56147490D01*
X127879786Y-56070109D01*
X127879788Y-56070106D01*
X127879792Y-56070104D01*
X128030104Y-55919792D01*
X128030106Y-55919788D01*
X128030109Y-55919786D01*
X128155048Y-55747820D01*
X128155047Y-55747820D01*
X128155051Y-55747816D01*
X128251557Y-55558412D01*
X128317246Y-55356243D01*
X128350500Y-55146287D01*
X128350500Y-54933713D01*
X128317246Y-54723757D01*
X128251557Y-54521588D01*
X128155051Y-54332184D01*
X128155049Y-54332181D01*
X128155048Y-54332179D01*
X128030109Y-54160213D01*
X127879786Y-54009890D01*
X127707820Y-53884951D01*
X127702803Y-53882395D01*
X127699054Y-53880485D01*
X127648259Y-53832512D01*
X127631463Y-53764692D01*
X127653999Y-53698556D01*
X127699054Y-53659515D01*
X127707816Y-53655051D01*
X127781705Y-53601368D01*
X127879786Y-53530109D01*
X127879788Y-53530106D01*
X127879792Y-53530104D01*
X128030104Y-53379792D01*
X128030106Y-53379788D01*
X128030109Y-53379786D01*
X128155048Y-53207820D01*
X128155047Y-53207820D01*
X128155051Y-53207816D01*
X128251557Y-53018412D01*
X128317246Y-52816243D01*
X128350500Y-52606287D01*
X128350500Y-52393713D01*
X128317246Y-52183757D01*
X128251557Y-51981588D01*
X128155051Y-51792184D01*
X128155049Y-51792181D01*
X128155048Y-51792179D01*
X128030109Y-51620213D01*
X127879786Y-51469890D01*
X127707820Y-51344951D01*
X127703749Y-51342877D01*
X127699054Y-51340485D01*
X127648259Y-51292512D01*
X127631463Y-51224692D01*
X127653999Y-51158556D01*
X127699054Y-51119515D01*
X127707816Y-51115051D01*
X127735348Y-51095048D01*
X127879786Y-50990109D01*
X127879788Y-50990106D01*
X127879792Y-50990104D01*
X128030104Y-50839792D01*
X128030106Y-50839788D01*
X128030109Y-50839786D01*
X128155048Y-50667820D01*
X128155047Y-50667820D01*
X128155051Y-50667816D01*
X128251557Y-50478412D01*
X128317246Y-50276243D01*
X128350500Y-50066287D01*
X128350500Y-49853713D01*
X128317246Y-49643757D01*
X128251557Y-49441588D01*
X128155051Y-49252184D01*
X128155049Y-49252181D01*
X128155048Y-49252179D01*
X128030109Y-49080213D01*
X127879786Y-48929890D01*
X127707820Y-48804951D01*
X127707115Y-48804591D01*
X127699054Y-48800485D01*
X127648259Y-48752512D01*
X127631463Y-48684692D01*
X127653999Y-48618556D01*
X127699054Y-48579515D01*
X127707816Y-48575051D01*
X127735348Y-48555048D01*
X127879786Y-48450109D01*
X127879788Y-48450106D01*
X127879792Y-48450104D01*
X128030104Y-48299792D01*
X128030106Y-48299788D01*
X128030109Y-48299786D01*
X128155048Y-48127820D01*
X128155047Y-48127820D01*
X128155051Y-48127816D01*
X128251557Y-47938412D01*
X128317246Y-47736243D01*
X128350500Y-47526287D01*
X128350500Y-47313713D01*
X128317246Y-47103757D01*
X128251557Y-46901588D01*
X128155051Y-46712184D01*
X128155049Y-46712181D01*
X128155048Y-46712179D01*
X128030109Y-46540213D01*
X127879786Y-46389890D01*
X127707820Y-46264951D01*
X127707115Y-46264591D01*
X127699054Y-46260485D01*
X127648259Y-46212512D01*
X127631463Y-46144692D01*
X127653999Y-46078556D01*
X127699054Y-46039515D01*
X127707816Y-46035051D01*
X127735348Y-46015048D01*
X127879786Y-45910109D01*
X127879788Y-45910106D01*
X127879792Y-45910104D01*
X128030104Y-45759792D01*
X128030106Y-45759788D01*
X128030109Y-45759786D01*
X128155048Y-45587820D01*
X128155047Y-45587820D01*
X128155051Y-45587816D01*
X128251557Y-45398412D01*
X128317246Y-45196243D01*
X128350500Y-44986287D01*
X128350500Y-44773713D01*
X128317246Y-44563757D01*
X128251557Y-44361588D01*
X128155051Y-44172184D01*
X128155049Y-44172181D01*
X128155048Y-44172179D01*
X128030109Y-44000213D01*
X127879786Y-43849890D01*
X127707820Y-43724951D01*
X127707115Y-43724591D01*
X127699054Y-43720485D01*
X127648259Y-43672512D01*
X127631463Y-43604692D01*
X127653999Y-43538556D01*
X127699054Y-43499515D01*
X127707816Y-43495051D01*
X127735348Y-43475048D01*
X127879786Y-43370109D01*
X127879788Y-43370106D01*
X127879792Y-43370104D01*
X128030104Y-43219792D01*
X128030106Y-43219788D01*
X128030109Y-43219786D01*
X128155048Y-43047820D01*
X128155047Y-43047820D01*
X128155051Y-43047816D01*
X128251557Y-42858412D01*
X128317246Y-42656243D01*
X128350500Y-42446287D01*
X128350500Y-42233713D01*
X128317246Y-42023757D01*
X128251557Y-41821588D01*
X128155051Y-41632184D01*
X128155049Y-41632181D01*
X128155048Y-41632179D01*
X128030109Y-41460213D01*
X127879786Y-41309890D01*
X127707820Y-41184951D01*
X127707115Y-41184591D01*
X127699054Y-41180485D01*
X127648259Y-41132512D01*
X127631463Y-41064692D01*
X127653999Y-40998556D01*
X127699054Y-40959515D01*
X127707816Y-40955051D01*
X127735348Y-40935048D01*
X127879786Y-40830109D01*
X127879788Y-40830106D01*
X127879792Y-40830104D01*
X128030104Y-40679792D01*
X128030106Y-40679788D01*
X128030109Y-40679786D01*
X128155048Y-40507820D01*
X128155047Y-40507820D01*
X128155051Y-40507816D01*
X128251557Y-40318412D01*
X128317246Y-40116243D01*
X128350500Y-39906287D01*
X128350500Y-39693713D01*
X128317246Y-39483757D01*
X128251557Y-39281588D01*
X128155051Y-39092184D01*
X128155049Y-39092181D01*
X128155048Y-39092179D01*
X128030109Y-38920213D01*
X127879786Y-38769890D01*
X127707820Y-38644951D01*
X127707115Y-38644591D01*
X127699054Y-38640485D01*
X127648259Y-38592512D01*
X127631463Y-38524692D01*
X127653999Y-38458556D01*
X127699054Y-38419515D01*
X127707816Y-38415051D01*
X127735348Y-38395048D01*
X127879786Y-38290109D01*
X127879788Y-38290106D01*
X127879792Y-38290104D01*
X128030104Y-38139792D01*
X128030106Y-38139788D01*
X128030109Y-38139786D01*
X128155048Y-37967820D01*
X128155047Y-37967820D01*
X128155051Y-37967816D01*
X128251557Y-37778412D01*
X128317246Y-37576243D01*
X128350500Y-37366287D01*
X128350500Y-37153713D01*
X128317246Y-36943757D01*
X128251557Y-36741588D01*
X128155051Y-36552184D01*
X128155049Y-36552181D01*
X128155048Y-36552179D01*
X128030109Y-36380213D01*
X127879786Y-36229890D01*
X127707820Y-36104951D01*
X127707115Y-36104591D01*
X127699054Y-36100485D01*
X127648259Y-36052512D01*
X127631463Y-35984692D01*
X127653999Y-35918556D01*
X127699054Y-35879515D01*
X127707816Y-35875051D01*
X127735348Y-35855048D01*
X127879786Y-35750109D01*
X127879788Y-35750106D01*
X127879792Y-35750104D01*
X128030104Y-35599792D01*
X128030106Y-35599788D01*
X128030109Y-35599786D01*
X128155048Y-35427820D01*
X128155047Y-35427820D01*
X128155051Y-35427816D01*
X128251557Y-35238412D01*
X128317246Y-35036243D01*
X128350500Y-34826287D01*
X128350500Y-34613713D01*
X128317246Y-34403757D01*
X128251557Y-34201588D01*
X128155051Y-34012184D01*
X128155049Y-34012181D01*
X128155048Y-34012179D01*
X128030109Y-33840213D01*
X127879786Y-33689890D01*
X127707820Y-33564951D01*
X127707115Y-33564591D01*
X127699054Y-33560485D01*
X127648259Y-33512512D01*
X127631463Y-33444692D01*
X127653999Y-33378556D01*
X127699054Y-33339515D01*
X127707816Y-33335051D01*
X127735348Y-33315048D01*
X127879786Y-33210109D01*
X127879788Y-33210106D01*
X127879792Y-33210104D01*
X128030104Y-33059792D01*
X128030106Y-33059788D01*
X128030109Y-33059786D01*
X128155048Y-32887820D01*
X128155047Y-32887820D01*
X128155051Y-32887816D01*
X128251557Y-32698412D01*
X128317246Y-32496243D01*
X128350500Y-32286287D01*
X128350500Y-32073713D01*
X128317246Y-31863757D01*
X128251557Y-31661588D01*
X128155051Y-31472184D01*
X128155049Y-31472181D01*
X128155048Y-31472179D01*
X128030109Y-31300213D01*
X127879786Y-31149890D01*
X127707820Y-31024951D01*
X127707115Y-31024591D01*
X127699054Y-31020485D01*
X127648259Y-30972512D01*
X127631463Y-30904692D01*
X127653999Y-30838556D01*
X127699054Y-30799515D01*
X127707816Y-30795051D01*
X127735348Y-30775048D01*
X127879786Y-30670109D01*
X127879788Y-30670106D01*
X127879792Y-30670104D01*
X128030104Y-30519792D01*
X128030106Y-30519788D01*
X128030109Y-30519786D01*
X128155048Y-30347820D01*
X128155047Y-30347820D01*
X128155051Y-30347816D01*
X128251557Y-30158412D01*
X128317246Y-29956243D01*
X128350500Y-29746287D01*
X128350500Y-29533713D01*
X128317246Y-29323757D01*
X128251557Y-29121588D01*
X128155051Y-28932184D01*
X128155049Y-28932181D01*
X128155048Y-28932179D01*
X128030109Y-28760213D01*
X127879786Y-28609890D01*
X127707820Y-28484951D01*
X127707115Y-28484591D01*
X127699054Y-28480485D01*
X127648259Y-28432512D01*
X127631463Y-28364692D01*
X127653999Y-28298556D01*
X127699054Y-28259515D01*
X127707816Y-28255051D01*
X127735345Y-28235050D01*
X127879786Y-28130109D01*
X127879788Y-28130106D01*
X127879792Y-28130104D01*
X128030104Y-27979792D01*
X128030106Y-27979788D01*
X128030109Y-27979786D01*
X128155048Y-27807820D01*
X128155047Y-27807820D01*
X128155051Y-27807816D01*
X128251557Y-27618412D01*
X128317246Y-27416243D01*
X128350500Y-27206287D01*
X128350500Y-26993713D01*
X128317246Y-26783757D01*
X128251557Y-26581588D01*
X128155051Y-26392184D01*
X128155049Y-26392181D01*
X128155048Y-26392179D01*
X128030109Y-26220213D01*
X127879786Y-26069890D01*
X127707820Y-25944951D01*
X127707115Y-25944591D01*
X127699054Y-25940485D01*
X127648259Y-25892512D01*
X127631463Y-25824692D01*
X127653999Y-25758556D01*
X127699054Y-25719515D01*
X127707816Y-25715051D01*
X127756315Y-25679815D01*
X127879786Y-25590109D01*
X127879788Y-25590106D01*
X127879792Y-25590104D01*
X128030104Y-25439792D01*
X128030106Y-25439788D01*
X128030109Y-25439786D01*
X128155048Y-25267820D01*
X128155047Y-25267820D01*
X128155051Y-25267816D01*
X128251557Y-25078412D01*
X128317246Y-24876243D01*
X128350500Y-24666287D01*
X128350500Y-24453713D01*
X128317246Y-24243757D01*
X128251557Y-24041588D01*
X128155051Y-23852184D01*
X128155049Y-23852181D01*
X128155048Y-23852179D01*
X128030109Y-23680213D01*
X127916181Y-23566285D01*
X127882696Y-23504962D01*
X127887680Y-23435270D01*
X127929552Y-23379337D01*
X127960529Y-23362422D01*
X128092086Y-23313354D01*
X128092093Y-23313350D01*
X128207187Y-23227190D01*
X128207190Y-23227187D01*
X128293350Y-23112093D01*
X128293354Y-23112086D01*
X128343596Y-22977379D01*
X128343598Y-22977372D01*
X128349999Y-22917844D01*
X128350000Y-22917827D01*
X128350000Y-22270000D01*
X127433012Y-22270000D01*
X127465925Y-22212993D01*
X127500000Y-22085826D01*
X127500000Y-21954174D01*
X127465925Y-21827007D01*
X127433012Y-21770000D01*
X128350000Y-21770000D01*
X128350000Y-21122172D01*
X128349999Y-21122155D01*
X128343598Y-21062627D01*
X128343596Y-21062620D01*
X128293354Y-20927913D01*
X128293350Y-20927906D01*
X128207190Y-20812812D01*
X128207187Y-20812809D01*
X128092093Y-20726649D01*
X128092086Y-20726645D01*
X127957379Y-20676403D01*
X127957372Y-20676401D01*
X127897844Y-20670000D01*
X127250000Y-20670000D01*
X127250000Y-21586988D01*
X127192993Y-21554075D01*
X127065826Y-21520000D01*
X126934174Y-21520000D01*
X126807007Y-21554075D01*
X126750000Y-21586988D01*
X126750000Y-20670000D01*
X126102155Y-20670000D01*
X126042627Y-20676401D01*
X126042620Y-20676403D01*
X125907913Y-20726645D01*
X125907906Y-20726649D01*
X125792812Y-20812809D01*
X125792809Y-20812812D01*
X125706649Y-20927906D01*
X125706645Y-20927913D01*
X125656403Y-21062620D01*
X125656401Y-21062627D01*
X125650000Y-21122155D01*
X125650000Y-21770000D01*
X126566988Y-21770000D01*
X126534075Y-21827007D01*
X126500000Y-21954174D01*
X126500000Y-22085826D01*
X126534075Y-22212993D01*
X126566988Y-22270000D01*
X125650000Y-22270000D01*
X125650000Y-22917844D01*
X125656401Y-22977372D01*
X125656403Y-22977379D01*
X125706645Y-23112086D01*
X125706649Y-23112093D01*
X125792809Y-23227187D01*
X125792812Y-23227190D01*
X125907906Y-23313350D01*
X125907913Y-23313354D01*
X126039470Y-23362422D01*
X126095404Y-23404293D01*
X126119821Y-23469758D01*
X126104969Y-23538031D01*
X126083819Y-23566285D01*
X125969889Y-23680215D01*
X125844951Y-23852179D01*
X125748444Y-24041585D01*
X125682753Y-24243760D01*
X125649500Y-24453713D01*
X125649500Y-24666286D01*
X125680538Y-24862255D01*
X125682754Y-24876243D01*
X125741945Y-25058414D01*
X125748444Y-25078414D01*
X125844951Y-25267820D01*
X125969890Y-25439786D01*
X126120213Y-25590109D01*
X126292182Y-25715050D01*
X126300946Y-25719516D01*
X126351742Y-25767491D01*
X126368536Y-25835312D01*
X126345998Y-25901447D01*
X126300946Y-25940484D01*
X126292182Y-25944949D01*
X126120213Y-26069890D01*
X125969890Y-26220213D01*
X125844951Y-26392179D01*
X125748444Y-26581585D01*
X125682753Y-26783760D01*
X125649500Y-26993713D01*
X125649500Y-27206286D01*
X125679585Y-27396239D01*
X125682754Y-27416243D01*
X125741945Y-27598414D01*
X125748444Y-27618414D01*
X125844951Y-27807820D01*
X125969890Y-27979786D01*
X126120213Y-28130109D01*
X126292182Y-28255050D01*
X126300946Y-28259516D01*
X126351742Y-28307491D01*
X126368536Y-28375312D01*
X126345998Y-28441447D01*
X126300946Y-28480484D01*
X126292182Y-28484949D01*
X126120213Y-28609890D01*
X125969890Y-28760213D01*
X125844951Y-28932179D01*
X125748444Y-29121585D01*
X125682753Y-29323760D01*
X125649500Y-29533713D01*
X125649500Y-29746286D01*
X125679585Y-29936239D01*
X125682754Y-29956243D01*
X125741945Y-30138414D01*
X125748444Y-30158414D01*
X125844951Y-30347820D01*
X125969890Y-30519786D01*
X126120213Y-30670109D01*
X126292182Y-30795050D01*
X126300946Y-30799516D01*
X126351742Y-30847491D01*
X126368536Y-30915312D01*
X126345998Y-30981447D01*
X126300946Y-31020484D01*
X126292182Y-31024949D01*
X126120213Y-31149890D01*
X125969894Y-31300209D01*
X125855624Y-31457489D01*
X125800294Y-31500154D01*
X125730681Y-31506133D01*
X125668886Y-31473527D01*
X125634528Y-31412688D01*
X125632833Y-31404000D01*
X125614342Y-31287251D01*
X125614342Y-31287250D01*
X125573074Y-31160242D01*
X125541357Y-31062627D01*
X125541355Y-31062624D01*
X125541355Y-31062622D01*
X125466296Y-30915312D01*
X125434132Y-30852186D01*
X125295306Y-30661109D01*
X125128299Y-30494102D01*
X124937222Y-30355276D01*
X124883329Y-30327816D01*
X124726785Y-30248052D01*
X124502157Y-30175065D01*
X124268886Y-30138119D01*
X124268881Y-30138119D01*
X124032697Y-30138119D01*
X124032692Y-30138119D01*
X123799420Y-30175065D01*
X123574792Y-30248052D01*
X123364355Y-30355276D01*
X123255339Y-30434481D01*
X123173279Y-30494102D01*
X123173277Y-30494104D01*
X123173276Y-30494104D01*
X123006274Y-30661106D01*
X123006274Y-30661107D01*
X123006272Y-30661109D01*
X122946651Y-30743169D01*
X122867446Y-30852185D01*
X122760222Y-31062622D01*
X122687235Y-31287250D01*
X122650289Y-31520521D01*
X122650289Y-31756716D01*
X122674632Y-31910409D01*
X122665678Y-31979702D01*
X122639840Y-32017488D01*
X121016619Y-33640711D01*
X120489711Y-34167619D01*
X120455745Y-34201585D01*
X120378209Y-34279120D01*
X120290609Y-34410222D01*
X120290602Y-34410235D01*
X120230264Y-34555906D01*
X120230261Y-34555918D01*
X120199501Y-34710556D01*
X120199500Y-34710563D01*
X120199500Y-53060010D01*
X120179815Y-53127049D01*
X120163181Y-53147691D01*
X117897691Y-55413181D01*
X117836368Y-55446666D01*
X117810010Y-55449500D01*
X116928939Y-55449500D01*
X116861900Y-55429815D01*
X116816145Y-55377011D01*
X116806201Y-55307853D01*
X116835226Y-55244297D01*
X116841258Y-55237819D01*
X117572786Y-54506291D01*
X117572789Y-54506288D01*
X117660394Y-54375178D01*
X117720738Y-54229496D01*
X117751500Y-54074841D01*
X117751500Y-53917156D01*
X117751500Y-34072158D01*
X117751500Y-34072155D01*
X117751499Y-34072153D01*
X117720738Y-33917510D01*
X117720737Y-33917503D01*
X117710024Y-33891639D01*
X117660397Y-33771827D01*
X117660390Y-33771814D01*
X117572790Y-33640712D01*
X117572789Y-33640711D01*
X117461289Y-33529211D01*
X113658364Y-29726286D01*
X109810292Y-25878213D01*
X109810288Y-25878210D01*
X109679185Y-25790609D01*
X109679172Y-25790602D01*
X109533501Y-25730264D01*
X109533489Y-25730261D01*
X109378845Y-25699500D01*
X109378842Y-25699500D01*
X101586304Y-25699500D01*
X101519265Y-25679815D01*
X101485986Y-25648386D01*
X101478258Y-25637749D01*
X101394517Y-25522490D01*
X101227510Y-25355483D01*
X101036433Y-25216657D01*
X100984789Y-25190343D01*
X100825996Y-25109433D01*
X100601368Y-25036446D01*
X100368097Y-24999500D01*
X100368092Y-24999500D01*
X100131908Y-24999500D01*
X100131903Y-24999500D01*
X99898631Y-25036446D01*
X99674003Y-25109433D01*
X99463566Y-25216657D01*
X99393153Y-25267816D01*
X99272490Y-25355483D01*
X99272488Y-25355485D01*
X99272487Y-25355485D01*
X99105485Y-25522487D01*
X99105485Y-25522488D01*
X99105483Y-25522490D01*
X99070886Y-25570109D01*
X98966657Y-25713566D01*
X98859433Y-25924003D01*
X98786446Y-26148631D01*
X98749500Y-26381902D01*
X98749500Y-26618097D01*
X98786446Y-26851368D01*
X98859433Y-27075996D01*
X98959551Y-27272487D01*
X98966657Y-27286433D01*
X99105483Y-27477510D01*
X99272490Y-27644517D01*
X99463567Y-27783343D01*
X99472354Y-27787820D01*
X99674003Y-27890566D01*
X99674005Y-27890566D01*
X99674008Y-27890568D01*
X99794412Y-27929689D01*
X99898631Y-27963553D01*
X100131903Y-28000500D01*
X100131908Y-28000500D01*
X100368097Y-28000500D01*
X100601368Y-27963553D01*
X100612943Y-27959792D01*
X100825992Y-27890568D01*
X101036433Y-27783343D01*
X101227510Y-27644517D01*
X101394517Y-27477510D01*
X101485986Y-27351613D01*
X101541316Y-27308949D01*
X101586304Y-27300500D01*
X108917060Y-27300500D01*
X108984099Y-27320185D01*
X109004741Y-27336819D01*
X116114181Y-34446259D01*
X116147666Y-34507582D01*
X116150500Y-34533940D01*
X116150500Y-51379440D01*
X116130815Y-51446479D01*
X116078011Y-51492234D01*
X116008853Y-51502178D01*
X115953615Y-51479758D01*
X115936175Y-51467087D01*
X115725802Y-51359897D01*
X115501247Y-51286934D01*
X115400000Y-51270897D01*
X115400000Y-52624722D01*
X115323694Y-52580667D01*
X115209244Y-52550000D01*
X115090756Y-52550000D01*
X114976306Y-52580667D01*
X114900000Y-52624722D01*
X114900000Y-51270897D01*
X114798752Y-51286934D01*
X114574197Y-51359897D01*
X114363828Y-51467085D01*
X114172813Y-51605866D01*
X114005866Y-51772813D01*
X113867083Y-51963831D01*
X113854240Y-51989035D01*
X113806264Y-52039829D01*
X113738442Y-52056621D01*
X113672308Y-52034081D01*
X113656077Y-52020416D01*
X113568345Y-51932684D01*
X113419124Y-51840643D01*
X113419119Y-51840641D01*
X113252697Y-51785494D01*
X113252690Y-51785493D01*
X113149986Y-51775000D01*
X113100000Y-51775000D01*
X113100000Y-52750000D01*
X114774722Y-52750000D01*
X114730667Y-52826306D01*
X114700000Y-52940756D01*
X114700000Y-53059244D01*
X114730667Y-53173694D01*
X114774722Y-53250000D01*
X112974000Y-53250000D01*
X112906961Y-53230315D01*
X112861206Y-53177511D01*
X112850000Y-53126000D01*
X112850000Y-53000000D01*
X112724000Y-53000000D01*
X112656961Y-52980315D01*
X112611206Y-52927511D01*
X112600000Y-52876000D01*
X112600000Y-51775000D01*
X112599999Y-51774999D01*
X112550029Y-51775000D01*
X112550011Y-51775001D01*
X112447302Y-51785494D01*
X112280880Y-51840641D01*
X112280875Y-51840643D01*
X112131654Y-51932684D01*
X112007683Y-52056655D01*
X112007679Y-52056660D01*
X112005826Y-52059665D01*
X112004018Y-52061290D01*
X112003202Y-52062323D01*
X112003025Y-52062183D01*
X111953874Y-52106385D01*
X111884911Y-52117601D01*
X111820831Y-52089752D01*
X111794753Y-52059653D01*
X111794737Y-52059628D01*
X111792712Y-52056344D01*
X111668656Y-51932288D01*
X111519334Y-51840186D01*
X111352797Y-51785001D01*
X111352795Y-51785000D01*
X111250010Y-51774500D01*
X110649998Y-51774500D01*
X110649980Y-51774501D01*
X110547203Y-51785000D01*
X110547200Y-51785001D01*
X110380668Y-51840185D01*
X110380663Y-51840187D01*
X110231345Y-51932287D01*
X110144055Y-52019577D01*
X110082731Y-52053061D01*
X110013040Y-52048077D01*
X109957106Y-52006205D01*
X109945889Y-51988190D01*
X109942525Y-51981588D01*
X109933343Y-51963567D01*
X109794517Y-51772490D01*
X109627510Y-51605483D01*
X109436433Y-51466657D01*
X109403526Y-51449890D01*
X109225996Y-51359433D01*
X109001368Y-51286446D01*
X108768097Y-51249500D01*
X108768092Y-51249500D01*
X108531908Y-51249500D01*
X108531903Y-51249500D01*
X108298630Y-51286447D01*
X108197223Y-51319396D01*
X108127381Y-51321391D01*
X108071224Y-51289146D01*
X96826819Y-40044741D01*
X96793334Y-39983418D01*
X96790500Y-39957060D01*
X96790500Y-29586302D01*
X96810185Y-29519263D01*
X96841609Y-29485988D01*
X96967510Y-29394517D01*
X97134517Y-29227510D01*
X97273343Y-29036433D01*
X97380568Y-28825992D01*
X97453553Y-28601368D01*
X97455371Y-28589890D01*
X97490500Y-28368097D01*
X97490500Y-28131902D01*
X97453553Y-27898631D01*
X97380566Y-27674003D01*
X97280448Y-27477512D01*
X97273343Y-27463567D01*
X97134517Y-27272490D01*
X96967510Y-27105483D01*
X96776433Y-26966657D01*
X96565996Y-26859433D01*
X96341368Y-26786446D01*
X96108097Y-26749500D01*
X96108092Y-26749500D01*
X95871908Y-26749500D01*
X95871903Y-26749500D01*
X95638630Y-26786447D01*
X95638627Y-26786447D01*
X95454444Y-26846292D01*
X95384603Y-26848287D01*
X95324770Y-26812206D01*
X95298195Y-26766679D01*
X95297246Y-26763757D01*
X95231557Y-26561588D01*
X95135051Y-26372184D01*
X95135049Y-26372181D01*
X95135048Y-26372179D01*
X95010109Y-26200213D01*
X94859786Y-26049890D01*
X94687820Y-25924951D01*
X94685959Y-25924003D01*
X94679054Y-25920485D01*
X94628259Y-25872512D01*
X94611463Y-25804692D01*
X94633999Y-25738556D01*
X94679054Y-25699515D01*
X94687816Y-25695051D01*
X94709789Y-25679086D01*
X94859786Y-25570109D01*
X94859788Y-25570106D01*
X94859792Y-25570104D01*
X95010104Y-25419792D01*
X95010106Y-25419788D01*
X95010109Y-25419786D01*
X95135048Y-25247820D01*
X95135047Y-25247820D01*
X95135051Y-25247816D01*
X95231557Y-25058412D01*
X95297246Y-24856243D01*
X95310116Y-24774986D01*
X109300001Y-24774986D01*
X109310494Y-24877697D01*
X109365641Y-25044119D01*
X109365643Y-25044124D01*
X109457684Y-25193345D01*
X109581654Y-25317315D01*
X109730875Y-25409356D01*
X109730880Y-25409358D01*
X109897302Y-25464505D01*
X109897309Y-25464506D01*
X110000019Y-25474999D01*
X110049999Y-25474998D01*
X110050000Y-25474998D01*
X110050000Y-24500000D01*
X109300001Y-24500000D01*
X109300001Y-24774986D01*
X95310116Y-24774986D01*
X95330500Y-24646287D01*
X95330500Y-24433713D01*
X95297246Y-24223757D01*
X95231557Y-24021588D01*
X95135051Y-23832184D01*
X95107852Y-23794748D01*
X95107852Y-23794746D01*
X95057188Y-23725013D01*
X109300000Y-23725013D01*
X109300000Y-24000000D01*
X110050000Y-24000000D01*
X110050000Y-23025000D01*
X110550000Y-23025000D01*
X110550000Y-25474999D01*
X110599972Y-25474999D01*
X110599986Y-25474998D01*
X110702697Y-25464505D01*
X110869119Y-25409358D01*
X110869124Y-25409356D01*
X111018345Y-25317315D01*
X111142318Y-25193342D01*
X111144165Y-25190348D01*
X111145969Y-25188724D01*
X111146798Y-25187677D01*
X111146976Y-25187818D01*
X111196110Y-25143621D01*
X111265073Y-25132396D01*
X111329156Y-25160236D01*
X111355243Y-25190341D01*
X111357288Y-25193656D01*
X111481344Y-25317712D01*
X111630666Y-25409814D01*
X111797203Y-25464999D01*
X111899991Y-25475500D01*
X112500008Y-25475499D01*
X112500016Y-25475498D01*
X112500019Y-25475498D01*
X112556302Y-25469748D01*
X112602797Y-25464999D01*
X112769334Y-25409814D01*
X112918656Y-25317712D01*
X113042712Y-25193656D01*
X113094680Y-25109402D01*
X113146627Y-25062679D01*
X113200218Y-25050500D01*
X114923000Y-25050500D01*
X114990039Y-25070185D01*
X115035794Y-25122989D01*
X115047000Y-25174500D01*
X115047000Y-25411854D01*
X115057081Y-25475500D01*
X115082778Y-25637746D01*
X115082778Y-25637749D01*
X115153450Y-25855255D01*
X115176986Y-25901447D01*
X115257283Y-26059038D01*
X115391714Y-26244066D01*
X115553434Y-26405786D01*
X115738462Y-26540217D01*
X115942242Y-26644048D01*
X115942244Y-26644049D01*
X116159751Y-26714721D01*
X116159752Y-26714721D01*
X116159755Y-26714722D01*
X116385646Y-26750500D01*
X116385647Y-26750500D01*
X116614353Y-26750500D01*
X116614354Y-26750500D01*
X116840245Y-26714722D01*
X116840248Y-26714721D01*
X116840249Y-26714721D01*
X117057755Y-26644049D01*
X117057755Y-26644048D01*
X117057758Y-26644048D01*
X117261538Y-26540217D01*
X117446566Y-26405786D01*
X117608286Y-26244066D01*
X117669683Y-26159559D01*
X117725012Y-26116896D01*
X117794625Y-26110917D01*
X117856420Y-26143523D01*
X117870314Y-26159556D01*
X117931714Y-26244066D01*
X118093434Y-26405786D01*
X118278462Y-26540217D01*
X118482242Y-26644048D01*
X118482244Y-26644049D01*
X118699751Y-26714721D01*
X118699752Y-26714721D01*
X118699755Y-26714722D01*
X118925646Y-26750500D01*
X118925647Y-26750500D01*
X119154353Y-26750500D01*
X119154354Y-26750500D01*
X119380245Y-26714722D01*
X119380248Y-26714721D01*
X119380249Y-26714721D01*
X119597755Y-26644049D01*
X119597755Y-26644048D01*
X119597758Y-26644048D01*
X119801538Y-26540217D01*
X119984663Y-26407168D01*
X120050465Y-26383690D01*
X120118519Y-26399515D01*
X120167214Y-26449621D01*
X120173726Y-26464153D01*
X120184144Y-26492083D01*
X120184149Y-26492093D01*
X120270309Y-26607187D01*
X120270312Y-26607190D01*
X120385406Y-26693350D01*
X120385413Y-26693354D01*
X120520120Y-26743596D01*
X120520127Y-26743598D01*
X120579655Y-26749999D01*
X120579672Y-26750000D01*
X121330000Y-26750000D01*
X121330000Y-25740747D01*
X121367708Y-25762518D01*
X121507591Y-25800000D01*
X121652409Y-25800000D01*
X121792292Y-25762518D01*
X121830000Y-25740747D01*
X121830000Y-26750000D01*
X122580328Y-26750000D01*
X122580344Y-26749999D01*
X122639872Y-26743598D01*
X122639879Y-26743596D01*
X122774586Y-26693354D01*
X122774593Y-26693350D01*
X122889687Y-26607190D01*
X122889690Y-26607187D01*
X122975850Y-26492093D01*
X122975854Y-26492086D01*
X123026096Y-26357379D01*
X123026098Y-26357372D01*
X123032499Y-26297844D01*
X123032500Y-26297827D01*
X123032500Y-25500000D01*
X122070748Y-25500000D01*
X122092518Y-25462292D01*
X122130000Y-25322409D01*
X122130000Y-25177591D01*
X122092518Y-25037708D01*
X122070748Y-25000000D01*
X123032500Y-25000000D01*
X123032500Y-24202172D01*
X123032499Y-24202155D01*
X123026098Y-24142627D01*
X123026096Y-24142620D01*
X122975854Y-24007913D01*
X122975850Y-24007906D01*
X122889690Y-23892812D01*
X122889687Y-23892809D01*
X122774593Y-23806649D01*
X122774586Y-23806645D01*
X122639879Y-23756403D01*
X122639872Y-23756401D01*
X122580344Y-23750000D01*
X121830000Y-23750000D01*
X121830000Y-24759252D01*
X121792292Y-24737482D01*
X121652409Y-24700000D01*
X121507591Y-24700000D01*
X121367708Y-24737482D01*
X121330000Y-24759252D01*
X121330000Y-23750000D01*
X120579655Y-23750000D01*
X120520127Y-23756401D01*
X120520120Y-23756403D01*
X120385413Y-23806645D01*
X120385406Y-23806649D01*
X120270312Y-23892809D01*
X120270309Y-23892812D01*
X120184149Y-24007906D01*
X120184146Y-24007912D01*
X120173726Y-24035848D01*
X120131853Y-24091780D01*
X120066388Y-24116195D01*
X119998115Y-24101342D01*
X119984664Y-24092832D01*
X119801538Y-23959783D01*
X119670100Y-23892812D01*
X119597755Y-23855950D01*
X119380248Y-23785278D01*
X119197925Y-23756401D01*
X119154354Y-23749500D01*
X118925646Y-23749500D01*
X118882063Y-23756403D01*
X118699753Y-23785278D01*
X118699750Y-23785278D01*
X118482244Y-23855950D01*
X118278461Y-23959783D01*
X118212218Y-24007912D01*
X118093434Y-24094214D01*
X118093432Y-24094216D01*
X118093431Y-24094216D01*
X117931715Y-24255932D01*
X117870318Y-24340438D01*
X117814987Y-24383103D01*
X117745374Y-24389082D01*
X117683579Y-24356476D01*
X117669682Y-24340438D01*
X117658773Y-24325423D01*
X117608286Y-24255934D01*
X117446566Y-24094214D01*
X117261538Y-23959783D01*
X117130100Y-23892812D01*
X117057755Y-23855950D01*
X116840248Y-23785278D01*
X116657925Y-23756401D01*
X116614354Y-23749500D01*
X116385646Y-23749500D01*
X116385641Y-23749500D01*
X116228719Y-23774354D01*
X116159425Y-23765399D01*
X116121642Y-23739564D01*
X116010289Y-23628211D01*
X116010288Y-23628210D01*
X116010287Y-23628209D01*
X115879185Y-23540609D01*
X115879172Y-23540602D01*
X115733501Y-23480264D01*
X115733489Y-23480261D01*
X115578845Y-23449500D01*
X115578842Y-23449500D01*
X113200218Y-23449500D01*
X113133179Y-23429815D01*
X113094679Y-23390597D01*
X113042712Y-23306344D01*
X112918656Y-23182288D01*
X112772426Y-23092093D01*
X112769336Y-23090187D01*
X112769331Y-23090185D01*
X112767862Y-23089698D01*
X112602797Y-23035001D01*
X112602795Y-23035000D01*
X112500010Y-23024500D01*
X111899998Y-23024500D01*
X111899980Y-23024501D01*
X111797203Y-23035000D01*
X111797200Y-23035001D01*
X111630668Y-23090185D01*
X111630663Y-23090187D01*
X111481342Y-23182289D01*
X111357288Y-23306343D01*
X111357283Y-23306349D01*
X111355241Y-23309661D01*
X111353247Y-23311453D01*
X111352807Y-23312011D01*
X111352711Y-23311935D01*
X111303291Y-23356383D01*
X111234328Y-23367602D01*
X111170247Y-23339755D01*
X111144168Y-23309656D01*
X111142319Y-23306659D01*
X111142316Y-23306655D01*
X111018345Y-23182684D01*
X110869124Y-23090643D01*
X110869119Y-23090641D01*
X110702697Y-23035494D01*
X110702690Y-23035493D01*
X110599986Y-23025000D01*
X110550000Y-23025000D01*
X110050000Y-23025000D01*
X110049999Y-23024999D01*
X110000029Y-23025000D01*
X110000011Y-23025001D01*
X109897302Y-23035494D01*
X109730880Y-23090641D01*
X109730875Y-23090643D01*
X109581654Y-23182684D01*
X109457684Y-23306654D01*
X109365643Y-23455875D01*
X109365641Y-23455880D01*
X109310494Y-23622302D01*
X109310493Y-23622309D01*
X109300000Y-23725013D01*
X95057188Y-23725013D01*
X95010109Y-23660214D01*
X95010105Y-23660209D01*
X94896181Y-23546285D01*
X94862696Y-23484962D01*
X94867680Y-23415270D01*
X94909552Y-23359337D01*
X94940529Y-23342422D01*
X95072086Y-23293354D01*
X95072093Y-23293350D01*
X95187187Y-23207190D01*
X95187190Y-23207187D01*
X95273350Y-23092093D01*
X95273354Y-23092086D01*
X95323596Y-22957379D01*
X95323598Y-22957372D01*
X95329999Y-22897844D01*
X95330000Y-22897827D01*
X95330000Y-22250000D01*
X94413012Y-22250000D01*
X94416665Y-22243673D01*
X99486692Y-22243673D01*
X120415714Y-22243673D01*
X120415714Y-19980803D01*
X99486692Y-19980803D01*
X99486692Y-22243673D01*
X94416665Y-22243673D01*
X94445925Y-22192993D01*
X94480000Y-22065826D01*
X94480000Y-21934174D01*
X94445925Y-21807007D01*
X94413012Y-21750000D01*
X95330000Y-21750000D01*
X95330000Y-21102172D01*
X95329999Y-21102155D01*
X95323598Y-21042627D01*
X95323596Y-21042620D01*
X95273354Y-20907913D01*
X95273350Y-20907906D01*
X95187190Y-20792812D01*
X95187187Y-20792809D01*
X95072093Y-20706649D01*
X95072086Y-20706645D01*
X94937379Y-20656403D01*
X94937372Y-20656401D01*
X94877844Y-20650000D01*
X94230000Y-20650000D01*
X94230000Y-21566988D01*
X94172993Y-21534075D01*
X94045826Y-21500000D01*
X93914174Y-21500000D01*
X93787007Y-21534075D01*
X93730000Y-21566988D01*
X93730000Y-20650000D01*
X93082155Y-20650000D01*
X93022627Y-20656401D01*
X93022620Y-20656403D01*
X92887913Y-20706645D01*
X92887906Y-20706649D01*
X92772812Y-20792809D01*
X92772809Y-20792812D01*
X92686649Y-20907906D01*
X92686645Y-20907913D01*
X92636403Y-21042620D01*
X92636401Y-21042627D01*
X92630000Y-21102155D01*
X92630000Y-21750000D01*
X93546988Y-21750000D01*
X93514075Y-21807007D01*
X93480000Y-21934174D01*
X93480000Y-22065826D01*
X93514075Y-22192993D01*
X93546988Y-22250000D01*
X92630000Y-22250000D01*
X92630000Y-22897844D01*
X92636401Y-22957372D01*
X92636403Y-22957379D01*
X92686645Y-23092086D01*
X92686649Y-23092093D01*
X92772809Y-23207187D01*
X92772812Y-23207190D01*
X92887906Y-23293350D01*
X92887913Y-23293354D01*
X93019470Y-23342422D01*
X93075404Y-23384293D01*
X93099821Y-23449758D01*
X93084969Y-23518031D01*
X93063819Y-23546285D01*
X92949889Y-23660215D01*
X92824951Y-23832179D01*
X92728444Y-24021585D01*
X92662753Y-24223760D01*
X92629500Y-24433713D01*
X92040500Y-24433713D01*
X92040500Y-19643673D01*
X103403038Y-19643673D01*
X117091905Y-19643673D01*
X117091905Y-17380803D01*
X103403038Y-17380803D01*
X103403038Y-19643673D01*
X92040500Y-19643673D01*
X92040500Y-16664500D01*
X92060185Y-16597461D01*
X92112989Y-16551706D01*
X92164500Y-16540500D01*
X128835500Y-16540500D01*
X128902539Y-16560185D01*
G37*
%TD.AperFunction*%
%TD*%
M02*
