%TF.GenerationSoftware,KiCad,Pcbnew,9.0.4*%
%TF.CreationDate,2026-03-05T01:36:55+00:00*%
%TF.ProjectId,ESP32_Breakout V1,45535033-325f-4427-9265-616b6f757420,rev?*%
%TF.SameCoordinates,Original*%
%TF.FileFunction,Legend,Bot*%
%TF.FilePolarity,Positive*%
%FSLAX46Y46*%
G04 Gerber Fmt 4.6, Leading zero omitted, Abs format (unit mm)*
G04 Created by KiCad (PCBNEW 9.0.4) date 2026-03-05 01:36:55*
%MOMM*%
%LPD*%
G01*
G04 APERTURE LIST*
%ADD10C,0.150000*%
%ADD11C,0.120000*%
G04 APERTURE END LIST*
D10*
X94313333Y-19074819D02*
X94313333Y-19789104D01*
X94313333Y-19789104D02*
X94360952Y-19931961D01*
X94360952Y-19931961D02*
X94456190Y-20027200D01*
X94456190Y-20027200D02*
X94599047Y-20074819D01*
X94599047Y-20074819D02*
X94694285Y-20074819D01*
X93408571Y-19074819D02*
X93599047Y-19074819D01*
X93599047Y-19074819D02*
X93694285Y-19122438D01*
X93694285Y-19122438D02*
X93741904Y-19170057D01*
X93741904Y-19170057D02*
X93837142Y-19312914D01*
X93837142Y-19312914D02*
X93884761Y-19503390D01*
X93884761Y-19503390D02*
X93884761Y-19884342D01*
X93884761Y-19884342D02*
X93837142Y-19979580D01*
X93837142Y-19979580D02*
X93789523Y-20027200D01*
X93789523Y-20027200D02*
X93694285Y-20074819D01*
X93694285Y-20074819D02*
X93503809Y-20074819D01*
X93503809Y-20074819D02*
X93408571Y-20027200D01*
X93408571Y-20027200D02*
X93360952Y-19979580D01*
X93360952Y-19979580D02*
X93313333Y-19884342D01*
X93313333Y-19884342D02*
X93313333Y-19646247D01*
X93313333Y-19646247D02*
X93360952Y-19551009D01*
X93360952Y-19551009D02*
X93408571Y-19503390D01*
X93408571Y-19503390D02*
X93503809Y-19455771D01*
X93503809Y-19455771D02*
X93694285Y-19455771D01*
X93694285Y-19455771D02*
X93789523Y-19503390D01*
X93789523Y-19503390D02*
X93837142Y-19551009D01*
X93837142Y-19551009D02*
X93884761Y-19646247D01*
X119801904Y-45284819D02*
X119801904Y-46094342D01*
X119801904Y-46094342D02*
X119754285Y-46189580D01*
X119754285Y-46189580D02*
X119706666Y-46237200D01*
X119706666Y-46237200D02*
X119611428Y-46284819D01*
X119611428Y-46284819D02*
X119420952Y-46284819D01*
X119420952Y-46284819D02*
X119325714Y-46237200D01*
X119325714Y-46237200D02*
X119278095Y-46189580D01*
X119278095Y-46189580D02*
X119230476Y-46094342D01*
X119230476Y-46094342D02*
X119230476Y-45284819D01*
X118230476Y-46284819D02*
X118801904Y-46284819D01*
X118516190Y-46284819D02*
X118516190Y-45284819D01*
X118516190Y-45284819D02*
X118611428Y-45427676D01*
X118611428Y-45427676D02*
X118706666Y-45522914D01*
X118706666Y-45522914D02*
X118801904Y-45570533D01*
X110566666Y-54804819D02*
X110899999Y-54328628D01*
X111138094Y-54804819D02*
X111138094Y-53804819D01*
X111138094Y-53804819D02*
X110757142Y-53804819D01*
X110757142Y-53804819D02*
X110661904Y-53852438D01*
X110661904Y-53852438D02*
X110614285Y-53900057D01*
X110614285Y-53900057D02*
X110566666Y-53995295D01*
X110566666Y-53995295D02*
X110566666Y-54138152D01*
X110566666Y-54138152D02*
X110614285Y-54233390D01*
X110614285Y-54233390D02*
X110661904Y-54281009D01*
X110661904Y-54281009D02*
X110757142Y-54328628D01*
X110757142Y-54328628D02*
X111138094Y-54328628D01*
X109614285Y-54804819D02*
X110185713Y-54804819D01*
X109899999Y-54804819D02*
X109899999Y-53804819D01*
X109899999Y-53804819D02*
X109995237Y-53947676D01*
X109995237Y-53947676D02*
X110090475Y-54042914D01*
X110090475Y-54042914D02*
X110185713Y-54090533D01*
X104166666Y-64704819D02*
X104499999Y-64228628D01*
X104738094Y-64704819D02*
X104738094Y-63704819D01*
X104738094Y-63704819D02*
X104357142Y-63704819D01*
X104357142Y-63704819D02*
X104261904Y-63752438D01*
X104261904Y-63752438D02*
X104214285Y-63800057D01*
X104214285Y-63800057D02*
X104166666Y-63895295D01*
X104166666Y-63895295D02*
X104166666Y-64038152D01*
X104166666Y-64038152D02*
X104214285Y-64133390D01*
X104214285Y-64133390D02*
X104261904Y-64181009D01*
X104261904Y-64181009D02*
X104357142Y-64228628D01*
X104357142Y-64228628D02*
X104738094Y-64228628D01*
X103833332Y-63704819D02*
X103214285Y-63704819D01*
X103214285Y-63704819D02*
X103547618Y-64085771D01*
X103547618Y-64085771D02*
X103404761Y-64085771D01*
X103404761Y-64085771D02*
X103309523Y-64133390D01*
X103309523Y-64133390D02*
X103261904Y-64181009D01*
X103261904Y-64181009D02*
X103214285Y-64276247D01*
X103214285Y-64276247D02*
X103214285Y-64514342D01*
X103214285Y-64514342D02*
X103261904Y-64609580D01*
X103261904Y-64609580D02*
X103309523Y-64657200D01*
X103309523Y-64657200D02*
X103404761Y-64704819D01*
X103404761Y-64704819D02*
X103690475Y-64704819D01*
X103690475Y-64704819D02*
X103785713Y-64657200D01*
X103785713Y-64657200D02*
X103833332Y-64609580D01*
X111416666Y-22929580D02*
X111464285Y-22977200D01*
X111464285Y-22977200D02*
X111607142Y-23024819D01*
X111607142Y-23024819D02*
X111702380Y-23024819D01*
X111702380Y-23024819D02*
X111845237Y-22977200D01*
X111845237Y-22977200D02*
X111940475Y-22881961D01*
X111940475Y-22881961D02*
X111988094Y-22786723D01*
X111988094Y-22786723D02*
X112035713Y-22596247D01*
X112035713Y-22596247D02*
X112035713Y-22453390D01*
X112035713Y-22453390D02*
X111988094Y-22262914D01*
X111988094Y-22262914D02*
X111940475Y-22167676D01*
X111940475Y-22167676D02*
X111845237Y-22072438D01*
X111845237Y-22072438D02*
X111702380Y-22024819D01*
X111702380Y-22024819D02*
X111607142Y-22024819D01*
X111607142Y-22024819D02*
X111464285Y-22072438D01*
X111464285Y-22072438D02*
X111416666Y-22120057D01*
X110511904Y-22024819D02*
X110988094Y-22024819D01*
X110988094Y-22024819D02*
X111035713Y-22501009D01*
X111035713Y-22501009D02*
X110988094Y-22453390D01*
X110988094Y-22453390D02*
X110892856Y-22405771D01*
X110892856Y-22405771D02*
X110654761Y-22405771D01*
X110654761Y-22405771D02*
X110559523Y-22453390D01*
X110559523Y-22453390D02*
X110511904Y-22501009D01*
X110511904Y-22501009D02*
X110464285Y-22596247D01*
X110464285Y-22596247D02*
X110464285Y-22834342D01*
X110464285Y-22834342D02*
X110511904Y-22929580D01*
X110511904Y-22929580D02*
X110559523Y-22977200D01*
X110559523Y-22977200D02*
X110654761Y-23024819D01*
X110654761Y-23024819D02*
X110892856Y-23024819D01*
X110892856Y-23024819D02*
X110988094Y-22977200D01*
X110988094Y-22977200D02*
X111035713Y-22929580D01*
X127333333Y-19094819D02*
X127333333Y-19809104D01*
X127333333Y-19809104D02*
X127380952Y-19951961D01*
X127380952Y-19951961D02*
X127476190Y-20047200D01*
X127476190Y-20047200D02*
X127619047Y-20094819D01*
X127619047Y-20094819D02*
X127714285Y-20094819D01*
X126714285Y-19523390D02*
X126809523Y-19475771D01*
X126809523Y-19475771D02*
X126857142Y-19428152D01*
X126857142Y-19428152D02*
X126904761Y-19332914D01*
X126904761Y-19332914D02*
X126904761Y-19285295D01*
X126904761Y-19285295D02*
X126857142Y-19190057D01*
X126857142Y-19190057D02*
X126809523Y-19142438D01*
X126809523Y-19142438D02*
X126714285Y-19094819D01*
X126714285Y-19094819D02*
X126523809Y-19094819D01*
X126523809Y-19094819D02*
X126428571Y-19142438D01*
X126428571Y-19142438D02*
X126380952Y-19190057D01*
X126380952Y-19190057D02*
X126333333Y-19285295D01*
X126333333Y-19285295D02*
X126333333Y-19332914D01*
X126333333Y-19332914D02*
X126380952Y-19428152D01*
X126380952Y-19428152D02*
X126428571Y-19475771D01*
X126428571Y-19475771D02*
X126523809Y-19523390D01*
X126523809Y-19523390D02*
X126714285Y-19523390D01*
X126714285Y-19523390D02*
X126809523Y-19571009D01*
X126809523Y-19571009D02*
X126857142Y-19618628D01*
X126857142Y-19618628D02*
X126904761Y-19713866D01*
X126904761Y-19713866D02*
X126904761Y-19904342D01*
X126904761Y-19904342D02*
X126857142Y-19999580D01*
X126857142Y-19999580D02*
X126809523Y-20047200D01*
X126809523Y-20047200D02*
X126714285Y-20094819D01*
X126714285Y-20094819D02*
X126523809Y-20094819D01*
X126523809Y-20094819D02*
X126428571Y-20047200D01*
X126428571Y-20047200D02*
X126380952Y-19999580D01*
X126380952Y-19999580D02*
X126333333Y-19904342D01*
X126333333Y-19904342D02*
X126333333Y-19713866D01*
X126333333Y-19713866D02*
X126380952Y-19618628D01*
X126380952Y-19618628D02*
X126428571Y-19571009D01*
X126428571Y-19571009D02*
X126523809Y-19523390D01*
X112066666Y-51679580D02*
X112114285Y-51727200D01*
X112114285Y-51727200D02*
X112257142Y-51774819D01*
X112257142Y-51774819D02*
X112352380Y-51774819D01*
X112352380Y-51774819D02*
X112495237Y-51727200D01*
X112495237Y-51727200D02*
X112590475Y-51631961D01*
X112590475Y-51631961D02*
X112638094Y-51536723D01*
X112638094Y-51536723D02*
X112685713Y-51346247D01*
X112685713Y-51346247D02*
X112685713Y-51203390D01*
X112685713Y-51203390D02*
X112638094Y-51012914D01*
X112638094Y-51012914D02*
X112590475Y-50917676D01*
X112590475Y-50917676D02*
X112495237Y-50822438D01*
X112495237Y-50822438D02*
X112352380Y-50774819D01*
X112352380Y-50774819D02*
X112257142Y-50774819D01*
X112257142Y-50774819D02*
X112114285Y-50822438D01*
X112114285Y-50822438D02*
X112066666Y-50870057D01*
X111733332Y-50774819D02*
X111114285Y-50774819D01*
X111114285Y-50774819D02*
X111447618Y-51155771D01*
X111447618Y-51155771D02*
X111304761Y-51155771D01*
X111304761Y-51155771D02*
X111209523Y-51203390D01*
X111209523Y-51203390D02*
X111161904Y-51251009D01*
X111161904Y-51251009D02*
X111114285Y-51346247D01*
X111114285Y-51346247D02*
X111114285Y-51584342D01*
X111114285Y-51584342D02*
X111161904Y-51679580D01*
X111161904Y-51679580D02*
X111209523Y-51727200D01*
X111209523Y-51727200D02*
X111304761Y-51774819D01*
X111304761Y-51774819D02*
X111590475Y-51774819D01*
X111590475Y-51774819D02*
X111685713Y-51727200D01*
X111685713Y-51727200D02*
X111733332Y-51679580D01*
D11*
%TO.C,J6*%
X92600000Y-23270000D02*
X92600000Y-56400000D01*
X95360000Y-20620000D02*
X93980000Y-20620000D01*
X95360000Y-22000000D02*
X95360000Y-20620000D01*
X95360000Y-23270000D02*
X92600000Y-23270000D01*
X95360000Y-23270000D02*
X95360000Y-56400000D01*
X95360000Y-56400000D02*
X92600000Y-56400000D01*
%TO.C,U1*%
X113920000Y-28940000D02*
X113920000Y-38430000D01*
X113920000Y-38670000D02*
X113920000Y-39870000D01*
X113920000Y-41070000D02*
X113920000Y-42270000D01*
X113920000Y-43470000D02*
X113920000Y-44670000D01*
X114560000Y-44830000D02*
X113920000Y-44830000D01*
X116500000Y-26400000D02*
X116500000Y-28940000D01*
X116960000Y-44830000D02*
X115760000Y-44830000D01*
X119040000Y-26400000D02*
X119040000Y-28940000D01*
X119360000Y-44830000D02*
X118160000Y-44830000D01*
X121580000Y-26400000D02*
X121580000Y-28940000D01*
X121761000Y-44830000D02*
X120560000Y-44830000D01*
X124160000Y-28940000D02*
X113920000Y-28940000D01*
X124160000Y-28940000D02*
X124160000Y-38430000D01*
X124160000Y-38430000D02*
X113920000Y-38430000D01*
X124160000Y-38670000D02*
X124160000Y-39870000D01*
X124160000Y-41070000D02*
X124160000Y-42270000D01*
X124160000Y-43470000D02*
X124160000Y-44670000D01*
X124160000Y-44830000D02*
X122960000Y-44830000D01*
%TO.C,R1*%
X110627064Y-55265000D02*
X110172936Y-55265000D01*
X110627064Y-56735000D02*
X110172936Y-56735000D01*
%TO.C,R3*%
X103772936Y-61865000D02*
X104227064Y-61865000D01*
X103772936Y-63335000D02*
X104227064Y-63335000D01*
%TO.C,C5*%
X111511252Y-23515000D02*
X110988748Y-23515000D01*
X111511252Y-24985000D02*
X110988748Y-24985000D01*
%TO.C,J8*%
X125620000Y-23290000D02*
X125620000Y-56420000D01*
X128380000Y-20640000D02*
X127000000Y-20640000D01*
X128380000Y-22020000D02*
X128380000Y-20640000D01*
X128380000Y-23290000D02*
X125620000Y-23290000D01*
X128380000Y-23290000D02*
X128380000Y-56420000D01*
X128380000Y-56420000D02*
X125620000Y-56420000D01*
%TO.C,C3*%
X112161252Y-52265000D02*
X111638748Y-52265000D01*
X112161252Y-53735000D02*
X111638748Y-53735000D01*
%TD*%
M02*
