%TF.GenerationSoftware,KiCad,Pcbnew,9.0.4*%
%TF.CreationDate,2026-03-05T01:36:55+00:00*%
%TF.ProjectId,ESP32_Breakout V1,45535033-325f-4427-9265-616b6f757420,rev?*%
%TF.SameCoordinates,Original*%
%TF.FileFunction,Soldermask,Top*%
%TF.FilePolarity,Negative*%
%FSLAX46Y46*%
G04 Gerber Fmt 4.6, Leading zero omitted, Abs format (unit mm)*
G04 Created by KiCad (PCBNEW 9.0.4) date 2026-03-05 01:36:55*
%MOMM*%
%LPD*%
G01*
G04 APERTURE LIST*
G04 Aperture macros list*
%AMRoundRect*
0 Rectangle with rounded corners*
0 $1 Rounding radius*
0 $2 $3 $4 $5 $6 $7 $8 $9 X,Y pos of 4 corners*
0 Add a 4 corners polygon primitive as box body*
4,1,4,$2,$3,$4,$5,$6,$7,$8,$9,$2,$3,0*
0 Add four circle primitives for the rounded corners*
1,1,$1+$1,$2,$3*
1,1,$1+$1,$4,$5*
1,1,$1+$1,$6,$7*
1,1,$1+$1,$8,$9*
0 Add four rect primitives between the rounded corners*
20,1,$1+$1,$2,$3,$4,$5,0*
20,1,$1+$1,$4,$5,$6,$7,0*
20,1,$1+$1,$6,$7,$8,$9,0*
20,1,$1+$1,$8,$9,$2,$3,0*%
G04 Aperture macros list end*
%ADD10RoundRect,0.250000X-0.325000X-0.450000X0.325000X-0.450000X0.325000X0.450000X-0.325000X0.450000X0*%
%ADD11RoundRect,0.250000X-0.550000X1.500000X-0.550000X-1.500000X0.550000X-1.500000X0.550000X1.500000X0*%
%ADD12R,1.700000X1.700000*%
%ADD13C,1.700000*%
%ADD14RoundRect,0.250000X-0.350000X-0.450000X0.350000X-0.450000X0.350000X0.450000X-0.350000X0.450000X0*%
%ADD15R,2.500000X0.900000*%
%ADD16R,0.900000X2.500000*%
%ADD17R,1.000000X1.000000*%
%ADD18RoundRect,0.250000X-0.250000X-0.475000X0.250000X-0.475000X0.250000X0.475000X-0.250000X0.475000X0*%
%ADD19RoundRect,0.250000X0.350000X0.450000X-0.350000X0.450000X-0.350000X-0.450000X0.350000X-0.450000X0*%
%ADD20O,2.000000X2.500000*%
%ADD21R,1.905000X2.000000*%
%ADD22O,1.905000X2.000000*%
G04 APERTURE END LIST*
D10*
%TO.C,D1*%
X115825000Y-20500000D03*
X117875000Y-20500000D03*
%TD*%
D11*
%TO.C,C6*%
X110750000Y-18850000D03*
X110750000Y-24250000D03*
%TD*%
D12*
%TO.C,J3*%
X93960000Y-59750000D03*
D13*
X96500000Y-59750000D03*
X99040000Y-59750000D03*
X101580000Y-59750000D03*
%TD*%
D14*
%TO.C,R4*%
X118000000Y-51250000D03*
X120000000Y-51250000D03*
%TD*%
D15*
%TO.C,IC1*%
X101575000Y-30240000D03*
X101575000Y-31510000D03*
X101575000Y-32780000D03*
X101575000Y-34050000D03*
X101575000Y-35320000D03*
X101575000Y-36590000D03*
X101575000Y-37860000D03*
X101575000Y-39130000D03*
X101575000Y-40400000D03*
X101575000Y-41670000D03*
X101575000Y-42940000D03*
X101575000Y-44210000D03*
X101575000Y-45480000D03*
X101575000Y-46750000D03*
D16*
X104610000Y-48000000D03*
X105880000Y-48000000D03*
X107150000Y-48000000D03*
X108420000Y-48000000D03*
X109690000Y-48000000D03*
X110960000Y-48000000D03*
X112230000Y-48000000D03*
X113500000Y-48000000D03*
X114770000Y-48000000D03*
X116040000Y-48000000D03*
D15*
X119075000Y-46750000D03*
X119075000Y-45480000D03*
X119075000Y-44210000D03*
X119075000Y-42940000D03*
X119075000Y-41670000D03*
X119075000Y-40400000D03*
X119075000Y-39130000D03*
X119075000Y-37860000D03*
X119075000Y-36590000D03*
X119075000Y-35320000D03*
X119075000Y-34050000D03*
X119075000Y-32780000D03*
X119075000Y-31510000D03*
X119075000Y-30240000D03*
D17*
X108825000Y-37580000D03*
X107425000Y-37580000D03*
X110225000Y-37580000D03*
X107425000Y-38980000D03*
X108825000Y-38980000D03*
X110225000Y-38980000D03*
X110225000Y-36180000D03*
X108825000Y-36180000D03*
X107425000Y-36180000D03*
%TD*%
D18*
%TO.C,C2*%
X106100000Y-26750000D03*
X108000000Y-26750000D03*
%TD*%
D11*
%TO.C,C1*%
X103250000Y-19100000D03*
X103250000Y-24500000D03*
%TD*%
D12*
%TO.C,J4*%
X127080000Y-59750000D03*
D13*
X124540000Y-59750000D03*
X122000000Y-59750000D03*
%TD*%
D12*
%TO.C,J2*%
X107960000Y-59750000D03*
D13*
X110500000Y-59750000D03*
X113040000Y-59750000D03*
X115580000Y-59750000D03*
%TD*%
D19*
%TO.C,R2*%
X117850000Y-23050000D03*
X115850000Y-23050000D03*
%TD*%
D20*
%TO.C,SW1*%
X115150000Y-53000000D03*
X108650000Y-53000000D03*
%TD*%
D12*
%TO.C,J6*%
X93980000Y-22000000D03*
D13*
X93980000Y-24540000D03*
X93980000Y-27080000D03*
X93980000Y-29620000D03*
X93980000Y-32160000D03*
X93980000Y-34700000D03*
X93980000Y-37240000D03*
X93980000Y-39780000D03*
X93980000Y-42320000D03*
X93980000Y-44860000D03*
X93980000Y-47400000D03*
X93980000Y-49940000D03*
X93980000Y-52480000D03*
X93980000Y-55020000D03*
%TD*%
D21*
%TO.C,U1*%
X121580000Y-25250000D03*
D22*
X119040000Y-25250000D03*
X116500000Y-25250000D03*
%TD*%
D12*
%TO.C,J8*%
X127000000Y-22020000D03*
D13*
X127000000Y-24560000D03*
X127000000Y-27100000D03*
X127000000Y-29640000D03*
X127000000Y-32180000D03*
X127000000Y-34720000D03*
X127000000Y-37260000D03*
X127000000Y-39800000D03*
X127000000Y-42340000D03*
X127000000Y-44880000D03*
X127000000Y-47420000D03*
X127000000Y-49960000D03*
X127000000Y-52500000D03*
X127000000Y-55040000D03*
%TD*%
M02*
