%TF.GenerationSoftware,KiCad,Pcbnew,9.0.4*%
%TF.CreationDate,2026-03-05T01:36:55+00:00*%
%TF.ProjectId,ESP32_Breakout V1,45535033-325f-4427-9265-616b6f757420,rev?*%
%TF.SameCoordinates,Original*%
%TF.FileFunction,Paste,Top*%
%TF.FilePolarity,Positive*%
%FSLAX46Y46*%
G04 Gerber Fmt 4.6, Leading zero omitted, Abs format (unit mm)*
G04 Created by KiCad (PCBNEW 9.0.4) date 2026-03-05 01:36:55*
%MOMM*%
%LPD*%
G01*
G04 APERTURE LIST*
G04 Aperture macros list*
%AMRoundRect*
0 Rectangle with rounded corners*
0 $1 Rounding radius*
0 $2 $3 $4 $5 $6 $7 $8 $9 X,Y pos of 4 corners*
0 Add a 4 corners polygon primitive as box body*
4,1,4,$2,$3,$4,$5,$6,$7,$8,$9,$2,$3,0*
0 Add four circle primitives for the rounded corners*
1,1,$1+$1,$2,$3*
1,1,$1+$1,$4,$5*
1,1,$1+$1,$6,$7*
1,1,$1+$1,$8,$9*
0 Add four rect primitives between the rounded corners*
20,1,$1+$1,$2,$3,$4,$5,0*
20,1,$1+$1,$4,$5,$6,$7,0*
20,1,$1+$1,$6,$7,$8,$9,0*
20,1,$1+$1,$8,$9,$2,$3,0*%
G04 Aperture macros list end*
%ADD10RoundRect,0.250000X-0.325000X-0.450000X0.325000X-0.450000X0.325000X0.450000X-0.325000X0.450000X0*%
%ADD11RoundRect,0.250000X-0.550000X1.500000X-0.550000X-1.500000X0.550000X-1.500000X0.550000X1.500000X0*%
%ADD12RoundRect,0.250000X-0.350000X-0.450000X0.350000X-0.450000X0.350000X0.450000X-0.350000X0.450000X0*%
%ADD13R,2.500000X0.900000*%
%ADD14R,0.900000X2.500000*%
%ADD15R,1.000000X1.000000*%
%ADD16RoundRect,0.250000X-0.250000X-0.475000X0.250000X-0.475000X0.250000X0.475000X-0.250000X0.475000X0*%
%ADD17RoundRect,0.250000X0.350000X0.450000X-0.350000X0.450000X-0.350000X-0.450000X0.350000X-0.450000X0*%
G04 APERTURE END LIST*
D10*
%TO.C,D1*%
X115825000Y-20500000D03*
X117875000Y-20500000D03*
%TD*%
D11*
%TO.C,C6*%
X110750000Y-18850000D03*
X110750000Y-24250000D03*
%TD*%
D12*
%TO.C,R4*%
X118000000Y-51250000D03*
X120000000Y-51250000D03*
%TD*%
D13*
%TO.C,IC1*%
X101575000Y-30240000D03*
X101575000Y-31510000D03*
X101575000Y-32780000D03*
X101575000Y-34050000D03*
X101575000Y-35320000D03*
X101575000Y-36590000D03*
X101575000Y-37860000D03*
X101575000Y-39130000D03*
X101575000Y-40400000D03*
X101575000Y-41670000D03*
X101575000Y-42940000D03*
X101575000Y-44210000D03*
X101575000Y-45480000D03*
X101575000Y-46750000D03*
D14*
X104610000Y-48000000D03*
X105880000Y-48000000D03*
X107150000Y-48000000D03*
X108420000Y-48000000D03*
X109690000Y-48000000D03*
X110960000Y-48000000D03*
X112230000Y-48000000D03*
X113500000Y-48000000D03*
X114770000Y-48000000D03*
X116040000Y-48000000D03*
D13*
X119075000Y-46750000D03*
X119075000Y-45480000D03*
X119075000Y-44210000D03*
X119075000Y-42940000D03*
X119075000Y-41670000D03*
X119075000Y-40400000D03*
X119075000Y-39130000D03*
X119075000Y-37860000D03*
X119075000Y-36590000D03*
X119075000Y-35320000D03*
X119075000Y-34050000D03*
X119075000Y-32780000D03*
X119075000Y-31510000D03*
X119075000Y-30240000D03*
D15*
X108825000Y-37580000D03*
X107425000Y-37580000D03*
X110225000Y-37580000D03*
X107425000Y-38980000D03*
X108825000Y-38980000D03*
X110225000Y-38980000D03*
X110225000Y-36180000D03*
X108825000Y-36180000D03*
X107425000Y-36180000D03*
%TD*%
D16*
%TO.C,C2*%
X106100000Y-26750000D03*
X108000000Y-26750000D03*
%TD*%
D11*
%TO.C,C1*%
X103250000Y-19100000D03*
X103250000Y-24500000D03*
%TD*%
D17*
%TO.C,R2*%
X117850000Y-23050000D03*
X115850000Y-23050000D03*
%TD*%
M02*
