%TF.GenerationSoftware,KiCad,Pcbnew,9.0.4*%
%TF.CreationDate,2026-03-05T01:36:55+00:00*%
%TF.ProjectId,ESP32_Breakout V1,45535033-325f-4427-9265-616b6f757420,rev?*%
%TF.SameCoordinates,Original*%
%TF.FileFunction,Legend,Top*%
%TF.FilePolarity,Positive*%
%FSLAX46Y46*%
G04 Gerber Fmt 4.6, Leading zero omitted, Abs format (unit mm)*
G04 Created by KiCad (PCBNEW 9.0.4) date 2026-03-05 01:36:55*
%MOMM*%
%LPD*%
G01*
G04 APERTURE LIST*
%ADD10C,0.150000*%
%ADD11C,0.254000*%
%ADD12C,0.100000*%
%ADD13C,0.120000*%
%ADD14C,0.200000*%
G04 APERTURE END LIST*
D10*
X116111905Y-19304819D02*
X116111905Y-18304819D01*
X116111905Y-18304819D02*
X116350000Y-18304819D01*
X116350000Y-18304819D02*
X116492857Y-18352438D01*
X116492857Y-18352438D02*
X116588095Y-18447676D01*
X116588095Y-18447676D02*
X116635714Y-18542914D01*
X116635714Y-18542914D02*
X116683333Y-18733390D01*
X116683333Y-18733390D02*
X116683333Y-18876247D01*
X116683333Y-18876247D02*
X116635714Y-19066723D01*
X116635714Y-19066723D02*
X116588095Y-19161961D01*
X116588095Y-19161961D02*
X116492857Y-19257200D01*
X116492857Y-19257200D02*
X116350000Y-19304819D01*
X116350000Y-19304819D02*
X116111905Y-19304819D01*
X117635714Y-19304819D02*
X117064286Y-19304819D01*
X117350000Y-19304819D02*
X117350000Y-18304819D01*
X117350000Y-18304819D02*
X117254762Y-18447676D01*
X117254762Y-18447676D02*
X117159524Y-18542914D01*
X117159524Y-18542914D02*
X117064286Y-18590533D01*
X115459580Y-21716666D02*
X115507200Y-21764285D01*
X115507200Y-21764285D02*
X115554819Y-21907142D01*
X115554819Y-21907142D02*
X115554819Y-22002380D01*
X115554819Y-22002380D02*
X115507200Y-22145237D01*
X115507200Y-22145237D02*
X115411961Y-22240475D01*
X115411961Y-22240475D02*
X115316723Y-22288094D01*
X115316723Y-22288094D02*
X115126247Y-22335713D01*
X115126247Y-22335713D02*
X114983390Y-22335713D01*
X114983390Y-22335713D02*
X114792914Y-22288094D01*
X114792914Y-22288094D02*
X114697676Y-22240475D01*
X114697676Y-22240475D02*
X114602438Y-22145237D01*
X114602438Y-22145237D02*
X114554819Y-22002380D01*
X114554819Y-22002380D02*
X114554819Y-21907142D01*
X114554819Y-21907142D02*
X114602438Y-21764285D01*
X114602438Y-21764285D02*
X114650057Y-21716666D01*
X114554819Y-20859523D02*
X114554819Y-21049999D01*
X114554819Y-21049999D02*
X114602438Y-21145237D01*
X114602438Y-21145237D02*
X114650057Y-21192856D01*
X114650057Y-21192856D02*
X114792914Y-21288094D01*
X114792914Y-21288094D02*
X114983390Y-21335713D01*
X114983390Y-21335713D02*
X115364342Y-21335713D01*
X115364342Y-21335713D02*
X115459580Y-21288094D01*
X115459580Y-21288094D02*
X115507200Y-21240475D01*
X115507200Y-21240475D02*
X115554819Y-21145237D01*
X115554819Y-21145237D02*
X115554819Y-20954761D01*
X115554819Y-20954761D02*
X115507200Y-20859523D01*
X115507200Y-20859523D02*
X115459580Y-20811904D01*
X115459580Y-20811904D02*
X115364342Y-20764285D01*
X115364342Y-20764285D02*
X115126247Y-20764285D01*
X115126247Y-20764285D02*
X115031009Y-20811904D01*
X115031009Y-20811904D02*
X114983390Y-20859523D01*
X114983390Y-20859523D02*
X114935771Y-20954761D01*
X114935771Y-20954761D02*
X114935771Y-21145237D01*
X114935771Y-21145237D02*
X114983390Y-21240475D01*
X114983390Y-21240475D02*
X115031009Y-21288094D01*
X115031009Y-21288094D02*
X115126247Y-21335713D01*
X103704819Y-60083333D02*
X104419104Y-60083333D01*
X104419104Y-60083333D02*
X104561961Y-60130952D01*
X104561961Y-60130952D02*
X104657200Y-60226190D01*
X104657200Y-60226190D02*
X104704819Y-60369047D01*
X104704819Y-60369047D02*
X104704819Y-60464285D01*
X103704819Y-59702380D02*
X103704819Y-59083333D01*
X103704819Y-59083333D02*
X104085771Y-59416666D01*
X104085771Y-59416666D02*
X104085771Y-59273809D01*
X104085771Y-59273809D02*
X104133390Y-59178571D01*
X104133390Y-59178571D02*
X104181009Y-59130952D01*
X104181009Y-59130952D02*
X104276247Y-59083333D01*
X104276247Y-59083333D02*
X104514342Y-59083333D01*
X104514342Y-59083333D02*
X104609580Y-59130952D01*
X104609580Y-59130952D02*
X104657200Y-59178571D01*
X104657200Y-59178571D02*
X104704819Y-59273809D01*
X104704819Y-59273809D02*
X104704819Y-59559523D01*
X104704819Y-59559523D02*
X104657200Y-59654761D01*
X104657200Y-59654761D02*
X104609580Y-59702380D01*
X118833333Y-50054819D02*
X118500000Y-49578628D01*
X118261905Y-50054819D02*
X118261905Y-49054819D01*
X118261905Y-49054819D02*
X118642857Y-49054819D01*
X118642857Y-49054819D02*
X118738095Y-49102438D01*
X118738095Y-49102438D02*
X118785714Y-49150057D01*
X118785714Y-49150057D02*
X118833333Y-49245295D01*
X118833333Y-49245295D02*
X118833333Y-49388152D01*
X118833333Y-49388152D02*
X118785714Y-49483390D01*
X118785714Y-49483390D02*
X118738095Y-49531009D01*
X118738095Y-49531009D02*
X118642857Y-49578628D01*
X118642857Y-49578628D02*
X118261905Y-49578628D01*
X119690476Y-49388152D02*
X119690476Y-50054819D01*
X119452381Y-49007200D02*
X119214286Y-49721485D01*
X119214286Y-49721485D02*
X119833333Y-49721485D01*
D11*
X109085237Y-32024318D02*
X109085237Y-30754318D01*
X110415714Y-31903365D02*
X110355238Y-31963842D01*
X110355238Y-31963842D02*
X110173809Y-32024318D01*
X110173809Y-32024318D02*
X110052857Y-32024318D01*
X110052857Y-32024318D02*
X109871428Y-31963842D01*
X109871428Y-31963842D02*
X109750476Y-31842889D01*
X109750476Y-31842889D02*
X109689999Y-31721937D01*
X109689999Y-31721937D02*
X109629523Y-31480032D01*
X109629523Y-31480032D02*
X109629523Y-31298603D01*
X109629523Y-31298603D02*
X109689999Y-31056699D01*
X109689999Y-31056699D02*
X109750476Y-30935746D01*
X109750476Y-30935746D02*
X109871428Y-30814794D01*
X109871428Y-30814794D02*
X110052857Y-30754318D01*
X110052857Y-30754318D02*
X110173809Y-30754318D01*
X110173809Y-30754318D02*
X110355238Y-30814794D01*
X110355238Y-30814794D02*
X110415714Y-30875270D01*
X111625238Y-32024318D02*
X110899523Y-32024318D01*
X111262380Y-32024318D02*
X111262380Y-30754318D01*
X111262380Y-30754318D02*
X111141428Y-30935746D01*
X111141428Y-30935746D02*
X111020476Y-31056699D01*
X111020476Y-31056699D02*
X110899523Y-31117175D01*
D10*
X106883333Y-25429580D02*
X106835714Y-25477200D01*
X106835714Y-25477200D02*
X106692857Y-25524819D01*
X106692857Y-25524819D02*
X106597619Y-25524819D01*
X106597619Y-25524819D02*
X106454762Y-25477200D01*
X106454762Y-25477200D02*
X106359524Y-25381961D01*
X106359524Y-25381961D02*
X106311905Y-25286723D01*
X106311905Y-25286723D02*
X106264286Y-25096247D01*
X106264286Y-25096247D02*
X106264286Y-24953390D01*
X106264286Y-24953390D02*
X106311905Y-24762914D01*
X106311905Y-24762914D02*
X106359524Y-24667676D01*
X106359524Y-24667676D02*
X106454762Y-24572438D01*
X106454762Y-24572438D02*
X106597619Y-24524819D01*
X106597619Y-24524819D02*
X106692857Y-24524819D01*
X106692857Y-24524819D02*
X106835714Y-24572438D01*
X106835714Y-24572438D02*
X106883333Y-24620057D01*
X107264286Y-24620057D02*
X107311905Y-24572438D01*
X107311905Y-24572438D02*
X107407143Y-24524819D01*
X107407143Y-24524819D02*
X107645238Y-24524819D01*
X107645238Y-24524819D02*
X107740476Y-24572438D01*
X107740476Y-24572438D02*
X107788095Y-24620057D01*
X107788095Y-24620057D02*
X107835714Y-24715295D01*
X107835714Y-24715295D02*
X107835714Y-24810533D01*
X107835714Y-24810533D02*
X107788095Y-24953390D01*
X107788095Y-24953390D02*
X107216667Y-25524819D01*
X107216667Y-25524819D02*
X107835714Y-25524819D01*
X107959580Y-21966666D02*
X108007200Y-22014285D01*
X108007200Y-22014285D02*
X108054819Y-22157142D01*
X108054819Y-22157142D02*
X108054819Y-22252380D01*
X108054819Y-22252380D02*
X108007200Y-22395237D01*
X108007200Y-22395237D02*
X107911961Y-22490475D01*
X107911961Y-22490475D02*
X107816723Y-22538094D01*
X107816723Y-22538094D02*
X107626247Y-22585713D01*
X107626247Y-22585713D02*
X107483390Y-22585713D01*
X107483390Y-22585713D02*
X107292914Y-22538094D01*
X107292914Y-22538094D02*
X107197676Y-22490475D01*
X107197676Y-22490475D02*
X107102438Y-22395237D01*
X107102438Y-22395237D02*
X107054819Y-22252380D01*
X107054819Y-22252380D02*
X107054819Y-22157142D01*
X107054819Y-22157142D02*
X107102438Y-22014285D01*
X107102438Y-22014285D02*
X107150057Y-21966666D01*
X108054819Y-21014285D02*
X108054819Y-21585713D01*
X108054819Y-21299999D02*
X107054819Y-21299999D01*
X107054819Y-21299999D02*
X107197676Y-21395237D01*
X107197676Y-21395237D02*
X107292914Y-21490475D01*
X107292914Y-21490475D02*
X107340533Y-21585713D01*
X118954819Y-60083333D02*
X119669104Y-60083333D01*
X119669104Y-60083333D02*
X119811961Y-60130952D01*
X119811961Y-60130952D02*
X119907200Y-60226190D01*
X119907200Y-60226190D02*
X119954819Y-60369047D01*
X119954819Y-60369047D02*
X119954819Y-60464285D01*
X119288152Y-59178571D02*
X119954819Y-59178571D01*
X118907200Y-59416666D02*
X119621485Y-59654761D01*
X119621485Y-59654761D02*
X119621485Y-59035714D01*
X105034819Y-60083333D02*
X105749104Y-60083333D01*
X105749104Y-60083333D02*
X105891961Y-60130952D01*
X105891961Y-60130952D02*
X105987200Y-60226190D01*
X105987200Y-60226190D02*
X106034819Y-60369047D01*
X106034819Y-60369047D02*
X106034819Y-60464285D01*
X105130057Y-59654761D02*
X105082438Y-59607142D01*
X105082438Y-59607142D02*
X105034819Y-59511904D01*
X105034819Y-59511904D02*
X105034819Y-59273809D01*
X105034819Y-59273809D02*
X105082438Y-59178571D01*
X105082438Y-59178571D02*
X105130057Y-59130952D01*
X105130057Y-59130952D02*
X105225295Y-59083333D01*
X105225295Y-59083333D02*
X105320533Y-59083333D01*
X105320533Y-59083333D02*
X105463390Y-59130952D01*
X105463390Y-59130952D02*
X106034819Y-59702380D01*
X106034819Y-59702380D02*
X106034819Y-59083333D01*
X116683333Y-25154819D02*
X116350000Y-24678628D01*
X116111905Y-25154819D02*
X116111905Y-24154819D01*
X116111905Y-24154819D02*
X116492857Y-24154819D01*
X116492857Y-24154819D02*
X116588095Y-24202438D01*
X116588095Y-24202438D02*
X116635714Y-24250057D01*
X116635714Y-24250057D02*
X116683333Y-24345295D01*
X116683333Y-24345295D02*
X116683333Y-24488152D01*
X116683333Y-24488152D02*
X116635714Y-24583390D01*
X116635714Y-24583390D02*
X116588095Y-24631009D01*
X116588095Y-24631009D02*
X116492857Y-24678628D01*
X116492857Y-24678628D02*
X116111905Y-24678628D01*
X117064286Y-24250057D02*
X117111905Y-24202438D01*
X117111905Y-24202438D02*
X117207143Y-24154819D01*
X117207143Y-24154819D02*
X117445238Y-24154819D01*
X117445238Y-24154819D02*
X117540476Y-24202438D01*
X117540476Y-24202438D02*
X117588095Y-24250057D01*
X117588095Y-24250057D02*
X117635714Y-24345295D01*
X117635714Y-24345295D02*
X117635714Y-24440533D01*
X117635714Y-24440533D02*
X117588095Y-24583390D01*
X117588095Y-24583390D02*
X117016667Y-25154819D01*
X117016667Y-25154819D02*
X117635714Y-25154819D01*
D12*
X113253332Y-52570200D02*
X113110475Y-52522580D01*
X113110475Y-52522580D02*
X112872380Y-52522580D01*
X112872380Y-52522580D02*
X112777142Y-52570200D01*
X112777142Y-52570200D02*
X112729523Y-52617819D01*
X112729523Y-52617819D02*
X112681904Y-52713057D01*
X112681904Y-52713057D02*
X112681904Y-52808295D01*
X112681904Y-52808295D02*
X112729523Y-52903533D01*
X112729523Y-52903533D02*
X112777142Y-52951152D01*
X112777142Y-52951152D02*
X112872380Y-52998771D01*
X112872380Y-52998771D02*
X113062856Y-53046390D01*
X113062856Y-53046390D02*
X113158094Y-53094009D01*
X113158094Y-53094009D02*
X113205713Y-53141628D01*
X113205713Y-53141628D02*
X113253332Y-53236866D01*
X113253332Y-53236866D02*
X113253332Y-53332104D01*
X113253332Y-53332104D02*
X113205713Y-53427342D01*
X113205713Y-53427342D02*
X113158094Y-53474961D01*
X113158094Y-53474961D02*
X113062856Y-53522580D01*
X113062856Y-53522580D02*
X112824761Y-53522580D01*
X112824761Y-53522580D02*
X112681904Y-53474961D01*
X112348570Y-53522580D02*
X112110475Y-52522580D01*
X112110475Y-52522580D02*
X111919999Y-53236866D01*
X111919999Y-53236866D02*
X111729523Y-52522580D01*
X111729523Y-52522580D02*
X111491428Y-53522580D01*
X110586666Y-52522580D02*
X111158094Y-52522580D01*
X110872380Y-52522580D02*
X110872380Y-53522580D01*
X110872380Y-53522580D02*
X110967618Y-53379723D01*
X110967618Y-53379723D02*
X111062856Y-53284485D01*
X111062856Y-53284485D02*
X111158094Y-53236866D01*
D13*
%TO.C,D1*%
X114990000Y-19540000D02*
X114990000Y-21460000D01*
X114990000Y-21460000D02*
X117850000Y-21460000D01*
X117850000Y-19540000D02*
X114990000Y-19540000D01*
%TO.C,C6*%
X107340000Y-19204437D02*
X107340000Y-24960000D01*
X107340000Y-24960000D02*
X109690000Y-24960000D01*
X108404437Y-18140000D02*
X107340000Y-19204437D01*
X108404437Y-18140000D02*
X109690000Y-18140000D01*
X112597500Y-17112500D02*
X112597500Y-17900000D01*
X112991250Y-17506250D02*
X112203750Y-17506250D01*
X113095563Y-18140000D02*
X111810000Y-18140000D01*
X113095563Y-18140000D02*
X114160000Y-19204437D01*
X114160000Y-19204437D02*
X114160000Y-24960000D01*
X114160000Y-24960000D02*
X111810000Y-24960000D01*
%TO.C,J3*%
X92580000Y-61130000D02*
X92580000Y-59750000D01*
X93960000Y-61130000D02*
X92580000Y-61130000D01*
X95230000Y-58370000D02*
X102960000Y-58370000D01*
X95230000Y-61130000D02*
X95230000Y-58370000D01*
X95230000Y-61130000D02*
X102960000Y-61130000D01*
X102960000Y-61130000D02*
X102960000Y-58370000D01*
%TO.C,R4*%
X118772936Y-50515000D02*
X119227064Y-50515000D01*
X118772936Y-51985000D02*
X119227064Y-51985000D01*
D12*
%TO.C,IC1*%
X100225000Y-30240000D02*
X100225000Y-30240000D01*
X100325000Y-30240000D02*
X100325000Y-30240000D01*
D14*
X101325000Y-29050000D02*
X101325000Y-29450000D01*
X101325000Y-47450000D02*
X101325000Y-48250000D01*
X101325000Y-48250000D02*
X103925000Y-48250000D01*
X119325000Y-29050000D02*
X101325000Y-29050000D01*
X119325000Y-29450000D02*
X119325000Y-29050000D01*
X119325000Y-47450000D02*
X119325000Y-48250000D01*
X119325000Y-48250000D02*
X116725000Y-48250000D01*
D12*
X100225000Y-30240000D02*
G75*
G02*
X100325000Y-30240000I50000J0D01*
G01*
X100325000Y-30240000D02*
G75*
G02*
X100225000Y-30240000I-50000J0D01*
G01*
D13*
%TO.C,C2*%
X106788748Y-26015000D02*
X107311252Y-26015000D01*
X106788748Y-27485000D02*
X107311252Y-27485000D01*
%TO.C,C1*%
X99840000Y-19454437D02*
X99840000Y-25210000D01*
X99840000Y-25210000D02*
X102190000Y-25210000D01*
X100904437Y-18390000D02*
X99840000Y-19454437D01*
X100904437Y-18390000D02*
X102190000Y-18390000D01*
X105097500Y-17362500D02*
X105097500Y-18150000D01*
X105491250Y-17756250D02*
X104703750Y-17756250D01*
X105595563Y-18390000D02*
X104310000Y-18390000D01*
X105595563Y-18390000D02*
X106660000Y-19454437D01*
X106660000Y-19454437D02*
X106660000Y-25210000D01*
X106660000Y-25210000D02*
X104310000Y-25210000D01*
%TO.C,J4*%
X120620000Y-58370000D02*
X120620000Y-61130000D01*
X125810000Y-58370000D02*
X120620000Y-58370000D01*
X125810000Y-58370000D02*
X125810000Y-61130000D01*
X125810000Y-61130000D02*
X120620000Y-61130000D01*
X127080000Y-58370000D02*
X128460000Y-58370000D01*
X128460000Y-58370000D02*
X128460000Y-59750000D01*
%TO.C,J2*%
X106580000Y-61130000D02*
X106580000Y-59750000D01*
X107960000Y-61130000D02*
X106580000Y-61130000D01*
X109230000Y-58370000D02*
X116960000Y-58370000D01*
X109230000Y-61130000D02*
X109230000Y-58370000D01*
X109230000Y-61130000D02*
X116960000Y-61130000D01*
X116960000Y-61130000D02*
X116960000Y-58370000D01*
%TO.C,R2*%
X117077064Y-22315000D02*
X116622936Y-22315000D01*
X117077064Y-23785000D02*
X116622936Y-23785000D01*
%TD*%
M02*
