%TF.GenerationSoftware,KiCad,Pcbnew,9.0.4*%
%TF.CreationDate,2026-02-17T13:46:37+00:00*%
%TF.ProjectId,LiDar Baseboard (Angle Measurement) V1,4c694461-7220-4426-9173-65626f617264,rev?*%
%TF.SameCoordinates,Original*%
%TF.FileFunction,Legend,Bot*%
%TF.FilePolarity,Positive*%
%FSLAX46Y46*%
G04 Gerber Fmt 4.6, Leading zero omitted, Abs format (unit mm)*
G04 Created by KiCad (PCBNEW 9.0.4) date 2026-02-17 13:46:37*
%MOMM*%
%LPD*%
G01*
G04 APERTURE LIST*
%ADD10C,0.150000*%
%ADD11C,0.120000*%
G04 APERTURE END LIST*
D10*
X48039580Y-46833333D02*
X48087200Y-46785714D01*
X48087200Y-46785714D02*
X48134819Y-46642857D01*
X48134819Y-46642857D02*
X48134819Y-46547619D01*
X48134819Y-46547619D02*
X48087200Y-46404762D01*
X48087200Y-46404762D02*
X47991961Y-46309524D01*
X47991961Y-46309524D02*
X47896723Y-46261905D01*
X47896723Y-46261905D02*
X47706247Y-46214286D01*
X47706247Y-46214286D02*
X47563390Y-46214286D01*
X47563390Y-46214286D02*
X47372914Y-46261905D01*
X47372914Y-46261905D02*
X47277676Y-46309524D01*
X47277676Y-46309524D02*
X47182438Y-46404762D01*
X47182438Y-46404762D02*
X47134819Y-46547619D01*
X47134819Y-46547619D02*
X47134819Y-46642857D01*
X47134819Y-46642857D02*
X47182438Y-46785714D01*
X47182438Y-46785714D02*
X47230057Y-46833333D01*
X47134819Y-47166667D02*
X47134819Y-47785714D01*
X47134819Y-47785714D02*
X47515771Y-47452381D01*
X47515771Y-47452381D02*
X47515771Y-47595238D01*
X47515771Y-47595238D02*
X47563390Y-47690476D01*
X47563390Y-47690476D02*
X47611009Y-47738095D01*
X47611009Y-47738095D02*
X47706247Y-47785714D01*
X47706247Y-47785714D02*
X47944342Y-47785714D01*
X47944342Y-47785714D02*
X48039580Y-47738095D01*
X48039580Y-47738095D02*
X48087200Y-47690476D01*
X48087200Y-47690476D02*
X48134819Y-47595238D01*
X48134819Y-47595238D02*
X48134819Y-47309524D01*
X48134819Y-47309524D02*
X48087200Y-47214286D01*
X48087200Y-47214286D02*
X48039580Y-47166667D01*
X34024819Y-49829933D02*
X33548628Y-49496600D01*
X34024819Y-49258505D02*
X33024819Y-49258505D01*
X33024819Y-49258505D02*
X33024819Y-49639457D01*
X33024819Y-49639457D02*
X33072438Y-49734695D01*
X33072438Y-49734695D02*
X33120057Y-49782314D01*
X33120057Y-49782314D02*
X33215295Y-49829933D01*
X33215295Y-49829933D02*
X33358152Y-49829933D01*
X33358152Y-49829933D02*
X33453390Y-49782314D01*
X33453390Y-49782314D02*
X33501009Y-49734695D01*
X33501009Y-49734695D02*
X33548628Y-49639457D01*
X33548628Y-49639457D02*
X33548628Y-49258505D01*
X33120057Y-50210886D02*
X33072438Y-50258505D01*
X33072438Y-50258505D02*
X33024819Y-50353743D01*
X33024819Y-50353743D02*
X33024819Y-50591838D01*
X33024819Y-50591838D02*
X33072438Y-50687076D01*
X33072438Y-50687076D02*
X33120057Y-50734695D01*
X33120057Y-50734695D02*
X33215295Y-50782314D01*
X33215295Y-50782314D02*
X33310533Y-50782314D01*
X33310533Y-50782314D02*
X33453390Y-50734695D01*
X33453390Y-50734695D02*
X34024819Y-50163267D01*
X34024819Y-50163267D02*
X34024819Y-50782314D01*
X53673333Y-37714819D02*
X53673333Y-38429104D01*
X53673333Y-38429104D02*
X53720952Y-38571961D01*
X53720952Y-38571961D02*
X53816190Y-38667200D01*
X53816190Y-38667200D02*
X53959047Y-38714819D01*
X53959047Y-38714819D02*
X54054285Y-38714819D01*
X52673333Y-38714819D02*
X53244761Y-38714819D01*
X52959047Y-38714819D02*
X52959047Y-37714819D01*
X52959047Y-37714819D02*
X53054285Y-37857676D01*
X53054285Y-37857676D02*
X53149523Y-37952914D01*
X53149523Y-37952914D02*
X53244761Y-38000533D01*
X36166666Y-55539580D02*
X36214285Y-55587200D01*
X36214285Y-55587200D02*
X36357142Y-55634819D01*
X36357142Y-55634819D02*
X36452380Y-55634819D01*
X36452380Y-55634819D02*
X36595237Y-55587200D01*
X36595237Y-55587200D02*
X36690475Y-55491961D01*
X36690475Y-55491961D02*
X36738094Y-55396723D01*
X36738094Y-55396723D02*
X36785713Y-55206247D01*
X36785713Y-55206247D02*
X36785713Y-55063390D01*
X36785713Y-55063390D02*
X36738094Y-54872914D01*
X36738094Y-54872914D02*
X36690475Y-54777676D01*
X36690475Y-54777676D02*
X36595237Y-54682438D01*
X36595237Y-54682438D02*
X36452380Y-54634819D01*
X36452380Y-54634819D02*
X36357142Y-54634819D01*
X36357142Y-54634819D02*
X36214285Y-54682438D01*
X36214285Y-54682438D02*
X36166666Y-54730057D01*
X35785713Y-54730057D02*
X35738094Y-54682438D01*
X35738094Y-54682438D02*
X35642856Y-54634819D01*
X35642856Y-54634819D02*
X35404761Y-54634819D01*
X35404761Y-54634819D02*
X35309523Y-54682438D01*
X35309523Y-54682438D02*
X35261904Y-54730057D01*
X35261904Y-54730057D02*
X35214285Y-54825295D01*
X35214285Y-54825295D02*
X35214285Y-54920533D01*
X35214285Y-54920533D02*
X35261904Y-55063390D01*
X35261904Y-55063390D02*
X35833332Y-55634819D01*
X35833332Y-55634819D02*
X35214285Y-55634819D01*
X39834819Y-49829933D02*
X39358628Y-49496600D01*
X39834819Y-49258505D02*
X38834819Y-49258505D01*
X38834819Y-49258505D02*
X38834819Y-49639457D01*
X38834819Y-49639457D02*
X38882438Y-49734695D01*
X38882438Y-49734695D02*
X38930057Y-49782314D01*
X38930057Y-49782314D02*
X39025295Y-49829933D01*
X39025295Y-49829933D02*
X39168152Y-49829933D01*
X39168152Y-49829933D02*
X39263390Y-49782314D01*
X39263390Y-49782314D02*
X39311009Y-49734695D01*
X39311009Y-49734695D02*
X39358628Y-49639457D01*
X39358628Y-49639457D02*
X39358628Y-49258505D01*
X39834819Y-50782314D02*
X39834819Y-50210886D01*
X39834819Y-50496600D02*
X38834819Y-50496600D01*
X38834819Y-50496600D02*
X38977676Y-50401362D01*
X38977676Y-50401362D02*
X39072914Y-50306124D01*
X39072914Y-50306124D02*
X39120533Y-50210886D01*
X58753333Y-42794819D02*
X58753333Y-43509104D01*
X58753333Y-43509104D02*
X58800952Y-43651961D01*
X58800952Y-43651961D02*
X58896190Y-43747200D01*
X58896190Y-43747200D02*
X59039047Y-43794819D01*
X59039047Y-43794819D02*
X59134285Y-43794819D01*
X58324761Y-42890057D02*
X58277142Y-42842438D01*
X58277142Y-42842438D02*
X58181904Y-42794819D01*
X58181904Y-42794819D02*
X57943809Y-42794819D01*
X57943809Y-42794819D02*
X57848571Y-42842438D01*
X57848571Y-42842438D02*
X57800952Y-42890057D01*
X57800952Y-42890057D02*
X57753333Y-42985295D01*
X57753333Y-42985295D02*
X57753333Y-43080533D01*
X57753333Y-43080533D02*
X57800952Y-43223390D01*
X57800952Y-43223390D02*
X58372380Y-43794819D01*
X58372380Y-43794819D02*
X57753333Y-43794819D01*
X39024819Y-49823333D02*
X38548628Y-49490000D01*
X39024819Y-49251905D02*
X38024819Y-49251905D01*
X38024819Y-49251905D02*
X38024819Y-49632857D01*
X38024819Y-49632857D02*
X38072438Y-49728095D01*
X38072438Y-49728095D02*
X38120057Y-49775714D01*
X38120057Y-49775714D02*
X38215295Y-49823333D01*
X38215295Y-49823333D02*
X38358152Y-49823333D01*
X38358152Y-49823333D02*
X38453390Y-49775714D01*
X38453390Y-49775714D02*
X38501009Y-49728095D01*
X38501009Y-49728095D02*
X38548628Y-49632857D01*
X38548628Y-49632857D02*
X38548628Y-49251905D01*
X38024819Y-50156667D02*
X38024819Y-50775714D01*
X38024819Y-50775714D02*
X38405771Y-50442381D01*
X38405771Y-50442381D02*
X38405771Y-50585238D01*
X38405771Y-50585238D02*
X38453390Y-50680476D01*
X38453390Y-50680476D02*
X38501009Y-50728095D01*
X38501009Y-50728095D02*
X38596247Y-50775714D01*
X38596247Y-50775714D02*
X38834342Y-50775714D01*
X38834342Y-50775714D02*
X38929580Y-50728095D01*
X38929580Y-50728095D02*
X38977200Y-50680476D01*
X38977200Y-50680476D02*
X39024819Y-50585238D01*
X39024819Y-50585238D02*
X39024819Y-50299524D01*
X39024819Y-50299524D02*
X38977200Y-50204286D01*
X38977200Y-50204286D02*
X38929580Y-50156667D01*
D11*
%TO.C,C3*%
X45265000Y-47261252D02*
X45265000Y-46738748D01*
X46735000Y-47261252D02*
X46735000Y-46738748D01*
%TO.C,R2*%
X34485000Y-49769536D02*
X34485000Y-50223664D01*
X35955000Y-49769536D02*
X35955000Y-50223664D01*
%TO.C,J1*%
X51960000Y-41910000D02*
X51960000Y-57260000D01*
X54720000Y-39260000D02*
X53340000Y-39260000D01*
X54720000Y-40640000D02*
X54720000Y-39260000D01*
X54720000Y-41910000D02*
X51960000Y-41910000D01*
X54720000Y-41910000D02*
X54720000Y-57260000D01*
X54720000Y-57260000D02*
X51960000Y-57260000D01*
%TO.C,C2*%
X35738748Y-52765000D02*
X36261252Y-52765000D01*
X35738748Y-54235000D02*
X36261252Y-54235000D01*
%TO.C,R1*%
X36995000Y-50223664D02*
X36995000Y-49769536D01*
X38465000Y-50223664D02*
X38465000Y-49769536D01*
%TO.C,J2*%
X57040000Y-46990000D02*
X57040000Y-57260000D01*
X59800000Y-44340000D02*
X58420000Y-44340000D01*
X59800000Y-45720000D02*
X59800000Y-44340000D01*
X59800000Y-46990000D02*
X57040000Y-46990000D01*
X59800000Y-46990000D02*
X59800000Y-57260000D01*
X59800000Y-57260000D02*
X57040000Y-57260000D01*
%TO.C,R3*%
X39485000Y-49762936D02*
X39485000Y-50217064D01*
X40955000Y-49762936D02*
X40955000Y-50217064D01*
%TD*%
M02*
