%TF.GenerationSoftware,KiCad,Pcbnew,9.0.4*%
%TF.CreationDate,2026-02-17T13:46:36+00:00*%
%TF.ProjectId,LiDar Baseboard (Angle Measurement) V1,4c694461-7220-4426-9173-65626f617264,rev?*%
%TF.SameCoordinates,Original*%
%TF.FileFunction,Copper,L2,Bot*%
%TF.FilePolarity,Positive*%
%FSLAX46Y46*%
G04 Gerber Fmt 4.6, Leading zero omitted, Abs format (unit mm)*
G04 Created by KiCad (PCBNEW 9.0.4) date 2026-02-17 13:46:36*
%MOMM*%
%LPD*%
G01*
G04 APERTURE LIST*
G04 Aperture macros list*
%AMRoundRect*
0 Rectangle with rounded corners*
0 $1 Rounding radius*
0 $2 $3 $4 $5 $6 $7 $8 $9 X,Y pos of 4 corners*
0 Add a 4 corners polygon primitive as box body*
4,1,4,$2,$3,$4,$5,$6,$7,$8,$9,$2,$3,0*
0 Add four circle primitives for the rounded corners*
1,1,$1+$1,$2,$3*
1,1,$1+$1,$4,$5*
1,1,$1+$1,$6,$7*
1,1,$1+$1,$8,$9*
0 Add four rect primitives between the rounded corners*
20,1,$1+$1,$2,$3,$4,$5,0*
20,1,$1+$1,$4,$5,$6,$7,0*
20,1,$1+$1,$6,$7,$8,$9,0*
20,1,$1+$1,$8,$9,$2,$3,0*%
G04 Aperture macros list end*
%ADD10C,0.300000*%
%TA.AperFunction,ComponentPad*%
%ADD11C,3.600000*%
%TD*%
%TA.AperFunction,ConnectorPad*%
%ADD12C,5.600000*%
%TD*%
%TA.AperFunction,ComponentPad*%
%ADD13R,2.000000X2.000000*%
%TD*%
%TA.AperFunction,ComponentPad*%
%ADD14C,2.000000*%
%TD*%
%TA.AperFunction,SMDPad,CuDef*%
%ADD15RoundRect,0.250000X0.475000X-0.337500X0.475000X0.337500X-0.475000X0.337500X-0.475000X-0.337500X0*%
%TD*%
%TA.AperFunction,SMDPad,CuDef*%
%ADD16RoundRect,0.250000X-0.450000X0.350000X-0.450000X-0.350000X0.450000X-0.350000X0.450000X0.350000X0*%
%TD*%
%TA.AperFunction,ComponentPad*%
%ADD17R,1.700000X1.700000*%
%TD*%
%TA.AperFunction,ComponentPad*%
%ADD18C,1.700000*%
%TD*%
%TA.AperFunction,SMDPad,CuDef*%
%ADD19RoundRect,0.250000X-0.337500X-0.475000X0.337500X-0.475000X0.337500X0.475000X-0.337500X0.475000X0*%
%TD*%
%TA.AperFunction,SMDPad,CuDef*%
%ADD20RoundRect,0.250000X0.450000X-0.350000X0.450000X0.350000X-0.450000X0.350000X-0.450000X-0.350000X0*%
%TD*%
%TA.AperFunction,ViaPad*%
%ADD21C,2.000000*%
%TD*%
%TA.AperFunction,Conductor*%
%ADD22C,0.600000*%
%TD*%
G04 APERTURE END LIST*
D10*
G36*
X41635713Y-67722257D02*
G01*
X41095770Y-67722257D01*
X40723883Y-67598295D01*
X40480419Y-67354831D01*
X40355811Y-67105616D01*
X40221427Y-66568078D01*
X40221427Y-66176435D01*
X40355811Y-65638897D01*
X40480418Y-65389682D01*
X40723883Y-65146218D01*
X41095770Y-65022257D01*
X41635713Y-65022257D01*
X41635713Y-67722257D01*
G37*
G36*
X36434742Y-66865114D02*
G01*
X35422398Y-66865114D01*
X35928570Y-65346598D01*
X36434742Y-66865114D01*
G37*
G36*
X44291885Y-66865114D02*
G01*
X43279541Y-66865114D01*
X43785713Y-65346598D01*
X44291885Y-66865114D01*
G37*
G36*
X46863314Y-66865114D02*
G01*
X45850970Y-66865114D01*
X46357142Y-65346598D01*
X46863314Y-66865114D01*
G37*
G36*
X50411904Y-68355590D02*
G01*
X27445237Y-68355590D01*
X27445237Y-64872099D01*
X27778570Y-64872099D01*
X27781452Y-64886667D01*
X27781452Y-64901521D01*
X27787076Y-64915099D01*
X27789928Y-64929514D01*
X27803762Y-64955462D01*
X29648292Y-67722257D01*
X27928570Y-67722257D01*
X27899306Y-67725139D01*
X27845234Y-67747537D01*
X27803850Y-67788921D01*
X27781452Y-67842993D01*
X27781452Y-67901521D01*
X27803850Y-67955593D01*
X27845234Y-67996977D01*
X27899306Y-68019375D01*
X27928570Y-68022257D01*
X29928412Y-68022257D01*
X29928570Y-68022257D01*
X29957834Y-68019375D01*
X29971412Y-68013750D01*
X29985827Y-68010899D01*
X29998184Y-68002660D01*
X30011906Y-67996977D01*
X30022297Y-67986585D01*
X30034525Y-67978434D01*
X30042788Y-67966094D01*
X30053290Y-67955593D01*
X30058914Y-67942015D01*
X30067092Y-67929804D01*
X30070004Y-67915242D01*
X30075688Y-67901521D01*
X30075688Y-67886824D01*
X30078570Y-67872414D01*
X30075688Y-67857845D01*
X30075688Y-67842993D01*
X30070063Y-67829415D01*
X30067212Y-67815000D01*
X30053377Y-67789052D01*
X28208848Y-65022257D01*
X29928570Y-65022257D01*
X29957834Y-65019375D01*
X30011906Y-64996977D01*
X30053290Y-64955593D01*
X30075688Y-64901521D01*
X30075688Y-64872257D01*
X30921427Y-64872257D01*
X30921427Y-67872257D01*
X30924309Y-67901521D01*
X30946707Y-67955593D01*
X30988091Y-67996977D01*
X31042163Y-68019375D01*
X31100691Y-68019375D01*
X31154763Y-67996977D01*
X31196147Y-67955593D01*
X31218545Y-67901521D01*
X31221427Y-67872257D01*
X31221427Y-64872257D01*
X31221411Y-64872099D01*
X32064284Y-64872099D01*
X32067166Y-64886667D01*
X32067166Y-64901521D01*
X32072790Y-64915099D01*
X32075642Y-64929514D01*
X32089476Y-64955462D01*
X33934006Y-67722257D01*
X32214284Y-67722257D01*
X32185020Y-67725139D01*
X32130948Y-67747537D01*
X32089564Y-67788921D01*
X32067166Y-67842993D01*
X32067166Y-67901521D01*
X32089564Y-67955593D01*
X32130948Y-67996977D01*
X32185020Y-68019375D01*
X32214284Y-68022257D01*
X34214126Y-68022257D01*
X34214284Y-68022257D01*
X34243548Y-68019375D01*
X34257126Y-68013750D01*
X34271541Y-68010899D01*
X34283898Y-68002660D01*
X34297620Y-67996977D01*
X34308011Y-67986585D01*
X34320239Y-67978434D01*
X34328502Y-67966094D01*
X34339004Y-67955593D01*
X34344628Y-67942015D01*
X34352806Y-67929804D01*
X34355718Y-67915242D01*
X34361402Y-67901521D01*
X34361402Y-67886824D01*
X34364284Y-67872414D01*
X34361402Y-67857845D01*
X34361402Y-67853496D01*
X34779748Y-67853496D01*
X34783897Y-67911877D01*
X34810071Y-67964224D01*
X34854285Y-68002571D01*
X34909809Y-68021079D01*
X34968190Y-68016930D01*
X35020537Y-67990756D01*
X35058884Y-67946542D01*
X35070872Y-67919691D01*
X35322398Y-67165114D01*
X36534742Y-67165114D01*
X36786268Y-67919691D01*
X36798256Y-67946542D01*
X36836603Y-67990757D01*
X36888951Y-68016930D01*
X36947331Y-68021080D01*
X37002855Y-68002572D01*
X37047070Y-67964224D01*
X37073243Y-67911877D01*
X37077393Y-67853497D01*
X37070873Y-67824823D01*
X36515255Y-66157971D01*
X39921427Y-66157971D01*
X39921427Y-66586542D01*
X39921929Y-66591645D01*
X39921604Y-66593833D01*
X39923223Y-66604783D01*
X39924309Y-66615806D01*
X39925156Y-66617850D01*
X39925906Y-66622922D01*
X40068762Y-67194351D01*
X40069533Y-67196509D01*
X40069610Y-67197590D01*
X40074270Y-67209768D01*
X40078656Y-67222042D01*
X40079300Y-67222912D01*
X40080120Y-67225053D01*
X40222977Y-67510767D01*
X40230904Y-67523360D01*
X40232420Y-67527020D01*
X40235801Y-67531139D01*
X40238642Y-67535653D01*
X40241635Y-67538249D01*
X40251075Y-67549751D01*
X40536790Y-67835466D01*
X40559521Y-67854121D01*
X40564500Y-67856183D01*
X40568571Y-67859714D01*
X40595422Y-67871702D01*
X41023992Y-68014559D01*
X41038501Y-68017858D01*
X41042163Y-68019375D01*
X41047471Y-68019897D01*
X41052666Y-68021079D01*
X41056615Y-68020798D01*
X41071427Y-68022257D01*
X41785713Y-68022257D01*
X41814977Y-68019375D01*
X41869049Y-67996977D01*
X41910433Y-67955593D01*
X41932831Y-67901521D01*
X41935713Y-67872257D01*
X41935713Y-67853496D01*
X42636891Y-67853496D01*
X42641040Y-67911877D01*
X42667214Y-67964224D01*
X42711428Y-68002571D01*
X42766952Y-68021079D01*
X42825333Y-68016930D01*
X42877680Y-67990756D01*
X42916027Y-67946542D01*
X42928015Y-67919691D01*
X43179541Y-67165114D01*
X44391885Y-67165114D01*
X44643411Y-67919691D01*
X44655399Y-67946542D01*
X44693746Y-67990757D01*
X44746094Y-68016930D01*
X44804474Y-68021080D01*
X44859998Y-68002572D01*
X44904213Y-67964224D01*
X44930386Y-67911877D01*
X44934536Y-67853497D01*
X44934536Y-67853496D01*
X45208320Y-67853496D01*
X45212469Y-67911877D01*
X45238643Y-67964224D01*
X45282857Y-68002571D01*
X45338381Y-68021079D01*
X45396762Y-68016930D01*
X45449109Y-67990756D01*
X45487456Y-67946542D01*
X45499444Y-67919691D01*
X45750970Y-67165114D01*
X46963314Y-67165114D01*
X47214840Y-67919691D01*
X47226828Y-67946542D01*
X47265175Y-67990757D01*
X47317523Y-68016930D01*
X47375903Y-68021080D01*
X47431427Y-68002572D01*
X47475642Y-67964224D01*
X47501815Y-67911877D01*
X47505965Y-67853497D01*
X47499445Y-67824823D01*
X47229542Y-67015114D01*
X48064285Y-67015114D01*
X48064285Y-67300828D01*
X48067167Y-67330092D01*
X48069228Y-67335069D01*
X48069611Y-67340447D01*
X48080121Y-67367910D01*
X48222978Y-67653624D01*
X48230905Y-67666217D01*
X48232421Y-67669877D01*
X48235802Y-67673996D01*
X48238643Y-67678510D01*
X48241636Y-67681106D01*
X48251076Y-67692608D01*
X48393934Y-67835466D01*
X48405435Y-67844905D01*
X48408032Y-67847899D01*
X48412545Y-67850739D01*
X48416665Y-67854121D01*
X48420324Y-67855636D01*
X48432918Y-67863564D01*
X48718632Y-68006421D01*
X48746095Y-68016931D01*
X48751472Y-68017313D01*
X48756450Y-68019375D01*
X48785714Y-68022257D01*
X49500000Y-68022257D01*
X49514811Y-68020798D01*
X49518761Y-68021079D01*
X49523955Y-68019897D01*
X49529264Y-68019375D01*
X49532926Y-68017857D01*
X49547434Y-68014559D01*
X49976005Y-67871703D01*
X50002856Y-67859714D01*
X50047070Y-67821367D01*
X50073243Y-67769020D01*
X50077393Y-67710640D01*
X50058885Y-67655115D01*
X50020537Y-67610901D01*
X49968190Y-67584727D01*
X49909810Y-67580578D01*
X49881136Y-67587098D01*
X49475660Y-67722257D01*
X48821124Y-67722257D01*
X48588854Y-67606122D01*
X48480420Y-67497688D01*
X48364285Y-67265418D01*
X48364285Y-67050524D01*
X48480420Y-66818254D01*
X48588854Y-66709820D01*
X48838069Y-66585212D01*
X49393523Y-66446349D01*
X49395678Y-66445578D01*
X49396760Y-66445502D01*
X49408934Y-66440842D01*
X49421214Y-66436456D01*
X49422085Y-66435810D01*
X49424224Y-66434992D01*
X49709939Y-66292135D01*
X49722532Y-66284207D01*
X49726192Y-66282692D01*
X49730311Y-66279310D01*
X49734825Y-66276470D01*
X49737421Y-66273476D01*
X49748923Y-66264037D01*
X49891780Y-66121180D01*
X49901220Y-66109677D01*
X49904213Y-66107082D01*
X49907051Y-66102572D01*
X49910435Y-66098450D01*
X49911951Y-66094787D01*
X49919878Y-66082196D01*
X50062735Y-65796482D01*
X50073245Y-65769019D01*
X50073627Y-65763641D01*
X50075689Y-65758664D01*
X50078571Y-65729400D01*
X50078571Y-65443685D01*
X50075689Y-65414421D01*
X50073627Y-65409443D01*
X50073245Y-65404066D01*
X50062735Y-65376603D01*
X49919878Y-65090889D01*
X49911951Y-65078297D01*
X49910435Y-65074635D01*
X49907051Y-65070512D01*
X49904213Y-65066003D01*
X49901220Y-65063407D01*
X49891780Y-65051905D01*
X49748923Y-64909048D01*
X49737421Y-64899608D01*
X49734825Y-64896615D01*
X49730311Y-64893774D01*
X49726192Y-64890393D01*
X49722532Y-64888877D01*
X49709939Y-64880950D01*
X49424224Y-64738093D01*
X49396760Y-64727583D01*
X49391384Y-64727201D01*
X49386406Y-64725139D01*
X49357142Y-64722257D01*
X48642857Y-64722257D01*
X48628045Y-64723715D01*
X48624096Y-64723435D01*
X48618901Y-64724616D01*
X48613593Y-64725139D01*
X48609930Y-64726656D01*
X48595423Y-64729955D01*
X48166851Y-64872811D01*
X48140000Y-64884800D01*
X48095786Y-64923147D01*
X48069612Y-64975494D01*
X48065463Y-65033874D01*
X48083971Y-65089399D01*
X48122318Y-65133613D01*
X48174665Y-65159787D01*
X48233045Y-65163936D01*
X48261719Y-65157417D01*
X48667200Y-65022257D01*
X49321732Y-65022257D01*
X49554003Y-65138392D01*
X49662436Y-65246825D01*
X49778571Y-65479095D01*
X49778571Y-65693990D01*
X49662436Y-65926260D01*
X49554003Y-66034692D01*
X49304786Y-66159300D01*
X48749334Y-66298164D01*
X48747178Y-66298934D01*
X48746095Y-66299011D01*
X48733906Y-66303675D01*
X48721642Y-66308057D01*
X48720770Y-66308702D01*
X48718632Y-66309521D01*
X48432918Y-66452378D01*
X48420324Y-66460305D01*
X48416665Y-66461821D01*
X48412545Y-66465202D01*
X48408032Y-66468043D01*
X48405435Y-66471036D01*
X48393934Y-66480476D01*
X48251076Y-66623334D01*
X48241636Y-66634835D01*
X48238643Y-66637432D01*
X48235802Y-66641945D01*
X48232421Y-66646065D01*
X48230905Y-66649724D01*
X48222978Y-66662318D01*
X48080121Y-66948032D01*
X48069611Y-66975495D01*
X48069228Y-66980872D01*
X48067167Y-66985850D01*
X48064285Y-67015114D01*
X47229542Y-67015114D01*
X46499444Y-64824823D01*
X46487456Y-64797972D01*
X46480435Y-64789877D01*
X46475642Y-64780290D01*
X46461429Y-64767963D01*
X46449109Y-64753758D01*
X46439526Y-64748966D01*
X46431427Y-64741942D01*
X46413579Y-64735992D01*
X46396762Y-64727584D01*
X46386074Y-64726824D01*
X46375903Y-64723434D01*
X46357137Y-64724767D01*
X46338381Y-64723435D01*
X46328213Y-64726824D01*
X46317523Y-64727584D01*
X46300699Y-64735995D01*
X46282857Y-64741943D01*
X46274762Y-64748963D01*
X46265175Y-64753757D01*
X46252849Y-64767968D01*
X46238643Y-64780290D01*
X46233850Y-64789874D01*
X46226828Y-64797972D01*
X46214840Y-64824823D01*
X45214840Y-67824823D01*
X45208320Y-67853496D01*
X44934536Y-67853496D01*
X44928016Y-67824823D01*
X43928015Y-64824823D01*
X43916027Y-64797972D01*
X43909006Y-64789877D01*
X43904213Y-64780290D01*
X43890000Y-64767963D01*
X43877680Y-64753758D01*
X43868097Y-64748966D01*
X43859998Y-64741942D01*
X43842150Y-64735992D01*
X43825333Y-64727584D01*
X43814645Y-64726824D01*
X43804474Y-64723434D01*
X43785708Y-64724767D01*
X43766952Y-64723435D01*
X43756784Y-64726824D01*
X43746094Y-64727584D01*
X43729270Y-64735995D01*
X43711428Y-64741943D01*
X43703333Y-64748963D01*
X43693746Y-64753757D01*
X43681420Y-64767968D01*
X43667214Y-64780290D01*
X43662421Y-64789874D01*
X43655399Y-64797972D01*
X43643411Y-64824823D01*
X42643411Y-67824823D01*
X42636891Y-67853496D01*
X41935713Y-67853496D01*
X41935713Y-64872257D01*
X41932831Y-64842993D01*
X41910433Y-64788921D01*
X41869049Y-64747537D01*
X41814977Y-64725139D01*
X41785713Y-64722257D01*
X41071427Y-64722257D01*
X41056615Y-64723715D01*
X41052666Y-64723435D01*
X41047471Y-64724616D01*
X41042163Y-64725139D01*
X41038501Y-64726655D01*
X41023992Y-64729955D01*
X40595422Y-64872812D01*
X40568571Y-64884800D01*
X40564500Y-64888330D01*
X40559521Y-64890393D01*
X40536790Y-64909048D01*
X40251075Y-65194762D01*
X40241634Y-65206264D01*
X40238642Y-65208860D01*
X40235803Y-65213369D01*
X40232420Y-65217492D01*
X40230903Y-65221154D01*
X40222977Y-65233746D01*
X40080120Y-65519460D01*
X40079300Y-65521600D01*
X40078656Y-65522471D01*
X40074270Y-65534744D01*
X40069610Y-65546923D01*
X40069533Y-65548003D01*
X40068762Y-65550162D01*
X39925906Y-66121591D01*
X39925156Y-66126662D01*
X39924309Y-66128707D01*
X39923223Y-66139729D01*
X39921604Y-66150680D01*
X39921929Y-66152867D01*
X39921427Y-66157971D01*
X36515255Y-66157971D01*
X36070872Y-64824823D01*
X36058884Y-64797972D01*
X36051863Y-64789877D01*
X36047070Y-64780290D01*
X36032857Y-64767963D01*
X36020537Y-64753758D01*
X36010954Y-64748966D01*
X36002855Y-64741942D01*
X35985007Y-64735992D01*
X35968190Y-64727584D01*
X35957502Y-64726824D01*
X35947331Y-64723434D01*
X35928565Y-64724767D01*
X35909809Y-64723435D01*
X35899641Y-64726824D01*
X35888951Y-64727584D01*
X35872127Y-64735995D01*
X35854285Y-64741943D01*
X35846190Y-64748963D01*
X35836603Y-64753757D01*
X35824277Y-64767968D01*
X35810071Y-64780290D01*
X35805278Y-64789874D01*
X35798256Y-64797972D01*
X35786268Y-64824823D01*
X34786268Y-67824823D01*
X34779748Y-67853496D01*
X34361402Y-67853496D01*
X34361402Y-67842993D01*
X34355777Y-67829415D01*
X34352926Y-67815000D01*
X34339091Y-67789052D01*
X32494562Y-65022257D01*
X34214284Y-65022257D01*
X34243548Y-65019375D01*
X34297620Y-64996977D01*
X34339004Y-64955593D01*
X34361402Y-64901521D01*
X34361402Y-64842993D01*
X34339004Y-64788921D01*
X34297620Y-64747537D01*
X34243548Y-64725139D01*
X34214284Y-64722257D01*
X32214284Y-64722257D01*
X32185020Y-64725139D01*
X32171441Y-64730763D01*
X32157027Y-64733615D01*
X32144669Y-64741853D01*
X32130948Y-64747537D01*
X32120558Y-64757926D01*
X32108328Y-64766080D01*
X32100062Y-64778422D01*
X32089564Y-64788921D01*
X32083940Y-64802497D01*
X32075762Y-64814710D01*
X32072849Y-64829272D01*
X32067166Y-64842993D01*
X32067166Y-64857689D01*
X32064284Y-64872099D01*
X31221411Y-64872099D01*
X31218545Y-64842993D01*
X31196147Y-64788921D01*
X31154763Y-64747537D01*
X31100691Y-64725139D01*
X31042163Y-64725139D01*
X30988091Y-64747537D01*
X30946707Y-64788921D01*
X30924309Y-64842993D01*
X30921427Y-64872257D01*
X30075688Y-64872257D01*
X30075688Y-64842993D01*
X30053290Y-64788921D01*
X30011906Y-64747537D01*
X29957834Y-64725139D01*
X29928570Y-64722257D01*
X27928570Y-64722257D01*
X27899306Y-64725139D01*
X27885727Y-64730763D01*
X27871313Y-64733615D01*
X27858955Y-64741853D01*
X27845234Y-64747537D01*
X27834844Y-64757926D01*
X27822614Y-64766080D01*
X27814348Y-64778422D01*
X27803850Y-64788921D01*
X27798226Y-64802497D01*
X27790048Y-64814710D01*
X27787135Y-64829272D01*
X27781452Y-64842993D01*
X27781452Y-64857689D01*
X27778570Y-64872099D01*
X27445237Y-64872099D01*
X27445237Y-64388924D01*
X50411904Y-64388924D01*
X50411904Y-68355590D01*
G37*
G36*
X62293685Y-49321732D02*
G01*
X62177549Y-49554003D01*
X62069117Y-49662436D01*
X61836847Y-49778571D01*
X61479095Y-49778571D01*
X61246825Y-49662436D01*
X61138392Y-49554003D01*
X61022257Y-49321732D01*
X61022257Y-48364285D01*
X62293685Y-48364285D01*
X62293685Y-49321732D01*
G37*
G36*
X63722257Y-45904228D02*
G01*
X63598295Y-46276114D01*
X63354831Y-46519579D01*
X63105616Y-46644186D01*
X62568078Y-46778571D01*
X62176439Y-46778571D01*
X61638897Y-46644186D01*
X61389682Y-46519579D01*
X61146218Y-46276114D01*
X61022257Y-45904230D01*
X61022257Y-45364285D01*
X63722257Y-45364285D01*
X63722257Y-45904228D01*
G37*
G36*
X64355590Y-60837938D02*
G01*
X60388924Y-60837938D01*
X60388924Y-58357142D01*
X60722257Y-58357142D01*
X60722257Y-60357142D01*
X60725139Y-60386406D01*
X60725495Y-60387267D01*
X60725507Y-60388197D01*
X60736676Y-60414258D01*
X60747537Y-60440478D01*
X60748195Y-60441136D01*
X60748562Y-60441992D01*
X60768841Y-60461782D01*
X60788921Y-60481862D01*
X60789783Y-60482219D01*
X60790449Y-60482869D01*
X60816744Y-60493387D01*
X60842993Y-60504260D01*
X60843927Y-60504260D01*
X60844789Y-60504605D01*
X60873107Y-60504260D01*
X60901521Y-60504260D01*
X60902382Y-60503903D01*
X60903312Y-60503892D01*
X60931345Y-60495014D01*
X63931345Y-59209300D01*
X63957108Y-59195123D01*
X63997985Y-59153236D01*
X64019721Y-59098896D01*
X64019008Y-59040373D01*
X63995952Y-58986577D01*
X63954065Y-58945700D01*
X63899726Y-58923964D01*
X63841203Y-58924677D01*
X63813169Y-58933556D01*
X61022257Y-60129660D01*
X61022257Y-58357142D01*
X61019375Y-58327878D01*
X60996977Y-58273806D01*
X60955593Y-58232422D01*
X60901521Y-58210024D01*
X60842993Y-58210024D01*
X60788921Y-58232422D01*
X60747537Y-58273806D01*
X60725139Y-58327878D01*
X60722257Y-58357142D01*
X60388924Y-58357142D01*
X60388924Y-55928571D01*
X60722257Y-55928571D01*
X60722257Y-57642857D01*
X60725139Y-57672121D01*
X60747537Y-57726193D01*
X60788921Y-57767577D01*
X60842993Y-57789975D01*
X60901521Y-57789975D01*
X60955593Y-57767577D01*
X60996977Y-57726193D01*
X61019375Y-57672121D01*
X61022257Y-57642857D01*
X61022257Y-56935714D01*
X63872257Y-56935714D01*
X63901521Y-56932832D01*
X63955593Y-56910434D01*
X63996977Y-56869050D01*
X64019375Y-56814978D01*
X64019375Y-56756450D01*
X63996977Y-56702378D01*
X63955593Y-56660994D01*
X63901521Y-56638596D01*
X63872257Y-56635714D01*
X61022257Y-56635714D01*
X61022257Y-55928571D01*
X61019375Y-55899307D01*
X60996977Y-55845235D01*
X60955593Y-55803851D01*
X60901521Y-55781453D01*
X60842993Y-55781453D01*
X60788921Y-55803851D01*
X60747537Y-55845235D01*
X60725139Y-55899307D01*
X60722257Y-55928571D01*
X60388924Y-55928571D01*
X60388924Y-50928571D01*
X60722257Y-50928571D01*
X60722257Y-52785714D01*
X60723780Y-52801186D01*
X60723518Y-52805126D01*
X60724436Y-52807840D01*
X60725139Y-52814978D01*
X60734462Y-52837486D01*
X60742269Y-52860568D01*
X60745600Y-52864375D01*
X60747537Y-52869050D01*
X60764766Y-52886279D01*
X60780810Y-52904615D01*
X60785344Y-52906857D01*
X60788921Y-52910434D01*
X60811437Y-52919760D01*
X60833273Y-52930559D01*
X60838317Y-52930895D01*
X60842993Y-52932832D01*
X60867360Y-52932832D01*
X60891669Y-52934453D01*
X60896462Y-52932832D01*
X60901521Y-52932832D01*
X60924029Y-52923508D01*
X60947111Y-52915702D01*
X60952946Y-52911530D01*
X60955593Y-52910434D01*
X60958384Y-52907642D01*
X60971033Y-52898600D01*
X61865114Y-52116279D01*
X61865114Y-52214285D01*
X61867996Y-52243549D01*
X61870058Y-52248527D01*
X61870440Y-52253903D01*
X61880950Y-52281367D01*
X62023807Y-52567082D01*
X62031734Y-52579675D01*
X62033250Y-52583335D01*
X62036631Y-52587454D01*
X62039472Y-52591968D01*
X62042465Y-52594564D01*
X62051905Y-52606066D01*
X62194762Y-52748923D01*
X62206264Y-52758363D01*
X62208860Y-52761356D01*
X62213369Y-52764194D01*
X62217492Y-52767578D01*
X62221154Y-52769094D01*
X62233746Y-52777021D01*
X62519460Y-52919878D01*
X62546923Y-52930388D01*
X62552300Y-52930770D01*
X62557278Y-52932832D01*
X62586542Y-52935714D01*
X63300828Y-52935714D01*
X63330092Y-52932832D01*
X63335069Y-52930770D01*
X63340447Y-52930388D01*
X63367910Y-52919878D01*
X63653624Y-52777021D01*
X63666217Y-52769093D01*
X63669877Y-52767578D01*
X63673996Y-52764196D01*
X63678510Y-52761356D01*
X63681106Y-52758362D01*
X63692608Y-52748923D01*
X63835466Y-52606066D01*
X63844906Y-52594563D01*
X63847899Y-52591968D01*
X63850737Y-52587458D01*
X63854121Y-52583336D01*
X63855637Y-52579673D01*
X63863564Y-52567082D01*
X64006421Y-52281367D01*
X64016931Y-52253903D01*
X64017312Y-52248527D01*
X64019375Y-52243549D01*
X64022257Y-52214285D01*
X64022257Y-51357142D01*
X64019375Y-51327878D01*
X64017313Y-51322900D01*
X64016931Y-51317523D01*
X64006421Y-51290060D01*
X63863564Y-51004346D01*
X63855637Y-50991754D01*
X63854121Y-50988092D01*
X63850737Y-50983969D01*
X63847899Y-50979460D01*
X63844906Y-50976864D01*
X63835466Y-50965362D01*
X63692608Y-50822505D01*
X63669877Y-50803850D01*
X63615804Y-50781453D01*
X63557279Y-50781453D01*
X63503206Y-50803850D01*
X63461821Y-50845236D01*
X63439424Y-50899309D01*
X63439424Y-50957834D01*
X63461821Y-51011907D01*
X63480476Y-51034637D01*
X63606122Y-51160282D01*
X63722257Y-51392552D01*
X63722257Y-52178875D01*
X63606122Y-52411145D01*
X63497688Y-52519578D01*
X63265418Y-52635714D01*
X62621952Y-52635714D01*
X62389682Y-52519579D01*
X62281249Y-52411146D01*
X62165114Y-52178875D01*
X62165114Y-51785714D01*
X62163589Y-51770236D01*
X62163852Y-51766302D01*
X62162935Y-51763591D01*
X62162232Y-51756450D01*
X62152905Y-51733935D01*
X62145102Y-51710860D01*
X62141770Y-51707052D01*
X62139834Y-51702378D01*
X62122604Y-51685148D01*
X62106561Y-51666813D01*
X62102026Y-51664570D01*
X62098450Y-51660994D01*
X62075933Y-51651667D01*
X62054098Y-51640869D01*
X62049053Y-51640532D01*
X62044378Y-51638596D01*
X62020002Y-51638596D01*
X61995702Y-51636976D01*
X61990912Y-51638596D01*
X61985850Y-51638596D01*
X61963338Y-51647920D01*
X61940259Y-51655726D01*
X61934422Y-51659898D01*
X61931778Y-51660994D01*
X61928987Y-51663784D01*
X61916338Y-51672828D01*
X61022257Y-52455148D01*
X61022257Y-50928571D01*
X61019375Y-50899307D01*
X60996977Y-50845235D01*
X60955593Y-50803851D01*
X60901521Y-50781453D01*
X60842993Y-50781453D01*
X60788921Y-50803851D01*
X60747537Y-50845235D01*
X60725139Y-50899307D01*
X60722257Y-50928571D01*
X60388924Y-50928571D01*
X60388924Y-48214285D01*
X60722257Y-48214285D01*
X60722257Y-49357142D01*
X60725139Y-49386406D01*
X60727201Y-49391384D01*
X60727583Y-49396760D01*
X60738093Y-49424224D01*
X60880950Y-49709939D01*
X60888877Y-49722532D01*
X60890393Y-49726192D01*
X60893774Y-49730311D01*
X60896615Y-49734825D01*
X60899608Y-49737421D01*
X60909048Y-49748923D01*
X61051905Y-49891780D01*
X61063407Y-49901220D01*
X61066003Y-49904213D01*
X61070512Y-49907051D01*
X61074635Y-49910435D01*
X61078297Y-49911951D01*
X61090889Y-49919878D01*
X61376603Y-50062735D01*
X61404066Y-50073245D01*
X61409443Y-50073627D01*
X61414421Y-50075689D01*
X61443685Y-50078571D01*
X61872257Y-50078571D01*
X61901521Y-50075689D01*
X61906498Y-50073627D01*
X61911876Y-50073245D01*
X61939339Y-50062735D01*
X62225053Y-49919878D01*
X62237646Y-49911950D01*
X62241306Y-49910435D01*
X62245425Y-49907053D01*
X62249939Y-49904213D01*
X62252535Y-49901219D01*
X62264037Y-49891780D01*
X62406894Y-49748923D01*
X62416334Y-49737420D01*
X62419327Y-49734825D01*
X62422165Y-49730315D01*
X62425549Y-49726193D01*
X62427065Y-49722530D01*
X62434992Y-49709939D01*
X62577849Y-49424224D01*
X62588359Y-49396760D01*
X62588740Y-49391384D01*
X62590803Y-49386406D01*
X62593685Y-49357142D01*
X62593685Y-48364285D01*
X63872257Y-48364285D01*
X63901521Y-48361403D01*
X63955593Y-48339005D01*
X63996977Y-48297621D01*
X64019375Y-48243549D01*
X64019375Y-48185021D01*
X63996977Y-48130949D01*
X63955593Y-48089565D01*
X63901521Y-48067167D01*
X63872257Y-48064285D01*
X60872257Y-48064285D01*
X60842993Y-48067167D01*
X60788921Y-48089565D01*
X60747537Y-48130949D01*
X60725139Y-48185021D01*
X60722257Y-48214285D01*
X60388924Y-48214285D01*
X60388924Y-45214285D01*
X60722257Y-45214285D01*
X60722257Y-45928571D01*
X60723715Y-45943382D01*
X60723435Y-45947332D01*
X60724616Y-45952526D01*
X60725139Y-45957835D01*
X60726656Y-45961497D01*
X60729955Y-45976005D01*
X60872811Y-46404576D01*
X60884800Y-46431427D01*
X60888330Y-46435497D01*
X60890393Y-46440477D01*
X60909048Y-46463208D01*
X61194762Y-46748923D01*
X61206264Y-46758363D01*
X61208860Y-46761356D01*
X61213369Y-46764194D01*
X61217492Y-46767578D01*
X61221154Y-46769094D01*
X61233746Y-46777021D01*
X61519460Y-46919878D01*
X61521598Y-46920696D01*
X61522470Y-46921342D01*
X61534734Y-46925723D01*
X61546923Y-46930388D01*
X61548006Y-46930464D01*
X61550162Y-46931235D01*
X62121590Y-47074092D01*
X62126662Y-47074842D01*
X62128707Y-47075689D01*
X62139726Y-47076774D01*
X62150679Y-47078394D01*
X62152867Y-47078068D01*
X62157971Y-47078571D01*
X62586542Y-47078571D01*
X62591645Y-47078068D01*
X62593833Y-47078394D01*
X62604783Y-47076774D01*
X62615806Y-47075689D01*
X62617850Y-47074841D01*
X62622922Y-47074092D01*
X63194351Y-46931236D01*
X63196509Y-46930464D01*
X63197590Y-46930388D01*
X63209768Y-46925727D01*
X63222042Y-46921342D01*
X63222912Y-46920697D01*
X63225053Y-46919878D01*
X63510767Y-46777021D01*
X63523360Y-46769093D01*
X63527020Y-46767578D01*
X63531139Y-46764196D01*
X63535653Y-46761356D01*
X63538249Y-46758362D01*
X63549751Y-46748923D01*
X63835466Y-46463208D01*
X63854121Y-46440477D01*
X63856183Y-46435497D01*
X63859714Y-46431427D01*
X63871702Y-46404576D01*
X64014559Y-45976006D01*
X64017858Y-45961496D01*
X64019375Y-45957835D01*
X64019897Y-45952526D01*
X64021079Y-45947332D01*
X64020798Y-45943382D01*
X64022257Y-45928571D01*
X64022257Y-45214285D01*
X64019375Y-45185021D01*
X63996977Y-45130949D01*
X63955593Y-45089565D01*
X63901521Y-45067167D01*
X63872257Y-45064285D01*
X60872257Y-45064285D01*
X60842993Y-45067167D01*
X60788921Y-45089565D01*
X60747537Y-45130949D01*
X60725139Y-45185021D01*
X60722257Y-45214285D01*
X60388924Y-45214285D01*
X60388924Y-42500000D01*
X60722257Y-42500000D01*
X60722257Y-44214286D01*
X60725139Y-44243550D01*
X60747537Y-44297622D01*
X60788921Y-44339006D01*
X60842993Y-44361404D01*
X60901521Y-44361404D01*
X60955593Y-44339006D01*
X60996977Y-44297622D01*
X61019375Y-44243550D01*
X61022257Y-44214286D01*
X61022257Y-43507143D01*
X63872257Y-43507143D01*
X63901521Y-43504261D01*
X63955593Y-43481863D01*
X63996977Y-43440479D01*
X64019375Y-43386407D01*
X64019375Y-43327879D01*
X63996977Y-43273807D01*
X63955593Y-43232423D01*
X63901521Y-43210025D01*
X63872257Y-43207143D01*
X61022257Y-43207143D01*
X61022257Y-42500000D01*
X61019375Y-42470736D01*
X60996977Y-42416664D01*
X60955593Y-42375280D01*
X60901521Y-42352882D01*
X60842993Y-42352882D01*
X60788921Y-42375280D01*
X60747537Y-42416664D01*
X60725139Y-42470736D01*
X60722257Y-42500000D01*
X60388924Y-42500000D01*
X60388924Y-42019549D01*
X64355590Y-42019549D01*
X64355590Y-60837938D01*
G37*
D11*
%TO.P,H1,1,1*%
%TO.N,GND*%
X61500000Y-38500000D03*
D12*
X61500000Y-38500000D03*
%TD*%
D11*
%TO.P,H4,1,1*%
%TO.N,GND*%
X23500000Y-38500000D03*
D12*
X23500000Y-38500000D03*
%TD*%
D13*
%TO.P,AC1,1,SDO/SA0*%
%TO.N,Net-(AC1-SDO{slash}SA0)*%
X32180000Y-47686600D03*
D14*
%TO.P,AC1,2,SDX*%
%TO.N,GND*%
X32180000Y-50226600D03*
%TO.P,AC1,3,SCX*%
X32180000Y-52766600D03*
%TO.P,AC1,4,INT1*%
%TO.N,INTR1_6AXIS*%
X32180000Y-55306600D03*
%TO.P,AC1,5,VDDIO*%
%TO.N,+3V3*%
X35140000Y-58996600D03*
%TO.P,AC1,6,GND_1*%
%TO.N,GND*%
X37680000Y-58996600D03*
%TO.P,AC1,7,GND_2*%
X40220000Y-58996600D03*
%TO.P,AC1,8,VDD*%
%TO.N,+3V3*%
X43180000Y-55306600D03*
%TO.P,AC1,9,INT2*%
%TO.N,INTR2_6AXIS*%
X43180000Y-52766600D03*
%TO.P,AC1,10,OCS_AUX*%
%TO.N,unconnected-(AC1-OCS_AUX-Pad10)*%
X43180000Y-50226600D03*
%TO.P,AC1,11,SDO_AUX*%
%TO.N,unconnected-(AC1-SDO_AUX-Pad11)*%
X43180000Y-47686600D03*
%TO.P,AC1,12,CS*%
%TO.N,Net-(AC1-CS)*%
X40220000Y-46496600D03*
%TO.P,AC1,13,SCL*%
%TO.N,I2C_CLK*%
X37680000Y-46496600D03*
%TO.P,AC1,14,SDA*%
%TO.N,I2C_DATA*%
X35140000Y-46496600D03*
%TD*%
D11*
%TO.P,H2,1,1*%
%TO.N,GND*%
X61500000Y-65000000D03*
D12*
X61500000Y-65000000D03*
%TD*%
D11*
%TO.P,H3,1,1*%
%TO.N,GND*%
X23500000Y-65000000D03*
D12*
X23500000Y-65000000D03*
%TD*%
D15*
%TO.P,C3,1*%
%TO.N,INTR2_6AXIS*%
X46000000Y-48037500D03*
%TO.P,C3,2*%
%TO.N,GND*%
X46000000Y-45962500D03*
%TD*%
D16*
%TO.P,R2,1*%
%TO.N,Net-(AC1-SDO{slash}SA0)*%
X35220000Y-48996600D03*
%TO.P,R2,2*%
%TO.N,GND*%
X35220000Y-50996600D03*
%TD*%
D17*
%TO.P,J1,1,Pin_1*%
%TO.N,INTR1_6AXIS*%
X53340000Y-40640000D03*
D18*
%TO.P,J1,2,Pin_2*%
%TO.N,INTR2_6AXIS*%
X53340000Y-43180000D03*
%TO.P,J1,3,Pin_3*%
%TO.N,+3V3*%
X53340000Y-45720000D03*
%TO.P,J1,4,Pin_4*%
%TO.N,EN_ToF*%
X53340000Y-48260000D03*
%TO.P,J1,5,Pin_5*%
%TO.N,GND*%
X53340000Y-50800000D03*
%TO.P,J1,6,Pin_6*%
%TO.N,I2C_CLK*%
X53340000Y-53340000D03*
%TO.P,J1,7,Pin_7*%
%TO.N,I2C_DATA*%
X53340000Y-55880000D03*
%TD*%
D19*
%TO.P,C2,1*%
%TO.N,INTR1_6AXIS*%
X34962500Y-53500000D03*
%TO.P,C2,2*%
%TO.N,GND*%
X37037500Y-53500000D03*
%TD*%
D20*
%TO.P,R1,1*%
%TO.N,+3V3*%
X37730000Y-50996600D03*
%TO.P,R1,2*%
%TO.N,Net-(AC1-SDO{slash}SA0)*%
X37730000Y-48996600D03*
%TD*%
D17*
%TO.P,J2,1,Pin_1*%
%TO.N,+3V3*%
X58420000Y-45720000D03*
D18*
%TO.P,J2,2,Pin_2*%
%TO.N,EN_ToF*%
X58420000Y-48260000D03*
%TO.P,J2,3,Pin_3*%
%TO.N,GND*%
X58420000Y-50800000D03*
%TO.P,J2,4,Pin_4*%
%TO.N,I2C_CLK*%
X58420000Y-53340000D03*
%TO.P,J2,5,Pin_5*%
%TO.N,I2C_DATA*%
X58420000Y-55880000D03*
%TD*%
D16*
%TO.P,R3,1*%
%TO.N,Net-(AC1-CS)*%
X40220000Y-48990000D03*
%TO.P,R3,2*%
%TO.N,+3V3*%
X40220000Y-50990000D03*
%TD*%
D21*
%TO.N,+3V3*%
X45722793Y-53342793D03*
%TO.N,GND*%
X46140000Y-56220000D03*
X44500000Y-43500000D03*
%TO.N,INTR1_6AXIS*%
X32000000Y-58000000D03*
%TO.N,I2C_DATA*%
X46022793Y-62022793D03*
%TO.N,INTR2_6AXIS*%
X46260000Y-50260000D03*
%TO.N,I2C_CLK*%
X29477207Y-61522793D03*
%TD*%
D22*
%TO.N,+3V3*%
X40220000Y-53486600D02*
X37730000Y-50996600D01*
X45722793Y-53342793D02*
X45720000Y-53340000D01*
X40220000Y-53760813D02*
X39739187Y-53760813D01*
X40220000Y-53760813D02*
X40220000Y-53486600D01*
X45722793Y-53342793D02*
X43758986Y-55306600D01*
X40220000Y-53760813D02*
X40220000Y-50990000D01*
X41765787Y-55306600D02*
X40220000Y-53760813D01*
X43180000Y-55306600D02*
X41765787Y-55306600D01*
X35140000Y-58360000D02*
X35140000Y-58996600D01*
X43758986Y-55306600D02*
X43180000Y-55306600D01*
X39739187Y-53760813D02*
X35140000Y-58360000D01*
%TO.N,GND*%
X30379000Y-49839813D02*
X30379000Y-49000000D01*
X32180000Y-50226600D02*
X30765787Y-50226600D01*
X35220000Y-50996600D02*
X37037500Y-52814100D01*
X37037500Y-52814100D02*
X37037500Y-53500000D01*
X30765787Y-50226600D02*
X30379000Y-49839813D01*
%TO.N,INTR1_6AXIS*%
X32180000Y-57820000D02*
X32000000Y-58000000D01*
X33155900Y-55306600D02*
X32180000Y-55306600D01*
X34962500Y-53500000D02*
X33155900Y-55306600D01*
X32180000Y-55306600D02*
X32180000Y-57820000D01*
%TO.N,Net-(AC1-SDO{slash}SA0)*%
X34520000Y-48996600D02*
X33210000Y-47686600D01*
X37730000Y-48996600D02*
X35220000Y-48996600D01*
X33210000Y-47686600D02*
X32180000Y-47686600D01*
X35220000Y-48996600D02*
X34520000Y-48996600D01*
%TO.N,Net-(AC1-CS)*%
X40220000Y-48990000D02*
X40220000Y-46496600D01*
%TO.N,I2C_DATA*%
X28500000Y-58000000D02*
X28500000Y-48000000D01*
X30614400Y-45885600D02*
X34529000Y-45885600D01*
X46022793Y-62022793D02*
X45375586Y-62670000D01*
X28500000Y-48000000D02*
X30614400Y-45885600D01*
X45375586Y-62670000D02*
X33170000Y-62670000D01*
X34529000Y-45885600D02*
X35140000Y-46496600D01*
X33170000Y-62670000D02*
X28500000Y-58000000D01*
%TO.N,INTR2_6AXIS*%
X43753400Y-52766600D02*
X43180000Y-52766600D01*
X46000000Y-48037500D02*
X46000000Y-50000000D01*
X46260000Y-50260000D02*
X43753400Y-52766600D01*
X46000000Y-50000000D02*
X46260000Y-50260000D01*
%TO.N,I2C_CLK*%
X30247350Y-44695600D02*
X35885999Y-44695600D01*
X29477207Y-61522793D02*
X29022793Y-61522793D01*
X27399000Y-47543951D02*
X30247350Y-44695600D01*
X27399000Y-59899000D02*
X27399000Y-47543951D01*
X35885999Y-44695600D02*
X37680000Y-46489601D01*
X29022793Y-61522793D02*
X27399000Y-59899000D01*
X37680000Y-46489601D02*
X37680000Y-46496600D01*
%TD*%
%TA.AperFunction,Conductor*%
%TO.N,GND*%
G36*
X30598834Y-47135756D02*
G01*
X30654767Y-47177628D01*
X30679184Y-47243092D01*
X30679500Y-47251938D01*
X30679500Y-48734470D01*
X30679501Y-48734476D01*
X30685908Y-48794083D01*
X30736202Y-48928928D01*
X30736206Y-48928935D01*
X30822452Y-49044144D01*
X30822455Y-49044147D01*
X30937664Y-49130393D01*
X30945454Y-49134647D01*
X30943725Y-49137811D01*
X30985915Y-49169334D01*
X31010393Y-49234775D01*
X30995604Y-49303062D01*
X30987036Y-49316621D01*
X30897084Y-49440429D01*
X30789897Y-49650797D01*
X30716934Y-49875352D01*
X30680000Y-50108547D01*
X30680000Y-50344652D01*
X30716934Y-50577847D01*
X30789897Y-50802402D01*
X30897087Y-51012774D01*
X30957338Y-51095704D01*
X30957340Y-51095705D01*
X31697037Y-50356008D01*
X31714075Y-50419593D01*
X31779901Y-50533607D01*
X31872993Y-50626699D01*
X31987007Y-50692525D01*
X32050590Y-50709562D01*
X31310893Y-51449258D01*
X31313854Y-51486876D01*
X31313854Y-51506333D01*
X31310894Y-51543940D01*
X32050591Y-52283637D01*
X31987007Y-52300675D01*
X31872993Y-52366501D01*
X31779901Y-52459593D01*
X31714075Y-52573607D01*
X31697037Y-52637191D01*
X30957340Y-51897494D01*
X30897084Y-51980430D01*
X30789897Y-52190797D01*
X30716934Y-52415352D01*
X30680000Y-52648547D01*
X30680000Y-52884652D01*
X30716934Y-53117847D01*
X30789897Y-53342402D01*
X30897087Y-53552774D01*
X30957338Y-53635704D01*
X30957340Y-53635705D01*
X31697037Y-52896008D01*
X31714075Y-52959593D01*
X31779901Y-53073607D01*
X31872993Y-53166699D01*
X31987007Y-53232525D01*
X32050590Y-53249562D01*
X31310893Y-53989258D01*
X31312448Y-54009005D01*
X31298084Y-54077383D01*
X31261717Y-54119051D01*
X31202490Y-54162082D01*
X31035485Y-54329087D01*
X31035485Y-54329088D01*
X31035483Y-54329090D01*
X31005681Y-54370109D01*
X30896657Y-54520166D01*
X30789433Y-54730603D01*
X30716446Y-54955231D01*
X30679500Y-55188502D01*
X30679500Y-55424697D01*
X30716446Y-55657968D01*
X30789433Y-55882596D01*
X30886863Y-56073811D01*
X30896657Y-56093033D01*
X31035483Y-56284110D01*
X31202490Y-56451117D01*
X31202493Y-56451119D01*
X31258177Y-56491576D01*
X31300843Y-56546906D01*
X31306822Y-56616519D01*
X31274216Y-56678314D01*
X31241590Y-56702377D01*
X31213569Y-56716655D01*
X31154205Y-56759786D01*
X31022490Y-56855483D01*
X31022488Y-56855485D01*
X31022487Y-56855485D01*
X30855485Y-57022487D01*
X30855485Y-57022488D01*
X30855483Y-57022490D01*
X30846357Y-57035051D01*
X30716657Y-57213566D01*
X30609433Y-57424003D01*
X30536446Y-57648631D01*
X30499500Y-57881902D01*
X30499500Y-58118097D01*
X30536446Y-58351368D01*
X30609433Y-58575996D01*
X30670952Y-58696732D01*
X30683848Y-58765401D01*
X30657572Y-58830142D01*
X30600465Y-58870399D01*
X30530660Y-58873391D01*
X30472786Y-58840708D01*
X29336819Y-57704741D01*
X29303334Y-57643418D01*
X29300500Y-57617060D01*
X29300500Y-48382939D01*
X29320185Y-48315900D01*
X29336814Y-48295263D01*
X30467821Y-47164255D01*
X30529142Y-47130772D01*
X30598834Y-47135756D01*
G37*
%TD.AperFunction*%
%TA.AperFunction,Conductor*%
G36*
X33585097Y-49195221D02*
G01*
X33597058Y-49205736D01*
X34009707Y-49618386D01*
X34009710Y-49618389D01*
X34050093Y-49645372D01*
X34058212Y-49650797D01*
X34065748Y-49655832D01*
X34102395Y-49693837D01*
X34177285Y-49815252D01*
X34177288Y-49815256D01*
X34271304Y-49909272D01*
X34304789Y-49970595D01*
X34299805Y-50040287D01*
X34271305Y-50084634D01*
X34177682Y-50178257D01*
X34085643Y-50327475D01*
X34085641Y-50327480D01*
X34030494Y-50493902D01*
X34030493Y-50493909D01*
X34020000Y-50596613D01*
X34020000Y-50746600D01*
X35096000Y-50746600D01*
X35163039Y-50766285D01*
X35208794Y-50819089D01*
X35220000Y-50870600D01*
X35220000Y-51122600D01*
X35200315Y-51189639D01*
X35147511Y-51235394D01*
X35096000Y-51246600D01*
X34020001Y-51246600D01*
X34020001Y-51396586D01*
X34030494Y-51499297D01*
X34085641Y-51665719D01*
X34085643Y-51665724D01*
X34177684Y-51814945D01*
X34301654Y-51938915D01*
X34450875Y-52030956D01*
X34450882Y-52030959D01*
X34492063Y-52044605D01*
X34549509Y-52084377D01*
X34576332Y-52148893D01*
X34564017Y-52217669D01*
X34516475Y-52268869D01*
X34478372Y-52281497D01*
X34478819Y-52283585D01*
X34472200Y-52285001D01*
X34305668Y-52340185D01*
X34305663Y-52340187D01*
X34156342Y-52432289D01*
X34032289Y-52556342D01*
X33940187Y-52705663D01*
X33940185Y-52705668D01*
X33921706Y-52761436D01*
X33881933Y-52818881D01*
X33817417Y-52845704D01*
X33748642Y-52833389D01*
X33697442Y-52785846D01*
X33680000Y-52722432D01*
X33680000Y-52648547D01*
X33643065Y-52415352D01*
X33570102Y-52190797D01*
X33462914Y-51980428D01*
X33402658Y-51897494D01*
X33402658Y-51897493D01*
X32662962Y-52637190D01*
X32645925Y-52573607D01*
X32580099Y-52459593D01*
X32487007Y-52366501D01*
X32372993Y-52300675D01*
X32309409Y-52283637D01*
X33049104Y-51543940D01*
X33046144Y-51506335D01*
X33046144Y-51486875D01*
X33049104Y-51449257D01*
X32309408Y-50709562D01*
X32372993Y-50692525D01*
X32487007Y-50626699D01*
X32580099Y-50533607D01*
X32645925Y-50419593D01*
X32662962Y-50356009D01*
X33402658Y-51095705D01*
X33402658Y-51095704D01*
X33462914Y-51012769D01*
X33462918Y-51012763D01*
X33570102Y-50802402D01*
X33643065Y-50577847D01*
X33680000Y-50344652D01*
X33680000Y-50108547D01*
X33643065Y-49875352D01*
X33570102Y-49650797D01*
X33462914Y-49440428D01*
X33409059Y-49366303D01*
X33385579Y-49300496D01*
X33401404Y-49232442D01*
X33451510Y-49183747D01*
X33519988Y-49169872D01*
X33585097Y-49195221D01*
G37*
%TD.AperFunction*%
%TA.AperFunction,Conductor*%
G36*
X64902539Y-35060185D02*
G01*
X64948294Y-35112989D01*
X64959500Y-35164500D01*
X64959500Y-68335500D01*
X64939815Y-68402539D01*
X64887011Y-68448294D01*
X64835500Y-68459500D01*
X20164500Y-68459500D01*
X20097461Y-68439815D01*
X20051706Y-68387011D01*
X20040500Y-68335500D01*
X20040500Y-68030100D01*
X27770726Y-68030100D01*
X50085296Y-68030100D01*
X50085296Y-64714413D01*
X27770726Y-64714413D01*
X27770726Y-68030100D01*
X20040500Y-68030100D01*
X20040500Y-47465104D01*
X26598500Y-47465104D01*
X26598500Y-59977846D01*
X26629261Y-60132489D01*
X26629264Y-60132501D01*
X26689602Y-60278172D01*
X26689609Y-60278185D01*
X26777210Y-60409288D01*
X26777213Y-60409292D01*
X27942175Y-61574253D01*
X27975660Y-61635576D01*
X27976967Y-61642536D01*
X28013653Y-61874161D01*
X28086640Y-62098789D01*
X28193864Y-62309226D01*
X28332690Y-62500303D01*
X28499697Y-62667310D01*
X28690774Y-62806136D01*
X28790198Y-62856795D01*
X28901210Y-62913359D01*
X28901212Y-62913359D01*
X28901215Y-62913361D01*
X29021619Y-62952482D01*
X29125838Y-62986346D01*
X29359110Y-63023293D01*
X29359115Y-63023293D01*
X29595304Y-63023293D01*
X29828575Y-62986346D01*
X30053199Y-62913361D01*
X30263640Y-62806136D01*
X30454717Y-62667310D01*
X30621724Y-62500303D01*
X30760550Y-62309226D01*
X30867775Y-62098785D01*
X30940760Y-61874161D01*
X30943889Y-61854403D01*
X30973817Y-61791271D01*
X31033128Y-61754339D01*
X31102991Y-61755335D01*
X31154043Y-61786121D01*
X32548211Y-63180289D01*
X32659711Y-63291789D01*
X32659712Y-63291790D01*
X32790815Y-63379390D01*
X32790821Y-63379394D01*
X32893833Y-63422062D01*
X32936502Y-63439737D01*
X33091152Y-63470499D01*
X33091155Y-63470500D01*
X33091157Y-63470500D01*
X45454429Y-63470500D01*
X45478047Y-63465801D01*
X45527038Y-63456056D01*
X45589548Y-63459742D01*
X45671425Y-63486346D01*
X45758903Y-63500201D01*
X45904696Y-63523293D01*
X45904701Y-63523293D01*
X46140890Y-63523293D01*
X46374161Y-63486346D01*
X46598785Y-63413361D01*
X46809226Y-63306136D01*
X47000303Y-63167310D01*
X47167310Y-63000303D01*
X47306136Y-62809226D01*
X47413361Y-62598785D01*
X47486346Y-62374161D01*
X47496631Y-62309226D01*
X47523293Y-62140890D01*
X47523293Y-61904695D01*
X47486346Y-61671424D01*
X47413359Y-61446796D01*
X47306135Y-61236359D01*
X47167310Y-61045283D01*
X47000303Y-60878276D01*
X46809226Y-60739450D01*
X46598789Y-60632226D01*
X46374161Y-60559239D01*
X46140890Y-60522293D01*
X46140885Y-60522293D01*
X45904701Y-60522293D01*
X45904696Y-60522293D01*
X45671424Y-60559239D01*
X45446796Y-60632226D01*
X45236359Y-60739450D01*
X45127343Y-60818655D01*
X45045283Y-60878276D01*
X45045281Y-60878278D01*
X45045280Y-60878278D01*
X44878278Y-61045280D01*
X44878278Y-61045281D01*
X44878276Y-61045283D01*
X44818655Y-61127343D01*
X44739450Y-61236359D01*
X44632226Y-61446796D01*
X44559239Y-61671424D01*
X44544435Y-61764898D01*
X44514506Y-61828033D01*
X44455194Y-61864964D01*
X44421962Y-61869500D01*
X33552940Y-61869500D01*
X33485901Y-61849815D01*
X33465259Y-61833181D01*
X32144573Y-60512495D01*
X60715532Y-60512495D01*
X64028982Y-60512495D01*
X64028982Y-42345000D01*
X60715532Y-42345000D01*
X60715532Y-60512495D01*
X32144573Y-60512495D01*
X31159291Y-59527213D01*
X31125806Y-59465890D01*
X31130790Y-59396198D01*
X31172662Y-59340265D01*
X31238126Y-59315848D01*
X31303265Y-59329046D01*
X31340401Y-59347968D01*
X31424003Y-59390566D01*
X31424005Y-59390566D01*
X31424008Y-59390568D01*
X31544412Y-59429689D01*
X31648631Y-59463553D01*
X31881903Y-59500500D01*
X31881908Y-59500500D01*
X32118097Y-59500500D01*
X32351368Y-59463553D01*
X32354532Y-59462525D01*
X32575992Y-59390568D01*
X32786433Y-59283343D01*
X32977510Y-59144517D01*
X33144517Y-58977510D01*
X33283343Y-58786433D01*
X33390568Y-58575992D01*
X33463553Y-58351368D01*
X33485917Y-58210167D01*
X33500500Y-58118097D01*
X33500500Y-57881902D01*
X33463553Y-57648631D01*
X33417924Y-57508202D01*
X33390568Y-57424008D01*
X33390566Y-57424005D01*
X33390566Y-57424003D01*
X33330951Y-57307003D01*
X33283343Y-57213567D01*
X33144517Y-57022490D01*
X33016819Y-56894792D01*
X33002115Y-56867864D01*
X32985523Y-56842046D01*
X32984631Y-56835845D01*
X32983334Y-56833469D01*
X32980500Y-56807111D01*
X32980500Y-56642902D01*
X33000185Y-56575863D01*
X33031609Y-56542588D01*
X33157510Y-56451117D01*
X33324517Y-56284110D01*
X33463343Y-56093033D01*
X33473137Y-56073809D01*
X33521109Y-56023013D01*
X33532724Y-56017252D01*
X33535066Y-56015999D01*
X33535079Y-56015994D01*
X33666189Y-55928389D01*
X34832759Y-54761817D01*
X34894082Y-54728333D01*
X34920440Y-54725499D01*
X35350002Y-54725499D01*
X35350008Y-54725499D01*
X35452797Y-54714999D01*
X35619334Y-54659814D01*
X35768656Y-54567712D01*
X35892712Y-54443656D01*
X35894752Y-54440347D01*
X35896745Y-54438555D01*
X35897193Y-54437989D01*
X35897289Y-54438065D01*
X35946694Y-54393623D01*
X36015656Y-54382395D01*
X36079740Y-54410234D01*
X36105829Y-54440339D01*
X36107681Y-54443341D01*
X36107683Y-54443344D01*
X36231654Y-54567315D01*
X36380875Y-54659356D01*
X36380880Y-54659358D01*
X36547302Y-54714505D01*
X36547309Y-54714506D01*
X36650019Y-54724999D01*
X36787499Y-54724999D01*
X36787500Y-54724998D01*
X36787500Y-52275000D01*
X36650027Y-52275000D01*
X36650012Y-52275001D01*
X36547302Y-52285494D01*
X36380880Y-52340641D01*
X36380875Y-52340643D01*
X36231654Y-52432684D01*
X36107683Y-52556655D01*
X36107679Y-52556660D01*
X36105826Y-52559665D01*
X36104018Y-52561290D01*
X36103202Y-52562323D01*
X36103025Y-52562183D01*
X36053874Y-52606385D01*
X35984911Y-52617601D01*
X35920831Y-52589752D01*
X35894753Y-52559653D01*
X35894737Y-52559628D01*
X35892712Y-52556344D01*
X35768656Y-52432288D01*
X35619334Y-52340186D01*
X35613654Y-52338304D01*
X35556211Y-52298533D01*
X35529388Y-52234017D01*
X35541703Y-52165241D01*
X35589246Y-52114041D01*
X35652660Y-52096599D01*
X35719971Y-52096599D01*
X35719987Y-52096598D01*
X35822697Y-52086105D01*
X35989119Y-52030958D01*
X35989124Y-52030956D01*
X36138345Y-51938915D01*
X36262315Y-51814945D01*
X36354356Y-51665724D01*
X36354357Y-51665720D01*
X36357028Y-51657661D01*
X36396797Y-51600214D01*
X36461311Y-51573387D01*
X36530088Y-51585698D01*
X36581290Y-51633237D01*
X36592440Y-51657649D01*
X36595115Y-51665720D01*
X36595186Y-51665934D01*
X36687288Y-51815256D01*
X36811344Y-51939312D01*
X36960666Y-52031414D01*
X37127203Y-52086599D01*
X37183982Y-52092399D01*
X37248673Y-52118794D01*
X37288825Y-52175975D01*
X37291689Y-52245786D01*
X37287500Y-52253188D01*
X37287500Y-53250000D01*
X38124999Y-53250000D01*
X38124999Y-52975028D01*
X38124998Y-52975013D01*
X38114506Y-52872304D01*
X38101101Y-52831852D01*
X38098699Y-52762024D01*
X38134430Y-52701982D01*
X38196950Y-52670788D01*
X38266410Y-52678348D01*
X38306488Y-52705166D01*
X38896940Y-53295618D01*
X38930425Y-53356941D01*
X38925441Y-53426633D01*
X38896940Y-53470980D01*
X38336681Y-54031239D01*
X38275358Y-54064724D01*
X38205666Y-54059740D01*
X38149733Y-54017868D01*
X38125316Y-53952404D01*
X38125000Y-53943558D01*
X38125000Y-53750000D01*
X37287500Y-53750000D01*
X37287500Y-54724999D01*
X37343560Y-54724999D01*
X37410599Y-54744684D01*
X37456354Y-54797488D01*
X37466298Y-54866646D01*
X37437273Y-54930202D01*
X37431241Y-54936680D01*
X34872066Y-57495854D01*
X34810743Y-57529339D01*
X34803789Y-57530645D01*
X34788637Y-57533045D01*
X34564005Y-57606033D01*
X34353566Y-57713257D01*
X34270044Y-57773940D01*
X34162490Y-57852083D01*
X34162488Y-57852085D01*
X34162487Y-57852085D01*
X33995485Y-58019087D01*
X33995485Y-58019088D01*
X33995483Y-58019090D01*
X33935862Y-58101150D01*
X33856657Y-58210166D01*
X33749433Y-58420603D01*
X33676446Y-58645231D01*
X33639500Y-58878502D01*
X33639500Y-59114697D01*
X33676446Y-59347968D01*
X33749433Y-59572596D01*
X33856519Y-59782763D01*
X33856657Y-59783033D01*
X33995483Y-59974110D01*
X34162490Y-60141117D01*
X34353567Y-60279943D01*
X34452991Y-60330602D01*
X34564003Y-60387166D01*
X34564005Y-60387166D01*
X34564008Y-60387168D01*
X34684412Y-60426289D01*
X34788631Y-60460153D01*
X35021903Y-60497100D01*
X35021908Y-60497100D01*
X35258097Y-60497100D01*
X35491368Y-60460153D01*
X35492870Y-60459665D01*
X35715992Y-60387168D01*
X35926433Y-60279943D01*
X36117510Y-60141117D01*
X36284517Y-59974110D01*
X36331370Y-59909622D01*
X36335713Y-59904799D01*
X36360150Y-59889742D01*
X36382877Y-59872218D01*
X36390393Y-59871109D01*
X36395199Y-59868149D01*
X36408730Y-59868406D01*
X36437594Y-59864151D01*
X36457340Y-59865705D01*
X37197037Y-59126008D01*
X37214075Y-59189593D01*
X37279901Y-59303607D01*
X37372993Y-59396699D01*
X37487007Y-59462525D01*
X37550590Y-59479562D01*
X36810893Y-60219258D01*
X36893828Y-60279514D01*
X37104197Y-60386702D01*
X37328752Y-60459665D01*
X37328751Y-60459665D01*
X37561948Y-60496600D01*
X37798052Y-60496600D01*
X38031247Y-60459665D01*
X38255802Y-60386702D01*
X38466163Y-60279518D01*
X38466169Y-60279514D01*
X38549104Y-60219258D01*
X38549105Y-60219258D01*
X37809408Y-59479562D01*
X37872993Y-59462525D01*
X37987007Y-59396699D01*
X38080099Y-59303607D01*
X38145925Y-59189593D01*
X38162962Y-59126008D01*
X38902657Y-59865704D01*
X38940275Y-59862744D01*
X38959735Y-59862744D01*
X38997340Y-59865704D01*
X39737037Y-59126008D01*
X39754075Y-59189593D01*
X39819901Y-59303607D01*
X39912993Y-59396699D01*
X40027007Y-59462525D01*
X40090590Y-59479562D01*
X39350893Y-60219258D01*
X39433828Y-60279514D01*
X39644197Y-60386702D01*
X39868752Y-60459665D01*
X39868751Y-60459665D01*
X40101948Y-60496600D01*
X40338052Y-60496600D01*
X40571247Y-60459665D01*
X40795802Y-60386702D01*
X41006163Y-60279518D01*
X41006169Y-60279514D01*
X41089104Y-60219258D01*
X41089105Y-60219258D01*
X40349408Y-59479562D01*
X40412993Y-59462525D01*
X40527007Y-59396699D01*
X40620099Y-59303607D01*
X40685925Y-59189593D01*
X40702962Y-59126008D01*
X41442658Y-59865705D01*
X41442658Y-59865704D01*
X41502914Y-59782769D01*
X41502918Y-59782763D01*
X41610102Y-59572402D01*
X41683065Y-59347847D01*
X41720000Y-59114652D01*
X41720000Y-58878547D01*
X41683065Y-58645352D01*
X41610102Y-58420797D01*
X41502914Y-58210428D01*
X41442658Y-58127494D01*
X41442658Y-58127493D01*
X40702962Y-58867190D01*
X40685925Y-58803607D01*
X40620099Y-58689593D01*
X40527007Y-58596501D01*
X40412993Y-58530675D01*
X40349409Y-58513637D01*
X41089105Y-57773940D01*
X41089104Y-57773938D01*
X41006174Y-57713687D01*
X40795802Y-57606497D01*
X40571247Y-57533534D01*
X40571248Y-57533534D01*
X40338052Y-57496600D01*
X40101948Y-57496600D01*
X39868752Y-57533534D01*
X39644197Y-57606497D01*
X39433830Y-57713684D01*
X39350894Y-57773940D01*
X40090591Y-58513637D01*
X40027007Y-58530675D01*
X39912993Y-58596501D01*
X39819901Y-58689593D01*
X39754075Y-58803607D01*
X39737037Y-58867191D01*
X38997340Y-58127494D01*
X38959733Y-58130454D01*
X38940276Y-58130454D01*
X38902658Y-58127493D01*
X38162962Y-58867190D01*
X38145925Y-58803607D01*
X38080099Y-58689593D01*
X37987007Y-58596501D01*
X37872993Y-58530675D01*
X37809408Y-58513637D01*
X38549105Y-57773940D01*
X38549104Y-57773939D01*
X38466174Y-57713687D01*
X38255802Y-57606497D01*
X38031247Y-57533534D01*
X38031248Y-57533534D01*
X37798052Y-57496600D01*
X37561947Y-57496600D01*
X37432150Y-57517157D01*
X37362857Y-57508202D01*
X37309405Y-57463206D01*
X37288766Y-57396454D01*
X37307491Y-57329140D01*
X37325064Y-57307012D01*
X39891915Y-54740161D01*
X39953234Y-54706679D01*
X40022926Y-54711663D01*
X40067273Y-54740164D01*
X41143998Y-55816889D01*
X41209701Y-55882592D01*
X41255499Y-55928390D01*
X41386601Y-56015990D01*
X41386614Y-56015997D01*
X41532285Y-56076335D01*
X41532290Y-56076337D01*
X41686940Y-56107099D01*
X41686943Y-56107100D01*
X41686945Y-56107100D01*
X41843696Y-56107100D01*
X41910735Y-56126785D01*
X41944013Y-56158213D01*
X42035483Y-56284110D01*
X42202490Y-56451117D01*
X42393567Y-56589943D01*
X42492991Y-56640602D01*
X42604003Y-56697166D01*
X42604005Y-56697166D01*
X42604008Y-56697168D01*
X42663983Y-56716655D01*
X42828631Y-56770153D01*
X43061903Y-56807100D01*
X43061908Y-56807100D01*
X43298097Y-56807100D01*
X43531368Y-56770153D01*
X43755992Y-56697168D01*
X43966433Y-56589943D01*
X44157510Y-56451117D01*
X44324517Y-56284110D01*
X44463343Y-56093033D01*
X44570568Y-55882592D01*
X44643553Y-55657968D01*
X44656795Y-55574359D01*
X44686724Y-55511224D01*
X44691569Y-55506093D01*
X45343924Y-54853738D01*
X45405245Y-54820255D01*
X45450996Y-54818948D01*
X45604701Y-54843293D01*
X45604703Y-54843293D01*
X45840890Y-54843293D01*
X46074161Y-54806346D01*
X46101423Y-54797488D01*
X46298785Y-54733361D01*
X46509226Y-54626136D01*
X46700303Y-54487310D01*
X46867310Y-54320303D01*
X47006136Y-54129226D01*
X47113361Y-53918785D01*
X47186346Y-53694161D01*
X47194787Y-53640869D01*
X47223293Y-53460890D01*
X47223293Y-53224695D01*
X47186346Y-52991424D01*
X47113359Y-52766796D01*
X47023150Y-52589752D01*
X47006136Y-52556360D01*
X46867310Y-52365283D01*
X46700303Y-52198276D01*
X46509226Y-52059450D01*
X46370576Y-51988804D01*
X46319781Y-51940830D01*
X46302986Y-51873010D01*
X46325523Y-51806875D01*
X46380238Y-51763423D01*
X46407474Y-51755847D01*
X46611368Y-51723553D01*
X46835992Y-51650568D01*
X47046433Y-51543343D01*
X47237510Y-51404517D01*
X47404517Y-51237510D01*
X47543343Y-51046433D01*
X47650568Y-50835992D01*
X47723553Y-50611368D01*
X47726939Y-50589991D01*
X47760500Y-50378097D01*
X47760500Y-50141902D01*
X47723553Y-49908631D01*
X47664407Y-49726600D01*
X47650568Y-49684008D01*
X47650566Y-49684005D01*
X47650566Y-49684003D01*
X47543342Y-49473566D01*
X47532637Y-49458832D01*
X47404517Y-49282490D01*
X47237510Y-49115483D01*
X47177145Y-49071625D01*
X47097481Y-49013745D01*
X47054816Y-48958414D01*
X47048837Y-48888801D01*
X47064828Y-48848330D01*
X47067709Y-48843658D01*
X47067712Y-48843656D01*
X47159814Y-48694334D01*
X47214999Y-48527797D01*
X47225500Y-48425009D01*
X47225499Y-47649992D01*
X47224592Y-47641117D01*
X47214999Y-47547203D01*
X47214998Y-47547200D01*
X47190777Y-47474106D01*
X47159814Y-47380666D01*
X47067712Y-47231344D01*
X46943656Y-47107288D01*
X46940342Y-47105243D01*
X46938546Y-47103248D01*
X46937989Y-47102807D01*
X46938064Y-47102711D01*
X46893618Y-47053297D01*
X46882397Y-46984334D01*
X46910240Y-46920252D01*
X46940348Y-46894165D01*
X46943342Y-46892318D01*
X47067315Y-46768345D01*
X47159356Y-46619124D01*
X47159358Y-46619119D01*
X47214505Y-46452697D01*
X47214506Y-46452690D01*
X47224999Y-46349986D01*
X47225000Y-46349973D01*
X47225000Y-46212500D01*
X44775001Y-46212500D01*
X44775001Y-46349986D01*
X44785494Y-46452697D01*
X44840641Y-46619119D01*
X44840643Y-46619124D01*
X44932684Y-46768345D01*
X45056655Y-46892316D01*
X45056659Y-46892319D01*
X45059656Y-46894168D01*
X45061279Y-46895972D01*
X45062323Y-46896798D01*
X45062181Y-46896976D01*
X45106381Y-46946116D01*
X45117602Y-47015079D01*
X45089759Y-47079161D01*
X45059661Y-47105241D01*
X45056349Y-47107283D01*
X45056343Y-47107288D01*
X44932289Y-47231342D01*
X44861734Y-47345731D01*
X44809786Y-47392455D01*
X44740823Y-47403678D01*
X44676741Y-47375834D01*
X44638264Y-47318953D01*
X44588165Y-47164765D01*
X44570568Y-47110608D01*
X44570566Y-47110605D01*
X44570566Y-47110603D01*
X44486755Y-46946116D01*
X44463343Y-46900167D01*
X44324517Y-46709090D01*
X44157510Y-46542083D01*
X43966433Y-46403257D01*
X43755996Y-46296033D01*
X43531368Y-46223046D01*
X43298097Y-46186100D01*
X43298092Y-46186100D01*
X43061908Y-46186100D01*
X43061903Y-46186100D01*
X42828631Y-46223046D01*
X42604003Y-46296033D01*
X42393566Y-46403257D01*
X42325519Y-46452697D01*
X42202490Y-46542083D01*
X42202488Y-46542085D01*
X42202487Y-46542085D01*
X42035484Y-46709088D01*
X41917163Y-46871942D01*
X41861832Y-46914607D01*
X41792219Y-46920586D01*
X41730424Y-46887980D01*
X41696067Y-46827141D01*
X41694372Y-46779658D01*
X41720500Y-46614697D01*
X41720500Y-46378502D01*
X41683553Y-46145231D01*
X41610566Y-45920603D01*
X41554002Y-45809591D01*
X41503343Y-45710167D01*
X41405148Y-45575013D01*
X44775000Y-45575013D01*
X44775000Y-45712500D01*
X45750000Y-45712500D01*
X46250000Y-45712500D01*
X47224999Y-45712500D01*
X47224999Y-45575028D01*
X47224998Y-45575013D01*
X47214505Y-45472302D01*
X47159358Y-45305880D01*
X47159356Y-45305875D01*
X47067315Y-45156654D01*
X46943345Y-45032684D01*
X46794124Y-44940643D01*
X46794119Y-44940641D01*
X46627697Y-44885494D01*
X46627690Y-44885493D01*
X46524986Y-44875000D01*
X46250000Y-44875000D01*
X46250000Y-45712500D01*
X45750000Y-45712500D01*
X45750000Y-44875000D01*
X45475029Y-44875000D01*
X45475012Y-44875001D01*
X45372302Y-44885494D01*
X45205880Y-44940641D01*
X45205875Y-44940643D01*
X45056654Y-45032684D01*
X44932684Y-45156654D01*
X44840643Y-45305875D01*
X44840641Y-45305880D01*
X44785494Y-45472302D01*
X44785493Y-45472309D01*
X44775000Y-45575013D01*
X41405148Y-45575013D01*
X41364517Y-45519090D01*
X41197510Y-45352083D01*
X41006433Y-45213257D01*
X40795996Y-45106033D01*
X40571368Y-45033046D01*
X40338097Y-44996100D01*
X40338092Y-44996100D01*
X40101908Y-44996100D01*
X40101903Y-44996100D01*
X39868631Y-45033046D01*
X39644003Y-45106033D01*
X39433566Y-45213257D01*
X39324550Y-45292462D01*
X39242490Y-45352083D01*
X39242488Y-45352085D01*
X39242487Y-45352085D01*
X39075484Y-45519088D01*
X39050318Y-45553727D01*
X38994987Y-45596392D01*
X38925374Y-45602371D01*
X38863579Y-45569765D01*
X38849682Y-45553727D01*
X38824517Y-45519090D01*
X38657510Y-45352083D01*
X38466433Y-45213257D01*
X38255996Y-45106033D01*
X38031368Y-45033046D01*
X37798097Y-44996100D01*
X37798092Y-44996100D01*
X37561908Y-44996100D01*
X37561903Y-44996100D01*
X37414250Y-45019486D01*
X37344957Y-45010531D01*
X37307171Y-44984694D01*
X36396291Y-44073813D01*
X36396287Y-44073810D01*
X36265184Y-43986209D01*
X36265171Y-43986202D01*
X36119500Y-43925864D01*
X36119488Y-43925861D01*
X35964844Y-43895100D01*
X35964841Y-43895100D01*
X30326192Y-43895100D01*
X30168508Y-43895100D01*
X30168505Y-43895100D01*
X30013860Y-43925861D01*
X30013848Y-43925864D01*
X29868177Y-43986202D01*
X29868164Y-43986209D01*
X29737061Y-44073810D01*
X29737057Y-44073813D01*
X27358183Y-46452690D01*
X26888711Y-46922162D01*
X26858296Y-46952577D01*
X26777209Y-47033663D01*
X26689609Y-47164765D01*
X26689602Y-47164778D01*
X26629264Y-47310449D01*
X26629261Y-47310461D01*
X26598500Y-47465104D01*
X20040500Y-47465104D01*
X20040500Y-39742135D01*
X51989500Y-39742135D01*
X51989500Y-41537870D01*
X51989501Y-41537876D01*
X51995908Y-41597483D01*
X52046202Y-41732328D01*
X52046206Y-41732335D01*
X52132452Y-41847544D01*
X52132455Y-41847547D01*
X52247664Y-41933793D01*
X52247671Y-41933797D01*
X52379082Y-41982810D01*
X52435016Y-42024681D01*
X52459433Y-42090145D01*
X52444582Y-42158418D01*
X52423431Y-42186673D01*
X52309889Y-42300215D01*
X52184951Y-42472179D01*
X52088444Y-42661585D01*
X52022753Y-42863760D01*
X51989500Y-43073713D01*
X51989500Y-43286286D01*
X52022753Y-43496239D01*
X52088444Y-43698414D01*
X52184951Y-43887820D01*
X52309890Y-44059786D01*
X52460213Y-44210109D01*
X52632182Y-44335050D01*
X52640946Y-44339516D01*
X52691742Y-44387491D01*
X52708536Y-44455312D01*
X52685998Y-44521447D01*
X52640946Y-44560484D01*
X52632182Y-44564949D01*
X52460213Y-44689890D01*
X52309890Y-44840213D01*
X52184951Y-45012179D01*
X52088444Y-45201585D01*
X52088443Y-45201587D01*
X52088443Y-45201588D01*
X52055598Y-45302672D01*
X52022753Y-45403760D01*
X51995627Y-45575028D01*
X51989500Y-45613713D01*
X51989500Y-45826287D01*
X52022754Y-46036243D01*
X52083450Y-46223046D01*
X52088444Y-46238414D01*
X52184951Y-46427820D01*
X52309890Y-46599786D01*
X52460213Y-46750109D01*
X52632182Y-46875050D01*
X52640946Y-46879516D01*
X52691742Y-46927491D01*
X52708536Y-46995312D01*
X52685998Y-47061447D01*
X52640946Y-47100484D01*
X52632182Y-47104949D01*
X52460213Y-47229890D01*
X52309890Y-47380213D01*
X52184951Y-47552179D01*
X52088444Y-47741585D01*
X52022753Y-47943760D01*
X51989500Y-48153713D01*
X51989500Y-48366287D01*
X51993422Y-48391051D01*
X52015080Y-48527796D01*
X52022754Y-48576243D01*
X52074167Y-48734476D01*
X52088444Y-48778414D01*
X52184951Y-48967820D01*
X52309890Y-49139786D01*
X52460213Y-49290109D01*
X52632179Y-49415048D01*
X52632181Y-49415049D01*
X52632184Y-49415051D01*
X52641493Y-49419794D01*
X52692290Y-49467766D01*
X52709087Y-49535587D01*
X52686552Y-49601722D01*
X52641505Y-49640760D01*
X52632446Y-49645376D01*
X52632440Y-49645380D01*
X52578282Y-49684727D01*
X52578282Y-49684728D01*
X53210591Y-50317037D01*
X53147007Y-50334075D01*
X53032993Y-50399901D01*
X52939901Y-50492993D01*
X52874075Y-50607007D01*
X52857037Y-50670591D01*
X52224728Y-50038282D01*
X52224727Y-50038282D01*
X52185380Y-50092439D01*
X52088904Y-50281782D01*
X52023242Y-50483869D01*
X52023242Y-50483872D01*
X51990000Y-50693753D01*
X51990000Y-50906246D01*
X52023242Y-51116127D01*
X52023242Y-51116130D01*
X52088904Y-51318217D01*
X52185375Y-51507550D01*
X52224728Y-51561716D01*
X52857037Y-50929408D01*
X52874075Y-50992993D01*
X52939901Y-51107007D01*
X53032993Y-51200099D01*
X53147007Y-51265925D01*
X53210590Y-51282962D01*
X52578282Y-51915269D01*
X52578282Y-51915270D01*
X52632452Y-51954626D01*
X52632451Y-51954626D01*
X52641495Y-51959234D01*
X52692292Y-52007208D01*
X52709087Y-52075029D01*
X52686550Y-52141164D01*
X52641499Y-52180202D01*
X52632182Y-52184949D01*
X52460213Y-52309890D01*
X52309890Y-52460213D01*
X52184951Y-52632179D01*
X52088444Y-52821585D01*
X52022753Y-53023760D01*
X52002735Y-53150152D01*
X51989500Y-53233713D01*
X51989500Y-53446287D01*
X52022754Y-53656243D01*
X52051304Y-53744111D01*
X52088444Y-53858414D01*
X52184951Y-54047820D01*
X52309890Y-54219786D01*
X52460213Y-54370109D01*
X52632182Y-54495050D01*
X52640946Y-54499516D01*
X52691742Y-54547491D01*
X52708536Y-54615312D01*
X52685998Y-54681447D01*
X52640946Y-54720484D01*
X52632182Y-54724949D01*
X52460213Y-54849890D01*
X52309890Y-55000213D01*
X52184951Y-55172179D01*
X52088444Y-55361585D01*
X52022753Y-55563760D01*
X51989500Y-55773713D01*
X51989500Y-55986286D01*
X52016730Y-56158214D01*
X52022754Y-56196243D01*
X52051304Y-56284111D01*
X52088444Y-56398414D01*
X52184951Y-56587820D01*
X52309890Y-56759786D01*
X52460213Y-56910109D01*
X52632179Y-57035048D01*
X52632181Y-57035049D01*
X52632184Y-57035051D01*
X52821588Y-57131557D01*
X53023757Y-57197246D01*
X53233713Y-57230500D01*
X53233714Y-57230500D01*
X53446286Y-57230500D01*
X53446287Y-57230500D01*
X53656243Y-57197246D01*
X53858412Y-57131557D01*
X54047816Y-57035051D01*
X54069789Y-57019086D01*
X54219786Y-56910109D01*
X54219788Y-56910106D01*
X54219792Y-56910104D01*
X54370104Y-56759792D01*
X54370106Y-56759788D01*
X54370109Y-56759786D01*
X54495048Y-56587820D01*
X54495047Y-56587820D01*
X54495051Y-56587816D01*
X54591557Y-56398412D01*
X54657246Y-56196243D01*
X54690500Y-55986287D01*
X54690500Y-55773713D01*
X54657246Y-55563757D01*
X54591557Y-55361588D01*
X54495051Y-55172184D01*
X54495049Y-55172181D01*
X54495048Y-55172179D01*
X54370109Y-55000213D01*
X54219786Y-54849890D01*
X54047820Y-54724951D01*
X54047115Y-54724591D01*
X54039054Y-54720485D01*
X53988259Y-54672512D01*
X53971463Y-54604692D01*
X53993999Y-54538556D01*
X54039054Y-54499515D01*
X54047816Y-54495051D01*
X54126356Y-54437989D01*
X54219786Y-54370109D01*
X54219788Y-54370106D01*
X54219792Y-54370104D01*
X54370104Y-54219792D01*
X54370106Y-54219788D01*
X54370109Y-54219786D01*
X54495048Y-54047820D01*
X54495047Y-54047820D01*
X54495051Y-54047816D01*
X54591557Y-53858412D01*
X54657246Y-53656243D01*
X54690500Y-53446287D01*
X54690500Y-53233713D01*
X54657246Y-53023757D01*
X54591557Y-52821588D01*
X54495051Y-52632184D01*
X54495049Y-52632181D01*
X54495048Y-52632179D01*
X54370109Y-52460213D01*
X54219786Y-52309890D01*
X54047817Y-52184949D01*
X54038504Y-52180204D01*
X53987707Y-52132230D01*
X53970912Y-52064409D01*
X53993449Y-51998274D01*
X54038507Y-51959232D01*
X54047555Y-51954622D01*
X54101716Y-51915270D01*
X54101717Y-51915270D01*
X53469408Y-51282962D01*
X53532993Y-51265925D01*
X53647007Y-51200099D01*
X53740099Y-51107007D01*
X53805925Y-50992993D01*
X53822962Y-50929408D01*
X54455270Y-51561717D01*
X54455270Y-51561716D01*
X54494622Y-51507554D01*
X54591095Y-51318217D01*
X54656757Y-51116130D01*
X54656757Y-51116127D01*
X54690000Y-50906246D01*
X54690000Y-50693753D01*
X54656757Y-50483872D01*
X54656757Y-50483869D01*
X54591095Y-50281782D01*
X54494624Y-50092449D01*
X54455270Y-50038282D01*
X54455269Y-50038282D01*
X53822962Y-50670590D01*
X53805925Y-50607007D01*
X53740099Y-50492993D01*
X53647007Y-50399901D01*
X53532993Y-50334075D01*
X53469409Y-50317037D01*
X54101716Y-49684728D01*
X54047547Y-49645373D01*
X54047547Y-49645372D01*
X54038500Y-49640763D01*
X53987706Y-49592788D01*
X53970912Y-49524966D01*
X53993451Y-49458832D01*
X54038508Y-49419793D01*
X54047816Y-49415051D01*
X54127007Y-49357515D01*
X54219786Y-49290109D01*
X54219788Y-49290106D01*
X54219792Y-49290104D01*
X54370104Y-49139792D01*
X54370106Y-49139788D01*
X54370109Y-49139786D01*
X54495048Y-48967820D01*
X54495047Y-48967820D01*
X54495051Y-48967816D01*
X54591557Y-48778412D01*
X54657246Y-48576243D01*
X54690500Y-48366287D01*
X54690500Y-48153713D01*
X54657246Y-47943757D01*
X54591557Y-47741588D01*
X54495051Y-47552184D01*
X54495049Y-47552181D01*
X54495048Y-47552179D01*
X54370109Y-47380213D01*
X54219786Y-47229890D01*
X54047820Y-47104951D01*
X54047115Y-47104591D01*
X54039054Y-47100485D01*
X53988259Y-47052512D01*
X53971463Y-46984692D01*
X53993999Y-46918556D01*
X54039054Y-46879515D01*
X54047816Y-46875051D01*
X54134138Y-46812335D01*
X54219786Y-46750109D01*
X54219788Y-46750106D01*
X54219792Y-46750104D01*
X54370104Y-46599792D01*
X54370106Y-46599788D01*
X54370109Y-46599786D01*
X54495048Y-46427820D01*
X54495047Y-46427820D01*
X54495051Y-46427816D01*
X54591557Y-46238412D01*
X54657246Y-46036243D01*
X54690500Y-45826287D01*
X54690500Y-45613713D01*
X54657246Y-45403757D01*
X54591557Y-45201588D01*
X54495051Y-45012184D01*
X54481077Y-44992950D01*
X54407511Y-44891694D01*
X54407508Y-44891691D01*
X54395381Y-44875000D01*
X54370104Y-44840208D01*
X54352031Y-44822135D01*
X57069500Y-44822135D01*
X57069500Y-46617870D01*
X57069501Y-46617876D01*
X57075908Y-46677483D01*
X57126202Y-46812328D01*
X57126206Y-46812335D01*
X57212452Y-46927544D01*
X57212455Y-46927547D01*
X57327664Y-47013793D01*
X57327671Y-47013797D01*
X57459082Y-47062810D01*
X57515016Y-47104681D01*
X57539433Y-47170145D01*
X57524582Y-47238418D01*
X57503431Y-47266673D01*
X57389889Y-47380215D01*
X57264951Y-47552179D01*
X57168444Y-47741585D01*
X57102753Y-47943760D01*
X57069500Y-48153713D01*
X57069500Y-48366287D01*
X57073422Y-48391051D01*
X57095080Y-48527796D01*
X57102754Y-48576243D01*
X57154167Y-48734476D01*
X57168444Y-48778414D01*
X57264951Y-48967820D01*
X57389890Y-49139786D01*
X57540213Y-49290109D01*
X57712179Y-49415048D01*
X57712181Y-49415049D01*
X57712184Y-49415051D01*
X57721493Y-49419794D01*
X57772290Y-49467766D01*
X57789087Y-49535587D01*
X57766552Y-49601722D01*
X57721505Y-49640760D01*
X57712446Y-49645376D01*
X57712440Y-49645380D01*
X57658282Y-49684727D01*
X57658282Y-49684728D01*
X58290591Y-50317037D01*
X58227007Y-50334075D01*
X58112993Y-50399901D01*
X58019901Y-50492993D01*
X57954075Y-50607007D01*
X57937037Y-50670591D01*
X57304728Y-50038282D01*
X57304727Y-50038282D01*
X57265380Y-50092439D01*
X57168904Y-50281782D01*
X57103242Y-50483869D01*
X57103242Y-50483872D01*
X57070000Y-50693753D01*
X57070000Y-50906246D01*
X57103242Y-51116127D01*
X57103242Y-51116130D01*
X57168904Y-51318217D01*
X57265375Y-51507550D01*
X57304728Y-51561716D01*
X57937037Y-50929408D01*
X57954075Y-50992993D01*
X58019901Y-51107007D01*
X58112993Y-51200099D01*
X58227007Y-51265925D01*
X58290590Y-51282962D01*
X57658282Y-51915269D01*
X57658282Y-51915270D01*
X57712452Y-51954626D01*
X57712451Y-51954626D01*
X57721495Y-51959234D01*
X57772292Y-52007208D01*
X57789087Y-52075029D01*
X57766550Y-52141164D01*
X57721499Y-52180202D01*
X57712182Y-52184949D01*
X57540213Y-52309890D01*
X57389890Y-52460213D01*
X57264951Y-52632179D01*
X57168444Y-52821585D01*
X57102753Y-53023760D01*
X57082735Y-53150152D01*
X57069500Y-53233713D01*
X57069500Y-53446287D01*
X57102754Y-53656243D01*
X57131304Y-53744111D01*
X57168444Y-53858414D01*
X57264951Y-54047820D01*
X57389890Y-54219786D01*
X57540213Y-54370109D01*
X57712182Y-54495050D01*
X57720946Y-54499516D01*
X57771742Y-54547491D01*
X57788536Y-54615312D01*
X57765998Y-54681447D01*
X57720946Y-54720484D01*
X57712182Y-54724949D01*
X57540213Y-54849890D01*
X57389890Y-55000213D01*
X57264951Y-55172179D01*
X57168444Y-55361585D01*
X57102753Y-55563760D01*
X57069500Y-55773713D01*
X57069500Y-55986286D01*
X57096730Y-56158214D01*
X57102754Y-56196243D01*
X57131304Y-56284111D01*
X57168444Y-56398414D01*
X57264951Y-56587820D01*
X57389890Y-56759786D01*
X57540213Y-56910109D01*
X57712179Y-57035048D01*
X57712181Y-57035049D01*
X57712184Y-57035051D01*
X57901588Y-57131557D01*
X58103757Y-57197246D01*
X58313713Y-57230500D01*
X58313714Y-57230500D01*
X58526286Y-57230500D01*
X58526287Y-57230500D01*
X58736243Y-57197246D01*
X58938412Y-57131557D01*
X59127816Y-57035051D01*
X59149789Y-57019086D01*
X59299786Y-56910109D01*
X59299788Y-56910106D01*
X59299792Y-56910104D01*
X59450104Y-56759792D01*
X59450106Y-56759788D01*
X59450109Y-56759786D01*
X59575048Y-56587820D01*
X59575047Y-56587820D01*
X59575051Y-56587816D01*
X59671557Y-56398412D01*
X59737246Y-56196243D01*
X59770500Y-55986287D01*
X59770500Y-55773713D01*
X59737246Y-55563757D01*
X59671557Y-55361588D01*
X59575051Y-55172184D01*
X59575049Y-55172181D01*
X59575048Y-55172179D01*
X59450109Y-55000213D01*
X59299786Y-54849890D01*
X59127820Y-54724951D01*
X59127115Y-54724591D01*
X59119054Y-54720485D01*
X59068259Y-54672512D01*
X59051463Y-54604692D01*
X59073999Y-54538556D01*
X59119054Y-54499515D01*
X59127816Y-54495051D01*
X59206356Y-54437989D01*
X59299786Y-54370109D01*
X59299788Y-54370106D01*
X59299792Y-54370104D01*
X59450104Y-54219792D01*
X59450106Y-54219788D01*
X59450109Y-54219786D01*
X59575048Y-54047820D01*
X59575047Y-54047820D01*
X59575051Y-54047816D01*
X59671557Y-53858412D01*
X59737246Y-53656243D01*
X59770500Y-53446287D01*
X59770500Y-53233713D01*
X59737246Y-53023757D01*
X59671557Y-52821588D01*
X59575051Y-52632184D01*
X59575049Y-52632181D01*
X59575048Y-52632179D01*
X59450109Y-52460213D01*
X59299786Y-52309890D01*
X59127817Y-52184949D01*
X59118504Y-52180204D01*
X59067707Y-52132230D01*
X59050912Y-52064409D01*
X59073449Y-51998274D01*
X59118507Y-51959232D01*
X59127555Y-51954622D01*
X59181716Y-51915270D01*
X59181717Y-51915270D01*
X58549408Y-51282962D01*
X58612993Y-51265925D01*
X58727007Y-51200099D01*
X58820099Y-51107007D01*
X58885925Y-50992993D01*
X58902962Y-50929408D01*
X59535270Y-51561717D01*
X59535270Y-51561716D01*
X59574622Y-51507554D01*
X59671095Y-51318217D01*
X59736757Y-51116130D01*
X59736757Y-51116127D01*
X59770000Y-50906246D01*
X59770000Y-50693753D01*
X59736757Y-50483872D01*
X59736757Y-50483869D01*
X59671095Y-50281782D01*
X59574624Y-50092449D01*
X59535270Y-50038282D01*
X59535269Y-50038282D01*
X58902962Y-50670590D01*
X58885925Y-50607007D01*
X58820099Y-50492993D01*
X58727007Y-50399901D01*
X58612993Y-50334075D01*
X58549409Y-50317037D01*
X59181716Y-49684728D01*
X59127547Y-49645373D01*
X59127547Y-49645372D01*
X59118500Y-49640763D01*
X59067706Y-49592788D01*
X59050912Y-49524966D01*
X59073451Y-49458832D01*
X59118508Y-49419793D01*
X59127816Y-49415051D01*
X59207007Y-49357515D01*
X59299786Y-49290109D01*
X59299788Y-49290106D01*
X59299792Y-49290104D01*
X59450104Y-49139792D01*
X59450106Y-49139788D01*
X59450109Y-49139786D01*
X59575048Y-48967820D01*
X59575047Y-48967820D01*
X59575051Y-48967816D01*
X59671557Y-48778412D01*
X59737246Y-48576243D01*
X59770500Y-48366287D01*
X59770500Y-48153713D01*
X59737246Y-47943757D01*
X59671557Y-47741588D01*
X59575051Y-47552184D01*
X59575049Y-47552181D01*
X59575048Y-47552179D01*
X59450109Y-47380213D01*
X59336569Y-47266673D01*
X59303084Y-47205350D01*
X59308068Y-47135658D01*
X59349940Y-47079725D01*
X59380915Y-47062810D01*
X59512331Y-47013796D01*
X59627546Y-46927546D01*
X59713796Y-46812331D01*
X59764091Y-46677483D01*
X59770500Y-46617873D01*
X59770499Y-44822128D01*
X59764091Y-44762517D01*
X59713796Y-44627669D01*
X59713795Y-44627668D01*
X59713793Y-44627664D01*
X59627547Y-44512455D01*
X59627544Y-44512452D01*
X59512335Y-44426206D01*
X59512328Y-44426202D01*
X59377482Y-44375908D01*
X59377483Y-44375908D01*
X59317883Y-44369501D01*
X59317881Y-44369500D01*
X59317873Y-44369500D01*
X59317864Y-44369500D01*
X57522129Y-44369500D01*
X57522123Y-44369501D01*
X57462516Y-44375908D01*
X57327671Y-44426202D01*
X57327664Y-44426206D01*
X57212455Y-44512452D01*
X57212452Y-44512455D01*
X57126206Y-44627664D01*
X57126202Y-44627671D01*
X57075908Y-44762517D01*
X57069501Y-44822116D01*
X57069501Y-44822123D01*
X57069500Y-44822135D01*
X54352031Y-44822135D01*
X54219792Y-44689896D01*
X54219786Y-44689890D01*
X54047820Y-44564951D01*
X54047115Y-44564591D01*
X54039054Y-44560485D01*
X53988259Y-44512512D01*
X53971463Y-44444692D01*
X53993999Y-44378556D01*
X54039054Y-44339515D01*
X54047816Y-44335051D01*
X54069789Y-44319086D01*
X54219786Y-44210109D01*
X54219788Y-44210106D01*
X54219792Y-44210104D01*
X54370104Y-44059792D01*
X54370106Y-44059788D01*
X54370109Y-44059786D01*
X54495048Y-43887820D01*
X54495047Y-43887820D01*
X54495051Y-43887816D01*
X54591557Y-43698412D01*
X54657246Y-43496243D01*
X54690500Y-43286287D01*
X54690500Y-43073713D01*
X54657246Y-42863757D01*
X54591557Y-42661588D01*
X54495051Y-42472184D01*
X54370104Y-42300208D01*
X54256569Y-42186673D01*
X54223084Y-42125350D01*
X54228068Y-42055658D01*
X54269940Y-41999725D01*
X54300915Y-41982810D01*
X54432331Y-41933796D01*
X54547546Y-41847546D01*
X54633796Y-41732331D01*
X54684091Y-41597483D01*
X54690500Y-41537873D01*
X54690499Y-39742128D01*
X54684091Y-39682517D01*
X54633796Y-39547669D01*
X54633795Y-39547668D01*
X54633793Y-39547664D01*
X54547547Y-39432455D01*
X54547544Y-39432452D01*
X54432335Y-39346206D01*
X54432328Y-39346202D01*
X54297482Y-39295908D01*
X54297483Y-39295908D01*
X54237883Y-39289501D01*
X54237881Y-39289500D01*
X54237873Y-39289500D01*
X54237864Y-39289500D01*
X52442129Y-39289500D01*
X52442123Y-39289501D01*
X52382516Y-39295908D01*
X52247671Y-39346202D01*
X52247664Y-39346206D01*
X52132455Y-39432452D01*
X52132452Y-39432455D01*
X52046206Y-39547664D01*
X52046202Y-39547671D01*
X51995908Y-39682517D01*
X51989501Y-39742116D01*
X51989501Y-39742123D01*
X51989500Y-39742135D01*
X20040500Y-39742135D01*
X20040500Y-35164500D01*
X20060185Y-35097461D01*
X20112989Y-35051706D01*
X20164500Y-35040500D01*
X64835500Y-35040500D01*
X64902539Y-35060185D01*
G37*
%TD.AperFunction*%
%TD*%
M02*
