%TF.GenerationSoftware,KiCad,Pcbnew,9.0.4*%
%TF.CreationDate,2026-03-15T16:45:00+00:00*%
%TF.ProjectId,Line following V3,4c696e65-2066-46f6-9c6c-6f77696e6720,rev?*%
%TF.SameCoordinates,Original*%
%TF.FileFunction,Legend,Bot*%
%TF.FilePolarity,Positive*%
%FSLAX46Y46*%
G04 Gerber Fmt 4.6, Leading zero omitted, Abs format (unit mm)*
G04 Created by KiCad (PCBNEW 9.0.4) date 2026-03-15 16:45:00*
%MOMM*%
%LPD*%
G01*
G04 APERTURE LIST*
%ADD10C,0.150000*%
%ADD11C,0.254000*%
%ADD12C,0.120000*%
%ADD13C,0.100000*%
G04 APERTURE END LIST*
D10*
X99334819Y-42856666D02*
X100049104Y-42856666D01*
X100049104Y-42856666D02*
X100191961Y-42809047D01*
X100191961Y-42809047D02*
X100287200Y-42713809D01*
X100287200Y-42713809D02*
X100334819Y-42570952D01*
X100334819Y-42570952D02*
X100334819Y-42475714D01*
X100334819Y-43856666D02*
X100334819Y-43285238D01*
X100334819Y-43570952D02*
X99334819Y-43570952D01*
X99334819Y-43570952D02*
X99477676Y-43475714D01*
X99477676Y-43475714D02*
X99572914Y-43380476D01*
X99572914Y-43380476D02*
X99620533Y-43285238D01*
D11*
X114370270Y-34074047D02*
X114309794Y-33953095D01*
X114309794Y-33953095D02*
X114188842Y-33832142D01*
X114188842Y-33832142D02*
X114007413Y-33650714D01*
X114007413Y-33650714D02*
X113946937Y-33529761D01*
X113946937Y-33529761D02*
X113946937Y-33408809D01*
X114249318Y-33469285D02*
X114188842Y-33348333D01*
X114188842Y-33348333D02*
X114067889Y-33227380D01*
X114067889Y-33227380D02*
X113825984Y-33166904D01*
X113825984Y-33166904D02*
X113402651Y-33166904D01*
X113402651Y-33166904D02*
X113160746Y-33227380D01*
X113160746Y-33227380D02*
X113039794Y-33348333D01*
X113039794Y-33348333D02*
X112979318Y-33469285D01*
X112979318Y-33469285D02*
X112979318Y-33711190D01*
X112979318Y-33711190D02*
X113039794Y-33832142D01*
X113039794Y-33832142D02*
X113160746Y-33953095D01*
X113160746Y-33953095D02*
X113402651Y-34013571D01*
X113402651Y-34013571D02*
X113825984Y-34013571D01*
X113825984Y-34013571D02*
X114067889Y-33953095D01*
X114067889Y-33953095D02*
X114188842Y-33832142D01*
X114188842Y-33832142D02*
X114249318Y-33711190D01*
X114249318Y-33711190D02*
X114249318Y-33469285D01*
X114249318Y-35223095D02*
X114249318Y-34497380D01*
X114249318Y-34860237D02*
X112979318Y-34860237D01*
X112979318Y-34860237D02*
X113160746Y-34739285D01*
X113160746Y-34739285D02*
X113281699Y-34618333D01*
X113281699Y-34618333D02*
X113342175Y-34497380D01*
D10*
X114451904Y-51284819D02*
X114451904Y-52094342D01*
X114451904Y-52094342D02*
X114404285Y-52189580D01*
X114404285Y-52189580D02*
X114356666Y-52237200D01*
X114356666Y-52237200D02*
X114261428Y-52284819D01*
X114261428Y-52284819D02*
X114070952Y-52284819D01*
X114070952Y-52284819D02*
X113975714Y-52237200D01*
X113975714Y-52237200D02*
X113928095Y-52189580D01*
X113928095Y-52189580D02*
X113880476Y-52094342D01*
X113880476Y-52094342D02*
X113880476Y-51284819D01*
X113451904Y-51380057D02*
X113404285Y-51332438D01*
X113404285Y-51332438D02*
X113309047Y-51284819D01*
X113309047Y-51284819D02*
X113070952Y-51284819D01*
X113070952Y-51284819D02*
X112975714Y-51332438D01*
X112975714Y-51332438D02*
X112928095Y-51380057D01*
X112928095Y-51380057D02*
X112880476Y-51475295D01*
X112880476Y-51475295D02*
X112880476Y-51570533D01*
X112880476Y-51570533D02*
X112928095Y-51713390D01*
X112928095Y-51713390D02*
X113499523Y-52284819D01*
X113499523Y-52284819D02*
X112880476Y-52284819D01*
D12*
%TO.C,J1*%
X102000000Y-35170000D02*
X106000000Y-35170000D01*
X100970000Y-35460000D02*
X106990000Y-35460000D01*
X106990000Y-35460000D02*
X106990000Y-50920000D01*
X100970000Y-36040000D02*
X101570000Y-36040000D01*
X101570000Y-36040000D02*
X101570000Y-37640000D01*
X105990000Y-36840000D02*
X105460000Y-37090000D01*
X105990000Y-36840000D02*
X105990000Y-49540000D01*
X106990000Y-36840000D02*
X105990000Y-36840000D01*
X105460000Y-37090000D02*
X105460000Y-49290000D01*
X106990000Y-37090000D02*
X105990000Y-37090000D01*
X101570000Y-37640000D02*
X100970000Y-37640000D01*
X100970000Y-38580000D02*
X101570000Y-38580000D01*
X101570000Y-38580000D02*
X101570000Y-40180000D01*
X101570000Y-40180000D02*
X100970000Y-40180000D01*
X100970000Y-41120000D02*
X101570000Y-41120000D01*
X101570000Y-41120000D02*
X101570000Y-42720000D01*
X101570000Y-42720000D02*
X100970000Y-42720000D01*
X100970000Y-43660000D02*
X101570000Y-43660000D01*
X101570000Y-43660000D02*
X101570000Y-45260000D01*
X101570000Y-45260000D02*
X100970000Y-45260000D01*
X100970000Y-46200000D02*
X101570000Y-46200000D01*
X101570000Y-46200000D02*
X101570000Y-47800000D01*
X101570000Y-47800000D02*
X100970000Y-47800000D01*
X100970000Y-48740000D02*
X101570000Y-48740000D01*
X101570000Y-48740000D02*
X101570000Y-50340000D01*
X105460000Y-49290000D02*
X105990000Y-49540000D01*
X106990000Y-49290000D02*
X105990000Y-49290000D01*
X105990000Y-49540000D02*
X106990000Y-49540000D01*
X101570000Y-50340000D02*
X100970000Y-50340000D01*
X100970000Y-50920000D02*
X100970000Y-35460000D01*
X106990000Y-50920000D02*
X100970000Y-50920000D01*
D13*
%TO.C,Q1*%
X110730000Y-29070000D02*
X110730000Y-32670000D01*
X110730000Y-38170000D02*
X110730000Y-35670000D01*
X116530000Y-29070000D02*
X110730000Y-29070000D01*
X116530000Y-29070000D02*
X116530000Y-32670000D01*
X116530000Y-39270000D02*
X112105000Y-39270000D01*
X116530000Y-39270000D02*
X116530000Y-35670000D01*
D12*
%TO.C,U2*%
X111440000Y-40550000D02*
X115940000Y-40550000D01*
X111440000Y-50830000D02*
X111440000Y-40550000D01*
X112690000Y-50830000D02*
X111440000Y-50830000D01*
X115940000Y-40550000D02*
X115940000Y-50830000D01*
X115940000Y-50830000D02*
X114690000Y-50830000D01*
X112690000Y-50830000D02*
G75*
G02*
X114690000Y-50830000I1000000J0D01*
G01*
%TD*%
M02*
