%TF.GenerationSoftware,KiCad,Pcbnew,9.0.4*%
%TF.CreationDate,2026-03-15T16:45:00+00:00*%
%TF.ProjectId,Line following V3,4c696e65-2066-46f6-9c6c-6f77696e6720,rev?*%
%TF.SameCoordinates,Original*%
%TF.FileFunction,Legend,Top*%
%TF.FilePolarity,Positive*%
%FSLAX46Y46*%
G04 Gerber Fmt 4.6, Leading zero omitted, Abs format (unit mm)*
G04 Created by KiCad (PCBNEW 9.0.4) date 2026-03-15 16:45:00*
%MOMM*%
%LPD*%
G01*
G04 APERTURE LIST*
%ADD10C,0.150000*%
%ADD11C,0.120000*%
G04 APERTURE END LIST*
D10*
X114738095Y-52504819D02*
X114738095Y-51504819D01*
X114738095Y-51981009D02*
X115309523Y-51981009D01*
X115309523Y-52504819D02*
X115309523Y-51504819D01*
X115738095Y-51600057D02*
X115785714Y-51552438D01*
X115785714Y-51552438D02*
X115880952Y-51504819D01*
X115880952Y-51504819D02*
X116119047Y-51504819D01*
X116119047Y-51504819D02*
X116214285Y-51552438D01*
X116214285Y-51552438D02*
X116261904Y-51600057D01*
X116261904Y-51600057D02*
X116309523Y-51695295D01*
X116309523Y-51695295D02*
X116309523Y-51790533D01*
X116309523Y-51790533D02*
X116261904Y-51933390D01*
X116261904Y-51933390D02*
X115690476Y-52504819D01*
X115690476Y-52504819D02*
X116309523Y-52504819D01*
X103238095Y-52504819D02*
X103238095Y-51504819D01*
X103238095Y-51981009D02*
X103809523Y-51981009D01*
X103809523Y-52504819D02*
X103809523Y-51504819D01*
X104809523Y-52504819D02*
X104238095Y-52504819D01*
X104523809Y-52504819D02*
X104523809Y-51504819D01*
X104523809Y-51504819D02*
X104428571Y-51647676D01*
X104428571Y-51647676D02*
X104333333Y-51742914D01*
X104333333Y-51742914D02*
X104238095Y-51790533D01*
X102833333Y-35919580D02*
X102785714Y-35967200D01*
X102785714Y-35967200D02*
X102642857Y-36014819D01*
X102642857Y-36014819D02*
X102547619Y-36014819D01*
X102547619Y-36014819D02*
X102404762Y-35967200D01*
X102404762Y-35967200D02*
X102309524Y-35871961D01*
X102309524Y-35871961D02*
X102261905Y-35776723D01*
X102261905Y-35776723D02*
X102214286Y-35586247D01*
X102214286Y-35586247D02*
X102214286Y-35443390D01*
X102214286Y-35443390D02*
X102261905Y-35252914D01*
X102261905Y-35252914D02*
X102309524Y-35157676D01*
X102309524Y-35157676D02*
X102404762Y-35062438D01*
X102404762Y-35062438D02*
X102547619Y-35014819D01*
X102547619Y-35014819D02*
X102642857Y-35014819D01*
X102642857Y-35014819D02*
X102785714Y-35062438D01*
X102785714Y-35062438D02*
X102833333Y-35110057D01*
X103785714Y-36014819D02*
X103214286Y-36014819D01*
X103500000Y-36014819D02*
X103500000Y-35014819D01*
X103500000Y-35014819D02*
X103404762Y-35157676D01*
X103404762Y-35157676D02*
X103309524Y-35252914D01*
X103309524Y-35252914D02*
X103214286Y-35300533D01*
X117504819Y-32586666D02*
X117028628Y-32919999D01*
X117504819Y-33158094D02*
X116504819Y-33158094D01*
X116504819Y-33158094D02*
X116504819Y-32777142D01*
X116504819Y-32777142D02*
X116552438Y-32681904D01*
X116552438Y-32681904D02*
X116600057Y-32634285D01*
X116600057Y-32634285D02*
X116695295Y-32586666D01*
X116695295Y-32586666D02*
X116838152Y-32586666D01*
X116838152Y-32586666D02*
X116933390Y-32634285D01*
X116933390Y-32634285D02*
X116981009Y-32681904D01*
X116981009Y-32681904D02*
X117028628Y-32777142D01*
X117028628Y-32777142D02*
X117028628Y-33158094D01*
X117504819Y-31634285D02*
X117504819Y-32205713D01*
X117504819Y-31919999D02*
X116504819Y-31919999D01*
X116504819Y-31919999D02*
X116647676Y-32015237D01*
X116647676Y-32015237D02*
X116742914Y-32110475D01*
X116742914Y-32110475D02*
X116790533Y-32205713D01*
X117833333Y-39024819D02*
X117500000Y-38548628D01*
X117261905Y-39024819D02*
X117261905Y-38024819D01*
X117261905Y-38024819D02*
X117642857Y-38024819D01*
X117642857Y-38024819D02*
X117738095Y-38072438D01*
X117738095Y-38072438D02*
X117785714Y-38120057D01*
X117785714Y-38120057D02*
X117833333Y-38215295D01*
X117833333Y-38215295D02*
X117833333Y-38358152D01*
X117833333Y-38358152D02*
X117785714Y-38453390D01*
X117785714Y-38453390D02*
X117738095Y-38501009D01*
X117738095Y-38501009D02*
X117642857Y-38548628D01*
X117642857Y-38548628D02*
X117261905Y-38548628D01*
X118214286Y-38120057D02*
X118261905Y-38072438D01*
X118261905Y-38072438D02*
X118357143Y-38024819D01*
X118357143Y-38024819D02*
X118595238Y-38024819D01*
X118595238Y-38024819D02*
X118690476Y-38072438D01*
X118690476Y-38072438D02*
X118738095Y-38120057D01*
X118738095Y-38120057D02*
X118785714Y-38215295D01*
X118785714Y-38215295D02*
X118785714Y-38310533D01*
X118785714Y-38310533D02*
X118738095Y-38453390D01*
X118738095Y-38453390D02*
X118166667Y-39024819D01*
X118166667Y-39024819D02*
X118785714Y-39024819D01*
X108604819Y-43046666D02*
X108128628Y-43379999D01*
X108604819Y-43618094D02*
X107604819Y-43618094D01*
X107604819Y-43618094D02*
X107604819Y-43237142D01*
X107604819Y-43237142D02*
X107652438Y-43141904D01*
X107652438Y-43141904D02*
X107700057Y-43094285D01*
X107700057Y-43094285D02*
X107795295Y-43046666D01*
X107795295Y-43046666D02*
X107938152Y-43046666D01*
X107938152Y-43046666D02*
X108033390Y-43094285D01*
X108033390Y-43094285D02*
X108081009Y-43141904D01*
X108081009Y-43141904D02*
X108128628Y-43237142D01*
X108128628Y-43237142D02*
X108128628Y-43618094D01*
X107604819Y-42713332D02*
X107604819Y-42094285D01*
X107604819Y-42094285D02*
X107985771Y-42427618D01*
X107985771Y-42427618D02*
X107985771Y-42284761D01*
X107985771Y-42284761D02*
X108033390Y-42189523D01*
X108033390Y-42189523D02*
X108081009Y-42141904D01*
X108081009Y-42141904D02*
X108176247Y-42094285D01*
X108176247Y-42094285D02*
X108414342Y-42094285D01*
X108414342Y-42094285D02*
X108509580Y-42141904D01*
X108509580Y-42141904D02*
X108557200Y-42189523D01*
X108557200Y-42189523D02*
X108604819Y-42284761D01*
X108604819Y-42284761D02*
X108604819Y-42570475D01*
X108604819Y-42570475D02*
X108557200Y-42665713D01*
X108557200Y-42665713D02*
X108509580Y-42713332D01*
D11*
%TO.C,C1*%
X103261252Y-33145000D02*
X102738748Y-33145000D01*
X103261252Y-34615000D02*
X102738748Y-34615000D01*
%TO.C,R1*%
X117965000Y-32647064D02*
X117965000Y-32192936D01*
X119435000Y-32647064D02*
X119435000Y-32192936D01*
%TO.C,R2*%
X118227064Y-36185000D02*
X117772936Y-36185000D01*
X118227064Y-37655000D02*
X117772936Y-37655000D01*
%TO.C,R3*%
X107235000Y-42652936D02*
X107235000Y-43107064D01*
X105765000Y-42652936D02*
X105765000Y-43107064D01*
%TD*%
M02*
