%TF.GenerationSoftware,KiCad,Pcbnew,9.0.4*%
%TF.CreationDate,2026-03-15T16:45:00+00:00*%
%TF.ProjectId,Line following V3,4c696e65-2066-46f6-9c6c-6f77696e6720,rev?*%
%TF.SameCoordinates,Original*%
%TF.FileFunction,Copper,L2,Bot*%
%TF.FilePolarity,Positive*%
%FSLAX46Y46*%
G04 Gerber Fmt 4.6, Leading zero omitted, Abs format (unit mm)*
G04 Created by KiCad (PCBNEW 9.0.4) date 2026-03-15 16:45:00*
%MOMM*%
%LPD*%
G01*
G04 APERTURE LIST*
G04 Aperture macros list*
%AMRoundRect*
0 Rectangle with rounded corners*
0 $1 Rounding radius*
0 $2 $3 $4 $5 $6 $7 $8 $9 X,Y pos of 4 corners*
0 Add a 4 corners polygon primitive as box body*
4,1,4,$2,$3,$4,$5,$6,$7,$8,$9,$2,$3,0*
0 Add four circle primitives for the rounded corners*
1,1,$1+$1,$2,$3*
1,1,$1+$1,$4,$5*
1,1,$1+$1,$6,$7*
1,1,$1+$1,$8,$9*
0 Add four rect primitives between the rounded corners*
20,1,$1+$1,$2,$3,$4,$5,0*
20,1,$1+$1,$4,$5,$6,$7,0*
20,1,$1+$1,$6,$7,$8,$9,0*
20,1,$1+$1,$8,$9,$2,$3,0*%
G04 Aperture macros list end*
%ADD10C,0.100000*%
%TA.AperFunction,ComponentPad*%
%ADD11RoundRect,0.250000X-0.845000X0.620000X-0.845000X-0.620000X0.845000X-0.620000X0.845000X0.620000X0*%
%TD*%
%TA.AperFunction,ComponentPad*%
%ADD12O,2.190000X1.740000*%
%TD*%
%TA.AperFunction,ComponentPad*%
%ADD13C,6.000000*%
%TD*%
%TA.AperFunction,ComponentPad*%
%ADD14R,2.000000X2.000000*%
%TD*%
%TA.AperFunction,ComponentPad*%
%ADD15C,2.000000*%
%TD*%
%TA.AperFunction,ComponentPad*%
%ADD16RoundRect,0.250000X-0.950000X-0.550000X0.950000X-0.550000X0.950000X0.550000X-0.950000X0.550000X0*%
%TD*%
%TA.AperFunction,ComponentPad*%
%ADD17O,2.400000X1.600000*%
%TD*%
%TA.AperFunction,ViaPad*%
%ADD18C,2.000000*%
%TD*%
%TA.AperFunction,Conductor*%
%ADD19C,0.600000*%
%TD*%
G04 APERTURE END LIST*
D10*
G36*
X103922932Y-28969466D02*
G01*
X103754208Y-28463295D01*
X104091656Y-28463295D01*
X103922932Y-28969466D01*
G37*
G36*
X102444360Y-28206101D02*
G01*
X102444360Y-28715726D01*
X102387319Y-28744247D01*
X102220450Y-28744247D01*
X102143026Y-28705535D01*
X102106881Y-28669391D01*
X102068170Y-28591968D01*
X102068170Y-28329860D01*
X102106881Y-28252436D01*
X102143026Y-28216291D01*
X102220449Y-28177580D01*
X102387319Y-28177580D01*
X102444360Y-28206101D01*
G37*
G36*
X100634836Y-28206101D02*
G01*
X100634836Y-28475250D01*
X100611959Y-28463812D01*
X100609543Y-28463150D01*
X100608732Y-28462339D01*
X100600870Y-28460775D01*
X100593143Y-28458659D01*
X100592054Y-28459021D01*
X100589598Y-28458533D01*
X100363307Y-28458533D01*
X100293532Y-28423646D01*
X100258646Y-28353873D01*
X100258646Y-28282241D01*
X100293532Y-28212467D01*
X100363306Y-28177580D01*
X100577795Y-28177580D01*
X100634836Y-28206101D01*
G37*
G36*
X101539598Y-28206101D02*
G01*
X101539598Y-28475250D01*
X101516721Y-28463812D01*
X101514305Y-28463150D01*
X101513494Y-28462339D01*
X101505632Y-28460775D01*
X101497905Y-28458659D01*
X101496816Y-28459021D01*
X101494360Y-28458533D01*
X101268069Y-28458533D01*
X101198294Y-28423646D01*
X101163408Y-28353873D01*
X101163408Y-28282241D01*
X101198294Y-28212467D01*
X101268068Y-28177580D01*
X101482557Y-28177580D01*
X101539598Y-28206101D01*
G37*
G36*
X106463140Y-29288691D02*
G01*
X99095154Y-29288691D01*
X99095154Y-28841866D01*
X99206265Y-28841866D01*
X99206265Y-28937104D01*
X99206753Y-28939560D01*
X99206391Y-28940649D01*
X99208507Y-28948376D01*
X99210071Y-28956238D01*
X99210882Y-28957049D01*
X99211544Y-28959465D01*
X99259162Y-29054702D01*
X99264077Y-29061035D01*
X99268529Y-29067697D01*
X99316147Y-29115316D01*
X99322813Y-29119770D01*
X99329142Y-29124682D01*
X99424380Y-29172301D01*
X99426795Y-29172962D01*
X99427607Y-29173774D01*
X99435468Y-29175337D01*
X99443196Y-29177454D01*
X99444284Y-29177091D01*
X99446741Y-29177580D01*
X99684836Y-29177580D01*
X99692698Y-29176016D01*
X99700647Y-29175014D01*
X99843504Y-29127395D01*
X99860452Y-29117734D01*
X99877567Y-29083505D01*
X99865465Y-29047201D01*
X99831237Y-29030087D01*
X99811881Y-29032527D01*
X99676723Y-29077580D01*
X99458545Y-29077580D01*
X99381121Y-29038868D01*
X99344976Y-29002724D01*
X99306265Y-28925301D01*
X99306265Y-28853669D01*
X99344976Y-28776245D01*
X99381121Y-28740101D01*
X99464193Y-28698565D01*
X99649344Y-28652278D01*
X99654296Y-28649938D01*
X99659578Y-28648492D01*
X99754815Y-28600874D01*
X99761148Y-28595958D01*
X99767810Y-28591507D01*
X99815429Y-28543889D01*
X99819883Y-28537222D01*
X99824795Y-28530894D01*
X99872414Y-28435656D01*
X99873075Y-28433240D01*
X99873887Y-28432429D01*
X99875450Y-28424567D01*
X99877567Y-28416840D01*
X99877204Y-28415751D01*
X99877693Y-28413295D01*
X99877693Y-28318057D01*
X99877204Y-28315600D01*
X99877567Y-28314512D01*
X99875450Y-28306784D01*
X99873887Y-28298923D01*
X99873075Y-28298111D01*
X99872414Y-28295696D01*
X99859785Y-28270438D01*
X100158646Y-28270438D01*
X100158646Y-28365676D01*
X100159134Y-28368132D01*
X100158772Y-28369221D01*
X100160888Y-28376948D01*
X100162452Y-28384810D01*
X100163263Y-28385621D01*
X100163925Y-28388037D01*
X100211543Y-28483274D01*
X100217646Y-28491138D01*
X100218492Y-28493674D01*
X100221315Y-28495865D01*
X100223505Y-28498686D01*
X100226038Y-28499530D01*
X100233904Y-28505635D01*
X100329142Y-28553254D01*
X100331557Y-28553915D01*
X100332369Y-28554727D01*
X100340230Y-28556290D01*
X100347958Y-28558407D01*
X100349046Y-28558044D01*
X100351503Y-28558533D01*
X100577795Y-28558533D01*
X100634836Y-28587053D01*
X100634836Y-28639586D01*
X100599949Y-28709360D01*
X100530176Y-28744247D01*
X100363307Y-28744247D01*
X100278626Y-28701907D01*
X100259810Y-28696754D01*
X100223505Y-28708855D01*
X100206391Y-28743083D01*
X100218492Y-28779388D01*
X100233904Y-28791349D01*
X100329142Y-28838968D01*
X100331557Y-28839629D01*
X100332369Y-28840441D01*
X100340230Y-28842004D01*
X100347958Y-28844121D01*
X100349046Y-28843758D01*
X100351503Y-28844247D01*
X100541979Y-28844247D01*
X100544435Y-28843758D01*
X100545524Y-28844121D01*
X100553251Y-28842004D01*
X100561113Y-28840441D01*
X100561924Y-28839629D01*
X100564340Y-28838968D01*
X100659577Y-28791350D01*
X100667441Y-28785246D01*
X100669977Y-28784401D01*
X100672168Y-28781577D01*
X100674989Y-28779388D01*
X100675833Y-28776854D01*
X100681938Y-28768989D01*
X100729557Y-28673751D01*
X100730218Y-28671335D01*
X100731030Y-28670524D01*
X100732593Y-28662662D01*
X100734710Y-28654935D01*
X100734347Y-28653846D01*
X100734836Y-28651390D01*
X100734836Y-28270438D01*
X101063408Y-28270438D01*
X101063408Y-28365676D01*
X101063896Y-28368132D01*
X101063534Y-28369221D01*
X101065650Y-28376948D01*
X101067214Y-28384810D01*
X101068025Y-28385621D01*
X101068687Y-28388037D01*
X101116305Y-28483274D01*
X101122408Y-28491138D01*
X101123254Y-28493674D01*
X101126077Y-28495865D01*
X101128267Y-28498686D01*
X101130800Y-28499530D01*
X101138666Y-28505635D01*
X101233904Y-28553254D01*
X101236319Y-28553915D01*
X101237131Y-28554727D01*
X101244992Y-28556290D01*
X101252720Y-28558407D01*
X101253808Y-28558044D01*
X101256265Y-28558533D01*
X101482557Y-28558533D01*
X101539598Y-28587053D01*
X101539598Y-28639586D01*
X101504711Y-28709360D01*
X101434938Y-28744247D01*
X101268069Y-28744247D01*
X101183388Y-28701907D01*
X101164572Y-28696754D01*
X101128267Y-28708855D01*
X101111153Y-28743083D01*
X101123254Y-28779388D01*
X101138666Y-28791349D01*
X101233904Y-28838968D01*
X101236319Y-28839629D01*
X101237131Y-28840441D01*
X101244992Y-28842004D01*
X101252720Y-28844121D01*
X101253808Y-28843758D01*
X101256265Y-28844247D01*
X101446741Y-28844247D01*
X101449197Y-28843758D01*
X101450286Y-28844121D01*
X101458013Y-28842004D01*
X101465875Y-28840441D01*
X101466686Y-28839629D01*
X101469102Y-28838968D01*
X101564339Y-28791350D01*
X101572203Y-28785246D01*
X101574739Y-28784401D01*
X101576930Y-28781577D01*
X101579751Y-28779388D01*
X101580595Y-28776854D01*
X101586700Y-28768989D01*
X101634319Y-28673751D01*
X101634980Y-28671335D01*
X101635792Y-28670524D01*
X101637355Y-28662662D01*
X101639472Y-28654935D01*
X101639109Y-28653846D01*
X101639598Y-28651390D01*
X101639598Y-28318057D01*
X101968170Y-28318057D01*
X101968170Y-28603771D01*
X101968658Y-28606227D01*
X101968296Y-28607316D01*
X101970412Y-28615043D01*
X101971976Y-28622905D01*
X101972787Y-28623716D01*
X101973449Y-28626132D01*
X102021067Y-28721369D01*
X102025982Y-28727702D01*
X102030434Y-28734364D01*
X102078052Y-28781983D01*
X102084718Y-28786437D01*
X102091047Y-28791349D01*
X102186285Y-28838968D01*
X102188700Y-28839629D01*
X102189512Y-28840441D01*
X102197373Y-28842004D01*
X102205101Y-28844121D01*
X102206189Y-28843758D01*
X102208646Y-28844247D01*
X102399122Y-28844247D01*
X102401578Y-28843758D01*
X102402667Y-28844121D01*
X102410394Y-28842004D01*
X102418256Y-28840441D01*
X102419067Y-28839629D01*
X102421483Y-28838968D01*
X102444360Y-28827529D01*
X102444360Y-29127580D01*
X102448166Y-29146714D01*
X102475226Y-29173774D01*
X102513494Y-29173774D01*
X102540554Y-29146714D01*
X102544360Y-29127580D01*
X102544360Y-28127580D01*
X102543655Y-28124036D01*
X103539725Y-28124036D01*
X103542165Y-28143391D01*
X103875498Y-29143391D01*
X103885159Y-29160339D01*
X103888500Y-29162009D01*
X103890172Y-29165353D01*
X103905214Y-29170366D01*
X103919388Y-29177454D01*
X103922931Y-29176272D01*
X103926476Y-29177454D01*
X103940655Y-29170364D01*
X103955692Y-29165352D01*
X103957362Y-29162011D01*
X103960705Y-29160340D01*
X103970366Y-29143391D01*
X103997887Y-29060827D01*
X105305310Y-29060827D01*
X105305310Y-29099095D01*
X105316149Y-29115316D01*
X105363767Y-29162935D01*
X105379988Y-29173774D01*
X105379989Y-29173774D01*
X105418257Y-29173774D01*
X105434478Y-29162935D01*
X105482097Y-29115317D01*
X105492936Y-29099096D01*
X105492936Y-29060827D01*
X105492936Y-29060826D01*
X105482097Y-29044605D01*
X105434478Y-28996987D01*
X105418257Y-28986148D01*
X105379988Y-28986148D01*
X105363767Y-28996987D01*
X105316149Y-29044606D01*
X105305311Y-29060826D01*
X105305310Y-29060827D01*
X103997887Y-29060827D01*
X104303699Y-28143392D01*
X104303991Y-28141074D01*
X104446216Y-28141074D01*
X104448167Y-28144918D01*
X104448167Y-28146714D01*
X104450017Y-28148564D01*
X104455045Y-28158471D01*
X104915297Y-28744247D01*
X104494361Y-28744247D01*
X104475227Y-28748053D01*
X104448167Y-28775113D01*
X104448167Y-28813381D01*
X104475227Y-28840441D01*
X104494361Y-28844247D01*
X105018170Y-28844247D01*
X105029064Y-28842079D01*
X105031664Y-28842392D01*
X105033076Y-28841281D01*
X105037304Y-28840441D01*
X105048879Y-28828865D01*
X105061755Y-28818749D01*
X105062131Y-28815613D01*
X105064364Y-28813381D01*
X105064364Y-28797009D01*
X105066315Y-28780753D01*
X105064364Y-28776908D01*
X105064364Y-28775113D01*
X105062513Y-28773262D01*
X105057486Y-28763356D01*
X104597234Y-28177580D01*
X105018170Y-28177580D01*
X105037304Y-28173774D01*
X105064364Y-28146714D01*
X105064364Y-28127580D01*
X105349123Y-28127580D01*
X105349123Y-28794247D01*
X105352929Y-28813381D01*
X105379989Y-28840441D01*
X105418257Y-28840441D01*
X105445317Y-28813381D01*
X105449123Y-28794247D01*
X105449123Y-28141074D01*
X105731930Y-28141074D01*
X105733881Y-28144918D01*
X105733881Y-28146714D01*
X105735731Y-28148564D01*
X105740759Y-28158471D01*
X106201011Y-28744247D01*
X105780075Y-28744247D01*
X105760941Y-28748053D01*
X105733881Y-28775113D01*
X105733881Y-28813381D01*
X105760941Y-28840441D01*
X105780075Y-28844247D01*
X106303884Y-28844247D01*
X106314778Y-28842079D01*
X106317378Y-28842392D01*
X106318790Y-28841281D01*
X106323018Y-28840441D01*
X106334593Y-28828865D01*
X106347469Y-28818749D01*
X106347845Y-28815613D01*
X106350078Y-28813381D01*
X106350078Y-28797009D01*
X106352029Y-28780753D01*
X106350078Y-28776908D01*
X106350078Y-28775113D01*
X106348227Y-28773262D01*
X106343200Y-28763356D01*
X105882948Y-28177580D01*
X106303884Y-28177580D01*
X106323018Y-28173774D01*
X106350078Y-28146714D01*
X106350078Y-28108446D01*
X106323018Y-28081386D01*
X106303884Y-28077580D01*
X105780075Y-28077580D01*
X105769180Y-28079747D01*
X105766581Y-28079435D01*
X105765168Y-28080545D01*
X105760941Y-28081386D01*
X105749365Y-28092961D01*
X105736490Y-28103078D01*
X105736113Y-28106213D01*
X105733881Y-28108446D01*
X105733881Y-28124817D01*
X105731930Y-28141074D01*
X105449123Y-28141074D01*
X105449123Y-28127580D01*
X105445317Y-28108446D01*
X105418257Y-28081386D01*
X105379989Y-28081386D01*
X105352929Y-28108446D01*
X105349123Y-28127580D01*
X105064364Y-28127580D01*
X105064364Y-28108446D01*
X105037304Y-28081386D01*
X105018170Y-28077580D01*
X104494361Y-28077580D01*
X104483466Y-28079747D01*
X104480867Y-28079435D01*
X104479454Y-28080545D01*
X104475227Y-28081386D01*
X104463651Y-28092961D01*
X104450776Y-28103078D01*
X104450399Y-28106213D01*
X104448167Y-28108446D01*
X104448167Y-28124817D01*
X104446216Y-28141074D01*
X104303991Y-28141074D01*
X104306139Y-28124036D01*
X104289025Y-28089808D01*
X104252721Y-28077706D01*
X104218492Y-28094821D01*
X104208831Y-28111769D01*
X104124989Y-28363295D01*
X103720875Y-28363295D01*
X103637033Y-28111769D01*
X103627372Y-28094820D01*
X103593143Y-28077706D01*
X103556839Y-28089807D01*
X103539725Y-28124036D01*
X102543655Y-28124036D01*
X102540554Y-28108446D01*
X102513494Y-28081386D01*
X102475226Y-28081386D01*
X102456329Y-28100282D01*
X102421483Y-28082859D01*
X102419067Y-28082197D01*
X102418256Y-28081386D01*
X102410394Y-28079822D01*
X102402667Y-28077706D01*
X102401578Y-28078068D01*
X102399122Y-28077580D01*
X102208646Y-28077580D01*
X102206189Y-28078068D01*
X102205101Y-28077706D01*
X102197373Y-28079822D01*
X102189512Y-28081386D01*
X102188700Y-28082197D01*
X102186285Y-28082859D01*
X102091047Y-28130479D01*
X102084718Y-28135390D01*
X102078052Y-28139845D01*
X102030434Y-28187464D01*
X102025982Y-28194125D01*
X102021067Y-28200459D01*
X101973449Y-28295696D01*
X101972787Y-28298111D01*
X101971976Y-28298923D01*
X101970412Y-28306784D01*
X101968296Y-28314512D01*
X101968658Y-28315600D01*
X101968170Y-28318057D01*
X101639598Y-28318057D01*
X101639598Y-28127580D01*
X101635792Y-28108446D01*
X101608732Y-28081386D01*
X101570464Y-28081386D01*
X101551567Y-28100282D01*
X101516721Y-28082859D01*
X101514305Y-28082197D01*
X101513494Y-28081386D01*
X101505632Y-28079822D01*
X101497905Y-28077706D01*
X101496816Y-28078068D01*
X101494360Y-28077580D01*
X101256265Y-28077580D01*
X101253808Y-28078068D01*
X101252720Y-28077706D01*
X101244992Y-28079822D01*
X101237131Y-28081386D01*
X101236319Y-28082197D01*
X101233904Y-28082859D01*
X101138666Y-28130479D01*
X101130800Y-28136583D01*
X101128267Y-28137428D01*
X101126077Y-28140248D01*
X101123254Y-28142440D01*
X101122408Y-28144975D01*
X101116305Y-28152840D01*
X101068687Y-28248077D01*
X101068025Y-28250492D01*
X101067214Y-28251304D01*
X101065650Y-28259165D01*
X101063534Y-28266893D01*
X101063896Y-28267981D01*
X101063408Y-28270438D01*
X100734836Y-28270438D01*
X100734836Y-28127580D01*
X100731030Y-28108446D01*
X100703970Y-28081386D01*
X100665702Y-28081386D01*
X100646805Y-28100282D01*
X100611959Y-28082859D01*
X100609543Y-28082197D01*
X100608732Y-28081386D01*
X100600870Y-28079822D01*
X100593143Y-28077706D01*
X100592054Y-28078068D01*
X100589598Y-28077580D01*
X100351503Y-28077580D01*
X100349046Y-28078068D01*
X100347958Y-28077706D01*
X100340230Y-28079822D01*
X100332369Y-28081386D01*
X100331557Y-28082197D01*
X100329142Y-28082859D01*
X100233904Y-28130479D01*
X100226038Y-28136583D01*
X100223505Y-28137428D01*
X100221315Y-28140248D01*
X100218492Y-28142440D01*
X100217646Y-28144975D01*
X100211543Y-28152840D01*
X100163925Y-28248077D01*
X100163263Y-28250492D01*
X100162452Y-28251304D01*
X100160888Y-28259165D01*
X100158772Y-28266893D01*
X100159134Y-28267981D01*
X100158646Y-28270438D01*
X99859785Y-28270438D01*
X99824795Y-28200458D01*
X99819883Y-28194129D01*
X99815429Y-28187463D01*
X99767810Y-28139845D01*
X99761150Y-28135394D01*
X99754816Y-28130479D01*
X99659578Y-28082859D01*
X99657162Y-28082197D01*
X99656351Y-28081386D01*
X99648489Y-28079822D01*
X99640762Y-28077706D01*
X99639673Y-28078068D01*
X99637217Y-28077580D01*
X99399122Y-28077580D01*
X99391260Y-28079143D01*
X99383310Y-28080146D01*
X99240453Y-28127766D01*
X99223505Y-28137427D01*
X99206391Y-28171656D01*
X99218492Y-28207960D01*
X99252721Y-28225074D01*
X99272077Y-28222634D01*
X99407236Y-28177580D01*
X99625414Y-28177580D01*
X99702837Y-28216292D01*
X99738981Y-28252437D01*
X99777693Y-28329860D01*
X99777693Y-28401491D01*
X99738981Y-28478914D01*
X99702837Y-28515059D01*
X99619766Y-28556595D01*
X99434614Y-28602883D01*
X99429661Y-28605222D01*
X99424380Y-28606669D01*
X99329142Y-28654288D01*
X99322813Y-28659199D01*
X99316147Y-28663654D01*
X99268529Y-28711273D01*
X99264077Y-28717934D01*
X99259162Y-28724268D01*
X99211544Y-28819505D01*
X99210882Y-28821920D01*
X99210071Y-28822732D01*
X99208507Y-28830593D01*
X99206391Y-28838321D01*
X99206753Y-28839409D01*
X99206265Y-28841866D01*
X99095154Y-28841866D01*
X99095154Y-27966469D01*
X106463140Y-27966469D01*
X106463140Y-29288691D01*
G37*
D11*
%TO.P,J1,1,Pin_1*%
%TO.N,GND*%
X104000000Y-36840000D03*
D12*
%TO.P,J1,2,Pin_2*%
%TO.N,+5V*%
X104000000Y-39380000D03*
%TO.P,J1,3,Pin_3*%
%TO.N,+3.3V*%
X104000000Y-41920000D03*
%TO.P,J1,4,Pin_4*%
%TO.N,Output*%
X104000000Y-44460000D03*
%TO.P,J1,5,Pin_5*%
%TO.N,Threshold*%
X104000000Y-47000000D03*
%TO.P,J1,6,Pin_6*%
%TO.N,GND*%
X104000000Y-49540000D03*
%TD*%
D13*
%TO.P,H2,1,1*%
%TO.N,GND*%
X115500000Y-56000000D03*
%TD*%
%TO.P,H1,1,1*%
%TO.N,GND*%
X104000000Y-56000000D03*
%TD*%
D14*
%TO.P,Q1,1,C*%
%TO.N,Net-(Q1-C)*%
X114900000Y-36920000D03*
D15*
%TO.P,Q1,2,E*%
%TO.N,GND*%
X112360000Y-36920000D03*
%TO.P,Q1,3,K*%
X112360000Y-31420000D03*
%TO.P,Q1,4,A*%
%TO.N,Net-(Q1-A)*%
X114900000Y-31420000D03*
%TD*%
D16*
%TO.P,U2,1,GND*%
%TO.N,GND*%
X109880000Y-49500000D03*
D17*
%TO.P,U2,2,+*%
%TO.N,Net-(Q1-C)*%
X109880000Y-46960000D03*
%TO.P,U2,3,-*%
%TO.N,Threshold*%
X109880000Y-44420000D03*
%TO.P,U2,4,V-*%
%TO.N,GND*%
X109880000Y-41880000D03*
%TO.P,U2,5,BAL*%
%TO.N,unconnected-(U2-BAL-Pad5)*%
X117500000Y-41880000D03*
%TO.P,U2,6,STRB*%
%TO.N,+5V*%
X117500000Y-44420000D03*
%TO.P,U2,7*%
%TO.N,Output*%
X117500000Y-46960000D03*
%TO.P,U2,8,V+*%
%TO.N,+5V*%
X117500000Y-49500000D03*
%TD*%
D18*
%TO.N,GND*%
X107500000Y-33000000D03*
X113500000Y-47000000D03*
%TD*%
D19*
%TO.N,GND*%
X113500000Y-44500000D02*
X107500000Y-38500000D01*
X107500000Y-38500000D02*
X107500000Y-33000000D01*
X113500000Y-47000000D02*
X113500000Y-44500000D01*
%TD*%
%TA.AperFunction,Conductor*%
%TO.N,GND*%
G36*
X113582657Y-32289104D02*
G01*
X113602404Y-32287550D01*
X113670781Y-32301914D01*
X113712451Y-32338282D01*
X113755483Y-32397510D01*
X113922490Y-32564517D01*
X114113567Y-32703343D01*
X114212991Y-32754002D01*
X114324003Y-32810566D01*
X114324005Y-32810566D01*
X114324008Y-32810568D01*
X114444412Y-32849689D01*
X114548631Y-32883553D01*
X114701243Y-32907724D01*
X114764378Y-32937653D01*
X114801310Y-32996964D01*
X114800312Y-33066827D01*
X114780222Y-33105684D01*
X114711389Y-33195387D01*
X114596657Y-33394109D01*
X114596650Y-33394123D01*
X114508842Y-33606112D01*
X114449453Y-33827759D01*
X114449451Y-33827770D01*
X114419500Y-34055258D01*
X114419500Y-34284741D01*
X114444446Y-34474215D01*
X114449452Y-34512238D01*
X114449453Y-34512240D01*
X114508842Y-34733887D01*
X114596650Y-34945876D01*
X114596657Y-34945890D01*
X114711389Y-35144612D01*
X114769247Y-35220013D01*
X114794441Y-35285183D01*
X114780403Y-35353627D01*
X114731589Y-35403617D01*
X114670871Y-35419500D01*
X113852129Y-35419500D01*
X113852123Y-35419501D01*
X113792516Y-35425908D01*
X113657671Y-35476202D01*
X113657664Y-35476206D01*
X113542455Y-35562452D01*
X113542452Y-35562455D01*
X113456206Y-35677664D01*
X113451953Y-35685454D01*
X113448807Y-35683736D01*
X113417139Y-35726010D01*
X113351667Y-35750404D01*
X113283399Y-35735529D01*
X113269978Y-35727035D01*
X113146174Y-35637087D01*
X112935802Y-35529897D01*
X112711247Y-35456934D01*
X112711248Y-35456934D01*
X112638656Y-35445437D01*
X112575521Y-35415508D01*
X112538590Y-35356196D01*
X112539588Y-35286334D01*
X112559679Y-35247477D01*
X112638607Y-35144617D01*
X112638606Y-35144617D01*
X112638611Y-35144612D01*
X112753344Y-34945888D01*
X112841158Y-34733887D01*
X112900548Y-34512238D01*
X112930500Y-34284734D01*
X112930500Y-34055266D01*
X112900548Y-33827762D01*
X112841158Y-33606113D01*
X112753344Y-33394112D01*
X112638611Y-33195388D01*
X112559677Y-33092520D01*
X112534484Y-33027353D01*
X112548522Y-32958908D01*
X112597336Y-32908918D01*
X112638658Y-32894561D01*
X112711252Y-32883064D01*
X112935802Y-32810102D01*
X113146163Y-32702918D01*
X113146169Y-32702914D01*
X113229104Y-32642658D01*
X113229105Y-32642658D01*
X112489408Y-31902962D01*
X112552993Y-31885925D01*
X112667007Y-31820099D01*
X112760099Y-31727007D01*
X112825925Y-31612993D01*
X112842962Y-31549408D01*
X113582657Y-32289104D01*
G37*
%TD.AperFunction*%
%TA.AperFunction,Conductor*%
G36*
X120462539Y-27730185D02*
G01*
X120508294Y-27782989D01*
X120519500Y-27834500D01*
X120519500Y-59315500D01*
X120499815Y-59382539D01*
X120447011Y-59428294D01*
X120395500Y-59439500D01*
X98894500Y-59439500D01*
X98827461Y-59419815D01*
X98781706Y-59367011D01*
X98770500Y-59315500D01*
X98770500Y-39272133D01*
X102404500Y-39272133D01*
X102404500Y-39487866D01*
X102438245Y-39700922D01*
X102438246Y-39700926D01*
X102504908Y-39906089D01*
X102602843Y-40098299D01*
X102729641Y-40272821D01*
X102882179Y-40425359D01*
X103003454Y-40513471D01*
X103053294Y-40549682D01*
X103095959Y-40605012D01*
X103101938Y-40674626D01*
X103069332Y-40736421D01*
X103053294Y-40750318D01*
X102988038Y-40797729D01*
X102882179Y-40874641D01*
X102882177Y-40874643D01*
X102882176Y-40874643D01*
X102729643Y-41027176D01*
X102729643Y-41027177D01*
X102729641Y-41027179D01*
X102675186Y-41102129D01*
X102602843Y-41201700D01*
X102504909Y-41393908D01*
X102438245Y-41599077D01*
X102404500Y-41812133D01*
X102404500Y-42027866D01*
X102438245Y-42240922D01*
X102438246Y-42240926D01*
X102504908Y-42446089D01*
X102602843Y-42638299D01*
X102729641Y-42812821D01*
X102882179Y-42965359D01*
X102983859Y-43039234D01*
X103053294Y-43089682D01*
X103095959Y-43145012D01*
X103101938Y-43214626D01*
X103069332Y-43276421D01*
X103053294Y-43290318D01*
X102988038Y-43337729D01*
X102882179Y-43414641D01*
X102882177Y-43414643D01*
X102882176Y-43414643D01*
X102729643Y-43567176D01*
X102729643Y-43567177D01*
X102729641Y-43567179D01*
X102675186Y-43642129D01*
X102602843Y-43741700D01*
X102504909Y-43933908D01*
X102438245Y-44139077D01*
X102404500Y-44352133D01*
X102404500Y-44567866D01*
X102429314Y-44724534D01*
X102438246Y-44780926D01*
X102504908Y-44986089D01*
X102602843Y-45178299D01*
X102729641Y-45352821D01*
X102882179Y-45505359D01*
X102984246Y-45579515D01*
X103053294Y-45629682D01*
X103095959Y-45685012D01*
X103101938Y-45754626D01*
X103069332Y-45816421D01*
X103053294Y-45830318D01*
X102988038Y-45877729D01*
X102882179Y-45954641D01*
X102882177Y-45954643D01*
X102882176Y-45954643D01*
X102729643Y-46107176D01*
X102729643Y-46107177D01*
X102729641Y-46107179D01*
X102675186Y-46182129D01*
X102602843Y-46281700D01*
X102504909Y-46473908D01*
X102438245Y-46679077D01*
X102404500Y-46892133D01*
X102404500Y-47107866D01*
X102429314Y-47264534D01*
X102438246Y-47320926D01*
X102504908Y-47526089D01*
X102602843Y-47718299D01*
X102729641Y-47892821D01*
X102882179Y-48045359D01*
X103053720Y-48169991D01*
X103096385Y-48225321D01*
X103102364Y-48294935D01*
X103069758Y-48356730D01*
X103053720Y-48370627D01*
X102882503Y-48495024D01*
X102730025Y-48647502D01*
X102730025Y-48647503D01*
X102603271Y-48821963D01*
X102505372Y-49014098D01*
X102438733Y-49219190D01*
X102427519Y-49290000D01*
X103457291Y-49290000D01*
X103445548Y-49310339D01*
X103405000Y-49461667D01*
X103405000Y-49618333D01*
X103445548Y-49769661D01*
X103457291Y-49790000D01*
X102427519Y-49790000D01*
X102438733Y-49860809D01*
X102505372Y-50065901D01*
X102603271Y-50258036D01*
X102730025Y-50432496D01*
X102730025Y-50432497D01*
X102882502Y-50584974D01*
X103056963Y-50711728D01*
X103249098Y-50809627D01*
X103454190Y-50876265D01*
X103667180Y-50910000D01*
X103750000Y-50910000D01*
X103750000Y-50082709D01*
X103770339Y-50094452D01*
X103921667Y-50135000D01*
X104078333Y-50135000D01*
X104229661Y-50094452D01*
X104250000Y-50082709D01*
X104250000Y-50910000D01*
X104332820Y-50910000D01*
X104545809Y-50876265D01*
X104750901Y-50809627D01*
X104943036Y-50711728D01*
X105117496Y-50584974D01*
X105117497Y-50584974D01*
X105269974Y-50432497D01*
X105269974Y-50432496D01*
X105396728Y-50258036D01*
X105494627Y-50065901D01*
X105561266Y-49860809D01*
X105572481Y-49790000D01*
X104542709Y-49790000D01*
X104554452Y-49769661D01*
X104595000Y-49618333D01*
X104595000Y-49461667D01*
X104554452Y-49310339D01*
X104542709Y-49290000D01*
X105572481Y-49290000D01*
X105561266Y-49219190D01*
X105494627Y-49014098D01*
X105396728Y-48821963D01*
X105269974Y-48647503D01*
X105269974Y-48647502D01*
X105117497Y-48495025D01*
X104946279Y-48370627D01*
X104903614Y-48315297D01*
X104897635Y-48245683D01*
X104930241Y-48183888D01*
X104946280Y-48169991D01*
X105117821Y-48045359D01*
X105270359Y-47892821D01*
X105397157Y-47718299D01*
X105495092Y-47526089D01*
X105561754Y-47320926D01*
X105576752Y-47226230D01*
X105595500Y-47107866D01*
X105595500Y-46892133D01*
X105561754Y-46679077D01*
X105561754Y-46679074D01*
X105495092Y-46473911D01*
X105397157Y-46281701D01*
X105270359Y-46107179D01*
X105117821Y-45954641D01*
X104946704Y-45830317D01*
X104904040Y-45774988D01*
X104898061Y-45705374D01*
X104930667Y-45643580D01*
X104946702Y-45629684D01*
X105117821Y-45505359D01*
X105270359Y-45352821D01*
X105397157Y-45178299D01*
X105495092Y-44986089D01*
X105561754Y-44780926D01*
X105576752Y-44686230D01*
X105595500Y-44567866D01*
X105595500Y-44352137D01*
X105592338Y-44332172D01*
X105592338Y-44332169D01*
X105590038Y-44317648D01*
X108179500Y-44317648D01*
X108179500Y-44522351D01*
X108211522Y-44724534D01*
X108274781Y-44919223D01*
X108367715Y-45101613D01*
X108488028Y-45267213D01*
X108632786Y-45411971D01*
X108761322Y-45505356D01*
X108798390Y-45532287D01*
X108889840Y-45578883D01*
X108891080Y-45579515D01*
X108941876Y-45627490D01*
X108958671Y-45695311D01*
X108936134Y-45761446D01*
X108891080Y-45800485D01*
X108798386Y-45847715D01*
X108632786Y-45968028D01*
X108488028Y-46112786D01*
X108367715Y-46278386D01*
X108274781Y-46460776D01*
X108211522Y-46655465D01*
X108179500Y-46857648D01*
X108179500Y-47062351D01*
X108211522Y-47264534D01*
X108274781Y-47459223D01*
X108367715Y-47641613D01*
X108488028Y-47807213D01*
X108632782Y-47951967D01*
X108632787Y-47951971D01*
X108726948Y-48020383D01*
X108769614Y-48075713D01*
X108775593Y-48145326D01*
X108742988Y-48207121D01*
X108693068Y-48238407D01*
X108610878Y-48265642D01*
X108610875Y-48265643D01*
X108461654Y-48357684D01*
X108337684Y-48481654D01*
X108245643Y-48630875D01*
X108245641Y-48630880D01*
X108190494Y-48797302D01*
X108190493Y-48797309D01*
X108180000Y-48900013D01*
X108180000Y-49250000D01*
X109564314Y-49250000D01*
X109559920Y-49254394D01*
X109507259Y-49345606D01*
X109480000Y-49447339D01*
X109480000Y-49552661D01*
X109507259Y-49654394D01*
X109559920Y-49745606D01*
X109564314Y-49750000D01*
X108180001Y-49750000D01*
X108180001Y-50099986D01*
X108190494Y-50202697D01*
X108245641Y-50369119D01*
X108245643Y-50369124D01*
X108337684Y-50518345D01*
X108461654Y-50642315D01*
X108610875Y-50734356D01*
X108610880Y-50734358D01*
X108777302Y-50789505D01*
X108777309Y-50789506D01*
X108880019Y-50799999D01*
X109629999Y-50799999D01*
X109630000Y-50799998D01*
X109630000Y-49815686D01*
X109634394Y-49820080D01*
X109725606Y-49872741D01*
X109827339Y-49900000D01*
X109932661Y-49900000D01*
X110034394Y-49872741D01*
X110125606Y-49820080D01*
X110130000Y-49815686D01*
X110130000Y-50799999D01*
X110879972Y-50799999D01*
X110879986Y-50799998D01*
X110982697Y-50789505D01*
X111149119Y-50734358D01*
X111149124Y-50734356D01*
X111298345Y-50642315D01*
X111422315Y-50518345D01*
X111514356Y-50369124D01*
X111514358Y-50369119D01*
X111569505Y-50202697D01*
X111569506Y-50202690D01*
X111579999Y-50099986D01*
X111580000Y-50099973D01*
X111580000Y-49750000D01*
X110195686Y-49750000D01*
X110200080Y-49745606D01*
X110252741Y-49654394D01*
X110280000Y-49552661D01*
X110280000Y-49447339D01*
X110252741Y-49345606D01*
X110200080Y-49254394D01*
X110195686Y-49250000D01*
X111579999Y-49250000D01*
X111579999Y-48900028D01*
X111579998Y-48900013D01*
X111569505Y-48797302D01*
X111514358Y-48630880D01*
X111514356Y-48630875D01*
X111422315Y-48481654D01*
X111298345Y-48357684D01*
X111149124Y-48265643D01*
X111149119Y-48265641D01*
X111066931Y-48238407D01*
X111009486Y-48198634D01*
X110982663Y-48134119D01*
X110994978Y-48065343D01*
X111033049Y-48020383D01*
X111127219Y-47951966D01*
X111271966Y-47807219D01*
X111271968Y-47807215D01*
X111271971Y-47807213D01*
X111324732Y-47734590D01*
X111392287Y-47641610D01*
X111485220Y-47459219D01*
X111548477Y-47264534D01*
X111580500Y-47062352D01*
X111580500Y-46857648D01*
X111548477Y-46655466D01*
X111485220Y-46460781D01*
X111485218Y-46460778D01*
X111485218Y-46460776D01*
X111451503Y-46394607D01*
X111392287Y-46278390D01*
X111384556Y-46267749D01*
X111271971Y-46112786D01*
X111127213Y-45968028D01*
X110961614Y-45847715D01*
X110922613Y-45827843D01*
X110868917Y-45800483D01*
X110818123Y-45752511D01*
X110801328Y-45684690D01*
X110823865Y-45618555D01*
X110868917Y-45579516D01*
X110961610Y-45532287D01*
X110998678Y-45505356D01*
X111127213Y-45411971D01*
X111127215Y-45411968D01*
X111127219Y-45411966D01*
X111271966Y-45267219D01*
X111271968Y-45267215D01*
X111271971Y-45267213D01*
X111324732Y-45194590D01*
X111392287Y-45101610D01*
X111485220Y-44919219D01*
X111548477Y-44724534D01*
X111580500Y-44522352D01*
X111580500Y-44317648D01*
X111548477Y-44115466D01*
X111485220Y-43920781D01*
X111485218Y-43920778D01*
X111485218Y-43920776D01*
X111451503Y-43854607D01*
X111392287Y-43738390D01*
X111384556Y-43727749D01*
X111271971Y-43572786D01*
X111127213Y-43428028D01*
X110961611Y-43307713D01*
X110868369Y-43260203D01*
X110817574Y-43212229D01*
X110800779Y-43144407D01*
X110823317Y-43078273D01*
X110868371Y-43039234D01*
X110961347Y-42991861D01*
X111126894Y-42871582D01*
X111126895Y-42871582D01*
X111271582Y-42726895D01*
X111271582Y-42726894D01*
X111391859Y-42561349D01*
X111484755Y-42379029D01*
X111547990Y-42184413D01*
X111556609Y-42130000D01*
X110195686Y-42130000D01*
X110200080Y-42125606D01*
X110252741Y-42034394D01*
X110280000Y-41932661D01*
X110280000Y-41827339D01*
X110266685Y-41777648D01*
X115799500Y-41777648D01*
X115799500Y-41982351D01*
X115831522Y-42184534D01*
X115894781Y-42379223D01*
X115987715Y-42561613D01*
X116108028Y-42727213D01*
X116252786Y-42871971D01*
X116381322Y-42965356D01*
X116418390Y-42992287D01*
X116509840Y-43038883D01*
X116511080Y-43039515D01*
X116561876Y-43087490D01*
X116578671Y-43155311D01*
X116556134Y-43221446D01*
X116511080Y-43260485D01*
X116418386Y-43307715D01*
X116252786Y-43428028D01*
X116108028Y-43572786D01*
X115987715Y-43738386D01*
X115894781Y-43920776D01*
X115831522Y-44115465D01*
X115799500Y-44317648D01*
X115799500Y-44522351D01*
X115831522Y-44724534D01*
X115894781Y-44919223D01*
X115987715Y-45101613D01*
X116108028Y-45267213D01*
X116252786Y-45411971D01*
X116381322Y-45505356D01*
X116418390Y-45532287D01*
X116509840Y-45578883D01*
X116511080Y-45579515D01*
X116561876Y-45627490D01*
X116578671Y-45695311D01*
X116556134Y-45761446D01*
X116511080Y-45800485D01*
X116418386Y-45847715D01*
X116252786Y-45968028D01*
X116108028Y-46112786D01*
X115987715Y-46278386D01*
X115894781Y-46460776D01*
X115831522Y-46655465D01*
X115799500Y-46857648D01*
X115799500Y-47062351D01*
X115831522Y-47264534D01*
X115894781Y-47459223D01*
X115987715Y-47641613D01*
X116108028Y-47807213D01*
X116252786Y-47951971D01*
X116381322Y-48045356D01*
X116418390Y-48072287D01*
X116509840Y-48118883D01*
X116511080Y-48119515D01*
X116561876Y-48167490D01*
X116578671Y-48235311D01*
X116556134Y-48301446D01*
X116511080Y-48340485D01*
X116418386Y-48387715D01*
X116252786Y-48508028D01*
X116108028Y-48652786D01*
X115987715Y-48818386D01*
X115894781Y-49000776D01*
X115831522Y-49195465D01*
X115799500Y-49397648D01*
X115799500Y-49602351D01*
X115831522Y-49804534D01*
X115894781Y-49999223D01*
X115987715Y-50181613D01*
X116108028Y-50347213D01*
X116252786Y-50491971D01*
X116407749Y-50604556D01*
X116418390Y-50612287D01*
X116534607Y-50671503D01*
X116600776Y-50705218D01*
X116600778Y-50705218D01*
X116600781Y-50705220D01*
X116690459Y-50734358D01*
X116795465Y-50768477D01*
X116896557Y-50784488D01*
X116997648Y-50800500D01*
X116997649Y-50800500D01*
X118002351Y-50800500D01*
X118002352Y-50800500D01*
X118204534Y-50768477D01*
X118399219Y-50705220D01*
X118581610Y-50612287D01*
X118674590Y-50544732D01*
X118747213Y-50491971D01*
X118747215Y-50491968D01*
X118747219Y-50491966D01*
X118891966Y-50347219D01*
X118891968Y-50347215D01*
X118891971Y-50347213D01*
X118956761Y-50258036D01*
X119012287Y-50181610D01*
X119105220Y-49999219D01*
X119168477Y-49804534D01*
X119200500Y-49602352D01*
X119200500Y-49397648D01*
X119183450Y-49290000D01*
X119168477Y-49195465D01*
X119105218Y-49000776D01*
X119071503Y-48934607D01*
X119012287Y-48818390D01*
X118996966Y-48797302D01*
X118891971Y-48652786D01*
X118747213Y-48508028D01*
X118581614Y-48387715D01*
X118548077Y-48370627D01*
X118488917Y-48340483D01*
X118438123Y-48292511D01*
X118421328Y-48224690D01*
X118443865Y-48158555D01*
X118488917Y-48119516D01*
X118581610Y-48072287D01*
X118618678Y-48045356D01*
X118747213Y-47951971D01*
X118747215Y-47951968D01*
X118747219Y-47951966D01*
X118891966Y-47807219D01*
X118891968Y-47807215D01*
X118891971Y-47807213D01*
X118944732Y-47734590D01*
X119012287Y-47641610D01*
X119105220Y-47459219D01*
X119168477Y-47264534D01*
X119200500Y-47062352D01*
X119200500Y-46857648D01*
X119168477Y-46655466D01*
X119105220Y-46460781D01*
X119105218Y-46460778D01*
X119105218Y-46460776D01*
X119071503Y-46394607D01*
X119012287Y-46278390D01*
X119004556Y-46267749D01*
X118891971Y-46112786D01*
X118747213Y-45968028D01*
X118581614Y-45847715D01*
X118542613Y-45827843D01*
X118488917Y-45800483D01*
X118438123Y-45752511D01*
X118421328Y-45684690D01*
X118443865Y-45618555D01*
X118488917Y-45579516D01*
X118581610Y-45532287D01*
X118618678Y-45505356D01*
X118747213Y-45411971D01*
X118747215Y-45411968D01*
X118747219Y-45411966D01*
X118891966Y-45267219D01*
X118891968Y-45267215D01*
X118891971Y-45267213D01*
X118944732Y-45194590D01*
X119012287Y-45101610D01*
X119105220Y-44919219D01*
X119168477Y-44724534D01*
X119200500Y-44522352D01*
X119200500Y-44317648D01*
X119168477Y-44115466D01*
X119105220Y-43920781D01*
X119105218Y-43920778D01*
X119105218Y-43920776D01*
X119071503Y-43854607D01*
X119012287Y-43738390D01*
X119004556Y-43727749D01*
X118891971Y-43572786D01*
X118747213Y-43428028D01*
X118581614Y-43307715D01*
X118542613Y-43287843D01*
X118488917Y-43260483D01*
X118438123Y-43212511D01*
X118421328Y-43144690D01*
X118443865Y-43078555D01*
X118488917Y-43039516D01*
X118581610Y-42992287D01*
X118618678Y-42965356D01*
X118747213Y-42871971D01*
X118747215Y-42871968D01*
X118747219Y-42871966D01*
X118891966Y-42727219D01*
X118891968Y-42727215D01*
X118891971Y-42727213D01*
X118944732Y-42654590D01*
X119012287Y-42561610D01*
X119105220Y-42379219D01*
X119168477Y-42184534D01*
X119200500Y-41982352D01*
X119200500Y-41777648D01*
X119186057Y-41686461D01*
X119168477Y-41575465D01*
X119105218Y-41380776D01*
X119071503Y-41314607D01*
X119012287Y-41198390D01*
X119004556Y-41187749D01*
X118891971Y-41032786D01*
X118747213Y-40888028D01*
X118581613Y-40767715D01*
X118581612Y-40767714D01*
X118581610Y-40767713D01*
X118520196Y-40736421D01*
X118399223Y-40674781D01*
X118204534Y-40611522D01*
X118029995Y-40583878D01*
X118002352Y-40579500D01*
X116997648Y-40579500D01*
X116973329Y-40583351D01*
X116795465Y-40611522D01*
X116600776Y-40674781D01*
X116418386Y-40767715D01*
X116252786Y-40888028D01*
X116108028Y-41032786D01*
X115987715Y-41198386D01*
X115894781Y-41380776D01*
X115831522Y-41575465D01*
X115799500Y-41777648D01*
X110266685Y-41777648D01*
X110252741Y-41725606D01*
X110200080Y-41634394D01*
X110195686Y-41630000D01*
X111556609Y-41630000D01*
X111547990Y-41575586D01*
X111484755Y-41380970D01*
X111391859Y-41198650D01*
X111271582Y-41033105D01*
X111271582Y-41033104D01*
X111126895Y-40888417D01*
X110961349Y-40768140D01*
X110779031Y-40675244D01*
X110584417Y-40612009D01*
X110382317Y-40580000D01*
X110130000Y-40580000D01*
X110130000Y-41564314D01*
X110125606Y-41559920D01*
X110034394Y-41507259D01*
X109932661Y-41480000D01*
X109827339Y-41480000D01*
X109725606Y-41507259D01*
X109634394Y-41559920D01*
X109630000Y-41564314D01*
X109630000Y-40580000D01*
X109377683Y-40580000D01*
X109175582Y-40612009D01*
X108980968Y-40675244D01*
X108798650Y-40768140D01*
X108633105Y-40888417D01*
X108633104Y-40888417D01*
X108488417Y-41033104D01*
X108488417Y-41033105D01*
X108368140Y-41198650D01*
X108275244Y-41380970D01*
X108212009Y-41575586D01*
X108203391Y-41630000D01*
X109564314Y-41630000D01*
X109559920Y-41634394D01*
X109507259Y-41725606D01*
X109480000Y-41827339D01*
X109480000Y-41932661D01*
X109507259Y-42034394D01*
X109559920Y-42125606D01*
X109564314Y-42130000D01*
X108203391Y-42130000D01*
X108212009Y-42184413D01*
X108275244Y-42379029D01*
X108368140Y-42561349D01*
X108488417Y-42726894D01*
X108488417Y-42726895D01*
X108633104Y-42871582D01*
X108798652Y-42991861D01*
X108891628Y-43039234D01*
X108942425Y-43087208D01*
X108959220Y-43155029D01*
X108936683Y-43221164D01*
X108891630Y-43260203D01*
X108798388Y-43307713D01*
X108632786Y-43428028D01*
X108488028Y-43572786D01*
X108367715Y-43738386D01*
X108274781Y-43920776D01*
X108211522Y-44115465D01*
X108179500Y-44317648D01*
X105590038Y-44317648D01*
X105561754Y-44139077D01*
X105561754Y-44139074D01*
X105495092Y-43933911D01*
X105397157Y-43741701D01*
X105270359Y-43567179D01*
X105117821Y-43414641D01*
X104946704Y-43290317D01*
X104904040Y-43234988D01*
X104898061Y-43165374D01*
X104930667Y-43103580D01*
X104946702Y-43089684D01*
X105117821Y-42965359D01*
X105270359Y-42812821D01*
X105397157Y-42638299D01*
X105495092Y-42446089D01*
X105561754Y-42240926D01*
X105580019Y-42125606D01*
X105595500Y-42027866D01*
X105595500Y-41812137D01*
X105592338Y-41792172D01*
X105592338Y-41792171D01*
X105575595Y-41686462D01*
X105575595Y-41686461D01*
X105561754Y-41599077D01*
X105561754Y-41599074D01*
X105495092Y-41393911D01*
X105397157Y-41201701D01*
X105270359Y-41027179D01*
X105117821Y-40874641D01*
X104946704Y-40750317D01*
X104904040Y-40694988D01*
X104898061Y-40625374D01*
X104930667Y-40563580D01*
X104946702Y-40549684D01*
X105117821Y-40425359D01*
X105270359Y-40272821D01*
X105397157Y-40098299D01*
X105495092Y-39906089D01*
X105561754Y-39700926D01*
X105578193Y-39597136D01*
X105595500Y-39487866D01*
X105595500Y-39272133D01*
X105570110Y-39111835D01*
X105561754Y-39059074D01*
X105495092Y-38853911D01*
X105397157Y-38661701D01*
X105270359Y-38487179D01*
X105127996Y-38344816D01*
X105094511Y-38283493D01*
X105099495Y-38213801D01*
X105141367Y-38157868D01*
X105163289Y-38144745D01*
X105164127Y-38144354D01*
X105313345Y-38052315D01*
X105437315Y-37928345D01*
X105529356Y-37779124D01*
X105529358Y-37779119D01*
X105584505Y-37612697D01*
X105584506Y-37612690D01*
X105594999Y-37509986D01*
X105595000Y-37509973D01*
X105595000Y-37090000D01*
X104542709Y-37090000D01*
X104554452Y-37069661D01*
X104595000Y-36918333D01*
X104595000Y-36761667D01*
X104554452Y-36610339D01*
X104542709Y-36590000D01*
X105594999Y-36590000D01*
X105594999Y-36170028D01*
X105594998Y-36170013D01*
X105584505Y-36067302D01*
X105529358Y-35900880D01*
X105529356Y-35900875D01*
X105437315Y-35751654D01*
X105313345Y-35627684D01*
X105164124Y-35535643D01*
X105164119Y-35535641D01*
X104997697Y-35480494D01*
X104997690Y-35480493D01*
X104894986Y-35470000D01*
X104250000Y-35470000D01*
X104250000Y-36297290D01*
X104229661Y-36285548D01*
X104078333Y-36245000D01*
X103921667Y-36245000D01*
X103770339Y-36285548D01*
X103750000Y-36297290D01*
X103750000Y-35470000D01*
X103105028Y-35470000D01*
X103105012Y-35470001D01*
X103002302Y-35480494D01*
X102835880Y-35535641D01*
X102835875Y-35535643D01*
X102686654Y-35627684D01*
X102562684Y-35751654D01*
X102470643Y-35900875D01*
X102470641Y-35900880D01*
X102415494Y-36067302D01*
X102415493Y-36067309D01*
X102405000Y-36170013D01*
X102405000Y-36590000D01*
X103457291Y-36590000D01*
X103445548Y-36610339D01*
X103405000Y-36761667D01*
X103405000Y-36918333D01*
X103445548Y-37069661D01*
X103457291Y-37090000D01*
X102405001Y-37090000D01*
X102405001Y-37509986D01*
X102415494Y-37612697D01*
X102470641Y-37779119D01*
X102470643Y-37779124D01*
X102562684Y-37928345D01*
X102686654Y-38052315D01*
X102835876Y-38144356D01*
X102836716Y-38144748D01*
X102837195Y-38145170D01*
X102842025Y-38148149D01*
X102841516Y-38148973D01*
X102889160Y-38190915D01*
X102908318Y-38258107D01*
X102888109Y-38324990D01*
X102872004Y-38344816D01*
X102729640Y-38487180D01*
X102602843Y-38661700D01*
X102504909Y-38853908D01*
X102438245Y-39059077D01*
X102404500Y-39272133D01*
X98770500Y-39272133D01*
X98770500Y-34055258D01*
X109429500Y-34055258D01*
X109429500Y-34284741D01*
X109454446Y-34474215D01*
X109459452Y-34512238D01*
X109459453Y-34512240D01*
X109518842Y-34733887D01*
X109606650Y-34945876D01*
X109606657Y-34945890D01*
X109721392Y-35144617D01*
X109861081Y-35326661D01*
X109861089Y-35326670D01*
X110023330Y-35488911D01*
X110023338Y-35488918D01*
X110205382Y-35628607D01*
X110205385Y-35628608D01*
X110205388Y-35628611D01*
X110404112Y-35743344D01*
X110404117Y-35743346D01*
X110404123Y-35743349D01*
X110495480Y-35781190D01*
X110616113Y-35831158D01*
X110837762Y-35890548D01*
X111010874Y-35913339D01*
X111074769Y-35941604D01*
X111113240Y-35999929D01*
X111114071Y-36069793D01*
X111095007Y-36109160D01*
X111077086Y-36133827D01*
X110969897Y-36344197D01*
X110896934Y-36568752D01*
X110860000Y-36801947D01*
X110860000Y-37038052D01*
X110896934Y-37271247D01*
X110969897Y-37495802D01*
X111055550Y-37663906D01*
X111068446Y-37732575D01*
X111042170Y-37797316D01*
X110985063Y-37837573D01*
X110969257Y-37841818D01*
X110888170Y-37857947D01*
X110888160Y-37857950D01*
X110706092Y-37933364D01*
X110706079Y-37933371D01*
X110542218Y-38042860D01*
X110542214Y-38042863D01*
X110402863Y-38182214D01*
X110402860Y-38182218D01*
X110293371Y-38346079D01*
X110293364Y-38346092D01*
X110217950Y-38528160D01*
X110217947Y-38528170D01*
X110179500Y-38721456D01*
X110179500Y-38721459D01*
X110179500Y-38918541D01*
X110179500Y-38918543D01*
X110179499Y-38918543D01*
X110217947Y-39111829D01*
X110217950Y-39111839D01*
X110293364Y-39293907D01*
X110293371Y-39293920D01*
X110402860Y-39457781D01*
X110402863Y-39457785D01*
X110542214Y-39597136D01*
X110542218Y-39597139D01*
X110706079Y-39706628D01*
X110706092Y-39706635D01*
X110888160Y-39782049D01*
X110888165Y-39782051D01*
X110888169Y-39782051D01*
X110888170Y-39782052D01*
X111081456Y-39820500D01*
X111081459Y-39820500D01*
X111278543Y-39820500D01*
X111408582Y-39794632D01*
X111471835Y-39782051D01*
X111653914Y-39706632D01*
X111817782Y-39597139D01*
X111957139Y-39457782D01*
X112066632Y-39293914D01*
X112142051Y-39111835D01*
X112180500Y-38918541D01*
X112180500Y-38721459D01*
X112180500Y-38721456D01*
X112150013Y-38568192D01*
X112156240Y-38498600D01*
X112199103Y-38443423D01*
X112264992Y-38420178D01*
X112271630Y-38420000D01*
X112478052Y-38420000D01*
X112711247Y-38383065D01*
X112935802Y-38310102D01*
X113146171Y-38202914D01*
X113269977Y-38112964D01*
X113335784Y-38089484D01*
X113403838Y-38105309D01*
X113451779Y-38154640D01*
X113451953Y-38154546D01*
X113452293Y-38155169D01*
X113452532Y-38155415D01*
X113453009Y-38156480D01*
X113456206Y-38162335D01*
X113542452Y-38277544D01*
X113542455Y-38277547D01*
X113657664Y-38363793D01*
X113657671Y-38363797D01*
X113792517Y-38414091D01*
X113792516Y-38414091D01*
X113799444Y-38414835D01*
X113852127Y-38420500D01*
X115947872Y-38420499D01*
X116007483Y-38414091D01*
X116142331Y-38363796D01*
X116257546Y-38277546D01*
X116343796Y-38162331D01*
X116394091Y-38027483D01*
X116400500Y-37967873D01*
X116400499Y-36014002D01*
X116420184Y-35946964D01*
X116472987Y-35901209D01*
X116508313Y-35891064D01*
X116512238Y-35890548D01*
X116733887Y-35831158D01*
X116945888Y-35743344D01*
X117144612Y-35628611D01*
X117326661Y-35488919D01*
X117326665Y-35488914D01*
X117326670Y-35488911D01*
X117488911Y-35326670D01*
X117488914Y-35326665D01*
X117488919Y-35326661D01*
X117628611Y-35144612D01*
X117743344Y-34945888D01*
X117831158Y-34733887D01*
X117890548Y-34512238D01*
X117920500Y-34284734D01*
X117920500Y-34055266D01*
X117890548Y-33827762D01*
X117831158Y-33606113D01*
X117743344Y-33394112D01*
X117628611Y-33195388D01*
X117628608Y-33195385D01*
X117628607Y-33195382D01*
X117488918Y-33013338D01*
X117488911Y-33013330D01*
X117326670Y-32851089D01*
X117326661Y-32851081D01*
X117144617Y-32711392D01*
X116945890Y-32596657D01*
X116945876Y-32596650D01*
X116733887Y-32508842D01*
X116512238Y-32449452D01*
X116474215Y-32444446D01*
X116284741Y-32419500D01*
X116284734Y-32419500D01*
X116271905Y-32419500D01*
X116204866Y-32399815D01*
X116159111Y-32347011D01*
X116149167Y-32277853D01*
X116171586Y-32222615D01*
X116183343Y-32206433D01*
X116290568Y-31995992D01*
X116363553Y-31771368D01*
X116388637Y-31612993D01*
X116400500Y-31538097D01*
X116400500Y-31301902D01*
X116363553Y-31068631D01*
X116290566Y-30844003D01*
X116183342Y-30633566D01*
X116123277Y-30550894D01*
X116044517Y-30442490D01*
X115877510Y-30275483D01*
X115686433Y-30136657D01*
X115475996Y-30029433D01*
X115251368Y-29956446D01*
X115018097Y-29919500D01*
X115018092Y-29919500D01*
X114781908Y-29919500D01*
X114781903Y-29919500D01*
X114548631Y-29956446D01*
X114324003Y-30029433D01*
X114113566Y-30136657D01*
X114030047Y-30197338D01*
X113922490Y-30275483D01*
X113922488Y-30275485D01*
X113922487Y-30275485D01*
X113755482Y-30442490D01*
X113712451Y-30501717D01*
X113657120Y-30544382D01*
X113602405Y-30552448D01*
X113582658Y-30550893D01*
X112842962Y-31290590D01*
X112825925Y-31227007D01*
X112760099Y-31112993D01*
X112667007Y-31019901D01*
X112552993Y-30954075D01*
X112489409Y-30937037D01*
X113229105Y-30197340D01*
X113229104Y-30197338D01*
X113146174Y-30137087D01*
X112935802Y-30029897D01*
X112711247Y-29956934D01*
X112711248Y-29956934D01*
X112478052Y-29920000D01*
X112241948Y-29920000D01*
X112008752Y-29956934D01*
X111784197Y-30029897D01*
X111573830Y-30137084D01*
X111490894Y-30197340D01*
X112230591Y-30937037D01*
X112167007Y-30954075D01*
X112052993Y-31019901D01*
X111959901Y-31112993D01*
X111894075Y-31227007D01*
X111877037Y-31290591D01*
X111137340Y-30550894D01*
X111077084Y-30633830D01*
X110969897Y-30844197D01*
X110896934Y-31068752D01*
X110860000Y-31301947D01*
X110860000Y-31538052D01*
X110896934Y-31771247D01*
X110969897Y-31995802D01*
X111077087Y-32206175D01*
X111095005Y-32230837D01*
X111118485Y-32296644D01*
X111102659Y-32364697D01*
X111052553Y-32413392D01*
X111010873Y-32426661D01*
X110897496Y-32441587D01*
X110837762Y-32449452D01*
X110744076Y-32474554D01*
X110616112Y-32508842D01*
X110404123Y-32596650D01*
X110404109Y-32596657D01*
X110205382Y-32711392D01*
X110023338Y-32851081D01*
X109861081Y-33013338D01*
X109721392Y-33195382D01*
X109606657Y-33394109D01*
X109606650Y-33394123D01*
X109518842Y-33606112D01*
X109459453Y-33827759D01*
X109459451Y-33827770D01*
X109429500Y-34055258D01*
X98770500Y-34055258D01*
X98770500Y-29186307D01*
X99197538Y-29186307D01*
X106360960Y-29186307D01*
X106360960Y-28068853D01*
X99197538Y-28068853D01*
X99197538Y-29186307D01*
X98770500Y-29186307D01*
X98770500Y-27834500D01*
X98790185Y-27767461D01*
X98842989Y-27721706D01*
X98894500Y-27710500D01*
X120395500Y-27710500D01*
X120462539Y-27730185D01*
G37*
%TD.AperFunction*%
%TD*%
M02*
