%TF.GenerationSoftware,KiCad,Pcbnew,9.0.4*%
%TF.CreationDate,2026-03-15T16:45:00+00:00*%
%TF.ProjectId,Line following V3,4c696e65-2066-46f6-9c6c-6f77696e6720,rev?*%
%TF.SameCoordinates,Original*%
%TF.FileFunction,Copper,L1,Top*%
%TF.FilePolarity,Positive*%
%FSLAX46Y46*%
G04 Gerber Fmt 4.6, Leading zero omitted, Abs format (unit mm)*
G04 Created by KiCad (PCBNEW 9.0.4) date 2026-03-15 16:45:00*
%MOMM*%
%LPD*%
G01*
G04 APERTURE LIST*
G04 Aperture macros list*
%AMRoundRect*
0 Rectangle with rounded corners*
0 $1 Rounding radius*
0 $2 $3 $4 $5 $6 $7 $8 $9 X,Y pos of 4 corners*
0 Add a 4 corners polygon primitive as box body*
4,1,4,$2,$3,$4,$5,$6,$7,$8,$9,$2,$3,0*
0 Add four circle primitives for the rounded corners*
1,1,$1+$1,$2,$3*
1,1,$1+$1,$4,$5*
1,1,$1+$1,$6,$7*
1,1,$1+$1,$8,$9*
0 Add four rect primitives between the rounded corners*
20,1,$1+$1,$2,$3,$4,$5,0*
20,1,$1+$1,$4,$5,$6,$7,0*
20,1,$1+$1,$6,$7,$8,$9,0*
20,1,$1+$1,$8,$9,$2,$3,0*%
G04 Aperture macros list end*
%ADD10C,0.100000*%
%TA.AperFunction,ComponentPad*%
%ADD11RoundRect,0.250000X-0.845000X0.620000X-0.845000X-0.620000X0.845000X-0.620000X0.845000X0.620000X0*%
%TD*%
%TA.AperFunction,ComponentPad*%
%ADD12O,2.190000X1.740000*%
%TD*%
%TA.AperFunction,ComponentPad*%
%ADD13C,6.000000*%
%TD*%
%TA.AperFunction,SMDPad,CuDef*%
%ADD14RoundRect,0.250000X0.337500X0.475000X-0.337500X0.475000X-0.337500X-0.475000X0.337500X-0.475000X0*%
%TD*%
%TA.AperFunction,SMDPad,CuDef*%
%ADD15RoundRect,0.250000X0.450000X-0.350000X0.450000X0.350000X-0.450000X0.350000X-0.450000X-0.350000X0*%
%TD*%
%TA.AperFunction,SMDPad,CuDef*%
%ADD16RoundRect,0.250000X0.350000X0.450000X-0.350000X0.450000X-0.350000X-0.450000X0.350000X-0.450000X0*%
%TD*%
%TA.AperFunction,ComponentPad*%
%ADD17R,2.000000X2.000000*%
%TD*%
%TA.AperFunction,ComponentPad*%
%ADD18C,2.000000*%
%TD*%
%TA.AperFunction,SMDPad,CuDef*%
%ADD19RoundRect,0.250000X-0.450000X0.350000X-0.450000X-0.350000X0.450000X-0.350000X0.450000X0.350000X0*%
%TD*%
%TA.AperFunction,ComponentPad*%
%ADD20RoundRect,0.250000X-0.950000X-0.550000X0.950000X-0.550000X0.950000X0.550000X-0.950000X0.550000X0*%
%TD*%
%TA.AperFunction,ComponentPad*%
%ADD21O,2.400000X1.600000*%
%TD*%
%TA.AperFunction,ViaPad*%
%ADD22C,2.000000*%
%TD*%
%TA.AperFunction,Conductor*%
%ADD23C,0.600000*%
%TD*%
G04 APERTURE END LIST*
D10*
G36*
X106884210Y-29077580D02*
G01*
X106565062Y-29077580D01*
X106487638Y-29038868D01*
X106451493Y-29002724D01*
X106412782Y-28925301D01*
X106412782Y-28806050D01*
X106451493Y-28728626D01*
X106487638Y-28692482D01*
X106565062Y-28653771D01*
X106884210Y-28653771D01*
X106884210Y-29077580D01*
G37*
G36*
X107884210Y-29077580D02*
G01*
X107704228Y-29077580D01*
X107580266Y-29036259D01*
X107499113Y-28955106D01*
X107457577Y-28872034D01*
X107412782Y-28692854D01*
X107412782Y-28562307D01*
X107457577Y-28383127D01*
X107499113Y-28300055D01*
X107580266Y-28218901D01*
X107704229Y-28177580D01*
X107884210Y-28177580D01*
X107884210Y-29077580D01*
G37*
G36*
X102563608Y-28212467D02*
G01*
X102598495Y-28282241D01*
X102598495Y-28353872D01*
X102563608Y-28423646D01*
X102493835Y-28458533D01*
X102267543Y-28458533D01*
X102265086Y-28459021D01*
X102263998Y-28458659D01*
X102256270Y-28460775D01*
X102248409Y-28462339D01*
X102247597Y-28463150D01*
X102245182Y-28463812D01*
X102222305Y-28475250D01*
X102222305Y-28206101D01*
X102279346Y-28177580D01*
X102493835Y-28177580D01*
X102563608Y-28212467D01*
G37*
G36*
X103455638Y-28639586D02*
G01*
X103420751Y-28709360D01*
X103350978Y-28744247D01*
X103184109Y-28744247D01*
X103114334Y-28709360D01*
X103079448Y-28639587D01*
X103079448Y-28597142D01*
X103455638Y-28521904D01*
X103455638Y-28639586D01*
G37*
G36*
X108996277Y-29288691D02*
G01*
X98868341Y-29288691D01*
X98868341Y-29126970D01*
X98979452Y-29126970D01*
X98983254Y-29136475D01*
X98983254Y-29146714D01*
X98990079Y-29153539D01*
X98993664Y-29162502D01*
X99003075Y-29166535D01*
X99010314Y-29173774D01*
X99028327Y-29177357D01*
X99028838Y-29177576D01*
X99029033Y-29177497D01*
X99029448Y-29177580D01*
X99696114Y-29177580D01*
X99715248Y-29173774D01*
X99742308Y-29146714D01*
X99742308Y-29108446D01*
X103745159Y-29108446D01*
X103745159Y-29146714D01*
X103772219Y-29173774D01*
X103791353Y-29177580D01*
X104362781Y-29177580D01*
X104381915Y-29173774D01*
X104408975Y-29146714D01*
X104408975Y-29108446D01*
X104381915Y-29081386D01*
X104362781Y-29077580D01*
X104127067Y-29077580D01*
X104127067Y-28318057D01*
X105360401Y-28318057D01*
X105360401Y-28556152D01*
X105360889Y-28558608D01*
X105360527Y-28559697D01*
X105362643Y-28567424D01*
X105364207Y-28575286D01*
X105365018Y-28576097D01*
X105365680Y-28578513D01*
X105413298Y-28673750D01*
X105418213Y-28680083D01*
X105422665Y-28686745D01*
X105470283Y-28734364D01*
X105476949Y-28738818D01*
X105483278Y-28743730D01*
X105578516Y-28791349D01*
X105580931Y-28792010D01*
X105581743Y-28792822D01*
X105589604Y-28794385D01*
X105597332Y-28796502D01*
X105598420Y-28796139D01*
X105600877Y-28796628D01*
X105633546Y-28796628D01*
X105372772Y-29094655D01*
X105365677Y-29106975D01*
X105364207Y-29108446D01*
X105364207Y-29109529D01*
X105363037Y-29111561D01*
X105364207Y-29129115D01*
X105364207Y-29146714D01*
X105365463Y-29147970D01*
X105365582Y-29149745D01*
X105378826Y-29161333D01*
X105391267Y-29173774D01*
X105393567Y-29174231D01*
X105394382Y-29174944D01*
X105396454Y-29174805D01*
X105410401Y-29177580D01*
X106029448Y-29177580D01*
X106048582Y-29173774D01*
X106075642Y-29146714D01*
X106075642Y-29108446D01*
X106048582Y-29081386D01*
X106029448Y-29077580D01*
X105520589Y-29077580D01*
X105768506Y-28794247D01*
X106312782Y-28794247D01*
X106312782Y-28937104D01*
X106313270Y-28939560D01*
X106312908Y-28940649D01*
X106315024Y-28948376D01*
X106316588Y-28956238D01*
X106317399Y-28957049D01*
X106318061Y-28959465D01*
X106365679Y-29054702D01*
X106370594Y-29061035D01*
X106375046Y-29067697D01*
X106422664Y-29115316D01*
X106429330Y-29119770D01*
X106435659Y-29124682D01*
X106530897Y-29172301D01*
X106533312Y-29172962D01*
X106534124Y-29173774D01*
X106541985Y-29175337D01*
X106549713Y-29177454D01*
X106550801Y-29177091D01*
X106553258Y-29177580D01*
X106934210Y-29177580D01*
X106953344Y-29173774D01*
X106980404Y-29146714D01*
X106984210Y-29127580D01*
X106984210Y-28556152D01*
X107312782Y-28556152D01*
X107312782Y-28699009D01*
X107313977Y-28705018D01*
X107314275Y-28711136D01*
X107361894Y-28901612D01*
X107364233Y-28906564D01*
X107365680Y-28911846D01*
X107413298Y-29007083D01*
X107418213Y-29013416D01*
X107422665Y-29020078D01*
X107517903Y-29115316D01*
X107519984Y-29116706D01*
X107520498Y-29117734D01*
X107527463Y-29121704D01*
X107534124Y-29126155D01*
X107535272Y-29126155D01*
X107537447Y-29127395D01*
X107680303Y-29175014D01*
X107688253Y-29176016D01*
X107696115Y-29177580D01*
X107934210Y-29177580D01*
X107953344Y-29173774D01*
X107980404Y-29146714D01*
X107984210Y-29127580D01*
X107984210Y-29108446D01*
X108221350Y-29108446D01*
X108221350Y-29146714D01*
X108248410Y-29173774D01*
X108267544Y-29177580D01*
X108838972Y-29177580D01*
X108858106Y-29173774D01*
X108885166Y-29146714D01*
X108885166Y-29108446D01*
X108858106Y-29081386D01*
X108838972Y-29077580D01*
X108603258Y-29077580D01*
X108603258Y-28127580D01*
X108599452Y-28108446D01*
X108572392Y-28081386D01*
X108534124Y-28081386D01*
X108507064Y-28108446D01*
X108503258Y-28127580D01*
X108503258Y-29077580D01*
X108267544Y-29077580D01*
X108248410Y-29081386D01*
X108221350Y-29108446D01*
X107984210Y-29108446D01*
X107984210Y-28127580D01*
X107980404Y-28108446D01*
X107953344Y-28081386D01*
X107934210Y-28077580D01*
X107696115Y-28077580D01*
X107688253Y-28079143D01*
X107680303Y-28080146D01*
X107537446Y-28127766D01*
X107535271Y-28129006D01*
X107534124Y-28129006D01*
X107527465Y-28133455D01*
X107520498Y-28137427D01*
X107519984Y-28138454D01*
X107517903Y-28139845D01*
X107422665Y-28235083D01*
X107418213Y-28241744D01*
X107413298Y-28248078D01*
X107365680Y-28343315D01*
X107364233Y-28348596D01*
X107361894Y-28353549D01*
X107314275Y-28544025D01*
X107313977Y-28550142D01*
X107312782Y-28556152D01*
X106984210Y-28556152D01*
X106984210Y-28127580D01*
X106980404Y-28108446D01*
X106953344Y-28081386D01*
X106915076Y-28081386D01*
X106888016Y-28108446D01*
X106884210Y-28127580D01*
X106884210Y-28553771D01*
X106553258Y-28553771D01*
X106550801Y-28554259D01*
X106549713Y-28553897D01*
X106541985Y-28556013D01*
X106534124Y-28557577D01*
X106533312Y-28558388D01*
X106530897Y-28559050D01*
X106435659Y-28606669D01*
X106429330Y-28611580D01*
X106422664Y-28616035D01*
X106375046Y-28663654D01*
X106370594Y-28670315D01*
X106365679Y-28676649D01*
X106318061Y-28771886D01*
X106317399Y-28774301D01*
X106316588Y-28775113D01*
X106315024Y-28782974D01*
X106312908Y-28790702D01*
X106313270Y-28791790D01*
X106312782Y-28794247D01*
X105768506Y-28794247D01*
X105781363Y-28779553D01*
X105788457Y-28767232D01*
X105789928Y-28765762D01*
X105789928Y-28764678D01*
X105791098Y-28762647D01*
X105789928Y-28745092D01*
X105789928Y-28727494D01*
X105788671Y-28726237D01*
X105788553Y-28724463D01*
X105775308Y-28712874D01*
X105762868Y-28700434D01*
X105760567Y-28699976D01*
X105759753Y-28699264D01*
X105757680Y-28699402D01*
X105743734Y-28696628D01*
X105612681Y-28696628D01*
X105535257Y-28657916D01*
X105499112Y-28621772D01*
X105460401Y-28544349D01*
X105460401Y-28329860D01*
X105499112Y-28252436D01*
X105535257Y-28216291D01*
X105612680Y-28177580D01*
X105874788Y-28177580D01*
X105952211Y-28216292D01*
X105994092Y-28258174D01*
X106010313Y-28269013D01*
X106048582Y-28269013D01*
X106075642Y-28241953D01*
X106075642Y-28203684D01*
X106064803Y-28187463D01*
X106017184Y-28139845D01*
X106010524Y-28135394D01*
X106004190Y-28130479D01*
X105908952Y-28082859D01*
X105906536Y-28082197D01*
X105905725Y-28081386D01*
X105897863Y-28079822D01*
X105890136Y-28077706D01*
X105889047Y-28078068D01*
X105886591Y-28077580D01*
X105600877Y-28077580D01*
X105598420Y-28078068D01*
X105597332Y-28077706D01*
X105589604Y-28079822D01*
X105581743Y-28081386D01*
X105580931Y-28082197D01*
X105578516Y-28082859D01*
X105483278Y-28130479D01*
X105476949Y-28135390D01*
X105470283Y-28139845D01*
X105422665Y-28187464D01*
X105418213Y-28194125D01*
X105413298Y-28200459D01*
X105365680Y-28295696D01*
X105365018Y-28298111D01*
X105364207Y-28298923D01*
X105362643Y-28306784D01*
X105360527Y-28314512D01*
X105360889Y-28315600D01*
X105360401Y-28318057D01*
X104127067Y-28318057D01*
X104127067Y-28127580D01*
X104123261Y-28108446D01*
X104096201Y-28081386D01*
X104057933Y-28081386D01*
X104030873Y-28108446D01*
X104027067Y-28127580D01*
X104027067Y-29077580D01*
X103791353Y-29077580D01*
X103772219Y-29081386D01*
X103745159Y-29108446D01*
X99742308Y-29108446D01*
X99715248Y-29081386D01*
X99696114Y-29077580D01*
X99105275Y-29077580D01*
X99503976Y-28147276D01*
X99508015Y-28128190D01*
X99507771Y-28127580D01*
X100788971Y-28127580D01*
X100788971Y-28651390D01*
X100789459Y-28653846D01*
X100789097Y-28654935D01*
X100791213Y-28662662D01*
X100792777Y-28670524D01*
X100793588Y-28671335D01*
X100794250Y-28673751D01*
X100841868Y-28768988D01*
X100847973Y-28776854D01*
X100848818Y-28779388D01*
X100851639Y-28781577D01*
X100853830Y-28784400D01*
X100856364Y-28785245D01*
X100864230Y-28791349D01*
X100959468Y-28838968D01*
X100961883Y-28839629D01*
X100962695Y-28840441D01*
X100970556Y-28842004D01*
X100978284Y-28844121D01*
X100979372Y-28843758D01*
X100981829Y-28844247D01*
X101124686Y-28844247D01*
X101127142Y-28843758D01*
X101128231Y-28844121D01*
X101135958Y-28842004D01*
X101143820Y-28840441D01*
X101144631Y-28839629D01*
X101147047Y-28838968D01*
X101242284Y-28791350D01*
X101250148Y-28785246D01*
X101252684Y-28784401D01*
X101254875Y-28781577D01*
X101257696Y-28779388D01*
X101258540Y-28776854D01*
X101264645Y-28768989D01*
X101267542Y-28763193D01*
X101270440Y-28768988D01*
X101276543Y-28776852D01*
X101277389Y-28779388D01*
X101280212Y-28781579D01*
X101282402Y-28784400D01*
X101284935Y-28785244D01*
X101292801Y-28791349D01*
X101388039Y-28838968D01*
X101390454Y-28839629D01*
X101391266Y-28840441D01*
X101399127Y-28842004D01*
X101406855Y-28844121D01*
X101407943Y-28843758D01*
X101410400Y-28844247D01*
X101553257Y-28844247D01*
X101555713Y-28843758D01*
X101556802Y-28844121D01*
X101564529Y-28842004D01*
X101572391Y-28840441D01*
X101573202Y-28839629D01*
X101575618Y-28838968D01*
X101647827Y-28802863D01*
X101649920Y-28813381D01*
X101676980Y-28840441D01*
X101715248Y-28840441D01*
X101742308Y-28813381D01*
X101746114Y-28794247D01*
X101746114Y-28127580D01*
X102122305Y-28127580D01*
X102122305Y-28651390D01*
X102122793Y-28653846D01*
X102122431Y-28654935D01*
X102124547Y-28662662D01*
X102126111Y-28670524D01*
X102126922Y-28671335D01*
X102127584Y-28673751D01*
X102175202Y-28768988D01*
X102181305Y-28776852D01*
X102182151Y-28779388D01*
X102184974Y-28781579D01*
X102187164Y-28784400D01*
X102189697Y-28785244D01*
X102197563Y-28791349D01*
X102292801Y-28838968D01*
X102295216Y-28839629D01*
X102296028Y-28840441D01*
X102303889Y-28842004D01*
X102311617Y-28844121D01*
X102312705Y-28843758D01*
X102315162Y-28844247D01*
X102505638Y-28844247D01*
X102508094Y-28843758D01*
X102509183Y-28844121D01*
X102516910Y-28842004D01*
X102524772Y-28840441D01*
X102525583Y-28839629D01*
X102527999Y-28838968D01*
X102623236Y-28791350D01*
X102638648Y-28779388D01*
X102650750Y-28743084D01*
X102633636Y-28708856D01*
X102597331Y-28696754D01*
X102578515Y-28701907D01*
X102493835Y-28744247D01*
X102326966Y-28744247D01*
X102257191Y-28709360D01*
X102222305Y-28639587D01*
X102222305Y-28587053D01*
X102279347Y-28558533D01*
X102505638Y-28558533D01*
X102508094Y-28558044D01*
X102509183Y-28558407D01*
X102516910Y-28556290D01*
X102517604Y-28556152D01*
X102979448Y-28556152D01*
X102979448Y-28651390D01*
X102979936Y-28653846D01*
X102979574Y-28654935D01*
X102981690Y-28662662D01*
X102983254Y-28670524D01*
X102984065Y-28671335D01*
X102984727Y-28673751D01*
X103032345Y-28768988D01*
X103038448Y-28776852D01*
X103039294Y-28779388D01*
X103042117Y-28781579D01*
X103044307Y-28784400D01*
X103046840Y-28785244D01*
X103054706Y-28791349D01*
X103149944Y-28838968D01*
X103152359Y-28839629D01*
X103153171Y-28840441D01*
X103161032Y-28842004D01*
X103168760Y-28844121D01*
X103169848Y-28843758D01*
X103172305Y-28844247D01*
X103362781Y-28844247D01*
X103365237Y-28843758D01*
X103366326Y-28844121D01*
X103374053Y-28842004D01*
X103381915Y-28840441D01*
X103382726Y-28839629D01*
X103385142Y-28838968D01*
X103480379Y-28791350D01*
X103488243Y-28785246D01*
X103490779Y-28784401D01*
X103492970Y-28781577D01*
X103495791Y-28779388D01*
X103496635Y-28776854D01*
X103502740Y-28768989D01*
X103550359Y-28673751D01*
X103551020Y-28671335D01*
X103551832Y-28670524D01*
X103553395Y-28662662D01*
X103555512Y-28654935D01*
X103555149Y-28653846D01*
X103555638Y-28651390D01*
X103555638Y-28270438D01*
X103555149Y-28267981D01*
X103555512Y-28266893D01*
X103553395Y-28259165D01*
X103551832Y-28251304D01*
X103551020Y-28250492D01*
X103550359Y-28248077D01*
X103502740Y-28152839D01*
X103496637Y-28144975D01*
X103495792Y-28142440D01*
X103492969Y-28140249D01*
X103490779Y-28137427D01*
X103488243Y-28136581D01*
X103480380Y-28130479D01*
X103385142Y-28082859D01*
X103382726Y-28082197D01*
X103381915Y-28081386D01*
X103374053Y-28079822D01*
X103366326Y-28077706D01*
X103365237Y-28078068D01*
X103362781Y-28077580D01*
X103172305Y-28077580D01*
X103169848Y-28078068D01*
X103168760Y-28077706D01*
X103161032Y-28079822D01*
X103153171Y-28081386D01*
X103152359Y-28082197D01*
X103149944Y-28082859D01*
X103054706Y-28130479D01*
X103039294Y-28142440D01*
X103027193Y-28178745D01*
X103044307Y-28212973D01*
X103080612Y-28225074D01*
X103099428Y-28219921D01*
X103184108Y-28177580D01*
X103350978Y-28177580D01*
X103420751Y-28212467D01*
X103455638Y-28282241D01*
X103455638Y-28419923D01*
X103019642Y-28507123D01*
X103012818Y-28509958D01*
X103010314Y-28509958D01*
X103008534Y-28511737D01*
X103001626Y-28514608D01*
X102993550Y-28526721D01*
X102983254Y-28537018D01*
X102981794Y-28544355D01*
X102980399Y-28546449D01*
X102980889Y-28548903D01*
X102979448Y-28556152D01*
X102517604Y-28556152D01*
X102524772Y-28554727D01*
X102525583Y-28553915D01*
X102527999Y-28553254D01*
X102623236Y-28505636D01*
X102631100Y-28499532D01*
X102633636Y-28498687D01*
X102635827Y-28495863D01*
X102638648Y-28493674D01*
X102639492Y-28491140D01*
X102645597Y-28483275D01*
X102693216Y-28388037D01*
X102693877Y-28385621D01*
X102694689Y-28384810D01*
X102696252Y-28376948D01*
X102698369Y-28369221D01*
X102698006Y-28368132D01*
X102698495Y-28365676D01*
X102698495Y-28270438D01*
X102698006Y-28267981D01*
X102698369Y-28266893D01*
X102696252Y-28259165D01*
X102694689Y-28251304D01*
X102693877Y-28250492D01*
X102693216Y-28248077D01*
X102645597Y-28152839D01*
X102639494Y-28144975D01*
X102638649Y-28142440D01*
X102635826Y-28140249D01*
X102633636Y-28137427D01*
X102631100Y-28136581D01*
X102623237Y-28130479D01*
X102527999Y-28082859D01*
X102525583Y-28082197D01*
X102524772Y-28081386D01*
X102516910Y-28079822D01*
X102509183Y-28077706D01*
X102508094Y-28078068D01*
X102505638Y-28077580D01*
X102267543Y-28077580D01*
X102265086Y-28078068D01*
X102263998Y-28077706D01*
X102256270Y-28079822D01*
X102248409Y-28081386D01*
X102247597Y-28082197D01*
X102245182Y-28082859D01*
X102210335Y-28100282D01*
X102191439Y-28081386D01*
X102153171Y-28081386D01*
X102126111Y-28108446D01*
X102122305Y-28127580D01*
X101746114Y-28127580D01*
X101742308Y-28108446D01*
X101715248Y-28081386D01*
X101676980Y-28081386D01*
X101649920Y-28108446D01*
X101646114Y-28127580D01*
X101646114Y-28678298D01*
X101618877Y-28705535D01*
X101541454Y-28744247D01*
X101422204Y-28744247D01*
X101352429Y-28709360D01*
X101317543Y-28639587D01*
X101317543Y-28127580D01*
X101313737Y-28108446D01*
X101286677Y-28081386D01*
X101248409Y-28081386D01*
X101221349Y-28108446D01*
X101217543Y-28127580D01*
X101217543Y-28639586D01*
X101182656Y-28709360D01*
X101112883Y-28744247D01*
X100993633Y-28744247D01*
X100923857Y-28709360D01*
X100888971Y-28639587D01*
X100888971Y-28127580D01*
X100885165Y-28108446D01*
X100858105Y-28081386D01*
X100819837Y-28081386D01*
X100792777Y-28108446D01*
X100788971Y-28127580D01*
X99507771Y-28127580D01*
X99493802Y-28092659D01*
X99458629Y-28077584D01*
X99423097Y-28091797D01*
X99412062Y-28107884D01*
X98983491Y-29107884D01*
X98983403Y-29108296D01*
X98983254Y-29108446D01*
X98983254Y-29109003D01*
X98979452Y-29126970D01*
X98868341Y-29126970D01*
X98868341Y-27966469D01*
X108996277Y-27966469D01*
X108996277Y-29288691D01*
G37*
D11*
%TO.P,J1,1,Pin_1*%
%TO.N,GND*%
X104000000Y-36840000D03*
D12*
%TO.P,J1,2,Pin_2*%
%TO.N,+5V*%
X104000000Y-39380000D03*
%TO.P,J1,3,Pin_3*%
%TO.N,+3.3V*%
X104000000Y-41920000D03*
%TO.P,J1,4,Pin_4*%
%TO.N,Output*%
X104000000Y-44460000D03*
%TO.P,J1,5,Pin_5*%
%TO.N,Threshold*%
X104000000Y-47000000D03*
%TO.P,J1,6,Pin_6*%
%TO.N,GND*%
X104000000Y-49540000D03*
%TD*%
D13*
%TO.P,H2,1,1*%
%TO.N,GND*%
X115500000Y-56000000D03*
%TD*%
%TO.P,H1,1,1*%
%TO.N,GND*%
X104000000Y-56000000D03*
%TD*%
D14*
%TO.P,C1,1*%
%TO.N,GND*%
X104037500Y-33880000D03*
%TO.P,C1,2*%
%TO.N,+5V*%
X101962500Y-33880000D03*
%TD*%
D15*
%TO.P,R1,1*%
%TO.N,+5V*%
X118700000Y-33420000D03*
%TO.P,R1,2*%
%TO.N,Net-(Q1-A)*%
X118700000Y-31420000D03*
%TD*%
D16*
%TO.P,R2,1*%
%TO.N,+5V*%
X119000000Y-36920000D03*
%TO.P,R2,2*%
%TO.N,Net-(Q1-C)*%
X117000000Y-36920000D03*
%TD*%
D17*
%TO.P,Q1,1,C*%
%TO.N,Net-(Q1-C)*%
X114900000Y-36920000D03*
D18*
%TO.P,Q1,2,E*%
%TO.N,GND*%
X112360000Y-36920000D03*
%TO.P,Q1,3,K*%
X112360000Y-31420000D03*
%TO.P,Q1,4,A*%
%TO.N,Net-(Q1-A)*%
X114900000Y-31420000D03*
%TD*%
D19*
%TO.P,R3,2*%
%TO.N,Output*%
X106500000Y-43880000D03*
%TO.P,R3,1*%
%TO.N,+3.3V*%
X106500000Y-41880000D03*
%TD*%
D20*
%TO.P,U2,1,GND*%
%TO.N,GND*%
X109880000Y-49500000D03*
D21*
%TO.P,U2,2,+*%
%TO.N,Net-(Q1-C)*%
X109880000Y-46960000D03*
%TO.P,U2,3,-*%
%TO.N,Threshold*%
X109880000Y-44420000D03*
%TO.P,U2,4,V-*%
%TO.N,GND*%
X109880000Y-41880000D03*
%TO.P,U2,5,BAL*%
%TO.N,unconnected-(U2-BAL-Pad5)*%
X117500000Y-41880000D03*
%TO.P,U2,6,STRB*%
%TO.N,+5V*%
X117500000Y-44420000D03*
%TO.P,U2,7*%
%TO.N,Output*%
X117500000Y-46960000D03*
%TO.P,U2,8,V+*%
%TO.N,+5V*%
X117500000Y-49500000D03*
%TD*%
D22*
%TO.N,GND*%
X107500000Y-33000000D03*
X113500000Y-47000000D03*
%TD*%
D23*
%TO.N,Net-(Q1-C)*%
X117000000Y-36920000D02*
X114900000Y-36920000D01*
%TO.N,+3.3V*%
X104040000Y-41880000D02*
X104000000Y-41920000D01*
X106500000Y-41880000D02*
X104040000Y-41880000D01*
%TO.N,Output*%
X101000000Y-46000000D02*
X102540000Y-44460000D01*
X102000000Y-52000000D02*
X101000000Y-51000000D01*
X102540000Y-44460000D02*
X104000000Y-44460000D01*
X112060000Y-52000000D02*
X102000000Y-52000000D01*
X117100000Y-46960000D02*
X112060000Y-52000000D01*
X101000000Y-51000000D02*
X101000000Y-46000000D01*
X117500000Y-46960000D02*
X117100000Y-46960000D01*
%TO.N,+5V*%
X119400000Y-33420000D02*
X118700000Y-33420000D01*
X120201000Y-30627734D02*
X120201000Y-32619000D01*
X120201000Y-32619000D02*
X119400000Y-33420000D01*
X111131000Y-29619000D02*
X119192266Y-29619000D01*
X104117500Y-31000000D02*
X109750000Y-31000000D01*
X101962500Y-33880000D02*
X101962500Y-33155000D01*
X101962500Y-33155000D02*
X104117500Y-31000000D01*
X109750000Y-31000000D02*
X111131000Y-29619000D01*
X119192266Y-29619000D02*
X120201000Y-30627734D01*
%TO.N,GND*%
X104037500Y-36802500D02*
X104000000Y-36840000D01*
X104037500Y-33880000D02*
X104037500Y-36802500D01*
X104840000Y-36840000D02*
X104000000Y-36840000D01*
X109880000Y-41880000D02*
X104840000Y-36840000D01*
X111000000Y-49500000D02*
X113500000Y-47000000D01*
X109880000Y-49500000D02*
X111000000Y-49500000D01*
X104040000Y-49500000D02*
X104000000Y-49540000D01*
X109880000Y-49500000D02*
X104040000Y-49500000D01*
X112481000Y-39679000D02*
X110280000Y-41880000D01*
X110280000Y-41880000D02*
X109880000Y-41880000D01*
X112481000Y-37041000D02*
X112481000Y-39679000D01*
X112360000Y-36920000D02*
X112481000Y-37041000D01*
X113360000Y-32420000D02*
X113360000Y-34890552D01*
X112360000Y-31420000D02*
X113360000Y-32420000D01*
X113360000Y-34890552D02*
X112360000Y-35890552D01*
X112360000Y-35890552D02*
X112360000Y-36920000D01*
%TO.N,+5V*%
X101962500Y-37760766D02*
X101962500Y-33880000D01*
X103581734Y-39380000D02*
X101962500Y-37760766D01*
X104000000Y-39380000D02*
X103581734Y-39380000D01*
X119501000Y-47899000D02*
X119501000Y-46296844D01*
X117900000Y-49500000D02*
X119501000Y-47899000D01*
X119501000Y-46296844D02*
X117624156Y-44420000D01*
X117500000Y-49500000D02*
X117900000Y-49500000D01*
X117624156Y-44420000D02*
X117500000Y-44420000D01*
%TO.N,Output*%
X104580000Y-43880000D02*
X104000000Y-44460000D01*
X106500000Y-43880000D02*
X104580000Y-43880000D01*
%TO.N,Threshold*%
X106000000Y-47000000D02*
X104000000Y-47000000D01*
X108580000Y-44420000D02*
X106000000Y-47000000D01*
X109880000Y-44420000D02*
X108580000Y-44420000D01*
%TO.N,+5V*%
X119501000Y-42819000D02*
X117900000Y-44420000D01*
X119501000Y-37421000D02*
X119501000Y-42819000D01*
X117900000Y-44420000D02*
X117500000Y-44420000D01*
X119000000Y-36920000D02*
X119501000Y-37421000D01*
X118700000Y-36620000D02*
X119000000Y-36920000D01*
X118700000Y-33420000D02*
X118700000Y-36620000D01*
%TO.N,Net-(Q1-A)*%
X118700000Y-31420000D02*
X114900000Y-31420000D01*
%TO.N,Net-(Q1-C)*%
X110004156Y-46960000D02*
X109880000Y-46960000D01*
X114900000Y-42064156D02*
X110004156Y-46960000D01*
X114900000Y-36920000D02*
X114900000Y-42064156D01*
%TD*%
%TA.AperFunction,Conductor*%
%TO.N,GND*%
G36*
X120462539Y-27730185D02*
G01*
X120508294Y-27782989D01*
X120519500Y-27834500D01*
X120519500Y-29514793D01*
X120499815Y-29581832D01*
X120447011Y-29627587D01*
X120377853Y-29637531D01*
X120314297Y-29608506D01*
X120307819Y-29602474D01*
X119702558Y-28997213D01*
X119702554Y-28997210D01*
X119571451Y-28909609D01*
X119571438Y-28909602D01*
X119425767Y-28849264D01*
X119425755Y-28849261D01*
X119271111Y-28818500D01*
X119271108Y-28818500D01*
X111209842Y-28818500D01*
X111052158Y-28818500D01*
X111052155Y-28818500D01*
X110897510Y-28849261D01*
X110897498Y-28849264D01*
X110751827Y-28909602D01*
X110751814Y-28909609D01*
X110620711Y-28997210D01*
X110620707Y-28997213D01*
X109454741Y-30163181D01*
X109393418Y-30196666D01*
X109367060Y-30199500D01*
X104038655Y-30199500D01*
X103884008Y-30230261D01*
X103883998Y-30230264D01*
X103738327Y-30290602D01*
X103738314Y-30290609D01*
X103607211Y-30378210D01*
X103607207Y-30378213D01*
X101989620Y-31995802D01*
X101452211Y-32533211D01*
X101424085Y-32561337D01*
X101340711Y-32644710D01*
X101294503Y-32713865D01*
X101256499Y-32750511D01*
X101156344Y-32812287D01*
X101032289Y-32936342D01*
X100940187Y-33085663D01*
X100940185Y-33085668D01*
X100912349Y-33169670D01*
X100885001Y-33252203D01*
X100885001Y-33252204D01*
X100885000Y-33252204D01*
X100874500Y-33354983D01*
X100874500Y-34405001D01*
X100874501Y-34405019D01*
X100885000Y-34507796D01*
X100885001Y-34507799D01*
X100886473Y-34512240D01*
X100940186Y-34674334D01*
X101032096Y-34823345D01*
X101032289Y-34823657D01*
X101125681Y-34917049D01*
X101159166Y-34978372D01*
X101162000Y-35004730D01*
X101162000Y-37839612D01*
X101192761Y-37994255D01*
X101192764Y-37994267D01*
X101253102Y-38139938D01*
X101253109Y-38139951D01*
X101340710Y-38271054D01*
X101340713Y-38271058D01*
X102368181Y-39298525D01*
X102401666Y-39359848D01*
X102404500Y-39386206D01*
X102404500Y-39487866D01*
X102438245Y-39700922D01*
X102438246Y-39700926D01*
X102504908Y-39906089D01*
X102602843Y-40098299D01*
X102729641Y-40272821D01*
X102882179Y-40425359D01*
X103003454Y-40513471D01*
X103053294Y-40549682D01*
X103095959Y-40605012D01*
X103101938Y-40674626D01*
X103069332Y-40736421D01*
X103053294Y-40750318D01*
X102998677Y-40790000D01*
X102882179Y-40874641D01*
X102882177Y-40874643D01*
X102882176Y-40874643D01*
X102729643Y-41027176D01*
X102729643Y-41027177D01*
X102729641Y-41027179D01*
X102675186Y-41102129D01*
X102602843Y-41201700D01*
X102504909Y-41393908D01*
X102438245Y-41599077D01*
X102404500Y-41812133D01*
X102404500Y-42027866D01*
X102438245Y-42240922D01*
X102438246Y-42240926D01*
X102504908Y-42446089D01*
X102602843Y-42638299D01*
X102729641Y-42812821D01*
X102882179Y-42965359D01*
X102980348Y-43036683D01*
X103053294Y-43089682D01*
X103095959Y-43145012D01*
X103101938Y-43214626D01*
X103069332Y-43276421D01*
X103053294Y-43290318D01*
X102988038Y-43337729D01*
X102882179Y-43414641D01*
X102882177Y-43414643D01*
X102882176Y-43414643D01*
X102729643Y-43567176D01*
X102729638Y-43567182D01*
X102699703Y-43608385D01*
X102644373Y-43651051D01*
X102599385Y-43659500D01*
X102461155Y-43659500D01*
X102306510Y-43690261D01*
X102306498Y-43690264D01*
X102160827Y-43750602D01*
X102160814Y-43750609D01*
X102029711Y-43838210D01*
X102029707Y-43838213D01*
X100867739Y-45000183D01*
X100489711Y-45378211D01*
X100455956Y-45411966D01*
X100378209Y-45489712D01*
X100290609Y-45620814D01*
X100290602Y-45620827D01*
X100230264Y-45766498D01*
X100230261Y-45766510D01*
X100199500Y-45921153D01*
X100199500Y-51078846D01*
X100230261Y-51233489D01*
X100230264Y-51233501D01*
X100290602Y-51379172D01*
X100290609Y-51379185D01*
X100378210Y-51510288D01*
X100378213Y-51510292D01*
X101489707Y-52621786D01*
X101489711Y-52621789D01*
X101620814Y-52709390D01*
X101620818Y-52709392D01*
X101620821Y-52709394D01*
X101766503Y-52769738D01*
X101921153Y-52800499D01*
X101921157Y-52800500D01*
X101921158Y-52800500D01*
X112138844Y-52800500D01*
X112138845Y-52800499D01*
X112293497Y-52769737D01*
X112439179Y-52709394D01*
X112570289Y-52621789D01*
X115598736Y-49593340D01*
X115660057Y-49559857D01*
X115729749Y-49564841D01*
X115785682Y-49606713D01*
X115808888Y-49661625D01*
X115831522Y-49804534D01*
X115894781Y-49999223D01*
X115987715Y-50181613D01*
X116108028Y-50347213D01*
X116252786Y-50491971D01*
X116407749Y-50604556D01*
X116418390Y-50612287D01*
X116528561Y-50668422D01*
X116600776Y-50705218D01*
X116600778Y-50705218D01*
X116600781Y-50705220D01*
X116690459Y-50734358D01*
X116795465Y-50768477D01*
X116896557Y-50784488D01*
X116997648Y-50800500D01*
X116997649Y-50800500D01*
X118002351Y-50800500D01*
X118002352Y-50800500D01*
X118204534Y-50768477D01*
X118399219Y-50705220D01*
X118581610Y-50612287D01*
X118674590Y-50544732D01*
X118747213Y-50491971D01*
X118747215Y-50491968D01*
X118747219Y-50491966D01*
X118891966Y-50347219D01*
X118891968Y-50347215D01*
X118891971Y-50347213D01*
X118956761Y-50258036D01*
X119012287Y-50181610D01*
X119105220Y-49999219D01*
X119168477Y-49804534D01*
X119200500Y-49602352D01*
X119200500Y-49397648D01*
X119200499Y-49397644D01*
X119200165Y-49393404D01*
X119214519Y-49325024D01*
X119236096Y-49295980D01*
X120122789Y-48409289D01*
X120210394Y-48278179D01*
X120270737Y-48132497D01*
X120273883Y-48116683D01*
X120306267Y-48054772D01*
X120366983Y-48020198D01*
X120436752Y-48023937D01*
X120493425Y-48064803D01*
X120519006Y-48129821D01*
X120519500Y-48140874D01*
X120519500Y-59315500D01*
X120499815Y-59382539D01*
X120447011Y-59428294D01*
X120395500Y-59439500D01*
X98894500Y-59439500D01*
X98827461Y-59419815D01*
X98781706Y-59367011D01*
X98770500Y-59315500D01*
X98770500Y-29285510D01*
X98790185Y-29218471D01*
X98842989Y-29172716D01*
X98912147Y-29162772D01*
X98963749Y-29186338D01*
X98970690Y-29186338D01*
X108893972Y-29186338D01*
X108893972Y-28068823D01*
X98970690Y-28068823D01*
X98961137Y-28068823D01*
X98920858Y-28090817D01*
X98851166Y-28085833D01*
X98795233Y-28043961D01*
X98770816Y-27978497D01*
X98770500Y-27969651D01*
X98770500Y-27834500D01*
X98790185Y-27767461D01*
X98842989Y-27721706D01*
X98894500Y-27710500D01*
X120395500Y-27710500D01*
X120462539Y-27730185D01*
G37*
%TD.AperFunction*%
%TA.AperFunction,Conductor*%
G36*
X115830206Y-42280381D02*
G01*
X115877817Y-42331518D01*
X115884864Y-42348703D01*
X115894780Y-42379220D01*
X115987715Y-42561613D01*
X116108028Y-42727213D01*
X116252786Y-42871971D01*
X116351841Y-42943937D01*
X116418390Y-42992287D01*
X116505522Y-43036683D01*
X116511080Y-43039515D01*
X116561876Y-43087490D01*
X116578671Y-43155311D01*
X116556134Y-43221446D01*
X116511080Y-43260485D01*
X116418386Y-43307715D01*
X116252786Y-43428028D01*
X116108028Y-43572786D01*
X115987715Y-43738386D01*
X115894781Y-43920776D01*
X115831522Y-44115465D01*
X115799500Y-44317648D01*
X115799500Y-44522351D01*
X115831522Y-44724534D01*
X115894781Y-44919223D01*
X115987715Y-45101613D01*
X116108028Y-45267213D01*
X116252786Y-45411971D01*
X116367206Y-45495100D01*
X116418390Y-45532287D01*
X116509840Y-45578883D01*
X116511080Y-45579515D01*
X116561876Y-45627490D01*
X116578671Y-45695311D01*
X116556134Y-45761446D01*
X116511080Y-45800485D01*
X116418386Y-45847715D01*
X116252786Y-45968028D01*
X116108028Y-46112786D01*
X115987715Y-46278386D01*
X115894781Y-46460776D01*
X115831522Y-46655465D01*
X115799500Y-46857648D01*
X115799500Y-47062359D01*
X115799835Y-47066619D01*
X115785467Y-47134996D01*
X115763898Y-47164022D01*
X111764741Y-51163181D01*
X111703418Y-51196666D01*
X111677060Y-51199500D01*
X102382940Y-51199500D01*
X102315901Y-51179815D01*
X102295259Y-51163181D01*
X101836819Y-50704741D01*
X101803334Y-50643418D01*
X101800500Y-50617060D01*
X101800500Y-46382940D01*
X101820185Y-46315901D01*
X101836819Y-46295259D01*
X102666768Y-45465310D01*
X102728091Y-45431825D01*
X102797783Y-45436809D01*
X102842130Y-45465310D01*
X102882179Y-45505359D01*
X103003454Y-45593471D01*
X103053294Y-45629682D01*
X103095959Y-45685012D01*
X103101938Y-45754626D01*
X103069332Y-45816421D01*
X103053294Y-45830318D01*
X102988038Y-45877729D01*
X102882179Y-45954641D01*
X102882177Y-45954643D01*
X102882176Y-45954643D01*
X102729643Y-46107176D01*
X102729643Y-46107177D01*
X102729641Y-46107179D01*
X102699703Y-46148385D01*
X102602843Y-46281700D01*
X102504909Y-46473908D01*
X102438245Y-46679077D01*
X102404500Y-46892133D01*
X102404500Y-47107866D01*
X102429314Y-47264534D01*
X102438246Y-47320926D01*
X102504908Y-47526089D01*
X102602843Y-47718299D01*
X102729641Y-47892821D01*
X102882179Y-48045359D01*
X103047153Y-48165220D01*
X103053720Y-48169991D01*
X103096385Y-48225321D01*
X103102364Y-48294935D01*
X103069758Y-48356730D01*
X103053720Y-48370627D01*
X102882503Y-48495024D01*
X102730025Y-48647502D01*
X102730025Y-48647503D01*
X102603271Y-48821963D01*
X102505372Y-49014098D01*
X102438733Y-49219190D01*
X102427519Y-49290000D01*
X103457291Y-49290000D01*
X103445548Y-49310339D01*
X103405000Y-49461667D01*
X103405000Y-49618333D01*
X103445548Y-49769661D01*
X103457291Y-49790000D01*
X102427519Y-49790000D01*
X102438733Y-49860809D01*
X102505372Y-50065901D01*
X102603271Y-50258036D01*
X102730025Y-50432496D01*
X102730025Y-50432497D01*
X102882502Y-50584974D01*
X103056963Y-50711728D01*
X103249098Y-50809627D01*
X103454190Y-50876265D01*
X103667180Y-50910000D01*
X103750000Y-50910000D01*
X103750000Y-50082709D01*
X103770339Y-50094452D01*
X103921667Y-50135000D01*
X104078333Y-50135000D01*
X104229661Y-50094452D01*
X104250000Y-50082709D01*
X104250000Y-50910000D01*
X104332820Y-50910000D01*
X104545809Y-50876265D01*
X104750901Y-50809627D01*
X104943036Y-50711728D01*
X105117496Y-50584974D01*
X105117497Y-50584974D01*
X105269974Y-50432497D01*
X105269974Y-50432496D01*
X105396728Y-50258036D01*
X105494627Y-50065901D01*
X105561266Y-49860809D01*
X105572481Y-49790000D01*
X104542709Y-49790000D01*
X104554452Y-49769661D01*
X104595000Y-49618333D01*
X104595000Y-49461667D01*
X104554452Y-49310339D01*
X104542709Y-49290000D01*
X105572481Y-49290000D01*
X105561266Y-49219190D01*
X105494627Y-49014098D01*
X105396728Y-48821963D01*
X105269974Y-48647503D01*
X105269974Y-48647502D01*
X105117497Y-48495025D01*
X104946279Y-48370627D01*
X104903614Y-48315297D01*
X104897635Y-48245683D01*
X104930241Y-48183888D01*
X104946280Y-48169991D01*
X104952847Y-48165220D01*
X105117821Y-48045359D01*
X105270359Y-47892821D01*
X105300297Y-47851615D01*
X105355627Y-47808949D01*
X105400615Y-47800500D01*
X106078844Y-47800500D01*
X106078845Y-47800499D01*
X106233497Y-47769737D01*
X106379179Y-47709394D01*
X106510289Y-47621789D01*
X108608477Y-45523599D01*
X108632539Y-45510460D01*
X108654761Y-45494396D01*
X108662763Y-45493957D01*
X108669798Y-45490116D01*
X108697148Y-45492072D01*
X108724526Y-45490571D01*
X108733473Y-45494669D01*
X108739489Y-45495100D01*
X108757385Y-45503453D01*
X108763418Y-45506879D01*
X108798390Y-45532287D01*
X108893578Y-45580787D01*
X108896014Y-45582171D01*
X108918435Y-45605350D01*
X108941876Y-45627490D01*
X108942573Y-45630306D01*
X108944590Y-45632391D01*
X108950919Y-45664009D01*
X108958671Y-45695311D01*
X108957735Y-45698056D01*
X108958305Y-45700902D01*
X108946534Y-45730924D01*
X108936134Y-45761446D01*
X108933764Y-45763499D01*
X108932803Y-45765951D01*
X108921527Y-45774102D01*
X108891080Y-45800485D01*
X108798386Y-45847715D01*
X108632786Y-45968028D01*
X108488028Y-46112786D01*
X108367715Y-46278386D01*
X108274781Y-46460776D01*
X108211522Y-46655465D01*
X108179500Y-46857648D01*
X108179500Y-47062351D01*
X108211522Y-47264534D01*
X108274781Y-47459223D01*
X108367715Y-47641613D01*
X108488028Y-47807213D01*
X108632782Y-47951967D01*
X108632787Y-47951971D01*
X108726948Y-48020383D01*
X108769614Y-48075713D01*
X108775593Y-48145326D01*
X108742988Y-48207121D01*
X108693068Y-48238407D01*
X108610878Y-48265642D01*
X108610875Y-48265643D01*
X108461654Y-48357684D01*
X108337684Y-48481654D01*
X108245643Y-48630875D01*
X108245641Y-48630880D01*
X108190494Y-48797302D01*
X108190493Y-48797309D01*
X108180000Y-48900013D01*
X108180000Y-49250000D01*
X109564314Y-49250000D01*
X109559920Y-49254394D01*
X109507259Y-49345606D01*
X109480000Y-49447339D01*
X109480000Y-49552661D01*
X109507259Y-49654394D01*
X109559920Y-49745606D01*
X109564314Y-49750000D01*
X108180001Y-49750000D01*
X108180001Y-50099986D01*
X108190494Y-50202697D01*
X108245641Y-50369119D01*
X108245643Y-50369124D01*
X108337684Y-50518345D01*
X108461654Y-50642315D01*
X108610875Y-50734356D01*
X108610880Y-50734358D01*
X108777302Y-50789505D01*
X108777309Y-50789506D01*
X108880019Y-50799999D01*
X109629999Y-50799999D01*
X109630000Y-50799998D01*
X109630000Y-49815686D01*
X109634394Y-49820080D01*
X109725606Y-49872741D01*
X109827339Y-49900000D01*
X109932661Y-49900000D01*
X110034394Y-49872741D01*
X110125606Y-49820080D01*
X110130000Y-49815686D01*
X110130000Y-50799999D01*
X110879972Y-50799999D01*
X110879986Y-50799998D01*
X110982697Y-50789505D01*
X111149119Y-50734358D01*
X111149124Y-50734356D01*
X111298345Y-50642315D01*
X111422315Y-50518345D01*
X111514356Y-50369124D01*
X111514358Y-50369119D01*
X111569505Y-50202697D01*
X111569506Y-50202690D01*
X111579999Y-50099986D01*
X111580000Y-50099973D01*
X111580000Y-49750000D01*
X110195686Y-49750000D01*
X110200080Y-49745606D01*
X110252741Y-49654394D01*
X110280000Y-49552661D01*
X110280000Y-49447339D01*
X110252741Y-49345606D01*
X110200080Y-49254394D01*
X110195686Y-49250000D01*
X111579999Y-49250000D01*
X111579999Y-48900028D01*
X111579998Y-48900013D01*
X111569505Y-48797302D01*
X111514358Y-48630880D01*
X111514356Y-48630875D01*
X111422315Y-48481654D01*
X111298345Y-48357684D01*
X111149124Y-48265643D01*
X111149119Y-48265641D01*
X111066931Y-48238407D01*
X111009486Y-48198634D01*
X110982663Y-48134119D01*
X110994978Y-48065343D01*
X111033049Y-48020383D01*
X111127219Y-47951966D01*
X111271966Y-47807219D01*
X111271968Y-47807215D01*
X111271971Y-47807213D01*
X111324732Y-47734590D01*
X111392287Y-47641610D01*
X111485220Y-47459219D01*
X111548477Y-47264534D01*
X111580500Y-47062352D01*
X111580500Y-46857648D01*
X111548477Y-46655466D01*
X111545543Y-46646439D01*
X111543547Y-46576599D01*
X111575791Y-46520441D01*
X115521789Y-42574445D01*
X115609394Y-42443335D01*
X115652374Y-42339569D01*
X115696213Y-42285169D01*
X115762507Y-42263103D01*
X115830206Y-42280381D01*
G37*
%TD.AperFunction*%
%TA.AperFunction,Conductor*%
G36*
X110779333Y-31205257D02*
G01*
X110835267Y-31247128D01*
X110859684Y-31312593D01*
X110860000Y-31321439D01*
X110860000Y-31538052D01*
X110896934Y-31771247D01*
X110969897Y-31995802D01*
X111077087Y-32206175D01*
X111095005Y-32230837D01*
X111118485Y-32296644D01*
X111102659Y-32364697D01*
X111052553Y-32413392D01*
X111010873Y-32426661D01*
X110897496Y-32441587D01*
X110837762Y-32449452D01*
X110785953Y-32463334D01*
X110616112Y-32508842D01*
X110404123Y-32596650D01*
X110404109Y-32596657D01*
X110205382Y-32711392D01*
X110023338Y-32851081D01*
X109861081Y-33013338D01*
X109721392Y-33195382D01*
X109606657Y-33394109D01*
X109606650Y-33394123D01*
X109518842Y-33606112D01*
X109459453Y-33827759D01*
X109459451Y-33827770D01*
X109429500Y-34055258D01*
X109429500Y-34284741D01*
X109445336Y-34405019D01*
X109459452Y-34512238D01*
X109502829Y-34674124D01*
X109518842Y-34733887D01*
X109606650Y-34945876D01*
X109606657Y-34945890D01*
X109654049Y-35027976D01*
X109698518Y-35104999D01*
X109721392Y-35144617D01*
X109861081Y-35326661D01*
X109861089Y-35326670D01*
X110023330Y-35488911D01*
X110023338Y-35488918D01*
X110023339Y-35488919D01*
X110034035Y-35497126D01*
X110205382Y-35628607D01*
X110205385Y-35628608D01*
X110205388Y-35628611D01*
X110404112Y-35743344D01*
X110404117Y-35743346D01*
X110404123Y-35743349D01*
X110495480Y-35781190D01*
X110616113Y-35831158D01*
X110837762Y-35890548D01*
X111010874Y-35913339D01*
X111074769Y-35941604D01*
X111113240Y-35999929D01*
X111114071Y-36069793D01*
X111095007Y-36109160D01*
X111077086Y-36133827D01*
X110969897Y-36344197D01*
X110896934Y-36568752D01*
X110860000Y-36801947D01*
X110860000Y-37038052D01*
X110896934Y-37271247D01*
X110969897Y-37495802D01*
X111055550Y-37663906D01*
X111068446Y-37732575D01*
X111042170Y-37797316D01*
X110985063Y-37837573D01*
X110969257Y-37841818D01*
X110888170Y-37857947D01*
X110888160Y-37857950D01*
X110706092Y-37933364D01*
X110706079Y-37933371D01*
X110542218Y-38042860D01*
X110542214Y-38042863D01*
X110402863Y-38182214D01*
X110402860Y-38182218D01*
X110293371Y-38346079D01*
X110293364Y-38346092D01*
X110217950Y-38528160D01*
X110217947Y-38528170D01*
X110179500Y-38721456D01*
X110179500Y-38721459D01*
X110179500Y-38918541D01*
X110179500Y-38918543D01*
X110179499Y-38918543D01*
X110217947Y-39111829D01*
X110217950Y-39111839D01*
X110293364Y-39293907D01*
X110293371Y-39293920D01*
X110402860Y-39457781D01*
X110402863Y-39457785D01*
X110542214Y-39597136D01*
X110542218Y-39597139D01*
X110706079Y-39706628D01*
X110706092Y-39706635D01*
X110888160Y-39782049D01*
X110888165Y-39782051D01*
X110888169Y-39782051D01*
X110888170Y-39782052D01*
X111081456Y-39820500D01*
X111081459Y-39820500D01*
X111278543Y-39820500D01*
X111408582Y-39794632D01*
X111471835Y-39782051D01*
X111653914Y-39706632D01*
X111817782Y-39597139D01*
X111957139Y-39457782D01*
X112066632Y-39293914D01*
X112142051Y-39111835D01*
X112180500Y-38918541D01*
X112180500Y-38721459D01*
X112180500Y-38721456D01*
X112150013Y-38568192D01*
X112156240Y-38498600D01*
X112199103Y-38443423D01*
X112264992Y-38420178D01*
X112271630Y-38420000D01*
X112478052Y-38420000D01*
X112711247Y-38383065D01*
X112935802Y-38310102D01*
X113146171Y-38202914D01*
X113269977Y-38112964D01*
X113335784Y-38089484D01*
X113403838Y-38105309D01*
X113451779Y-38154640D01*
X113451953Y-38154546D01*
X113452293Y-38155169D01*
X113452532Y-38155415D01*
X113453009Y-38156480D01*
X113456206Y-38162335D01*
X113542452Y-38277544D01*
X113542455Y-38277547D01*
X113657664Y-38363793D01*
X113657671Y-38363797D01*
X113702618Y-38380561D01*
X113792517Y-38414091D01*
X113852127Y-38420500D01*
X113975500Y-38420499D01*
X114042539Y-38440183D01*
X114088294Y-38492987D01*
X114099500Y-38544499D01*
X114099500Y-41681215D01*
X114079815Y-41748254D01*
X114063181Y-41768896D01*
X111732792Y-44099284D01*
X111671469Y-44132769D01*
X111601777Y-44127785D01*
X111545844Y-44085913D01*
X111527180Y-44049921D01*
X111507459Y-43989226D01*
X111485220Y-43920781D01*
X111392287Y-43738390D01*
X111334971Y-43659500D01*
X111271971Y-43572786D01*
X111127213Y-43428028D01*
X110961611Y-43307713D01*
X110868369Y-43260203D01*
X110817574Y-43212229D01*
X110800779Y-43144407D01*
X110823317Y-43078273D01*
X110868371Y-43039234D01*
X110961347Y-42991861D01*
X111126894Y-42871582D01*
X111126895Y-42871582D01*
X111271582Y-42726895D01*
X111271582Y-42726894D01*
X111391859Y-42561349D01*
X111484755Y-42379029D01*
X111547990Y-42184413D01*
X111556609Y-42130000D01*
X110195686Y-42130000D01*
X110200080Y-42125606D01*
X110252741Y-42034394D01*
X110280000Y-41932661D01*
X110280000Y-41827339D01*
X110252741Y-41725606D01*
X110200080Y-41634394D01*
X110195686Y-41630000D01*
X111556609Y-41630000D01*
X111547990Y-41575586D01*
X111484755Y-41380970D01*
X111391859Y-41198650D01*
X111271582Y-41033105D01*
X111271582Y-41033104D01*
X111126895Y-40888417D01*
X110961349Y-40768140D01*
X110779031Y-40675244D01*
X110584417Y-40612009D01*
X110382317Y-40580000D01*
X110130000Y-40580000D01*
X110130000Y-41564314D01*
X110125606Y-41559920D01*
X110034394Y-41507259D01*
X109932661Y-41480000D01*
X109827339Y-41480000D01*
X109725606Y-41507259D01*
X109634394Y-41559920D01*
X109630000Y-41564314D01*
X109630000Y-40580000D01*
X109377683Y-40580000D01*
X109175582Y-40612009D01*
X108980968Y-40675244D01*
X108798650Y-40768140D01*
X108633105Y-40888417D01*
X108633104Y-40888417D01*
X108488417Y-41033104D01*
X108488417Y-41033105D01*
X108368140Y-41198650D01*
X108275244Y-41380970D01*
X108212009Y-41575586D01*
X108203391Y-41630000D01*
X109564314Y-41630000D01*
X109559920Y-41634394D01*
X109507259Y-41725606D01*
X109480000Y-41827339D01*
X109480000Y-41932661D01*
X109507259Y-42034394D01*
X109559920Y-42125606D01*
X109564314Y-42130000D01*
X108203391Y-42130000D01*
X108212009Y-42184413D01*
X108275244Y-42379029D01*
X108368140Y-42561349D01*
X108488417Y-42726894D01*
X108488417Y-42726895D01*
X108633104Y-42871582D01*
X108798652Y-42991861D01*
X108891628Y-43039234D01*
X108942425Y-43087208D01*
X108959220Y-43155029D01*
X108936683Y-43221164D01*
X108891630Y-43260203D01*
X108798388Y-43307713D01*
X108632788Y-43428027D01*
X108488030Y-43572784D01*
X108488029Y-43572786D01*
X108474662Y-43591183D01*
X108419331Y-43633847D01*
X108398540Y-43639911D01*
X108346506Y-43650261D01*
X108346500Y-43650263D01*
X108200827Y-43710602D01*
X108200814Y-43710609D01*
X108069711Y-43798210D01*
X108069707Y-43798213D01*
X107912180Y-43955741D01*
X107850857Y-43989226D01*
X107781165Y-43984242D01*
X107725232Y-43942370D01*
X107700815Y-43876906D01*
X107700499Y-43868060D01*
X107700499Y-43479998D01*
X107700498Y-43479981D01*
X107689999Y-43377203D01*
X107689998Y-43377200D01*
X107674122Y-43329289D01*
X107634814Y-43210666D01*
X107542712Y-43061344D01*
X107449049Y-42967681D01*
X107415564Y-42906358D01*
X107420548Y-42836666D01*
X107449049Y-42792319D01*
X107542712Y-42698656D01*
X107634814Y-42549334D01*
X107689999Y-42382797D01*
X107700500Y-42280009D01*
X107700499Y-41479992D01*
X107690364Y-41380781D01*
X107689999Y-41377203D01*
X107689998Y-41377200D01*
X107687435Y-41369465D01*
X107634814Y-41210666D01*
X107542712Y-41061344D01*
X107418656Y-40937288D01*
X107269334Y-40845186D01*
X107102797Y-40790001D01*
X107102795Y-40790000D01*
X107000010Y-40779500D01*
X105999998Y-40779500D01*
X105999980Y-40779501D01*
X105897203Y-40790000D01*
X105897200Y-40790001D01*
X105730668Y-40845185D01*
X105730663Y-40845187D01*
X105581345Y-40937287D01*
X105475450Y-41043182D01*
X105448516Y-41057888D01*
X105422704Y-41074477D01*
X105416503Y-41075368D01*
X105414127Y-41076666D01*
X105387769Y-41079500D01*
X105371553Y-41079500D01*
X105304514Y-41059815D01*
X105273711Y-41030722D01*
X105273523Y-41030884D01*
X105272024Y-41029129D01*
X105271233Y-41028382D01*
X105270361Y-41027182D01*
X105270356Y-41027176D01*
X105117823Y-40874643D01*
X105117821Y-40874641D01*
X104946704Y-40750317D01*
X104904040Y-40694988D01*
X104898061Y-40625374D01*
X104930667Y-40563580D01*
X104946702Y-40549684D01*
X105117821Y-40425359D01*
X105270359Y-40272821D01*
X105397157Y-40098299D01*
X105495092Y-39906089D01*
X105561754Y-39700926D01*
X105578193Y-39597136D01*
X105595500Y-39487866D01*
X105595500Y-39272133D01*
X105570110Y-39111835D01*
X105561754Y-39059074D01*
X105495092Y-38853911D01*
X105397157Y-38661701D01*
X105270359Y-38487179D01*
X105127996Y-38344816D01*
X105094511Y-38283493D01*
X105099495Y-38213801D01*
X105141367Y-38157868D01*
X105163289Y-38144745D01*
X105164127Y-38144354D01*
X105313345Y-38052315D01*
X105437315Y-37928345D01*
X105529356Y-37779124D01*
X105529358Y-37779119D01*
X105584505Y-37612697D01*
X105584506Y-37612690D01*
X105594999Y-37509986D01*
X105595000Y-37509973D01*
X105595000Y-37090000D01*
X104542709Y-37090000D01*
X104554452Y-37069661D01*
X104595000Y-36918333D01*
X104595000Y-36761667D01*
X104554452Y-36610339D01*
X104542709Y-36590000D01*
X105594999Y-36590000D01*
X105594999Y-36170028D01*
X105594998Y-36170013D01*
X105584505Y-36067302D01*
X105529358Y-35900880D01*
X105529356Y-35900875D01*
X105437315Y-35751654D01*
X105313345Y-35627684D01*
X105164124Y-35535643D01*
X105164119Y-35535641D01*
X104997697Y-35480494D01*
X104997690Y-35480493D01*
X104894986Y-35470000D01*
X104250000Y-35470000D01*
X104250000Y-36297290D01*
X104229661Y-36285548D01*
X104078333Y-36245000D01*
X103921667Y-36245000D01*
X103770339Y-36285548D01*
X103750000Y-36297290D01*
X103750000Y-35470000D01*
X103105028Y-35470000D01*
X103105012Y-35470001D01*
X103002302Y-35480494D01*
X102926004Y-35505777D01*
X102856175Y-35508179D01*
X102796134Y-35472447D01*
X102764941Y-35409927D01*
X102763000Y-35388071D01*
X102763000Y-35004730D01*
X102771211Y-34976765D01*
X102776672Y-34948128D01*
X102781610Y-34941351D01*
X102782685Y-34937691D01*
X102797088Y-34919338D01*
X102798183Y-34918184D01*
X102892712Y-34823656D01*
X102901516Y-34809382D01*
X102910381Y-34800048D01*
X102929910Y-34788721D01*
X102946694Y-34773623D01*
X102959550Y-34771529D01*
X102970821Y-34764993D01*
X102993374Y-34766022D01*
X103015656Y-34762395D01*
X103027605Y-34767585D01*
X103040617Y-34768180D01*
X103059031Y-34781237D01*
X103079740Y-34790234D01*
X103092528Y-34804991D01*
X103097612Y-34808596D01*
X103099312Y-34812819D01*
X103105829Y-34820339D01*
X103107681Y-34823341D01*
X103107683Y-34823344D01*
X103231654Y-34947315D01*
X103380875Y-35039356D01*
X103380880Y-35039358D01*
X103547302Y-35094505D01*
X103547309Y-35094506D01*
X103650019Y-35104999D01*
X103787499Y-35104999D01*
X104287500Y-35104999D01*
X104424972Y-35104999D01*
X104424986Y-35104998D01*
X104527697Y-35094505D01*
X104694119Y-35039358D01*
X104694124Y-35039356D01*
X104843345Y-34947315D01*
X104967315Y-34823345D01*
X105059356Y-34674124D01*
X105059358Y-34674119D01*
X105114505Y-34507697D01*
X105114506Y-34507690D01*
X105124999Y-34404986D01*
X105125000Y-34404973D01*
X105125000Y-34130000D01*
X104287500Y-34130000D01*
X104287500Y-35104999D01*
X103787499Y-35104999D01*
X103787500Y-35104998D01*
X103787500Y-33630000D01*
X104287500Y-33630000D01*
X105124999Y-33630000D01*
X105124999Y-33355028D01*
X105124998Y-33355013D01*
X105114505Y-33252302D01*
X105059358Y-33085880D01*
X105059356Y-33085875D01*
X104967315Y-32936654D01*
X104843345Y-32812684D01*
X104694124Y-32720643D01*
X104694119Y-32720641D01*
X104527697Y-32665494D01*
X104527690Y-32665493D01*
X104424986Y-32655000D01*
X104287500Y-32655000D01*
X104287500Y-33630000D01*
X103787500Y-33630000D01*
X103787500Y-32655000D01*
X103778719Y-32646219D01*
X103755467Y-32603637D01*
X103745234Y-32584897D01*
X103746919Y-32561337D01*
X103750218Y-32515204D01*
X103750227Y-32515191D01*
X103778716Y-32470861D01*
X104412759Y-31836819D01*
X104474082Y-31803334D01*
X104500440Y-31800500D01*
X109828844Y-31800500D01*
X109828845Y-31800499D01*
X109983497Y-31769737D01*
X110129179Y-31709394D01*
X110260289Y-31621789D01*
X110648321Y-31233756D01*
X110709642Y-31200273D01*
X110779333Y-31205257D01*
G37*
%TD.AperFunction*%
%TA.AperFunction,Conductor*%
G36*
X113582657Y-32289104D02*
G01*
X113602404Y-32287550D01*
X113670781Y-32301914D01*
X113712451Y-32338282D01*
X113755483Y-32397510D01*
X113922490Y-32564517D01*
X114113567Y-32703343D01*
X114206438Y-32750663D01*
X114324003Y-32810566D01*
X114324005Y-32810566D01*
X114324008Y-32810568D01*
X114444412Y-32849689D01*
X114548631Y-32883553D01*
X114701243Y-32907724D01*
X114764378Y-32937653D01*
X114801310Y-32996964D01*
X114800312Y-33066827D01*
X114780222Y-33105684D01*
X114711389Y-33195387D01*
X114596657Y-33394109D01*
X114596650Y-33394123D01*
X114508842Y-33606112D01*
X114449453Y-33827759D01*
X114449451Y-33827770D01*
X114419500Y-34055258D01*
X114419500Y-34284741D01*
X114435336Y-34405019D01*
X114449452Y-34512238D01*
X114492829Y-34674124D01*
X114508842Y-34733887D01*
X114596650Y-34945876D01*
X114596657Y-34945890D01*
X114711389Y-35144612D01*
X114769247Y-35220013D01*
X114794441Y-35285183D01*
X114780403Y-35353627D01*
X114731589Y-35403617D01*
X114670871Y-35419500D01*
X113852129Y-35419500D01*
X113852123Y-35419501D01*
X113792516Y-35425908D01*
X113657671Y-35476202D01*
X113657664Y-35476206D01*
X113542455Y-35562452D01*
X113542452Y-35562455D01*
X113456206Y-35677664D01*
X113451953Y-35685454D01*
X113448807Y-35683736D01*
X113417139Y-35726010D01*
X113351667Y-35750404D01*
X113283399Y-35735529D01*
X113269978Y-35727035D01*
X113146174Y-35637087D01*
X112935802Y-35529897D01*
X112711247Y-35456934D01*
X112711248Y-35456934D01*
X112638656Y-35445437D01*
X112575521Y-35415508D01*
X112538590Y-35356196D01*
X112539588Y-35286334D01*
X112559679Y-35247477D01*
X112638607Y-35144617D01*
X112638606Y-35144617D01*
X112638611Y-35144612D01*
X112753344Y-34945888D01*
X112841158Y-34733887D01*
X112900548Y-34512238D01*
X112930500Y-34284734D01*
X112930500Y-34055266D01*
X112900548Y-33827762D01*
X112841158Y-33606113D01*
X112753344Y-33394112D01*
X112638611Y-33195388D01*
X112559677Y-33092520D01*
X112534484Y-33027353D01*
X112548522Y-32958908D01*
X112597336Y-32908918D01*
X112638658Y-32894561D01*
X112711252Y-32883064D01*
X112935802Y-32810102D01*
X113146163Y-32702918D01*
X113146169Y-32702914D01*
X113229104Y-32642658D01*
X113229105Y-32642658D01*
X112489409Y-31902962D01*
X112552993Y-31885925D01*
X112667007Y-31820099D01*
X112760099Y-31727007D01*
X112825925Y-31612993D01*
X112842962Y-31549409D01*
X113582657Y-32289104D01*
G37*
%TD.AperFunction*%
%TD*%
M02*
