%TF.GenerationSoftware,KiCad,Pcbnew,9.0.4*%
%TF.CreationDate,2026-03-05T01:28:46+00:00*%
%TF.ProjectId,Charging V1,43686172-6769-46e6-9720-56312e6b6963,rev?*%
%TF.SameCoordinates,Original*%
%TF.FileFunction,Copper,L1,Top*%
%TF.FilePolarity,Positive*%
%FSLAX46Y46*%
G04 Gerber Fmt 4.6, Leading zero omitted, Abs format (unit mm)*
G04 Created by KiCad (PCBNEW 9.0.4) date 2026-03-05 01:28:46*
%MOMM*%
%LPD*%
G01*
G04 APERTURE LIST*
G04 Aperture macros list*
%AMRoundRect*
0 Rectangle with rounded corners*
0 $1 Rounding radius*
0 $2 $3 $4 $5 $6 $7 $8 $9 X,Y pos of 4 corners*
0 Add a 4 corners polygon primitive as box body*
4,1,4,$2,$3,$4,$5,$6,$7,$8,$9,$2,$3,0*
0 Add four circle primitives for the rounded corners*
1,1,$1+$1,$2,$3*
1,1,$1+$1,$4,$5*
1,1,$1+$1,$6,$7*
1,1,$1+$1,$8,$9*
0 Add four rect primitives between the rounded corners*
20,1,$1+$1,$2,$3,$4,$5,0*
20,1,$1+$1,$4,$5,$6,$7,0*
20,1,$1+$1,$6,$7,$8,$9,0*
20,1,$1+$1,$8,$9,$2,$3,0*%
G04 Aperture macros list end*
%ADD10C,0.300000*%
%TA.AperFunction,NonConductor*%
%ADD11C,0.300000*%
%TD*%
%TA.AperFunction,ComponentPad*%
%ADD12R,3.000000X4.600000*%
%TD*%
%TA.AperFunction,ComponentPad*%
%ADD13O,3.000000X4.200000*%
%TD*%
%TA.AperFunction,ComponentPad*%
%ADD14O,4.200000X3.000000*%
%TD*%
%TA.AperFunction,ComponentPad*%
%ADD15RoundRect,0.250000X-0.845000X0.620000X-0.845000X-0.620000X0.845000X-0.620000X0.845000X0.620000X0*%
%TD*%
%TA.AperFunction,ComponentPad*%
%ADD16O,2.190000X1.740000*%
%TD*%
G04 APERTURE END LIST*
D10*
D11*
X57331542Y-29374060D02*
X57474400Y-29516917D01*
X57474400Y-29516917D02*
X57617257Y-29945489D01*
X57617257Y-29945489D02*
X57617257Y-30231203D01*
X57617257Y-30231203D02*
X57474400Y-30659774D01*
X57474400Y-30659774D02*
X57188685Y-30945489D01*
X57188685Y-30945489D02*
X56902971Y-31088346D01*
X56902971Y-31088346D02*
X56331542Y-31231203D01*
X56331542Y-31231203D02*
X55902971Y-31231203D01*
X55902971Y-31231203D02*
X55331542Y-31088346D01*
X55331542Y-31088346D02*
X55045828Y-30945489D01*
X55045828Y-30945489D02*
X54760114Y-30659774D01*
X54760114Y-30659774D02*
X54617257Y-30231203D01*
X54617257Y-30231203D02*
X54617257Y-29945489D01*
X54617257Y-29945489D02*
X54760114Y-29516917D01*
X54760114Y-29516917D02*
X54902971Y-29374060D01*
X57617257Y-28088346D02*
X54617257Y-28088346D01*
X56045828Y-28088346D02*
X56045828Y-26374060D01*
X57617257Y-26374060D02*
X54617257Y-26374060D01*
X57617257Y-23231203D02*
X56188685Y-24231203D01*
X57617257Y-24945489D02*
X54617257Y-24945489D01*
X54617257Y-24945489D02*
X54617257Y-23802632D01*
X54617257Y-23802632D02*
X54760114Y-23516917D01*
X54760114Y-23516917D02*
X54902971Y-23374060D01*
X54902971Y-23374060D02*
X55188685Y-23231203D01*
X55188685Y-23231203D02*
X55617257Y-23231203D01*
X55617257Y-23231203D02*
X55902971Y-23374060D01*
X55902971Y-23374060D02*
X56045828Y-23516917D01*
X56045828Y-23516917D02*
X56188685Y-23802632D01*
X56188685Y-23802632D02*
X56188685Y-24945489D01*
D10*
D11*
X60516917Y-36382742D02*
X59516917Y-33382742D01*
X59516917Y-33382742D02*
X58516917Y-36382742D01*
X57516917Y-34954171D02*
X56516917Y-34954171D01*
X56088345Y-33382742D02*
X57516917Y-33382742D01*
X57516917Y-33382742D02*
X57516917Y-36382742D01*
X57516917Y-36382742D02*
X56088345Y-36382742D01*
X54802631Y-33382742D02*
X54802631Y-36382742D01*
X54802631Y-34954171D02*
X53088345Y-34954171D01*
X53088345Y-33382742D02*
X53088345Y-36382742D01*
D10*
D11*
X52411653Y-20045828D02*
X52840225Y-20188685D01*
X52840225Y-20188685D02*
X52983082Y-20331542D01*
X52983082Y-20331542D02*
X53125939Y-20617257D01*
X53125939Y-20617257D02*
X53125939Y-21045828D01*
X53125939Y-21045828D02*
X52983082Y-21331542D01*
X52983082Y-21331542D02*
X52840225Y-21474400D01*
X52840225Y-21474400D02*
X52554510Y-21617257D01*
X52554510Y-21617257D02*
X51411653Y-21617257D01*
X51411653Y-21617257D02*
X51411653Y-18617257D01*
X51411653Y-18617257D02*
X52411653Y-18617257D01*
X52411653Y-18617257D02*
X52697368Y-18760114D01*
X52697368Y-18760114D02*
X52840225Y-18902971D01*
X52840225Y-18902971D02*
X52983082Y-19188685D01*
X52983082Y-19188685D02*
X52983082Y-19474400D01*
X52983082Y-19474400D02*
X52840225Y-19760114D01*
X52840225Y-19760114D02*
X52697368Y-19902971D01*
X52697368Y-19902971D02*
X52411653Y-20045828D01*
X52411653Y-20045828D02*
X51411653Y-20045828D01*
X54268796Y-20760114D02*
X55697368Y-20760114D01*
X53983082Y-21617257D02*
X54983082Y-18617257D01*
X54983082Y-18617257D02*
X55983082Y-21617257D01*
X56554511Y-18617257D02*
X58268797Y-18617257D01*
X57411654Y-21617257D02*
X57411654Y-18617257D01*
X58840225Y-18617257D02*
X60554511Y-18617257D01*
X59697368Y-21617257D02*
X59697368Y-18617257D01*
D12*
%TO.P,J2,1*%
%TO.N,+BATT*%
X52350000Y-27200000D03*
D13*
%TO.P,J2,2*%
%TO.N,Batt_GND*%
X46050000Y-27200000D03*
D14*
%TO.P,J2,3*%
%TO.N,VEH_GND*%
X49450000Y-32000000D03*
%TD*%
D15*
%TO.P,J1,1,Pin_1*%
%TO.N,Batt_GND*%
X64000000Y-17000000D03*
D16*
%TO.P,J1,2,Pin_2*%
%TO.N,+BATT*%
X64000000Y-19540000D03*
%TO.P,J1,3,Pin_3*%
X64000000Y-22080000D03*
%TO.P,J1,4,Pin_4*%
%TO.N,Batt_GND*%
X64000000Y-24620000D03*
%TD*%
D15*
%TO.P,J3,1,Pin_1*%
%TO.N,VEH_GND*%
X64000000Y-30000000D03*
D16*
%TO.P,J3,2,Pin_2*%
%TO.N,+BATT*%
X64000000Y-32540000D03*
%TO.P,J3,3,Pin_3*%
X64000000Y-35080000D03*
%TO.P,J3,4,Pin_4*%
%TO.N,VEH_GND*%
X64000000Y-37620000D03*
%TD*%
M02*
