%TF.GenerationSoftware,KiCad,Pcbnew,9.0.4*%
%TF.CreationDate,2026-03-05T01:28:46+00:00*%
%TF.ProjectId,Charging V1,43686172-6769-46e6-9720-56312e6b6963,rev?*%
%TF.SameCoordinates,Original*%
%TF.FileFunction,Copper,L2,Bot*%
%TF.FilePolarity,Positive*%
%FSLAX46Y46*%
G04 Gerber Fmt 4.6, Leading zero omitted, Abs format (unit mm)*
G04 Created by KiCad (PCBNEW 9.0.4) date 2026-03-05 01:28:46*
%MOMM*%
%LPD*%
G01*
G04 APERTURE LIST*
G04 Aperture macros list*
%AMRoundRect*
0 Rectangle with rounded corners*
0 $1 Rounding radius*
0 $2 $3 $4 $5 $6 $7 $8 $9 X,Y pos of 4 corners*
0 Add a 4 corners polygon primitive as box body*
4,1,4,$2,$3,$4,$5,$6,$7,$8,$9,$2,$3,0*
0 Add four circle primitives for the rounded corners*
1,1,$1+$1,$2,$3*
1,1,$1+$1,$4,$5*
1,1,$1+$1,$6,$7*
1,1,$1+$1,$8,$9*
0 Add four rect primitives between the rounded corners*
20,1,$1+$1,$2,$3,$4,$5,0*
20,1,$1+$1,$4,$5,$6,$7,0*
20,1,$1+$1,$6,$7,$8,$9,0*
20,1,$1+$1,$8,$9,$2,$3,0*%
G04 Aperture macros list end*
%TA.AperFunction,ComponentPad*%
%ADD10R,3.000000X4.600000*%
%TD*%
%TA.AperFunction,ComponentPad*%
%ADD11O,3.000000X4.200000*%
%TD*%
%TA.AperFunction,ComponentPad*%
%ADD12O,4.200000X3.000000*%
%TD*%
%TA.AperFunction,ComponentPad*%
%ADD13RoundRect,0.250000X-0.845000X0.620000X-0.845000X-0.620000X0.845000X-0.620000X0.845000X0.620000X0*%
%TD*%
%TA.AperFunction,ComponentPad*%
%ADD14O,2.190000X1.740000*%
%TD*%
%TA.AperFunction,Conductor*%
%ADD15C,2.000000*%
%TD*%
G04 APERTURE END LIST*
D10*
%TO.P,J2,1*%
%TO.N,+BATT*%
X52350000Y-27200000D03*
D11*
%TO.P,J2,2*%
%TO.N,Batt_GND*%
X46050000Y-27200000D03*
D12*
%TO.P,J2,3*%
%TO.N,VEH_GND*%
X49450000Y-32000000D03*
%TD*%
D13*
%TO.P,J1,1,Pin_1*%
%TO.N,Batt_GND*%
X64000000Y-17000000D03*
D14*
%TO.P,J1,2,Pin_2*%
%TO.N,+BATT*%
X64000000Y-19540000D03*
%TO.P,J1,3,Pin_3*%
X64000000Y-22080000D03*
%TO.P,J1,4,Pin_4*%
%TO.N,Batt_GND*%
X64000000Y-24620000D03*
%TD*%
D13*
%TO.P,J3,1,Pin_1*%
%TO.N,VEH_GND*%
X64000000Y-30000000D03*
D14*
%TO.P,J3,2,Pin_2*%
%TO.N,+BATT*%
X64000000Y-32540000D03*
%TO.P,J3,3,Pin_3*%
X64000000Y-35080000D03*
%TO.P,J3,4,Pin_4*%
%TO.N,VEH_GND*%
X64000000Y-37620000D03*
%TD*%
D15*
%TO.N,+BATT*%
X64000000Y-22080000D02*
X57580000Y-22080000D01*
X60230000Y-35080000D02*
X57575000Y-32425000D01*
X64000000Y-19540000D02*
X60010000Y-19540000D01*
X64000000Y-35080000D02*
X60230000Y-35080000D01*
X57690000Y-32540000D02*
X57575000Y-32425000D01*
X57580000Y-22080000D02*
X57525000Y-22025000D01*
X57575000Y-32425000D02*
X52350000Y-27200000D01*
X60010000Y-19540000D02*
X57525000Y-22025000D01*
X64000000Y-32540000D02*
X57690000Y-32540000D01*
X57525000Y-22025000D02*
X52350000Y-27200000D01*
%TO.N,Batt_GND*%
X66596000Y-18501000D02*
X66596000Y-23062100D01*
X64000000Y-17000000D02*
X65095000Y-17000000D01*
X65038100Y-24620000D02*
X64000000Y-24620000D01*
X56250000Y-17000000D02*
X64000000Y-17000000D01*
X66596000Y-23062100D02*
X65038100Y-24620000D01*
X46050000Y-27200000D02*
X56250000Y-17000000D01*
X65095000Y-17000000D02*
X66596000Y-18501000D01*
%TO.N,VEH_GND*%
X66596000Y-36062100D02*
X65038100Y-37620000D01*
X66596000Y-31501000D02*
X66596000Y-36062100D01*
X65038100Y-37620000D02*
X64000000Y-37620000D01*
X64000000Y-30000000D02*
X65095000Y-30000000D01*
X65095000Y-30000000D02*
X66596000Y-31501000D01*
X64000000Y-37620000D02*
X55070000Y-37620000D01*
X55070000Y-37620000D02*
X49450000Y-32000000D01*
%TD*%
M02*
