%TF.GenerationSoftware,KiCad,Pcbnew,9.0.4*%
%TF.CreationDate,2026-03-23T09:12:58+00:00*%
%TF.ProjectId,Distribution Board V2,44697374-7269-4627-9574-696f6e20426f,rev?*%
%TF.SameCoordinates,Original*%
%TF.FileFunction,Legend,Bot*%
%TF.FilePolarity,Positive*%
%FSLAX46Y46*%
G04 Gerber Fmt 4.6, Leading zero omitted, Abs format (unit mm)*
G04 Created by KiCad (PCBNEW 9.0.4) date 2026-03-23 09:12:58*
%MOMM*%
%LPD*%
G01*
G04 APERTURE LIST*
%ADD10C,0.150000*%
%ADD11C,0.120000*%
G04 APERTURE END LIST*
D10*
X165604819Y-157107142D02*
X165128628Y-156773809D01*
X165604819Y-156535714D02*
X164604819Y-156535714D01*
X164604819Y-156535714D02*
X164604819Y-156916666D01*
X164604819Y-156916666D02*
X164652438Y-157011904D01*
X164652438Y-157011904D02*
X164700057Y-157059523D01*
X164700057Y-157059523D02*
X164795295Y-157107142D01*
X164795295Y-157107142D02*
X164938152Y-157107142D01*
X164938152Y-157107142D02*
X165033390Y-157059523D01*
X165033390Y-157059523D02*
X165081009Y-157011904D01*
X165081009Y-157011904D02*
X165128628Y-156916666D01*
X165128628Y-156916666D02*
X165128628Y-156535714D01*
X164700057Y-157488095D02*
X164652438Y-157535714D01*
X164652438Y-157535714D02*
X164604819Y-157630952D01*
X164604819Y-157630952D02*
X164604819Y-157869047D01*
X164604819Y-157869047D02*
X164652438Y-157964285D01*
X164652438Y-157964285D02*
X164700057Y-158011904D01*
X164700057Y-158011904D02*
X164795295Y-158059523D01*
X164795295Y-158059523D02*
X164890533Y-158059523D01*
X164890533Y-158059523D02*
X165033390Y-158011904D01*
X165033390Y-158011904D02*
X165604819Y-157440476D01*
X165604819Y-157440476D02*
X165604819Y-158059523D01*
X165604819Y-159011904D02*
X165604819Y-158440476D01*
X165604819Y-158726190D02*
X164604819Y-158726190D01*
X164604819Y-158726190D02*
X164747676Y-158630952D01*
X164747676Y-158630952D02*
X164842914Y-158535714D01*
X164842914Y-158535714D02*
X164890533Y-158440476D01*
X81054819Y-183417142D02*
X80578628Y-183083809D01*
X81054819Y-182845714D02*
X80054819Y-182845714D01*
X80054819Y-182845714D02*
X80054819Y-183226666D01*
X80054819Y-183226666D02*
X80102438Y-183321904D01*
X80102438Y-183321904D02*
X80150057Y-183369523D01*
X80150057Y-183369523D02*
X80245295Y-183417142D01*
X80245295Y-183417142D02*
X80388152Y-183417142D01*
X80388152Y-183417142D02*
X80483390Y-183369523D01*
X80483390Y-183369523D02*
X80531009Y-183321904D01*
X80531009Y-183321904D02*
X80578628Y-183226666D01*
X80578628Y-183226666D02*
X80578628Y-182845714D01*
X80150057Y-183798095D02*
X80102438Y-183845714D01*
X80102438Y-183845714D02*
X80054819Y-183940952D01*
X80054819Y-183940952D02*
X80054819Y-184179047D01*
X80054819Y-184179047D02*
X80102438Y-184274285D01*
X80102438Y-184274285D02*
X80150057Y-184321904D01*
X80150057Y-184321904D02*
X80245295Y-184369523D01*
X80245295Y-184369523D02*
X80340533Y-184369523D01*
X80340533Y-184369523D02*
X80483390Y-184321904D01*
X80483390Y-184321904D02*
X81054819Y-183750476D01*
X81054819Y-183750476D02*
X81054819Y-184369523D01*
X80150057Y-184750476D02*
X80102438Y-184798095D01*
X80102438Y-184798095D02*
X80054819Y-184893333D01*
X80054819Y-184893333D02*
X80054819Y-185131428D01*
X80054819Y-185131428D02*
X80102438Y-185226666D01*
X80102438Y-185226666D02*
X80150057Y-185274285D01*
X80150057Y-185274285D02*
X80245295Y-185321904D01*
X80245295Y-185321904D02*
X80340533Y-185321904D01*
X80340533Y-185321904D02*
X80483390Y-185274285D01*
X80483390Y-185274285D02*
X81054819Y-184702857D01*
X81054819Y-184702857D02*
X81054819Y-185321904D01*
X87494819Y-183417142D02*
X87018628Y-183083809D01*
X87494819Y-182845714D02*
X86494819Y-182845714D01*
X86494819Y-182845714D02*
X86494819Y-183226666D01*
X86494819Y-183226666D02*
X86542438Y-183321904D01*
X86542438Y-183321904D02*
X86590057Y-183369523D01*
X86590057Y-183369523D02*
X86685295Y-183417142D01*
X86685295Y-183417142D02*
X86828152Y-183417142D01*
X86828152Y-183417142D02*
X86923390Y-183369523D01*
X86923390Y-183369523D02*
X86971009Y-183321904D01*
X86971009Y-183321904D02*
X87018628Y-183226666D01*
X87018628Y-183226666D02*
X87018628Y-182845714D01*
X87494819Y-184369523D02*
X87494819Y-183798095D01*
X87494819Y-184083809D02*
X86494819Y-184083809D01*
X86494819Y-184083809D02*
X86637676Y-183988571D01*
X86637676Y-183988571D02*
X86732914Y-183893333D01*
X86732914Y-183893333D02*
X86780533Y-183798095D01*
X86923390Y-184940952D02*
X86875771Y-184845714D01*
X86875771Y-184845714D02*
X86828152Y-184798095D01*
X86828152Y-184798095D02*
X86732914Y-184750476D01*
X86732914Y-184750476D02*
X86685295Y-184750476D01*
X86685295Y-184750476D02*
X86590057Y-184798095D01*
X86590057Y-184798095D02*
X86542438Y-184845714D01*
X86542438Y-184845714D02*
X86494819Y-184940952D01*
X86494819Y-184940952D02*
X86494819Y-185131428D01*
X86494819Y-185131428D02*
X86542438Y-185226666D01*
X86542438Y-185226666D02*
X86590057Y-185274285D01*
X86590057Y-185274285D02*
X86685295Y-185321904D01*
X86685295Y-185321904D02*
X86732914Y-185321904D01*
X86732914Y-185321904D02*
X86828152Y-185274285D01*
X86828152Y-185274285D02*
X86875771Y-185226666D01*
X86875771Y-185226666D02*
X86923390Y-185131428D01*
X86923390Y-185131428D02*
X86923390Y-184940952D01*
X86923390Y-184940952D02*
X86971009Y-184845714D01*
X86971009Y-184845714D02*
X87018628Y-184798095D01*
X87018628Y-184798095D02*
X87113866Y-184750476D01*
X87113866Y-184750476D02*
X87304342Y-184750476D01*
X87304342Y-184750476D02*
X87399580Y-184798095D01*
X87399580Y-184798095D02*
X87447200Y-184845714D01*
X87447200Y-184845714D02*
X87494819Y-184940952D01*
X87494819Y-184940952D02*
X87494819Y-185131428D01*
X87494819Y-185131428D02*
X87447200Y-185226666D01*
X87447200Y-185226666D02*
X87399580Y-185274285D01*
X87399580Y-185274285D02*
X87304342Y-185321904D01*
X87304342Y-185321904D02*
X87113866Y-185321904D01*
X87113866Y-185321904D02*
X87018628Y-185274285D01*
X87018628Y-185274285D02*
X86971009Y-185226666D01*
X86971009Y-185226666D02*
X86923390Y-185131428D01*
X97892857Y-170604819D02*
X98226190Y-170128628D01*
X98464285Y-170604819D02*
X98464285Y-169604819D01*
X98464285Y-169604819D02*
X98083333Y-169604819D01*
X98083333Y-169604819D02*
X97988095Y-169652438D01*
X97988095Y-169652438D02*
X97940476Y-169700057D01*
X97940476Y-169700057D02*
X97892857Y-169795295D01*
X97892857Y-169795295D02*
X97892857Y-169938152D01*
X97892857Y-169938152D02*
X97940476Y-170033390D01*
X97940476Y-170033390D02*
X97988095Y-170081009D01*
X97988095Y-170081009D02*
X98083333Y-170128628D01*
X98083333Y-170128628D02*
X98464285Y-170128628D01*
X96940476Y-170604819D02*
X97511904Y-170604819D01*
X97226190Y-170604819D02*
X97226190Y-169604819D01*
X97226190Y-169604819D02*
X97321428Y-169747676D01*
X97321428Y-169747676D02*
X97416666Y-169842914D01*
X97416666Y-169842914D02*
X97511904Y-169890533D01*
X96559523Y-169700057D02*
X96511904Y-169652438D01*
X96511904Y-169652438D02*
X96416666Y-169604819D01*
X96416666Y-169604819D02*
X96178571Y-169604819D01*
X96178571Y-169604819D02*
X96083333Y-169652438D01*
X96083333Y-169652438D02*
X96035714Y-169700057D01*
X96035714Y-169700057D02*
X95988095Y-169795295D01*
X95988095Y-169795295D02*
X95988095Y-169890533D01*
X95988095Y-169890533D02*
X96035714Y-170033390D01*
X96035714Y-170033390D02*
X96607142Y-170604819D01*
X96607142Y-170604819D02*
X95988095Y-170604819D01*
X202554819Y-87083333D02*
X202078628Y-86750000D01*
X202554819Y-86511905D02*
X201554819Y-86511905D01*
X201554819Y-86511905D02*
X201554819Y-86892857D01*
X201554819Y-86892857D02*
X201602438Y-86988095D01*
X201602438Y-86988095D02*
X201650057Y-87035714D01*
X201650057Y-87035714D02*
X201745295Y-87083333D01*
X201745295Y-87083333D02*
X201888152Y-87083333D01*
X201888152Y-87083333D02*
X201983390Y-87035714D01*
X201983390Y-87035714D02*
X202031009Y-86988095D01*
X202031009Y-86988095D02*
X202078628Y-86892857D01*
X202078628Y-86892857D02*
X202078628Y-86511905D01*
X201888152Y-87940476D02*
X202554819Y-87940476D01*
X201507200Y-87702381D02*
X202221485Y-87464286D01*
X202221485Y-87464286D02*
X202221485Y-88083333D01*
X116166666Y-175804819D02*
X116499999Y-175328628D01*
X116738094Y-175804819D02*
X116738094Y-174804819D01*
X116738094Y-174804819D02*
X116357142Y-174804819D01*
X116357142Y-174804819D02*
X116261904Y-174852438D01*
X116261904Y-174852438D02*
X116214285Y-174900057D01*
X116214285Y-174900057D02*
X116166666Y-174995295D01*
X116166666Y-174995295D02*
X116166666Y-175138152D01*
X116166666Y-175138152D02*
X116214285Y-175233390D01*
X116214285Y-175233390D02*
X116261904Y-175281009D01*
X116261904Y-175281009D02*
X116357142Y-175328628D01*
X116357142Y-175328628D02*
X116738094Y-175328628D01*
X115595237Y-175233390D02*
X115690475Y-175185771D01*
X115690475Y-175185771D02*
X115738094Y-175138152D01*
X115738094Y-175138152D02*
X115785713Y-175042914D01*
X115785713Y-175042914D02*
X115785713Y-174995295D01*
X115785713Y-174995295D02*
X115738094Y-174900057D01*
X115738094Y-174900057D02*
X115690475Y-174852438D01*
X115690475Y-174852438D02*
X115595237Y-174804819D01*
X115595237Y-174804819D02*
X115404761Y-174804819D01*
X115404761Y-174804819D02*
X115309523Y-174852438D01*
X115309523Y-174852438D02*
X115261904Y-174900057D01*
X115261904Y-174900057D02*
X115214285Y-174995295D01*
X115214285Y-174995295D02*
X115214285Y-175042914D01*
X115214285Y-175042914D02*
X115261904Y-175138152D01*
X115261904Y-175138152D02*
X115309523Y-175185771D01*
X115309523Y-175185771D02*
X115404761Y-175233390D01*
X115404761Y-175233390D02*
X115595237Y-175233390D01*
X115595237Y-175233390D02*
X115690475Y-175281009D01*
X115690475Y-175281009D02*
X115738094Y-175328628D01*
X115738094Y-175328628D02*
X115785713Y-175423866D01*
X115785713Y-175423866D02*
X115785713Y-175614342D01*
X115785713Y-175614342D02*
X115738094Y-175709580D01*
X115738094Y-175709580D02*
X115690475Y-175757200D01*
X115690475Y-175757200D02*
X115595237Y-175804819D01*
X115595237Y-175804819D02*
X115404761Y-175804819D01*
X115404761Y-175804819D02*
X115309523Y-175757200D01*
X115309523Y-175757200D02*
X115261904Y-175709580D01*
X115261904Y-175709580D02*
X115214285Y-175614342D01*
X115214285Y-175614342D02*
X115214285Y-175423866D01*
X115214285Y-175423866D02*
X115261904Y-175328628D01*
X115261904Y-175328628D02*
X115309523Y-175281009D01*
X115309523Y-175281009D02*
X115404761Y-175233390D01*
X91354819Y-178667142D02*
X90878628Y-178333809D01*
X91354819Y-178095714D02*
X90354819Y-178095714D01*
X90354819Y-178095714D02*
X90354819Y-178476666D01*
X90354819Y-178476666D02*
X90402438Y-178571904D01*
X90402438Y-178571904D02*
X90450057Y-178619523D01*
X90450057Y-178619523D02*
X90545295Y-178667142D01*
X90545295Y-178667142D02*
X90688152Y-178667142D01*
X90688152Y-178667142D02*
X90783390Y-178619523D01*
X90783390Y-178619523D02*
X90831009Y-178571904D01*
X90831009Y-178571904D02*
X90878628Y-178476666D01*
X90878628Y-178476666D02*
X90878628Y-178095714D01*
X91354819Y-179619523D02*
X91354819Y-179048095D01*
X91354819Y-179333809D02*
X90354819Y-179333809D01*
X90354819Y-179333809D02*
X90497676Y-179238571D01*
X90497676Y-179238571D02*
X90592914Y-179143333D01*
X90592914Y-179143333D02*
X90640533Y-179048095D01*
X90354819Y-180524285D02*
X90354819Y-180048095D01*
X90354819Y-180048095D02*
X90831009Y-180000476D01*
X90831009Y-180000476D02*
X90783390Y-180048095D01*
X90783390Y-180048095D02*
X90735771Y-180143333D01*
X90735771Y-180143333D02*
X90735771Y-180381428D01*
X90735771Y-180381428D02*
X90783390Y-180476666D01*
X90783390Y-180476666D02*
X90831009Y-180524285D01*
X90831009Y-180524285D02*
X90926247Y-180571904D01*
X90926247Y-180571904D02*
X91164342Y-180571904D01*
X91164342Y-180571904D02*
X91259580Y-180524285D01*
X91259580Y-180524285D02*
X91307200Y-180476666D01*
X91307200Y-180476666D02*
X91354819Y-180381428D01*
X91354819Y-180381428D02*
X91354819Y-180143333D01*
X91354819Y-180143333D02*
X91307200Y-180048095D01*
X91307200Y-180048095D02*
X91259580Y-180000476D01*
X144554819Y-30083333D02*
X144078628Y-29750000D01*
X144554819Y-29511905D02*
X143554819Y-29511905D01*
X143554819Y-29511905D02*
X143554819Y-29892857D01*
X143554819Y-29892857D02*
X143602438Y-29988095D01*
X143602438Y-29988095D02*
X143650057Y-30035714D01*
X143650057Y-30035714D02*
X143745295Y-30083333D01*
X143745295Y-30083333D02*
X143888152Y-30083333D01*
X143888152Y-30083333D02*
X143983390Y-30035714D01*
X143983390Y-30035714D02*
X144031009Y-29988095D01*
X144031009Y-29988095D02*
X144078628Y-29892857D01*
X144078628Y-29892857D02*
X144078628Y-29511905D01*
X144554819Y-31035714D02*
X144554819Y-30464286D01*
X144554819Y-30750000D02*
X143554819Y-30750000D01*
X143554819Y-30750000D02*
X143697676Y-30654762D01*
X143697676Y-30654762D02*
X143792914Y-30559524D01*
X143792914Y-30559524D02*
X143840533Y-30464286D01*
X101916666Y-30604819D02*
X102249999Y-30128628D01*
X102488094Y-30604819D02*
X102488094Y-29604819D01*
X102488094Y-29604819D02*
X102107142Y-29604819D01*
X102107142Y-29604819D02*
X102011904Y-29652438D01*
X102011904Y-29652438D02*
X101964285Y-29700057D01*
X101964285Y-29700057D02*
X101916666Y-29795295D01*
X101916666Y-29795295D02*
X101916666Y-29938152D01*
X101916666Y-29938152D02*
X101964285Y-30033390D01*
X101964285Y-30033390D02*
X102011904Y-30081009D01*
X102011904Y-30081009D02*
X102107142Y-30128628D01*
X102107142Y-30128628D02*
X102488094Y-30128628D01*
X101535713Y-29700057D02*
X101488094Y-29652438D01*
X101488094Y-29652438D02*
X101392856Y-29604819D01*
X101392856Y-29604819D02*
X101154761Y-29604819D01*
X101154761Y-29604819D02*
X101059523Y-29652438D01*
X101059523Y-29652438D02*
X101011904Y-29700057D01*
X101011904Y-29700057D02*
X100964285Y-29795295D01*
X100964285Y-29795295D02*
X100964285Y-29890533D01*
X100964285Y-29890533D02*
X101011904Y-30033390D01*
X101011904Y-30033390D02*
X101583332Y-30604819D01*
X101583332Y-30604819D02*
X100964285Y-30604819D01*
X107416666Y-167304819D02*
X107749999Y-166828628D01*
X107988094Y-167304819D02*
X107988094Y-166304819D01*
X107988094Y-166304819D02*
X107607142Y-166304819D01*
X107607142Y-166304819D02*
X107511904Y-166352438D01*
X107511904Y-166352438D02*
X107464285Y-166400057D01*
X107464285Y-166400057D02*
X107416666Y-166495295D01*
X107416666Y-166495295D02*
X107416666Y-166638152D01*
X107416666Y-166638152D02*
X107464285Y-166733390D01*
X107464285Y-166733390D02*
X107511904Y-166781009D01*
X107511904Y-166781009D02*
X107607142Y-166828628D01*
X107607142Y-166828628D02*
X107988094Y-166828628D01*
X106940475Y-167304819D02*
X106749999Y-167304819D01*
X106749999Y-167304819D02*
X106654761Y-167257200D01*
X106654761Y-167257200D02*
X106607142Y-167209580D01*
X106607142Y-167209580D02*
X106511904Y-167066723D01*
X106511904Y-167066723D02*
X106464285Y-166876247D01*
X106464285Y-166876247D02*
X106464285Y-166495295D01*
X106464285Y-166495295D02*
X106511904Y-166400057D01*
X106511904Y-166400057D02*
X106559523Y-166352438D01*
X106559523Y-166352438D02*
X106654761Y-166304819D01*
X106654761Y-166304819D02*
X106845237Y-166304819D01*
X106845237Y-166304819D02*
X106940475Y-166352438D01*
X106940475Y-166352438D02*
X106988094Y-166400057D01*
X106988094Y-166400057D02*
X107035713Y-166495295D01*
X107035713Y-166495295D02*
X107035713Y-166733390D01*
X107035713Y-166733390D02*
X106988094Y-166828628D01*
X106988094Y-166828628D02*
X106940475Y-166876247D01*
X106940475Y-166876247D02*
X106845237Y-166923866D01*
X106845237Y-166923866D02*
X106654761Y-166923866D01*
X106654761Y-166923866D02*
X106559523Y-166876247D01*
X106559523Y-166876247D02*
X106511904Y-166828628D01*
X106511904Y-166828628D02*
X106464285Y-166733390D01*
X57416666Y-148104819D02*
X57749999Y-147628628D01*
X57988094Y-148104819D02*
X57988094Y-147104819D01*
X57988094Y-147104819D02*
X57607142Y-147104819D01*
X57607142Y-147104819D02*
X57511904Y-147152438D01*
X57511904Y-147152438D02*
X57464285Y-147200057D01*
X57464285Y-147200057D02*
X57416666Y-147295295D01*
X57416666Y-147295295D02*
X57416666Y-147438152D01*
X57416666Y-147438152D02*
X57464285Y-147533390D01*
X57464285Y-147533390D02*
X57511904Y-147581009D01*
X57511904Y-147581009D02*
X57607142Y-147628628D01*
X57607142Y-147628628D02*
X57988094Y-147628628D01*
X56559523Y-147104819D02*
X56749999Y-147104819D01*
X56749999Y-147104819D02*
X56845237Y-147152438D01*
X56845237Y-147152438D02*
X56892856Y-147200057D01*
X56892856Y-147200057D02*
X56988094Y-147342914D01*
X56988094Y-147342914D02*
X57035713Y-147533390D01*
X57035713Y-147533390D02*
X57035713Y-147914342D01*
X57035713Y-147914342D02*
X56988094Y-148009580D01*
X56988094Y-148009580D02*
X56940475Y-148057200D01*
X56940475Y-148057200D02*
X56845237Y-148104819D01*
X56845237Y-148104819D02*
X56654761Y-148104819D01*
X56654761Y-148104819D02*
X56559523Y-148057200D01*
X56559523Y-148057200D02*
X56511904Y-148009580D01*
X56511904Y-148009580D02*
X56464285Y-147914342D01*
X56464285Y-147914342D02*
X56464285Y-147676247D01*
X56464285Y-147676247D02*
X56511904Y-147581009D01*
X56511904Y-147581009D02*
X56559523Y-147533390D01*
X56559523Y-147533390D02*
X56654761Y-147485771D01*
X56654761Y-147485771D02*
X56845237Y-147485771D01*
X56845237Y-147485771D02*
X56940475Y-147533390D01*
X56940475Y-147533390D02*
X56988094Y-147581009D01*
X56988094Y-147581009D02*
X57035713Y-147676247D01*
X112892857Y-167304819D02*
X113226190Y-166828628D01*
X113464285Y-167304819D02*
X113464285Y-166304819D01*
X113464285Y-166304819D02*
X113083333Y-166304819D01*
X113083333Y-166304819D02*
X112988095Y-166352438D01*
X112988095Y-166352438D02*
X112940476Y-166400057D01*
X112940476Y-166400057D02*
X112892857Y-166495295D01*
X112892857Y-166495295D02*
X112892857Y-166638152D01*
X112892857Y-166638152D02*
X112940476Y-166733390D01*
X112940476Y-166733390D02*
X112988095Y-166781009D01*
X112988095Y-166781009D02*
X113083333Y-166828628D01*
X113083333Y-166828628D02*
X113464285Y-166828628D01*
X111940476Y-167304819D02*
X112511904Y-167304819D01*
X112226190Y-167304819D02*
X112226190Y-166304819D01*
X112226190Y-166304819D02*
X112321428Y-166447676D01*
X112321428Y-166447676D02*
X112416666Y-166542914D01*
X112416666Y-166542914D02*
X112511904Y-166590533D01*
X111321428Y-166304819D02*
X111226190Y-166304819D01*
X111226190Y-166304819D02*
X111130952Y-166352438D01*
X111130952Y-166352438D02*
X111083333Y-166400057D01*
X111083333Y-166400057D02*
X111035714Y-166495295D01*
X111035714Y-166495295D02*
X110988095Y-166685771D01*
X110988095Y-166685771D02*
X110988095Y-166923866D01*
X110988095Y-166923866D02*
X111035714Y-167114342D01*
X111035714Y-167114342D02*
X111083333Y-167209580D01*
X111083333Y-167209580D02*
X111130952Y-167257200D01*
X111130952Y-167257200D02*
X111226190Y-167304819D01*
X111226190Y-167304819D02*
X111321428Y-167304819D01*
X111321428Y-167304819D02*
X111416666Y-167257200D01*
X111416666Y-167257200D02*
X111464285Y-167209580D01*
X111464285Y-167209580D02*
X111511904Y-167114342D01*
X111511904Y-167114342D02*
X111559523Y-166923866D01*
X111559523Y-166923866D02*
X111559523Y-166685771D01*
X111559523Y-166685771D02*
X111511904Y-166495295D01*
X111511904Y-166495295D02*
X111464285Y-166400057D01*
X111464285Y-166400057D02*
X111416666Y-166352438D01*
X111416666Y-166352438D02*
X111321428Y-166304819D01*
X169604819Y-157107142D02*
X169128628Y-156773809D01*
X169604819Y-156535714D02*
X168604819Y-156535714D01*
X168604819Y-156535714D02*
X168604819Y-156916666D01*
X168604819Y-156916666D02*
X168652438Y-157011904D01*
X168652438Y-157011904D02*
X168700057Y-157059523D01*
X168700057Y-157059523D02*
X168795295Y-157107142D01*
X168795295Y-157107142D02*
X168938152Y-157107142D01*
X168938152Y-157107142D02*
X169033390Y-157059523D01*
X169033390Y-157059523D02*
X169081009Y-157011904D01*
X169081009Y-157011904D02*
X169128628Y-156916666D01*
X169128628Y-156916666D02*
X169128628Y-156535714D01*
X168700057Y-157488095D02*
X168652438Y-157535714D01*
X168652438Y-157535714D02*
X168604819Y-157630952D01*
X168604819Y-157630952D02*
X168604819Y-157869047D01*
X168604819Y-157869047D02*
X168652438Y-157964285D01*
X168652438Y-157964285D02*
X168700057Y-158011904D01*
X168700057Y-158011904D02*
X168795295Y-158059523D01*
X168795295Y-158059523D02*
X168890533Y-158059523D01*
X168890533Y-158059523D02*
X169033390Y-158011904D01*
X169033390Y-158011904D02*
X169604819Y-157440476D01*
X169604819Y-157440476D02*
X169604819Y-158059523D01*
X168604819Y-158678571D02*
X168604819Y-158773809D01*
X168604819Y-158773809D02*
X168652438Y-158869047D01*
X168652438Y-158869047D02*
X168700057Y-158916666D01*
X168700057Y-158916666D02*
X168795295Y-158964285D01*
X168795295Y-158964285D02*
X168985771Y-159011904D01*
X168985771Y-159011904D02*
X169223866Y-159011904D01*
X169223866Y-159011904D02*
X169414342Y-158964285D01*
X169414342Y-158964285D02*
X169509580Y-158916666D01*
X169509580Y-158916666D02*
X169557200Y-158869047D01*
X169557200Y-158869047D02*
X169604819Y-158773809D01*
X169604819Y-158773809D02*
X169604819Y-158678571D01*
X169604819Y-158678571D02*
X169557200Y-158583333D01*
X169557200Y-158583333D02*
X169509580Y-158535714D01*
X169509580Y-158535714D02*
X169414342Y-158488095D01*
X169414342Y-158488095D02*
X169223866Y-158440476D01*
X169223866Y-158440476D02*
X168985771Y-158440476D01*
X168985771Y-158440476D02*
X168795295Y-158488095D01*
X168795295Y-158488095D02*
X168700057Y-158535714D01*
X168700057Y-158535714D02*
X168652438Y-158583333D01*
X168652438Y-158583333D02*
X168604819Y-158678571D01*
X165604819Y-152857142D02*
X165128628Y-152523809D01*
X165604819Y-152285714D02*
X164604819Y-152285714D01*
X164604819Y-152285714D02*
X164604819Y-152666666D01*
X164604819Y-152666666D02*
X164652438Y-152761904D01*
X164652438Y-152761904D02*
X164700057Y-152809523D01*
X164700057Y-152809523D02*
X164795295Y-152857142D01*
X164795295Y-152857142D02*
X164938152Y-152857142D01*
X164938152Y-152857142D02*
X165033390Y-152809523D01*
X165033390Y-152809523D02*
X165081009Y-152761904D01*
X165081009Y-152761904D02*
X165128628Y-152666666D01*
X165128628Y-152666666D02*
X165128628Y-152285714D01*
X165604819Y-153809523D02*
X165604819Y-153238095D01*
X165604819Y-153523809D02*
X164604819Y-153523809D01*
X164604819Y-153523809D02*
X164747676Y-153428571D01*
X164747676Y-153428571D02*
X164842914Y-153333333D01*
X164842914Y-153333333D02*
X164890533Y-153238095D01*
X164604819Y-154666666D02*
X164604819Y-154476190D01*
X164604819Y-154476190D02*
X164652438Y-154380952D01*
X164652438Y-154380952D02*
X164700057Y-154333333D01*
X164700057Y-154333333D02*
X164842914Y-154238095D01*
X164842914Y-154238095D02*
X165033390Y-154190476D01*
X165033390Y-154190476D02*
X165414342Y-154190476D01*
X165414342Y-154190476D02*
X165509580Y-154238095D01*
X165509580Y-154238095D02*
X165557200Y-154285714D01*
X165557200Y-154285714D02*
X165604819Y-154380952D01*
X165604819Y-154380952D02*
X165604819Y-154571428D01*
X165604819Y-154571428D02*
X165557200Y-154666666D01*
X165557200Y-154666666D02*
X165509580Y-154714285D01*
X165509580Y-154714285D02*
X165414342Y-154761904D01*
X165414342Y-154761904D02*
X165176247Y-154761904D01*
X165176247Y-154761904D02*
X165081009Y-154714285D01*
X165081009Y-154714285D02*
X165033390Y-154666666D01*
X165033390Y-154666666D02*
X164985771Y-154571428D01*
X164985771Y-154571428D02*
X164985771Y-154380952D01*
X164985771Y-154380952D02*
X165033390Y-154285714D01*
X165033390Y-154285714D02*
X165081009Y-154238095D01*
X165081009Y-154238095D02*
X165176247Y-154190476D01*
X121554819Y-173833333D02*
X121078628Y-173500000D01*
X121554819Y-173261905D02*
X120554819Y-173261905D01*
X120554819Y-173261905D02*
X120554819Y-173642857D01*
X120554819Y-173642857D02*
X120602438Y-173738095D01*
X120602438Y-173738095D02*
X120650057Y-173785714D01*
X120650057Y-173785714D02*
X120745295Y-173833333D01*
X120745295Y-173833333D02*
X120888152Y-173833333D01*
X120888152Y-173833333D02*
X120983390Y-173785714D01*
X120983390Y-173785714D02*
X121031009Y-173738095D01*
X121031009Y-173738095D02*
X121078628Y-173642857D01*
X121078628Y-173642857D02*
X121078628Y-173261905D01*
X120554819Y-174166667D02*
X120554819Y-174833333D01*
X120554819Y-174833333D02*
X121554819Y-174404762D01*
X169604819Y-152857142D02*
X169128628Y-152523809D01*
X169604819Y-152285714D02*
X168604819Y-152285714D01*
X168604819Y-152285714D02*
X168604819Y-152666666D01*
X168604819Y-152666666D02*
X168652438Y-152761904D01*
X168652438Y-152761904D02*
X168700057Y-152809523D01*
X168700057Y-152809523D02*
X168795295Y-152857142D01*
X168795295Y-152857142D02*
X168938152Y-152857142D01*
X168938152Y-152857142D02*
X169033390Y-152809523D01*
X169033390Y-152809523D02*
X169081009Y-152761904D01*
X169081009Y-152761904D02*
X169128628Y-152666666D01*
X169128628Y-152666666D02*
X169128628Y-152285714D01*
X169604819Y-153809523D02*
X169604819Y-153238095D01*
X169604819Y-153523809D02*
X168604819Y-153523809D01*
X168604819Y-153523809D02*
X168747676Y-153428571D01*
X168747676Y-153428571D02*
X168842914Y-153333333D01*
X168842914Y-153333333D02*
X168890533Y-153238095D01*
X169604819Y-154285714D02*
X169604819Y-154476190D01*
X169604819Y-154476190D02*
X169557200Y-154571428D01*
X169557200Y-154571428D02*
X169509580Y-154619047D01*
X169509580Y-154619047D02*
X169366723Y-154714285D01*
X169366723Y-154714285D02*
X169176247Y-154761904D01*
X169176247Y-154761904D02*
X168795295Y-154761904D01*
X168795295Y-154761904D02*
X168700057Y-154714285D01*
X168700057Y-154714285D02*
X168652438Y-154666666D01*
X168652438Y-154666666D02*
X168604819Y-154571428D01*
X168604819Y-154571428D02*
X168604819Y-154380952D01*
X168604819Y-154380952D02*
X168652438Y-154285714D01*
X168652438Y-154285714D02*
X168700057Y-154238095D01*
X168700057Y-154238095D02*
X168795295Y-154190476D01*
X168795295Y-154190476D02*
X169033390Y-154190476D01*
X169033390Y-154190476D02*
X169128628Y-154238095D01*
X169128628Y-154238095D02*
X169176247Y-154285714D01*
X169176247Y-154285714D02*
X169223866Y-154380952D01*
X169223866Y-154380952D02*
X169223866Y-154571428D01*
X169223866Y-154571428D02*
X169176247Y-154666666D01*
X169176247Y-154666666D02*
X169128628Y-154714285D01*
X169128628Y-154714285D02*
X169033390Y-154761904D01*
X79354819Y-183417142D02*
X78878628Y-183083809D01*
X79354819Y-182845714D02*
X78354819Y-182845714D01*
X78354819Y-182845714D02*
X78354819Y-183226666D01*
X78354819Y-183226666D02*
X78402438Y-183321904D01*
X78402438Y-183321904D02*
X78450057Y-183369523D01*
X78450057Y-183369523D02*
X78545295Y-183417142D01*
X78545295Y-183417142D02*
X78688152Y-183417142D01*
X78688152Y-183417142D02*
X78783390Y-183369523D01*
X78783390Y-183369523D02*
X78831009Y-183321904D01*
X78831009Y-183321904D02*
X78878628Y-183226666D01*
X78878628Y-183226666D02*
X78878628Y-182845714D01*
X79354819Y-184369523D02*
X79354819Y-183798095D01*
X79354819Y-184083809D02*
X78354819Y-184083809D01*
X78354819Y-184083809D02*
X78497676Y-183988571D01*
X78497676Y-183988571D02*
X78592914Y-183893333D01*
X78592914Y-183893333D02*
X78640533Y-183798095D01*
X78688152Y-185226666D02*
X79354819Y-185226666D01*
X78307200Y-184988571D02*
X79021485Y-184750476D01*
X79021485Y-184750476D02*
X79021485Y-185369523D01*
X91354819Y-183417142D02*
X90878628Y-183083809D01*
X91354819Y-182845714D02*
X90354819Y-182845714D01*
X90354819Y-182845714D02*
X90354819Y-183226666D01*
X90354819Y-183226666D02*
X90402438Y-183321904D01*
X90402438Y-183321904D02*
X90450057Y-183369523D01*
X90450057Y-183369523D02*
X90545295Y-183417142D01*
X90545295Y-183417142D02*
X90688152Y-183417142D01*
X90688152Y-183417142D02*
X90783390Y-183369523D01*
X90783390Y-183369523D02*
X90831009Y-183321904D01*
X90831009Y-183321904D02*
X90878628Y-183226666D01*
X90878628Y-183226666D02*
X90878628Y-182845714D01*
X91354819Y-184369523D02*
X91354819Y-183798095D01*
X91354819Y-184083809D02*
X90354819Y-184083809D01*
X90354819Y-184083809D02*
X90497676Y-183988571D01*
X90497676Y-183988571D02*
X90592914Y-183893333D01*
X90592914Y-183893333D02*
X90640533Y-183798095D01*
X90354819Y-184702857D02*
X90354819Y-185369523D01*
X90354819Y-185369523D02*
X91354819Y-184940952D01*
X102392857Y-170604819D02*
X102726190Y-170128628D01*
X102964285Y-170604819D02*
X102964285Y-169604819D01*
X102964285Y-169604819D02*
X102583333Y-169604819D01*
X102583333Y-169604819D02*
X102488095Y-169652438D01*
X102488095Y-169652438D02*
X102440476Y-169700057D01*
X102440476Y-169700057D02*
X102392857Y-169795295D01*
X102392857Y-169795295D02*
X102392857Y-169938152D01*
X102392857Y-169938152D02*
X102440476Y-170033390D01*
X102440476Y-170033390D02*
X102488095Y-170081009D01*
X102488095Y-170081009D02*
X102583333Y-170128628D01*
X102583333Y-170128628D02*
X102964285Y-170128628D01*
X101440476Y-170604819D02*
X102011904Y-170604819D01*
X101726190Y-170604819D02*
X101726190Y-169604819D01*
X101726190Y-169604819D02*
X101821428Y-169747676D01*
X101821428Y-169747676D02*
X101916666Y-169842914D01*
X101916666Y-169842914D02*
X102011904Y-169890533D01*
X100488095Y-170604819D02*
X101059523Y-170604819D01*
X100773809Y-170604819D02*
X100773809Y-169604819D01*
X100773809Y-169604819D02*
X100869047Y-169747676D01*
X100869047Y-169747676D02*
X100964285Y-169842914D01*
X100964285Y-169842914D02*
X101059523Y-169890533D01*
X206104819Y-123583333D02*
X205628628Y-123250000D01*
X206104819Y-123011905D02*
X205104819Y-123011905D01*
X205104819Y-123011905D02*
X205104819Y-123392857D01*
X205104819Y-123392857D02*
X205152438Y-123488095D01*
X205152438Y-123488095D02*
X205200057Y-123535714D01*
X205200057Y-123535714D02*
X205295295Y-123583333D01*
X205295295Y-123583333D02*
X205438152Y-123583333D01*
X205438152Y-123583333D02*
X205533390Y-123535714D01*
X205533390Y-123535714D02*
X205581009Y-123488095D01*
X205581009Y-123488095D02*
X205628628Y-123392857D01*
X205628628Y-123392857D02*
X205628628Y-123011905D01*
X205104819Y-124488095D02*
X205104819Y-124011905D01*
X205104819Y-124011905D02*
X205581009Y-123964286D01*
X205581009Y-123964286D02*
X205533390Y-124011905D01*
X205533390Y-124011905D02*
X205485771Y-124107143D01*
X205485771Y-124107143D02*
X205485771Y-124345238D01*
X205485771Y-124345238D02*
X205533390Y-124440476D01*
X205533390Y-124440476D02*
X205581009Y-124488095D01*
X205581009Y-124488095D02*
X205676247Y-124535714D01*
X205676247Y-124535714D02*
X205914342Y-124535714D01*
X205914342Y-124535714D02*
X206009580Y-124488095D01*
X206009580Y-124488095D02*
X206057200Y-124440476D01*
X206057200Y-124440476D02*
X206104819Y-124345238D01*
X206104819Y-124345238D02*
X206104819Y-124107143D01*
X206104819Y-124107143D02*
X206057200Y-124011905D01*
X206057200Y-124011905D02*
X206009580Y-123964286D01*
X100916666Y-25104819D02*
X101249999Y-24628628D01*
X101488094Y-25104819D02*
X101488094Y-24104819D01*
X101488094Y-24104819D02*
X101107142Y-24104819D01*
X101107142Y-24104819D02*
X101011904Y-24152438D01*
X101011904Y-24152438D02*
X100964285Y-24200057D01*
X100964285Y-24200057D02*
X100916666Y-24295295D01*
X100916666Y-24295295D02*
X100916666Y-24438152D01*
X100916666Y-24438152D02*
X100964285Y-24533390D01*
X100964285Y-24533390D02*
X101011904Y-24581009D01*
X101011904Y-24581009D02*
X101107142Y-24628628D01*
X101107142Y-24628628D02*
X101488094Y-24628628D01*
X100583332Y-24104819D02*
X99964285Y-24104819D01*
X99964285Y-24104819D02*
X100297618Y-24485771D01*
X100297618Y-24485771D02*
X100154761Y-24485771D01*
X100154761Y-24485771D02*
X100059523Y-24533390D01*
X100059523Y-24533390D02*
X100011904Y-24581009D01*
X100011904Y-24581009D02*
X99964285Y-24676247D01*
X99964285Y-24676247D02*
X99964285Y-24914342D01*
X99964285Y-24914342D02*
X100011904Y-25009580D01*
X100011904Y-25009580D02*
X100059523Y-25057200D01*
X100059523Y-25057200D02*
X100154761Y-25104819D01*
X100154761Y-25104819D02*
X100440475Y-25104819D01*
X100440475Y-25104819D02*
X100535713Y-25057200D01*
X100535713Y-25057200D02*
X100583332Y-25009580D01*
X116892857Y-167304819D02*
X117226190Y-166828628D01*
X117464285Y-167304819D02*
X117464285Y-166304819D01*
X117464285Y-166304819D02*
X117083333Y-166304819D01*
X117083333Y-166304819D02*
X116988095Y-166352438D01*
X116988095Y-166352438D02*
X116940476Y-166400057D01*
X116940476Y-166400057D02*
X116892857Y-166495295D01*
X116892857Y-166495295D02*
X116892857Y-166638152D01*
X116892857Y-166638152D02*
X116940476Y-166733390D01*
X116940476Y-166733390D02*
X116988095Y-166781009D01*
X116988095Y-166781009D02*
X117083333Y-166828628D01*
X117083333Y-166828628D02*
X117464285Y-166828628D01*
X115940476Y-167304819D02*
X116511904Y-167304819D01*
X116226190Y-167304819D02*
X116226190Y-166304819D01*
X116226190Y-166304819D02*
X116321428Y-166447676D01*
X116321428Y-166447676D02*
X116416666Y-166542914D01*
X116416666Y-166542914D02*
X116511904Y-166590533D01*
X115607142Y-166304819D02*
X114988095Y-166304819D01*
X114988095Y-166304819D02*
X115321428Y-166685771D01*
X115321428Y-166685771D02*
X115178571Y-166685771D01*
X115178571Y-166685771D02*
X115083333Y-166733390D01*
X115083333Y-166733390D02*
X115035714Y-166781009D01*
X115035714Y-166781009D02*
X114988095Y-166876247D01*
X114988095Y-166876247D02*
X114988095Y-167114342D01*
X114988095Y-167114342D02*
X115035714Y-167209580D01*
X115035714Y-167209580D02*
X115083333Y-167257200D01*
X115083333Y-167257200D02*
X115178571Y-167304819D01*
X115178571Y-167304819D02*
X115464285Y-167304819D01*
X115464285Y-167304819D02*
X115559523Y-167257200D01*
X115559523Y-167257200D02*
X115607142Y-167209580D01*
D11*
%TO.C,R21*%
X162765000Y-157977064D02*
X162765000Y-157522936D01*
X164235000Y-157977064D02*
X164235000Y-157522936D01*
%TO.C,R22*%
X82985000Y-183832936D02*
X82985000Y-184287064D01*
X81515000Y-183832936D02*
X81515000Y-184287064D01*
%TO.C,R18*%
X84655000Y-184287064D02*
X84655000Y-183832936D01*
X86125000Y-184287064D02*
X86125000Y-183832936D01*
%TO.C,R12*%
X97022936Y-167765000D02*
X97477064Y-167765000D01*
X97022936Y-169235000D02*
X97477064Y-169235000D01*
%TO.C,R4*%
X204485000Y-87022936D02*
X204485000Y-87477064D01*
X203015000Y-87022936D02*
X203015000Y-87477064D01*
%TO.C,R8*%
X116227064Y-177735000D02*
X115772936Y-177735000D01*
X116227064Y-176265000D02*
X115772936Y-176265000D01*
%TO.C,R15*%
X88515000Y-179537064D02*
X88515000Y-179082936D01*
X89985000Y-179537064D02*
X89985000Y-179082936D01*
%TO.C,R1*%
X146485000Y-30022936D02*
X146485000Y-30477064D01*
X145015000Y-30022936D02*
X145015000Y-30477064D01*
%TO.C,R2*%
X101522936Y-27765000D02*
X101977064Y-27765000D01*
X101522936Y-29235000D02*
X101977064Y-29235000D01*
%TO.C,R9*%
X107477064Y-169235000D02*
X107022936Y-169235000D01*
X107477064Y-167765000D02*
X107022936Y-167765000D01*
%TO.C,R6*%
X57022936Y-145265000D02*
X57477064Y-145265000D01*
X57022936Y-146735000D02*
X57477064Y-146735000D01*
%TO.C,R10*%
X112477064Y-169235000D02*
X112022936Y-169235000D01*
X112477064Y-167765000D02*
X112022936Y-167765000D01*
%TO.C,R20*%
X166765000Y-157977064D02*
X166765000Y-157522936D01*
X168235000Y-157977064D02*
X168235000Y-157522936D01*
%TO.C,R16*%
X162765000Y-153727064D02*
X162765000Y-153272936D01*
X164235000Y-153727064D02*
X164235000Y-153272936D01*
%TO.C,R7*%
X123485000Y-173772936D02*
X123485000Y-174227064D01*
X122015000Y-173772936D02*
X122015000Y-174227064D01*
%TO.C,R19*%
X166765000Y-153727064D02*
X166765000Y-153272936D01*
X168235000Y-153727064D02*
X168235000Y-153272936D01*
%TO.C,R14*%
X76515000Y-184287064D02*
X76515000Y-183832936D01*
X77985000Y-184287064D02*
X77985000Y-183832936D01*
%TO.C,R17*%
X88515000Y-184287064D02*
X88515000Y-183832936D01*
X89985000Y-184287064D02*
X89985000Y-183832936D01*
%TO.C,R11*%
X101522936Y-167765000D02*
X101977064Y-167765000D01*
X101522936Y-169235000D02*
X101977064Y-169235000D01*
%TO.C,R5*%
X203265000Y-123977064D02*
X203265000Y-123522936D01*
X204735000Y-123977064D02*
X204735000Y-123522936D01*
%TO.C,R3*%
X100522936Y-22265000D02*
X100977064Y-22265000D01*
X100522936Y-23735000D02*
X100977064Y-23735000D01*
%TO.C,R13*%
X116477064Y-169235000D02*
X116022936Y-169235000D01*
X116477064Y-167765000D02*
X116022936Y-167765000D01*
%TD*%
M02*
