%TF.GenerationSoftware,KiCad,Pcbnew,9.0.4*%
%TF.CreationDate,2026-03-23T09:12:58+00:00*%
%TF.ProjectId,Distribution Board V2,44697374-7269-4627-9574-696f6e20426f,rev?*%
%TF.SameCoordinates,Original*%
%TF.FileFunction,Legend,Top*%
%TF.FilePolarity,Positive*%
%FSLAX46Y46*%
G04 Gerber Fmt 4.6, Leading zero omitted, Abs format (unit mm)*
G04 Created by KiCad (PCBNEW 9.0.4) date 2026-03-23 09:12:58*
%MOMM*%
%LPD*%
G01*
G04 APERTURE LIST*
%ADD10C,0.100000*%
%ADD11C,0.150000*%
%ADD12C,0.120000*%
%ADD13C,0.127000*%
G04 APERTURE END LIST*
D10*
X157988094Y-162542580D02*
X157988094Y-163542580D01*
X157988094Y-163542580D02*
X157607142Y-163542580D01*
X157607142Y-163542580D02*
X157511904Y-163494961D01*
X157511904Y-163494961D02*
X157464285Y-163447342D01*
X157464285Y-163447342D02*
X157416666Y-163352104D01*
X157416666Y-163352104D02*
X157416666Y-163209247D01*
X157416666Y-163209247D02*
X157464285Y-163114009D01*
X157464285Y-163114009D02*
X157511904Y-163066390D01*
X157511904Y-163066390D02*
X157607142Y-163018771D01*
X157607142Y-163018771D02*
X157988094Y-163018771D01*
X156416666Y-162637819D02*
X156464285Y-162590200D01*
X156464285Y-162590200D02*
X156607142Y-162542580D01*
X156607142Y-162542580D02*
X156702380Y-162542580D01*
X156702380Y-162542580D02*
X156845237Y-162590200D01*
X156845237Y-162590200D02*
X156940475Y-162685438D01*
X156940475Y-162685438D02*
X156988094Y-162780676D01*
X156988094Y-162780676D02*
X157035713Y-162971152D01*
X157035713Y-162971152D02*
X157035713Y-163114009D01*
X157035713Y-163114009D02*
X156988094Y-163304485D01*
X156988094Y-163304485D02*
X156940475Y-163399723D01*
X156940475Y-163399723D02*
X156845237Y-163494961D01*
X156845237Y-163494961D02*
X156702380Y-163542580D01*
X156702380Y-163542580D02*
X156607142Y-163542580D01*
X156607142Y-163542580D02*
X156464285Y-163494961D01*
X156464285Y-163494961D02*
X156416666Y-163447342D01*
X155654761Y-163066390D02*
X155511904Y-163018771D01*
X155511904Y-163018771D02*
X155464285Y-162971152D01*
X155464285Y-162971152D02*
X155416666Y-162875914D01*
X155416666Y-162875914D02*
X155416666Y-162733057D01*
X155416666Y-162733057D02*
X155464285Y-162637819D01*
X155464285Y-162637819D02*
X155511904Y-162590200D01*
X155511904Y-162590200D02*
X155607142Y-162542580D01*
X155607142Y-162542580D02*
X155988094Y-162542580D01*
X155988094Y-162542580D02*
X155988094Y-163542580D01*
X155988094Y-163542580D02*
X155654761Y-163542580D01*
X155654761Y-163542580D02*
X155559523Y-163494961D01*
X155559523Y-163494961D02*
X155511904Y-163447342D01*
X155511904Y-163447342D02*
X155464285Y-163352104D01*
X155464285Y-163352104D02*
X155464285Y-163256866D01*
X155464285Y-163256866D02*
X155511904Y-163161628D01*
X155511904Y-163161628D02*
X155559523Y-163114009D01*
X155559523Y-163114009D02*
X155654761Y-163066390D01*
X155654761Y-163066390D02*
X155988094Y-163066390D01*
X155083332Y-163542580D02*
X154464285Y-163542580D01*
X154464285Y-163542580D02*
X154797618Y-163161628D01*
X154797618Y-163161628D02*
X154654761Y-163161628D01*
X154654761Y-163161628D02*
X154559523Y-163114009D01*
X154559523Y-163114009D02*
X154511904Y-163066390D01*
X154511904Y-163066390D02*
X154464285Y-162971152D01*
X154464285Y-162971152D02*
X154464285Y-162733057D01*
X154464285Y-162733057D02*
X154511904Y-162637819D01*
X154511904Y-162637819D02*
X154559523Y-162590200D01*
X154559523Y-162590200D02*
X154654761Y-162542580D01*
X154654761Y-162542580D02*
X154940475Y-162542580D01*
X154940475Y-162542580D02*
X155035713Y-162590200D01*
X155035713Y-162590200D02*
X155083332Y-162637819D01*
D11*
X127838095Y-162128007D02*
X127838095Y-161128007D01*
X127838095Y-161604197D02*
X128409523Y-161604197D01*
X128409523Y-162128007D02*
X128409523Y-161128007D01*
X129028571Y-161556578D02*
X128933333Y-161508959D01*
X128933333Y-161508959D02*
X128885714Y-161461340D01*
X128885714Y-161461340D02*
X128838095Y-161366102D01*
X128838095Y-161366102D02*
X128838095Y-161318483D01*
X128838095Y-161318483D02*
X128885714Y-161223245D01*
X128885714Y-161223245D02*
X128933333Y-161175626D01*
X128933333Y-161175626D02*
X129028571Y-161128007D01*
X129028571Y-161128007D02*
X129219047Y-161128007D01*
X129219047Y-161128007D02*
X129314285Y-161175626D01*
X129314285Y-161175626D02*
X129361904Y-161223245D01*
X129361904Y-161223245D02*
X129409523Y-161318483D01*
X129409523Y-161318483D02*
X129409523Y-161366102D01*
X129409523Y-161366102D02*
X129361904Y-161461340D01*
X129361904Y-161461340D02*
X129314285Y-161508959D01*
X129314285Y-161508959D02*
X129219047Y-161556578D01*
X129219047Y-161556578D02*
X129028571Y-161556578D01*
X129028571Y-161556578D02*
X128933333Y-161604197D01*
X128933333Y-161604197D02*
X128885714Y-161651816D01*
X128885714Y-161651816D02*
X128838095Y-161747054D01*
X128838095Y-161747054D02*
X128838095Y-161937530D01*
X128838095Y-161937530D02*
X128885714Y-162032768D01*
X128885714Y-162032768D02*
X128933333Y-162080388D01*
X128933333Y-162080388D02*
X129028571Y-162128007D01*
X129028571Y-162128007D02*
X129219047Y-162128007D01*
X129219047Y-162128007D02*
X129314285Y-162080388D01*
X129314285Y-162080388D02*
X129361904Y-162032768D01*
X129361904Y-162032768D02*
X129409523Y-161937530D01*
X129409523Y-161937530D02*
X129409523Y-161747054D01*
X129409523Y-161747054D02*
X129361904Y-161651816D01*
X129361904Y-161651816D02*
X129314285Y-161604197D01*
X129314285Y-161604197D02*
X129219047Y-161556578D01*
X74638095Y-38928007D02*
X74638095Y-37928007D01*
X74638095Y-38404197D02*
X75209523Y-38404197D01*
X75209523Y-38928007D02*
X75209523Y-37928007D01*
X76161904Y-37928007D02*
X75685714Y-37928007D01*
X75685714Y-37928007D02*
X75638095Y-38404197D01*
X75638095Y-38404197D02*
X75685714Y-38356578D01*
X75685714Y-38356578D02*
X75780952Y-38308959D01*
X75780952Y-38308959D02*
X76019047Y-38308959D01*
X76019047Y-38308959D02*
X76114285Y-38356578D01*
X76114285Y-38356578D02*
X76161904Y-38404197D01*
X76161904Y-38404197D02*
X76209523Y-38499435D01*
X76209523Y-38499435D02*
X76209523Y-38737530D01*
X76209523Y-38737530D02*
X76161904Y-38832768D01*
X76161904Y-38832768D02*
X76114285Y-38880388D01*
X76114285Y-38880388D02*
X76019047Y-38928007D01*
X76019047Y-38928007D02*
X75780952Y-38928007D01*
X75780952Y-38928007D02*
X75685714Y-38880388D01*
X75685714Y-38880388D02*
X75638095Y-38832768D01*
X74638095Y-162128007D02*
X74638095Y-161128007D01*
X74638095Y-161604197D02*
X75209523Y-161604197D01*
X75209523Y-162128007D02*
X75209523Y-161128007D01*
X75590476Y-161128007D02*
X76257142Y-161128007D01*
X76257142Y-161128007D02*
X75828571Y-162128007D01*
X127838095Y-38928007D02*
X127838095Y-37928007D01*
X127838095Y-38404197D02*
X128409523Y-38404197D01*
X128409523Y-38928007D02*
X128409523Y-37928007D01*
X129314285Y-37928007D02*
X129123809Y-37928007D01*
X129123809Y-37928007D02*
X129028571Y-37975626D01*
X129028571Y-37975626D02*
X128980952Y-38023245D01*
X128980952Y-38023245D02*
X128885714Y-38166102D01*
X128885714Y-38166102D02*
X128838095Y-38356578D01*
X128838095Y-38356578D02*
X128838095Y-38737530D01*
X128838095Y-38737530D02*
X128885714Y-38832768D01*
X128885714Y-38832768D02*
X128933333Y-38880388D01*
X128933333Y-38880388D02*
X129028571Y-38928007D01*
X129028571Y-38928007D02*
X129219047Y-38928007D01*
X129219047Y-38928007D02*
X129314285Y-38880388D01*
X129314285Y-38880388D02*
X129361904Y-38832768D01*
X129361904Y-38832768D02*
X129409523Y-38737530D01*
X129409523Y-38737530D02*
X129409523Y-38499435D01*
X129409523Y-38499435D02*
X129361904Y-38404197D01*
X129361904Y-38404197D02*
X129314285Y-38356578D01*
X129314285Y-38356578D02*
X129219047Y-38308959D01*
X129219047Y-38308959D02*
X129028571Y-38308959D01*
X129028571Y-38308959D02*
X128933333Y-38356578D01*
X128933333Y-38356578D02*
X128885714Y-38404197D01*
X128885714Y-38404197D02*
X128838095Y-38499435D01*
X74600057Y-178155238D02*
X74552438Y-178250476D01*
X74552438Y-178250476D02*
X74457200Y-178345714D01*
X74457200Y-178345714D02*
X74314342Y-178488571D01*
X74314342Y-178488571D02*
X74266723Y-178583809D01*
X74266723Y-178583809D02*
X74266723Y-178679047D01*
X74504819Y-178631428D02*
X74457200Y-178726666D01*
X74457200Y-178726666D02*
X74361961Y-178821904D01*
X74361961Y-178821904D02*
X74171485Y-178869523D01*
X74171485Y-178869523D02*
X73838152Y-178869523D01*
X73838152Y-178869523D02*
X73647676Y-178821904D01*
X73647676Y-178821904D02*
X73552438Y-178726666D01*
X73552438Y-178726666D02*
X73504819Y-178631428D01*
X73504819Y-178631428D02*
X73504819Y-178440952D01*
X73504819Y-178440952D02*
X73552438Y-178345714D01*
X73552438Y-178345714D02*
X73647676Y-178250476D01*
X73647676Y-178250476D02*
X73838152Y-178202857D01*
X73838152Y-178202857D02*
X74171485Y-178202857D01*
X74171485Y-178202857D02*
X74361961Y-178250476D01*
X74361961Y-178250476D02*
X74457200Y-178345714D01*
X74457200Y-178345714D02*
X74504819Y-178440952D01*
X74504819Y-178440952D02*
X74504819Y-178631428D01*
X73838152Y-177345714D02*
X74504819Y-177345714D01*
X73457200Y-177583809D02*
X74171485Y-177821904D01*
X74171485Y-177821904D02*
X74171485Y-177202857D01*
X110944761Y-175860057D02*
X110849523Y-175812438D01*
X110849523Y-175812438D02*
X110754285Y-175717200D01*
X110754285Y-175717200D02*
X110611428Y-175574342D01*
X110611428Y-175574342D02*
X110516190Y-175526723D01*
X110516190Y-175526723D02*
X110420952Y-175526723D01*
X110468571Y-175764819D02*
X110373333Y-175717200D01*
X110373333Y-175717200D02*
X110278095Y-175621961D01*
X110278095Y-175621961D02*
X110230476Y-175431485D01*
X110230476Y-175431485D02*
X110230476Y-175098152D01*
X110230476Y-175098152D02*
X110278095Y-174907676D01*
X110278095Y-174907676D02*
X110373333Y-174812438D01*
X110373333Y-174812438D02*
X110468571Y-174764819D01*
X110468571Y-174764819D02*
X110659047Y-174764819D01*
X110659047Y-174764819D02*
X110754285Y-174812438D01*
X110754285Y-174812438D02*
X110849523Y-174907676D01*
X110849523Y-174907676D02*
X110897142Y-175098152D01*
X110897142Y-175098152D02*
X110897142Y-175431485D01*
X110897142Y-175431485D02*
X110849523Y-175621961D01*
X110849523Y-175621961D02*
X110754285Y-175717200D01*
X110754285Y-175717200D02*
X110659047Y-175764819D01*
X110659047Y-175764819D02*
X110468571Y-175764819D01*
X111278095Y-174860057D02*
X111325714Y-174812438D01*
X111325714Y-174812438D02*
X111420952Y-174764819D01*
X111420952Y-174764819D02*
X111659047Y-174764819D01*
X111659047Y-174764819D02*
X111754285Y-174812438D01*
X111754285Y-174812438D02*
X111801904Y-174860057D01*
X111801904Y-174860057D02*
X111849523Y-174955295D01*
X111849523Y-174955295D02*
X111849523Y-175050533D01*
X111849523Y-175050533D02*
X111801904Y-175193390D01*
X111801904Y-175193390D02*
X111230476Y-175764819D01*
X111230476Y-175764819D02*
X111849523Y-175764819D01*
X210761905Y-85174819D02*
X210761905Y-84174819D01*
X210761905Y-84174819D02*
X211000000Y-84174819D01*
X211000000Y-84174819D02*
X211142857Y-84222438D01*
X211142857Y-84222438D02*
X211238095Y-84317676D01*
X211238095Y-84317676D02*
X211285714Y-84412914D01*
X211285714Y-84412914D02*
X211333333Y-84603390D01*
X211333333Y-84603390D02*
X211333333Y-84746247D01*
X211333333Y-84746247D02*
X211285714Y-84936723D01*
X211285714Y-84936723D02*
X211238095Y-85031961D01*
X211238095Y-85031961D02*
X211142857Y-85127200D01*
X211142857Y-85127200D02*
X211000000Y-85174819D01*
X211000000Y-85174819D02*
X210761905Y-85174819D01*
X212285714Y-85174819D02*
X211714286Y-85174819D01*
X212000000Y-85174819D02*
X212000000Y-84174819D01*
X212000000Y-84174819D02*
X211904762Y-84317676D01*
X211904762Y-84317676D02*
X211809524Y-84412914D01*
X211809524Y-84412914D02*
X211714286Y-84460533D01*
X218858095Y-84054819D02*
X218858095Y-83054819D01*
X219429523Y-84054819D02*
X219000952Y-83483390D01*
X219429523Y-83054819D02*
X218858095Y-83626247D01*
X55084819Y-180798094D02*
X54084819Y-180798094D01*
X54084819Y-180798094D02*
X54084819Y-180559999D01*
X54084819Y-180559999D02*
X54132438Y-180417142D01*
X54132438Y-180417142D02*
X54227676Y-180321904D01*
X54227676Y-180321904D02*
X54322914Y-180274285D01*
X54322914Y-180274285D02*
X54513390Y-180226666D01*
X54513390Y-180226666D02*
X54656247Y-180226666D01*
X54656247Y-180226666D02*
X54846723Y-180274285D01*
X54846723Y-180274285D02*
X54941961Y-180321904D01*
X54941961Y-180321904D02*
X55037200Y-180417142D01*
X55037200Y-180417142D02*
X55084819Y-180559999D01*
X55084819Y-180559999D02*
X55084819Y-180798094D01*
X54418152Y-179369523D02*
X55084819Y-179369523D01*
X54037200Y-179607618D02*
X54751485Y-179845713D01*
X54751485Y-179845713D02*
X54751485Y-179226666D01*
X55404819Y-184131904D02*
X54404819Y-184131904D01*
X55404819Y-183560476D02*
X54833390Y-183989047D01*
X54404819Y-183560476D02*
X54976247Y-184131904D01*
X47761905Y-137984819D02*
X47761905Y-136984819D01*
X47761905Y-136984819D02*
X48000000Y-136984819D01*
X48000000Y-136984819D02*
X48142857Y-137032438D01*
X48142857Y-137032438D02*
X48238095Y-137127676D01*
X48238095Y-137127676D02*
X48285714Y-137222914D01*
X48285714Y-137222914D02*
X48333333Y-137413390D01*
X48333333Y-137413390D02*
X48333333Y-137556247D01*
X48333333Y-137556247D02*
X48285714Y-137746723D01*
X48285714Y-137746723D02*
X48238095Y-137841961D01*
X48238095Y-137841961D02*
X48142857Y-137937200D01*
X48142857Y-137937200D02*
X48000000Y-137984819D01*
X48000000Y-137984819D02*
X47761905Y-137984819D01*
X48666667Y-136984819D02*
X49285714Y-136984819D01*
X49285714Y-136984819D02*
X48952381Y-137365771D01*
X48952381Y-137365771D02*
X49095238Y-137365771D01*
X49095238Y-137365771D02*
X49190476Y-137413390D01*
X49190476Y-137413390D02*
X49238095Y-137461009D01*
X49238095Y-137461009D02*
X49285714Y-137556247D01*
X49285714Y-137556247D02*
X49285714Y-137794342D01*
X49285714Y-137794342D02*
X49238095Y-137889580D01*
X49238095Y-137889580D02*
X49190476Y-137937200D01*
X49190476Y-137937200D02*
X49095238Y-137984819D01*
X49095238Y-137984819D02*
X48809524Y-137984819D01*
X48809524Y-137984819D02*
X48714286Y-137937200D01*
X48714286Y-137937200D02*
X48666667Y-137889580D01*
X40618095Y-139104819D02*
X40618095Y-138104819D01*
X41189523Y-139104819D02*
X40760952Y-138533390D01*
X41189523Y-138104819D02*
X40618095Y-138676247D01*
X192440476Y-157304819D02*
X192440476Y-158019104D01*
X192440476Y-158019104D02*
X192392857Y-158161961D01*
X192392857Y-158161961D02*
X192297619Y-158257200D01*
X192297619Y-158257200D02*
X192154762Y-158304819D01*
X192154762Y-158304819D02*
X192059524Y-158304819D01*
X193345238Y-157638152D02*
X193345238Y-158304819D01*
X193107143Y-157257200D02*
X192869048Y-157971485D01*
X192869048Y-157971485D02*
X193488095Y-157971485D01*
X193773810Y-157304819D02*
X194392857Y-157304819D01*
X194392857Y-157304819D02*
X194059524Y-157685771D01*
X194059524Y-157685771D02*
X194202381Y-157685771D01*
X194202381Y-157685771D02*
X194297619Y-157733390D01*
X194297619Y-157733390D02*
X194345238Y-157781009D01*
X194345238Y-157781009D02*
X194392857Y-157876247D01*
X194392857Y-157876247D02*
X194392857Y-158114342D01*
X194392857Y-158114342D02*
X194345238Y-158209580D01*
X194345238Y-158209580D02*
X194297619Y-158257200D01*
X194297619Y-158257200D02*
X194202381Y-158304819D01*
X194202381Y-158304819D02*
X193916667Y-158304819D01*
X193916667Y-158304819D02*
X193821429Y-158257200D01*
X193821429Y-158257200D02*
X193773810Y-158209580D01*
X105880476Y-186324819D02*
X105880476Y-187039104D01*
X105880476Y-187039104D02*
X105832857Y-187181961D01*
X105832857Y-187181961D02*
X105737619Y-187277200D01*
X105737619Y-187277200D02*
X105594762Y-187324819D01*
X105594762Y-187324819D02*
X105499524Y-187324819D01*
X106404286Y-187324819D02*
X106594762Y-187324819D01*
X106594762Y-187324819D02*
X106690000Y-187277200D01*
X106690000Y-187277200D02*
X106737619Y-187229580D01*
X106737619Y-187229580D02*
X106832857Y-187086723D01*
X106832857Y-187086723D02*
X106880476Y-186896247D01*
X106880476Y-186896247D02*
X106880476Y-186515295D01*
X106880476Y-186515295D02*
X106832857Y-186420057D01*
X106832857Y-186420057D02*
X106785238Y-186372438D01*
X106785238Y-186372438D02*
X106690000Y-186324819D01*
X106690000Y-186324819D02*
X106499524Y-186324819D01*
X106499524Y-186324819D02*
X106404286Y-186372438D01*
X106404286Y-186372438D02*
X106356667Y-186420057D01*
X106356667Y-186420057D02*
X106309048Y-186515295D01*
X106309048Y-186515295D02*
X106309048Y-186753390D01*
X106309048Y-186753390D02*
X106356667Y-186848628D01*
X106356667Y-186848628D02*
X106404286Y-186896247D01*
X106404286Y-186896247D02*
X106499524Y-186943866D01*
X106499524Y-186943866D02*
X106690000Y-186943866D01*
X106690000Y-186943866D02*
X106785238Y-186896247D01*
X106785238Y-186896247D02*
X106832857Y-186848628D01*
X106832857Y-186848628D02*
X106880476Y-186753390D01*
X107832857Y-187324819D02*
X107261429Y-187324819D01*
X107547143Y-187324819D02*
X107547143Y-186324819D01*
X107547143Y-186324819D02*
X107451905Y-186467676D01*
X107451905Y-186467676D02*
X107356667Y-186562914D01*
X107356667Y-186562914D02*
X107261429Y-186610533D01*
X199440476Y-51334819D02*
X199440476Y-52049104D01*
X199440476Y-52049104D02*
X199392857Y-52191961D01*
X199392857Y-52191961D02*
X199297619Y-52287200D01*
X199297619Y-52287200D02*
X199154762Y-52334819D01*
X199154762Y-52334819D02*
X199059524Y-52334819D01*
X200345238Y-51668152D02*
X200345238Y-52334819D01*
X200107143Y-51287200D02*
X199869048Y-52001485D01*
X199869048Y-52001485D02*
X200488095Y-52001485D01*
X200821429Y-51430057D02*
X200869048Y-51382438D01*
X200869048Y-51382438D02*
X200964286Y-51334819D01*
X200964286Y-51334819D02*
X201202381Y-51334819D01*
X201202381Y-51334819D02*
X201297619Y-51382438D01*
X201297619Y-51382438D02*
X201345238Y-51430057D01*
X201345238Y-51430057D02*
X201392857Y-51525295D01*
X201392857Y-51525295D02*
X201392857Y-51620533D01*
X201392857Y-51620533D02*
X201345238Y-51763390D01*
X201345238Y-51763390D02*
X200773810Y-52334819D01*
X200773810Y-52334819D02*
X201392857Y-52334819D01*
X102944761Y-175860057D02*
X102849523Y-175812438D01*
X102849523Y-175812438D02*
X102754285Y-175717200D01*
X102754285Y-175717200D02*
X102611428Y-175574342D01*
X102611428Y-175574342D02*
X102516190Y-175526723D01*
X102516190Y-175526723D02*
X102420952Y-175526723D01*
X102468571Y-175764819D02*
X102373333Y-175717200D01*
X102373333Y-175717200D02*
X102278095Y-175621961D01*
X102278095Y-175621961D02*
X102230476Y-175431485D01*
X102230476Y-175431485D02*
X102230476Y-175098152D01*
X102230476Y-175098152D02*
X102278095Y-174907676D01*
X102278095Y-174907676D02*
X102373333Y-174812438D01*
X102373333Y-174812438D02*
X102468571Y-174764819D01*
X102468571Y-174764819D02*
X102659047Y-174764819D01*
X102659047Y-174764819D02*
X102754285Y-174812438D01*
X102754285Y-174812438D02*
X102849523Y-174907676D01*
X102849523Y-174907676D02*
X102897142Y-175098152D01*
X102897142Y-175098152D02*
X102897142Y-175431485D01*
X102897142Y-175431485D02*
X102849523Y-175621961D01*
X102849523Y-175621961D02*
X102754285Y-175717200D01*
X102754285Y-175717200D02*
X102659047Y-175764819D01*
X102659047Y-175764819D02*
X102468571Y-175764819D01*
X103849523Y-175764819D02*
X103278095Y-175764819D01*
X103563809Y-175764819D02*
X103563809Y-174764819D01*
X103563809Y-174764819D02*
X103468571Y-174907676D01*
X103468571Y-174907676D02*
X103373333Y-175002914D01*
X103373333Y-175002914D02*
X103278095Y-175050533D01*
X192690476Y-51334819D02*
X192690476Y-52049104D01*
X192690476Y-52049104D02*
X192642857Y-52191961D01*
X192642857Y-52191961D02*
X192547619Y-52287200D01*
X192547619Y-52287200D02*
X192404762Y-52334819D01*
X192404762Y-52334819D02*
X192309524Y-52334819D01*
X193595238Y-51668152D02*
X193595238Y-52334819D01*
X193357143Y-51287200D02*
X193119048Y-52001485D01*
X193119048Y-52001485D02*
X193738095Y-52001485D01*
X194642857Y-52334819D02*
X194071429Y-52334819D01*
X194357143Y-52334819D02*
X194357143Y-51334819D01*
X194357143Y-51334819D02*
X194261905Y-51477676D01*
X194261905Y-51477676D02*
X194166667Y-51572914D01*
X194166667Y-51572914D02*
X194071429Y-51620533D01*
X199190476Y-157304819D02*
X199190476Y-158019104D01*
X199190476Y-158019104D02*
X199142857Y-158161961D01*
X199142857Y-158161961D02*
X199047619Y-158257200D01*
X199047619Y-158257200D02*
X198904762Y-158304819D01*
X198904762Y-158304819D02*
X198809524Y-158304819D01*
X200095238Y-157638152D02*
X200095238Y-158304819D01*
X199857143Y-157257200D02*
X199619048Y-157971485D01*
X199619048Y-157971485D02*
X200238095Y-157971485D01*
X201047619Y-157638152D02*
X201047619Y-158304819D01*
X200809524Y-157257200D02*
X200571429Y-157971485D01*
X200571429Y-157971485D02*
X201190476Y-157971485D01*
X212738095Y-4754819D02*
X212738095Y-3754819D01*
X212738095Y-4231009D02*
X213309523Y-4231009D01*
X213309523Y-4754819D02*
X213309523Y-3754819D01*
X214309523Y-4754819D02*
X213738095Y-4754819D01*
X214023809Y-4754819D02*
X214023809Y-3754819D01*
X214023809Y-3754819D02*
X213928571Y-3897676D01*
X213928571Y-3897676D02*
X213833333Y-3992914D01*
X213833333Y-3992914D02*
X213738095Y-4040533D01*
X193920476Y-187074819D02*
X193920476Y-187789104D01*
X193920476Y-187789104D02*
X193872857Y-187931961D01*
X193872857Y-187931961D02*
X193777619Y-188027200D01*
X193777619Y-188027200D02*
X193634762Y-188074819D01*
X193634762Y-188074819D02*
X193539524Y-188074819D01*
X194349048Y-187170057D02*
X194396667Y-187122438D01*
X194396667Y-187122438D02*
X194491905Y-187074819D01*
X194491905Y-187074819D02*
X194730000Y-187074819D01*
X194730000Y-187074819D02*
X194825238Y-187122438D01*
X194825238Y-187122438D02*
X194872857Y-187170057D01*
X194872857Y-187170057D02*
X194920476Y-187265295D01*
X194920476Y-187265295D02*
X194920476Y-187360533D01*
X194920476Y-187360533D02*
X194872857Y-187503390D01*
X194872857Y-187503390D02*
X194301429Y-188074819D01*
X194301429Y-188074819D02*
X194920476Y-188074819D01*
X195872857Y-188074819D02*
X195301429Y-188074819D01*
X195587143Y-188074819D02*
X195587143Y-187074819D01*
X195587143Y-187074819D02*
X195491905Y-187217676D01*
X195491905Y-187217676D02*
X195396667Y-187312914D01*
X195396667Y-187312914D02*
X195301429Y-187360533D01*
X212738095Y-196754819D02*
X212738095Y-195754819D01*
X212738095Y-196231009D02*
X213309523Y-196231009D01*
X213309523Y-196754819D02*
X213309523Y-195754819D01*
X214214285Y-196088152D02*
X214214285Y-196754819D01*
X213976190Y-195707200D02*
X213738095Y-196421485D01*
X213738095Y-196421485D02*
X214357142Y-196421485D01*
X102420476Y-20834819D02*
X102420476Y-21549104D01*
X102420476Y-21549104D02*
X102372857Y-21691961D01*
X102372857Y-21691961D02*
X102277619Y-21787200D01*
X102277619Y-21787200D02*
X102134762Y-21834819D01*
X102134762Y-21834819D02*
X102039524Y-21834819D01*
X102801429Y-20834819D02*
X103420476Y-20834819D01*
X103420476Y-20834819D02*
X103087143Y-21215771D01*
X103087143Y-21215771D02*
X103230000Y-21215771D01*
X103230000Y-21215771D02*
X103325238Y-21263390D01*
X103325238Y-21263390D02*
X103372857Y-21311009D01*
X103372857Y-21311009D02*
X103420476Y-21406247D01*
X103420476Y-21406247D02*
X103420476Y-21644342D01*
X103420476Y-21644342D02*
X103372857Y-21739580D01*
X103372857Y-21739580D02*
X103325238Y-21787200D01*
X103325238Y-21787200D02*
X103230000Y-21834819D01*
X103230000Y-21834819D02*
X102944286Y-21834819D01*
X102944286Y-21834819D02*
X102849048Y-21787200D01*
X102849048Y-21787200D02*
X102801429Y-21739580D01*
X104039524Y-20834819D02*
X104134762Y-20834819D01*
X104134762Y-20834819D02*
X104230000Y-20882438D01*
X104230000Y-20882438D02*
X104277619Y-20930057D01*
X104277619Y-20930057D02*
X104325238Y-21025295D01*
X104325238Y-21025295D02*
X104372857Y-21215771D01*
X104372857Y-21215771D02*
X104372857Y-21453866D01*
X104372857Y-21453866D02*
X104325238Y-21644342D01*
X104325238Y-21644342D02*
X104277619Y-21739580D01*
X104277619Y-21739580D02*
X104230000Y-21787200D01*
X104230000Y-21787200D02*
X104134762Y-21834819D01*
X104134762Y-21834819D02*
X104039524Y-21834819D01*
X104039524Y-21834819D02*
X103944286Y-21787200D01*
X103944286Y-21787200D02*
X103896667Y-21739580D01*
X103896667Y-21739580D02*
X103849048Y-21644342D01*
X103849048Y-21644342D02*
X103801429Y-21453866D01*
X103801429Y-21453866D02*
X103801429Y-21215771D01*
X103801429Y-21215771D02*
X103849048Y-21025295D01*
X103849048Y-21025295D02*
X103896667Y-20930057D01*
X103896667Y-20930057D02*
X103944286Y-20882438D01*
X103944286Y-20882438D02*
X104039524Y-20834819D01*
D10*
X42290080Y-105104405D02*
X43290080Y-105104405D01*
X43290080Y-105104405D02*
X43290080Y-105485357D01*
X43290080Y-105485357D02*
X43242461Y-105580595D01*
X43242461Y-105580595D02*
X43194842Y-105628214D01*
X43194842Y-105628214D02*
X43099604Y-105675833D01*
X43099604Y-105675833D02*
X42956747Y-105675833D01*
X42956747Y-105675833D02*
X42861509Y-105628214D01*
X42861509Y-105628214D02*
X42813890Y-105580595D01*
X42813890Y-105580595D02*
X42766271Y-105485357D01*
X42766271Y-105485357D02*
X42766271Y-105104405D01*
X42385319Y-106675833D02*
X42337700Y-106628214D01*
X42337700Y-106628214D02*
X42290080Y-106485357D01*
X42290080Y-106485357D02*
X42290080Y-106390119D01*
X42290080Y-106390119D02*
X42337700Y-106247262D01*
X42337700Y-106247262D02*
X42432938Y-106152024D01*
X42432938Y-106152024D02*
X42528176Y-106104405D01*
X42528176Y-106104405D02*
X42718652Y-106056786D01*
X42718652Y-106056786D02*
X42861509Y-106056786D01*
X42861509Y-106056786D02*
X43051985Y-106104405D01*
X43051985Y-106104405D02*
X43147223Y-106152024D01*
X43147223Y-106152024D02*
X43242461Y-106247262D01*
X43242461Y-106247262D02*
X43290080Y-106390119D01*
X43290080Y-106390119D02*
X43290080Y-106485357D01*
X43290080Y-106485357D02*
X43242461Y-106628214D01*
X43242461Y-106628214D02*
X43194842Y-106675833D01*
X42813890Y-107437738D02*
X42766271Y-107580595D01*
X42766271Y-107580595D02*
X42718652Y-107628214D01*
X42718652Y-107628214D02*
X42623414Y-107675833D01*
X42623414Y-107675833D02*
X42480557Y-107675833D01*
X42480557Y-107675833D02*
X42385319Y-107628214D01*
X42385319Y-107628214D02*
X42337700Y-107580595D01*
X42337700Y-107580595D02*
X42290080Y-107485357D01*
X42290080Y-107485357D02*
X42290080Y-107104405D01*
X42290080Y-107104405D02*
X43290080Y-107104405D01*
X43290080Y-107104405D02*
X43290080Y-107437738D01*
X43290080Y-107437738D02*
X43242461Y-107532976D01*
X43242461Y-107532976D02*
X43194842Y-107580595D01*
X43194842Y-107580595D02*
X43099604Y-107628214D01*
X43099604Y-107628214D02*
X43004366Y-107628214D01*
X43004366Y-107628214D02*
X42909128Y-107580595D01*
X42909128Y-107580595D02*
X42861509Y-107532976D01*
X42861509Y-107532976D02*
X42813890Y-107437738D01*
X42813890Y-107437738D02*
X42813890Y-107104405D01*
X42290080Y-108628214D02*
X42290080Y-108056786D01*
X42290080Y-108342500D02*
X43290080Y-108342500D01*
X43290080Y-108342500D02*
X43147223Y-108247262D01*
X43147223Y-108247262D02*
X43051985Y-108152024D01*
X43051985Y-108152024D02*
X43004366Y-108056786D01*
D11*
X179590476Y-31084819D02*
X179590476Y-31799104D01*
X179590476Y-31799104D02*
X179542857Y-31941961D01*
X179542857Y-31941961D02*
X179447619Y-32037200D01*
X179447619Y-32037200D02*
X179304762Y-32084819D01*
X179304762Y-32084819D02*
X179209524Y-32084819D01*
X180590476Y-32084819D02*
X180019048Y-32084819D01*
X180304762Y-32084819D02*
X180304762Y-31084819D01*
X180304762Y-31084819D02*
X180209524Y-31227676D01*
X180209524Y-31227676D02*
X180114286Y-31322914D01*
X180114286Y-31322914D02*
X180019048Y-31370533D01*
X181542857Y-32084819D02*
X180971429Y-32084819D01*
X181257143Y-32084819D02*
X181257143Y-31084819D01*
X181257143Y-31084819D02*
X181161905Y-31227676D01*
X181161905Y-31227676D02*
X181066667Y-31322914D01*
X181066667Y-31322914D02*
X180971429Y-31370533D01*
X210641905Y-134174819D02*
X210641905Y-133174819D01*
X210641905Y-133174819D02*
X210880000Y-133174819D01*
X210880000Y-133174819D02*
X211022857Y-133222438D01*
X211022857Y-133222438D02*
X211118095Y-133317676D01*
X211118095Y-133317676D02*
X211165714Y-133412914D01*
X211165714Y-133412914D02*
X211213333Y-133603390D01*
X211213333Y-133603390D02*
X211213333Y-133746247D01*
X211213333Y-133746247D02*
X211165714Y-133936723D01*
X211165714Y-133936723D02*
X211118095Y-134031961D01*
X211118095Y-134031961D02*
X211022857Y-134127200D01*
X211022857Y-134127200D02*
X210880000Y-134174819D01*
X210880000Y-134174819D02*
X210641905Y-134174819D01*
X211594286Y-133270057D02*
X211641905Y-133222438D01*
X211641905Y-133222438D02*
X211737143Y-133174819D01*
X211737143Y-133174819D02*
X211975238Y-133174819D01*
X211975238Y-133174819D02*
X212070476Y-133222438D01*
X212070476Y-133222438D02*
X212118095Y-133270057D01*
X212118095Y-133270057D02*
X212165714Y-133365295D01*
X212165714Y-133365295D02*
X212165714Y-133460533D01*
X212165714Y-133460533D02*
X212118095Y-133603390D01*
X212118095Y-133603390D02*
X211546667Y-134174819D01*
X211546667Y-134174819D02*
X212165714Y-134174819D01*
X218738095Y-133054819D02*
X218738095Y-132054819D01*
X219309523Y-133054819D02*
X218880952Y-132483390D01*
X219309523Y-132054819D02*
X218738095Y-132626247D01*
X57701009Y-181030952D02*
X57748628Y-180888095D01*
X57748628Y-180888095D02*
X57796247Y-180840476D01*
X57796247Y-180840476D02*
X57891485Y-180792857D01*
X57891485Y-180792857D02*
X58034342Y-180792857D01*
X58034342Y-180792857D02*
X58129580Y-180840476D01*
X58129580Y-180840476D02*
X58177200Y-180888095D01*
X58177200Y-180888095D02*
X58224819Y-180983333D01*
X58224819Y-180983333D02*
X58224819Y-181364285D01*
X58224819Y-181364285D02*
X57224819Y-181364285D01*
X57224819Y-181364285D02*
X57224819Y-181030952D01*
X57224819Y-181030952D02*
X57272438Y-180935714D01*
X57272438Y-180935714D02*
X57320057Y-180888095D01*
X57320057Y-180888095D02*
X57415295Y-180840476D01*
X57415295Y-180840476D02*
X57510533Y-180840476D01*
X57510533Y-180840476D02*
X57605771Y-180888095D01*
X57605771Y-180888095D02*
X57653390Y-180935714D01*
X57653390Y-180935714D02*
X57701009Y-181030952D01*
X57701009Y-181030952D02*
X57701009Y-181364285D01*
X57224819Y-180459523D02*
X57224819Y-179792857D01*
X57224819Y-179792857D02*
X58224819Y-180459523D01*
X58224819Y-180459523D02*
X58224819Y-179792857D01*
X58224819Y-178888095D02*
X58224819Y-179459523D01*
X58224819Y-179173809D02*
X57224819Y-179173809D01*
X57224819Y-179173809D02*
X57367676Y-179269047D01*
X57367676Y-179269047D02*
X57462914Y-179364285D01*
X57462914Y-179364285D02*
X57510533Y-179459523D01*
X141336667Y-32457200D02*
X141479524Y-32504819D01*
X141479524Y-32504819D02*
X141717619Y-32504819D01*
X141717619Y-32504819D02*
X141812857Y-32457200D01*
X141812857Y-32457200D02*
X141860476Y-32409580D01*
X141860476Y-32409580D02*
X141908095Y-32314342D01*
X141908095Y-32314342D02*
X141908095Y-32219104D01*
X141908095Y-32219104D02*
X141860476Y-32123866D01*
X141860476Y-32123866D02*
X141812857Y-32076247D01*
X141812857Y-32076247D02*
X141717619Y-32028628D01*
X141717619Y-32028628D02*
X141527143Y-31981009D01*
X141527143Y-31981009D02*
X141431905Y-31933390D01*
X141431905Y-31933390D02*
X141384286Y-31885771D01*
X141384286Y-31885771D02*
X141336667Y-31790533D01*
X141336667Y-31790533D02*
X141336667Y-31695295D01*
X141336667Y-31695295D02*
X141384286Y-31600057D01*
X141384286Y-31600057D02*
X141431905Y-31552438D01*
X141431905Y-31552438D02*
X141527143Y-31504819D01*
X141527143Y-31504819D02*
X141765238Y-31504819D01*
X141765238Y-31504819D02*
X141908095Y-31552438D01*
X142241429Y-31504819D02*
X142479524Y-32504819D01*
X142479524Y-32504819D02*
X142670000Y-31790533D01*
X142670000Y-31790533D02*
X142860476Y-32504819D01*
X142860476Y-32504819D02*
X143098572Y-31504819D01*
X144003333Y-32504819D02*
X143431905Y-32504819D01*
X143717619Y-32504819D02*
X143717619Y-31504819D01*
X143717619Y-31504819D02*
X143622381Y-31647676D01*
X143622381Y-31647676D02*
X143527143Y-31742914D01*
X143527143Y-31742914D02*
X143431905Y-31790533D01*
X124496667Y-180857200D02*
X124639524Y-180904819D01*
X124639524Y-180904819D02*
X124877619Y-180904819D01*
X124877619Y-180904819D02*
X124972857Y-180857200D01*
X124972857Y-180857200D02*
X125020476Y-180809580D01*
X125020476Y-180809580D02*
X125068095Y-180714342D01*
X125068095Y-180714342D02*
X125068095Y-180619104D01*
X125068095Y-180619104D02*
X125020476Y-180523866D01*
X125020476Y-180523866D02*
X124972857Y-180476247D01*
X124972857Y-180476247D02*
X124877619Y-180428628D01*
X124877619Y-180428628D02*
X124687143Y-180381009D01*
X124687143Y-180381009D02*
X124591905Y-180333390D01*
X124591905Y-180333390D02*
X124544286Y-180285771D01*
X124544286Y-180285771D02*
X124496667Y-180190533D01*
X124496667Y-180190533D02*
X124496667Y-180095295D01*
X124496667Y-180095295D02*
X124544286Y-180000057D01*
X124544286Y-180000057D02*
X124591905Y-179952438D01*
X124591905Y-179952438D02*
X124687143Y-179904819D01*
X124687143Y-179904819D02*
X124925238Y-179904819D01*
X124925238Y-179904819D02*
X125068095Y-179952438D01*
X125401429Y-179904819D02*
X125639524Y-180904819D01*
X125639524Y-180904819D02*
X125830000Y-180190533D01*
X125830000Y-180190533D02*
X126020476Y-180904819D01*
X126020476Y-180904819D02*
X126258572Y-179904819D01*
X126591905Y-180000057D02*
X126639524Y-179952438D01*
X126639524Y-179952438D02*
X126734762Y-179904819D01*
X126734762Y-179904819D02*
X126972857Y-179904819D01*
X126972857Y-179904819D02*
X127068095Y-179952438D01*
X127068095Y-179952438D02*
X127115714Y-180000057D01*
X127115714Y-180000057D02*
X127163333Y-180095295D01*
X127163333Y-180095295D02*
X127163333Y-180190533D01*
X127163333Y-180190533D02*
X127115714Y-180333390D01*
X127115714Y-180333390D02*
X126544286Y-180904819D01*
X126544286Y-180904819D02*
X127163333Y-180904819D01*
X58944285Y-20834819D02*
X58944285Y-21549104D01*
X58944285Y-21549104D02*
X58896666Y-21691961D01*
X58896666Y-21691961D02*
X58801428Y-21787200D01*
X58801428Y-21787200D02*
X58658571Y-21834819D01*
X58658571Y-21834819D02*
X58563333Y-21834819D01*
X59944285Y-21834819D02*
X59372857Y-21834819D01*
X59658571Y-21834819D02*
X59658571Y-20834819D01*
X59658571Y-20834819D02*
X59563333Y-20977676D01*
X59563333Y-20977676D02*
X59468095Y-21072914D01*
X59468095Y-21072914D02*
X59372857Y-21120533D01*
X60563333Y-20834819D02*
X60658571Y-20834819D01*
X60658571Y-20834819D02*
X60753809Y-20882438D01*
X60753809Y-20882438D02*
X60801428Y-20930057D01*
X60801428Y-20930057D02*
X60849047Y-21025295D01*
X60849047Y-21025295D02*
X60896666Y-21215771D01*
X60896666Y-21215771D02*
X60896666Y-21453866D01*
X60896666Y-21453866D02*
X60849047Y-21644342D01*
X60849047Y-21644342D02*
X60801428Y-21739580D01*
X60801428Y-21739580D02*
X60753809Y-21787200D01*
X60753809Y-21787200D02*
X60658571Y-21834819D01*
X60658571Y-21834819D02*
X60563333Y-21834819D01*
X60563333Y-21834819D02*
X60468095Y-21787200D01*
X60468095Y-21787200D02*
X60420476Y-21739580D01*
X60420476Y-21739580D02*
X60372857Y-21644342D01*
X60372857Y-21644342D02*
X60325238Y-21453866D01*
X60325238Y-21453866D02*
X60325238Y-21215771D01*
X60325238Y-21215771D02*
X60372857Y-21025295D01*
X60372857Y-21025295D02*
X60420476Y-20930057D01*
X60420476Y-20930057D02*
X60468095Y-20882438D01*
X60468095Y-20882438D02*
X60563333Y-20834819D01*
X61849047Y-21834819D02*
X61277619Y-21834819D01*
X61563333Y-21834819D02*
X61563333Y-20834819D01*
X61563333Y-20834819D02*
X61468095Y-20977676D01*
X61468095Y-20977676D02*
X61372857Y-21072914D01*
X61372857Y-21072914D02*
X61277619Y-21120533D01*
X179790476Y-41334819D02*
X179790476Y-42049104D01*
X179790476Y-42049104D02*
X179742857Y-42191961D01*
X179742857Y-42191961D02*
X179647619Y-42287200D01*
X179647619Y-42287200D02*
X179504762Y-42334819D01*
X179504762Y-42334819D02*
X179409524Y-42334819D01*
X180790476Y-42334819D02*
X180219048Y-42334819D01*
X180504762Y-42334819D02*
X180504762Y-41334819D01*
X180504762Y-41334819D02*
X180409524Y-41477676D01*
X180409524Y-41477676D02*
X180314286Y-41572914D01*
X180314286Y-41572914D02*
X180219048Y-41620533D01*
X181123810Y-41334819D02*
X181742857Y-41334819D01*
X181742857Y-41334819D02*
X181409524Y-41715771D01*
X181409524Y-41715771D02*
X181552381Y-41715771D01*
X181552381Y-41715771D02*
X181647619Y-41763390D01*
X181647619Y-41763390D02*
X181695238Y-41811009D01*
X181695238Y-41811009D02*
X181742857Y-41906247D01*
X181742857Y-41906247D02*
X181742857Y-42144342D01*
X181742857Y-42144342D02*
X181695238Y-42239580D01*
X181695238Y-42239580D02*
X181647619Y-42287200D01*
X181647619Y-42287200D02*
X181552381Y-42334819D01*
X181552381Y-42334819D02*
X181266667Y-42334819D01*
X181266667Y-42334819D02*
X181171429Y-42287200D01*
X181171429Y-42287200D02*
X181123810Y-42239580D01*
D10*
X224917580Y-102431905D02*
X225917580Y-102431905D01*
X225917580Y-102431905D02*
X225917580Y-102812857D01*
X225917580Y-102812857D02*
X225869961Y-102908095D01*
X225869961Y-102908095D02*
X225822342Y-102955714D01*
X225822342Y-102955714D02*
X225727104Y-103003333D01*
X225727104Y-103003333D02*
X225584247Y-103003333D01*
X225584247Y-103003333D02*
X225489009Y-102955714D01*
X225489009Y-102955714D02*
X225441390Y-102908095D01*
X225441390Y-102908095D02*
X225393771Y-102812857D01*
X225393771Y-102812857D02*
X225393771Y-102431905D01*
X225012819Y-104003333D02*
X224965200Y-103955714D01*
X224965200Y-103955714D02*
X224917580Y-103812857D01*
X224917580Y-103812857D02*
X224917580Y-103717619D01*
X224917580Y-103717619D02*
X224965200Y-103574762D01*
X224965200Y-103574762D02*
X225060438Y-103479524D01*
X225060438Y-103479524D02*
X225155676Y-103431905D01*
X225155676Y-103431905D02*
X225346152Y-103384286D01*
X225346152Y-103384286D02*
X225489009Y-103384286D01*
X225489009Y-103384286D02*
X225679485Y-103431905D01*
X225679485Y-103431905D02*
X225774723Y-103479524D01*
X225774723Y-103479524D02*
X225869961Y-103574762D01*
X225869961Y-103574762D02*
X225917580Y-103717619D01*
X225917580Y-103717619D02*
X225917580Y-103812857D01*
X225917580Y-103812857D02*
X225869961Y-103955714D01*
X225869961Y-103955714D02*
X225822342Y-104003333D01*
X225441390Y-104765238D02*
X225393771Y-104908095D01*
X225393771Y-104908095D02*
X225346152Y-104955714D01*
X225346152Y-104955714D02*
X225250914Y-105003333D01*
X225250914Y-105003333D02*
X225108057Y-105003333D01*
X225108057Y-105003333D02*
X225012819Y-104955714D01*
X225012819Y-104955714D02*
X224965200Y-104908095D01*
X224965200Y-104908095D02*
X224917580Y-104812857D01*
X224917580Y-104812857D02*
X224917580Y-104431905D01*
X224917580Y-104431905D02*
X225917580Y-104431905D01*
X225917580Y-104431905D02*
X225917580Y-104765238D01*
X225917580Y-104765238D02*
X225869961Y-104860476D01*
X225869961Y-104860476D02*
X225822342Y-104908095D01*
X225822342Y-104908095D02*
X225727104Y-104955714D01*
X225727104Y-104955714D02*
X225631866Y-104955714D01*
X225631866Y-104955714D02*
X225536628Y-104908095D01*
X225536628Y-104908095D02*
X225489009Y-104860476D01*
X225489009Y-104860476D02*
X225441390Y-104765238D01*
X225441390Y-104765238D02*
X225441390Y-104431905D01*
X225822342Y-105384286D02*
X225869961Y-105431905D01*
X225869961Y-105431905D02*
X225917580Y-105527143D01*
X225917580Y-105527143D02*
X225917580Y-105765238D01*
X225917580Y-105765238D02*
X225869961Y-105860476D01*
X225869961Y-105860476D02*
X225822342Y-105908095D01*
X225822342Y-105908095D02*
X225727104Y-105955714D01*
X225727104Y-105955714D02*
X225631866Y-105955714D01*
X225631866Y-105955714D02*
X225489009Y-105908095D01*
X225489009Y-105908095D02*
X224917580Y-105336667D01*
X224917580Y-105336667D02*
X224917580Y-105955714D01*
D11*
X46738095Y-4754819D02*
X46738095Y-3754819D01*
X46738095Y-4231009D02*
X47309523Y-4231009D01*
X47309523Y-4754819D02*
X47309523Y-3754819D01*
X47738095Y-3850057D02*
X47785714Y-3802438D01*
X47785714Y-3802438D02*
X47880952Y-3754819D01*
X47880952Y-3754819D02*
X48119047Y-3754819D01*
X48119047Y-3754819D02*
X48214285Y-3802438D01*
X48214285Y-3802438D02*
X48261904Y-3850057D01*
X48261904Y-3850057D02*
X48309523Y-3945295D01*
X48309523Y-3945295D02*
X48309523Y-4040533D01*
X48309523Y-4040533D02*
X48261904Y-4183390D01*
X48261904Y-4183390D02*
X47690476Y-4754819D01*
X47690476Y-4754819D02*
X48309523Y-4754819D01*
X46738095Y-196754819D02*
X46738095Y-195754819D01*
X46738095Y-196231009D02*
X47309523Y-196231009D01*
X47309523Y-196754819D02*
X47309523Y-195754819D01*
X47690476Y-195754819D02*
X48309523Y-195754819D01*
X48309523Y-195754819D02*
X47976190Y-196135771D01*
X47976190Y-196135771D02*
X48119047Y-196135771D01*
X48119047Y-196135771D02*
X48214285Y-196183390D01*
X48214285Y-196183390D02*
X48261904Y-196231009D01*
X48261904Y-196231009D02*
X48309523Y-196326247D01*
X48309523Y-196326247D02*
X48309523Y-196564342D01*
X48309523Y-196564342D02*
X48261904Y-196659580D01*
X48261904Y-196659580D02*
X48214285Y-196707200D01*
X48214285Y-196707200D02*
X48119047Y-196754819D01*
X48119047Y-196754819D02*
X47833333Y-196754819D01*
X47833333Y-196754819D02*
X47738095Y-196707200D01*
X47738095Y-196707200D02*
X47690476Y-196659580D01*
X179630476Y-21084819D02*
X179630476Y-21799104D01*
X179630476Y-21799104D02*
X179582857Y-21941961D01*
X179582857Y-21941961D02*
X179487619Y-22037200D01*
X179487619Y-22037200D02*
X179344762Y-22084819D01*
X179344762Y-22084819D02*
X179249524Y-22084819D01*
X180630476Y-22084819D02*
X180059048Y-22084819D01*
X180344762Y-22084819D02*
X180344762Y-21084819D01*
X180344762Y-21084819D02*
X180249524Y-21227676D01*
X180249524Y-21227676D02*
X180154286Y-21322914D01*
X180154286Y-21322914D02*
X180059048Y-21370533D01*
X181011429Y-21180057D02*
X181059048Y-21132438D01*
X181059048Y-21132438D02*
X181154286Y-21084819D01*
X181154286Y-21084819D02*
X181392381Y-21084819D01*
X181392381Y-21084819D02*
X181487619Y-21132438D01*
X181487619Y-21132438D02*
X181535238Y-21180057D01*
X181535238Y-21180057D02*
X181582857Y-21275295D01*
X181582857Y-21275295D02*
X181582857Y-21370533D01*
X181582857Y-21370533D02*
X181535238Y-21513390D01*
X181535238Y-21513390D02*
X180963810Y-22084819D01*
X180963810Y-22084819D02*
X181582857Y-22084819D01*
X82490057Y-178155238D02*
X82442438Y-178250476D01*
X82442438Y-178250476D02*
X82347200Y-178345714D01*
X82347200Y-178345714D02*
X82204342Y-178488571D01*
X82204342Y-178488571D02*
X82156723Y-178583809D01*
X82156723Y-178583809D02*
X82156723Y-178679047D01*
X82394819Y-178631428D02*
X82347200Y-178726666D01*
X82347200Y-178726666D02*
X82251961Y-178821904D01*
X82251961Y-178821904D02*
X82061485Y-178869523D01*
X82061485Y-178869523D02*
X81728152Y-178869523D01*
X81728152Y-178869523D02*
X81537676Y-178821904D01*
X81537676Y-178821904D02*
X81442438Y-178726666D01*
X81442438Y-178726666D02*
X81394819Y-178631428D01*
X81394819Y-178631428D02*
X81394819Y-178440952D01*
X81394819Y-178440952D02*
X81442438Y-178345714D01*
X81442438Y-178345714D02*
X81537676Y-178250476D01*
X81537676Y-178250476D02*
X81728152Y-178202857D01*
X81728152Y-178202857D02*
X82061485Y-178202857D01*
X82061485Y-178202857D02*
X82251961Y-178250476D01*
X82251961Y-178250476D02*
X82347200Y-178345714D01*
X82347200Y-178345714D02*
X82394819Y-178440952D01*
X82394819Y-178440952D02*
X82394819Y-178631428D01*
X81394819Y-177869523D02*
X81394819Y-177250476D01*
X81394819Y-177250476D02*
X81775771Y-177583809D01*
X81775771Y-177583809D02*
X81775771Y-177440952D01*
X81775771Y-177440952D02*
X81823390Y-177345714D01*
X81823390Y-177345714D02*
X81871009Y-177298095D01*
X81871009Y-177298095D02*
X81966247Y-177250476D01*
X81966247Y-177250476D02*
X82204342Y-177250476D01*
X82204342Y-177250476D02*
X82299580Y-177298095D01*
X82299580Y-177298095D02*
X82347200Y-177345714D01*
X82347200Y-177345714D02*
X82394819Y-177440952D01*
X82394819Y-177440952D02*
X82394819Y-177726666D01*
X82394819Y-177726666D02*
X82347200Y-177821904D01*
X82347200Y-177821904D02*
X82299580Y-177869523D01*
X183697819Y-68732904D02*
X184507342Y-68732904D01*
X184507342Y-68732904D02*
X184602580Y-68685285D01*
X184602580Y-68685285D02*
X184650200Y-68637666D01*
X184650200Y-68637666D02*
X184697819Y-68542428D01*
X184697819Y-68542428D02*
X184697819Y-68351952D01*
X184697819Y-68351952D02*
X184650200Y-68256714D01*
X184650200Y-68256714D02*
X184602580Y-68209095D01*
X184602580Y-68209095D02*
X184507342Y-68161476D01*
X184507342Y-68161476D02*
X183697819Y-68161476D01*
X184697819Y-67161476D02*
X184697819Y-67732904D01*
X184697819Y-67447190D02*
X183697819Y-67447190D01*
X183697819Y-67447190D02*
X183840676Y-67542428D01*
X183840676Y-67542428D02*
X183935914Y-67637666D01*
X183935914Y-67637666D02*
X183983533Y-67732904D01*
X174426819Y-69701333D02*
X175141104Y-69701333D01*
X175141104Y-69701333D02*
X175283961Y-69748952D01*
X175283961Y-69748952D02*
X175379200Y-69844190D01*
X175379200Y-69844190D02*
X175426819Y-69987047D01*
X175426819Y-69987047D02*
X175426819Y-70082285D01*
X174522057Y-69272761D02*
X174474438Y-69225142D01*
X174474438Y-69225142D02*
X174426819Y-69129904D01*
X174426819Y-69129904D02*
X174426819Y-68891809D01*
X174426819Y-68891809D02*
X174474438Y-68796571D01*
X174474438Y-68796571D02*
X174522057Y-68748952D01*
X174522057Y-68748952D02*
X174617295Y-68701333D01*
X174617295Y-68701333D02*
X174712533Y-68701333D01*
X174712533Y-68701333D02*
X174855390Y-68748952D01*
X174855390Y-68748952D02*
X175426819Y-69320380D01*
X175426819Y-69320380D02*
X175426819Y-68701333D01*
X136072819Y-113357523D02*
X136787104Y-113357523D01*
X136787104Y-113357523D02*
X136929961Y-113405142D01*
X136929961Y-113405142D02*
X137025200Y-113500380D01*
X137025200Y-113500380D02*
X137072819Y-113643237D01*
X137072819Y-113643237D02*
X137072819Y-113738475D01*
X137072819Y-112357523D02*
X137072819Y-112928951D01*
X137072819Y-112643237D02*
X136072819Y-112643237D01*
X136072819Y-112643237D02*
X136215676Y-112738475D01*
X136215676Y-112738475D02*
X136310914Y-112833713D01*
X136310914Y-112833713D02*
X136358533Y-112928951D01*
X136072819Y-111738475D02*
X136072819Y-111643237D01*
X136072819Y-111643237D02*
X136120438Y-111547999D01*
X136120438Y-111547999D02*
X136168057Y-111500380D01*
X136168057Y-111500380D02*
X136263295Y-111452761D01*
X136263295Y-111452761D02*
X136453771Y-111405142D01*
X136453771Y-111405142D02*
X136691866Y-111405142D01*
X136691866Y-111405142D02*
X136882342Y-111452761D01*
X136882342Y-111452761D02*
X136977580Y-111500380D01*
X136977580Y-111500380D02*
X137025200Y-111547999D01*
X137025200Y-111547999D02*
X137072819Y-111643237D01*
X137072819Y-111643237D02*
X137072819Y-111738475D01*
X137072819Y-111738475D02*
X137025200Y-111833713D01*
X137025200Y-111833713D02*
X136977580Y-111881332D01*
X136977580Y-111881332D02*
X136882342Y-111928951D01*
X136882342Y-111928951D02*
X136691866Y-111976570D01*
X136691866Y-111976570D02*
X136453771Y-111976570D01*
X136453771Y-111976570D02*
X136263295Y-111928951D01*
X136263295Y-111928951D02*
X136168057Y-111881332D01*
X136168057Y-111881332D02*
X136120438Y-111833713D01*
X136120438Y-111833713D02*
X136072819Y-111738475D01*
X152074819Y-56485047D02*
X152884342Y-56485047D01*
X152884342Y-56485047D02*
X152979580Y-56437428D01*
X152979580Y-56437428D02*
X153027200Y-56389809D01*
X153027200Y-56389809D02*
X153074819Y-56294571D01*
X153074819Y-56294571D02*
X153074819Y-56104095D01*
X153074819Y-56104095D02*
X153027200Y-56008857D01*
X153027200Y-56008857D02*
X152979580Y-55961238D01*
X152979580Y-55961238D02*
X152884342Y-55913619D01*
X152884342Y-55913619D02*
X152074819Y-55913619D01*
X153027200Y-55485047D02*
X153074819Y-55342190D01*
X153074819Y-55342190D02*
X153074819Y-55104095D01*
X153074819Y-55104095D02*
X153027200Y-55008857D01*
X153027200Y-55008857D02*
X152979580Y-54961238D01*
X152979580Y-54961238D02*
X152884342Y-54913619D01*
X152884342Y-54913619D02*
X152789104Y-54913619D01*
X152789104Y-54913619D02*
X152693866Y-54961238D01*
X152693866Y-54961238D02*
X152646247Y-55008857D01*
X152646247Y-55008857D02*
X152598628Y-55104095D01*
X152598628Y-55104095D02*
X152551009Y-55294571D01*
X152551009Y-55294571D02*
X152503390Y-55389809D01*
X152503390Y-55389809D02*
X152455771Y-55437428D01*
X152455771Y-55437428D02*
X152360533Y-55485047D01*
X152360533Y-55485047D02*
X152265295Y-55485047D01*
X152265295Y-55485047D02*
X152170057Y-55437428D01*
X152170057Y-55437428D02*
X152122438Y-55389809D01*
X152122438Y-55389809D02*
X152074819Y-55294571D01*
X152074819Y-55294571D02*
X152074819Y-55056476D01*
X152074819Y-55056476D02*
X152122438Y-54913619D01*
X152551009Y-54151714D02*
X152598628Y-54008857D01*
X152598628Y-54008857D02*
X152646247Y-53961238D01*
X152646247Y-53961238D02*
X152741485Y-53913619D01*
X152741485Y-53913619D02*
X152884342Y-53913619D01*
X152884342Y-53913619D02*
X152979580Y-53961238D01*
X152979580Y-53961238D02*
X153027200Y-54008857D01*
X153027200Y-54008857D02*
X153074819Y-54104095D01*
X153074819Y-54104095D02*
X153074819Y-54485047D01*
X153074819Y-54485047D02*
X152074819Y-54485047D01*
X152074819Y-54485047D02*
X152074819Y-54151714D01*
X152074819Y-54151714D02*
X152122438Y-54056476D01*
X152122438Y-54056476D02*
X152170057Y-54008857D01*
X152170057Y-54008857D02*
X152265295Y-53961238D01*
X152265295Y-53961238D02*
X152360533Y-53961238D01*
X152360533Y-53961238D02*
X152455771Y-54008857D01*
X152455771Y-54008857D02*
X152503390Y-54056476D01*
X152503390Y-54056476D02*
X152551009Y-54151714D01*
X152551009Y-54151714D02*
X152551009Y-54485047D01*
X152551009Y-52723142D02*
X152551009Y-52389809D01*
X153074819Y-52246952D02*
X153074819Y-52723142D01*
X153074819Y-52723142D02*
X152074819Y-52723142D01*
X152074819Y-52723142D02*
X152074819Y-52246952D01*
X153074819Y-51818380D02*
X152074819Y-51818380D01*
X152074819Y-51818380D02*
X153074819Y-51246952D01*
X153074819Y-51246952D02*
X152074819Y-51246952D01*
X153074819Y-50770761D02*
X152074819Y-50770761D01*
X152074819Y-50770761D02*
X152074819Y-50532666D01*
X152074819Y-50532666D02*
X152122438Y-50389809D01*
X152122438Y-50389809D02*
X152217676Y-50294571D01*
X152217676Y-50294571D02*
X152312914Y-50246952D01*
X152312914Y-50246952D02*
X152503390Y-50199333D01*
X152503390Y-50199333D02*
X152646247Y-50199333D01*
X152646247Y-50199333D02*
X152836723Y-50246952D01*
X152836723Y-50246952D02*
X152931961Y-50294571D01*
X152931961Y-50294571D02*
X153027200Y-50389809D01*
X153027200Y-50389809D02*
X153074819Y-50532666D01*
X153074819Y-50532666D02*
X153074819Y-50770761D01*
X174426819Y-105515333D02*
X175141104Y-105515333D01*
X175141104Y-105515333D02*
X175283961Y-105562952D01*
X175283961Y-105562952D02*
X175379200Y-105658190D01*
X175379200Y-105658190D02*
X175426819Y-105801047D01*
X175426819Y-105801047D02*
X175426819Y-105896285D01*
X175426819Y-104515333D02*
X175426819Y-105086761D01*
X175426819Y-104801047D02*
X174426819Y-104801047D01*
X174426819Y-104801047D02*
X174569676Y-104896285D01*
X174569676Y-104896285D02*
X174664914Y-104991523D01*
X174664914Y-104991523D02*
X174712533Y-105086761D01*
X136072819Y-96371333D02*
X136787104Y-96371333D01*
X136787104Y-96371333D02*
X136929961Y-96418952D01*
X136929961Y-96418952D02*
X137025200Y-96514190D01*
X137025200Y-96514190D02*
X137072819Y-96657047D01*
X137072819Y-96657047D02*
X137072819Y-96752285D01*
X137072819Y-95847523D02*
X137072819Y-95657047D01*
X137072819Y-95657047D02*
X137025200Y-95561809D01*
X137025200Y-95561809D02*
X136977580Y-95514190D01*
X136977580Y-95514190D02*
X136834723Y-95418952D01*
X136834723Y-95418952D02*
X136644247Y-95371333D01*
X136644247Y-95371333D02*
X136263295Y-95371333D01*
X136263295Y-95371333D02*
X136168057Y-95418952D01*
X136168057Y-95418952D02*
X136120438Y-95466571D01*
X136120438Y-95466571D02*
X136072819Y-95561809D01*
X136072819Y-95561809D02*
X136072819Y-95752285D01*
X136072819Y-95752285D02*
X136120438Y-95847523D01*
X136120438Y-95847523D02*
X136168057Y-95895142D01*
X136168057Y-95895142D02*
X136263295Y-95942761D01*
X136263295Y-95942761D02*
X136501390Y-95942761D01*
X136501390Y-95942761D02*
X136596628Y-95895142D01*
X136596628Y-95895142D02*
X136644247Y-95847523D01*
X136644247Y-95847523D02*
X136691866Y-95752285D01*
X136691866Y-95752285D02*
X136691866Y-95561809D01*
X136691866Y-95561809D02*
X136644247Y-95466571D01*
X136644247Y-95466571D02*
X136596628Y-95418952D01*
X136596628Y-95418952D02*
X136501390Y-95371333D01*
D12*
%TO.C,Q4*%
X78732795Y-175735816D02*
G75*
G02*
X79460000Y-176260000I-1122795J-2324184D01*
G01*
X75010000Y-178060000D02*
G75*
G02*
X76511193Y-175703600I2600000J0D01*
G01*
X79460000Y-179860000D02*
G75*
G02*
X78732795Y-180384184I-1850000J1800000D01*
G01*
X76511193Y-180416400D02*
G75*
G02*
X75010000Y-178060000I1098807J2356400D01*
G01*
X79460000Y-179860000D02*
X79460000Y-176260000D01*
%TO.C,Q2*%
X108715816Y-170627205D02*
G75*
G02*
X109240000Y-169900000I2324184J-1122795D01*
G01*
X111040000Y-174350000D02*
G75*
G02*
X108683600Y-172848807I0J2600000D01*
G01*
X112840000Y-169900000D02*
G75*
G02*
X113364184Y-170627205I-1800000J-1850000D01*
G01*
X113396400Y-172848807D02*
G75*
G02*
X111040000Y-174350000I-2356400J1098807D01*
G01*
X112840000Y-169900000D02*
X109240000Y-169900000D01*
%TO.C,D1*%
X205720000Y-81000000D02*
X206630000Y-81000000D01*
X206630000Y-78280000D02*
X206630000Y-83720000D01*
X206630000Y-83720000D02*
X216370000Y-83720000D01*
X214705000Y-83720000D02*
X214705000Y-78280000D01*
X214825000Y-83720000D02*
X214825000Y-78280000D01*
X214945000Y-83720000D02*
X214945000Y-78280000D01*
X216370000Y-78280000D02*
X206630000Y-78280000D01*
X216370000Y-83720000D02*
X216370000Y-78280000D01*
X217280000Y-81000000D02*
X216370000Y-81000000D01*
%TO.C,D4*%
X56750000Y-177290000D02*
X56750000Y-177940000D01*
X57870000Y-177940000D02*
X55630000Y-177940000D01*
X55630000Y-177940000D02*
X55630000Y-182180000D01*
X55630000Y-181340000D02*
X57870000Y-181340000D01*
X55630000Y-181460000D02*
X57870000Y-181460000D01*
X55630000Y-181580000D02*
X57870000Y-181580000D01*
X57870000Y-182180000D02*
X57870000Y-177940000D01*
X55630000Y-182180000D02*
X57870000Y-182180000D01*
X56750000Y-182830000D02*
X56750000Y-182180000D01*
%TO.C,D3*%
X54280000Y-141250000D02*
X53370000Y-141250000D01*
X53370000Y-143970000D02*
X53370000Y-138530000D01*
X53370000Y-138530000D02*
X43630000Y-138530000D01*
X45295000Y-138530000D02*
X45295000Y-143970000D01*
X45175000Y-138530000D02*
X45175000Y-143970000D01*
X45055000Y-138530000D02*
X45055000Y-143970000D01*
X43630000Y-143970000D02*
X53370000Y-143970000D01*
X43630000Y-138530000D02*
X43630000Y-143970000D01*
X42720000Y-141250000D02*
X43630000Y-141250000D01*
%TO.C,J43*%
X190600000Y-150740000D02*
X190600000Y-156760000D01*
X190600000Y-156760000D02*
X195900000Y-156760000D01*
X191180000Y-156160000D02*
X191180000Y-156760000D01*
X191980000Y-151740000D02*
X191980000Y-150740000D01*
X192230000Y-150740000D02*
X192230000Y-151740000D01*
X192230000Y-152270000D02*
X191980000Y-151740000D01*
X192780000Y-156160000D02*
X191180000Y-156160000D01*
X192780000Y-156760000D02*
X192780000Y-156160000D01*
X193720000Y-156160000D02*
X193720000Y-156760000D01*
X194270000Y-150740000D02*
X194270000Y-151740000D01*
X194270000Y-152270000D02*
X192230000Y-152270000D01*
X194520000Y-150740000D02*
X194520000Y-151740000D01*
X194520000Y-151740000D02*
X191980000Y-151740000D01*
X194520000Y-151740000D02*
X194270000Y-152270000D01*
X195320000Y-156160000D02*
X193720000Y-156160000D01*
X195320000Y-156760000D02*
X195320000Y-156160000D01*
X195900000Y-150740000D02*
X190600000Y-150740000D01*
X195900000Y-156760000D02*
X195900000Y-150740000D01*
X196190000Y-155730000D02*
X196190000Y-151730000D01*
%TO.C,J91*%
X101500000Y-179760000D02*
X101500000Y-185780000D01*
X101500000Y-185780000D02*
X111880000Y-185780000D01*
X102080000Y-185180000D02*
X102080000Y-185780000D01*
X102880000Y-180760000D02*
X102880000Y-179760000D01*
X103130000Y-179760000D02*
X103130000Y-180760000D01*
X103130000Y-181290000D02*
X102880000Y-180760000D01*
X103680000Y-185180000D02*
X102080000Y-185180000D01*
X103680000Y-185780000D02*
X103680000Y-185180000D01*
X104620000Y-185180000D02*
X104620000Y-185780000D01*
X106220000Y-185180000D02*
X104620000Y-185180000D01*
X106220000Y-185780000D02*
X106220000Y-185180000D01*
X107160000Y-185180000D02*
X107160000Y-185780000D01*
X108760000Y-185180000D02*
X107160000Y-185180000D01*
X108760000Y-185780000D02*
X108760000Y-185180000D01*
X109700000Y-185180000D02*
X109700000Y-185780000D01*
X110250000Y-179760000D02*
X110250000Y-180760000D01*
X110250000Y-181290000D02*
X103130000Y-181290000D01*
X110500000Y-179760000D02*
X110500000Y-180760000D01*
X110500000Y-180760000D02*
X102880000Y-180760000D01*
X110500000Y-180760000D02*
X110250000Y-181290000D01*
X111300000Y-185180000D02*
X109700000Y-185180000D01*
X111300000Y-185780000D02*
X111300000Y-185180000D01*
X111880000Y-179760000D02*
X101500000Y-179760000D01*
X111880000Y-185780000D02*
X111880000Y-179760000D01*
X112170000Y-184750000D02*
X112170000Y-180750000D01*
%TO.C,J42*%
X202900000Y-58990000D02*
X202900000Y-52970000D01*
X202900000Y-52970000D02*
X197600000Y-52970000D01*
X202320000Y-53570000D02*
X202320000Y-52970000D01*
X201520000Y-57990000D02*
X201520000Y-58990000D01*
X201270000Y-58990000D02*
X201270000Y-57990000D01*
X201270000Y-57460000D02*
X201520000Y-57990000D01*
X200720000Y-53570000D02*
X202320000Y-53570000D01*
X200720000Y-52970000D02*
X200720000Y-53570000D01*
X199780000Y-53570000D02*
X199780000Y-52970000D01*
X199230000Y-58990000D02*
X199230000Y-57990000D01*
X199230000Y-57460000D02*
X201270000Y-57460000D01*
X198980000Y-58990000D02*
X198980000Y-57990000D01*
X198980000Y-57990000D02*
X201520000Y-57990000D01*
X198980000Y-57990000D02*
X199230000Y-57460000D01*
X198180000Y-53570000D02*
X199780000Y-53570000D01*
X198180000Y-52970000D02*
X198180000Y-53570000D01*
X197600000Y-58990000D02*
X202900000Y-58990000D01*
X197600000Y-52970000D02*
X197600000Y-58990000D01*
X197310000Y-54000000D02*
X197310000Y-58000000D01*
%TO.C,Q1*%
X100715816Y-170627205D02*
G75*
G02*
X101240000Y-169900000I2324184J-1122795D01*
G01*
X103040000Y-174350000D02*
G75*
G02*
X100683600Y-172848807I0J2600000D01*
G01*
X104840000Y-169900000D02*
G75*
G02*
X105364184Y-170627205I-1800000J-1850000D01*
G01*
X105396400Y-172848807D02*
G75*
G02*
X103040000Y-174350000I-2356400J1098807D01*
G01*
X104840000Y-169900000D02*
X101240000Y-169900000D01*
%TO.C,J41*%
X196150000Y-58990000D02*
X196150000Y-52970000D01*
X196150000Y-52970000D02*
X190850000Y-52970000D01*
X195570000Y-53570000D02*
X195570000Y-52970000D01*
X194770000Y-57990000D02*
X194770000Y-58990000D01*
X194520000Y-58990000D02*
X194520000Y-57990000D01*
X194520000Y-57460000D02*
X194770000Y-57990000D01*
X193970000Y-53570000D02*
X195570000Y-53570000D01*
X193970000Y-52970000D02*
X193970000Y-53570000D01*
X193030000Y-53570000D02*
X193030000Y-52970000D01*
X192480000Y-58990000D02*
X192480000Y-57990000D01*
X192480000Y-57460000D02*
X194520000Y-57460000D01*
X192230000Y-58990000D02*
X192230000Y-57990000D01*
X192230000Y-57990000D02*
X194770000Y-57990000D01*
X192230000Y-57990000D02*
X192480000Y-57460000D01*
X191430000Y-53570000D02*
X193030000Y-53570000D01*
X191430000Y-52970000D02*
X191430000Y-53570000D01*
X190850000Y-58990000D02*
X196150000Y-58990000D01*
X190850000Y-52970000D02*
X190850000Y-58990000D01*
X190560000Y-54000000D02*
X190560000Y-58000000D01*
%TO.C,J44*%
X197350000Y-150740000D02*
X197350000Y-156760000D01*
X197350000Y-156760000D02*
X202650000Y-156760000D01*
X197930000Y-156160000D02*
X197930000Y-156760000D01*
X198730000Y-151740000D02*
X198730000Y-150740000D01*
X198980000Y-150740000D02*
X198980000Y-151740000D01*
X198980000Y-152270000D02*
X198730000Y-151740000D01*
X199530000Y-156160000D02*
X197930000Y-156160000D01*
X199530000Y-156760000D02*
X199530000Y-156160000D01*
X200470000Y-156160000D02*
X200470000Y-156760000D01*
X201020000Y-150740000D02*
X201020000Y-151740000D01*
X201020000Y-152270000D02*
X198980000Y-152270000D01*
X201270000Y-150740000D02*
X201270000Y-151740000D01*
X201270000Y-151740000D02*
X198730000Y-151740000D01*
X201270000Y-151740000D02*
X201020000Y-152270000D01*
X202070000Y-156160000D02*
X200470000Y-156160000D01*
X202070000Y-156760000D02*
X202070000Y-156160000D01*
X202650000Y-150740000D02*
X197350000Y-150740000D01*
X202650000Y-156760000D02*
X202650000Y-150740000D01*
X202940000Y-155730000D02*
X202940000Y-151730000D01*
%TO.C,J21*%
X181920000Y-180510000D02*
X181920000Y-186530000D01*
X181920000Y-186530000D02*
X207540000Y-186530000D01*
X182500000Y-185930000D02*
X182500000Y-186530000D01*
X183300000Y-180510000D02*
X183300000Y-181510000D01*
X183300000Y-181510000D02*
X183550000Y-182040000D01*
X183300000Y-181510000D02*
X188380000Y-181510000D01*
X183550000Y-180510000D02*
X183550000Y-181510000D01*
X183550000Y-182040000D02*
X188380000Y-182040000D01*
X184100000Y-185930000D02*
X182500000Y-185930000D01*
X184100000Y-186530000D02*
X184100000Y-185930000D01*
X185040000Y-185930000D02*
X185040000Y-186530000D01*
X186640000Y-185930000D02*
X185040000Y-185930000D01*
X186640000Y-186530000D02*
X186640000Y-185930000D01*
X187580000Y-185930000D02*
X187580000Y-186530000D01*
X188380000Y-181510000D02*
X188380000Y-180510000D01*
X188380000Y-182040000D02*
X188380000Y-181510000D01*
X189180000Y-185930000D02*
X187580000Y-185930000D01*
X189180000Y-186530000D02*
X189180000Y-185930000D01*
X190120000Y-185930000D02*
X190120000Y-186530000D01*
X191720000Y-185930000D02*
X190120000Y-185930000D01*
X191720000Y-186530000D02*
X191720000Y-185930000D01*
X192660000Y-185930000D02*
X192660000Y-186530000D01*
X194260000Y-185930000D02*
X192660000Y-185930000D01*
X194260000Y-186530000D02*
X194260000Y-185930000D01*
X195200000Y-185930000D02*
X195200000Y-186530000D01*
X196800000Y-185930000D02*
X195200000Y-185930000D01*
X196800000Y-186530000D02*
X196800000Y-185930000D01*
X197740000Y-185930000D02*
X197740000Y-186530000D01*
X199340000Y-185930000D02*
X197740000Y-185930000D01*
X199340000Y-186530000D02*
X199340000Y-185930000D01*
X200280000Y-185930000D02*
X200280000Y-186530000D01*
X201080000Y-181510000D02*
X201080000Y-180510000D01*
X201080000Y-182040000D02*
X201080000Y-181510000D01*
X201880000Y-185930000D02*
X200280000Y-185930000D01*
X201880000Y-186530000D02*
X201880000Y-185930000D01*
X202820000Y-185930000D02*
X202820000Y-186530000D01*
X204420000Y-185930000D02*
X202820000Y-185930000D01*
X204420000Y-186530000D02*
X204420000Y-185930000D01*
X205360000Y-185930000D02*
X205360000Y-186530000D01*
X205910000Y-180510000D02*
X205910000Y-181510000D01*
X205910000Y-182040000D02*
X201080000Y-182040000D01*
X206160000Y-180510000D02*
X206160000Y-181510000D01*
X206160000Y-181510000D02*
X201080000Y-181510000D01*
X206160000Y-181510000D02*
X205910000Y-182040000D01*
X206960000Y-185930000D02*
X205360000Y-185930000D01*
X206960000Y-186530000D02*
X206960000Y-185930000D01*
X207540000Y-180510000D02*
X181920000Y-180510000D01*
X207540000Y-186530000D02*
X207540000Y-180510000D01*
X207830000Y-185500000D02*
X207830000Y-181500000D01*
%TO.C,J30*%
X108420000Y-28490000D02*
X108420000Y-22470000D01*
X108420000Y-22470000D02*
X98040000Y-22470000D01*
X107840000Y-23070000D02*
X107840000Y-22470000D01*
X107040000Y-27490000D02*
X107040000Y-28490000D01*
X106790000Y-28490000D02*
X106790000Y-27490000D01*
X106790000Y-26960000D02*
X107040000Y-27490000D01*
X106240000Y-23070000D02*
X107840000Y-23070000D01*
X106240000Y-22470000D02*
X106240000Y-23070000D01*
X105300000Y-23070000D02*
X105300000Y-22470000D01*
X103700000Y-23070000D02*
X105300000Y-23070000D01*
X103700000Y-22470000D02*
X103700000Y-23070000D01*
X102760000Y-23070000D02*
X102760000Y-22470000D01*
X101160000Y-23070000D02*
X102760000Y-23070000D01*
X101160000Y-22470000D02*
X101160000Y-23070000D01*
X100220000Y-23070000D02*
X100220000Y-22470000D01*
X99670000Y-28490000D02*
X99670000Y-27490000D01*
X99670000Y-26960000D02*
X106790000Y-26960000D01*
X99420000Y-28490000D02*
X99420000Y-27490000D01*
X99420000Y-27490000D02*
X107040000Y-27490000D01*
X99420000Y-27490000D02*
X99670000Y-26960000D01*
X98620000Y-23070000D02*
X100220000Y-23070000D01*
X98620000Y-22470000D02*
X98620000Y-23070000D01*
X98040000Y-28490000D02*
X108420000Y-28490000D01*
X98040000Y-22470000D02*
X98040000Y-28490000D01*
X97750000Y-23500000D02*
X97750000Y-27500000D01*
%TO.C,J11*%
X190670000Y-38740000D02*
X190670000Y-32720000D01*
X190670000Y-32720000D02*
X170130000Y-32720000D01*
X190090000Y-33320000D02*
X190090000Y-32720000D01*
X189290000Y-38740000D02*
X189290000Y-37740000D01*
X189290000Y-37740000D02*
X189040000Y-37210000D01*
X189290000Y-37740000D02*
X184210000Y-37740000D01*
X189040000Y-38740000D02*
X189040000Y-37740000D01*
X189040000Y-37210000D02*
X184210000Y-37210000D01*
X188490000Y-33320000D02*
X190090000Y-33320000D01*
X188490000Y-32720000D02*
X188490000Y-33320000D01*
X187550000Y-33320000D02*
X187550000Y-32720000D01*
X185950000Y-33320000D02*
X187550000Y-33320000D01*
X185950000Y-32720000D02*
X185950000Y-33320000D01*
X185010000Y-33320000D02*
X185010000Y-32720000D01*
X184210000Y-37740000D02*
X184210000Y-38740000D01*
X184210000Y-37210000D02*
X184210000Y-37740000D01*
X183410000Y-33320000D02*
X185010000Y-33320000D01*
X183410000Y-32720000D02*
X183410000Y-33320000D01*
X182470000Y-33320000D02*
X182470000Y-32720000D01*
X180870000Y-33320000D02*
X182470000Y-33320000D01*
X180870000Y-32720000D02*
X180870000Y-33320000D01*
X179930000Y-33320000D02*
X179930000Y-32720000D01*
X178330000Y-33320000D02*
X179930000Y-33320000D01*
X178330000Y-32720000D02*
X178330000Y-33320000D01*
X177390000Y-33320000D02*
X177390000Y-32720000D01*
X176590000Y-37740000D02*
X176590000Y-38740000D01*
X176590000Y-37210000D02*
X176590000Y-37740000D01*
X175790000Y-33320000D02*
X177390000Y-33320000D01*
X175790000Y-32720000D02*
X175790000Y-33320000D01*
X174850000Y-33320000D02*
X174850000Y-32720000D01*
X173250000Y-33320000D02*
X174850000Y-33320000D01*
X173250000Y-32720000D02*
X173250000Y-33320000D01*
X172310000Y-33320000D02*
X172310000Y-32720000D01*
X171760000Y-38740000D02*
X171760000Y-37740000D01*
X171760000Y-37210000D02*
X176590000Y-37210000D01*
X171510000Y-38740000D02*
X171510000Y-37740000D01*
X171510000Y-37740000D02*
X176590000Y-37740000D01*
X171510000Y-37740000D02*
X171760000Y-37210000D01*
X170710000Y-33320000D02*
X172310000Y-33320000D01*
X170710000Y-32720000D02*
X170710000Y-33320000D01*
X170130000Y-38740000D02*
X190670000Y-38740000D01*
X170130000Y-32720000D02*
X170130000Y-38740000D01*
X169840000Y-33750000D02*
X169840000Y-37750000D01*
%TO.C,D2*%
X205600000Y-130000000D02*
X206510000Y-130000000D01*
X206510000Y-127280000D02*
X206510000Y-132720000D01*
X206510000Y-132720000D02*
X216250000Y-132720000D01*
X214585000Y-132720000D02*
X214585000Y-127280000D01*
X214705000Y-132720000D02*
X214705000Y-127280000D01*
X214825000Y-132720000D02*
X214825000Y-127280000D01*
X216250000Y-127280000D02*
X206510000Y-127280000D01*
X216250000Y-132720000D02*
X216250000Y-127280000D01*
X217160000Y-130000000D02*
X216250000Y-130000000D01*
%TO.C,BZ1*%
X73100000Y-180310000D02*
G75*
G02*
X58900000Y-180310000I-7100000J0D01*
G01*
X58900000Y-180310000D02*
G75*
G02*
X73100000Y-180310000I7100000J0D01*
G01*
%TO.C,SW1*%
X141000000Y-34200000D02*
X143850000Y-34200000D01*
X143850000Y-35250000D01*
X141000000Y-35250000D01*
X141000000Y-34200000D01*
X145600000Y-36140000D02*
X145600000Y-36600000D01*
X145600000Y-32900000D02*
X145600000Y-33360000D01*
X145600000Y-32900000D02*
X139400000Y-32900000D01*
X139400000Y-36600000D02*
X145600000Y-36600000D01*
X139400000Y-36140000D02*
X139400000Y-36600000D01*
X139400000Y-33360000D02*
X138400000Y-33360000D01*
X139400000Y-32900000D02*
X139400000Y-33360000D01*
%TO.C,SW2*%
X127500000Y-178300000D02*
X124650000Y-178300000D01*
X124650000Y-177250000D01*
X127500000Y-177250000D01*
X127500000Y-178300000D01*
X122900000Y-176360000D02*
X122900000Y-175900000D01*
X122900000Y-179600000D02*
X122900000Y-179140000D01*
X122900000Y-179600000D02*
X129100000Y-179600000D01*
X129100000Y-175900000D02*
X122900000Y-175900000D01*
X129100000Y-176360000D02*
X129100000Y-175900000D01*
X129100000Y-179140000D02*
X130100000Y-179140000D01*
X129100000Y-179600000D02*
X129100000Y-179140000D01*
%TO.C,J101*%
X65420000Y-28490000D02*
X65420000Y-22470000D01*
X65420000Y-22470000D02*
X55040000Y-22470000D01*
X64840000Y-23070000D02*
X64840000Y-22470000D01*
X64040000Y-27490000D02*
X64040000Y-28490000D01*
X63790000Y-28490000D02*
X63790000Y-27490000D01*
X63790000Y-26960000D02*
X64040000Y-27490000D01*
X63240000Y-23070000D02*
X64840000Y-23070000D01*
X63240000Y-22470000D02*
X63240000Y-23070000D01*
X62300000Y-23070000D02*
X62300000Y-22470000D01*
X60700000Y-23070000D02*
X62300000Y-23070000D01*
X60700000Y-22470000D02*
X60700000Y-23070000D01*
X59760000Y-23070000D02*
X59760000Y-22470000D01*
X58160000Y-23070000D02*
X59760000Y-23070000D01*
X58160000Y-22470000D02*
X58160000Y-23070000D01*
X57220000Y-23070000D02*
X57220000Y-22470000D01*
X56670000Y-28490000D02*
X56670000Y-27490000D01*
X56670000Y-26960000D02*
X63790000Y-26960000D01*
X56420000Y-28490000D02*
X56420000Y-27490000D01*
X56420000Y-27490000D02*
X64040000Y-27490000D01*
X56420000Y-27490000D02*
X56670000Y-26960000D01*
X55620000Y-23070000D02*
X57220000Y-23070000D01*
X55620000Y-22470000D02*
X55620000Y-23070000D01*
X55040000Y-28490000D02*
X65420000Y-28490000D01*
X55040000Y-22470000D02*
X55040000Y-28490000D01*
X54750000Y-23500000D02*
X54750000Y-27500000D01*
%TO.C,J13*%
X190870000Y-48990000D02*
X190870000Y-42970000D01*
X190870000Y-42970000D02*
X170330000Y-42970000D01*
X190290000Y-43570000D02*
X190290000Y-42970000D01*
X189490000Y-48990000D02*
X189490000Y-47990000D01*
X189490000Y-47990000D02*
X189240000Y-47460000D01*
X189490000Y-47990000D02*
X184410000Y-47990000D01*
X189240000Y-48990000D02*
X189240000Y-47990000D01*
X189240000Y-47460000D02*
X184410000Y-47460000D01*
X188690000Y-43570000D02*
X190290000Y-43570000D01*
X188690000Y-42970000D02*
X188690000Y-43570000D01*
X187750000Y-43570000D02*
X187750000Y-42970000D01*
X186150000Y-43570000D02*
X187750000Y-43570000D01*
X186150000Y-42970000D02*
X186150000Y-43570000D01*
X185210000Y-43570000D02*
X185210000Y-42970000D01*
X184410000Y-47990000D02*
X184410000Y-48990000D01*
X184410000Y-47460000D02*
X184410000Y-47990000D01*
X183610000Y-43570000D02*
X185210000Y-43570000D01*
X183610000Y-42970000D02*
X183610000Y-43570000D01*
X182670000Y-43570000D02*
X182670000Y-42970000D01*
X181070000Y-43570000D02*
X182670000Y-43570000D01*
X181070000Y-42970000D02*
X181070000Y-43570000D01*
X180130000Y-43570000D02*
X180130000Y-42970000D01*
X178530000Y-43570000D02*
X180130000Y-43570000D01*
X178530000Y-42970000D02*
X178530000Y-43570000D01*
X177590000Y-43570000D02*
X177590000Y-42970000D01*
X176790000Y-47990000D02*
X176790000Y-48990000D01*
X176790000Y-47460000D02*
X176790000Y-47990000D01*
X175990000Y-43570000D02*
X177590000Y-43570000D01*
X175990000Y-42970000D02*
X175990000Y-43570000D01*
X175050000Y-43570000D02*
X175050000Y-42970000D01*
X173450000Y-43570000D02*
X175050000Y-43570000D01*
X173450000Y-42970000D02*
X173450000Y-43570000D01*
X172510000Y-43570000D02*
X172510000Y-42970000D01*
X171960000Y-48990000D02*
X171960000Y-47990000D01*
X171960000Y-47460000D02*
X176790000Y-47460000D01*
X171710000Y-48990000D02*
X171710000Y-47990000D01*
X171710000Y-47990000D02*
X176790000Y-47990000D01*
X171710000Y-47990000D02*
X171960000Y-47460000D01*
X170910000Y-43570000D02*
X172510000Y-43570000D01*
X170910000Y-42970000D02*
X170910000Y-43570000D01*
X170330000Y-48990000D02*
X190870000Y-48990000D01*
X170330000Y-42970000D02*
X170330000Y-48990000D01*
X170040000Y-44000000D02*
X170040000Y-48000000D01*
%TO.C,J12*%
X190710000Y-28740000D02*
X190710000Y-22720000D01*
X190710000Y-22720000D02*
X170170000Y-22720000D01*
X190130000Y-23320000D02*
X190130000Y-22720000D01*
X189330000Y-28740000D02*
X189330000Y-27740000D01*
X189330000Y-27740000D02*
X189080000Y-27210000D01*
X189330000Y-27740000D02*
X184250000Y-27740000D01*
X189080000Y-28740000D02*
X189080000Y-27740000D01*
X189080000Y-27210000D02*
X184250000Y-27210000D01*
X188530000Y-23320000D02*
X190130000Y-23320000D01*
X188530000Y-22720000D02*
X188530000Y-23320000D01*
X187590000Y-23320000D02*
X187590000Y-22720000D01*
X185990000Y-23320000D02*
X187590000Y-23320000D01*
X185990000Y-22720000D02*
X185990000Y-23320000D01*
X185050000Y-23320000D02*
X185050000Y-22720000D01*
X184250000Y-27740000D02*
X184250000Y-28740000D01*
X184250000Y-27210000D02*
X184250000Y-27740000D01*
X183450000Y-23320000D02*
X185050000Y-23320000D01*
X183450000Y-22720000D02*
X183450000Y-23320000D01*
X182510000Y-23320000D02*
X182510000Y-22720000D01*
X180910000Y-23320000D02*
X182510000Y-23320000D01*
X180910000Y-22720000D02*
X180910000Y-23320000D01*
X179970000Y-23320000D02*
X179970000Y-22720000D01*
X178370000Y-23320000D02*
X179970000Y-23320000D01*
X178370000Y-22720000D02*
X178370000Y-23320000D01*
X177430000Y-23320000D02*
X177430000Y-22720000D01*
X176630000Y-27740000D02*
X176630000Y-28740000D01*
X176630000Y-27210000D02*
X176630000Y-27740000D01*
X175830000Y-23320000D02*
X177430000Y-23320000D01*
X175830000Y-22720000D02*
X175830000Y-23320000D01*
X174890000Y-23320000D02*
X174890000Y-22720000D01*
X173290000Y-23320000D02*
X174890000Y-23320000D01*
X173290000Y-22720000D02*
X173290000Y-23320000D01*
X172350000Y-23320000D02*
X172350000Y-22720000D01*
X171800000Y-28740000D02*
X171800000Y-27740000D01*
X171800000Y-27210000D02*
X176630000Y-27210000D01*
X171550000Y-28740000D02*
X171550000Y-27740000D01*
X171550000Y-27740000D02*
X176630000Y-27740000D01*
X171550000Y-27740000D02*
X171800000Y-27210000D01*
X170750000Y-23320000D02*
X172350000Y-23320000D01*
X170750000Y-22720000D02*
X170750000Y-23320000D01*
X170170000Y-28740000D02*
X190710000Y-28740000D01*
X170170000Y-22720000D02*
X170170000Y-28740000D01*
X169880000Y-23750000D02*
X169880000Y-27750000D01*
%TO.C,Q3*%
X86622795Y-175735816D02*
G75*
G02*
X87350000Y-176260000I-1122795J-2324184D01*
G01*
X82900000Y-178060000D02*
G75*
G02*
X84401193Y-175703600I2600000J0D01*
G01*
X87350000Y-179860000D02*
G75*
G02*
X86622795Y-180384184I-1850000J1800000D01*
G01*
X84401193Y-180416400D02*
G75*
G02*
X82900000Y-178060000I1098807J2356400D01*
G01*
X87350000Y-179860000D02*
X87350000Y-176260000D01*
D13*
%TO.C,U1*%
X183100000Y-120422000D02*
G75*
G02*
X170908000Y-132614000I-12192000J0D01*
G01*
X170908000Y-51334000D02*
G75*
G02*
X183100000Y-64796000I-635001J-12827001D01*
G01*
X141952000Y-132614000D02*
G75*
G02*
X129759994Y-120676000I-251360J11938000D01*
G01*
X129760000Y-65050000D02*
G75*
G02*
X141952000Y-51334000I12953999J762001D01*
G01*
X183100000Y-120422000D02*
X183100000Y-64796000D01*
X181830000Y-116485000D02*
X176750000Y-116485000D01*
X181830000Y-96165000D02*
X181830000Y-116485000D01*
X181830000Y-94895000D02*
X176750000Y-94895000D01*
X181830000Y-69495000D02*
X181830000Y-94895000D01*
X176750000Y-116485000D02*
X176750000Y-96165000D01*
X176750000Y-96165000D02*
X181830000Y-96165000D01*
X176750000Y-94895000D02*
X176750000Y-69495000D01*
X176750000Y-69495000D02*
X181830000Y-69495000D01*
X175480000Y-130074000D02*
X137380000Y-130074000D01*
X175480000Y-117374000D02*
X175480000Y-130074000D01*
X175480000Y-117374000D02*
X139666000Y-123470000D01*
X175480000Y-117374000D02*
X137380000Y-117374000D01*
X173448000Y-123470000D02*
X137380000Y-130074000D01*
X170908000Y-61494000D02*
X170908000Y-51334000D01*
X170908000Y-61494000D02*
X163288000Y-61494000D01*
X170908000Y-51334000D02*
X170908000Y-50572000D01*
X170908000Y-51334000D02*
X141952000Y-51334000D01*
X170908000Y-50572000D02*
X163288000Y-50572000D01*
X163288000Y-61494000D02*
X163288000Y-50572000D01*
X149826000Y-61494000D02*
X149826000Y-50572000D01*
X149826000Y-61494000D02*
X142206000Y-61494000D01*
X149826000Y-50572000D02*
X142206000Y-50572000D01*
X142206000Y-61494000D02*
X142206000Y-50572000D01*
X141952000Y-132614000D02*
X170908000Y-132614000D01*
X139666000Y-123470000D02*
X173448000Y-123470000D01*
X137380000Y-117374000D02*
X137380000Y-130074000D01*
X136110000Y-116485000D02*
X131030000Y-116485000D01*
X136110000Y-101245000D02*
X136110000Y-116485000D01*
X136110000Y-98705000D02*
X131030000Y-98705000D01*
X136110000Y-78385000D02*
X136110000Y-98705000D01*
X131030000Y-116485000D02*
X131030000Y-101245000D01*
X131030000Y-101245000D02*
X136110000Y-101245000D01*
X131030000Y-98705000D02*
X131030000Y-78385000D01*
X131030000Y-78385000D02*
X136110000Y-78385000D01*
X129760000Y-65050000D02*
X129760000Y-120676000D01*
%TD*%
M02*
