%TF.GenerationSoftware,KiCad,Pcbnew,9.0.4*%
%TF.CreationDate,2026-02-19T09:19:54+00:00*%
%TF.ProjectId,Line following V2,4c696e65-2066-46f6-9c6c-6f77696e6720,rev?*%
%TF.SameCoordinates,Original*%
%TF.FileFunction,Legend,Bot*%
%TF.FilePolarity,Positive*%
%FSLAX46Y46*%
G04 Gerber Fmt 4.6, Leading zero omitted, Abs format (unit mm)*
G04 Created by KiCad (PCBNEW 9.0.4) date 2026-02-19 09:19:54*
%MOMM*%
%LPD*%
G01*
G04 APERTURE LIST*
%ADD10C,0.150000*%
%ADD11C,0.254000*%
%ADD12C,0.120000*%
%ADD13C,0.100000*%
G04 APERTURE END LIST*
D10*
X94063333Y-59254819D02*
X94063333Y-59969104D01*
X94063333Y-59969104D02*
X94110952Y-60111961D01*
X94110952Y-60111961D02*
X94206190Y-60207200D01*
X94206190Y-60207200D02*
X94349047Y-60254819D01*
X94349047Y-60254819D02*
X94444285Y-60254819D01*
X93063333Y-60254819D02*
X93634761Y-60254819D01*
X93349047Y-60254819D02*
X93349047Y-59254819D01*
X93349047Y-59254819D02*
X93444285Y-59397676D01*
X93444285Y-59397676D02*
X93539523Y-59492914D01*
X93539523Y-59492914D02*
X93634761Y-59540533D01*
D11*
X74380270Y-30154047D02*
X74319794Y-30033095D01*
X74319794Y-30033095D02*
X74198842Y-29912142D01*
X74198842Y-29912142D02*
X74017413Y-29730714D01*
X74017413Y-29730714D02*
X73956937Y-29609761D01*
X73956937Y-29609761D02*
X73956937Y-29488809D01*
X74259318Y-29549285D02*
X74198842Y-29428333D01*
X74198842Y-29428333D02*
X74077889Y-29307380D01*
X74077889Y-29307380D02*
X73835984Y-29246904D01*
X73835984Y-29246904D02*
X73412651Y-29246904D01*
X73412651Y-29246904D02*
X73170746Y-29307380D01*
X73170746Y-29307380D02*
X73049794Y-29428333D01*
X73049794Y-29428333D02*
X72989318Y-29549285D01*
X72989318Y-29549285D02*
X72989318Y-29791190D01*
X72989318Y-29791190D02*
X73049794Y-29912142D01*
X73049794Y-29912142D02*
X73170746Y-30033095D01*
X73170746Y-30033095D02*
X73412651Y-30093571D01*
X73412651Y-30093571D02*
X73835984Y-30093571D01*
X73835984Y-30093571D02*
X74077889Y-30033095D01*
X74077889Y-30033095D02*
X74198842Y-29912142D01*
X74198842Y-29912142D02*
X74259318Y-29791190D01*
X74259318Y-29791190D02*
X74259318Y-29549285D01*
X74259318Y-31303095D02*
X74259318Y-30577380D01*
X74259318Y-30940237D02*
X72989318Y-30940237D01*
X72989318Y-30940237D02*
X73170746Y-30819285D01*
X73170746Y-30819285D02*
X73291699Y-30698333D01*
X73291699Y-30698333D02*
X73352175Y-30577380D01*
D10*
X114451904Y-35544819D02*
X114451904Y-36354342D01*
X114451904Y-36354342D02*
X114404285Y-36449580D01*
X114404285Y-36449580D02*
X114356666Y-36497200D01*
X114356666Y-36497200D02*
X114261428Y-36544819D01*
X114261428Y-36544819D02*
X114070952Y-36544819D01*
X114070952Y-36544819D02*
X113975714Y-36497200D01*
X113975714Y-36497200D02*
X113928095Y-36449580D01*
X113928095Y-36449580D02*
X113880476Y-36354342D01*
X113880476Y-36354342D02*
X113880476Y-35544819D01*
X113499523Y-35544819D02*
X112880476Y-35544819D01*
X112880476Y-35544819D02*
X113213809Y-35925771D01*
X113213809Y-35925771D02*
X113070952Y-35925771D01*
X113070952Y-35925771D02*
X112975714Y-35973390D01*
X112975714Y-35973390D02*
X112928095Y-36021009D01*
X112928095Y-36021009D02*
X112880476Y-36116247D01*
X112880476Y-36116247D02*
X112880476Y-36354342D01*
X112880476Y-36354342D02*
X112928095Y-36449580D01*
X112928095Y-36449580D02*
X112975714Y-36497200D01*
X112975714Y-36497200D02*
X113070952Y-36544819D01*
X113070952Y-36544819D02*
X113356666Y-36544819D01*
X113356666Y-36544819D02*
X113451904Y-36497200D01*
X113451904Y-36497200D02*
X113499523Y-36449580D01*
X94451904Y-35504819D02*
X94451904Y-36314342D01*
X94451904Y-36314342D02*
X94404285Y-36409580D01*
X94404285Y-36409580D02*
X94356666Y-36457200D01*
X94356666Y-36457200D02*
X94261428Y-36504819D01*
X94261428Y-36504819D02*
X94070952Y-36504819D01*
X94070952Y-36504819D02*
X93975714Y-36457200D01*
X93975714Y-36457200D02*
X93928095Y-36409580D01*
X93928095Y-36409580D02*
X93880476Y-36314342D01*
X93880476Y-36314342D02*
X93880476Y-35504819D01*
X93451904Y-35600057D02*
X93404285Y-35552438D01*
X93404285Y-35552438D02*
X93309047Y-35504819D01*
X93309047Y-35504819D02*
X93070952Y-35504819D01*
X93070952Y-35504819D02*
X92975714Y-35552438D01*
X92975714Y-35552438D02*
X92928095Y-35600057D01*
X92928095Y-35600057D02*
X92880476Y-35695295D01*
X92880476Y-35695295D02*
X92880476Y-35790533D01*
X92880476Y-35790533D02*
X92928095Y-35933390D01*
X92928095Y-35933390D02*
X93499523Y-36504819D01*
X93499523Y-36504819D02*
X92880476Y-36504819D01*
X74451904Y-35504819D02*
X74451904Y-36314342D01*
X74451904Y-36314342D02*
X74404285Y-36409580D01*
X74404285Y-36409580D02*
X74356666Y-36457200D01*
X74356666Y-36457200D02*
X74261428Y-36504819D01*
X74261428Y-36504819D02*
X74070952Y-36504819D01*
X74070952Y-36504819D02*
X73975714Y-36457200D01*
X73975714Y-36457200D02*
X73928095Y-36409580D01*
X73928095Y-36409580D02*
X73880476Y-36314342D01*
X73880476Y-36314342D02*
X73880476Y-35504819D01*
X72880476Y-36504819D02*
X73451904Y-36504819D01*
X73166190Y-36504819D02*
X73166190Y-35504819D01*
X73166190Y-35504819D02*
X73261428Y-35647676D01*
X73261428Y-35647676D02*
X73356666Y-35742914D01*
X73356666Y-35742914D02*
X73451904Y-35790533D01*
D11*
X114380270Y-30154047D02*
X114319794Y-30033095D01*
X114319794Y-30033095D02*
X114198842Y-29912142D01*
X114198842Y-29912142D02*
X114017413Y-29730714D01*
X114017413Y-29730714D02*
X113956937Y-29609761D01*
X113956937Y-29609761D02*
X113956937Y-29488809D01*
X114259318Y-29549285D02*
X114198842Y-29428333D01*
X114198842Y-29428333D02*
X114077889Y-29307380D01*
X114077889Y-29307380D02*
X113835984Y-29246904D01*
X113835984Y-29246904D02*
X113412651Y-29246904D01*
X113412651Y-29246904D02*
X113170746Y-29307380D01*
X113170746Y-29307380D02*
X113049794Y-29428333D01*
X113049794Y-29428333D02*
X112989318Y-29549285D01*
X112989318Y-29549285D02*
X112989318Y-29791190D01*
X112989318Y-29791190D02*
X113049794Y-29912142D01*
X113049794Y-29912142D02*
X113170746Y-30033095D01*
X113170746Y-30033095D02*
X113412651Y-30093571D01*
X113412651Y-30093571D02*
X113835984Y-30093571D01*
X113835984Y-30093571D02*
X114077889Y-30033095D01*
X114077889Y-30033095D02*
X114198842Y-29912142D01*
X114198842Y-29912142D02*
X114259318Y-29791190D01*
X114259318Y-29791190D02*
X114259318Y-29549285D01*
X112989318Y-30516904D02*
X112989318Y-31303095D01*
X112989318Y-31303095D02*
X113473127Y-30879761D01*
X113473127Y-30879761D02*
X113473127Y-31061190D01*
X113473127Y-31061190D02*
X113533603Y-31182142D01*
X113533603Y-31182142D02*
X113594080Y-31242618D01*
X113594080Y-31242618D02*
X113715032Y-31303095D01*
X113715032Y-31303095D02*
X114017413Y-31303095D01*
X114017413Y-31303095D02*
X114138365Y-31242618D01*
X114138365Y-31242618D02*
X114198842Y-31182142D01*
X114198842Y-31182142D02*
X114259318Y-31061190D01*
X114259318Y-31061190D02*
X114259318Y-30698333D01*
X114259318Y-30698333D02*
X114198842Y-30577380D01*
X114198842Y-30577380D02*
X114138365Y-30516904D01*
X94380270Y-30154047D02*
X94319794Y-30033095D01*
X94319794Y-30033095D02*
X94198842Y-29912142D01*
X94198842Y-29912142D02*
X94017413Y-29730714D01*
X94017413Y-29730714D02*
X93956937Y-29609761D01*
X93956937Y-29609761D02*
X93956937Y-29488809D01*
X94259318Y-29549285D02*
X94198842Y-29428333D01*
X94198842Y-29428333D02*
X94077889Y-29307380D01*
X94077889Y-29307380D02*
X93835984Y-29246904D01*
X93835984Y-29246904D02*
X93412651Y-29246904D01*
X93412651Y-29246904D02*
X93170746Y-29307380D01*
X93170746Y-29307380D02*
X93049794Y-29428333D01*
X93049794Y-29428333D02*
X92989318Y-29549285D01*
X92989318Y-29549285D02*
X92989318Y-29791190D01*
X92989318Y-29791190D02*
X93049794Y-29912142D01*
X93049794Y-29912142D02*
X93170746Y-30033095D01*
X93170746Y-30033095D02*
X93412651Y-30093571D01*
X93412651Y-30093571D02*
X93835984Y-30093571D01*
X93835984Y-30093571D02*
X94077889Y-30033095D01*
X94077889Y-30033095D02*
X94198842Y-29912142D01*
X94198842Y-29912142D02*
X94259318Y-29791190D01*
X94259318Y-29791190D02*
X94259318Y-29549285D01*
X93110270Y-30577380D02*
X93049794Y-30637856D01*
X93049794Y-30637856D02*
X92989318Y-30758809D01*
X92989318Y-30758809D02*
X92989318Y-31061190D01*
X92989318Y-31061190D02*
X93049794Y-31182142D01*
X93049794Y-31182142D02*
X93110270Y-31242618D01*
X93110270Y-31242618D02*
X93231222Y-31303095D01*
X93231222Y-31303095D02*
X93352175Y-31303095D01*
X93352175Y-31303095D02*
X93533603Y-31242618D01*
X93533603Y-31242618D02*
X94259318Y-30516904D01*
X94259318Y-30516904D02*
X94259318Y-31303095D01*
D12*
%TO.C,J1*%
X83170000Y-57680000D02*
X83170000Y-53680000D01*
X83460000Y-58710000D02*
X83460000Y-52690000D01*
X83460000Y-52690000D02*
X104000000Y-52690000D01*
X84040000Y-58710000D02*
X84040000Y-58110000D01*
X84040000Y-58110000D02*
X85640000Y-58110000D01*
X84840000Y-53690000D02*
X85090000Y-54220000D01*
X84840000Y-53690000D02*
X89920000Y-53690000D01*
X84840000Y-52690000D02*
X84840000Y-53690000D01*
X85090000Y-54220000D02*
X89920000Y-54220000D01*
X85090000Y-52690000D02*
X85090000Y-53690000D01*
X85640000Y-58110000D02*
X85640000Y-58710000D01*
X86580000Y-58710000D02*
X86580000Y-58110000D01*
X86580000Y-58110000D02*
X88180000Y-58110000D01*
X88180000Y-58110000D02*
X88180000Y-58710000D01*
X89120000Y-58710000D02*
X89120000Y-58110000D01*
X89120000Y-58110000D02*
X90720000Y-58110000D01*
X89920000Y-54220000D02*
X89920000Y-53690000D01*
X89920000Y-53690000D02*
X89920000Y-52690000D01*
X90720000Y-58110000D02*
X90720000Y-58710000D01*
X91660000Y-58710000D02*
X91660000Y-58110000D01*
X91660000Y-58110000D02*
X93260000Y-58110000D01*
X93260000Y-58110000D02*
X93260000Y-58710000D01*
X94200000Y-58710000D02*
X94200000Y-58110000D01*
X94200000Y-58110000D02*
X95800000Y-58110000D01*
X95800000Y-58110000D02*
X95800000Y-58710000D01*
X96740000Y-58710000D02*
X96740000Y-58110000D01*
X96740000Y-58110000D02*
X98340000Y-58110000D01*
X97540000Y-54220000D02*
X97540000Y-53690000D01*
X97540000Y-53690000D02*
X97540000Y-52690000D01*
X98340000Y-58110000D02*
X98340000Y-58710000D01*
X99280000Y-58710000D02*
X99280000Y-58110000D01*
X99280000Y-58110000D02*
X100880000Y-58110000D01*
X100880000Y-58110000D02*
X100880000Y-58710000D01*
X101820000Y-58710000D02*
X101820000Y-58110000D01*
X101820000Y-58110000D02*
X103420000Y-58110000D01*
X102370000Y-54220000D02*
X97540000Y-54220000D01*
X102370000Y-52690000D02*
X102370000Y-53690000D01*
X102620000Y-53690000D02*
X97540000Y-53690000D01*
X102620000Y-53690000D02*
X102370000Y-54220000D01*
X102620000Y-52690000D02*
X102620000Y-53690000D01*
X103420000Y-58110000D02*
X103420000Y-58710000D01*
X104000000Y-58710000D02*
X83460000Y-58710000D01*
X104000000Y-52690000D02*
X104000000Y-58710000D01*
D13*
%TO.C,Q1*%
X76540000Y-35350000D02*
X72115000Y-35350000D01*
X76540000Y-35350000D02*
X76540000Y-31750000D01*
X70740000Y-34250000D02*
X70740000Y-31750000D01*
X76540000Y-25150000D02*
X76540000Y-28750000D01*
X76540000Y-25150000D02*
X70740000Y-25150000D01*
X70740000Y-25150000D02*
X70740000Y-28750000D01*
D12*
%TO.C,U3*%
X114690000Y-37090000D02*
G75*
G02*
X112690000Y-37090000I-1000000J0D01*
G01*
X111440000Y-47370000D02*
X111440000Y-37090000D01*
X111440000Y-37090000D02*
X112690000Y-37090000D01*
X114690000Y-37090000D02*
X115940000Y-37090000D01*
X115940000Y-47370000D02*
X111440000Y-47370000D01*
X115940000Y-37090000D02*
X115940000Y-47370000D01*
%TO.C,U2*%
X94690000Y-37050000D02*
G75*
G02*
X92690000Y-37050000I-1000000J0D01*
G01*
X91440000Y-47330000D02*
X91440000Y-37050000D01*
X91440000Y-37050000D02*
X92690000Y-37050000D01*
X94690000Y-37050000D02*
X95940000Y-37050000D01*
X95940000Y-47330000D02*
X91440000Y-47330000D01*
X95940000Y-37050000D02*
X95940000Y-47330000D01*
%TO.C,U1*%
X74690000Y-37050000D02*
G75*
G02*
X72690000Y-37050000I-1000000J0D01*
G01*
X71440000Y-47330000D02*
X71440000Y-37050000D01*
X71440000Y-37050000D02*
X72690000Y-37050000D01*
X74690000Y-37050000D02*
X75940000Y-37050000D01*
X75940000Y-47330000D02*
X71440000Y-47330000D01*
X75940000Y-37050000D02*
X75940000Y-47330000D01*
D13*
%TO.C,Q3*%
X110740000Y-25150000D02*
X110740000Y-28750000D01*
X116540000Y-25150000D02*
X110740000Y-25150000D01*
X116540000Y-25150000D02*
X116540000Y-28750000D01*
X110740000Y-34250000D02*
X110740000Y-31750000D01*
X116540000Y-35350000D02*
X116540000Y-31750000D01*
X116540000Y-35350000D02*
X112115000Y-35350000D01*
%TO.C,Q2*%
X96540000Y-35350000D02*
X92115000Y-35350000D01*
X96540000Y-35350000D02*
X96540000Y-31750000D01*
X90740000Y-34250000D02*
X90740000Y-31750000D01*
X96540000Y-25150000D02*
X96540000Y-28750000D01*
X96540000Y-25150000D02*
X90740000Y-25150000D01*
X90740000Y-25150000D02*
X90740000Y-28750000D01*
%TD*%
M02*
