%TF.GenerationSoftware,KiCad,Pcbnew,9.0.4*%
%TF.CreationDate,2026-02-19T09:19:54+00:00*%
%TF.ProjectId,Line following V2,4c696e65-2066-46f6-9c6c-6f77696e6720,rev?*%
%TF.SameCoordinates,Original*%
%TF.FileFunction,Soldermask,Bot*%
%TF.FilePolarity,Negative*%
%FSLAX46Y46*%
G04 Gerber Fmt 4.6, Leading zero omitted, Abs format (unit mm)*
G04 Created by KiCad (PCBNEW 9.0.4) date 2026-02-19 09:19:54*
%MOMM*%
%LPD*%
G01*
G04 APERTURE LIST*
G04 Aperture macros list*
%AMRoundRect*
0 Rectangle with rounded corners*
0 $1 Rounding radius*
0 $2 $3 $4 $5 $6 $7 $8 $9 X,Y pos of 4 corners*
0 Add a 4 corners polygon primitive as box body*
4,1,4,$2,$3,$4,$5,$6,$7,$8,$9,$2,$3,0*
0 Add four circle primitives for the rounded corners*
1,1,$1+$1,$2,$3*
1,1,$1+$1,$4,$5*
1,1,$1+$1,$6,$7*
1,1,$1+$1,$8,$9*
0 Add four rect primitives between the rounded corners*
20,1,$1+$1,$2,$3,$4,$5,0*
20,1,$1+$1,$4,$5,$6,$7,0*
20,1,$1+$1,$6,$7,$8,$9,0*
20,1,$1+$1,$8,$9,$2,$3,0*%
G04 Aperture macros list end*
%ADD10RoundRect,0.250000X-0.620000X-0.845000X0.620000X-0.845000X0.620000X0.845000X-0.620000X0.845000X0*%
%ADD11O,1.740000X2.190000*%
%ADD12C,1.000000*%
%ADD13C,2.500000*%
%ADD14R,2.000000X2.000000*%
%ADD15C,2.000000*%
%ADD16O,2.400000X1.600000*%
%ADD17RoundRect,0.250000X0.950000X0.550000X-0.950000X0.550000X-0.950000X-0.550000X0.950000X-0.550000X0*%
%ADD18C,9.200000*%
%ADD19C,5.700000*%
G04 APERTURE END LIST*
D10*
%TO.C,J1*%
X84840000Y-55680000D03*
D11*
X87380000Y-55680000D03*
X89920000Y-55680000D03*
X92460000Y-55680000D03*
X95000000Y-55680000D03*
X97540000Y-55680000D03*
X100080000Y-55680000D03*
X102620000Y-55680000D03*
%TD*%
D12*
%TO.C,Q1*%
X71190000Y-34900000D03*
D13*
X76180000Y-30250000D03*
X71190000Y-30250000D03*
D14*
X74910000Y-33000000D03*
D15*
X72370000Y-33000000D03*
X72370000Y-27500000D03*
X74910000Y-27500000D03*
%TD*%
D16*
%TO.C,U3*%
X109880000Y-38420000D03*
X109880000Y-40960000D03*
X109880000Y-43500000D03*
X109880000Y-46040000D03*
X117500000Y-46040000D03*
X117500000Y-43500000D03*
X117500000Y-40960000D03*
D17*
X117500000Y-38420000D03*
%TD*%
D16*
%TO.C,U2*%
X89880000Y-38380000D03*
X89880000Y-40920000D03*
X89880000Y-43460000D03*
X89880000Y-46000000D03*
X97500000Y-46000000D03*
X97500000Y-43460000D03*
X97500000Y-40920000D03*
D17*
X97500000Y-38380000D03*
%TD*%
D16*
%TO.C,U1*%
X69880000Y-38380000D03*
X69880000Y-40920000D03*
X69880000Y-43460000D03*
X69880000Y-46000000D03*
X77500000Y-46000000D03*
X77500000Y-43460000D03*
X77500000Y-40920000D03*
D17*
X77500000Y-38380000D03*
%TD*%
D18*
%TO.C,H2*%
X72685000Y-55500000D03*
D19*
X72685000Y-55500000D03*
%TD*%
%TO.C,H1*%
X114685000Y-55500000D03*
D18*
X114685000Y-55500000D03*
%TD*%
D15*
%TO.C,Q3*%
X114910000Y-27500000D03*
X112370000Y-27500000D03*
X112370000Y-33000000D03*
D14*
X114910000Y-33000000D03*
D13*
X111190000Y-30250000D03*
X116180000Y-30250000D03*
D12*
X111190000Y-34900000D03*
%TD*%
%TO.C,Q2*%
X91190000Y-34900000D03*
D13*
X96180000Y-30250000D03*
X91190000Y-30250000D03*
D14*
X94910000Y-33000000D03*
D15*
X92370000Y-33000000D03*
X92370000Y-27500000D03*
X94910000Y-27500000D03*
%TD*%
M02*
