%TF.GenerationSoftware,KiCad,Pcbnew,9.0.4*%
%TF.CreationDate,2026-02-19T09:19:53+00:00*%
%TF.ProjectId,Line following V2,4c696e65-2066-46f6-9c6c-6f77696e6720,rev?*%
%TF.SameCoordinates,Original*%
%TF.FileFunction,Copper,L1,Top*%
%TF.FilePolarity,Positive*%
%FSLAX46Y46*%
G04 Gerber Fmt 4.6, Leading zero omitted, Abs format (unit mm)*
G04 Created by KiCad (PCBNEW 9.0.4) date 2026-02-19 09:19:53*
%MOMM*%
%LPD*%
G01*
G04 APERTURE LIST*
G04 Aperture macros list*
%AMRoundRect*
0 Rectangle with rounded corners*
0 $1 Rounding radius*
0 $2 $3 $4 $5 $6 $7 $8 $9 X,Y pos of 4 corners*
0 Add a 4 corners polygon primitive as box body*
4,1,4,$2,$3,$4,$5,$6,$7,$8,$9,$2,$3,0*
0 Add four circle primitives for the rounded corners*
1,1,$1+$1,$2,$3*
1,1,$1+$1,$4,$5*
1,1,$1+$1,$6,$7*
1,1,$1+$1,$8,$9*
0 Add four rect primitives between the rounded corners*
20,1,$1+$1,$2,$3,$4,$5,0*
20,1,$1+$1,$4,$5,$6,$7,0*
20,1,$1+$1,$6,$7,$8,$9,0*
20,1,$1+$1,$8,$9,$2,$3,0*%
G04 Aperture macros list end*
%TA.AperFunction,ComponentPad*%
%ADD10RoundRect,0.250000X-0.620000X-0.845000X0.620000X-0.845000X0.620000X0.845000X-0.620000X0.845000X0*%
%TD*%
%TA.AperFunction,ComponentPad*%
%ADD11O,1.740000X2.190000*%
%TD*%
%TA.AperFunction,SMDPad,CuDef*%
%ADD12RoundRect,0.250000X0.350000X0.450000X-0.350000X0.450000X-0.350000X-0.450000X0.350000X-0.450000X0*%
%TD*%
%TA.AperFunction,SMDPad,CuDef*%
%ADD13RoundRect,0.250000X-0.337500X-0.475000X0.337500X-0.475000X0.337500X0.475000X-0.337500X0.475000X0*%
%TD*%
%TA.AperFunction,SMDPad,CuDef*%
%ADD14RoundRect,0.250000X0.475000X-0.337500X0.475000X0.337500X-0.475000X0.337500X-0.475000X-0.337500X0*%
%TD*%
%TA.AperFunction,SMDPad,CuDef*%
%ADD15RoundRect,0.250000X0.450000X-0.350000X0.450000X0.350000X-0.450000X0.350000X-0.450000X-0.350000X0*%
%TD*%
%TA.AperFunction,ComponentPad*%
%ADD16R,2.000000X2.000000*%
%TD*%
%TA.AperFunction,ComponentPad*%
%ADD17C,2.000000*%
%TD*%
%TA.AperFunction,SMDPad,CuDef*%
%ADD18RoundRect,0.250000X-0.350000X-0.450000X0.350000X-0.450000X0.350000X0.450000X-0.350000X0.450000X0*%
%TD*%
%TA.AperFunction,ComponentPad*%
%ADD19O,2.400000X1.600000*%
%TD*%
%TA.AperFunction,ComponentPad*%
%ADD20RoundRect,0.250000X0.950000X0.550000X-0.950000X0.550000X-0.950000X-0.550000X0.950000X-0.550000X0*%
%TD*%
%TA.AperFunction,ConnectorPad*%
%ADD21C,9.200000*%
%TD*%
%TA.AperFunction,ComponentPad*%
%ADD22C,5.700000*%
%TD*%
%TA.AperFunction,ViaPad*%
%ADD23C,2.000000*%
%TD*%
%TA.AperFunction,Conductor*%
%ADD24C,0.600000*%
%TD*%
G04 APERTURE END LIST*
D10*
%TO.P,J1,1,Pin_1*%
%TO.N,GND*%
X84840000Y-55680000D03*
D11*
%TO.P,J1,2,Pin_2*%
%TO.N,+5V*%
X87380000Y-55680000D03*
%TO.P,J1,3,Pin_3*%
%TO.N,Output_L*%
X89920000Y-55680000D03*
%TO.P,J1,4,Pin_4*%
%TO.N,Output_C*%
X92460000Y-55680000D03*
%TO.P,J1,5,Pin_5*%
%TO.N,Output_R*%
X95000000Y-55680000D03*
%TO.P,J1,6,Pin_6*%
%TO.N,+3.3V*%
X97540000Y-55680000D03*
%TO.P,J1,7,Pin_7*%
%TO.N,Threshold*%
X100080000Y-55680000D03*
%TO.P,J1,8,Pin_8*%
%TO.N,GND*%
X102620000Y-55680000D03*
%TD*%
D12*
%TO.P,R12,1*%
%TO.N,+5V*%
X114690000Y-42500000D03*
%TO.P,R12,2*%
%TO.N,Net-(U3-STRB)*%
X112690000Y-42500000D03*
%TD*%
%TO.P,R11,1*%
%TO.N,+5V*%
X94810000Y-43000000D03*
%TO.P,R11,2*%
%TO.N,Net-(U2-STRB)*%
X92810000Y-43000000D03*
%TD*%
%TO.P,R10,1*%
%TO.N,+5V*%
X74740000Y-43000000D03*
%TO.P,R10,2*%
%TO.N,Net-(U1-STRB)*%
X72740000Y-43000000D03*
%TD*%
D13*
%TO.P,C1,1*%
%TO.N,GND*%
X85212500Y-52550000D03*
%TO.P,C1,2*%
%TO.N,+5V*%
X87287500Y-52550000D03*
%TD*%
D14*
%TO.P,C2,1*%
%TO.N,GND*%
X97575000Y-59987500D03*
%TO.P,C2,2*%
%TO.N,+3.3V*%
X97575000Y-57912500D03*
%TD*%
D15*
%TO.P,R6,1*%
%TO.N,+3.3V*%
X92500000Y-59600000D03*
%TO.P,R6,2*%
%TO.N,Output_C*%
X92500000Y-57600000D03*
%TD*%
D12*
%TO.P,R3,1*%
%TO.N,+3.3V*%
X92650000Y-53050000D03*
%TO.P,R3,2*%
%TO.N,Output_L*%
X90650000Y-53050000D03*
%TD*%
D15*
%TO.P,R9,1*%
%TO.N,+3.3V*%
X94800000Y-59600000D03*
%TO.P,R9,2*%
%TO.N,Output_R*%
X94800000Y-57600000D03*
%TD*%
D16*
%TO.P,Q1,1,C*%
%TO.N,Net-(Q1-C)*%
X74910000Y-33000000D03*
D17*
%TO.P,Q1,2,E*%
%TO.N,GND*%
X72370000Y-33000000D03*
%TO.P,Q1,3,K*%
X72370000Y-27500000D03*
%TO.P,Q1,4,A*%
%TO.N,Net-(Q1-A)*%
X74910000Y-27500000D03*
%TD*%
D18*
%TO.P,R1,2*%
%TO.N,Net-(Q1-A)*%
X74750000Y-25000000D03*
%TO.P,R1,1*%
%TO.N,+5V*%
X72750000Y-25000000D03*
%TD*%
D19*
%TO.P,U3,8,V+*%
%TO.N,+5V*%
X109880000Y-38420000D03*
%TO.P,U3,7*%
%TO.N,Output_R*%
X109880000Y-40960000D03*
%TO.P,U3,6,STRB*%
%TO.N,Net-(U3-STRB)*%
X109880000Y-43500000D03*
%TO.P,U3,5,BAL*%
%TO.N,unconnected-(U3-BAL-Pad5)*%
X109880000Y-46040000D03*
%TO.P,U3,4,V-*%
%TO.N,GND*%
X117500000Y-46040000D03*
%TO.P,U3,3,-*%
%TO.N,Threshold*%
X117500000Y-43500000D03*
%TO.P,U3,2,+*%
%TO.N,Net-(Q3-C)*%
X117500000Y-40960000D03*
D20*
%TO.P,U3,1,GND*%
%TO.N,GND*%
X117500000Y-38420000D03*
%TD*%
D19*
%TO.P,U2,8,V+*%
%TO.N,+5V*%
X89880000Y-38380000D03*
%TO.P,U2,7*%
%TO.N,Output_C*%
X89880000Y-40920000D03*
%TO.P,U2,6,STRB*%
%TO.N,Net-(U2-STRB)*%
X89880000Y-43460000D03*
%TO.P,U2,5,BAL*%
%TO.N,unconnected-(U2-BAL-Pad5)*%
X89880000Y-46000000D03*
%TO.P,U2,4,V-*%
%TO.N,GND*%
X97500000Y-46000000D03*
%TO.P,U2,3,-*%
%TO.N,Threshold*%
X97500000Y-43460000D03*
%TO.P,U2,2,+*%
%TO.N,Net-(Q2-C)*%
X97500000Y-40920000D03*
D20*
%TO.P,U2,1,GND*%
%TO.N,GND*%
X97500000Y-38380000D03*
%TD*%
D19*
%TO.P,U1,8,V+*%
%TO.N,+5V*%
X69880000Y-38380000D03*
%TO.P,U1,7*%
%TO.N,Output_L*%
X69880000Y-40920000D03*
%TO.P,U1,6,STRB*%
%TO.N,Net-(U1-STRB)*%
X69880000Y-43460000D03*
%TO.P,U1,5,BAL*%
%TO.N,unconnected-(U1-BAL-Pad5)*%
X69880000Y-46000000D03*
%TO.P,U1,4,V-*%
%TO.N,GND*%
X77500000Y-46000000D03*
%TO.P,U1,3,-*%
%TO.N,Threshold*%
X77500000Y-43460000D03*
%TO.P,U1,2,+*%
%TO.N,Net-(Q1-C)*%
X77500000Y-40920000D03*
D20*
%TO.P,U1,1,GND*%
%TO.N,GND*%
X77500000Y-38380000D03*
%TD*%
D18*
%TO.P,R8,2*%
%TO.N,Net-(Q3-C)*%
X114690000Y-39730000D03*
%TO.P,R8,1*%
%TO.N,+5V*%
X112690000Y-39730000D03*
%TD*%
%TO.P,R7,1*%
%TO.N,+5V*%
X112500000Y-25000000D03*
%TO.P,R7,2*%
%TO.N,Net-(Q3-A)*%
X114500000Y-25000000D03*
%TD*%
%TO.P,R5,2*%
%TO.N,Net-(Q2-C)*%
X94810000Y-39880000D03*
%TO.P,R5,1*%
%TO.N,+5V*%
X92810000Y-39880000D03*
%TD*%
%TO.P,R4,1*%
%TO.N,+5V*%
X92500000Y-25000000D03*
%TO.P,R4,2*%
%TO.N,Net-(Q2-A)*%
X94500000Y-25000000D03*
%TD*%
%TO.P,R2,2*%
%TO.N,Net-(Q1-C)*%
X74740000Y-39380000D03*
%TO.P,R2,1*%
%TO.N,+5V*%
X72740000Y-39380000D03*
%TD*%
D21*
%TO.P,H2,1,1*%
%TO.N,GND*%
X72685000Y-55500000D03*
D22*
X72685000Y-55500000D03*
%TD*%
%TO.P,H1,1,1*%
%TO.N,GND*%
X114685000Y-55500000D03*
D21*
X114685000Y-55500000D03*
%TD*%
D17*
%TO.P,Q3,4,A*%
%TO.N,Net-(Q3-A)*%
X114910000Y-27500000D03*
%TO.P,Q3,3,K*%
%TO.N,GND*%
X112370000Y-27500000D03*
%TO.P,Q3,2,E*%
X112370000Y-33000000D03*
D16*
%TO.P,Q3,1,C*%
%TO.N,Net-(Q3-C)*%
X114910000Y-33000000D03*
%TD*%
%TO.P,Q2,1,C*%
%TO.N,Net-(Q2-C)*%
X94910000Y-33000000D03*
D17*
%TO.P,Q2,2,E*%
%TO.N,GND*%
X92370000Y-33000000D03*
%TO.P,Q2,3,K*%
X92370000Y-27500000D03*
%TO.P,Q2,4,A*%
%TO.N,Net-(Q2-A)*%
X94910000Y-27500000D03*
%TD*%
D23*
%TO.N,Output_R*%
X107200000Y-41075000D03*
X95200000Y-53100000D03*
%TO.N,GND*%
X104500000Y-42700000D03*
X113830000Y-35930000D03*
X93570000Y-35820000D03*
X83400000Y-42400000D03*
X73840000Y-35870000D03*
%TO.N,+5V*%
X109500000Y-25000000D03*
X70000000Y-25000000D03*
X89800000Y-25000000D03*
%TD*%
D24*
%TO.N,Threshold*%
X119900000Y-43500000D02*
X117500000Y-43500000D01*
X120700000Y-44300000D02*
X119900000Y-43500000D01*
X120700000Y-46542950D02*
X120700000Y-44300000D01*
X108183000Y-54934950D02*
X108183000Y-52806782D01*
X102625000Y-58450000D02*
X104667950Y-58450000D01*
X118244950Y-48998000D02*
X120700000Y-46542950D01*
X100080000Y-55905000D02*
X102625000Y-58450000D01*
X108183000Y-52806782D02*
X111991783Y-48998000D01*
X100080000Y-55680000D02*
X100080000Y-55905000D01*
X104667950Y-58450000D02*
X108183000Y-54934950D01*
X111991783Y-48998000D02*
X118244950Y-48998000D01*
%TO.N,+5V*%
X89800000Y-25000000D02*
X92500000Y-25000000D01*
X89139000Y-25661000D02*
X89800000Y-25000000D01*
X89139000Y-27761000D02*
X89139000Y-25661000D01*
%TO.N,Output_R*%
X94800000Y-55880000D02*
X95000000Y-55680000D01*
X94800000Y-57600000D02*
X94800000Y-55880000D01*
%TO.N,Output_C*%
X92460000Y-57560000D02*
X92500000Y-57600000D01*
X92460000Y-55680000D02*
X92460000Y-57560000D01*
X92176000Y-57600000D02*
X92500000Y-57600000D01*
X89351000Y-60425000D02*
X92176000Y-57600000D01*
X82950000Y-60425000D02*
X89351000Y-60425000D01*
X78650000Y-56125000D02*
X82950000Y-60425000D01*
X75721746Y-50000000D02*
X78650000Y-52928254D01*
X69658794Y-50000000D02*
X75721746Y-50000000D01*
X66778000Y-47119206D02*
X69658794Y-50000000D01*
X66778000Y-39601000D02*
X66778000Y-47119206D01*
X67879000Y-38500000D02*
X66778000Y-39601000D01*
X87500000Y-35456734D02*
X75242266Y-23199000D01*
X75242266Y-23199000D02*
X69254001Y-23199000D01*
X69254001Y-23199000D02*
X67879000Y-24574001D01*
X87500000Y-39540000D02*
X87500000Y-35456734D01*
X88880000Y-40920000D02*
X87500000Y-39540000D01*
X89880000Y-40920000D02*
X88880000Y-40920000D01*
X78650000Y-52928254D02*
X78650000Y-56125000D01*
X67879000Y-24574001D02*
X67879000Y-38500000D01*
%TO.N,+3.3V*%
X94800000Y-59600000D02*
X92500000Y-59600000D01*
X95093266Y-59600000D02*
X94800000Y-59600000D01*
X96780766Y-57912500D02*
X95093266Y-59600000D01*
X97575000Y-57912500D02*
X96780766Y-57912500D01*
%TO.N,Threshold*%
X93944951Y-50198000D02*
X96402048Y-50198000D01*
X99110000Y-50200000D02*
X100080000Y-51170000D01*
X86375000Y-50200000D02*
X93942950Y-50200000D01*
X79635000Y-43460000D02*
X86375000Y-50200000D01*
X93942950Y-50200000D02*
X93944951Y-50198000D01*
X96404049Y-50200000D02*
X99110000Y-50200000D01*
X77500000Y-43460000D02*
X79635000Y-43460000D01*
X96402048Y-50198000D02*
X96404049Y-50200000D01*
%TO.N,+3.3V*%
X97540000Y-52893001D02*
X97540000Y-53640000D01*
X95945999Y-51299000D02*
X97540000Y-52893001D01*
X94401000Y-51299000D02*
X95945999Y-51299000D01*
X92650000Y-53050000D02*
X94401000Y-51299000D01*
%TO.N,Output_R*%
X95200000Y-55480000D02*
X95000000Y-55680000D01*
X95200000Y-53100000D02*
X95200000Y-55480000D01*
X107315000Y-40960000D02*
X109880000Y-40960000D01*
X107200000Y-41075000D02*
X107315000Y-40960000D01*
%TO.N,+5V*%
X87179000Y-57576000D02*
X87380000Y-57375000D01*
X80852000Y-52016156D02*
X80852000Y-54650265D01*
X75777999Y-47797999D02*
X76633846Y-47798001D01*
X74280000Y-46300000D02*
X75777999Y-47797999D01*
X83777734Y-57576000D02*
X87179000Y-57576000D01*
X74280000Y-43460000D02*
X74280000Y-46300000D01*
X80852000Y-54650265D02*
X83777734Y-57576000D01*
X74740000Y-43000000D02*
X74280000Y-43460000D01*
X87380000Y-57375000D02*
X87380000Y-55680000D01*
X76633846Y-47798001D02*
X80852000Y-52016156D01*
%TO.N,Output_L*%
X89920000Y-56392050D02*
X89920000Y-55680000D01*
X87635050Y-58677000D02*
X89920000Y-56392050D01*
X83321685Y-58677000D02*
X87635050Y-58677000D01*
X79751000Y-52472205D02*
X79751000Y-55106315D01*
X67879000Y-41921000D02*
X67879000Y-46663156D01*
X79751000Y-55106315D02*
X83321685Y-58677000D01*
X68880000Y-40920000D02*
X67879000Y-41921000D01*
X69880000Y-40920000D02*
X68880000Y-40920000D01*
X67879000Y-46663156D02*
X70114844Y-48899000D01*
X70114844Y-48899000D02*
X76177796Y-48899000D01*
X76177796Y-48899000D02*
X79751000Y-52472205D01*
%TO.N,+5V*%
X87287500Y-55587500D02*
X87380000Y-55680000D01*
X87287500Y-52550000D02*
X87287500Y-55587500D01*
%TO.N,+3.3V*%
X97540000Y-55680000D02*
X97540000Y-53640000D01*
X97575000Y-55715000D02*
X97540000Y-55680000D01*
X97575000Y-57912500D02*
X97575000Y-55715000D01*
%TO.N,Threshold*%
X100080000Y-49580000D02*
X100080000Y-55680000D01*
X101270000Y-48390000D02*
X100080000Y-49580000D01*
%TO.N,GND*%
X72800000Y-33430000D02*
X72800000Y-34830000D01*
X72370000Y-33000000D02*
X72800000Y-33430000D01*
X72800000Y-34830000D02*
X73840000Y-35870000D01*
X112491000Y-33121000D02*
X112491000Y-34591000D01*
X112370000Y-33000000D02*
X112491000Y-33121000D01*
X112491000Y-34591000D02*
X113830000Y-35930000D01*
X92491000Y-34741000D02*
X93570000Y-35820000D01*
X92491000Y-33121000D02*
X92491000Y-34741000D01*
X92370000Y-33000000D02*
X92491000Y-33121000D01*
%TO.N,Threshold*%
X101270000Y-45270000D02*
X101270000Y-48390000D01*
X99460000Y-43460000D02*
X101270000Y-45270000D01*
X97500000Y-43460000D02*
X99460000Y-43460000D01*
%TO.N,Net-(Q2-C)*%
X99501000Y-39919000D02*
X98500000Y-40920000D01*
X99501000Y-37387734D02*
X99501000Y-39919000D01*
X97703266Y-35590000D02*
X99501000Y-37387734D01*
X94910000Y-34030000D02*
X96470000Y-35590000D01*
X94910000Y-33000000D02*
X94910000Y-34030000D01*
X96470000Y-35590000D02*
X97703266Y-35590000D01*
X98500000Y-40920000D02*
X97500000Y-40920000D01*
%TO.N,Net-(Q1-C)*%
X79580000Y-39840000D02*
X78500000Y-40920000D01*
X79580000Y-37466734D02*
X79580000Y-39840000D01*
X78500000Y-40920000D02*
X77500000Y-40920000D01*
X75113266Y-33000000D02*
X79580000Y-37466734D01*
X74910000Y-33000000D02*
X75113266Y-33000000D01*
%TO.N,+5V*%
X109500000Y-25000000D02*
X112500000Y-25000000D01*
%TO.N,Threshold*%
X97040000Y-43460000D02*
X97500000Y-43460000D01*
%TO.N,+5V*%
X92810000Y-40706734D02*
X92810000Y-39880000D01*
X94810000Y-42706734D02*
X92810000Y-40706734D01*
X94810000Y-43000000D02*
X94810000Y-42706734D01*
X109880000Y-38420000D02*
X108880000Y-38420000D01*
X69139000Y-28500000D02*
X69139000Y-25861000D01*
X69139000Y-25861000D02*
X70000000Y-25000000D01*
X69139000Y-28500000D02*
X69139000Y-37639000D01*
X69139000Y-28011000D02*
X69139000Y-28500000D01*
X72150000Y-25000000D02*
X69139000Y-28011000D01*
X69139000Y-37639000D02*
X69880000Y-38380000D01*
X72750000Y-25000000D02*
X72150000Y-25000000D01*
X109000000Y-27900000D02*
X111900000Y-25000000D01*
X109000000Y-37540000D02*
X109000000Y-27900000D01*
X111900000Y-25000000D02*
X112500000Y-25000000D01*
X109880000Y-38420000D02*
X109000000Y-37540000D01*
X89139000Y-37639000D02*
X89139000Y-27761000D01*
X89880000Y-38380000D02*
X89139000Y-37639000D01*
%TO.N,Net-(U2-STRB)*%
X92350000Y-43460000D02*
X92810000Y-43000000D01*
X89880000Y-43460000D02*
X92350000Y-43460000D01*
%TO.N,Net-(U1-STRB)*%
X70340000Y-43000000D02*
X69880000Y-43460000D01*
X72740000Y-43000000D02*
X70340000Y-43000000D01*
%TO.N,+5V*%
X72740000Y-39673266D02*
X72740000Y-39380000D01*
X74740000Y-41673266D02*
X72740000Y-39673266D01*
X74740000Y-43000000D02*
X74740000Y-41673266D01*
%TO.N,Net-(U3-STRB)*%
X111690000Y-43500000D02*
X109880000Y-43500000D01*
X112690000Y-42500000D02*
X111690000Y-43500000D01*
%TO.N,+5V*%
X114690000Y-42190000D02*
X114690000Y-42500000D01*
X112690000Y-40190000D02*
X114690000Y-42190000D01*
X112690000Y-39730000D02*
X112690000Y-40190000D01*
%TO.N,Net-(Q3-A)*%
X114910000Y-25410000D02*
X114500000Y-25000000D01*
X114910000Y-27500000D02*
X114910000Y-25410000D01*
%TO.N,Net-(Q1-A)*%
X74910000Y-25160000D02*
X74750000Y-25000000D01*
X74910000Y-27500000D02*
X74910000Y-25160000D01*
%TO.N,Net-(Q2-A)*%
X94910000Y-25410000D02*
X94500000Y-25000000D01*
X94910000Y-27500000D02*
X94910000Y-25410000D01*
%TO.N,GND*%
X117500000Y-38420000D02*
X116728000Y-38420000D01*
%TO.N,Net-(Q3-C)*%
X118540000Y-40960000D02*
X117500000Y-40960000D01*
X119501000Y-39999000D02*
X118540000Y-40960000D01*
X115073266Y-33000000D02*
X119501000Y-37427734D01*
X114910000Y-33000000D02*
X115073266Y-33000000D01*
X119501000Y-37427734D02*
X119501000Y-39999000D01*
%TO.N,GND*%
X113370000Y-31229000D02*
X112370000Y-32229000D01*
X72370000Y-31970552D02*
X72370000Y-33000000D01*
X73241000Y-28371000D02*
X73241000Y-31099552D01*
X73241000Y-31099552D02*
X72370000Y-31970552D01*
X72370000Y-27500000D02*
X73241000Y-28371000D01*
X92370000Y-27500000D02*
X93370000Y-28500000D01*
X93370000Y-30970552D02*
X92370000Y-31970552D01*
X112370000Y-32229000D02*
X112370000Y-33000000D01*
%TO.N,+5V*%
X71740000Y-38380000D02*
X72740000Y-39380000D01*
X69880000Y-38380000D02*
X71740000Y-38380000D01*
%TO.N,GND*%
X112370000Y-27500000D02*
X113370000Y-28500000D01*
%TO.N,Net-(Q1-C)*%
X74740000Y-39380000D02*
X76280000Y-40920000D01*
%TO.N,Net-(Q3-C)*%
X114690000Y-39730000D02*
X115920000Y-40960000D01*
%TO.N,Net-(Q2-C)*%
X94810000Y-39880000D02*
X95850000Y-40920000D01*
X95850000Y-40920000D02*
X97500000Y-40920000D01*
%TO.N,GND*%
X93370000Y-28500000D02*
X93370000Y-30970552D01*
%TO.N,+5V*%
X112690000Y-39730000D02*
X111380000Y-38420000D01*
%TO.N,GND*%
X113370000Y-28500000D02*
X113370000Y-31229000D01*
X92370000Y-31970552D02*
X92370000Y-33000000D01*
%TO.N,+5V*%
X91310000Y-38380000D02*
X92810000Y-39880000D01*
X89880000Y-38380000D02*
X91310000Y-38380000D01*
X111380000Y-38420000D02*
X109880000Y-38420000D01*
%TO.N,Net-(Q3-C)*%
X115920000Y-40960000D02*
X117500000Y-40960000D01*
%TO.N,Net-(Q1-C)*%
X76280000Y-40920000D02*
X77500000Y-40920000D01*
%TO.N,Output_L*%
X89920000Y-55680000D02*
X89920000Y-53780000D01*
X89920000Y-53780000D02*
X90650000Y-53050000D01*
%TD*%
%TA.AperFunction,Conductor*%
%TO.N,GND*%
G36*
X79319099Y-44280185D02*
G01*
X79339741Y-44296819D01*
X85753211Y-50710289D01*
X85864711Y-50821789D01*
X85995821Y-50909394D01*
X86098833Y-50952062D01*
X86141502Y-50969737D01*
X86296152Y-51000499D01*
X86296155Y-51000500D01*
X86296157Y-51000500D01*
X86296158Y-51000500D01*
X93268060Y-51000500D01*
X93335099Y-51020185D01*
X93380854Y-51072989D01*
X93390798Y-51142147D01*
X93361773Y-51205703D01*
X93355741Y-51212181D01*
X92754739Y-51813181D01*
X92693416Y-51846666D01*
X92667058Y-51849500D01*
X92249998Y-51849500D01*
X92249980Y-51849501D01*
X92147203Y-51860000D01*
X92147200Y-51860001D01*
X91980668Y-51915185D01*
X91980663Y-51915187D01*
X91831342Y-52007289D01*
X91737681Y-52100951D01*
X91676358Y-52134436D01*
X91606666Y-52129452D01*
X91562319Y-52100951D01*
X91468657Y-52007289D01*
X91468656Y-52007288D01*
X91375888Y-51950069D01*
X91319336Y-51915187D01*
X91319331Y-51915185D01*
X91292753Y-51906378D01*
X91152797Y-51860001D01*
X91152795Y-51860000D01*
X91050010Y-51849500D01*
X90249998Y-51849500D01*
X90249980Y-51849501D01*
X90147203Y-51860000D01*
X90147200Y-51860001D01*
X89980668Y-51915185D01*
X89980663Y-51915187D01*
X89831342Y-52007289D01*
X89707289Y-52131342D01*
X89615187Y-52280663D01*
X89615185Y-52280668D01*
X89609941Y-52296493D01*
X89560001Y-52447203D01*
X89560001Y-52447204D01*
X89560000Y-52447204D01*
X89549500Y-52549983D01*
X89549500Y-52967058D01*
X89540854Y-52996501D01*
X89534332Y-53026484D01*
X89530577Y-53031499D01*
X89529815Y-53034097D01*
X89513182Y-53054739D01*
X89409711Y-53158211D01*
X89409708Y-53158212D01*
X89298213Y-53269707D01*
X89298210Y-53269711D01*
X89210609Y-53400814D01*
X89210602Y-53400827D01*
X89150264Y-53546498D01*
X89150261Y-53546510D01*
X89119500Y-53701153D01*
X89119500Y-54279384D01*
X89099815Y-54346423D01*
X89068387Y-54379701D01*
X89027179Y-54409640D01*
X88874643Y-54562176D01*
X88874643Y-54562177D01*
X88874641Y-54562179D01*
X88818325Y-54639691D01*
X88750318Y-54733294D01*
X88694988Y-54775959D01*
X88625374Y-54781938D01*
X88563579Y-54749332D01*
X88549682Y-54733294D01*
X88512639Y-54682309D01*
X88425359Y-54562179D01*
X88272821Y-54409641D01*
X88139113Y-54312496D01*
X88096449Y-54257167D01*
X88088000Y-54212179D01*
X88088000Y-53674730D01*
X88107685Y-53607691D01*
X88124319Y-53587049D01*
X88164870Y-53546498D01*
X88217712Y-53493656D01*
X88309814Y-53344334D01*
X88364999Y-53177797D01*
X88375500Y-53075009D01*
X88375499Y-52024992D01*
X88364999Y-51922203D01*
X88309814Y-51755666D01*
X88217712Y-51606344D01*
X88093656Y-51482288D01*
X87944334Y-51390186D01*
X87777797Y-51335001D01*
X87777795Y-51335000D01*
X87675010Y-51324500D01*
X86899998Y-51324500D01*
X86899980Y-51324501D01*
X86797203Y-51335000D01*
X86797200Y-51335001D01*
X86630668Y-51390185D01*
X86630663Y-51390187D01*
X86481342Y-51482289D01*
X86357288Y-51606343D01*
X86357283Y-51606349D01*
X86355241Y-51609661D01*
X86353247Y-51611453D01*
X86352807Y-51612011D01*
X86352711Y-51611935D01*
X86303291Y-51656383D01*
X86234328Y-51667602D01*
X86170247Y-51639755D01*
X86144168Y-51609656D01*
X86142319Y-51606659D01*
X86142316Y-51606655D01*
X86018345Y-51482684D01*
X85869124Y-51390643D01*
X85869119Y-51390641D01*
X85702697Y-51335494D01*
X85702690Y-51335493D01*
X85599986Y-51325000D01*
X85462500Y-51325000D01*
X85462500Y-53774999D01*
X85599972Y-53774999D01*
X85599986Y-53774998D01*
X85702697Y-53764505D01*
X85869119Y-53709358D01*
X85869124Y-53709356D01*
X86018345Y-53617315D01*
X86142318Y-53493342D01*
X86144165Y-53490348D01*
X86145969Y-53488724D01*
X86146798Y-53487677D01*
X86146976Y-53487818D01*
X86196110Y-53443621D01*
X86265073Y-53432396D01*
X86329156Y-53460236D01*
X86339618Y-53470048D01*
X86348485Y-53479384D01*
X86357288Y-53493656D01*
X86451816Y-53588184D01*
X86452912Y-53589338D01*
X86468162Y-53619063D01*
X86484166Y-53648372D01*
X86484422Y-53650757D01*
X86484805Y-53651503D01*
X86484661Y-53652977D01*
X86487000Y-53674730D01*
X86487000Y-54358458D01*
X86467315Y-54425497D01*
X86450685Y-54446134D01*
X86381326Y-54515494D01*
X86344816Y-54552004D01*
X86283493Y-54585488D01*
X86213801Y-54580504D01*
X86157868Y-54538632D01*
X86144748Y-54516716D01*
X86144356Y-54515876D01*
X86052315Y-54366654D01*
X85928345Y-54242684D01*
X85779124Y-54150643D01*
X85779119Y-54150641D01*
X85612697Y-54095494D01*
X85612690Y-54095493D01*
X85509986Y-54085000D01*
X85090000Y-54085000D01*
X85090000Y-55137290D01*
X85069661Y-55125548D01*
X84918333Y-55085000D01*
X84761667Y-55085000D01*
X84610339Y-55125548D01*
X84590000Y-55137290D01*
X84590000Y-54085000D01*
X84170028Y-54085000D01*
X84170012Y-54085001D01*
X84067302Y-54095494D01*
X83900880Y-54150641D01*
X83900875Y-54150643D01*
X83751654Y-54242684D01*
X83627684Y-54366654D01*
X83535643Y-54515875D01*
X83535641Y-54515880D01*
X83480494Y-54682302D01*
X83480493Y-54682309D01*
X83470000Y-54785013D01*
X83470000Y-55430000D01*
X84297291Y-55430000D01*
X84285548Y-55450339D01*
X84245000Y-55601667D01*
X84245000Y-55758333D01*
X84285548Y-55909661D01*
X84297291Y-55930000D01*
X83470001Y-55930000D01*
X83454585Y-55945415D01*
X83393261Y-55978899D01*
X83323569Y-55973913D01*
X83279225Y-55945414D01*
X81688819Y-54355006D01*
X81655334Y-54293683D01*
X81652500Y-54267325D01*
X81652500Y-53074986D01*
X84125001Y-53074986D01*
X84135494Y-53177697D01*
X84190641Y-53344119D01*
X84190643Y-53344124D01*
X84282684Y-53493345D01*
X84406654Y-53617315D01*
X84555875Y-53709356D01*
X84555880Y-53709358D01*
X84722302Y-53764505D01*
X84722309Y-53764506D01*
X84825019Y-53774999D01*
X84962499Y-53774999D01*
X84962500Y-53774998D01*
X84962500Y-52800000D01*
X84125001Y-52800000D01*
X84125001Y-53074986D01*
X81652500Y-53074986D01*
X81652500Y-52025083D01*
X81652500Y-52025013D01*
X84125000Y-52025013D01*
X84125000Y-52300000D01*
X84962500Y-52300000D01*
X84962500Y-51325000D01*
X84825027Y-51325000D01*
X84825012Y-51325001D01*
X84722302Y-51335494D01*
X84555880Y-51390641D01*
X84555875Y-51390643D01*
X84406654Y-51482684D01*
X84282684Y-51606654D01*
X84190643Y-51755875D01*
X84190641Y-51755880D01*
X84135494Y-51922302D01*
X84135493Y-51922309D01*
X84125000Y-52025013D01*
X81652500Y-52025013D01*
X81652500Y-51937314D01*
X81648098Y-51915186D01*
X81621737Y-51782659D01*
X81608002Y-51749500D01*
X81561394Y-51636977D01*
X81561392Y-51636975D01*
X81561392Y-51636973D01*
X81473790Y-51505868D01*
X81433181Y-51465259D01*
X81362289Y-51394367D01*
X79331103Y-49363181D01*
X77286319Y-47318396D01*
X77252834Y-47257073D01*
X77250000Y-47230715D01*
X77250000Y-46315686D01*
X77254394Y-46320080D01*
X77345606Y-46372741D01*
X77447339Y-46400000D01*
X77552661Y-46400000D01*
X77654394Y-46372741D01*
X77745606Y-46320080D01*
X77750000Y-46315686D01*
X77750000Y-47300000D01*
X78002317Y-47300000D01*
X78204417Y-47267990D01*
X78399031Y-47204755D01*
X78581349Y-47111859D01*
X78746894Y-46991582D01*
X78746895Y-46991582D01*
X78891582Y-46846895D01*
X78891582Y-46846894D01*
X79011859Y-46681349D01*
X79104755Y-46499029D01*
X79167990Y-46304413D01*
X79176609Y-46250000D01*
X77815686Y-46250000D01*
X77820080Y-46245606D01*
X77872741Y-46154394D01*
X77900000Y-46052661D01*
X77900000Y-45947339D01*
X77872741Y-45845606D01*
X77820080Y-45754394D01*
X77815686Y-45750000D01*
X79176609Y-45750000D01*
X79167990Y-45695586D01*
X79104755Y-45500970D01*
X79011859Y-45318650D01*
X78891582Y-45153105D01*
X78891582Y-45153104D01*
X78746895Y-45008417D01*
X78581349Y-44888140D01*
X78488370Y-44840765D01*
X78437574Y-44792790D01*
X78420779Y-44724969D01*
X78443316Y-44658835D01*
X78488370Y-44619795D01*
X78488920Y-44619515D01*
X78581610Y-44572287D01*
X78602770Y-44556913D01*
X78747213Y-44451971D01*
X78747215Y-44451968D01*
X78747219Y-44451966D01*
X78891966Y-44307219D01*
X78891972Y-44307210D01*
X78894748Y-44303962D01*
X78953258Y-44265773D01*
X78989033Y-44260500D01*
X79252060Y-44260500D01*
X79319099Y-44280185D01*
G37*
%TD.AperFunction*%
%TA.AperFunction,Conductor*%
G36*
X76055701Y-25144960D02*
G01*
X76062180Y-25150992D01*
X86663181Y-35751993D01*
X86696666Y-35813316D01*
X86699500Y-35839674D01*
X86699500Y-39618846D01*
X86730261Y-39773489D01*
X86730264Y-39773501D01*
X86790602Y-39919172D01*
X86790609Y-39919185D01*
X86878210Y-40050288D01*
X86878213Y-40050292D01*
X88289603Y-41461681D01*
X88312407Y-41493067D01*
X88325227Y-41518227D01*
X88361496Y-41589409D01*
X88367715Y-41601613D01*
X88488028Y-41767213D01*
X88632786Y-41911971D01*
X88787749Y-42024556D01*
X88798390Y-42032287D01*
X88889840Y-42078883D01*
X88891080Y-42079515D01*
X88941876Y-42127490D01*
X88958671Y-42195311D01*
X88936134Y-42261446D01*
X88891080Y-42300485D01*
X88798386Y-42347715D01*
X88632786Y-42468028D01*
X88488028Y-42612786D01*
X88367715Y-42778386D01*
X88274781Y-42960776D01*
X88211522Y-43155465D01*
X88179500Y-43357648D01*
X88179500Y-43562351D01*
X88211522Y-43764534D01*
X88274781Y-43959223D01*
X88338691Y-44084653D01*
X88364250Y-44134814D01*
X88367715Y-44141613D01*
X88488028Y-44307213D01*
X88632786Y-44451971D01*
X88787749Y-44564556D01*
X88798390Y-44572287D01*
X88889840Y-44618883D01*
X88891080Y-44619515D01*
X88941876Y-44667490D01*
X88958671Y-44735311D01*
X88936134Y-44801446D01*
X88891080Y-44840485D01*
X88798386Y-44887715D01*
X88632786Y-45008028D01*
X88488028Y-45152786D01*
X88367715Y-45318386D01*
X88274781Y-45500776D01*
X88211522Y-45695465D01*
X88179500Y-45897648D01*
X88179500Y-46102351D01*
X88211522Y-46304534D01*
X88274781Y-46499223D01*
X88316573Y-46581242D01*
X88366477Y-46679185D01*
X88367715Y-46681613D01*
X88488028Y-46847213D01*
X88632786Y-46991971D01*
X88746450Y-47074551D01*
X88798390Y-47112287D01*
X88914607Y-47171503D01*
X88980776Y-47205218D01*
X88980778Y-47205218D01*
X88980781Y-47205220D01*
X89059247Y-47230715D01*
X89175465Y-47268477D01*
X89276557Y-47284488D01*
X89377648Y-47300500D01*
X89377649Y-47300500D01*
X90382351Y-47300500D01*
X90382352Y-47300500D01*
X90584534Y-47268477D01*
X90779219Y-47205220D01*
X90961610Y-47112287D01*
X91060604Y-47040364D01*
X91127213Y-46991971D01*
X91127215Y-46991968D01*
X91127219Y-46991966D01*
X91271966Y-46847219D01*
X91271968Y-46847215D01*
X91271971Y-46847213D01*
X91363223Y-46721613D01*
X91392287Y-46681610D01*
X91485220Y-46499219D01*
X91548477Y-46304534D01*
X91580500Y-46102352D01*
X91580500Y-45897648D01*
X91563450Y-45790000D01*
X91548477Y-45695465D01*
X91485218Y-45500776D01*
X91451503Y-45434607D01*
X91392287Y-45318390D01*
X91384556Y-45307749D01*
X91271971Y-45152786D01*
X91127213Y-45008028D01*
X90961614Y-44887715D01*
X90947424Y-44880485D01*
X90868917Y-44840483D01*
X90818123Y-44792511D01*
X90801328Y-44724690D01*
X90823865Y-44658555D01*
X90868917Y-44619516D01*
X90961610Y-44572287D01*
X90982770Y-44556913D01*
X91127213Y-44451971D01*
X91127215Y-44451968D01*
X91127219Y-44451966D01*
X91271966Y-44307219D01*
X91271972Y-44307210D01*
X91274748Y-44303962D01*
X91333258Y-44265773D01*
X91369033Y-44260500D01*
X92428844Y-44260500D01*
X92428845Y-44260499D01*
X92583497Y-44229737D01*
X92612467Y-44217736D01*
X92631296Y-44209938D01*
X92678749Y-44200499D01*
X93210002Y-44200499D01*
X93210008Y-44200499D01*
X93312797Y-44189999D01*
X93479334Y-44134814D01*
X93628656Y-44042712D01*
X93722319Y-43949049D01*
X93783642Y-43915564D01*
X93853334Y-43920548D01*
X93897681Y-43949049D01*
X93991344Y-44042712D01*
X94140666Y-44134814D01*
X94307203Y-44189999D01*
X94409991Y-44200500D01*
X95210008Y-44200499D01*
X95210016Y-44200498D01*
X95210019Y-44200498D01*
X95266302Y-44194748D01*
X95312797Y-44189999D01*
X95479334Y-44134814D01*
X95628656Y-44042712D01*
X95712454Y-43958913D01*
X95773773Y-43925431D01*
X95843465Y-43930415D01*
X95899399Y-43972286D01*
X95910617Y-43990302D01*
X95915161Y-43999219D01*
X95984250Y-44134814D01*
X95987715Y-44141613D01*
X96108028Y-44307213D01*
X96252786Y-44451971D01*
X96407749Y-44564556D01*
X96418390Y-44572287D01*
X96490424Y-44608990D01*
X96511629Y-44619795D01*
X96562425Y-44667770D01*
X96579220Y-44735591D01*
X96556682Y-44801726D01*
X96511629Y-44840765D01*
X96418650Y-44888140D01*
X96253105Y-45008417D01*
X96253104Y-45008417D01*
X96108417Y-45153104D01*
X96108417Y-45153105D01*
X95988140Y-45318650D01*
X95895244Y-45500970D01*
X95832009Y-45695586D01*
X95823391Y-45750000D01*
X97184314Y-45750000D01*
X97179920Y-45754394D01*
X97127259Y-45845606D01*
X97100000Y-45947339D01*
X97100000Y-46052661D01*
X97127259Y-46154394D01*
X97179920Y-46245606D01*
X97184314Y-46250000D01*
X95823391Y-46250000D01*
X95832009Y-46304413D01*
X95895244Y-46499029D01*
X95988140Y-46681349D01*
X96108417Y-46846894D01*
X96108417Y-46846895D01*
X96253104Y-46991582D01*
X96418650Y-47111859D01*
X96600968Y-47204755D01*
X96795582Y-47267990D01*
X96997683Y-47300000D01*
X97250000Y-47300000D01*
X97250000Y-46315686D01*
X97254394Y-46320080D01*
X97345606Y-46372741D01*
X97447339Y-46400000D01*
X97552661Y-46400000D01*
X97654394Y-46372741D01*
X97745606Y-46320080D01*
X97750000Y-46315686D01*
X97750000Y-47300000D01*
X98002317Y-47300000D01*
X98204417Y-47267990D01*
X98399031Y-47204755D01*
X98581349Y-47111859D01*
X98746894Y-46991582D01*
X98746895Y-46991582D01*
X98891582Y-46846895D01*
X98891582Y-46846894D01*
X99011859Y-46681349D01*
X99104755Y-46499029D01*
X99167990Y-46304413D01*
X99176609Y-46250000D01*
X97815686Y-46250000D01*
X97820080Y-46245606D01*
X97872741Y-46154394D01*
X97900000Y-46052661D01*
X97900000Y-45947339D01*
X97872741Y-45845606D01*
X97820080Y-45754394D01*
X97815686Y-45750000D01*
X99176609Y-45750000D01*
X99167990Y-45695586D01*
X99104755Y-45500970D01*
X99011859Y-45318650D01*
X98891582Y-45153105D01*
X98891582Y-45153104D01*
X98746895Y-45008417D01*
X98581349Y-44888140D01*
X98488370Y-44840765D01*
X98437574Y-44792790D01*
X98420779Y-44724969D01*
X98443316Y-44658835D01*
X98488370Y-44619795D01*
X98488920Y-44619515D01*
X98581610Y-44572287D01*
X98602770Y-44556913D01*
X98747213Y-44451971D01*
X98747215Y-44451968D01*
X98747219Y-44451966D01*
X98891966Y-44307219D01*
X98891972Y-44307210D01*
X98894748Y-44303962D01*
X98895130Y-44303712D01*
X98895320Y-44303297D01*
X98924380Y-44284621D01*
X98953258Y-44265773D01*
X98953843Y-44265686D01*
X98954098Y-44265523D01*
X98989033Y-44260500D01*
X99077060Y-44260500D01*
X99144099Y-44280185D01*
X99164741Y-44296819D01*
X100433181Y-45565259D01*
X100466666Y-45626582D01*
X100469500Y-45652940D01*
X100469500Y-48007060D01*
X100449815Y-48074099D01*
X100433181Y-48094741D01*
X99569711Y-48958211D01*
X99513960Y-49013962D01*
X99458209Y-49069712D01*
X99370609Y-49200814D01*
X99370604Y-49200823D01*
X99319605Y-49323948D01*
X99275764Y-49378351D01*
X99209470Y-49400416D01*
X99192899Y-49399899D01*
X99188845Y-49399500D01*
X99188842Y-49399500D01*
X96503159Y-49399500D01*
X96486742Y-49397928D01*
X96486729Y-49398071D01*
X96486669Y-49398065D01*
X96486669Y-49398069D01*
X96486421Y-49398044D01*
X96486349Y-49398033D01*
X96480692Y-49397479D01*
X96401869Y-49397499D01*
X96401848Y-49397500D01*
X93945151Y-49397500D01*
X93866309Y-49397480D01*
X93866208Y-49397500D01*
X93866099Y-49397500D01*
X93860641Y-49398034D01*
X93860627Y-49398039D01*
X93860380Y-49398064D01*
X93860379Y-49398060D01*
X93860272Y-49398071D01*
X93860253Y-49397883D01*
X93843840Y-49399500D01*
X86757940Y-49399500D01*
X86690901Y-49379815D01*
X86670259Y-49363181D01*
X80145292Y-42838213D01*
X80145288Y-42838210D01*
X80014185Y-42750609D01*
X80014172Y-42750602D01*
X79868501Y-42690264D01*
X79868489Y-42690261D01*
X79713845Y-42659500D01*
X79713842Y-42659500D01*
X78989033Y-42659500D01*
X78921994Y-42639815D01*
X78894748Y-42616038D01*
X78891964Y-42612779D01*
X78747213Y-42468028D01*
X78581614Y-42347715D01*
X78567424Y-42340485D01*
X78488917Y-42300483D01*
X78438123Y-42252511D01*
X78421328Y-42184690D01*
X78443865Y-42118555D01*
X78488917Y-42079516D01*
X78581610Y-42032287D01*
X78602770Y-42016913D01*
X78747213Y-41911971D01*
X78747215Y-41911968D01*
X78747219Y-41911966D01*
X78891966Y-41767219D01*
X79012287Y-41601610D01*
X79067592Y-41493064D01*
X79090391Y-41461685D01*
X80201789Y-40350289D01*
X80289394Y-40219179D01*
X80349738Y-40073497D01*
X80380500Y-39918842D01*
X80380500Y-39761157D01*
X80380500Y-37387892D01*
X80380500Y-37387889D01*
X80380499Y-37387887D01*
X80372742Y-37348892D01*
X80349737Y-37233237D01*
X80333585Y-37194243D01*
X80289397Y-37087561D01*
X80289390Y-37087548D01*
X80201790Y-36956446D01*
X80153663Y-36908319D01*
X80090289Y-36844945D01*
X76446818Y-33201474D01*
X76413333Y-33140151D01*
X76410499Y-33113793D01*
X76410499Y-32094003D01*
X76430184Y-32026964D01*
X76482988Y-31981209D01*
X76518313Y-31971064D01*
X76522238Y-31970548D01*
X76743887Y-31911158D01*
X76955888Y-31823344D01*
X77154612Y-31708611D01*
X77336661Y-31568919D01*
X77336665Y-31568914D01*
X77336670Y-31568911D01*
X77498911Y-31406670D01*
X77498914Y-31406665D01*
X77498919Y-31406661D01*
X77638611Y-31224612D01*
X77753344Y-31025888D01*
X77841158Y-30813887D01*
X77900548Y-30592238D01*
X77930500Y-30364734D01*
X77930500Y-30135266D01*
X77900548Y-29907762D01*
X77841158Y-29686113D01*
X77753344Y-29474112D01*
X77638611Y-29275388D01*
X77638608Y-29275385D01*
X77638607Y-29275382D01*
X77498918Y-29093338D01*
X77498911Y-29093330D01*
X77336670Y-28931089D01*
X77336661Y-28931081D01*
X77154617Y-28791392D01*
X76955890Y-28676657D01*
X76955876Y-28676650D01*
X76743887Y-28588842D01*
X76522238Y-28529452D01*
X76484215Y-28524446D01*
X76294741Y-28499500D01*
X76294734Y-28499500D01*
X76281905Y-28499500D01*
X76214866Y-28479815D01*
X76169111Y-28427011D01*
X76159167Y-28357853D01*
X76181586Y-28302615D01*
X76193343Y-28286433D01*
X76300568Y-28075992D01*
X76373553Y-27851368D01*
X76380579Y-27807007D01*
X76410500Y-27618097D01*
X76410500Y-27381902D01*
X76373553Y-27148631D01*
X76300566Y-26924003D01*
X76193342Y-26713566D01*
X76054517Y-26522490D01*
X75887510Y-26355483D01*
X75881449Y-26351079D01*
X75761614Y-26264012D01*
X75758274Y-26259681D01*
X75753297Y-26257408D01*
X75737165Y-26232307D01*
X75718948Y-26208682D01*
X75717695Y-26202009D01*
X75715523Y-26198630D01*
X75710500Y-26163695D01*
X75710500Y-25924982D01*
X75728960Y-25859886D01*
X75784814Y-25769334D01*
X75839999Y-25602797D01*
X75850500Y-25500009D01*
X75850499Y-25238671D01*
X75870183Y-25171634D01*
X75922987Y-25125879D01*
X75992146Y-25115935D01*
X76055701Y-25144960D01*
G37*
%TD.AperFunction*%
%TA.AperFunction,Conductor*%
G36*
X119584099Y-44320185D02*
G01*
X119604741Y-44336819D01*
X119863181Y-44595259D01*
X119896666Y-44656582D01*
X119899500Y-44682940D01*
X119899500Y-46160010D01*
X119879815Y-46227049D01*
X119863181Y-46247691D01*
X119122549Y-46988322D01*
X119061226Y-47021807D01*
X118991534Y-47016823D01*
X118935601Y-46974951D01*
X118911184Y-46909487D01*
X118926036Y-46841214D01*
X118934551Y-46827755D01*
X119011857Y-46721353D01*
X119104755Y-46539029D01*
X119167990Y-46344413D01*
X119176609Y-46290000D01*
X117815686Y-46290000D01*
X117820080Y-46285606D01*
X117872741Y-46194394D01*
X117900000Y-46092661D01*
X117900000Y-45987339D01*
X117872741Y-45885606D01*
X117820080Y-45794394D01*
X117815686Y-45790000D01*
X119176609Y-45790000D01*
X119167990Y-45735586D01*
X119104755Y-45540970D01*
X119011859Y-45358650D01*
X118891582Y-45193105D01*
X118891582Y-45193104D01*
X118746895Y-45048417D01*
X118581349Y-44928140D01*
X118488370Y-44880765D01*
X118437574Y-44832790D01*
X118420779Y-44764969D01*
X118443316Y-44698835D01*
X118488370Y-44659795D01*
X118488920Y-44659515D01*
X118581610Y-44612287D01*
X118636670Y-44572284D01*
X118747213Y-44491971D01*
X118747215Y-44491968D01*
X118747219Y-44491966D01*
X118891966Y-44347219D01*
X118891972Y-44347210D01*
X118894748Y-44343962D01*
X118953258Y-44305773D01*
X118989033Y-44300500D01*
X119517060Y-44300500D01*
X119584099Y-44320185D01*
G37*
%TD.AperFunction*%
%TA.AperFunction,Conductor*%
G36*
X75867258Y-43913595D02*
G01*
X75891967Y-43955120D01*
X75892919Y-43954726D01*
X75894778Y-43959217D01*
X75957548Y-44082409D01*
X75984250Y-44134814D01*
X75987715Y-44141613D01*
X76108028Y-44307213D01*
X76252786Y-44451971D01*
X76407749Y-44564556D01*
X76418390Y-44572287D01*
X76490424Y-44608990D01*
X76511629Y-44619795D01*
X76562425Y-44667770D01*
X76579220Y-44735591D01*
X76556682Y-44801726D01*
X76511629Y-44840765D01*
X76418650Y-44888140D01*
X76253105Y-45008417D01*
X76253104Y-45008417D01*
X76108417Y-45153104D01*
X76108417Y-45153105D01*
X75988140Y-45318650D01*
X75895244Y-45500970D01*
X75832009Y-45695586D01*
X75823391Y-45750000D01*
X77184314Y-45750000D01*
X77179920Y-45754394D01*
X77127259Y-45845606D01*
X77100000Y-45947339D01*
X77100000Y-46052661D01*
X77127259Y-46154394D01*
X77179920Y-46245606D01*
X77184314Y-46250000D01*
X75823391Y-46250000D01*
X75832009Y-46304413D01*
X75832009Y-46304414D01*
X75872394Y-46428705D01*
X75874389Y-46498546D01*
X75838309Y-46558379D01*
X75775608Y-46589207D01*
X75706194Y-46581242D01*
X75666782Y-46554704D01*
X75116819Y-46004741D01*
X75083334Y-45943418D01*
X75080500Y-45917060D01*
X75080500Y-44318556D01*
X75100185Y-44251517D01*
X75152989Y-44205762D01*
X75191897Y-44195198D01*
X75242797Y-44189999D01*
X75409334Y-44134814D01*
X75558656Y-44042712D01*
X75682712Y-43918656D01*
X75682712Y-43918655D01*
X75687819Y-43913549D01*
X75689565Y-43915295D01*
X75737036Y-43881666D01*
X75806835Y-43878512D01*
X75867258Y-43913595D01*
G37*
%TD.AperFunction*%
%TA.AperFunction,Conductor*%
G36*
X90138987Y-31649986D02*
G01*
X90215382Y-31708607D01*
X90215385Y-31708608D01*
X90215388Y-31708611D01*
X90414112Y-31823344D01*
X90414117Y-31823346D01*
X90414123Y-31823349D01*
X90505480Y-31861190D01*
X90626113Y-31911158D01*
X90847762Y-31970548D01*
X91020874Y-31993339D01*
X91084769Y-32021604D01*
X91123240Y-32079929D01*
X91124071Y-32149793D01*
X91105007Y-32189160D01*
X91087086Y-32213827D01*
X90979897Y-32424197D01*
X90906934Y-32648752D01*
X90870000Y-32881947D01*
X90870000Y-33118052D01*
X90906934Y-33351247D01*
X90979897Y-33575802D01*
X91065550Y-33743906D01*
X91078446Y-33812575D01*
X91052170Y-33877316D01*
X90995063Y-33917573D01*
X90979257Y-33921818D01*
X90898170Y-33937947D01*
X90898160Y-33937950D01*
X90716092Y-34013364D01*
X90716079Y-34013371D01*
X90552218Y-34122860D01*
X90552214Y-34122863D01*
X90412863Y-34262214D01*
X90412860Y-34262218D01*
X90303371Y-34426079D01*
X90303364Y-34426092D01*
X90227950Y-34608160D01*
X90227947Y-34608170D01*
X90189500Y-34801456D01*
X90189500Y-34801459D01*
X90189500Y-34998541D01*
X90189500Y-34998543D01*
X90189499Y-34998543D01*
X90227947Y-35191829D01*
X90227950Y-35191839D01*
X90303364Y-35373907D01*
X90303371Y-35373920D01*
X90412860Y-35537781D01*
X90412863Y-35537785D01*
X90552214Y-35677136D01*
X90552218Y-35677139D01*
X90716079Y-35786628D01*
X90716092Y-35786635D01*
X90898160Y-35862049D01*
X90898165Y-35862051D01*
X90898169Y-35862051D01*
X90898170Y-35862052D01*
X91091456Y-35900500D01*
X91091459Y-35900500D01*
X91288543Y-35900500D01*
X91418582Y-35874632D01*
X91481835Y-35862051D01*
X91663914Y-35786632D01*
X91827782Y-35677139D01*
X91967139Y-35537782D01*
X92076632Y-35373914D01*
X92152051Y-35191835D01*
X92190500Y-34998541D01*
X92190500Y-34801459D01*
X92190500Y-34801456D01*
X92160013Y-34648192D01*
X92166240Y-34578600D01*
X92209103Y-34523423D01*
X92274992Y-34500178D01*
X92281630Y-34500000D01*
X92488052Y-34500000D01*
X92721247Y-34463065D01*
X92945802Y-34390102D01*
X93156171Y-34282914D01*
X93279977Y-34192964D01*
X93345784Y-34169484D01*
X93413838Y-34185309D01*
X93461779Y-34234640D01*
X93461953Y-34234546D01*
X93462293Y-34235169D01*
X93462532Y-34235415D01*
X93463009Y-34236480D01*
X93466206Y-34242335D01*
X93552452Y-34357544D01*
X93552455Y-34357547D01*
X93667664Y-34443793D01*
X93667671Y-34443797D01*
X93712618Y-34460561D01*
X93802517Y-34494091D01*
X93862127Y-34500500D01*
X94197058Y-34500499D01*
X94264097Y-34520183D01*
X94284739Y-34536818D01*
X95848211Y-36100289D01*
X95959711Y-36211789D01*
X95959712Y-36211790D01*
X96090814Y-36299390D01*
X96090827Y-36299397D01*
X96236498Y-36359735D01*
X96236503Y-36359737D01*
X96236507Y-36359737D01*
X96236508Y-36359738D01*
X96391154Y-36390500D01*
X96391157Y-36390500D01*
X96391158Y-36390500D01*
X97320326Y-36390500D01*
X97387365Y-36410185D01*
X97408007Y-36426819D01*
X97849507Y-36868319D01*
X97882992Y-36929642D01*
X97878008Y-36999334D01*
X97836136Y-37055267D01*
X97770672Y-37079684D01*
X97761826Y-37080000D01*
X97750000Y-37080000D01*
X97750000Y-38064314D01*
X97745606Y-38059920D01*
X97654394Y-38007259D01*
X97552661Y-37980000D01*
X97447339Y-37980000D01*
X97345606Y-38007259D01*
X97254394Y-38059920D01*
X97250000Y-38064314D01*
X97250000Y-37080000D01*
X96500028Y-37080000D01*
X96500012Y-37080001D01*
X96397302Y-37090494D01*
X96230880Y-37145641D01*
X96230875Y-37145643D01*
X96081654Y-37237684D01*
X95957684Y-37361654D01*
X95865643Y-37510875D01*
X95865641Y-37510880D01*
X95810494Y-37677302D01*
X95810493Y-37677309D01*
X95800000Y-37780013D01*
X95800000Y-38130000D01*
X97184314Y-38130000D01*
X97179920Y-38134394D01*
X97127259Y-38225606D01*
X97100000Y-38327339D01*
X97100000Y-38432661D01*
X97127259Y-38534394D01*
X97179920Y-38625606D01*
X97184314Y-38630000D01*
X95800001Y-38630000D01*
X95800001Y-38720800D01*
X95780316Y-38787839D01*
X95727512Y-38833594D01*
X95658354Y-38843538D01*
X95610905Y-38826339D01*
X95479340Y-38745189D01*
X95479335Y-38745187D01*
X95479334Y-38745186D01*
X95312797Y-38690001D01*
X95312795Y-38690000D01*
X95210010Y-38679500D01*
X94409998Y-38679500D01*
X94409980Y-38679501D01*
X94307203Y-38690000D01*
X94307200Y-38690001D01*
X94140668Y-38745185D01*
X94140663Y-38745187D01*
X93991342Y-38837289D01*
X93897681Y-38930951D01*
X93836358Y-38964436D01*
X93766666Y-38959452D01*
X93722319Y-38930951D01*
X93628657Y-38837289D01*
X93628656Y-38837288D01*
X93491583Y-38752741D01*
X93479336Y-38745187D01*
X93479331Y-38745185D01*
X93463925Y-38740080D01*
X93312797Y-38690001D01*
X93312795Y-38690000D01*
X93210016Y-38679500D01*
X93210009Y-38679500D01*
X92792940Y-38679500D01*
X92725901Y-38659815D01*
X92705259Y-38643181D01*
X91926624Y-37864545D01*
X91820292Y-37758213D01*
X91820288Y-37758210D01*
X91689185Y-37670609D01*
X91689172Y-37670602D01*
X91543501Y-37610264D01*
X91543489Y-37610261D01*
X91388845Y-37579500D01*
X91388842Y-37579500D01*
X91369033Y-37579500D01*
X91301994Y-37559815D01*
X91274748Y-37536038D01*
X91271964Y-37532779D01*
X91127213Y-37388028D01*
X90961613Y-37267715D01*
X90961612Y-37267714D01*
X90961610Y-37267713D01*
X90893947Y-37233237D01*
X90779223Y-37174781D01*
X90584534Y-37111522D01*
X90409995Y-37083878D01*
X90382352Y-37079500D01*
X90382351Y-37079500D01*
X90063500Y-37079500D01*
X89996461Y-37059815D01*
X89950706Y-37007011D01*
X89939500Y-36955500D01*
X89939500Y-31748361D01*
X89959185Y-31681322D01*
X90011989Y-31635567D01*
X90081147Y-31625623D01*
X90138987Y-31649986D01*
G37*
%TD.AperFunction*%
%TA.AperFunction,Conductor*%
G36*
X109928814Y-31514621D02*
G01*
X109942147Y-31512705D01*
X109962290Y-31521904D01*
X109983927Y-31526611D01*
X110001652Y-31539879D01*
X110005703Y-31541730D01*
X110012181Y-31547762D01*
X110033330Y-31568911D01*
X110033338Y-31568918D01*
X110215382Y-31708607D01*
X110215385Y-31708608D01*
X110215388Y-31708611D01*
X110414112Y-31823344D01*
X110414117Y-31823346D01*
X110414123Y-31823349D01*
X110505480Y-31861190D01*
X110626113Y-31911158D01*
X110847762Y-31970548D01*
X111020874Y-31993339D01*
X111084769Y-32021604D01*
X111123240Y-32079929D01*
X111124071Y-32149793D01*
X111105007Y-32189160D01*
X111087086Y-32213827D01*
X110979897Y-32424197D01*
X110906934Y-32648752D01*
X110870000Y-32881947D01*
X110870000Y-33118052D01*
X110906934Y-33351247D01*
X110979897Y-33575802D01*
X111065550Y-33743906D01*
X111078446Y-33812575D01*
X111052170Y-33877316D01*
X110995063Y-33917573D01*
X110979257Y-33921818D01*
X110898170Y-33937947D01*
X110898160Y-33937950D01*
X110716092Y-34013364D01*
X110716079Y-34013371D01*
X110552218Y-34122860D01*
X110552214Y-34122863D01*
X110412863Y-34262214D01*
X110412860Y-34262218D01*
X110303371Y-34426079D01*
X110303364Y-34426092D01*
X110227950Y-34608160D01*
X110227947Y-34608170D01*
X110189500Y-34801456D01*
X110189500Y-34801459D01*
X110189500Y-34998541D01*
X110189500Y-34998543D01*
X110189499Y-34998543D01*
X110227947Y-35191829D01*
X110227950Y-35191839D01*
X110303364Y-35373907D01*
X110303371Y-35373920D01*
X110412860Y-35537781D01*
X110412863Y-35537785D01*
X110552214Y-35677136D01*
X110552218Y-35677139D01*
X110716079Y-35786628D01*
X110716092Y-35786635D01*
X110898160Y-35862049D01*
X110898165Y-35862051D01*
X110898169Y-35862051D01*
X110898170Y-35862052D01*
X111091456Y-35900500D01*
X111091459Y-35900500D01*
X111288543Y-35900500D01*
X111418582Y-35874632D01*
X111481835Y-35862051D01*
X111663914Y-35786632D01*
X111827782Y-35677139D01*
X111967139Y-35537782D01*
X112076632Y-35373914D01*
X112152051Y-35191835D01*
X112190500Y-34998541D01*
X112190500Y-34801459D01*
X112190500Y-34801456D01*
X112160013Y-34648192D01*
X112166240Y-34578600D01*
X112209103Y-34523423D01*
X112274992Y-34500178D01*
X112281630Y-34500000D01*
X112488052Y-34500000D01*
X112721247Y-34463065D01*
X112945802Y-34390102D01*
X113156171Y-34282914D01*
X113279977Y-34192964D01*
X113345784Y-34169484D01*
X113413838Y-34185309D01*
X113461779Y-34234640D01*
X113461953Y-34234546D01*
X113462293Y-34235169D01*
X113462532Y-34235415D01*
X113463009Y-34236480D01*
X113466206Y-34242335D01*
X113552452Y-34357544D01*
X113552455Y-34357547D01*
X113667664Y-34443793D01*
X113667671Y-34443797D01*
X113802517Y-34494091D01*
X113802516Y-34494091D01*
X113809444Y-34494835D01*
X113862127Y-34500500D01*
X115390325Y-34500499D01*
X115457364Y-34520184D01*
X115478006Y-34536818D01*
X117849507Y-36908319D01*
X117882992Y-36969642D01*
X117878008Y-37039334D01*
X117836136Y-37095267D01*
X117770672Y-37119684D01*
X117761826Y-37120000D01*
X117750000Y-37120000D01*
X117750000Y-38104314D01*
X117745606Y-38099920D01*
X117654394Y-38047259D01*
X117552661Y-38020000D01*
X117447339Y-38020000D01*
X117345606Y-38047259D01*
X117254394Y-38099920D01*
X117250000Y-38104314D01*
X117250000Y-37120000D01*
X116500028Y-37120000D01*
X116500012Y-37120001D01*
X116397302Y-37130494D01*
X116230880Y-37185641D01*
X116230875Y-37185643D01*
X116081654Y-37277684D01*
X115957684Y-37401654D01*
X115865643Y-37550875D01*
X115865641Y-37550880D01*
X115810494Y-37717302D01*
X115810493Y-37717309D01*
X115800000Y-37820013D01*
X115800000Y-38170000D01*
X117184314Y-38170000D01*
X117179920Y-38174394D01*
X117127259Y-38265606D01*
X117100000Y-38367339D01*
X117100000Y-38472661D01*
X117127259Y-38574394D01*
X117179920Y-38665606D01*
X117184314Y-38670000D01*
X115800001Y-38670000D01*
X115800001Y-38679271D01*
X115780316Y-38746310D01*
X115727512Y-38792065D01*
X115658354Y-38802009D01*
X115594798Y-38772984D01*
X115588320Y-38766952D01*
X115508657Y-38687289D01*
X115508656Y-38687288D01*
X115397609Y-38618794D01*
X115359336Y-38595187D01*
X115359331Y-38595185D01*
X115357862Y-38594698D01*
X115192797Y-38540001D01*
X115192795Y-38540000D01*
X115090010Y-38529500D01*
X114289998Y-38529500D01*
X114289980Y-38529501D01*
X114187203Y-38540000D01*
X114187200Y-38540001D01*
X114020668Y-38595185D01*
X114020663Y-38595187D01*
X113871342Y-38687289D01*
X113777681Y-38780951D01*
X113716358Y-38814436D01*
X113646666Y-38809452D01*
X113602319Y-38780951D01*
X113508657Y-38687289D01*
X113508656Y-38687288D01*
X113397609Y-38618794D01*
X113359336Y-38595187D01*
X113359331Y-38595185D01*
X113357862Y-38594698D01*
X113192797Y-38540001D01*
X113192795Y-38540000D01*
X113090016Y-38529500D01*
X113090009Y-38529500D01*
X112672940Y-38529500D01*
X112605901Y-38509815D01*
X112585259Y-38493181D01*
X111996624Y-37904545D01*
X111890292Y-37798213D01*
X111890288Y-37798210D01*
X111759185Y-37710609D01*
X111759172Y-37710602D01*
X111613501Y-37650264D01*
X111613489Y-37650261D01*
X111458845Y-37619500D01*
X111458842Y-37619500D01*
X111369033Y-37619500D01*
X111301994Y-37599815D01*
X111274748Y-37576038D01*
X111271964Y-37572779D01*
X111127213Y-37428028D01*
X110961613Y-37307715D01*
X110961612Y-37307714D01*
X110961610Y-37307713D01*
X110883106Y-37267713D01*
X110779223Y-37214781D01*
X110584534Y-37151522D01*
X110409995Y-37123878D01*
X110382352Y-37119500D01*
X110382351Y-37119500D01*
X109924500Y-37119500D01*
X109857461Y-37099815D01*
X109811706Y-37047011D01*
X109800500Y-36995500D01*
X109800500Y-31635443D01*
X109806738Y-31614197D01*
X109808318Y-31592109D01*
X109816390Y-31581325D01*
X109820185Y-31568404D01*
X109836918Y-31553904D01*
X109850190Y-31536176D01*
X109862810Y-31531468D01*
X109872989Y-31522649D01*
X109894906Y-31519497D01*
X109915654Y-31511759D01*
X109928814Y-31514621D01*
G37*
%TD.AperFunction*%
%TA.AperFunction,Conductor*%
G36*
X70138987Y-31649986D02*
G01*
X70215382Y-31708607D01*
X70215385Y-31708608D01*
X70215388Y-31708611D01*
X70414112Y-31823344D01*
X70414117Y-31823346D01*
X70414123Y-31823349D01*
X70505480Y-31861190D01*
X70626113Y-31911158D01*
X70847762Y-31970548D01*
X71020874Y-31993339D01*
X71084769Y-32021604D01*
X71123240Y-32079929D01*
X71124071Y-32149793D01*
X71105007Y-32189160D01*
X71087086Y-32213827D01*
X70979897Y-32424197D01*
X70906934Y-32648752D01*
X70870000Y-32881947D01*
X70870000Y-33118052D01*
X70906934Y-33351247D01*
X70979897Y-33575802D01*
X71065550Y-33743906D01*
X71078446Y-33812575D01*
X71052170Y-33877316D01*
X70995063Y-33917573D01*
X70979257Y-33921818D01*
X70898170Y-33937947D01*
X70898160Y-33937950D01*
X70716092Y-34013364D01*
X70716079Y-34013371D01*
X70552218Y-34122860D01*
X70552214Y-34122863D01*
X70412863Y-34262214D01*
X70412860Y-34262218D01*
X70303371Y-34426079D01*
X70303364Y-34426092D01*
X70227950Y-34608160D01*
X70227947Y-34608170D01*
X70189500Y-34801456D01*
X70189500Y-34801459D01*
X70189500Y-34998541D01*
X70189500Y-34998543D01*
X70189499Y-34998543D01*
X70227947Y-35191829D01*
X70227950Y-35191839D01*
X70303364Y-35373907D01*
X70303371Y-35373920D01*
X70412860Y-35537781D01*
X70412863Y-35537785D01*
X70552214Y-35677136D01*
X70552218Y-35677139D01*
X70716079Y-35786628D01*
X70716092Y-35786635D01*
X70898160Y-35862049D01*
X70898165Y-35862051D01*
X70898169Y-35862051D01*
X70898170Y-35862052D01*
X71091456Y-35900500D01*
X71091459Y-35900500D01*
X71288543Y-35900500D01*
X71418582Y-35874632D01*
X71481835Y-35862051D01*
X71663914Y-35786632D01*
X71827782Y-35677139D01*
X71967139Y-35537782D01*
X72076632Y-35373914D01*
X72152051Y-35191835D01*
X72190500Y-34998541D01*
X72190500Y-34801459D01*
X72190500Y-34801456D01*
X72160013Y-34648192D01*
X72166240Y-34578600D01*
X72209103Y-34523423D01*
X72274992Y-34500178D01*
X72281630Y-34500000D01*
X72488052Y-34500000D01*
X72721247Y-34463065D01*
X72945802Y-34390102D01*
X73156171Y-34282914D01*
X73279977Y-34192964D01*
X73345784Y-34169484D01*
X73413838Y-34185309D01*
X73461779Y-34234640D01*
X73461953Y-34234546D01*
X73462293Y-34235169D01*
X73462532Y-34235415D01*
X73463009Y-34236480D01*
X73466206Y-34242335D01*
X73552452Y-34357544D01*
X73552455Y-34357547D01*
X73667664Y-34443793D01*
X73667671Y-34443797D01*
X73802517Y-34494091D01*
X73802516Y-34494091D01*
X73809444Y-34494835D01*
X73862127Y-34500500D01*
X75430325Y-34500499D01*
X75497364Y-34520184D01*
X75518006Y-34536818D01*
X77849507Y-36868319D01*
X77882992Y-36929642D01*
X77878008Y-36999334D01*
X77836136Y-37055267D01*
X77770672Y-37079684D01*
X77761826Y-37080000D01*
X77750000Y-37080000D01*
X77750000Y-38064314D01*
X77745606Y-38059920D01*
X77654394Y-38007259D01*
X77552661Y-37980000D01*
X77447339Y-37980000D01*
X77345606Y-38007259D01*
X77254394Y-38059920D01*
X77250000Y-38064314D01*
X77250000Y-37080000D01*
X76500028Y-37080000D01*
X76500012Y-37080001D01*
X76397302Y-37090494D01*
X76230880Y-37145641D01*
X76230875Y-37145643D01*
X76081654Y-37237684D01*
X75957684Y-37361654D01*
X75865643Y-37510875D01*
X75865641Y-37510880D01*
X75810494Y-37677302D01*
X75810493Y-37677309D01*
X75800000Y-37780013D01*
X75800000Y-38130000D01*
X77184314Y-38130000D01*
X77179920Y-38134394D01*
X77127259Y-38225606D01*
X77100000Y-38327339D01*
X77100000Y-38432661D01*
X77127259Y-38534394D01*
X77179920Y-38625606D01*
X77184314Y-38630000D01*
X75855946Y-38630000D01*
X75788907Y-38610315D01*
X75750407Y-38571096D01*
X75682712Y-38461344D01*
X75558657Y-38337289D01*
X75558656Y-38337288D01*
X75442440Y-38265606D01*
X75409336Y-38245187D01*
X75409331Y-38245185D01*
X75407862Y-38244698D01*
X75242797Y-38190001D01*
X75242795Y-38190000D01*
X75140010Y-38179500D01*
X74339998Y-38179500D01*
X74339980Y-38179501D01*
X74237203Y-38190000D01*
X74237200Y-38190001D01*
X74070668Y-38245185D01*
X74070663Y-38245187D01*
X73921342Y-38337289D01*
X73827681Y-38430951D01*
X73766358Y-38464436D01*
X73696666Y-38459452D01*
X73652319Y-38430951D01*
X73558657Y-38337289D01*
X73558656Y-38337288D01*
X73442440Y-38265606D01*
X73409336Y-38245187D01*
X73409331Y-38245185D01*
X73407862Y-38244698D01*
X73242797Y-38190001D01*
X73242795Y-38190000D01*
X73140016Y-38179500D01*
X73140009Y-38179500D01*
X72722940Y-38179500D01*
X72655901Y-38159815D01*
X72635259Y-38143181D01*
X72356624Y-37864545D01*
X72250292Y-37758213D01*
X72250288Y-37758210D01*
X72119185Y-37670609D01*
X72119172Y-37670602D01*
X71973501Y-37610264D01*
X71973489Y-37610261D01*
X71818845Y-37579500D01*
X71818842Y-37579500D01*
X71369033Y-37579500D01*
X71301994Y-37559815D01*
X71274748Y-37536038D01*
X71271964Y-37532779D01*
X71127213Y-37388028D01*
X70961613Y-37267715D01*
X70961612Y-37267714D01*
X70961610Y-37267713D01*
X70893947Y-37233237D01*
X70779223Y-37174781D01*
X70584534Y-37111522D01*
X70409995Y-37083878D01*
X70382352Y-37079500D01*
X70382351Y-37079500D01*
X70063500Y-37079500D01*
X69996461Y-37059815D01*
X69950706Y-37007011D01*
X69939500Y-36955500D01*
X69939500Y-31748361D01*
X69959185Y-31681322D01*
X70011989Y-31635567D01*
X70081147Y-31625623D01*
X70138987Y-31649986D01*
G37*
%TD.AperFunction*%
%TA.AperFunction,Conductor*%
G36*
X73592657Y-28369104D02*
G01*
X73612404Y-28367550D01*
X73680781Y-28381914D01*
X73722451Y-28418282D01*
X73765483Y-28477510D01*
X73932490Y-28644517D01*
X74123567Y-28783343D01*
X74222991Y-28834002D01*
X74334003Y-28890566D01*
X74334005Y-28890566D01*
X74334008Y-28890568D01*
X74454412Y-28929689D01*
X74558631Y-28963553D01*
X74711243Y-28987724D01*
X74774378Y-29017653D01*
X74811310Y-29076964D01*
X74810312Y-29146827D01*
X74790222Y-29185684D01*
X74721389Y-29275387D01*
X74606657Y-29474109D01*
X74606650Y-29474123D01*
X74518842Y-29686112D01*
X74459453Y-29907759D01*
X74459451Y-29907770D01*
X74429500Y-30135258D01*
X74429500Y-30364741D01*
X74454446Y-30554215D01*
X74459452Y-30592238D01*
X74459453Y-30592240D01*
X74518842Y-30813887D01*
X74606650Y-31025876D01*
X74606657Y-31025890D01*
X74721389Y-31224612D01*
X74779247Y-31300013D01*
X74804441Y-31365183D01*
X74790403Y-31433627D01*
X74741589Y-31483617D01*
X74680871Y-31499500D01*
X73862129Y-31499500D01*
X73862123Y-31499501D01*
X73802516Y-31505908D01*
X73667671Y-31556202D01*
X73667664Y-31556206D01*
X73552455Y-31642452D01*
X73552452Y-31642455D01*
X73466206Y-31757664D01*
X73461953Y-31765454D01*
X73458807Y-31763736D01*
X73427139Y-31806010D01*
X73361667Y-31830404D01*
X73293399Y-31815529D01*
X73279978Y-31807035D01*
X73156174Y-31717087D01*
X72945802Y-31609897D01*
X72721247Y-31536934D01*
X72721248Y-31536934D01*
X72648656Y-31525437D01*
X72585521Y-31495508D01*
X72548590Y-31436196D01*
X72549588Y-31366334D01*
X72569679Y-31327477D01*
X72648607Y-31224617D01*
X72648606Y-31224617D01*
X72648611Y-31224612D01*
X72763344Y-31025888D01*
X72851158Y-30813887D01*
X72910548Y-30592238D01*
X72940500Y-30364734D01*
X72940500Y-30135266D01*
X72910548Y-29907762D01*
X72851158Y-29686113D01*
X72763344Y-29474112D01*
X72648611Y-29275388D01*
X72569677Y-29172520D01*
X72544484Y-29107353D01*
X72558522Y-29038908D01*
X72607336Y-28988918D01*
X72648658Y-28974561D01*
X72721252Y-28963064D01*
X72945802Y-28890102D01*
X73156163Y-28782918D01*
X73156169Y-28782914D01*
X73239104Y-28722658D01*
X73239105Y-28722658D01*
X72499409Y-27982962D01*
X72562993Y-27965925D01*
X72677007Y-27900099D01*
X72770099Y-27807007D01*
X72835925Y-27692993D01*
X72852962Y-27629409D01*
X73592657Y-28369104D01*
G37*
%TD.AperFunction*%
%TA.AperFunction,Conductor*%
G36*
X93592657Y-28369104D02*
G01*
X93612404Y-28367550D01*
X93680781Y-28381914D01*
X93722451Y-28418282D01*
X93765483Y-28477510D01*
X93932490Y-28644517D01*
X94123567Y-28783343D01*
X94222991Y-28834002D01*
X94334003Y-28890566D01*
X94334005Y-28890566D01*
X94334008Y-28890568D01*
X94454412Y-28929689D01*
X94558631Y-28963553D01*
X94711243Y-28987724D01*
X94774378Y-29017653D01*
X94811310Y-29076964D01*
X94810312Y-29146827D01*
X94790222Y-29185684D01*
X94721389Y-29275387D01*
X94606657Y-29474109D01*
X94606650Y-29474123D01*
X94518842Y-29686112D01*
X94459453Y-29907759D01*
X94459451Y-29907770D01*
X94429500Y-30135258D01*
X94429500Y-30364741D01*
X94454446Y-30554215D01*
X94459452Y-30592238D01*
X94459453Y-30592240D01*
X94518842Y-30813887D01*
X94606650Y-31025876D01*
X94606657Y-31025890D01*
X94721389Y-31224612D01*
X94779247Y-31300013D01*
X94804441Y-31365183D01*
X94790403Y-31433627D01*
X94741589Y-31483617D01*
X94680871Y-31499500D01*
X93862129Y-31499500D01*
X93862123Y-31499501D01*
X93802516Y-31505908D01*
X93667671Y-31556202D01*
X93667664Y-31556206D01*
X93552455Y-31642452D01*
X93552452Y-31642455D01*
X93466206Y-31757664D01*
X93461953Y-31765454D01*
X93458807Y-31763736D01*
X93427139Y-31806010D01*
X93361667Y-31830404D01*
X93293399Y-31815529D01*
X93279978Y-31807035D01*
X93156174Y-31717087D01*
X92945802Y-31609897D01*
X92721247Y-31536934D01*
X92721248Y-31536934D01*
X92648656Y-31525437D01*
X92585521Y-31495508D01*
X92548590Y-31436196D01*
X92549588Y-31366334D01*
X92569679Y-31327477D01*
X92648607Y-31224617D01*
X92648606Y-31224617D01*
X92648611Y-31224612D01*
X92763344Y-31025888D01*
X92851158Y-30813887D01*
X92910548Y-30592238D01*
X92940500Y-30364734D01*
X92940500Y-30135266D01*
X92910548Y-29907762D01*
X92851158Y-29686113D01*
X92763344Y-29474112D01*
X92648611Y-29275388D01*
X92569677Y-29172520D01*
X92544484Y-29107353D01*
X92558522Y-29038908D01*
X92607336Y-28988918D01*
X92648658Y-28974561D01*
X92721252Y-28963064D01*
X92945802Y-28890102D01*
X93156163Y-28782918D01*
X93156169Y-28782914D01*
X93239104Y-28722658D01*
X93239105Y-28722658D01*
X92499408Y-27982962D01*
X92562993Y-27965925D01*
X92677007Y-27900099D01*
X92770099Y-27807007D01*
X92835925Y-27692993D01*
X92852962Y-27629408D01*
X93592657Y-28369104D01*
G37*
%TD.AperFunction*%
%TA.AperFunction,Conductor*%
G36*
X113592657Y-28369104D02*
G01*
X113612404Y-28367550D01*
X113680781Y-28381914D01*
X113722451Y-28418282D01*
X113765483Y-28477510D01*
X113932490Y-28644517D01*
X114123567Y-28783343D01*
X114222991Y-28834002D01*
X114334003Y-28890566D01*
X114334005Y-28890566D01*
X114334008Y-28890568D01*
X114454412Y-28929689D01*
X114558631Y-28963553D01*
X114711243Y-28987724D01*
X114774378Y-29017653D01*
X114811310Y-29076964D01*
X114810312Y-29146827D01*
X114790222Y-29185684D01*
X114721389Y-29275387D01*
X114606657Y-29474109D01*
X114606650Y-29474123D01*
X114518842Y-29686112D01*
X114459453Y-29907759D01*
X114459451Y-29907770D01*
X114429500Y-30135258D01*
X114429500Y-30364741D01*
X114454446Y-30554215D01*
X114459452Y-30592238D01*
X114459453Y-30592240D01*
X114518842Y-30813887D01*
X114606650Y-31025876D01*
X114606657Y-31025890D01*
X114721389Y-31224612D01*
X114779247Y-31300013D01*
X114804441Y-31365183D01*
X114790403Y-31433627D01*
X114741589Y-31483617D01*
X114680871Y-31499500D01*
X113862129Y-31499500D01*
X113862123Y-31499501D01*
X113802516Y-31505908D01*
X113667671Y-31556202D01*
X113667664Y-31556206D01*
X113552455Y-31642452D01*
X113552452Y-31642455D01*
X113466206Y-31757664D01*
X113461953Y-31765454D01*
X113458807Y-31763736D01*
X113427139Y-31806010D01*
X113361667Y-31830404D01*
X113293399Y-31815529D01*
X113279978Y-31807035D01*
X113156174Y-31717087D01*
X112945802Y-31609897D01*
X112721247Y-31536934D01*
X112721248Y-31536934D01*
X112648656Y-31525437D01*
X112585521Y-31495508D01*
X112548590Y-31436196D01*
X112549588Y-31366334D01*
X112569679Y-31327477D01*
X112648607Y-31224617D01*
X112648606Y-31224617D01*
X112648611Y-31224612D01*
X112763344Y-31025888D01*
X112851158Y-30813887D01*
X112910548Y-30592238D01*
X112940500Y-30364734D01*
X112940500Y-30135266D01*
X112910548Y-29907762D01*
X112851158Y-29686113D01*
X112763344Y-29474112D01*
X112648611Y-29275388D01*
X112569677Y-29172520D01*
X112544484Y-29107353D01*
X112558522Y-29038908D01*
X112607336Y-28988918D01*
X112648658Y-28974561D01*
X112721252Y-28963064D01*
X112945802Y-28890102D01*
X113156163Y-28782918D01*
X113156169Y-28782914D01*
X113239104Y-28722658D01*
X113239105Y-28722658D01*
X112499409Y-27982962D01*
X112562993Y-27965925D01*
X112677007Y-27900099D01*
X112770099Y-27807007D01*
X112835925Y-27692993D01*
X112852962Y-27629409D01*
X113592657Y-28369104D01*
G37*
%TD.AperFunction*%
%TA.AperFunction,Conductor*%
G36*
X91424992Y-25803374D02*
G01*
X91435118Y-25802110D01*
X91457951Y-25813052D01*
X91482241Y-25820185D01*
X91490598Y-25828698D01*
X91498126Y-25832306D01*
X91520739Y-25859400D01*
X91557288Y-25918656D01*
X91557289Y-25918657D01*
X91643260Y-26004628D01*
X91676745Y-26065951D01*
X91671761Y-26135643D01*
X91629889Y-26191576D01*
X91611878Y-26202792D01*
X91583833Y-26217082D01*
X91500894Y-26277340D01*
X92240591Y-27017037D01*
X92177007Y-27034075D01*
X92062993Y-27099901D01*
X91969901Y-27192993D01*
X91904075Y-27307007D01*
X91887037Y-27370591D01*
X91147340Y-26630894D01*
X91087084Y-26713830D01*
X90979897Y-26924197D01*
X90906934Y-27148752D01*
X90870000Y-27381947D01*
X90870000Y-27618052D01*
X90906934Y-27851247D01*
X90979897Y-28075802D01*
X91087087Y-28286175D01*
X91105005Y-28310837D01*
X91128485Y-28376644D01*
X91112659Y-28444697D01*
X91062553Y-28493392D01*
X91020873Y-28506661D01*
X90907496Y-28521587D01*
X90847762Y-28529452D01*
X90754076Y-28554554D01*
X90626112Y-28588842D01*
X90414123Y-28676650D01*
X90414109Y-28676657D01*
X90215383Y-28791392D01*
X90138986Y-28850014D01*
X90073817Y-28875208D01*
X90005372Y-28861170D01*
X89955383Y-28812356D01*
X89939500Y-28751638D01*
X89939500Y-26603015D01*
X89959185Y-26535976D01*
X90011989Y-26490221D01*
X90044103Y-26480542D01*
X90103162Y-26471187D01*
X90151368Y-26463553D01*
X90375992Y-26390568D01*
X90586433Y-26283343D01*
X90777510Y-26144517D01*
X90944517Y-25977510D01*
X91035986Y-25851613D01*
X91091316Y-25808949D01*
X91136304Y-25800500D01*
X91415202Y-25800500D01*
X91424992Y-25803374D01*
G37*
%TD.AperFunction*%
%TA.AperFunction,Conductor*%
G36*
X73793334Y-25920548D02*
G01*
X73837681Y-25949049D01*
X73931344Y-26042712D01*
X74008134Y-26090076D01*
X74008927Y-26090582D01*
X74031309Y-26116236D01*
X74054063Y-26141533D01*
X74054219Y-26142494D01*
X74054861Y-26143230D01*
X74059817Y-26176893D01*
X74065286Y-26210495D01*
X74064896Y-26211390D01*
X74065039Y-26212355D01*
X74051005Y-26243362D01*
X74037443Y-26274577D01*
X74036463Y-26275492D01*
X74036230Y-26276009D01*
X74035194Y-26276679D01*
X74015129Y-26295441D01*
X73932490Y-26355482D01*
X73765482Y-26522490D01*
X73722451Y-26581717D01*
X73667120Y-26624382D01*
X73612405Y-26632448D01*
X73592658Y-26630893D01*
X72852962Y-27370590D01*
X72835925Y-27307007D01*
X72770099Y-27192993D01*
X72677007Y-27099901D01*
X72562993Y-27034075D01*
X72499408Y-27017037D01*
X73245015Y-26271430D01*
X73254741Y-26225134D01*
X73303791Y-26175377D01*
X73324983Y-26166078D01*
X73419334Y-26134814D01*
X73568656Y-26042712D01*
X73662319Y-25949049D01*
X73723642Y-25915564D01*
X73793334Y-25920548D01*
G37*
%TD.AperFunction*%
%TA.AperFunction,Conductor*%
G36*
X93513556Y-25918418D02*
G01*
X93543334Y-25920548D01*
X93548648Y-25923963D01*
X93553076Y-25924663D01*
X93561712Y-25932359D01*
X93587681Y-25949049D01*
X93681344Y-26042712D01*
X93830666Y-26134814D01*
X93882063Y-26151845D01*
X93939508Y-26191618D01*
X93966331Y-26256134D01*
X93954016Y-26324910D01*
X93930741Y-26357232D01*
X93765481Y-26522492D01*
X93722451Y-26581717D01*
X93667120Y-26624382D01*
X93612405Y-26632448D01*
X93592658Y-26630893D01*
X92852962Y-27370590D01*
X92835925Y-27307007D01*
X92770099Y-27192993D01*
X92677007Y-27099901D01*
X92562993Y-27034075D01*
X92499409Y-27017037D01*
X93239105Y-26277340D01*
X93238528Y-26270015D01*
X93207972Y-26230388D01*
X93201993Y-26160775D01*
X93234599Y-26098980D01*
X93243632Y-26090566D01*
X93250630Y-26084670D01*
X93318656Y-26042712D01*
X93416066Y-25945301D01*
X93420109Y-25941896D01*
X93447444Y-25929868D01*
X93473642Y-25915564D01*
X93479074Y-25915952D01*
X93484062Y-25913758D01*
X93513556Y-25918418D01*
G37*
%TD.AperFunction*%
%TA.AperFunction,Conductor*%
G36*
X113513556Y-25918418D02*
G01*
X113543334Y-25920548D01*
X113548648Y-25923963D01*
X113553076Y-25924663D01*
X113561712Y-25932359D01*
X113587681Y-25949049D01*
X113681344Y-26042712D01*
X113830666Y-26134814D01*
X113882063Y-26151845D01*
X113939508Y-26191618D01*
X113966331Y-26256134D01*
X113954016Y-26324910D01*
X113930741Y-26357232D01*
X113765481Y-26522492D01*
X113722451Y-26581717D01*
X113667120Y-26624382D01*
X113612405Y-26632448D01*
X113592658Y-26630893D01*
X112852962Y-27370590D01*
X112835925Y-27307007D01*
X112770099Y-27192993D01*
X112677007Y-27099901D01*
X112562993Y-27034075D01*
X112499408Y-27017037D01*
X113239105Y-26277340D01*
X113238528Y-26270015D01*
X113207972Y-26230388D01*
X113201993Y-26160775D01*
X113234599Y-26098980D01*
X113243632Y-26090566D01*
X113250630Y-26084670D01*
X113318656Y-26042712D01*
X113416066Y-25945301D01*
X113420109Y-25941896D01*
X113447444Y-25929868D01*
X113473642Y-25915564D01*
X113479074Y-25915952D01*
X113484062Y-25913758D01*
X113513556Y-25918418D01*
G37*
%TD.AperFunction*%
%TA.AperFunction,Conductor*%
G36*
X121837539Y-22060185D02*
G01*
X121883294Y-22112989D01*
X121894500Y-22164500D01*
X121894500Y-61835500D01*
X121874815Y-61902539D01*
X121822011Y-61948294D01*
X121770500Y-61959500D01*
X65599500Y-61959500D01*
X65532461Y-61939815D01*
X65486706Y-61887011D01*
X65475500Y-61835500D01*
X65475500Y-39522153D01*
X65977500Y-39522153D01*
X65977500Y-47198052D01*
X66008261Y-47352695D01*
X66008264Y-47352707D01*
X66068602Y-47498378D01*
X66068609Y-47498391D01*
X66156210Y-47629494D01*
X66156213Y-47629498D01*
X69148501Y-50621786D01*
X69148505Y-50621789D01*
X69279608Y-50709390D01*
X69279621Y-50709397D01*
X69425292Y-50769735D01*
X69425297Y-50769737D01*
X69579947Y-50800499D01*
X69579950Y-50800500D01*
X69579952Y-50800500D01*
X69737636Y-50800500D01*
X75338806Y-50800500D01*
X75405845Y-50820185D01*
X75426487Y-50836819D01*
X77813181Y-53223513D01*
X77846666Y-53284836D01*
X77849500Y-53311194D01*
X77849500Y-56203846D01*
X77880261Y-56358489D01*
X77880264Y-56358501D01*
X77940602Y-56504172D01*
X77940609Y-56504185D01*
X78028210Y-56635288D01*
X78028213Y-56635292D01*
X82323870Y-60930947D01*
X82323891Y-60930970D01*
X82439707Y-61046786D01*
X82439711Y-61046789D01*
X82570814Y-61134390D01*
X82570827Y-61134397D01*
X82716498Y-61194735D01*
X82716503Y-61194737D01*
X82716507Y-61194737D01*
X82716508Y-61194738D01*
X82871154Y-61225500D01*
X82871157Y-61225500D01*
X89429844Y-61225500D01*
X89429845Y-61225499D01*
X89584497Y-61194737D01*
X89730179Y-61134394D01*
X89861289Y-61046789D01*
X91087821Y-59820254D01*
X91149142Y-59786771D01*
X91218833Y-59791755D01*
X91274767Y-59833626D01*
X91299184Y-59899091D01*
X91299500Y-59907936D01*
X91299500Y-60000000D01*
X91299501Y-60000019D01*
X91310000Y-60102796D01*
X91310001Y-60102799D01*
X91354637Y-60237500D01*
X91365186Y-60269334D01*
X91457288Y-60418656D01*
X91581344Y-60542712D01*
X91730666Y-60634814D01*
X91897203Y-60689999D01*
X91999991Y-60700500D01*
X93000008Y-60700499D01*
X93000016Y-60700498D01*
X93000019Y-60700498D01*
X93056302Y-60694748D01*
X93102797Y-60689999D01*
X93269334Y-60634814D01*
X93418656Y-60542712D01*
X93524550Y-60436818D01*
X93551483Y-60422111D01*
X93577296Y-60405523D01*
X93583496Y-60404631D01*
X93585873Y-60403334D01*
X93612231Y-60400500D01*
X93687769Y-60400500D01*
X93754808Y-60420185D01*
X93775450Y-60436818D01*
X93881344Y-60542712D01*
X94030666Y-60634814D01*
X94197203Y-60689999D01*
X94299991Y-60700500D01*
X95300008Y-60700499D01*
X95300016Y-60700498D01*
X95300019Y-60700498D01*
X95356302Y-60694748D01*
X95402797Y-60689999D01*
X95569334Y-60634814D01*
X95718656Y-60542712D01*
X95842712Y-60418656D01*
X95869648Y-60374986D01*
X96350001Y-60374986D01*
X96360494Y-60477697D01*
X96415641Y-60644119D01*
X96415643Y-60644124D01*
X96507684Y-60793345D01*
X96631654Y-60917315D01*
X96780875Y-61009356D01*
X96780880Y-61009358D01*
X96947302Y-61064505D01*
X96947309Y-61064506D01*
X97050019Y-61074999D01*
X97324999Y-61074999D01*
X97825000Y-61074999D01*
X98099972Y-61074999D01*
X98099986Y-61074998D01*
X98202697Y-61064505D01*
X98369119Y-61009358D01*
X98369124Y-61009356D01*
X98518345Y-60917315D01*
X98642315Y-60793345D01*
X98734356Y-60644124D01*
X98734358Y-60644119D01*
X98789505Y-60477697D01*
X98789506Y-60477690D01*
X98799999Y-60374986D01*
X98800000Y-60374973D01*
X98800000Y-60237500D01*
X97825000Y-60237500D01*
X97825000Y-61074999D01*
X97324999Y-61074999D01*
X97325000Y-61074998D01*
X97325000Y-60237500D01*
X96350001Y-60237500D01*
X96350001Y-60374986D01*
X95869648Y-60374986D01*
X95934814Y-60269334D01*
X95989999Y-60102797D01*
X96000500Y-60000009D01*
X96000499Y-59876205D01*
X96009144Y-59846760D01*
X96015667Y-59816778D01*
X96019419Y-59811764D01*
X96020183Y-59809166D01*
X96036813Y-59788529D01*
X96138321Y-59687021D01*
X96199642Y-59653538D01*
X96269334Y-59658522D01*
X96325267Y-59700394D01*
X96332627Y-59720127D01*
X96350000Y-59737500D01*
X98799999Y-59737500D01*
X98799999Y-59600028D01*
X98799998Y-59600013D01*
X98789505Y-59497302D01*
X98734358Y-59330880D01*
X98734356Y-59330875D01*
X98642315Y-59181654D01*
X98518344Y-59057683D01*
X98518341Y-59057681D01*
X98515339Y-59055829D01*
X98513713Y-59054021D01*
X98512677Y-59053202D01*
X98512817Y-59053024D01*
X98468617Y-59003880D01*
X98457397Y-58934917D01*
X98485243Y-58870836D01*
X98515344Y-58844754D01*
X98518656Y-58842712D01*
X98642712Y-58718656D01*
X98734814Y-58569334D01*
X98789999Y-58402797D01*
X98800500Y-58300009D01*
X98800499Y-57524992D01*
X98789999Y-57422203D01*
X98734814Y-57255666D01*
X98642712Y-57106344D01*
X98547455Y-57011087D01*
X98513970Y-56949764D01*
X98518954Y-56880072D01*
X98547456Y-56835724D01*
X98585354Y-56797826D01*
X98585354Y-56797825D01*
X98585359Y-56797821D01*
X98709682Y-56626704D01*
X98765012Y-56584040D01*
X98834626Y-56578061D01*
X98896420Y-56610667D01*
X98910315Y-56626702D01*
X99034641Y-56797821D01*
X99187179Y-56950359D01*
X99361701Y-57077157D01*
X99553911Y-57175092D01*
X99759074Y-57241754D01*
X99838973Y-57254408D01*
X99972134Y-57275500D01*
X99972139Y-57275500D01*
X100187859Y-57275500D01*
X100187861Y-57275500D01*
X100238166Y-57267532D01*
X100307459Y-57276486D01*
X100345245Y-57302324D01*
X102114707Y-59071786D01*
X102114711Y-59071789D01*
X102245814Y-59159390D01*
X102245818Y-59159392D01*
X102245821Y-59159394D01*
X102391503Y-59219738D01*
X102546153Y-59250499D01*
X102546157Y-59250500D01*
X102546158Y-59250500D01*
X104746794Y-59250500D01*
X104746795Y-59250499D01*
X104901447Y-59219737D01*
X105047129Y-59159394D01*
X105178239Y-59071789D01*
X108804788Y-55445240D01*
X108804789Y-55445239D01*
X108892394Y-55314129D01*
X108937716Y-55204711D01*
X108952737Y-55168448D01*
X108983500Y-55013793D01*
X108983500Y-54856108D01*
X108983500Y-53189722D01*
X109003185Y-53122683D01*
X109019819Y-53102041D01*
X112287042Y-49834819D01*
X112348365Y-49801334D01*
X112374723Y-49798500D01*
X118323794Y-49798500D01*
X118323795Y-49798499D01*
X118478447Y-49767737D01*
X118624129Y-49707394D01*
X118755239Y-49619789D01*
X121321789Y-47053239D01*
X121409394Y-46922129D01*
X121414631Y-46909487D01*
X121423989Y-46886894D01*
X121469737Y-46776447D01*
X121500500Y-46621792D01*
X121500500Y-46464108D01*
X121500500Y-44221158D01*
X121500500Y-44221155D01*
X121500499Y-44221153D01*
X121498159Y-44209390D01*
X121469737Y-44066503D01*
X121441869Y-43999223D01*
X121409397Y-43920827D01*
X121409390Y-43920814D01*
X121321790Y-43789712D01*
X121268896Y-43736818D01*
X121210289Y-43678211D01*
X120857854Y-43325776D01*
X120410292Y-42878213D01*
X120410288Y-42878210D01*
X120279185Y-42790609D01*
X120279172Y-42790602D01*
X120133501Y-42730264D01*
X120133489Y-42730261D01*
X119978845Y-42699500D01*
X119978842Y-42699500D01*
X118989033Y-42699500D01*
X118921994Y-42679815D01*
X118894748Y-42656038D01*
X118891964Y-42652779D01*
X118747213Y-42508028D01*
X118581614Y-42387715D01*
X118523966Y-42358342D01*
X118488917Y-42340483D01*
X118438123Y-42292511D01*
X118421328Y-42224690D01*
X118443865Y-42158555D01*
X118488917Y-42119516D01*
X118581610Y-42072287D01*
X118636670Y-42032284D01*
X118747213Y-41951971D01*
X118747215Y-41951968D01*
X118747219Y-41951966D01*
X118891966Y-41807219D01*
X119012287Y-41641610D01*
X119026036Y-41614625D01*
X119048840Y-41583238D01*
X119580601Y-41051477D01*
X120122789Y-40509289D01*
X120129441Y-40499334D01*
X120210394Y-40378179D01*
X120270737Y-40232497D01*
X120286650Y-40152497D01*
X120294550Y-40112781D01*
X120301500Y-40077845D01*
X120301500Y-37348892D01*
X120301499Y-37348888D01*
X120293544Y-37308892D01*
X120285353Y-37267713D01*
X120270737Y-37194236D01*
X120226548Y-37087555D01*
X120210394Y-37048555D01*
X120122789Y-36917445D01*
X120011289Y-36805945D01*
X116446818Y-33241474D01*
X116413333Y-33180151D01*
X116410499Y-33153793D01*
X116410499Y-32094003D01*
X116430184Y-32026964D01*
X116482988Y-31981209D01*
X116518313Y-31971064D01*
X116522238Y-31970548D01*
X116743887Y-31911158D01*
X116955888Y-31823344D01*
X117154612Y-31708611D01*
X117336661Y-31568919D01*
X117336665Y-31568914D01*
X117336670Y-31568911D01*
X117498911Y-31406670D01*
X117498914Y-31406665D01*
X117498919Y-31406661D01*
X117638611Y-31224612D01*
X117753344Y-31025888D01*
X117841158Y-30813887D01*
X117900548Y-30592238D01*
X117930500Y-30364734D01*
X117930500Y-30135266D01*
X117900548Y-29907762D01*
X117841158Y-29686113D01*
X117753344Y-29474112D01*
X117638611Y-29275388D01*
X117638608Y-29275385D01*
X117638607Y-29275382D01*
X117498918Y-29093338D01*
X117498911Y-29093330D01*
X117336670Y-28931089D01*
X117336661Y-28931081D01*
X117154617Y-28791392D01*
X116955890Y-28676657D01*
X116955876Y-28676650D01*
X116743887Y-28588842D01*
X116522238Y-28529452D01*
X116484215Y-28524446D01*
X116294741Y-28499500D01*
X116294734Y-28499500D01*
X116281905Y-28499500D01*
X116214866Y-28479815D01*
X116169111Y-28427011D01*
X116159167Y-28357853D01*
X116181586Y-28302615D01*
X116193343Y-28286433D01*
X116300568Y-28075992D01*
X116373553Y-27851368D01*
X116380579Y-27807007D01*
X116410500Y-27618097D01*
X116410500Y-27381902D01*
X116373553Y-27148631D01*
X116300566Y-26924003D01*
X116193342Y-26713566D01*
X116054517Y-26522490D01*
X115887510Y-26355483D01*
X115881449Y-26351079D01*
X115761614Y-26264012D01*
X115718948Y-26208682D01*
X115710500Y-26163695D01*
X115710500Y-25331158D01*
X115702678Y-25291835D01*
X115679738Y-25176503D01*
X115619394Y-25030821D01*
X115619391Y-25030817D01*
X115616525Y-25025454D01*
X115618453Y-25024422D01*
X115600519Y-24967136D01*
X115600499Y-24964928D01*
X115600499Y-24499998D01*
X115600498Y-24499981D01*
X115589999Y-24397203D01*
X115589998Y-24397200D01*
X115562748Y-24314965D01*
X115534814Y-24230666D01*
X115442712Y-24081344D01*
X115318656Y-23957288D01*
X115169334Y-23865186D01*
X115002797Y-23810001D01*
X115002795Y-23810000D01*
X114900010Y-23799500D01*
X114099998Y-23799500D01*
X114099980Y-23799501D01*
X113997203Y-23810000D01*
X113997200Y-23810001D01*
X113830668Y-23865185D01*
X113830663Y-23865187D01*
X113681342Y-23957289D01*
X113587681Y-24050951D01*
X113526358Y-24084436D01*
X113456666Y-24079452D01*
X113412319Y-24050951D01*
X113318657Y-23957289D01*
X113318656Y-23957288D01*
X113169334Y-23865186D01*
X113002797Y-23810001D01*
X113002795Y-23810000D01*
X112900010Y-23799500D01*
X112099998Y-23799500D01*
X112099980Y-23799501D01*
X111997203Y-23810000D01*
X111997200Y-23810001D01*
X111830668Y-23865185D01*
X111830663Y-23865187D01*
X111681342Y-23957289D01*
X111557289Y-24081342D01*
X111520741Y-24140597D01*
X111468793Y-24187321D01*
X111415202Y-24199500D01*
X110836304Y-24199500D01*
X110769265Y-24179815D01*
X110735986Y-24148386D01*
X110644517Y-24022490D01*
X110477510Y-23855483D01*
X110286433Y-23716657D01*
X110075996Y-23609433D01*
X109851368Y-23536446D01*
X109618097Y-23499500D01*
X109618092Y-23499500D01*
X109381908Y-23499500D01*
X109381903Y-23499500D01*
X109148631Y-23536446D01*
X108924003Y-23609433D01*
X108713566Y-23716657D01*
X108604550Y-23795862D01*
X108522490Y-23855483D01*
X108522488Y-23855485D01*
X108522487Y-23855485D01*
X108355485Y-24022487D01*
X108355485Y-24022488D01*
X108355483Y-24022490D01*
X108295862Y-24104550D01*
X108216657Y-24213566D01*
X108109433Y-24424003D01*
X108036446Y-24648631D01*
X107999500Y-24881902D01*
X107999500Y-25118097D01*
X108036446Y-25351368D01*
X108109433Y-25575996D01*
X108207943Y-25769331D01*
X108216657Y-25786433D01*
X108355483Y-25977510D01*
X108522490Y-26144517D01*
X108713567Y-26283343D01*
X108737311Y-26295441D01*
X108924003Y-26390566D01*
X108924005Y-26390566D01*
X108924008Y-26390568D01*
X109019285Y-26421525D01*
X109073730Y-26439216D01*
X109131405Y-26478654D01*
X109158603Y-26543013D01*
X109146688Y-26611859D01*
X109123092Y-26644828D01*
X108472270Y-27295651D01*
X108378213Y-27389707D01*
X108378210Y-27389711D01*
X108290609Y-27520814D01*
X108290602Y-27520827D01*
X108230264Y-27666498D01*
X108230261Y-27666510D01*
X108199500Y-27821153D01*
X108199500Y-37618846D01*
X108230260Y-37773488D01*
X108230261Y-37773489D01*
X108230263Y-37773497D01*
X108250425Y-37822174D01*
X108257893Y-37891641D01*
X108238965Y-37938514D01*
X108170609Y-38040814D01*
X108170602Y-38040827D01*
X108110264Y-38186498D01*
X108110261Y-38186510D01*
X108079500Y-38341153D01*
X108079500Y-38498846D01*
X108110261Y-38653489D01*
X108110264Y-38653501D01*
X108170602Y-38799172D01*
X108170609Y-38799185D01*
X108258210Y-38930288D01*
X108258213Y-38930292D01*
X108289603Y-38961682D01*
X108312406Y-38993067D01*
X108367713Y-39101611D01*
X108488028Y-39267213D01*
X108632786Y-39411971D01*
X108787749Y-39524556D01*
X108798390Y-39532287D01*
X108881238Y-39574500D01*
X108891080Y-39579515D01*
X108941876Y-39627490D01*
X108958671Y-39695311D01*
X108936134Y-39761446D01*
X108891080Y-39800485D01*
X108798386Y-39847715D01*
X108632786Y-39968028D01*
X108632782Y-39968032D01*
X108511602Y-40089213D01*
X108450279Y-40122698D01*
X108380587Y-40117714D01*
X108336240Y-40089213D01*
X108177512Y-39930485D01*
X108177510Y-39930483D01*
X107986433Y-39791657D01*
X107950792Y-39773497D01*
X107775996Y-39684433D01*
X107551368Y-39611446D01*
X107318097Y-39574500D01*
X107318092Y-39574500D01*
X107081908Y-39574500D01*
X107081903Y-39574500D01*
X106848631Y-39611446D01*
X106624003Y-39684433D01*
X106413566Y-39791657D01*
X106322777Y-39857620D01*
X106222490Y-39930483D01*
X106222488Y-39930485D01*
X106222487Y-39930485D01*
X106055485Y-40097487D01*
X106055485Y-40097488D01*
X106055483Y-40097490D01*
X106017818Y-40149331D01*
X105916657Y-40288566D01*
X105809433Y-40499003D01*
X105736446Y-40723631D01*
X105699500Y-40956902D01*
X105699500Y-41193097D01*
X105736446Y-41426368D01*
X105809433Y-41650996D01*
X105896774Y-41822410D01*
X105916657Y-41861433D01*
X106055483Y-42052510D01*
X106222490Y-42219517D01*
X106413567Y-42358343D01*
X106471209Y-42387713D01*
X106624003Y-42465566D01*
X106624005Y-42465566D01*
X106624008Y-42465568D01*
X106729920Y-42499981D01*
X106848631Y-42538553D01*
X107081903Y-42575500D01*
X107081908Y-42575500D01*
X107318097Y-42575500D01*
X107551368Y-42538553D01*
X107560764Y-42535500D01*
X107775992Y-42465568D01*
X107986433Y-42358343D01*
X108177510Y-42219517D01*
X108344517Y-42052510D01*
X108422796Y-41944767D01*
X108478121Y-41902106D01*
X108547734Y-41896127D01*
X108609530Y-41928732D01*
X108610791Y-41929976D01*
X108632786Y-41951971D01*
X108743330Y-42032284D01*
X108798390Y-42072287D01*
X108889196Y-42118555D01*
X108891080Y-42119515D01*
X108941876Y-42167490D01*
X108958671Y-42235311D01*
X108936134Y-42301446D01*
X108891080Y-42340485D01*
X108798386Y-42387715D01*
X108632786Y-42508028D01*
X108488028Y-42652786D01*
X108367715Y-42818386D01*
X108274781Y-43000776D01*
X108211522Y-43195465D01*
X108179500Y-43397648D01*
X108179500Y-43602351D01*
X108211522Y-43804534D01*
X108274781Y-43999223D01*
X108321817Y-44091535D01*
X108347333Y-44141613D01*
X108367715Y-44181613D01*
X108488028Y-44347213D01*
X108632786Y-44491971D01*
X108743330Y-44572284D01*
X108798390Y-44612287D01*
X108885324Y-44656582D01*
X108891080Y-44659515D01*
X108941876Y-44707490D01*
X108958671Y-44775311D01*
X108936134Y-44841446D01*
X108891080Y-44880485D01*
X108798386Y-44927715D01*
X108632786Y-45048028D01*
X108488028Y-45192786D01*
X108367715Y-45358386D01*
X108274781Y-45540776D01*
X108211522Y-45735465D01*
X108179500Y-45937648D01*
X108179500Y-46142351D01*
X108211522Y-46344534D01*
X108274781Y-46539223D01*
X108300250Y-46589207D01*
X108367582Y-46721353D01*
X108367715Y-46721613D01*
X108488028Y-46887213D01*
X108632786Y-47031971D01*
X108742745Y-47111859D01*
X108798390Y-47152287D01*
X108888201Y-47198048D01*
X108980776Y-47245218D01*
X108980778Y-47245218D01*
X108980781Y-47245220D01*
X109050860Y-47267990D01*
X109175465Y-47308477D01*
X109238091Y-47318396D01*
X109377648Y-47340500D01*
X109377649Y-47340500D01*
X110382351Y-47340500D01*
X110382352Y-47340500D01*
X110584534Y-47308477D01*
X110779219Y-47245220D01*
X110961610Y-47152287D01*
X111097935Y-47053242D01*
X111127213Y-47031971D01*
X111127215Y-47031968D01*
X111127219Y-47031966D01*
X111271966Y-46887219D01*
X111271968Y-46887215D01*
X111271971Y-46887213D01*
X111352446Y-46776447D01*
X111392287Y-46721610D01*
X111485220Y-46539219D01*
X111548477Y-46344534D01*
X111580500Y-46142352D01*
X111580500Y-45937648D01*
X111565922Y-45845606D01*
X111548477Y-45735465D01*
X111485218Y-45540776D01*
X111392419Y-45358650D01*
X111392287Y-45358390D01*
X111384556Y-45347749D01*
X111271971Y-45192786D01*
X111127213Y-45048028D01*
X110961614Y-44927715D01*
X110889205Y-44890821D01*
X110868917Y-44880483D01*
X110818123Y-44832511D01*
X110801328Y-44764690D01*
X110823865Y-44698555D01*
X110868917Y-44659516D01*
X110961610Y-44612287D01*
X111016670Y-44572284D01*
X111127213Y-44491971D01*
X111127215Y-44491968D01*
X111127219Y-44491966D01*
X111271966Y-44347219D01*
X111271972Y-44347210D01*
X111274748Y-44343962D01*
X111333258Y-44305773D01*
X111369033Y-44300500D01*
X111768844Y-44300500D01*
X111768845Y-44300499D01*
X111923497Y-44269737D01*
X112069179Y-44209394D01*
X112200289Y-44121789D01*
X112585259Y-43736817D01*
X112646582Y-43703333D01*
X112672940Y-43700499D01*
X113090002Y-43700499D01*
X113090008Y-43700499D01*
X113192797Y-43689999D01*
X113359334Y-43634814D01*
X113508656Y-43542712D01*
X113602319Y-43449049D01*
X113663642Y-43415564D01*
X113733334Y-43420548D01*
X113777681Y-43449049D01*
X113871344Y-43542712D01*
X114020666Y-43634814D01*
X114187203Y-43689999D01*
X114289991Y-43700500D01*
X115090008Y-43700499D01*
X115090016Y-43700498D01*
X115090019Y-43700498D01*
X115146302Y-43694748D01*
X115192797Y-43689999D01*
X115359334Y-43634814D01*
X115508656Y-43542712D01*
X115587819Y-43463549D01*
X115649142Y-43430064D01*
X115718834Y-43435048D01*
X115774767Y-43476920D01*
X115799184Y-43542384D01*
X115799500Y-43551230D01*
X115799500Y-43602351D01*
X115831522Y-43804534D01*
X115894781Y-43999223D01*
X115941817Y-44091535D01*
X115967333Y-44141613D01*
X115987715Y-44181613D01*
X116108028Y-44347213D01*
X116252786Y-44491971D01*
X116363330Y-44572284D01*
X116418390Y-44612287D01*
X116490424Y-44648990D01*
X116511629Y-44659795D01*
X116562425Y-44707770D01*
X116579220Y-44775591D01*
X116556682Y-44841726D01*
X116511629Y-44880765D01*
X116418650Y-44928140D01*
X116253105Y-45048417D01*
X116253104Y-45048417D01*
X116108417Y-45193104D01*
X116108417Y-45193105D01*
X115988140Y-45358650D01*
X115895244Y-45540970D01*
X115832009Y-45735586D01*
X115823391Y-45790000D01*
X117184314Y-45790000D01*
X117179920Y-45794394D01*
X117127259Y-45885606D01*
X117100000Y-45987339D01*
X117100000Y-46092661D01*
X117127259Y-46194394D01*
X117179920Y-46285606D01*
X117184314Y-46290000D01*
X115823391Y-46290000D01*
X115832009Y-46344413D01*
X115895244Y-46539029D01*
X115988140Y-46721349D01*
X116108417Y-46886894D01*
X116108417Y-46886895D01*
X116253104Y-47031582D01*
X116418650Y-47151859D01*
X116600968Y-47244755D01*
X116795582Y-47307990D01*
X116997683Y-47340000D01*
X117250000Y-47340000D01*
X117250000Y-46355686D01*
X117254394Y-46360080D01*
X117345606Y-46412741D01*
X117447339Y-46440000D01*
X117552661Y-46440000D01*
X117654394Y-46412741D01*
X117745606Y-46360080D01*
X117750000Y-46355686D01*
X117750000Y-47340000D01*
X118002317Y-47340000D01*
X118204417Y-47307990D01*
X118399031Y-47244755D01*
X118581353Y-47151857D01*
X118687755Y-47074551D01*
X118753561Y-47051070D01*
X118821615Y-47066895D01*
X118870310Y-47117000D01*
X118884186Y-47185478D01*
X118858838Y-47250587D01*
X118848322Y-47262549D01*
X117949691Y-48161181D01*
X117888368Y-48194666D01*
X117862010Y-48197500D01*
X111912938Y-48197500D01*
X111758293Y-48228261D01*
X111758281Y-48228264D01*
X111612610Y-48288602D01*
X111612597Y-48288609D01*
X111481494Y-48376210D01*
X111481490Y-48376213D01*
X107561213Y-52296489D01*
X107561210Y-52296493D01*
X107473609Y-52427596D01*
X107473602Y-52427609D01*
X107413263Y-52573283D01*
X107413261Y-52573292D01*
X107382980Y-52725529D01*
X107382975Y-52725556D01*
X107382500Y-52727941D01*
X107382500Y-54552010D01*
X107362815Y-54619049D01*
X107346181Y-54639691D01*
X104372691Y-57613181D01*
X104311368Y-57646666D01*
X104285010Y-57649500D01*
X103007940Y-57649500D01*
X102978499Y-57640855D01*
X102948513Y-57634332D01*
X102943497Y-57630577D01*
X102940901Y-57629815D01*
X102920259Y-57613181D01*
X102774088Y-57467010D01*
X102740603Y-57405687D01*
X102745587Y-57335995D01*
X102787459Y-57280062D01*
X102842373Y-57256855D01*
X102940814Y-57241264D01*
X103145901Y-57174627D01*
X103338036Y-57076728D01*
X103512496Y-56949974D01*
X103512497Y-56949974D01*
X103664974Y-56797497D01*
X103664974Y-56797496D01*
X103791728Y-56623036D01*
X103889627Y-56430901D01*
X103956265Y-56225809D01*
X103990000Y-56012820D01*
X103990000Y-55930000D01*
X103162709Y-55930000D01*
X103174452Y-55909661D01*
X103215000Y-55758333D01*
X103215000Y-55601667D01*
X103174452Y-55450339D01*
X103162709Y-55430000D01*
X103990000Y-55430000D01*
X103990000Y-55347179D01*
X103956265Y-55134190D01*
X103889627Y-54929098D01*
X103791728Y-54736963D01*
X103664974Y-54562503D01*
X103664974Y-54562502D01*
X103512497Y-54410025D01*
X103338036Y-54283271D01*
X103145899Y-54185372D01*
X102940805Y-54118733D01*
X102870000Y-54107518D01*
X102870000Y-55137290D01*
X102849661Y-55125548D01*
X102698333Y-55085000D01*
X102541667Y-55085000D01*
X102390339Y-55125548D01*
X102370000Y-55137290D01*
X102370000Y-54107518D01*
X102369999Y-54107518D01*
X102299194Y-54118733D01*
X102094100Y-54185372D01*
X101901963Y-54283271D01*
X101727503Y-54410025D01*
X101727502Y-54410025D01*
X101575024Y-54562503D01*
X101450627Y-54733720D01*
X101395296Y-54776385D01*
X101325683Y-54782364D01*
X101263888Y-54749758D01*
X101249991Y-54733720D01*
X101125359Y-54562179D01*
X100972821Y-54409641D01*
X100931613Y-54379701D01*
X100888948Y-54324370D01*
X100880500Y-54279384D01*
X100880500Y-49962940D01*
X100900185Y-49895901D01*
X100916819Y-49875259D01*
X101891786Y-48900292D01*
X101891789Y-48900289D01*
X101979394Y-48769179D01*
X102039737Y-48623497D01*
X102050828Y-48567739D01*
X102070500Y-48468843D01*
X102070500Y-48311158D01*
X102070500Y-45191158D01*
X102070500Y-45191155D01*
X102067109Y-45174112D01*
X102067109Y-45174107D01*
X102048736Y-45081744D01*
X102039738Y-45036503D01*
X101979394Y-44890821D01*
X101979392Y-44890818D01*
X101979390Y-44890814D01*
X101891789Y-44759711D01*
X101891786Y-44759707D01*
X99970292Y-42838213D01*
X99970288Y-42838210D01*
X99839185Y-42750609D01*
X99839172Y-42750602D01*
X99693501Y-42690264D01*
X99693489Y-42690261D01*
X99538845Y-42659500D01*
X99538842Y-42659500D01*
X98989033Y-42659500D01*
X98921994Y-42639815D01*
X98894748Y-42616038D01*
X98891964Y-42612779D01*
X98747213Y-42468028D01*
X98581614Y-42347715D01*
X98567424Y-42340485D01*
X98488917Y-42300483D01*
X98438123Y-42252511D01*
X98421328Y-42184690D01*
X98443865Y-42118555D01*
X98488917Y-42079516D01*
X98581610Y-42032287D01*
X98602770Y-42016913D01*
X98747213Y-41911971D01*
X98747215Y-41911968D01*
X98747219Y-41911966D01*
X98891966Y-41767219D01*
X99012287Y-41601610D01*
X99067592Y-41493064D01*
X99090391Y-41461685D01*
X100122789Y-40429289D01*
X100210394Y-40298179D01*
X100270738Y-40152497D01*
X100301500Y-39997842D01*
X100301500Y-39840157D01*
X100301500Y-37308892D01*
X100301500Y-37308889D01*
X100301499Y-37308887D01*
X100287336Y-37237684D01*
X100270737Y-37154237D01*
X100267177Y-37145643D01*
X100210397Y-37008561D01*
X100210390Y-37008548D01*
X100122790Y-36877446D01*
X100090289Y-36844945D01*
X100011289Y-36765945D01*
X99145844Y-35900500D01*
X98213558Y-34968213D01*
X98213554Y-34968210D01*
X98082451Y-34880609D01*
X98082438Y-34880602D01*
X97936767Y-34820264D01*
X97936755Y-34820261D01*
X97782111Y-34789500D01*
X97782108Y-34789500D01*
X96852940Y-34789500D01*
X96785901Y-34769815D01*
X96765259Y-34753181D01*
X96383146Y-34371068D01*
X96349661Y-34309745D01*
X96354645Y-34240054D01*
X96356467Y-34235169D01*
X96404091Y-34107483D01*
X96410500Y-34047873D01*
X96410499Y-32094002D01*
X96430184Y-32026964D01*
X96482987Y-31981209D01*
X96518313Y-31971064D01*
X96522238Y-31970548D01*
X96743887Y-31911158D01*
X96955888Y-31823344D01*
X97154612Y-31708611D01*
X97336661Y-31568919D01*
X97336665Y-31568914D01*
X97336670Y-31568911D01*
X97498911Y-31406670D01*
X97498914Y-31406665D01*
X97498919Y-31406661D01*
X97638611Y-31224612D01*
X97753344Y-31025888D01*
X97841158Y-30813887D01*
X97900548Y-30592238D01*
X97930500Y-30364734D01*
X97930500Y-30135266D01*
X97900548Y-29907762D01*
X97841158Y-29686113D01*
X97753344Y-29474112D01*
X97638611Y-29275388D01*
X97638608Y-29275385D01*
X97638607Y-29275382D01*
X97498918Y-29093338D01*
X97498911Y-29093330D01*
X97336670Y-28931089D01*
X97336661Y-28931081D01*
X97154617Y-28791392D01*
X96955890Y-28676657D01*
X96955876Y-28676650D01*
X96743887Y-28588842D01*
X96522238Y-28529452D01*
X96484215Y-28524446D01*
X96294741Y-28499500D01*
X96294734Y-28499500D01*
X96281905Y-28499500D01*
X96214866Y-28479815D01*
X96169111Y-28427011D01*
X96159167Y-28357853D01*
X96181586Y-28302615D01*
X96193343Y-28286433D01*
X96300568Y-28075992D01*
X96373553Y-27851368D01*
X96380579Y-27807007D01*
X96410500Y-27618097D01*
X96410500Y-27381902D01*
X96373553Y-27148631D01*
X96300566Y-26924003D01*
X96193342Y-26713566D01*
X96054517Y-26522490D01*
X95887510Y-26355483D01*
X95881449Y-26351079D01*
X95761614Y-26264012D01*
X95718948Y-26208682D01*
X95710500Y-26163695D01*
X95710500Y-25331158D01*
X95702678Y-25291835D01*
X95679738Y-25176503D01*
X95619394Y-25030821D01*
X95619391Y-25030817D01*
X95616525Y-25025454D01*
X95618453Y-25024422D01*
X95600519Y-24967136D01*
X95600499Y-24964928D01*
X95600499Y-24499998D01*
X95600498Y-24499981D01*
X95589999Y-24397203D01*
X95589998Y-24397200D01*
X95562748Y-24314965D01*
X95534814Y-24230666D01*
X95442712Y-24081344D01*
X95318656Y-23957288D01*
X95169334Y-23865186D01*
X95002797Y-23810001D01*
X95002795Y-23810000D01*
X94900010Y-23799500D01*
X94099998Y-23799500D01*
X94099980Y-23799501D01*
X93997203Y-23810000D01*
X93997200Y-23810001D01*
X93830668Y-23865185D01*
X93830663Y-23865187D01*
X93681342Y-23957289D01*
X93587681Y-24050951D01*
X93526358Y-24084436D01*
X93456666Y-24079452D01*
X93412319Y-24050951D01*
X93318657Y-23957289D01*
X93318656Y-23957288D01*
X93169334Y-23865186D01*
X93002797Y-23810001D01*
X93002795Y-23810000D01*
X92900010Y-23799500D01*
X92099998Y-23799500D01*
X92099980Y-23799501D01*
X91997203Y-23810000D01*
X91997200Y-23810001D01*
X91830668Y-23865185D01*
X91830663Y-23865187D01*
X91681342Y-23957289D01*
X91557289Y-24081342D01*
X91520741Y-24140597D01*
X91468793Y-24187321D01*
X91415202Y-24199500D01*
X91136304Y-24199500D01*
X91069265Y-24179815D01*
X91035986Y-24148386D01*
X90944517Y-24022490D01*
X90777510Y-23855483D01*
X90586433Y-23716657D01*
X90375996Y-23609433D01*
X90151368Y-23536446D01*
X89918097Y-23499500D01*
X89918092Y-23499500D01*
X89681908Y-23499500D01*
X89681903Y-23499500D01*
X89448631Y-23536446D01*
X89224003Y-23609433D01*
X89013566Y-23716657D01*
X88904550Y-23795862D01*
X88822490Y-23855483D01*
X88822488Y-23855485D01*
X88822487Y-23855485D01*
X88655485Y-24022487D01*
X88655485Y-24022488D01*
X88655483Y-24022490D01*
X88595862Y-24104550D01*
X88516657Y-24213566D01*
X88409433Y-24424003D01*
X88336446Y-24648631D01*
X88299500Y-24881902D01*
X88299500Y-25118097D01*
X88336447Y-25351369D01*
X88356196Y-25412151D01*
X88359882Y-25474660D01*
X88338500Y-25582153D01*
X88338500Y-34863950D01*
X88318815Y-34930989D01*
X88266011Y-34976744D01*
X88196853Y-34986688D01*
X88133297Y-34957663D01*
X88126334Y-34950514D01*
X88126097Y-34950752D01*
X75752558Y-22577213D01*
X75752554Y-22577210D01*
X75621451Y-22489609D01*
X75621438Y-22489602D01*
X75475767Y-22429264D01*
X75475755Y-22429261D01*
X75321111Y-22398500D01*
X75321108Y-22398500D01*
X69332843Y-22398500D01*
X69175159Y-22398500D01*
X69175156Y-22398500D01*
X69020511Y-22429261D01*
X69020499Y-22429264D01*
X68874828Y-22489602D01*
X68874815Y-22489609D01*
X68743712Y-22577210D01*
X68743708Y-22577213D01*
X67711491Y-23609432D01*
X67368711Y-23952212D01*
X67321423Y-23999500D01*
X67257209Y-24063713D01*
X67169609Y-24194815D01*
X67169602Y-24194828D01*
X67109264Y-24340499D01*
X67109261Y-24340511D01*
X67078500Y-24495154D01*
X67078500Y-38117060D01*
X67058815Y-38184099D01*
X67042181Y-38204741D01*
X66267711Y-38979211D01*
X66211960Y-39034962D01*
X66156209Y-39090712D01*
X66068609Y-39221814D01*
X66068602Y-39221827D01*
X66008264Y-39367498D01*
X66008261Y-39367510D01*
X65977500Y-39522153D01*
X65475500Y-39522153D01*
X65475500Y-22164500D01*
X65495185Y-22097461D01*
X65547989Y-22051706D01*
X65599500Y-22040500D01*
X121770500Y-22040500D01*
X121837539Y-22060185D01*
G37*
%TD.AperFunction*%
%TD*%
M02*
