%TF.GenerationSoftware,KiCad,Pcbnew,9.0.4*%
%TF.CreationDate,2026-02-19T09:19:53+00:00*%
%TF.ProjectId,Line following V2,4c696e65-2066-46f6-9c6c-6f77696e6720,rev?*%
%TF.SameCoordinates,Original*%
%TF.FileFunction,Copper,L2,Bot*%
%TF.FilePolarity,Positive*%
%FSLAX46Y46*%
G04 Gerber Fmt 4.6, Leading zero omitted, Abs format (unit mm)*
G04 Created by KiCad (PCBNEW 9.0.4) date 2026-02-19 09:19:53*
%MOMM*%
%LPD*%
G01*
G04 APERTURE LIST*
G04 Aperture macros list*
%AMRoundRect*
0 Rectangle with rounded corners*
0 $1 Rounding radius*
0 $2 $3 $4 $5 $6 $7 $8 $9 X,Y pos of 4 corners*
0 Add a 4 corners polygon primitive as box body*
4,1,4,$2,$3,$4,$5,$6,$7,$8,$9,$2,$3,0*
0 Add four circle primitives for the rounded corners*
1,1,$1+$1,$2,$3*
1,1,$1+$1,$4,$5*
1,1,$1+$1,$6,$7*
1,1,$1+$1,$8,$9*
0 Add four rect primitives between the rounded corners*
20,1,$1+$1,$2,$3,$4,$5,0*
20,1,$1+$1,$4,$5,$6,$7,0*
20,1,$1+$1,$6,$7,$8,$9,0*
20,1,$1+$1,$8,$9,$2,$3,0*%
G04 Aperture macros list end*
%TA.AperFunction,ComponentPad*%
%ADD10RoundRect,0.250000X-0.620000X-0.845000X0.620000X-0.845000X0.620000X0.845000X-0.620000X0.845000X0*%
%TD*%
%TA.AperFunction,ComponentPad*%
%ADD11O,1.740000X2.190000*%
%TD*%
%TA.AperFunction,ComponentPad*%
%ADD12R,2.000000X2.000000*%
%TD*%
%TA.AperFunction,ComponentPad*%
%ADD13C,2.000000*%
%TD*%
%TA.AperFunction,ComponentPad*%
%ADD14O,2.400000X1.600000*%
%TD*%
%TA.AperFunction,ComponentPad*%
%ADD15RoundRect,0.250000X0.950000X0.550000X-0.950000X0.550000X-0.950000X-0.550000X0.950000X-0.550000X0*%
%TD*%
%TA.AperFunction,ConnectorPad*%
%ADD16C,9.200000*%
%TD*%
%TA.AperFunction,ComponentPad*%
%ADD17C,5.700000*%
%TD*%
%TA.AperFunction,ViaPad*%
%ADD18C,2.000000*%
%TD*%
%TA.AperFunction,Conductor*%
%ADD19C,0.600000*%
%TD*%
G04 APERTURE END LIST*
D10*
%TO.P,J1,1,Pin_1*%
%TO.N,GND*%
X84840000Y-55680000D03*
D11*
%TO.P,J1,2,Pin_2*%
%TO.N,+5V*%
X87380000Y-55680000D03*
%TO.P,J1,3,Pin_3*%
%TO.N,Output_L*%
X89920000Y-55680000D03*
%TO.P,J1,4,Pin_4*%
%TO.N,Output_C*%
X92460000Y-55680000D03*
%TO.P,J1,5,Pin_5*%
%TO.N,Output_R*%
X95000000Y-55680000D03*
%TO.P,J1,6,Pin_6*%
%TO.N,+3.3V*%
X97540000Y-55680000D03*
%TO.P,J1,7,Pin_7*%
%TO.N,Threshold*%
X100080000Y-55680000D03*
%TO.P,J1,8,Pin_8*%
%TO.N,GND*%
X102620000Y-55680000D03*
%TD*%
D12*
%TO.P,Q1,1,C*%
%TO.N,Net-(Q1-C)*%
X74910000Y-33000000D03*
D13*
%TO.P,Q1,2,E*%
%TO.N,GND*%
X72370000Y-33000000D03*
%TO.P,Q1,3,K*%
X72370000Y-27500000D03*
%TO.P,Q1,4,A*%
%TO.N,Net-(Q1-A)*%
X74910000Y-27500000D03*
%TD*%
D14*
%TO.P,U3,8,V+*%
%TO.N,+5V*%
X109880000Y-38420000D03*
%TO.P,U3,7*%
%TO.N,Output_R*%
X109880000Y-40960000D03*
%TO.P,U3,6,STRB*%
%TO.N,Net-(U3-STRB)*%
X109880000Y-43500000D03*
%TO.P,U3,5,BAL*%
%TO.N,unconnected-(U3-BAL-Pad5)*%
X109880000Y-46040000D03*
%TO.P,U3,4,V-*%
%TO.N,GND*%
X117500000Y-46040000D03*
%TO.P,U3,3,-*%
%TO.N,Threshold*%
X117500000Y-43500000D03*
%TO.P,U3,2,+*%
%TO.N,Net-(Q3-C)*%
X117500000Y-40960000D03*
D15*
%TO.P,U3,1,GND*%
%TO.N,GND*%
X117500000Y-38420000D03*
%TD*%
D14*
%TO.P,U2,8,V+*%
%TO.N,+5V*%
X89880000Y-38380000D03*
%TO.P,U2,7*%
%TO.N,Output_C*%
X89880000Y-40920000D03*
%TO.P,U2,6,STRB*%
%TO.N,Net-(U2-STRB)*%
X89880000Y-43460000D03*
%TO.P,U2,5,BAL*%
%TO.N,unconnected-(U2-BAL-Pad5)*%
X89880000Y-46000000D03*
%TO.P,U2,4,V-*%
%TO.N,GND*%
X97500000Y-46000000D03*
%TO.P,U2,3,-*%
%TO.N,Threshold*%
X97500000Y-43460000D03*
%TO.P,U2,2,+*%
%TO.N,Net-(Q2-C)*%
X97500000Y-40920000D03*
D15*
%TO.P,U2,1,GND*%
%TO.N,GND*%
X97500000Y-38380000D03*
%TD*%
D14*
%TO.P,U1,8,V+*%
%TO.N,+5V*%
X69880000Y-38380000D03*
%TO.P,U1,7*%
%TO.N,Output_L*%
X69880000Y-40920000D03*
%TO.P,U1,6,STRB*%
%TO.N,Net-(U1-STRB)*%
X69880000Y-43460000D03*
%TO.P,U1,5,BAL*%
%TO.N,unconnected-(U1-BAL-Pad5)*%
X69880000Y-46000000D03*
%TO.P,U1,4,V-*%
%TO.N,GND*%
X77500000Y-46000000D03*
%TO.P,U1,3,-*%
%TO.N,Threshold*%
X77500000Y-43460000D03*
%TO.P,U1,2,+*%
%TO.N,Net-(Q1-C)*%
X77500000Y-40920000D03*
D15*
%TO.P,U1,1,GND*%
%TO.N,GND*%
X77500000Y-38380000D03*
%TD*%
D16*
%TO.P,H2,1,1*%
%TO.N,GND*%
X72685000Y-55500000D03*
D17*
X72685000Y-55500000D03*
%TD*%
%TO.P,H1,1,1*%
%TO.N,GND*%
X114685000Y-55500000D03*
D16*
X114685000Y-55500000D03*
%TD*%
D13*
%TO.P,Q3,4,A*%
%TO.N,Net-(Q3-A)*%
X114910000Y-27500000D03*
%TO.P,Q3,3,K*%
%TO.N,GND*%
X112370000Y-27500000D03*
%TO.P,Q3,2,E*%
X112370000Y-33000000D03*
D12*
%TO.P,Q3,1,C*%
%TO.N,Net-(Q3-C)*%
X114910000Y-33000000D03*
%TD*%
%TO.P,Q2,1,C*%
%TO.N,Net-(Q2-C)*%
X94910000Y-33000000D03*
D13*
%TO.P,Q2,2,E*%
%TO.N,GND*%
X92370000Y-33000000D03*
%TO.P,Q2,3,K*%
X92370000Y-27500000D03*
%TO.P,Q2,4,A*%
%TO.N,Net-(Q2-A)*%
X94910000Y-27500000D03*
%TD*%
D18*
%TO.N,Output_R*%
X107200000Y-41075000D03*
X95200000Y-53100000D03*
%TO.N,GND*%
X104500000Y-42700000D03*
X113830000Y-35930000D03*
X93570000Y-35820000D03*
X83400000Y-42400000D03*
X73840000Y-35870000D03*
%TO.N,+5V*%
X109500000Y-25000000D03*
X70000000Y-25000000D03*
X89800000Y-25000000D03*
%TD*%
D19*
%TO.N,+5V*%
X89800000Y-25000000D02*
X70000000Y-25000000D01*
X89800000Y-25000000D02*
X109500000Y-25000000D01*
%TO.N,Output_R*%
X107200000Y-44500000D02*
X107200000Y-41075000D01*
X98600000Y-53100000D02*
X107200000Y-44500000D01*
X95200000Y-53100000D02*
X98600000Y-53100000D01*
%TD*%
%TA.AperFunction,Conductor*%
%TO.N,GND*%
G36*
X73592657Y-28369104D02*
G01*
X73612404Y-28367550D01*
X73680781Y-28381914D01*
X73722451Y-28418282D01*
X73765483Y-28477510D01*
X73932490Y-28644517D01*
X74123567Y-28783343D01*
X74222991Y-28834002D01*
X74334003Y-28890566D01*
X74334005Y-28890566D01*
X74334008Y-28890568D01*
X74454412Y-28929689D01*
X74558631Y-28963553D01*
X74711243Y-28987724D01*
X74774378Y-29017653D01*
X74811310Y-29076964D01*
X74810312Y-29146827D01*
X74790222Y-29185684D01*
X74721389Y-29275387D01*
X74606657Y-29474109D01*
X74606650Y-29474123D01*
X74518842Y-29686112D01*
X74459453Y-29907759D01*
X74459451Y-29907770D01*
X74429500Y-30135258D01*
X74429500Y-30364741D01*
X74454446Y-30554215D01*
X74459452Y-30592238D01*
X74459453Y-30592240D01*
X74518842Y-30813887D01*
X74606650Y-31025876D01*
X74606657Y-31025890D01*
X74721389Y-31224612D01*
X74779247Y-31300013D01*
X74804441Y-31365183D01*
X74790403Y-31433627D01*
X74741589Y-31483617D01*
X74680871Y-31499500D01*
X73862129Y-31499500D01*
X73862123Y-31499501D01*
X73802516Y-31505908D01*
X73667671Y-31556202D01*
X73667664Y-31556206D01*
X73552455Y-31642452D01*
X73552452Y-31642455D01*
X73466206Y-31757664D01*
X73461953Y-31765454D01*
X73458807Y-31763736D01*
X73427139Y-31806010D01*
X73361667Y-31830404D01*
X73293399Y-31815529D01*
X73279978Y-31807035D01*
X73156174Y-31717087D01*
X72945802Y-31609897D01*
X72721247Y-31536934D01*
X72721248Y-31536934D01*
X72648656Y-31525437D01*
X72585521Y-31495508D01*
X72548590Y-31436196D01*
X72549588Y-31366334D01*
X72569679Y-31327477D01*
X72648607Y-31224617D01*
X72648606Y-31224617D01*
X72648611Y-31224612D01*
X72763344Y-31025888D01*
X72851158Y-30813887D01*
X72910548Y-30592238D01*
X72940500Y-30364734D01*
X72940500Y-30135266D01*
X72910548Y-29907762D01*
X72851158Y-29686113D01*
X72763344Y-29474112D01*
X72648611Y-29275388D01*
X72569677Y-29172520D01*
X72544484Y-29107353D01*
X72558522Y-29038908D01*
X72607336Y-28988918D01*
X72648658Y-28974561D01*
X72721252Y-28963064D01*
X72945802Y-28890102D01*
X73156163Y-28782918D01*
X73156169Y-28782914D01*
X73239104Y-28722658D01*
X73239105Y-28722658D01*
X72499408Y-27982962D01*
X72562993Y-27965925D01*
X72677007Y-27900099D01*
X72770099Y-27807007D01*
X72835925Y-27692993D01*
X72852962Y-27629409D01*
X73592657Y-28369104D01*
G37*
%TD.AperFunction*%
%TA.AperFunction,Conductor*%
G36*
X93592657Y-28369104D02*
G01*
X93612404Y-28367550D01*
X93680781Y-28381914D01*
X93722451Y-28418282D01*
X93765483Y-28477510D01*
X93932490Y-28644517D01*
X94123567Y-28783343D01*
X94222991Y-28834002D01*
X94334003Y-28890566D01*
X94334005Y-28890566D01*
X94334008Y-28890568D01*
X94454412Y-28929689D01*
X94558631Y-28963553D01*
X94711243Y-28987724D01*
X94774378Y-29017653D01*
X94811310Y-29076964D01*
X94810312Y-29146827D01*
X94790222Y-29185684D01*
X94721389Y-29275387D01*
X94606657Y-29474109D01*
X94606650Y-29474123D01*
X94518842Y-29686112D01*
X94459453Y-29907759D01*
X94459451Y-29907770D01*
X94429500Y-30135258D01*
X94429500Y-30364741D01*
X94454446Y-30554215D01*
X94459452Y-30592238D01*
X94459453Y-30592240D01*
X94518842Y-30813887D01*
X94606650Y-31025876D01*
X94606657Y-31025890D01*
X94721389Y-31224612D01*
X94779247Y-31300013D01*
X94804441Y-31365183D01*
X94790403Y-31433627D01*
X94741589Y-31483617D01*
X94680871Y-31499500D01*
X93862129Y-31499500D01*
X93862123Y-31499501D01*
X93802516Y-31505908D01*
X93667671Y-31556202D01*
X93667664Y-31556206D01*
X93552455Y-31642452D01*
X93552452Y-31642455D01*
X93466206Y-31757664D01*
X93461953Y-31765454D01*
X93458807Y-31763736D01*
X93427139Y-31806010D01*
X93361667Y-31830404D01*
X93293399Y-31815529D01*
X93279978Y-31807035D01*
X93156174Y-31717087D01*
X92945802Y-31609897D01*
X92721247Y-31536934D01*
X92721248Y-31536934D01*
X92648656Y-31525437D01*
X92585521Y-31495508D01*
X92548590Y-31436196D01*
X92549588Y-31366334D01*
X92569679Y-31327477D01*
X92648607Y-31224617D01*
X92648606Y-31224617D01*
X92648611Y-31224612D01*
X92763344Y-31025888D01*
X92851158Y-30813887D01*
X92910548Y-30592238D01*
X92940500Y-30364734D01*
X92940500Y-30135266D01*
X92910548Y-29907762D01*
X92851158Y-29686113D01*
X92763344Y-29474112D01*
X92648611Y-29275388D01*
X92569677Y-29172520D01*
X92544484Y-29107353D01*
X92558522Y-29038908D01*
X92607336Y-28988918D01*
X92648658Y-28974561D01*
X92721252Y-28963064D01*
X92945802Y-28890102D01*
X93156163Y-28782918D01*
X93156169Y-28782914D01*
X93239104Y-28722658D01*
X93239105Y-28722658D01*
X92499408Y-27982962D01*
X92562993Y-27965925D01*
X92677007Y-27900099D01*
X92770099Y-27807007D01*
X92835925Y-27692993D01*
X92852962Y-27629408D01*
X93592657Y-28369104D01*
G37*
%TD.AperFunction*%
%TA.AperFunction,Conductor*%
G36*
X74568935Y-25820185D02*
G01*
X74614690Y-25872989D01*
X74624634Y-25942147D01*
X74595609Y-26005703D01*
X74540215Y-26042431D01*
X74334003Y-26109433D01*
X74123566Y-26216657D01*
X74113073Y-26224281D01*
X73932490Y-26355483D01*
X73932488Y-26355485D01*
X73932487Y-26355485D01*
X73765482Y-26522490D01*
X73722451Y-26581717D01*
X73667120Y-26624382D01*
X73612405Y-26632448D01*
X73592658Y-26630893D01*
X72852962Y-27370590D01*
X72835925Y-27307007D01*
X72770099Y-27192993D01*
X72677007Y-27099901D01*
X72562993Y-27034075D01*
X72499409Y-27017037D01*
X73239105Y-26277340D01*
X73239104Y-26277338D01*
X73156174Y-26217087D01*
X72945802Y-26109897D01*
X72738165Y-26042431D01*
X72680489Y-26002993D01*
X72653291Y-25938635D01*
X72665206Y-25869788D01*
X72712450Y-25818313D01*
X72776483Y-25800500D01*
X74501896Y-25800500D01*
X74568935Y-25820185D01*
G37*
%TD.AperFunction*%
%TA.AperFunction,Conductor*%
G36*
X94568935Y-25820185D02*
G01*
X94614690Y-25872989D01*
X94624634Y-25942147D01*
X94595609Y-26005703D01*
X94540215Y-26042431D01*
X94334003Y-26109433D01*
X94123566Y-26216657D01*
X94113073Y-26224281D01*
X93932490Y-26355483D01*
X93932488Y-26355485D01*
X93932487Y-26355485D01*
X93765482Y-26522490D01*
X93722451Y-26581717D01*
X93667120Y-26624382D01*
X93612405Y-26632448D01*
X93592658Y-26630893D01*
X92852962Y-27370590D01*
X92835925Y-27307007D01*
X92770099Y-27192993D01*
X92677007Y-27099901D01*
X92562993Y-27034075D01*
X92499409Y-27017037D01*
X93239105Y-26277340D01*
X93239104Y-26277338D01*
X93156174Y-26217087D01*
X92945802Y-26109897D01*
X92738165Y-26042431D01*
X92680489Y-26002993D01*
X92653291Y-25938635D01*
X92665206Y-25869788D01*
X92712450Y-25818313D01*
X92776483Y-25800500D01*
X94501896Y-25800500D01*
X94568935Y-25820185D01*
G37*
%TD.AperFunction*%
%TA.AperFunction,Conductor*%
G36*
X113592657Y-28369104D02*
G01*
X113612404Y-28367550D01*
X113680781Y-28381914D01*
X113722451Y-28418282D01*
X113765483Y-28477510D01*
X113932490Y-28644517D01*
X114123567Y-28783343D01*
X114222991Y-28834002D01*
X114334003Y-28890566D01*
X114334005Y-28890566D01*
X114334008Y-28890568D01*
X114454412Y-28929689D01*
X114558631Y-28963553D01*
X114711243Y-28987724D01*
X114774378Y-29017653D01*
X114811310Y-29076964D01*
X114810312Y-29146827D01*
X114790222Y-29185684D01*
X114721389Y-29275387D01*
X114606657Y-29474109D01*
X114606650Y-29474123D01*
X114518842Y-29686112D01*
X114459453Y-29907759D01*
X114459451Y-29907770D01*
X114429500Y-30135258D01*
X114429500Y-30364741D01*
X114454446Y-30554215D01*
X114459452Y-30592238D01*
X114459453Y-30592240D01*
X114518842Y-30813887D01*
X114606650Y-31025876D01*
X114606657Y-31025890D01*
X114721389Y-31224612D01*
X114779247Y-31300013D01*
X114804441Y-31365183D01*
X114790403Y-31433627D01*
X114741589Y-31483617D01*
X114680871Y-31499500D01*
X113862129Y-31499500D01*
X113862123Y-31499501D01*
X113802516Y-31505908D01*
X113667671Y-31556202D01*
X113667664Y-31556206D01*
X113552455Y-31642452D01*
X113552452Y-31642455D01*
X113466206Y-31757664D01*
X113461953Y-31765454D01*
X113458807Y-31763736D01*
X113427139Y-31806010D01*
X113361667Y-31830404D01*
X113293399Y-31815529D01*
X113279978Y-31807035D01*
X113156174Y-31717087D01*
X112945802Y-31609897D01*
X112721247Y-31536934D01*
X112721248Y-31536934D01*
X112648656Y-31525437D01*
X112585521Y-31495508D01*
X112548590Y-31436196D01*
X112549588Y-31366334D01*
X112569679Y-31327477D01*
X112648607Y-31224617D01*
X112648606Y-31224617D01*
X112648611Y-31224612D01*
X112763344Y-31025888D01*
X112851158Y-30813887D01*
X112910548Y-30592238D01*
X112940500Y-30364734D01*
X112940500Y-30135266D01*
X112910548Y-29907762D01*
X112851158Y-29686113D01*
X112763344Y-29474112D01*
X112648611Y-29275388D01*
X112569677Y-29172520D01*
X112544484Y-29107353D01*
X112558522Y-29038908D01*
X112607336Y-28988918D01*
X112648658Y-28974561D01*
X112721252Y-28963064D01*
X112945802Y-28890102D01*
X113156163Y-28782918D01*
X113156169Y-28782914D01*
X113239104Y-28722658D01*
X113239105Y-28722658D01*
X112499408Y-27982962D01*
X112562993Y-27965925D01*
X112677007Y-27900099D01*
X112770099Y-27807007D01*
X112835925Y-27692993D01*
X112852962Y-27629409D01*
X113592657Y-28369104D01*
G37*
%TD.AperFunction*%
%TA.AperFunction,Conductor*%
G36*
X121837539Y-22060185D02*
G01*
X121883294Y-22112989D01*
X121894500Y-22164500D01*
X121894500Y-61835500D01*
X121874815Y-61902539D01*
X121822011Y-61948294D01*
X121770500Y-61959500D01*
X65599500Y-61959500D01*
X65532461Y-61939815D01*
X65486706Y-61887011D01*
X65475500Y-61835500D01*
X65475500Y-54785013D01*
X83470000Y-54785013D01*
X83470000Y-55430000D01*
X84297291Y-55430000D01*
X84285548Y-55450339D01*
X84245000Y-55601667D01*
X84245000Y-55758333D01*
X84285548Y-55909661D01*
X84297291Y-55930000D01*
X83470001Y-55930000D01*
X83470001Y-56574986D01*
X83480494Y-56677697D01*
X83535641Y-56844119D01*
X83535643Y-56844124D01*
X83627684Y-56993345D01*
X83751654Y-57117315D01*
X83900875Y-57209356D01*
X83900880Y-57209358D01*
X84067302Y-57264505D01*
X84067309Y-57264506D01*
X84170019Y-57274999D01*
X84589999Y-57274999D01*
X84590000Y-57274998D01*
X84590000Y-56222709D01*
X84610339Y-56234452D01*
X84761667Y-56275000D01*
X84918333Y-56275000D01*
X85069661Y-56234452D01*
X85090000Y-56222709D01*
X85090000Y-57274999D01*
X85509972Y-57274999D01*
X85509986Y-57274998D01*
X85612697Y-57264505D01*
X85779119Y-57209358D01*
X85779124Y-57209356D01*
X85928345Y-57117315D01*
X86052315Y-56993345D01*
X86144354Y-56844127D01*
X86144745Y-56843289D01*
X86145167Y-56842809D01*
X86148149Y-56837975D01*
X86148974Y-56838484D01*
X86190910Y-56790843D01*
X86258100Y-56771681D01*
X86324984Y-56791887D01*
X86344816Y-56807996D01*
X86487179Y-56950359D01*
X86661701Y-57077157D01*
X86853911Y-57175092D01*
X87059074Y-57241754D01*
X87126796Y-57252480D01*
X87272134Y-57275500D01*
X87272139Y-57275500D01*
X87487866Y-57275500D01*
X87606230Y-57256752D01*
X87700926Y-57241754D01*
X87906089Y-57175092D01*
X88098299Y-57077157D01*
X88272821Y-56950359D01*
X88425359Y-56797821D01*
X88549682Y-56626704D01*
X88605012Y-56584040D01*
X88674626Y-56578061D01*
X88736420Y-56610667D01*
X88750315Y-56626702D01*
X88874641Y-56797821D01*
X89027179Y-56950359D01*
X89201701Y-57077157D01*
X89393911Y-57175092D01*
X89599074Y-57241754D01*
X89666796Y-57252480D01*
X89812134Y-57275500D01*
X89812139Y-57275500D01*
X90027866Y-57275500D01*
X90146230Y-57256752D01*
X90240926Y-57241754D01*
X90446089Y-57175092D01*
X90638299Y-57077157D01*
X90812821Y-56950359D01*
X90965359Y-56797821D01*
X91089682Y-56626704D01*
X91145012Y-56584040D01*
X91214626Y-56578061D01*
X91276420Y-56610667D01*
X91290315Y-56626702D01*
X91414641Y-56797821D01*
X91567179Y-56950359D01*
X91741701Y-57077157D01*
X91933911Y-57175092D01*
X92139074Y-57241754D01*
X92206796Y-57252480D01*
X92352134Y-57275500D01*
X92352139Y-57275500D01*
X92567866Y-57275500D01*
X92686230Y-57256752D01*
X92780926Y-57241754D01*
X92986089Y-57175092D01*
X93178299Y-57077157D01*
X93352821Y-56950359D01*
X93505359Y-56797821D01*
X93629682Y-56626704D01*
X93685012Y-56584040D01*
X93754626Y-56578061D01*
X93816420Y-56610667D01*
X93830315Y-56626702D01*
X93954641Y-56797821D01*
X94107179Y-56950359D01*
X94281701Y-57077157D01*
X94473911Y-57175092D01*
X94679074Y-57241754D01*
X94746796Y-57252480D01*
X94892134Y-57275500D01*
X94892139Y-57275500D01*
X95107866Y-57275500D01*
X95226230Y-57256752D01*
X95320926Y-57241754D01*
X95526089Y-57175092D01*
X95718299Y-57077157D01*
X95892821Y-56950359D01*
X96045359Y-56797821D01*
X96169682Y-56626704D01*
X96225012Y-56584040D01*
X96294626Y-56578061D01*
X96356420Y-56610667D01*
X96370315Y-56626702D01*
X96494641Y-56797821D01*
X96647179Y-56950359D01*
X96821701Y-57077157D01*
X97013911Y-57175092D01*
X97219074Y-57241754D01*
X97286796Y-57252480D01*
X97432134Y-57275500D01*
X97432139Y-57275500D01*
X97647866Y-57275500D01*
X97766230Y-57256752D01*
X97860926Y-57241754D01*
X98066089Y-57175092D01*
X98258299Y-57077157D01*
X98432821Y-56950359D01*
X98585359Y-56797821D01*
X98709682Y-56626704D01*
X98765012Y-56584040D01*
X98834626Y-56578061D01*
X98896420Y-56610667D01*
X98910315Y-56626702D01*
X99034641Y-56797821D01*
X99187179Y-56950359D01*
X99361701Y-57077157D01*
X99553911Y-57175092D01*
X99759074Y-57241754D01*
X99826796Y-57252480D01*
X99972134Y-57275500D01*
X99972139Y-57275500D01*
X100187866Y-57275500D01*
X100306230Y-57256752D01*
X100400926Y-57241754D01*
X100606089Y-57175092D01*
X100798299Y-57077157D01*
X100972821Y-56950359D01*
X101125359Y-56797821D01*
X101249991Y-56626279D01*
X101305321Y-56583614D01*
X101374934Y-56577635D01*
X101436729Y-56610241D01*
X101450627Y-56626279D01*
X101575025Y-56797496D01*
X101575025Y-56797497D01*
X101727502Y-56949974D01*
X101901963Y-57076728D01*
X102094098Y-57174627D01*
X102299190Y-57241266D01*
X102370000Y-57252481D01*
X102370000Y-56222709D01*
X102390339Y-56234452D01*
X102541667Y-56275000D01*
X102698333Y-56275000D01*
X102849661Y-56234452D01*
X102870000Y-56222709D01*
X102870000Y-57252480D01*
X102940809Y-57241266D01*
X103145901Y-57174627D01*
X103338036Y-57076728D01*
X103512496Y-56949974D01*
X103512497Y-56949974D01*
X103664974Y-56797497D01*
X103664974Y-56797496D01*
X103791728Y-56623036D01*
X103889627Y-56430901D01*
X103956265Y-56225809D01*
X103990000Y-56012820D01*
X103990000Y-55930000D01*
X103162709Y-55930000D01*
X103174452Y-55909661D01*
X103215000Y-55758333D01*
X103215000Y-55601667D01*
X103174452Y-55450339D01*
X103162709Y-55430000D01*
X103990000Y-55430000D01*
X103990000Y-55347179D01*
X103956265Y-55134190D01*
X103889627Y-54929098D01*
X103791728Y-54736963D01*
X103664974Y-54562503D01*
X103664974Y-54562502D01*
X103512497Y-54410025D01*
X103338036Y-54283271D01*
X103145899Y-54185372D01*
X102940805Y-54118733D01*
X102870000Y-54107518D01*
X102870000Y-55137290D01*
X102849661Y-55125548D01*
X102698333Y-55085000D01*
X102541667Y-55085000D01*
X102390339Y-55125548D01*
X102370000Y-55137290D01*
X102370000Y-54107518D01*
X102369999Y-54107518D01*
X102299194Y-54118733D01*
X102094100Y-54185372D01*
X101901963Y-54283271D01*
X101727503Y-54410025D01*
X101727502Y-54410025D01*
X101575024Y-54562503D01*
X101450627Y-54733720D01*
X101395296Y-54776385D01*
X101325683Y-54782364D01*
X101263888Y-54749758D01*
X101249991Y-54733720D01*
X101125359Y-54562179D01*
X100972821Y-54409641D01*
X100798299Y-54282843D01*
X100606089Y-54184908D01*
X100400926Y-54118246D01*
X100400924Y-54118245D01*
X100400922Y-54118245D01*
X100187866Y-54084500D01*
X100187861Y-54084500D01*
X99972139Y-54084500D01*
X99972134Y-54084500D01*
X99759077Y-54118245D01*
X99553908Y-54184909D01*
X99361700Y-54282843D01*
X99271382Y-54348464D01*
X99187179Y-54409641D01*
X99187177Y-54409643D01*
X99187176Y-54409643D01*
X99034643Y-54562176D01*
X99034643Y-54562177D01*
X99034641Y-54562179D01*
X99017706Y-54585488D01*
X98910318Y-54733294D01*
X98854988Y-54775959D01*
X98785374Y-54781938D01*
X98723579Y-54749332D01*
X98709682Y-54733294D01*
X98672639Y-54682309D01*
X98585359Y-54562179D01*
X98432821Y-54409641D01*
X98258299Y-54282843D01*
X98066089Y-54184908D01*
X97935356Y-54142430D01*
X97877682Y-54102993D01*
X97850484Y-54038635D01*
X97862399Y-53969788D01*
X97909643Y-53918313D01*
X97973676Y-53900500D01*
X98678844Y-53900500D01*
X98678845Y-53900499D01*
X98833497Y-53869737D01*
X98979179Y-53809394D01*
X99110289Y-53721789D01*
X107821789Y-45010289D01*
X107909394Y-44879179D01*
X107969738Y-44733497D01*
X108000500Y-44578842D01*
X108000500Y-44421157D01*
X108000500Y-43937977D01*
X108020185Y-43870938D01*
X108072989Y-43825183D01*
X108142147Y-43815239D01*
X108205703Y-43844264D01*
X108242430Y-43899658D01*
X108274780Y-43999219D01*
X108360993Y-44168422D01*
X108367715Y-44181613D01*
X108488028Y-44347213D01*
X108632786Y-44491971D01*
X108752362Y-44578846D01*
X108798390Y-44612287D01*
X108889196Y-44658555D01*
X108891080Y-44659515D01*
X108941876Y-44707490D01*
X108958671Y-44775311D01*
X108936134Y-44841446D01*
X108891080Y-44880485D01*
X108798386Y-44927715D01*
X108632786Y-45048028D01*
X108488028Y-45192786D01*
X108367715Y-45358386D01*
X108274781Y-45540776D01*
X108211522Y-45735465D01*
X108179500Y-45937648D01*
X108179500Y-46142351D01*
X108211522Y-46344534D01*
X108274781Y-46539223D01*
X108338691Y-46664653D01*
X108347333Y-46681613D01*
X108367715Y-46721613D01*
X108488028Y-46887213D01*
X108632786Y-47031971D01*
X108742745Y-47111859D01*
X108798390Y-47152287D01*
X108901364Y-47204755D01*
X108980776Y-47245218D01*
X108980778Y-47245218D01*
X108980781Y-47245220D01*
X109050860Y-47267990D01*
X109175465Y-47308477D01*
X109276557Y-47324488D01*
X109377648Y-47340500D01*
X109377649Y-47340500D01*
X110382351Y-47340500D01*
X110382352Y-47340500D01*
X110584534Y-47308477D01*
X110779219Y-47245220D01*
X110961610Y-47152287D01*
X111054590Y-47084732D01*
X111127213Y-47031971D01*
X111127215Y-47031968D01*
X111127219Y-47031966D01*
X111271966Y-46887219D01*
X111271968Y-46887215D01*
X111271971Y-46887213D01*
X111324732Y-46814590D01*
X111392287Y-46721610D01*
X111485220Y-46539219D01*
X111548477Y-46344534D01*
X111580500Y-46142352D01*
X111580500Y-45937648D01*
X111565922Y-45845606D01*
X111548477Y-45735465D01*
X111485218Y-45540776D01*
X111392419Y-45358650D01*
X111392287Y-45358390D01*
X111384556Y-45347749D01*
X111271971Y-45192786D01*
X111127213Y-45048028D01*
X110961614Y-44927715D01*
X110955006Y-44924348D01*
X110868917Y-44880483D01*
X110818123Y-44832511D01*
X110801328Y-44764690D01*
X110823865Y-44698555D01*
X110868917Y-44659516D01*
X110961610Y-44612287D01*
X111007642Y-44578843D01*
X111127213Y-44491971D01*
X111127215Y-44491968D01*
X111127219Y-44491966D01*
X111271966Y-44347219D01*
X111271968Y-44347215D01*
X111271971Y-44347213D01*
X111375481Y-44204741D01*
X111392287Y-44181610D01*
X111485220Y-43999219D01*
X111548477Y-43804534D01*
X111580500Y-43602352D01*
X111580500Y-43397648D01*
X111548477Y-43195466D01*
X111485220Y-43000781D01*
X111485218Y-43000778D01*
X111485218Y-43000776D01*
X111451503Y-42934607D01*
X111392287Y-42818390D01*
X111363223Y-42778386D01*
X111271971Y-42652786D01*
X111127213Y-42508028D01*
X110961614Y-42387715D01*
X110883908Y-42348122D01*
X110868917Y-42340483D01*
X110818123Y-42292511D01*
X110801328Y-42224690D01*
X110823865Y-42158555D01*
X110868917Y-42119516D01*
X110961610Y-42072287D01*
X111016670Y-42032284D01*
X111127213Y-41951971D01*
X111127215Y-41951968D01*
X111127219Y-41951966D01*
X111271966Y-41807219D01*
X111271968Y-41807215D01*
X111271971Y-41807213D01*
X111324732Y-41734590D01*
X111392287Y-41641610D01*
X111485220Y-41459219D01*
X111548477Y-41264534D01*
X111580500Y-41062352D01*
X111580500Y-40857648D01*
X115799500Y-40857648D01*
X115799500Y-41062351D01*
X115831522Y-41264534D01*
X115894781Y-41459223D01*
X115958691Y-41584653D01*
X115967333Y-41601613D01*
X115987715Y-41641613D01*
X116108028Y-41807213D01*
X116252786Y-41951971D01*
X116363330Y-42032284D01*
X116418390Y-42072287D01*
X116509196Y-42118555D01*
X116511080Y-42119515D01*
X116561876Y-42167490D01*
X116578671Y-42235311D01*
X116556134Y-42301446D01*
X116511080Y-42340485D01*
X116418386Y-42387715D01*
X116252786Y-42508028D01*
X116108028Y-42652786D01*
X115987715Y-42818386D01*
X115894781Y-43000776D01*
X115831522Y-43195465D01*
X115799500Y-43397648D01*
X115799500Y-43602351D01*
X115831522Y-43804534D01*
X115894781Y-43999223D01*
X115954823Y-44117060D01*
X115980993Y-44168422D01*
X115987715Y-44181613D01*
X116108028Y-44347213D01*
X116252786Y-44491971D01*
X116372362Y-44578846D01*
X116418390Y-44612287D01*
X116490424Y-44648990D01*
X116511629Y-44659795D01*
X116562425Y-44707770D01*
X116579220Y-44775591D01*
X116556682Y-44841726D01*
X116511629Y-44880765D01*
X116418650Y-44928140D01*
X116253105Y-45048417D01*
X116253104Y-45048417D01*
X116108417Y-45193104D01*
X116108417Y-45193105D01*
X115988140Y-45358650D01*
X115895244Y-45540970D01*
X115832009Y-45735586D01*
X115823391Y-45790000D01*
X117184314Y-45790000D01*
X117179920Y-45794394D01*
X117127259Y-45885606D01*
X117100000Y-45987339D01*
X117100000Y-46092661D01*
X117127259Y-46194394D01*
X117179920Y-46285606D01*
X117184314Y-46290000D01*
X115823391Y-46290000D01*
X115832009Y-46344413D01*
X115895244Y-46539029D01*
X115988140Y-46721349D01*
X116108417Y-46886894D01*
X116108417Y-46886895D01*
X116253104Y-47031582D01*
X116418650Y-47151859D01*
X116600968Y-47244755D01*
X116795582Y-47307990D01*
X116997683Y-47340000D01*
X117250000Y-47340000D01*
X117250000Y-46355686D01*
X117254394Y-46360080D01*
X117345606Y-46412741D01*
X117447339Y-46440000D01*
X117552661Y-46440000D01*
X117654394Y-46412741D01*
X117745606Y-46360080D01*
X117750000Y-46355686D01*
X117750000Y-47340000D01*
X118002317Y-47340000D01*
X118204417Y-47307990D01*
X118399031Y-47244755D01*
X118581349Y-47151859D01*
X118746894Y-47031582D01*
X118746895Y-47031582D01*
X118891582Y-46886895D01*
X118891582Y-46886894D01*
X119011859Y-46721349D01*
X119104755Y-46539029D01*
X119167990Y-46344413D01*
X119176609Y-46290000D01*
X117815686Y-46290000D01*
X117820080Y-46285606D01*
X117872741Y-46194394D01*
X117900000Y-46092661D01*
X117900000Y-45987339D01*
X117872741Y-45885606D01*
X117820080Y-45794394D01*
X117815686Y-45790000D01*
X119176609Y-45790000D01*
X119167990Y-45735586D01*
X119104755Y-45540970D01*
X119011859Y-45358650D01*
X118891582Y-45193105D01*
X118891582Y-45193104D01*
X118746895Y-45048417D01*
X118581349Y-44928140D01*
X118488370Y-44880765D01*
X118437574Y-44832790D01*
X118420779Y-44764969D01*
X118443316Y-44698835D01*
X118488370Y-44659795D01*
X118488920Y-44659515D01*
X118581610Y-44612287D01*
X118627642Y-44578843D01*
X118747213Y-44491971D01*
X118747215Y-44491968D01*
X118747219Y-44491966D01*
X118891966Y-44347219D01*
X118891968Y-44347215D01*
X118891971Y-44347213D01*
X118995481Y-44204741D01*
X119012287Y-44181610D01*
X119105220Y-43999219D01*
X119168477Y-43804534D01*
X119200500Y-43602352D01*
X119200500Y-43397648D01*
X119168477Y-43195466D01*
X119105220Y-43000781D01*
X119105218Y-43000778D01*
X119105218Y-43000776D01*
X119071503Y-42934607D01*
X119012287Y-42818390D01*
X118983223Y-42778386D01*
X118891971Y-42652786D01*
X118747213Y-42508028D01*
X118581614Y-42387715D01*
X118503908Y-42348122D01*
X118488917Y-42340483D01*
X118438123Y-42292511D01*
X118421328Y-42224690D01*
X118443865Y-42158555D01*
X118488917Y-42119516D01*
X118581610Y-42072287D01*
X118636670Y-42032284D01*
X118747213Y-41951971D01*
X118747215Y-41951968D01*
X118747219Y-41951966D01*
X118891966Y-41807219D01*
X118891968Y-41807215D01*
X118891971Y-41807213D01*
X118944732Y-41734590D01*
X119012287Y-41641610D01*
X119105220Y-41459219D01*
X119168477Y-41264534D01*
X119200500Y-41062352D01*
X119200500Y-40857648D01*
X119179274Y-40723632D01*
X119168477Y-40655465D01*
X119139127Y-40565137D01*
X119105220Y-40460781D01*
X119105218Y-40460778D01*
X119105218Y-40460776D01*
X119017472Y-40288567D01*
X119012287Y-40278390D01*
X118958169Y-40203902D01*
X118891971Y-40112786D01*
X118747217Y-39968032D01*
X118747212Y-39968028D01*
X118653051Y-39899616D01*
X118610385Y-39844286D01*
X118604406Y-39774673D01*
X118637012Y-39712878D01*
X118686933Y-39681592D01*
X118769117Y-39654359D01*
X118769124Y-39654356D01*
X118918345Y-39562315D01*
X119042315Y-39438345D01*
X119134356Y-39289124D01*
X119134358Y-39289119D01*
X119189505Y-39122697D01*
X119189506Y-39122690D01*
X119199999Y-39019986D01*
X119200000Y-39019973D01*
X119200000Y-38670000D01*
X117815686Y-38670000D01*
X117820080Y-38665606D01*
X117872741Y-38574394D01*
X117900000Y-38472661D01*
X117900000Y-38367339D01*
X117872741Y-38265606D01*
X117820080Y-38174394D01*
X117815686Y-38170000D01*
X119199999Y-38170000D01*
X119199999Y-37820028D01*
X119199998Y-37820013D01*
X119189505Y-37717302D01*
X119134358Y-37550880D01*
X119134356Y-37550875D01*
X119042315Y-37401654D01*
X118918345Y-37277684D01*
X118769124Y-37185643D01*
X118769119Y-37185641D01*
X118602697Y-37130494D01*
X118602690Y-37130493D01*
X118499986Y-37120000D01*
X117750000Y-37120000D01*
X117750000Y-38104314D01*
X117745606Y-38099920D01*
X117654394Y-38047259D01*
X117552661Y-38020000D01*
X117447339Y-38020000D01*
X117345606Y-38047259D01*
X117254394Y-38099920D01*
X117250000Y-38104314D01*
X117250000Y-37120000D01*
X116500028Y-37120000D01*
X116500012Y-37120001D01*
X116397302Y-37130494D01*
X116230880Y-37185641D01*
X116230875Y-37185643D01*
X116081654Y-37277684D01*
X115957684Y-37401654D01*
X115865643Y-37550875D01*
X115865641Y-37550880D01*
X115810494Y-37717302D01*
X115810493Y-37717309D01*
X115800000Y-37820013D01*
X115800000Y-38170000D01*
X117184314Y-38170000D01*
X117179920Y-38174394D01*
X117127259Y-38265606D01*
X117100000Y-38367339D01*
X117100000Y-38472661D01*
X117127259Y-38574394D01*
X117179920Y-38665606D01*
X117184314Y-38670000D01*
X115800001Y-38670000D01*
X115800001Y-39019986D01*
X115810494Y-39122697D01*
X115865641Y-39289119D01*
X115865643Y-39289124D01*
X115957684Y-39438345D01*
X116081654Y-39562315D01*
X116230875Y-39654356D01*
X116230882Y-39654359D01*
X116313067Y-39681592D01*
X116370512Y-39721364D01*
X116397336Y-39785880D01*
X116385021Y-39854656D01*
X116346949Y-39899616D01*
X116252787Y-39968028D01*
X116252782Y-39968032D01*
X116108028Y-40112786D01*
X115987715Y-40278386D01*
X115894781Y-40460776D01*
X115831522Y-40655465D01*
X115799500Y-40857648D01*
X111580500Y-40857648D01*
X111559274Y-40723632D01*
X111548477Y-40655465D01*
X111519127Y-40565137D01*
X111485220Y-40460781D01*
X111485218Y-40460778D01*
X111485218Y-40460776D01*
X111397472Y-40288567D01*
X111392287Y-40278390D01*
X111338169Y-40203902D01*
X111271971Y-40112786D01*
X111127213Y-39968028D01*
X110961614Y-39847715D01*
X110954884Y-39844286D01*
X110868917Y-39800483D01*
X110818123Y-39752511D01*
X110801328Y-39684690D01*
X110823865Y-39618555D01*
X110868917Y-39579516D01*
X110961610Y-39532287D01*
X111016670Y-39492284D01*
X111127213Y-39411971D01*
X111127215Y-39411968D01*
X111127219Y-39411966D01*
X111271966Y-39267219D01*
X111271968Y-39267215D01*
X111271971Y-39267213D01*
X111324732Y-39194590D01*
X111392287Y-39101610D01*
X111485220Y-38919219D01*
X111548477Y-38724534D01*
X111580500Y-38522352D01*
X111580500Y-38317648D01*
X111565922Y-38225606D01*
X111548477Y-38115465D01*
X111504461Y-37980000D01*
X111485220Y-37920781D01*
X111485217Y-37920777D01*
X111485217Y-37920774D01*
X111460956Y-37873160D01*
X111460955Y-37873159D01*
X111392287Y-37738390D01*
X111392285Y-37738387D01*
X111392284Y-37738385D01*
X111271971Y-37572786D01*
X111127213Y-37428028D01*
X110961613Y-37307715D01*
X110961612Y-37307714D01*
X110961610Y-37307713D01*
X110883106Y-37267713D01*
X110779223Y-37214781D01*
X110584534Y-37151522D01*
X110409995Y-37123878D01*
X110382352Y-37119500D01*
X109377648Y-37119500D01*
X109353329Y-37123351D01*
X109175465Y-37151522D01*
X108980776Y-37214781D01*
X108798386Y-37307715D01*
X108632786Y-37428028D01*
X108488028Y-37572786D01*
X108367715Y-37738386D01*
X108274781Y-37920776D01*
X108211522Y-38115465D01*
X108179500Y-38317648D01*
X108179500Y-38522351D01*
X108211522Y-38724534D01*
X108274781Y-38919223D01*
X108305742Y-38979986D01*
X108358076Y-39082697D01*
X108367715Y-39101613D01*
X108488028Y-39267213D01*
X108632786Y-39411971D01*
X108743330Y-39492284D01*
X108798390Y-39532287D01*
X108881238Y-39574500D01*
X108891080Y-39579515D01*
X108941876Y-39627490D01*
X108958671Y-39695311D01*
X108936134Y-39761446D01*
X108891080Y-39800485D01*
X108798386Y-39847715D01*
X108632786Y-39968028D01*
X108632782Y-39968032D01*
X108511602Y-40089213D01*
X108450279Y-40122698D01*
X108380587Y-40117714D01*
X108336240Y-40089213D01*
X108177512Y-39930485D01*
X108177510Y-39930483D01*
X107986433Y-39791657D01*
X107927141Y-39761446D01*
X107775996Y-39684433D01*
X107551368Y-39611446D01*
X107318097Y-39574500D01*
X107318092Y-39574500D01*
X107081908Y-39574500D01*
X107081903Y-39574500D01*
X106848631Y-39611446D01*
X106624003Y-39684433D01*
X106413566Y-39791657D01*
X106320030Y-39859616D01*
X106222490Y-39930483D01*
X106222488Y-39930485D01*
X106222487Y-39930485D01*
X106055485Y-40097487D01*
X106055485Y-40097488D01*
X106055483Y-40097490D01*
X105995862Y-40179550D01*
X105916657Y-40288566D01*
X105809433Y-40499003D01*
X105736446Y-40723631D01*
X105699500Y-40956902D01*
X105699500Y-41193097D01*
X105736446Y-41426368D01*
X105809433Y-41650996D01*
X105896774Y-41822410D01*
X105916657Y-41861433D01*
X106055483Y-42052510D01*
X106222490Y-42219517D01*
X106348388Y-42310987D01*
X106391051Y-42366313D01*
X106399500Y-42411302D01*
X106399500Y-44117060D01*
X106379815Y-44184099D01*
X106363181Y-44204741D01*
X98304741Y-52263181D01*
X98243418Y-52296666D01*
X98217060Y-52299500D01*
X96536304Y-52299500D01*
X96469265Y-52279815D01*
X96435986Y-52248386D01*
X96344517Y-52122490D01*
X96177510Y-51955483D01*
X95986433Y-51816657D01*
X95775996Y-51709433D01*
X95551368Y-51636446D01*
X95318097Y-51599500D01*
X95318092Y-51599500D01*
X95081908Y-51599500D01*
X95081903Y-51599500D01*
X94848631Y-51636446D01*
X94624003Y-51709433D01*
X94413566Y-51816657D01*
X94304550Y-51895862D01*
X94222490Y-51955483D01*
X94222488Y-51955485D01*
X94222487Y-51955485D01*
X94055485Y-52122487D01*
X94055485Y-52122488D01*
X94055483Y-52122490D01*
X93995862Y-52204550D01*
X93916657Y-52313566D01*
X93809433Y-52524003D01*
X93736446Y-52748631D01*
X93699500Y-52981902D01*
X93699500Y-53218097D01*
X93736446Y-53451368D01*
X93809433Y-53675996D01*
X93877405Y-53809397D01*
X93916657Y-53886433D01*
X94055483Y-54077510D01*
X94055485Y-54077512D01*
X94166943Y-54188970D01*
X94200428Y-54250293D01*
X94195444Y-54319985D01*
X94153572Y-54375918D01*
X94152148Y-54376968D01*
X94107185Y-54409636D01*
X94107176Y-54409643D01*
X93954643Y-54562176D01*
X93954643Y-54562177D01*
X93954641Y-54562179D01*
X93937706Y-54585488D01*
X93830318Y-54733294D01*
X93774988Y-54775959D01*
X93705374Y-54781938D01*
X93643579Y-54749332D01*
X93629682Y-54733294D01*
X93592639Y-54682309D01*
X93505359Y-54562179D01*
X93352821Y-54409641D01*
X93178299Y-54282843D01*
X92986089Y-54184908D01*
X92780926Y-54118246D01*
X92780924Y-54118245D01*
X92780922Y-54118245D01*
X92567866Y-54084500D01*
X92567861Y-54084500D01*
X92352139Y-54084500D01*
X92352134Y-54084500D01*
X92139077Y-54118245D01*
X91933908Y-54184909D01*
X91741700Y-54282843D01*
X91651382Y-54348464D01*
X91567179Y-54409641D01*
X91567177Y-54409643D01*
X91567176Y-54409643D01*
X91414643Y-54562176D01*
X91414643Y-54562177D01*
X91414641Y-54562179D01*
X91397706Y-54585488D01*
X91290318Y-54733294D01*
X91234988Y-54775959D01*
X91165374Y-54781938D01*
X91103579Y-54749332D01*
X91089682Y-54733294D01*
X91052639Y-54682309D01*
X90965359Y-54562179D01*
X90812821Y-54409641D01*
X90638299Y-54282843D01*
X90446089Y-54184908D01*
X90240926Y-54118246D01*
X90240924Y-54118245D01*
X90240922Y-54118245D01*
X90027866Y-54084500D01*
X90027861Y-54084500D01*
X89812139Y-54084500D01*
X89812134Y-54084500D01*
X89599077Y-54118245D01*
X89393908Y-54184909D01*
X89201700Y-54282843D01*
X89111382Y-54348464D01*
X89027179Y-54409641D01*
X89027177Y-54409643D01*
X89027176Y-54409643D01*
X88874643Y-54562176D01*
X88874643Y-54562177D01*
X88874641Y-54562179D01*
X88857706Y-54585488D01*
X88750318Y-54733294D01*
X88694988Y-54775959D01*
X88625374Y-54781938D01*
X88563579Y-54749332D01*
X88549682Y-54733294D01*
X88512639Y-54682309D01*
X88425359Y-54562179D01*
X88272821Y-54409641D01*
X88098299Y-54282843D01*
X87906089Y-54184908D01*
X87700926Y-54118246D01*
X87700924Y-54118245D01*
X87700922Y-54118245D01*
X87487866Y-54084500D01*
X87487861Y-54084500D01*
X87272139Y-54084500D01*
X87272134Y-54084500D01*
X87059077Y-54118245D01*
X86853908Y-54184909D01*
X86661700Y-54282843D01*
X86487180Y-54409640D01*
X86344816Y-54552004D01*
X86283493Y-54585488D01*
X86213801Y-54580504D01*
X86157868Y-54538632D01*
X86144748Y-54516716D01*
X86144356Y-54515876D01*
X86052315Y-54366654D01*
X85928345Y-54242684D01*
X85779124Y-54150643D01*
X85779119Y-54150641D01*
X85612697Y-54095494D01*
X85612690Y-54095493D01*
X85509986Y-54085000D01*
X85090000Y-54085000D01*
X85090000Y-55137290D01*
X85069661Y-55125548D01*
X84918333Y-55085000D01*
X84761667Y-55085000D01*
X84610339Y-55125548D01*
X84590000Y-55137290D01*
X84590000Y-54085000D01*
X84170028Y-54085000D01*
X84170012Y-54085001D01*
X84067302Y-54095494D01*
X83900880Y-54150641D01*
X83900875Y-54150643D01*
X83751654Y-54242684D01*
X83627684Y-54366654D01*
X83535643Y-54515875D01*
X83535641Y-54515880D01*
X83480494Y-54682302D01*
X83480493Y-54682309D01*
X83470000Y-54785013D01*
X65475500Y-54785013D01*
X65475500Y-38277648D01*
X68179500Y-38277648D01*
X68179500Y-38482351D01*
X68211522Y-38684534D01*
X68274781Y-38879223D01*
X68326117Y-38979973D01*
X68346504Y-39019986D01*
X68367715Y-39061613D01*
X68488028Y-39227213D01*
X68632786Y-39371971D01*
X68787749Y-39484556D01*
X68798390Y-39492287D01*
X68889840Y-39538883D01*
X68891080Y-39539515D01*
X68941876Y-39587490D01*
X68958671Y-39655311D01*
X68936134Y-39721446D01*
X68891080Y-39760485D01*
X68798386Y-39807715D01*
X68632786Y-39928028D01*
X68488028Y-40072786D01*
X68367715Y-40238386D01*
X68274781Y-40420776D01*
X68211522Y-40615465D01*
X68179500Y-40817648D01*
X68179500Y-41022351D01*
X68211522Y-41224534D01*
X68274781Y-41419223D01*
X68367715Y-41601613D01*
X68488028Y-41767213D01*
X68632786Y-41911971D01*
X68787749Y-42024556D01*
X68798390Y-42032287D01*
X68889840Y-42078883D01*
X68891080Y-42079515D01*
X68941876Y-42127490D01*
X68958671Y-42195311D01*
X68936134Y-42261446D01*
X68891080Y-42300485D01*
X68798386Y-42347715D01*
X68632786Y-42468028D01*
X68488028Y-42612786D01*
X68367715Y-42778386D01*
X68274781Y-42960776D01*
X68211522Y-43155465D01*
X68179500Y-43357648D01*
X68179500Y-43562351D01*
X68211522Y-43764534D01*
X68274781Y-43959223D01*
X68367715Y-44141613D01*
X68488028Y-44307213D01*
X68632786Y-44451971D01*
X68787749Y-44564556D01*
X68798390Y-44572287D01*
X68889840Y-44618883D01*
X68891080Y-44619515D01*
X68941876Y-44667490D01*
X68958671Y-44735311D01*
X68936134Y-44801446D01*
X68891080Y-44840485D01*
X68798386Y-44887715D01*
X68632786Y-45008028D01*
X68488028Y-45152786D01*
X68367715Y-45318386D01*
X68274781Y-45500776D01*
X68211522Y-45695465D01*
X68179500Y-45897648D01*
X68179500Y-46102351D01*
X68211522Y-46304534D01*
X68274781Y-46499223D01*
X68367715Y-46681613D01*
X68488028Y-46847213D01*
X68632786Y-46991971D01*
X68787749Y-47104556D01*
X68798390Y-47112287D01*
X68914607Y-47171503D01*
X68980776Y-47205218D01*
X68980778Y-47205218D01*
X68980781Y-47205220D01*
X69085137Y-47239127D01*
X69175465Y-47268477D01*
X69276557Y-47284488D01*
X69377648Y-47300500D01*
X69377649Y-47300500D01*
X70382351Y-47300500D01*
X70382352Y-47300500D01*
X70584534Y-47268477D01*
X70779219Y-47205220D01*
X70961610Y-47112287D01*
X71054590Y-47044732D01*
X71127213Y-46991971D01*
X71127215Y-46991968D01*
X71127219Y-46991966D01*
X71271966Y-46847219D01*
X71271968Y-46847215D01*
X71271971Y-46847213D01*
X71363223Y-46721613D01*
X71392287Y-46681610D01*
X71485220Y-46499219D01*
X71548477Y-46304534D01*
X71580500Y-46102352D01*
X71580500Y-45897648D01*
X71563450Y-45790000D01*
X71548477Y-45695465D01*
X71485218Y-45500776D01*
X71451503Y-45434607D01*
X71392287Y-45318390D01*
X71384556Y-45307749D01*
X71271971Y-45152786D01*
X71127213Y-45008028D01*
X70961614Y-44887715D01*
X70944853Y-44879175D01*
X70868917Y-44840483D01*
X70818123Y-44792511D01*
X70801328Y-44724690D01*
X70823865Y-44658555D01*
X70868917Y-44619516D01*
X70961610Y-44572287D01*
X70982770Y-44556913D01*
X71127213Y-44451971D01*
X71127215Y-44451968D01*
X71127219Y-44451966D01*
X71271966Y-44307219D01*
X71271968Y-44307215D01*
X71271971Y-44307213D01*
X71363223Y-44181613D01*
X71392287Y-44141610D01*
X71485220Y-43959219D01*
X71548477Y-43764534D01*
X71580500Y-43562352D01*
X71580500Y-43357648D01*
X71548477Y-43155465D01*
X71485218Y-42960776D01*
X71451503Y-42894607D01*
X71392287Y-42778390D01*
X71384556Y-42767749D01*
X71271971Y-42612786D01*
X71127213Y-42468028D01*
X70961614Y-42347715D01*
X70889523Y-42310983D01*
X70868917Y-42300483D01*
X70818123Y-42252511D01*
X70801328Y-42184690D01*
X70823865Y-42118555D01*
X70868917Y-42079516D01*
X70961610Y-42032287D01*
X70982770Y-42016913D01*
X71127213Y-41911971D01*
X71127215Y-41911968D01*
X71127219Y-41911966D01*
X71271966Y-41767219D01*
X71271968Y-41767215D01*
X71271971Y-41767213D01*
X71363223Y-41641613D01*
X71392287Y-41601610D01*
X71485220Y-41419219D01*
X71548477Y-41224534D01*
X71580500Y-41022352D01*
X71580500Y-40817648D01*
X75799500Y-40817648D01*
X75799500Y-41022351D01*
X75831522Y-41224534D01*
X75894781Y-41419223D01*
X75987715Y-41601613D01*
X76108028Y-41767213D01*
X76252786Y-41911971D01*
X76407749Y-42024556D01*
X76418390Y-42032287D01*
X76509840Y-42078883D01*
X76511080Y-42079515D01*
X76561876Y-42127490D01*
X76578671Y-42195311D01*
X76556134Y-42261446D01*
X76511080Y-42300485D01*
X76418386Y-42347715D01*
X76252786Y-42468028D01*
X76108028Y-42612786D01*
X75987715Y-42778386D01*
X75894781Y-42960776D01*
X75831522Y-43155465D01*
X75799500Y-43357648D01*
X75799500Y-43562351D01*
X75831522Y-43764534D01*
X75894781Y-43959223D01*
X75987715Y-44141613D01*
X76108028Y-44307213D01*
X76252786Y-44451971D01*
X76407749Y-44564556D01*
X76418390Y-44572287D01*
X76490424Y-44608990D01*
X76511629Y-44619795D01*
X76562425Y-44667770D01*
X76579220Y-44735591D01*
X76556682Y-44801726D01*
X76511629Y-44840765D01*
X76418650Y-44888140D01*
X76253105Y-45008417D01*
X76253104Y-45008417D01*
X76108417Y-45153104D01*
X76108417Y-45153105D01*
X75988140Y-45318650D01*
X75895244Y-45500970D01*
X75832009Y-45695586D01*
X75823391Y-45750000D01*
X77184314Y-45750000D01*
X77179920Y-45754394D01*
X77127259Y-45845606D01*
X77100000Y-45947339D01*
X77100000Y-46052661D01*
X77127259Y-46154394D01*
X77179920Y-46245606D01*
X77184314Y-46250000D01*
X75823391Y-46250000D01*
X75832009Y-46304413D01*
X75895244Y-46499029D01*
X75988140Y-46681349D01*
X76108417Y-46846894D01*
X76108417Y-46846895D01*
X76253104Y-46991582D01*
X76418650Y-47111859D01*
X76600968Y-47204755D01*
X76795582Y-47267990D01*
X76997683Y-47300000D01*
X77250000Y-47300000D01*
X77250000Y-46315686D01*
X77254394Y-46320080D01*
X77345606Y-46372741D01*
X77447339Y-46400000D01*
X77552661Y-46400000D01*
X77654394Y-46372741D01*
X77745606Y-46320080D01*
X77750000Y-46315686D01*
X77750000Y-47300000D01*
X78002317Y-47300000D01*
X78204417Y-47267990D01*
X78399031Y-47204755D01*
X78581349Y-47111859D01*
X78746894Y-46991582D01*
X78746895Y-46991582D01*
X78891582Y-46846895D01*
X78891582Y-46846894D01*
X79011859Y-46681349D01*
X79104755Y-46499029D01*
X79167990Y-46304413D01*
X79176609Y-46250000D01*
X77815686Y-46250000D01*
X77820080Y-46245606D01*
X77872741Y-46154394D01*
X77900000Y-46052661D01*
X77900000Y-45947339D01*
X77872741Y-45845606D01*
X77820080Y-45754394D01*
X77815686Y-45750000D01*
X79176609Y-45750000D01*
X79167990Y-45695586D01*
X79104755Y-45500970D01*
X79011859Y-45318650D01*
X78891582Y-45153105D01*
X78891582Y-45153104D01*
X78746895Y-45008417D01*
X78581349Y-44888140D01*
X78488370Y-44840765D01*
X78437574Y-44792790D01*
X78420779Y-44724969D01*
X78443316Y-44658835D01*
X78488370Y-44619795D01*
X78488920Y-44619515D01*
X78581610Y-44572287D01*
X78602770Y-44556913D01*
X78747213Y-44451971D01*
X78747215Y-44451968D01*
X78747219Y-44451966D01*
X78891966Y-44307219D01*
X78891968Y-44307215D01*
X78891971Y-44307213D01*
X78983223Y-44181613D01*
X79012287Y-44141610D01*
X79105220Y-43959219D01*
X79168477Y-43764534D01*
X79200500Y-43562352D01*
X79200500Y-43357648D01*
X79168477Y-43155465D01*
X79105218Y-42960776D01*
X79071503Y-42894607D01*
X79012287Y-42778390D01*
X79004556Y-42767749D01*
X78891971Y-42612786D01*
X78747213Y-42468028D01*
X78581614Y-42347715D01*
X78509523Y-42310983D01*
X78488917Y-42300483D01*
X78438123Y-42252511D01*
X78421328Y-42184690D01*
X78443865Y-42118555D01*
X78488917Y-42079516D01*
X78581610Y-42032287D01*
X78602770Y-42016913D01*
X78747213Y-41911971D01*
X78747215Y-41911968D01*
X78747219Y-41911966D01*
X78891966Y-41767219D01*
X78891968Y-41767215D01*
X78891971Y-41767213D01*
X78983223Y-41641613D01*
X79012287Y-41601610D01*
X79105220Y-41419219D01*
X79168477Y-41224534D01*
X79200500Y-41022352D01*
X79200500Y-40817648D01*
X79185609Y-40723631D01*
X79168477Y-40615465D01*
X79105218Y-40420776D01*
X79037853Y-40288567D01*
X79012287Y-40238390D01*
X78928233Y-40122698D01*
X78891971Y-40072786D01*
X78747217Y-39928032D01*
X78747212Y-39928028D01*
X78653051Y-39859616D01*
X78610385Y-39804286D01*
X78604406Y-39734673D01*
X78637012Y-39672878D01*
X78686933Y-39641592D01*
X78769117Y-39614359D01*
X78769124Y-39614356D01*
X78918345Y-39522315D01*
X79042315Y-39398345D01*
X79134356Y-39249124D01*
X79134358Y-39249119D01*
X79189505Y-39082697D01*
X79189506Y-39082690D01*
X79199999Y-38979986D01*
X79200000Y-38979973D01*
X79200000Y-38630000D01*
X77815686Y-38630000D01*
X77820080Y-38625606D01*
X77872741Y-38534394D01*
X77900000Y-38432661D01*
X77900000Y-38327339D01*
X77886685Y-38277648D01*
X88179500Y-38277648D01*
X88179500Y-38482351D01*
X88211522Y-38684534D01*
X88274781Y-38879223D01*
X88326117Y-38979973D01*
X88346504Y-39019986D01*
X88367715Y-39061613D01*
X88488028Y-39227213D01*
X88632786Y-39371971D01*
X88787749Y-39484556D01*
X88798390Y-39492287D01*
X88889840Y-39538883D01*
X88891080Y-39539515D01*
X88941876Y-39587490D01*
X88958671Y-39655311D01*
X88936134Y-39721446D01*
X88891080Y-39760485D01*
X88798386Y-39807715D01*
X88632786Y-39928028D01*
X88488028Y-40072786D01*
X88367715Y-40238386D01*
X88274781Y-40420776D01*
X88211522Y-40615465D01*
X88179500Y-40817648D01*
X88179500Y-41022351D01*
X88211522Y-41224534D01*
X88274781Y-41419223D01*
X88367715Y-41601613D01*
X88488028Y-41767213D01*
X88632786Y-41911971D01*
X88787749Y-42024556D01*
X88798390Y-42032287D01*
X88889840Y-42078883D01*
X88891080Y-42079515D01*
X88941876Y-42127490D01*
X88958671Y-42195311D01*
X88936134Y-42261446D01*
X88891080Y-42300485D01*
X88798386Y-42347715D01*
X88632786Y-42468028D01*
X88488028Y-42612786D01*
X88367715Y-42778386D01*
X88274781Y-42960776D01*
X88211522Y-43155465D01*
X88179500Y-43357648D01*
X88179500Y-43562351D01*
X88211522Y-43764534D01*
X88274781Y-43959223D01*
X88367715Y-44141613D01*
X88488028Y-44307213D01*
X88632786Y-44451971D01*
X88787749Y-44564556D01*
X88798390Y-44572287D01*
X88889840Y-44618883D01*
X88891080Y-44619515D01*
X88941876Y-44667490D01*
X88958671Y-44735311D01*
X88936134Y-44801446D01*
X88891080Y-44840485D01*
X88798386Y-44887715D01*
X88632786Y-45008028D01*
X88488028Y-45152786D01*
X88367715Y-45318386D01*
X88274781Y-45500776D01*
X88211522Y-45695465D01*
X88179500Y-45897648D01*
X88179500Y-46102351D01*
X88211522Y-46304534D01*
X88274781Y-46499223D01*
X88367715Y-46681613D01*
X88488028Y-46847213D01*
X88632786Y-46991971D01*
X88787749Y-47104556D01*
X88798390Y-47112287D01*
X88914607Y-47171503D01*
X88980776Y-47205218D01*
X88980778Y-47205218D01*
X88980781Y-47205220D01*
X89085137Y-47239127D01*
X89175465Y-47268477D01*
X89276557Y-47284488D01*
X89377648Y-47300500D01*
X89377649Y-47300500D01*
X90382351Y-47300500D01*
X90382352Y-47300500D01*
X90584534Y-47268477D01*
X90779219Y-47205220D01*
X90961610Y-47112287D01*
X91054590Y-47044732D01*
X91127213Y-46991971D01*
X91127215Y-46991968D01*
X91127219Y-46991966D01*
X91271966Y-46847219D01*
X91271968Y-46847215D01*
X91271971Y-46847213D01*
X91363223Y-46721613D01*
X91392287Y-46681610D01*
X91485220Y-46499219D01*
X91548477Y-46304534D01*
X91580500Y-46102352D01*
X91580500Y-45897648D01*
X91563450Y-45790000D01*
X91548477Y-45695465D01*
X91485218Y-45500776D01*
X91451503Y-45434607D01*
X91392287Y-45318390D01*
X91384556Y-45307749D01*
X91271971Y-45152786D01*
X91127213Y-45008028D01*
X90961614Y-44887715D01*
X90944853Y-44879175D01*
X90868917Y-44840483D01*
X90818123Y-44792511D01*
X90801328Y-44724690D01*
X90823865Y-44658555D01*
X90868917Y-44619516D01*
X90961610Y-44572287D01*
X90982770Y-44556913D01*
X91127213Y-44451971D01*
X91127215Y-44451968D01*
X91127219Y-44451966D01*
X91271966Y-44307219D01*
X91271968Y-44307215D01*
X91271971Y-44307213D01*
X91363223Y-44181613D01*
X91392287Y-44141610D01*
X91485220Y-43959219D01*
X91548477Y-43764534D01*
X91580500Y-43562352D01*
X91580500Y-43357648D01*
X91548477Y-43155465D01*
X91485218Y-42960776D01*
X91451503Y-42894607D01*
X91392287Y-42778390D01*
X91384556Y-42767749D01*
X91271971Y-42612786D01*
X91127213Y-42468028D01*
X90961614Y-42347715D01*
X90889523Y-42310983D01*
X90868917Y-42300483D01*
X90818123Y-42252511D01*
X90801328Y-42184690D01*
X90823865Y-42118555D01*
X90868917Y-42079516D01*
X90961610Y-42032287D01*
X90982770Y-42016913D01*
X91127213Y-41911971D01*
X91127215Y-41911968D01*
X91127219Y-41911966D01*
X91271966Y-41767219D01*
X91271968Y-41767215D01*
X91271971Y-41767213D01*
X91363223Y-41641613D01*
X91392287Y-41601610D01*
X91485220Y-41419219D01*
X91548477Y-41224534D01*
X91580500Y-41022352D01*
X91580500Y-40817648D01*
X95799500Y-40817648D01*
X95799500Y-41022351D01*
X95831522Y-41224534D01*
X95894781Y-41419223D01*
X95987715Y-41601613D01*
X96108028Y-41767213D01*
X96252786Y-41911971D01*
X96407749Y-42024556D01*
X96418390Y-42032287D01*
X96509840Y-42078883D01*
X96511080Y-42079515D01*
X96561876Y-42127490D01*
X96578671Y-42195311D01*
X96556134Y-42261446D01*
X96511080Y-42300485D01*
X96418386Y-42347715D01*
X96252786Y-42468028D01*
X96108028Y-42612786D01*
X95987715Y-42778386D01*
X95894781Y-42960776D01*
X95831522Y-43155465D01*
X95799500Y-43357648D01*
X95799500Y-43562351D01*
X95831522Y-43764534D01*
X95894781Y-43959223D01*
X95987715Y-44141613D01*
X96108028Y-44307213D01*
X96252786Y-44451971D01*
X96407749Y-44564556D01*
X96418390Y-44572287D01*
X96490424Y-44608990D01*
X96511629Y-44619795D01*
X96562425Y-44667770D01*
X96579220Y-44735591D01*
X96556682Y-44801726D01*
X96511629Y-44840765D01*
X96418650Y-44888140D01*
X96253105Y-45008417D01*
X96253104Y-45008417D01*
X96108417Y-45153104D01*
X96108417Y-45153105D01*
X95988140Y-45318650D01*
X95895244Y-45500970D01*
X95832009Y-45695586D01*
X95823391Y-45750000D01*
X97184314Y-45750000D01*
X97179920Y-45754394D01*
X97127259Y-45845606D01*
X97100000Y-45947339D01*
X97100000Y-46052661D01*
X97127259Y-46154394D01*
X97179920Y-46245606D01*
X97184314Y-46250000D01*
X95823391Y-46250000D01*
X95832009Y-46304413D01*
X95895244Y-46499029D01*
X95988140Y-46681349D01*
X96108417Y-46846894D01*
X96108417Y-46846895D01*
X96253104Y-46991582D01*
X96418650Y-47111859D01*
X96600968Y-47204755D01*
X96795582Y-47267990D01*
X96997683Y-47300000D01*
X97250000Y-47300000D01*
X97250000Y-46315686D01*
X97254394Y-46320080D01*
X97345606Y-46372741D01*
X97447339Y-46400000D01*
X97552661Y-46400000D01*
X97654394Y-46372741D01*
X97745606Y-46320080D01*
X97750000Y-46315686D01*
X97750000Y-47300000D01*
X98002317Y-47300000D01*
X98204417Y-47267990D01*
X98399031Y-47204755D01*
X98581349Y-47111859D01*
X98746894Y-46991582D01*
X98746895Y-46991582D01*
X98891582Y-46846895D01*
X98891582Y-46846894D01*
X99011859Y-46681349D01*
X99104755Y-46499029D01*
X99167990Y-46304413D01*
X99176609Y-46250000D01*
X97815686Y-46250000D01*
X97820080Y-46245606D01*
X97872741Y-46154394D01*
X97900000Y-46052661D01*
X97900000Y-45947339D01*
X97872741Y-45845606D01*
X97820080Y-45754394D01*
X97815686Y-45750000D01*
X99176609Y-45750000D01*
X99167990Y-45695586D01*
X99104755Y-45500970D01*
X99011859Y-45318650D01*
X98891582Y-45153105D01*
X98891582Y-45153104D01*
X98746895Y-45008417D01*
X98581349Y-44888140D01*
X98488370Y-44840765D01*
X98437574Y-44792790D01*
X98420779Y-44724969D01*
X98443316Y-44658835D01*
X98488370Y-44619795D01*
X98488920Y-44619515D01*
X98581610Y-44572287D01*
X98602770Y-44556913D01*
X98747213Y-44451971D01*
X98747215Y-44451968D01*
X98747219Y-44451966D01*
X98891966Y-44307219D01*
X98891968Y-44307215D01*
X98891971Y-44307213D01*
X98983223Y-44181613D01*
X99012287Y-44141610D01*
X99105220Y-43959219D01*
X99168477Y-43764534D01*
X99200500Y-43562352D01*
X99200500Y-43357648D01*
X99168477Y-43155465D01*
X99105218Y-42960776D01*
X99071503Y-42894607D01*
X99012287Y-42778390D01*
X99004556Y-42767749D01*
X98891971Y-42612786D01*
X98747213Y-42468028D01*
X98581614Y-42347715D01*
X98509523Y-42310983D01*
X98488917Y-42300483D01*
X98438123Y-42252511D01*
X98421328Y-42184690D01*
X98443865Y-42118555D01*
X98488917Y-42079516D01*
X98581610Y-42032287D01*
X98602770Y-42016913D01*
X98747213Y-41911971D01*
X98747215Y-41911968D01*
X98747219Y-41911966D01*
X98891966Y-41767219D01*
X98891968Y-41767215D01*
X98891971Y-41767213D01*
X98983223Y-41641613D01*
X99012287Y-41601610D01*
X99105220Y-41419219D01*
X99168477Y-41224534D01*
X99200500Y-41022352D01*
X99200500Y-40817648D01*
X99185609Y-40723631D01*
X99168477Y-40615465D01*
X99105218Y-40420776D01*
X99037853Y-40288567D01*
X99012287Y-40238390D01*
X98928233Y-40122698D01*
X98891971Y-40072786D01*
X98747217Y-39928032D01*
X98747212Y-39928028D01*
X98653051Y-39859616D01*
X98610385Y-39804286D01*
X98604406Y-39734673D01*
X98637012Y-39672878D01*
X98686933Y-39641592D01*
X98769117Y-39614359D01*
X98769124Y-39614356D01*
X98918345Y-39522315D01*
X99042315Y-39398345D01*
X99134356Y-39249124D01*
X99134358Y-39249119D01*
X99189505Y-39082697D01*
X99189506Y-39082690D01*
X99199999Y-38979986D01*
X99200000Y-38979973D01*
X99200000Y-38630000D01*
X97815686Y-38630000D01*
X97820080Y-38625606D01*
X97872741Y-38534394D01*
X97900000Y-38432661D01*
X97900000Y-38327339D01*
X97872741Y-38225606D01*
X97820080Y-38134394D01*
X97815686Y-38130000D01*
X99199999Y-38130000D01*
X99199999Y-37780028D01*
X99199998Y-37780013D01*
X99189505Y-37677302D01*
X99134358Y-37510880D01*
X99134356Y-37510875D01*
X99042315Y-37361654D01*
X98918345Y-37237684D01*
X98769124Y-37145643D01*
X98769119Y-37145641D01*
X98602697Y-37090494D01*
X98602690Y-37090493D01*
X98499986Y-37080000D01*
X97750000Y-37080000D01*
X97750000Y-38064314D01*
X97745606Y-38059920D01*
X97654394Y-38007259D01*
X97552661Y-37980000D01*
X97447339Y-37980000D01*
X97345606Y-38007259D01*
X97254394Y-38059920D01*
X97250000Y-38064314D01*
X97250000Y-37080000D01*
X96500028Y-37080000D01*
X96500012Y-37080001D01*
X96397302Y-37090494D01*
X96230880Y-37145641D01*
X96230875Y-37145643D01*
X96081654Y-37237684D01*
X95957684Y-37361654D01*
X95865643Y-37510875D01*
X95865641Y-37510880D01*
X95810494Y-37677302D01*
X95810493Y-37677309D01*
X95800000Y-37780013D01*
X95800000Y-38130000D01*
X97184314Y-38130000D01*
X97179920Y-38134394D01*
X97127259Y-38225606D01*
X97100000Y-38327339D01*
X97100000Y-38432661D01*
X97127259Y-38534394D01*
X97179920Y-38625606D01*
X97184314Y-38630000D01*
X95800001Y-38630000D01*
X95800001Y-38979986D01*
X95810494Y-39082697D01*
X95865641Y-39249119D01*
X95865643Y-39249124D01*
X95957684Y-39398345D01*
X96081654Y-39522315D01*
X96230875Y-39614356D01*
X96230882Y-39614359D01*
X96313067Y-39641592D01*
X96370512Y-39681364D01*
X96397336Y-39745880D01*
X96385021Y-39814656D01*
X96346949Y-39859616D01*
X96252787Y-39928028D01*
X96252782Y-39928032D01*
X96108028Y-40072786D01*
X95987715Y-40238386D01*
X95894781Y-40420776D01*
X95831522Y-40615465D01*
X95799500Y-40817648D01*
X91580500Y-40817648D01*
X91565609Y-40723631D01*
X91548477Y-40615465D01*
X91485218Y-40420776D01*
X91417853Y-40288567D01*
X91392287Y-40238390D01*
X91308233Y-40122698D01*
X91271971Y-40072786D01*
X91127213Y-39928028D01*
X90961614Y-39807715D01*
X90896765Y-39774673D01*
X90868917Y-39760483D01*
X90818123Y-39712511D01*
X90801328Y-39644690D01*
X90823865Y-39578555D01*
X90868917Y-39539516D01*
X90961610Y-39492287D01*
X90982770Y-39476913D01*
X91127213Y-39371971D01*
X91127215Y-39371968D01*
X91127219Y-39371966D01*
X91271966Y-39227219D01*
X91271968Y-39227215D01*
X91271971Y-39227213D01*
X91363223Y-39101613D01*
X91392287Y-39061610D01*
X91485220Y-38879219D01*
X91548477Y-38684534D01*
X91580500Y-38482352D01*
X91580500Y-38277648D01*
X91563450Y-38170000D01*
X91548477Y-38075465D01*
X91517458Y-37980000D01*
X91485220Y-37880781D01*
X91485217Y-37880777D01*
X91485217Y-37880774D01*
X91460956Y-37833160D01*
X91460955Y-37833159D01*
X91392287Y-37698390D01*
X91392285Y-37698387D01*
X91392284Y-37698385D01*
X91271971Y-37532786D01*
X91127213Y-37388028D01*
X90961613Y-37267715D01*
X90961612Y-37267714D01*
X90961610Y-37267713D01*
X90902675Y-37237684D01*
X90779223Y-37174781D01*
X90584534Y-37111522D01*
X90409995Y-37083878D01*
X90382352Y-37079500D01*
X89377648Y-37079500D01*
X89353329Y-37083351D01*
X89175465Y-37111522D01*
X88980776Y-37174781D01*
X88798386Y-37267715D01*
X88632786Y-37388028D01*
X88488028Y-37532786D01*
X88367715Y-37698386D01*
X88274781Y-37880776D01*
X88211522Y-38075465D01*
X88179500Y-38277648D01*
X77886685Y-38277648D01*
X77872741Y-38225606D01*
X77820080Y-38134394D01*
X77815686Y-38130000D01*
X79199999Y-38130000D01*
X79199999Y-37780028D01*
X79199998Y-37780013D01*
X79189505Y-37677302D01*
X79134358Y-37510880D01*
X79134356Y-37510875D01*
X79042315Y-37361654D01*
X78918345Y-37237684D01*
X78769124Y-37145643D01*
X78769119Y-37145641D01*
X78602697Y-37090494D01*
X78602690Y-37090493D01*
X78499986Y-37080000D01*
X77750000Y-37080000D01*
X77750000Y-38064314D01*
X77745606Y-38059920D01*
X77654394Y-38007259D01*
X77552661Y-37980000D01*
X77447339Y-37980000D01*
X77345606Y-38007259D01*
X77254394Y-38059920D01*
X77250000Y-38064314D01*
X77250000Y-37080000D01*
X76500028Y-37080000D01*
X76500012Y-37080001D01*
X76397302Y-37090494D01*
X76230880Y-37145641D01*
X76230875Y-37145643D01*
X76081654Y-37237684D01*
X75957684Y-37361654D01*
X75865643Y-37510875D01*
X75865641Y-37510880D01*
X75810494Y-37677302D01*
X75810493Y-37677309D01*
X75800000Y-37780013D01*
X75800000Y-38130000D01*
X77184314Y-38130000D01*
X77179920Y-38134394D01*
X77127259Y-38225606D01*
X77100000Y-38327339D01*
X77100000Y-38432661D01*
X77127259Y-38534394D01*
X77179920Y-38625606D01*
X77184314Y-38630000D01*
X75800001Y-38630000D01*
X75800001Y-38979986D01*
X75810494Y-39082697D01*
X75865641Y-39249119D01*
X75865643Y-39249124D01*
X75957684Y-39398345D01*
X76081654Y-39522315D01*
X76230875Y-39614356D01*
X76230882Y-39614359D01*
X76313067Y-39641592D01*
X76370512Y-39681364D01*
X76397336Y-39745880D01*
X76385021Y-39814656D01*
X76346949Y-39859616D01*
X76252787Y-39928028D01*
X76252782Y-39928032D01*
X76108028Y-40072786D01*
X75987715Y-40238386D01*
X75894781Y-40420776D01*
X75831522Y-40615465D01*
X75799500Y-40817648D01*
X71580500Y-40817648D01*
X71565609Y-40723631D01*
X71548477Y-40615465D01*
X71485218Y-40420776D01*
X71417853Y-40288567D01*
X71392287Y-40238390D01*
X71308233Y-40122698D01*
X71271971Y-40072786D01*
X71127213Y-39928028D01*
X70961614Y-39807715D01*
X70896765Y-39774673D01*
X70868917Y-39760483D01*
X70818123Y-39712511D01*
X70801328Y-39644690D01*
X70823865Y-39578555D01*
X70868917Y-39539516D01*
X70961610Y-39492287D01*
X70982770Y-39476913D01*
X71127213Y-39371971D01*
X71127215Y-39371968D01*
X71127219Y-39371966D01*
X71271966Y-39227219D01*
X71271968Y-39227215D01*
X71271971Y-39227213D01*
X71363223Y-39101613D01*
X71392287Y-39061610D01*
X71485220Y-38879219D01*
X71548477Y-38684534D01*
X71580500Y-38482352D01*
X71580500Y-38277648D01*
X71563450Y-38170000D01*
X71548477Y-38075465D01*
X71517458Y-37980000D01*
X71485220Y-37880781D01*
X71485217Y-37880777D01*
X71485217Y-37880774D01*
X71460956Y-37833160D01*
X71460955Y-37833159D01*
X71392287Y-37698390D01*
X71392285Y-37698387D01*
X71392284Y-37698385D01*
X71271971Y-37532786D01*
X71127213Y-37388028D01*
X70961613Y-37267715D01*
X70961612Y-37267714D01*
X70961610Y-37267713D01*
X70902675Y-37237684D01*
X70779223Y-37174781D01*
X70584534Y-37111522D01*
X70409995Y-37083878D01*
X70382352Y-37079500D01*
X69377648Y-37079500D01*
X69353329Y-37083351D01*
X69175465Y-37111522D01*
X68980776Y-37174781D01*
X68798386Y-37267715D01*
X68632786Y-37388028D01*
X68488028Y-37532786D01*
X68367715Y-37698386D01*
X68274781Y-37880776D01*
X68211522Y-38075465D01*
X68179500Y-38277648D01*
X65475500Y-38277648D01*
X65475500Y-24881902D01*
X68499500Y-24881902D01*
X68499500Y-25118097D01*
X68536446Y-25351368D01*
X68609433Y-25575996D01*
X68716657Y-25786433D01*
X68855483Y-25977510D01*
X69022490Y-26144517D01*
X69213567Y-26283343D01*
X69312991Y-26334002D01*
X69424003Y-26390566D01*
X69424005Y-26390566D01*
X69424008Y-26390568D01*
X69544412Y-26429689D01*
X69648631Y-26463553D01*
X69881903Y-26500500D01*
X69881908Y-26500500D01*
X70118097Y-26500500D01*
X70351368Y-26463553D01*
X70575992Y-26390568D01*
X70786433Y-26283343D01*
X70977510Y-26144517D01*
X71144517Y-25977510D01*
X71235986Y-25851613D01*
X71291316Y-25808949D01*
X71336304Y-25800500D01*
X71963517Y-25800500D01*
X72030556Y-25820185D01*
X72076311Y-25872989D01*
X72086255Y-25942147D01*
X72057230Y-26005703D01*
X72001835Y-26042431D01*
X71794197Y-26109897D01*
X71583830Y-26217084D01*
X71500894Y-26277340D01*
X72240591Y-27017037D01*
X72177007Y-27034075D01*
X72062993Y-27099901D01*
X71969901Y-27192993D01*
X71904075Y-27307007D01*
X71887037Y-27370591D01*
X71147340Y-26630894D01*
X71087084Y-26713830D01*
X70979897Y-26924197D01*
X70906934Y-27148752D01*
X70870000Y-27381947D01*
X70870000Y-27618052D01*
X70906934Y-27851247D01*
X70979897Y-28075802D01*
X71087087Y-28286175D01*
X71105005Y-28310837D01*
X71128485Y-28376644D01*
X71112659Y-28444697D01*
X71062553Y-28493392D01*
X71020873Y-28506661D01*
X70907496Y-28521587D01*
X70847762Y-28529452D01*
X70754076Y-28554554D01*
X70626112Y-28588842D01*
X70414123Y-28676650D01*
X70414109Y-28676657D01*
X70215382Y-28791392D01*
X70033338Y-28931081D01*
X69871081Y-29093338D01*
X69731392Y-29275382D01*
X69616657Y-29474109D01*
X69616650Y-29474123D01*
X69528842Y-29686112D01*
X69469453Y-29907759D01*
X69469451Y-29907770D01*
X69439500Y-30135258D01*
X69439500Y-30364741D01*
X69464446Y-30554215D01*
X69469452Y-30592238D01*
X69469453Y-30592240D01*
X69528842Y-30813887D01*
X69616650Y-31025876D01*
X69616657Y-31025890D01*
X69731392Y-31224617D01*
X69871081Y-31406661D01*
X69871089Y-31406670D01*
X70033330Y-31568911D01*
X70033338Y-31568918D01*
X70215382Y-31708607D01*
X70215385Y-31708608D01*
X70215388Y-31708611D01*
X70414112Y-31823344D01*
X70414117Y-31823346D01*
X70414123Y-31823349D01*
X70505480Y-31861190D01*
X70626113Y-31911158D01*
X70847762Y-31970548D01*
X71020874Y-31993339D01*
X71084769Y-32021604D01*
X71123240Y-32079929D01*
X71124071Y-32149793D01*
X71105007Y-32189160D01*
X71087086Y-32213827D01*
X70979897Y-32424197D01*
X70906934Y-32648752D01*
X70870000Y-32881947D01*
X70870000Y-33118052D01*
X70906934Y-33351247D01*
X70979897Y-33575802D01*
X71065550Y-33743906D01*
X71078446Y-33812575D01*
X71052170Y-33877316D01*
X70995063Y-33917573D01*
X70979257Y-33921818D01*
X70898170Y-33937947D01*
X70898160Y-33937950D01*
X70716092Y-34013364D01*
X70716079Y-34013371D01*
X70552218Y-34122860D01*
X70552214Y-34122863D01*
X70412863Y-34262214D01*
X70412860Y-34262218D01*
X70303371Y-34426079D01*
X70303364Y-34426092D01*
X70227950Y-34608160D01*
X70227947Y-34608170D01*
X70189500Y-34801456D01*
X70189500Y-34801459D01*
X70189500Y-34998541D01*
X70189500Y-34998543D01*
X70189499Y-34998543D01*
X70227947Y-35191829D01*
X70227950Y-35191839D01*
X70303364Y-35373907D01*
X70303371Y-35373920D01*
X70412860Y-35537781D01*
X70412863Y-35537785D01*
X70552214Y-35677136D01*
X70552218Y-35677139D01*
X70716079Y-35786628D01*
X70716092Y-35786635D01*
X70898160Y-35862049D01*
X70898165Y-35862051D01*
X70898169Y-35862051D01*
X70898170Y-35862052D01*
X71091456Y-35900500D01*
X71091459Y-35900500D01*
X71288543Y-35900500D01*
X71418582Y-35874632D01*
X71481835Y-35862051D01*
X71663914Y-35786632D01*
X71827782Y-35677139D01*
X71967139Y-35537782D01*
X72076632Y-35373914D01*
X72152051Y-35191835D01*
X72190500Y-34998541D01*
X72190500Y-34801459D01*
X72190500Y-34801456D01*
X72160013Y-34648192D01*
X72166240Y-34578600D01*
X72209103Y-34523423D01*
X72274992Y-34500178D01*
X72281630Y-34500000D01*
X72488052Y-34500000D01*
X72721247Y-34463065D01*
X72945802Y-34390102D01*
X73156171Y-34282914D01*
X73279977Y-34192964D01*
X73345784Y-34169484D01*
X73413838Y-34185309D01*
X73461779Y-34234640D01*
X73461953Y-34234546D01*
X73462293Y-34235169D01*
X73462532Y-34235415D01*
X73463009Y-34236480D01*
X73466206Y-34242335D01*
X73552452Y-34357544D01*
X73552455Y-34357547D01*
X73667664Y-34443793D01*
X73667671Y-34443797D01*
X73802517Y-34494091D01*
X73802516Y-34494091D01*
X73809444Y-34494835D01*
X73862127Y-34500500D01*
X75957872Y-34500499D01*
X76017483Y-34494091D01*
X76152331Y-34443796D01*
X76267546Y-34357546D01*
X76353796Y-34242331D01*
X76404091Y-34107483D01*
X76410500Y-34047873D01*
X76410499Y-32094002D01*
X76430184Y-32026964D01*
X76482987Y-31981209D01*
X76518313Y-31971064D01*
X76522238Y-31970548D01*
X76743887Y-31911158D01*
X76955888Y-31823344D01*
X77154612Y-31708611D01*
X77336661Y-31568919D01*
X77336665Y-31568914D01*
X77336670Y-31568911D01*
X77498911Y-31406670D01*
X77498914Y-31406665D01*
X77498919Y-31406661D01*
X77638611Y-31224612D01*
X77753344Y-31025888D01*
X77841158Y-30813887D01*
X77900548Y-30592238D01*
X77930500Y-30364734D01*
X77930500Y-30135266D01*
X77900548Y-29907762D01*
X77841158Y-29686113D01*
X77753344Y-29474112D01*
X77638611Y-29275388D01*
X77638608Y-29275385D01*
X77638607Y-29275382D01*
X77498918Y-29093338D01*
X77498911Y-29093330D01*
X77336670Y-28931089D01*
X77336661Y-28931081D01*
X77154617Y-28791392D01*
X76955890Y-28676657D01*
X76955876Y-28676650D01*
X76743887Y-28588842D01*
X76522238Y-28529452D01*
X76484215Y-28524446D01*
X76294741Y-28499500D01*
X76294734Y-28499500D01*
X76281905Y-28499500D01*
X76214866Y-28479815D01*
X76169111Y-28427011D01*
X76159167Y-28357853D01*
X76181586Y-28302615D01*
X76193343Y-28286433D01*
X76300568Y-28075992D01*
X76373553Y-27851368D01*
X76398637Y-27692993D01*
X76410500Y-27618097D01*
X76410500Y-27381902D01*
X76373553Y-27148631D01*
X76300566Y-26924003D01*
X76193342Y-26713566D01*
X76133277Y-26630894D01*
X76054517Y-26522490D01*
X75887510Y-26355483D01*
X75696433Y-26216657D01*
X75485996Y-26109433D01*
X75279785Y-26042431D01*
X75222110Y-26002993D01*
X75194912Y-25938634D01*
X75206827Y-25869788D01*
X75254071Y-25818312D01*
X75318104Y-25800500D01*
X88463696Y-25800500D01*
X88530735Y-25820185D01*
X88564013Y-25851613D01*
X88655483Y-25977510D01*
X88822490Y-26144517D01*
X89013567Y-26283343D01*
X89112991Y-26334002D01*
X89224003Y-26390566D01*
X89224005Y-26390566D01*
X89224008Y-26390568D01*
X89344412Y-26429689D01*
X89448631Y-26463553D01*
X89681903Y-26500500D01*
X89681908Y-26500500D01*
X89918097Y-26500500D01*
X90151368Y-26463553D01*
X90375992Y-26390568D01*
X90586433Y-26283343D01*
X90777510Y-26144517D01*
X90944517Y-25977510D01*
X91035986Y-25851613D01*
X91091316Y-25808949D01*
X91136304Y-25800500D01*
X91963517Y-25800500D01*
X92030556Y-25820185D01*
X92076311Y-25872989D01*
X92086255Y-25942147D01*
X92057230Y-26005703D01*
X92001835Y-26042431D01*
X91794197Y-26109897D01*
X91583830Y-26217084D01*
X91500894Y-26277340D01*
X92240591Y-27017037D01*
X92177007Y-27034075D01*
X92062993Y-27099901D01*
X91969901Y-27192993D01*
X91904075Y-27307007D01*
X91887037Y-27370591D01*
X91147340Y-26630894D01*
X91087084Y-26713830D01*
X90979897Y-26924197D01*
X90906934Y-27148752D01*
X90870000Y-27381947D01*
X90870000Y-27618052D01*
X90906934Y-27851247D01*
X90979897Y-28075802D01*
X91087087Y-28286175D01*
X91105005Y-28310837D01*
X91128485Y-28376644D01*
X91112659Y-28444697D01*
X91062553Y-28493392D01*
X91020873Y-28506661D01*
X90907496Y-28521587D01*
X90847762Y-28529452D01*
X90754076Y-28554554D01*
X90626112Y-28588842D01*
X90414123Y-28676650D01*
X90414109Y-28676657D01*
X90215382Y-28791392D01*
X90033338Y-28931081D01*
X89871081Y-29093338D01*
X89731392Y-29275382D01*
X89616657Y-29474109D01*
X89616650Y-29474123D01*
X89528842Y-29686112D01*
X89469453Y-29907759D01*
X89469451Y-29907770D01*
X89439500Y-30135258D01*
X89439500Y-30364741D01*
X89464446Y-30554215D01*
X89469452Y-30592238D01*
X89469453Y-30592240D01*
X89528842Y-30813887D01*
X89616650Y-31025876D01*
X89616657Y-31025890D01*
X89731392Y-31224617D01*
X89871081Y-31406661D01*
X89871089Y-31406670D01*
X90033330Y-31568911D01*
X90033338Y-31568918D01*
X90215382Y-31708607D01*
X90215385Y-31708608D01*
X90215388Y-31708611D01*
X90414112Y-31823344D01*
X90414117Y-31823346D01*
X90414123Y-31823349D01*
X90505480Y-31861190D01*
X90626113Y-31911158D01*
X90847762Y-31970548D01*
X91020874Y-31993339D01*
X91084769Y-32021604D01*
X91123240Y-32079929D01*
X91124071Y-32149793D01*
X91105007Y-32189160D01*
X91087086Y-32213827D01*
X90979897Y-32424197D01*
X90906934Y-32648752D01*
X90870000Y-32881947D01*
X90870000Y-33118052D01*
X90906934Y-33351247D01*
X90979897Y-33575802D01*
X91065550Y-33743906D01*
X91078446Y-33812575D01*
X91052170Y-33877316D01*
X90995063Y-33917573D01*
X90979257Y-33921818D01*
X90898170Y-33937947D01*
X90898160Y-33937950D01*
X90716092Y-34013364D01*
X90716079Y-34013371D01*
X90552218Y-34122860D01*
X90552214Y-34122863D01*
X90412863Y-34262214D01*
X90412860Y-34262218D01*
X90303371Y-34426079D01*
X90303364Y-34426092D01*
X90227950Y-34608160D01*
X90227947Y-34608170D01*
X90189500Y-34801456D01*
X90189500Y-34801459D01*
X90189500Y-34998541D01*
X90189500Y-34998543D01*
X90189499Y-34998543D01*
X90227947Y-35191829D01*
X90227950Y-35191839D01*
X90303364Y-35373907D01*
X90303371Y-35373920D01*
X90412860Y-35537781D01*
X90412863Y-35537785D01*
X90552214Y-35677136D01*
X90552218Y-35677139D01*
X90716079Y-35786628D01*
X90716092Y-35786635D01*
X90898160Y-35862049D01*
X90898165Y-35862051D01*
X90898169Y-35862051D01*
X90898170Y-35862052D01*
X91091456Y-35900500D01*
X91091459Y-35900500D01*
X91288543Y-35900500D01*
X91418582Y-35874632D01*
X91481835Y-35862051D01*
X91663914Y-35786632D01*
X91827782Y-35677139D01*
X91967139Y-35537782D01*
X92076632Y-35373914D01*
X92152051Y-35191835D01*
X92190500Y-34998541D01*
X92190500Y-34801459D01*
X92190500Y-34801456D01*
X92160013Y-34648192D01*
X92166240Y-34578600D01*
X92209103Y-34523423D01*
X92274992Y-34500178D01*
X92281630Y-34500000D01*
X92488052Y-34500000D01*
X92721247Y-34463065D01*
X92945802Y-34390102D01*
X93156171Y-34282914D01*
X93279977Y-34192964D01*
X93345784Y-34169484D01*
X93413838Y-34185309D01*
X93461779Y-34234640D01*
X93461953Y-34234546D01*
X93462293Y-34235169D01*
X93462532Y-34235415D01*
X93463009Y-34236480D01*
X93466206Y-34242335D01*
X93552452Y-34357544D01*
X93552455Y-34357547D01*
X93667664Y-34443793D01*
X93667671Y-34443797D01*
X93802517Y-34494091D01*
X93802516Y-34494091D01*
X93809444Y-34494835D01*
X93862127Y-34500500D01*
X95957872Y-34500499D01*
X96017483Y-34494091D01*
X96152331Y-34443796D01*
X96267546Y-34357546D01*
X96353796Y-34242331D01*
X96404091Y-34107483D01*
X96410500Y-34047873D01*
X96410499Y-32094002D01*
X96430184Y-32026964D01*
X96482987Y-31981209D01*
X96518313Y-31971064D01*
X96522238Y-31970548D01*
X96743887Y-31911158D01*
X96955888Y-31823344D01*
X97154612Y-31708611D01*
X97336661Y-31568919D01*
X97336665Y-31568914D01*
X97336670Y-31568911D01*
X97498911Y-31406670D01*
X97498914Y-31406665D01*
X97498919Y-31406661D01*
X97638611Y-31224612D01*
X97753344Y-31025888D01*
X97841158Y-30813887D01*
X97900548Y-30592238D01*
X97930500Y-30364734D01*
X97930500Y-30135266D01*
X97930499Y-30135258D01*
X109439500Y-30135258D01*
X109439500Y-30364741D01*
X109464446Y-30554215D01*
X109469452Y-30592238D01*
X109469453Y-30592240D01*
X109528842Y-30813887D01*
X109616650Y-31025876D01*
X109616657Y-31025890D01*
X109731392Y-31224617D01*
X109871081Y-31406661D01*
X109871089Y-31406670D01*
X110033330Y-31568911D01*
X110033338Y-31568918D01*
X110215382Y-31708607D01*
X110215385Y-31708608D01*
X110215388Y-31708611D01*
X110414112Y-31823344D01*
X110414117Y-31823346D01*
X110414123Y-31823349D01*
X110505480Y-31861190D01*
X110626113Y-31911158D01*
X110847762Y-31970548D01*
X111020874Y-31993339D01*
X111084769Y-32021604D01*
X111123240Y-32079929D01*
X111124071Y-32149793D01*
X111105007Y-32189160D01*
X111087086Y-32213827D01*
X110979897Y-32424197D01*
X110906934Y-32648752D01*
X110870000Y-32881947D01*
X110870000Y-33118052D01*
X110906934Y-33351247D01*
X110979897Y-33575802D01*
X111065550Y-33743906D01*
X111078446Y-33812575D01*
X111052170Y-33877316D01*
X110995063Y-33917573D01*
X110979257Y-33921818D01*
X110898170Y-33937947D01*
X110898160Y-33937950D01*
X110716092Y-34013364D01*
X110716079Y-34013371D01*
X110552218Y-34122860D01*
X110552214Y-34122863D01*
X110412863Y-34262214D01*
X110412860Y-34262218D01*
X110303371Y-34426079D01*
X110303364Y-34426092D01*
X110227950Y-34608160D01*
X110227947Y-34608170D01*
X110189500Y-34801456D01*
X110189500Y-34801459D01*
X110189500Y-34998541D01*
X110189500Y-34998543D01*
X110189499Y-34998543D01*
X110227947Y-35191829D01*
X110227950Y-35191839D01*
X110303364Y-35373907D01*
X110303371Y-35373920D01*
X110412860Y-35537781D01*
X110412863Y-35537785D01*
X110552214Y-35677136D01*
X110552218Y-35677139D01*
X110716079Y-35786628D01*
X110716092Y-35786635D01*
X110898160Y-35862049D01*
X110898165Y-35862051D01*
X110898169Y-35862051D01*
X110898170Y-35862052D01*
X111091456Y-35900500D01*
X111091459Y-35900500D01*
X111288543Y-35900500D01*
X111418582Y-35874632D01*
X111481835Y-35862051D01*
X111663914Y-35786632D01*
X111827782Y-35677139D01*
X111967139Y-35537782D01*
X112076632Y-35373914D01*
X112152051Y-35191835D01*
X112190500Y-34998541D01*
X112190500Y-34801459D01*
X112190500Y-34801456D01*
X112160013Y-34648192D01*
X112166240Y-34578600D01*
X112209103Y-34523423D01*
X112274992Y-34500178D01*
X112281630Y-34500000D01*
X112488052Y-34500000D01*
X112721247Y-34463065D01*
X112945802Y-34390102D01*
X113156171Y-34282914D01*
X113279977Y-34192964D01*
X113345784Y-34169484D01*
X113413838Y-34185309D01*
X113461779Y-34234640D01*
X113461953Y-34234546D01*
X113462293Y-34235169D01*
X113462532Y-34235415D01*
X113463009Y-34236480D01*
X113466206Y-34242335D01*
X113552452Y-34357544D01*
X113552455Y-34357547D01*
X113667664Y-34443793D01*
X113667671Y-34443797D01*
X113802517Y-34494091D01*
X113802516Y-34494091D01*
X113809444Y-34494835D01*
X113862127Y-34500500D01*
X115957872Y-34500499D01*
X116017483Y-34494091D01*
X116152331Y-34443796D01*
X116267546Y-34357546D01*
X116353796Y-34242331D01*
X116404091Y-34107483D01*
X116410500Y-34047873D01*
X116410499Y-32094002D01*
X116430184Y-32026964D01*
X116482987Y-31981209D01*
X116518313Y-31971064D01*
X116522238Y-31970548D01*
X116743887Y-31911158D01*
X116955888Y-31823344D01*
X117154612Y-31708611D01*
X117336661Y-31568919D01*
X117336665Y-31568914D01*
X117336670Y-31568911D01*
X117498911Y-31406670D01*
X117498914Y-31406665D01*
X117498919Y-31406661D01*
X117638611Y-31224612D01*
X117753344Y-31025888D01*
X117841158Y-30813887D01*
X117900548Y-30592238D01*
X117930500Y-30364734D01*
X117930500Y-30135266D01*
X117900548Y-29907762D01*
X117841158Y-29686113D01*
X117753344Y-29474112D01*
X117638611Y-29275388D01*
X117638608Y-29275385D01*
X117638607Y-29275382D01*
X117498918Y-29093338D01*
X117498911Y-29093330D01*
X117336670Y-28931089D01*
X117336661Y-28931081D01*
X117154617Y-28791392D01*
X116955890Y-28676657D01*
X116955876Y-28676650D01*
X116743887Y-28588842D01*
X116522238Y-28529452D01*
X116484215Y-28524446D01*
X116294741Y-28499500D01*
X116294734Y-28499500D01*
X116281905Y-28499500D01*
X116214866Y-28479815D01*
X116169111Y-28427011D01*
X116159167Y-28357853D01*
X116181586Y-28302615D01*
X116193343Y-28286433D01*
X116300568Y-28075992D01*
X116373553Y-27851368D01*
X116398637Y-27692993D01*
X116410500Y-27618097D01*
X116410500Y-27381902D01*
X116373553Y-27148631D01*
X116300566Y-26924003D01*
X116193342Y-26713566D01*
X116133277Y-26630894D01*
X116054517Y-26522490D01*
X115887510Y-26355483D01*
X115696433Y-26216657D01*
X115485996Y-26109433D01*
X115261368Y-26036446D01*
X115028097Y-25999500D01*
X115028092Y-25999500D01*
X114791908Y-25999500D01*
X114791903Y-25999500D01*
X114558631Y-26036446D01*
X114334003Y-26109433D01*
X114123566Y-26216657D01*
X114113073Y-26224281D01*
X113932490Y-26355483D01*
X113932488Y-26355485D01*
X113932487Y-26355485D01*
X113765482Y-26522490D01*
X113722451Y-26581717D01*
X113667120Y-26624382D01*
X113612405Y-26632448D01*
X113592658Y-26630893D01*
X112852962Y-27370590D01*
X112835925Y-27307007D01*
X112770099Y-27192993D01*
X112677007Y-27099901D01*
X112562993Y-27034075D01*
X112499409Y-27017037D01*
X113239105Y-26277340D01*
X113239104Y-26277338D01*
X113156174Y-26217087D01*
X112945802Y-26109897D01*
X112721247Y-26036934D01*
X112721248Y-26036934D01*
X112488052Y-26000000D01*
X112251948Y-26000000D01*
X112018752Y-26036934D01*
X111794197Y-26109897D01*
X111583830Y-26217084D01*
X111500894Y-26277340D01*
X112240591Y-27017037D01*
X112177007Y-27034075D01*
X112062993Y-27099901D01*
X111969901Y-27192993D01*
X111904075Y-27307007D01*
X111887037Y-27370591D01*
X111147340Y-26630894D01*
X111087084Y-26713830D01*
X110979897Y-26924197D01*
X110906934Y-27148752D01*
X110870000Y-27381947D01*
X110870000Y-27618052D01*
X110906934Y-27851247D01*
X110979897Y-28075802D01*
X111087087Y-28286175D01*
X111105005Y-28310837D01*
X111128485Y-28376644D01*
X111112659Y-28444697D01*
X111062553Y-28493392D01*
X111020873Y-28506661D01*
X110907496Y-28521587D01*
X110847762Y-28529452D01*
X110754076Y-28554554D01*
X110626112Y-28588842D01*
X110414123Y-28676650D01*
X110414109Y-28676657D01*
X110215382Y-28791392D01*
X110033338Y-28931081D01*
X109871081Y-29093338D01*
X109731392Y-29275382D01*
X109616657Y-29474109D01*
X109616650Y-29474123D01*
X109528842Y-29686112D01*
X109469453Y-29907759D01*
X109469451Y-29907770D01*
X109439500Y-30135258D01*
X97930499Y-30135258D01*
X97900548Y-29907762D01*
X97841158Y-29686113D01*
X97753344Y-29474112D01*
X97638611Y-29275388D01*
X97638608Y-29275385D01*
X97638607Y-29275382D01*
X97498918Y-29093338D01*
X97498911Y-29093330D01*
X97336670Y-28931089D01*
X97336661Y-28931081D01*
X97154617Y-28791392D01*
X96955890Y-28676657D01*
X96955876Y-28676650D01*
X96743887Y-28588842D01*
X96522238Y-28529452D01*
X96484215Y-28524446D01*
X96294741Y-28499500D01*
X96294734Y-28499500D01*
X96281905Y-28499500D01*
X96214866Y-28479815D01*
X96169111Y-28427011D01*
X96159167Y-28357853D01*
X96181586Y-28302615D01*
X96193343Y-28286433D01*
X96300568Y-28075992D01*
X96373553Y-27851368D01*
X96398637Y-27692993D01*
X96410500Y-27618097D01*
X96410500Y-27381902D01*
X96373553Y-27148631D01*
X96300566Y-26924003D01*
X96193342Y-26713566D01*
X96133277Y-26630894D01*
X96054517Y-26522490D01*
X95887510Y-26355483D01*
X95696433Y-26216657D01*
X95485996Y-26109433D01*
X95279785Y-26042431D01*
X95222110Y-26002993D01*
X95194912Y-25938634D01*
X95206827Y-25869788D01*
X95254071Y-25818312D01*
X95318104Y-25800500D01*
X108163696Y-25800500D01*
X108230735Y-25820185D01*
X108264013Y-25851613D01*
X108355483Y-25977510D01*
X108522490Y-26144517D01*
X108713567Y-26283343D01*
X108812991Y-26334002D01*
X108924003Y-26390566D01*
X108924005Y-26390566D01*
X108924008Y-26390568D01*
X109044412Y-26429689D01*
X109148631Y-26463553D01*
X109381903Y-26500500D01*
X109381908Y-26500500D01*
X109618097Y-26500500D01*
X109851368Y-26463553D01*
X110075992Y-26390568D01*
X110286433Y-26283343D01*
X110477510Y-26144517D01*
X110644517Y-25977510D01*
X110783343Y-25786433D01*
X110890568Y-25575992D01*
X110963553Y-25351368D01*
X111000500Y-25118097D01*
X111000500Y-24881902D01*
X110963553Y-24648631D01*
X110890566Y-24424003D01*
X110783342Y-24213566D01*
X110644517Y-24022490D01*
X110477510Y-23855483D01*
X110286433Y-23716657D01*
X110075996Y-23609433D01*
X109851368Y-23536446D01*
X109618097Y-23499500D01*
X109618092Y-23499500D01*
X109381908Y-23499500D01*
X109381903Y-23499500D01*
X109148631Y-23536446D01*
X108924003Y-23609433D01*
X108713566Y-23716657D01*
X108604550Y-23795862D01*
X108522490Y-23855483D01*
X108522488Y-23855485D01*
X108522487Y-23855485D01*
X108355485Y-24022487D01*
X108355485Y-24022488D01*
X108355483Y-24022490D01*
X108264014Y-24148386D01*
X108208684Y-24191051D01*
X108163696Y-24199500D01*
X91136304Y-24199500D01*
X91069265Y-24179815D01*
X91035986Y-24148386D01*
X90944517Y-24022490D01*
X90777510Y-23855483D01*
X90586433Y-23716657D01*
X90375996Y-23609433D01*
X90151368Y-23536446D01*
X89918097Y-23499500D01*
X89918092Y-23499500D01*
X89681908Y-23499500D01*
X89681903Y-23499500D01*
X89448631Y-23536446D01*
X89224003Y-23609433D01*
X89013566Y-23716657D01*
X88904550Y-23795862D01*
X88822490Y-23855483D01*
X88822488Y-23855485D01*
X88822487Y-23855485D01*
X88655485Y-24022487D01*
X88655485Y-24022488D01*
X88655483Y-24022490D01*
X88564014Y-24148386D01*
X88508684Y-24191051D01*
X88463696Y-24199500D01*
X71336304Y-24199500D01*
X71269265Y-24179815D01*
X71235986Y-24148386D01*
X71144517Y-24022490D01*
X70977510Y-23855483D01*
X70786433Y-23716657D01*
X70575996Y-23609433D01*
X70351368Y-23536446D01*
X70118097Y-23499500D01*
X70118092Y-23499500D01*
X69881908Y-23499500D01*
X69881903Y-23499500D01*
X69648631Y-23536446D01*
X69424003Y-23609433D01*
X69213566Y-23716657D01*
X69104550Y-23795862D01*
X69022490Y-23855483D01*
X69022488Y-23855485D01*
X69022487Y-23855485D01*
X68855485Y-24022487D01*
X68855485Y-24022488D01*
X68855483Y-24022490D01*
X68795862Y-24104550D01*
X68716657Y-24213566D01*
X68609433Y-24424003D01*
X68536446Y-24648631D01*
X68499500Y-24881902D01*
X65475500Y-24881902D01*
X65475500Y-22164500D01*
X65495185Y-22097461D01*
X65547989Y-22051706D01*
X65599500Y-22040500D01*
X121770500Y-22040500D01*
X121837539Y-22060185D01*
G37*
%TD.AperFunction*%
%TD*%
M02*
