%TF.GenerationSoftware,KiCad,Pcbnew,9.0.4*%
%TF.CreationDate,2026-02-19T09:19:54+00:00*%
%TF.ProjectId,Line following V2,4c696e65-2066-46f6-9c6c-6f77696e6720,rev?*%
%TF.SameCoordinates,Original*%
%TF.FileFunction,Legend,Top*%
%TF.FilePolarity,Positive*%
%FSLAX46Y46*%
G04 Gerber Fmt 4.6, Leading zero omitted, Abs format (unit mm)*
G04 Created by KiCad (PCBNEW 9.0.4) date 2026-02-19 09:19:54*
%MOMM*%
%LPD*%
G01*
G04 APERTURE LIST*
%ADD10C,0.150000*%
%ADD11C,0.120000*%
G04 APERTURE END LIST*
D10*
X113047142Y-44604819D02*
X112713809Y-44128628D01*
X112475714Y-44604819D02*
X112475714Y-43604819D01*
X112475714Y-43604819D02*
X112856666Y-43604819D01*
X112856666Y-43604819D02*
X112951904Y-43652438D01*
X112951904Y-43652438D02*
X112999523Y-43700057D01*
X112999523Y-43700057D02*
X113047142Y-43795295D01*
X113047142Y-43795295D02*
X113047142Y-43938152D01*
X113047142Y-43938152D02*
X112999523Y-44033390D01*
X112999523Y-44033390D02*
X112951904Y-44081009D01*
X112951904Y-44081009D02*
X112856666Y-44128628D01*
X112856666Y-44128628D02*
X112475714Y-44128628D01*
X113999523Y-44604819D02*
X113428095Y-44604819D01*
X113713809Y-44604819D02*
X113713809Y-43604819D01*
X113713809Y-43604819D02*
X113618571Y-43747676D01*
X113618571Y-43747676D02*
X113523333Y-43842914D01*
X113523333Y-43842914D02*
X113428095Y-43890533D01*
X114380476Y-43700057D02*
X114428095Y-43652438D01*
X114428095Y-43652438D02*
X114523333Y-43604819D01*
X114523333Y-43604819D02*
X114761428Y-43604819D01*
X114761428Y-43604819D02*
X114856666Y-43652438D01*
X114856666Y-43652438D02*
X114904285Y-43700057D01*
X114904285Y-43700057D02*
X114951904Y-43795295D01*
X114951904Y-43795295D02*
X114951904Y-43890533D01*
X114951904Y-43890533D02*
X114904285Y-44033390D01*
X114904285Y-44033390D02*
X114332857Y-44604819D01*
X114332857Y-44604819D02*
X114951904Y-44604819D01*
X93167142Y-45104819D02*
X92833809Y-44628628D01*
X92595714Y-45104819D02*
X92595714Y-44104819D01*
X92595714Y-44104819D02*
X92976666Y-44104819D01*
X92976666Y-44104819D02*
X93071904Y-44152438D01*
X93071904Y-44152438D02*
X93119523Y-44200057D01*
X93119523Y-44200057D02*
X93167142Y-44295295D01*
X93167142Y-44295295D02*
X93167142Y-44438152D01*
X93167142Y-44438152D02*
X93119523Y-44533390D01*
X93119523Y-44533390D02*
X93071904Y-44581009D01*
X93071904Y-44581009D02*
X92976666Y-44628628D01*
X92976666Y-44628628D02*
X92595714Y-44628628D01*
X94119523Y-45104819D02*
X93548095Y-45104819D01*
X93833809Y-45104819D02*
X93833809Y-44104819D01*
X93833809Y-44104819D02*
X93738571Y-44247676D01*
X93738571Y-44247676D02*
X93643333Y-44342914D01*
X93643333Y-44342914D02*
X93548095Y-44390533D01*
X95071904Y-45104819D02*
X94500476Y-45104819D01*
X94786190Y-45104819D02*
X94786190Y-44104819D01*
X94786190Y-44104819D02*
X94690952Y-44247676D01*
X94690952Y-44247676D02*
X94595714Y-44342914D01*
X94595714Y-44342914D02*
X94500476Y-44390533D01*
X73097142Y-45104819D02*
X72763809Y-44628628D01*
X72525714Y-45104819D02*
X72525714Y-44104819D01*
X72525714Y-44104819D02*
X72906666Y-44104819D01*
X72906666Y-44104819D02*
X73001904Y-44152438D01*
X73001904Y-44152438D02*
X73049523Y-44200057D01*
X73049523Y-44200057D02*
X73097142Y-44295295D01*
X73097142Y-44295295D02*
X73097142Y-44438152D01*
X73097142Y-44438152D02*
X73049523Y-44533390D01*
X73049523Y-44533390D02*
X73001904Y-44581009D01*
X73001904Y-44581009D02*
X72906666Y-44628628D01*
X72906666Y-44628628D02*
X72525714Y-44628628D01*
X74049523Y-45104819D02*
X73478095Y-45104819D01*
X73763809Y-45104819D02*
X73763809Y-44104819D01*
X73763809Y-44104819D02*
X73668571Y-44247676D01*
X73668571Y-44247676D02*
X73573333Y-44342914D01*
X73573333Y-44342914D02*
X73478095Y-44390533D01*
X74668571Y-44104819D02*
X74763809Y-44104819D01*
X74763809Y-44104819D02*
X74859047Y-44152438D01*
X74859047Y-44152438D02*
X74906666Y-44200057D01*
X74906666Y-44200057D02*
X74954285Y-44295295D01*
X74954285Y-44295295D02*
X75001904Y-44485771D01*
X75001904Y-44485771D02*
X75001904Y-44723866D01*
X75001904Y-44723866D02*
X74954285Y-44914342D01*
X74954285Y-44914342D02*
X74906666Y-45009580D01*
X74906666Y-45009580D02*
X74859047Y-45057200D01*
X74859047Y-45057200D02*
X74763809Y-45104819D01*
X74763809Y-45104819D02*
X74668571Y-45104819D01*
X74668571Y-45104819D02*
X74573333Y-45057200D01*
X74573333Y-45057200D02*
X74525714Y-45009580D01*
X74525714Y-45009580D02*
X74478095Y-44914342D01*
X74478095Y-44914342D02*
X74430476Y-44723866D01*
X74430476Y-44723866D02*
X74430476Y-44485771D01*
X74430476Y-44485771D02*
X74478095Y-44295295D01*
X74478095Y-44295295D02*
X74525714Y-44200057D01*
X74525714Y-44200057D02*
X74573333Y-44152438D01*
X74573333Y-44152438D02*
X74668571Y-44104819D01*
X86083333Y-51229580D02*
X86035714Y-51277200D01*
X86035714Y-51277200D02*
X85892857Y-51324819D01*
X85892857Y-51324819D02*
X85797619Y-51324819D01*
X85797619Y-51324819D02*
X85654762Y-51277200D01*
X85654762Y-51277200D02*
X85559524Y-51181961D01*
X85559524Y-51181961D02*
X85511905Y-51086723D01*
X85511905Y-51086723D02*
X85464286Y-50896247D01*
X85464286Y-50896247D02*
X85464286Y-50753390D01*
X85464286Y-50753390D02*
X85511905Y-50562914D01*
X85511905Y-50562914D02*
X85559524Y-50467676D01*
X85559524Y-50467676D02*
X85654762Y-50372438D01*
X85654762Y-50372438D02*
X85797619Y-50324819D01*
X85797619Y-50324819D02*
X85892857Y-50324819D01*
X85892857Y-50324819D02*
X86035714Y-50372438D01*
X86035714Y-50372438D02*
X86083333Y-50420057D01*
X87035714Y-51324819D02*
X86464286Y-51324819D01*
X86750000Y-51324819D02*
X86750000Y-50324819D01*
X86750000Y-50324819D02*
X86654762Y-50467676D01*
X86654762Y-50467676D02*
X86559524Y-50562914D01*
X86559524Y-50562914D02*
X86464286Y-50610533D01*
X96254580Y-59116666D02*
X96302200Y-59164285D01*
X96302200Y-59164285D02*
X96349819Y-59307142D01*
X96349819Y-59307142D02*
X96349819Y-59402380D01*
X96349819Y-59402380D02*
X96302200Y-59545237D01*
X96302200Y-59545237D02*
X96206961Y-59640475D01*
X96206961Y-59640475D02*
X96111723Y-59688094D01*
X96111723Y-59688094D02*
X95921247Y-59735713D01*
X95921247Y-59735713D02*
X95778390Y-59735713D01*
X95778390Y-59735713D02*
X95587914Y-59688094D01*
X95587914Y-59688094D02*
X95492676Y-59640475D01*
X95492676Y-59640475D02*
X95397438Y-59545237D01*
X95397438Y-59545237D02*
X95349819Y-59402380D01*
X95349819Y-59402380D02*
X95349819Y-59307142D01*
X95349819Y-59307142D02*
X95397438Y-59164285D01*
X95397438Y-59164285D02*
X95445057Y-59116666D01*
X95445057Y-58735713D02*
X95397438Y-58688094D01*
X95397438Y-58688094D02*
X95349819Y-58592856D01*
X95349819Y-58592856D02*
X95349819Y-58354761D01*
X95349819Y-58354761D02*
X95397438Y-58259523D01*
X95397438Y-58259523D02*
X95445057Y-58211904D01*
X95445057Y-58211904D02*
X95540295Y-58164285D01*
X95540295Y-58164285D02*
X95635533Y-58164285D01*
X95635533Y-58164285D02*
X95778390Y-58211904D01*
X95778390Y-58211904D02*
X96349819Y-58783332D01*
X96349819Y-58783332D02*
X96349819Y-58164285D01*
X91304819Y-58766666D02*
X90828628Y-59099999D01*
X91304819Y-59338094D02*
X90304819Y-59338094D01*
X90304819Y-59338094D02*
X90304819Y-58957142D01*
X90304819Y-58957142D02*
X90352438Y-58861904D01*
X90352438Y-58861904D02*
X90400057Y-58814285D01*
X90400057Y-58814285D02*
X90495295Y-58766666D01*
X90495295Y-58766666D02*
X90638152Y-58766666D01*
X90638152Y-58766666D02*
X90733390Y-58814285D01*
X90733390Y-58814285D02*
X90781009Y-58861904D01*
X90781009Y-58861904D02*
X90828628Y-58957142D01*
X90828628Y-58957142D02*
X90828628Y-59338094D01*
X90304819Y-57909523D02*
X90304819Y-58099999D01*
X90304819Y-58099999D02*
X90352438Y-58195237D01*
X90352438Y-58195237D02*
X90400057Y-58242856D01*
X90400057Y-58242856D02*
X90542914Y-58338094D01*
X90542914Y-58338094D02*
X90733390Y-58385713D01*
X90733390Y-58385713D02*
X91114342Y-58385713D01*
X91114342Y-58385713D02*
X91209580Y-58338094D01*
X91209580Y-58338094D02*
X91257200Y-58290475D01*
X91257200Y-58290475D02*
X91304819Y-58195237D01*
X91304819Y-58195237D02*
X91304819Y-58004761D01*
X91304819Y-58004761D02*
X91257200Y-57909523D01*
X91257200Y-57909523D02*
X91209580Y-57861904D01*
X91209580Y-57861904D02*
X91114342Y-57814285D01*
X91114342Y-57814285D02*
X90876247Y-57814285D01*
X90876247Y-57814285D02*
X90781009Y-57861904D01*
X90781009Y-57861904D02*
X90733390Y-57909523D01*
X90733390Y-57909523D02*
X90685771Y-58004761D01*
X90685771Y-58004761D02*
X90685771Y-58195237D01*
X90685771Y-58195237D02*
X90733390Y-58290475D01*
X90733390Y-58290475D02*
X90781009Y-58338094D01*
X90781009Y-58338094D02*
X90876247Y-58385713D01*
X91483333Y-55154819D02*
X91150000Y-54678628D01*
X90911905Y-55154819D02*
X90911905Y-54154819D01*
X90911905Y-54154819D02*
X91292857Y-54154819D01*
X91292857Y-54154819D02*
X91388095Y-54202438D01*
X91388095Y-54202438D02*
X91435714Y-54250057D01*
X91435714Y-54250057D02*
X91483333Y-54345295D01*
X91483333Y-54345295D02*
X91483333Y-54488152D01*
X91483333Y-54488152D02*
X91435714Y-54583390D01*
X91435714Y-54583390D02*
X91388095Y-54631009D01*
X91388095Y-54631009D02*
X91292857Y-54678628D01*
X91292857Y-54678628D02*
X90911905Y-54678628D01*
X91816667Y-54154819D02*
X92435714Y-54154819D01*
X92435714Y-54154819D02*
X92102381Y-54535771D01*
X92102381Y-54535771D02*
X92245238Y-54535771D01*
X92245238Y-54535771D02*
X92340476Y-54583390D01*
X92340476Y-54583390D02*
X92388095Y-54631009D01*
X92388095Y-54631009D02*
X92435714Y-54726247D01*
X92435714Y-54726247D02*
X92435714Y-54964342D01*
X92435714Y-54964342D02*
X92388095Y-55059580D01*
X92388095Y-55059580D02*
X92340476Y-55107200D01*
X92340476Y-55107200D02*
X92245238Y-55154819D01*
X92245238Y-55154819D02*
X91959524Y-55154819D01*
X91959524Y-55154819D02*
X91864286Y-55107200D01*
X91864286Y-55107200D02*
X91816667Y-55059580D01*
X93604819Y-58766666D02*
X93128628Y-59099999D01*
X93604819Y-59338094D02*
X92604819Y-59338094D01*
X92604819Y-59338094D02*
X92604819Y-58957142D01*
X92604819Y-58957142D02*
X92652438Y-58861904D01*
X92652438Y-58861904D02*
X92700057Y-58814285D01*
X92700057Y-58814285D02*
X92795295Y-58766666D01*
X92795295Y-58766666D02*
X92938152Y-58766666D01*
X92938152Y-58766666D02*
X93033390Y-58814285D01*
X93033390Y-58814285D02*
X93081009Y-58861904D01*
X93081009Y-58861904D02*
X93128628Y-58957142D01*
X93128628Y-58957142D02*
X93128628Y-59338094D01*
X93604819Y-58290475D02*
X93604819Y-58099999D01*
X93604819Y-58099999D02*
X93557200Y-58004761D01*
X93557200Y-58004761D02*
X93509580Y-57957142D01*
X93509580Y-57957142D02*
X93366723Y-57861904D01*
X93366723Y-57861904D02*
X93176247Y-57814285D01*
X93176247Y-57814285D02*
X92795295Y-57814285D01*
X92795295Y-57814285D02*
X92700057Y-57861904D01*
X92700057Y-57861904D02*
X92652438Y-57909523D01*
X92652438Y-57909523D02*
X92604819Y-58004761D01*
X92604819Y-58004761D02*
X92604819Y-58195237D01*
X92604819Y-58195237D02*
X92652438Y-58290475D01*
X92652438Y-58290475D02*
X92700057Y-58338094D01*
X92700057Y-58338094D02*
X92795295Y-58385713D01*
X92795295Y-58385713D02*
X93033390Y-58385713D01*
X93033390Y-58385713D02*
X93128628Y-58338094D01*
X93128628Y-58338094D02*
X93176247Y-58290475D01*
X93176247Y-58290475D02*
X93223866Y-58195237D01*
X93223866Y-58195237D02*
X93223866Y-58004761D01*
X93223866Y-58004761D02*
X93176247Y-57909523D01*
X93176247Y-57909523D02*
X93128628Y-57861904D01*
X93128628Y-57861904D02*
X93033390Y-57814285D01*
X73583333Y-23804819D02*
X73250000Y-23328628D01*
X73011905Y-23804819D02*
X73011905Y-22804819D01*
X73011905Y-22804819D02*
X73392857Y-22804819D01*
X73392857Y-22804819D02*
X73488095Y-22852438D01*
X73488095Y-22852438D02*
X73535714Y-22900057D01*
X73535714Y-22900057D02*
X73583333Y-22995295D01*
X73583333Y-22995295D02*
X73583333Y-23138152D01*
X73583333Y-23138152D02*
X73535714Y-23233390D01*
X73535714Y-23233390D02*
X73488095Y-23281009D01*
X73488095Y-23281009D02*
X73392857Y-23328628D01*
X73392857Y-23328628D02*
X73011905Y-23328628D01*
X74535714Y-23804819D02*
X73964286Y-23804819D01*
X74250000Y-23804819D02*
X74250000Y-22804819D01*
X74250000Y-22804819D02*
X74154762Y-22947676D01*
X74154762Y-22947676D02*
X74059524Y-23042914D01*
X74059524Y-23042914D02*
X73964286Y-23090533D01*
X113523333Y-38534819D02*
X113190000Y-38058628D01*
X112951905Y-38534819D02*
X112951905Y-37534819D01*
X112951905Y-37534819D02*
X113332857Y-37534819D01*
X113332857Y-37534819D02*
X113428095Y-37582438D01*
X113428095Y-37582438D02*
X113475714Y-37630057D01*
X113475714Y-37630057D02*
X113523333Y-37725295D01*
X113523333Y-37725295D02*
X113523333Y-37868152D01*
X113523333Y-37868152D02*
X113475714Y-37963390D01*
X113475714Y-37963390D02*
X113428095Y-38011009D01*
X113428095Y-38011009D02*
X113332857Y-38058628D01*
X113332857Y-38058628D02*
X112951905Y-38058628D01*
X114094762Y-37963390D02*
X113999524Y-37915771D01*
X113999524Y-37915771D02*
X113951905Y-37868152D01*
X113951905Y-37868152D02*
X113904286Y-37772914D01*
X113904286Y-37772914D02*
X113904286Y-37725295D01*
X113904286Y-37725295D02*
X113951905Y-37630057D01*
X113951905Y-37630057D02*
X113999524Y-37582438D01*
X113999524Y-37582438D02*
X114094762Y-37534819D01*
X114094762Y-37534819D02*
X114285238Y-37534819D01*
X114285238Y-37534819D02*
X114380476Y-37582438D01*
X114380476Y-37582438D02*
X114428095Y-37630057D01*
X114428095Y-37630057D02*
X114475714Y-37725295D01*
X114475714Y-37725295D02*
X114475714Y-37772914D01*
X114475714Y-37772914D02*
X114428095Y-37868152D01*
X114428095Y-37868152D02*
X114380476Y-37915771D01*
X114380476Y-37915771D02*
X114285238Y-37963390D01*
X114285238Y-37963390D02*
X114094762Y-37963390D01*
X114094762Y-37963390D02*
X113999524Y-38011009D01*
X113999524Y-38011009D02*
X113951905Y-38058628D01*
X113951905Y-38058628D02*
X113904286Y-38153866D01*
X113904286Y-38153866D02*
X113904286Y-38344342D01*
X113904286Y-38344342D02*
X113951905Y-38439580D01*
X113951905Y-38439580D02*
X113999524Y-38487200D01*
X113999524Y-38487200D02*
X114094762Y-38534819D01*
X114094762Y-38534819D02*
X114285238Y-38534819D01*
X114285238Y-38534819D02*
X114380476Y-38487200D01*
X114380476Y-38487200D02*
X114428095Y-38439580D01*
X114428095Y-38439580D02*
X114475714Y-38344342D01*
X114475714Y-38344342D02*
X114475714Y-38153866D01*
X114475714Y-38153866D02*
X114428095Y-38058628D01*
X114428095Y-38058628D02*
X114380476Y-38011009D01*
X114380476Y-38011009D02*
X114285238Y-37963390D01*
X113333333Y-23804819D02*
X113000000Y-23328628D01*
X112761905Y-23804819D02*
X112761905Y-22804819D01*
X112761905Y-22804819D02*
X113142857Y-22804819D01*
X113142857Y-22804819D02*
X113238095Y-22852438D01*
X113238095Y-22852438D02*
X113285714Y-22900057D01*
X113285714Y-22900057D02*
X113333333Y-22995295D01*
X113333333Y-22995295D02*
X113333333Y-23138152D01*
X113333333Y-23138152D02*
X113285714Y-23233390D01*
X113285714Y-23233390D02*
X113238095Y-23281009D01*
X113238095Y-23281009D02*
X113142857Y-23328628D01*
X113142857Y-23328628D02*
X112761905Y-23328628D01*
X113666667Y-22804819D02*
X114333333Y-22804819D01*
X114333333Y-22804819D02*
X113904762Y-23804819D01*
X93643333Y-38684819D02*
X93310000Y-38208628D01*
X93071905Y-38684819D02*
X93071905Y-37684819D01*
X93071905Y-37684819D02*
X93452857Y-37684819D01*
X93452857Y-37684819D02*
X93548095Y-37732438D01*
X93548095Y-37732438D02*
X93595714Y-37780057D01*
X93595714Y-37780057D02*
X93643333Y-37875295D01*
X93643333Y-37875295D02*
X93643333Y-38018152D01*
X93643333Y-38018152D02*
X93595714Y-38113390D01*
X93595714Y-38113390D02*
X93548095Y-38161009D01*
X93548095Y-38161009D02*
X93452857Y-38208628D01*
X93452857Y-38208628D02*
X93071905Y-38208628D01*
X94548095Y-37684819D02*
X94071905Y-37684819D01*
X94071905Y-37684819D02*
X94024286Y-38161009D01*
X94024286Y-38161009D02*
X94071905Y-38113390D01*
X94071905Y-38113390D02*
X94167143Y-38065771D01*
X94167143Y-38065771D02*
X94405238Y-38065771D01*
X94405238Y-38065771D02*
X94500476Y-38113390D01*
X94500476Y-38113390D02*
X94548095Y-38161009D01*
X94548095Y-38161009D02*
X94595714Y-38256247D01*
X94595714Y-38256247D02*
X94595714Y-38494342D01*
X94595714Y-38494342D02*
X94548095Y-38589580D01*
X94548095Y-38589580D02*
X94500476Y-38637200D01*
X94500476Y-38637200D02*
X94405238Y-38684819D01*
X94405238Y-38684819D02*
X94167143Y-38684819D01*
X94167143Y-38684819D02*
X94071905Y-38637200D01*
X94071905Y-38637200D02*
X94024286Y-38589580D01*
X93333333Y-23804819D02*
X93000000Y-23328628D01*
X92761905Y-23804819D02*
X92761905Y-22804819D01*
X92761905Y-22804819D02*
X93142857Y-22804819D01*
X93142857Y-22804819D02*
X93238095Y-22852438D01*
X93238095Y-22852438D02*
X93285714Y-22900057D01*
X93285714Y-22900057D02*
X93333333Y-22995295D01*
X93333333Y-22995295D02*
X93333333Y-23138152D01*
X93333333Y-23138152D02*
X93285714Y-23233390D01*
X93285714Y-23233390D02*
X93238095Y-23281009D01*
X93238095Y-23281009D02*
X93142857Y-23328628D01*
X93142857Y-23328628D02*
X92761905Y-23328628D01*
X94190476Y-23138152D02*
X94190476Y-23804819D01*
X93952381Y-22757200D02*
X93714286Y-23471485D01*
X93714286Y-23471485D02*
X94333333Y-23471485D01*
X73573333Y-38184819D02*
X73240000Y-37708628D01*
X73001905Y-38184819D02*
X73001905Y-37184819D01*
X73001905Y-37184819D02*
X73382857Y-37184819D01*
X73382857Y-37184819D02*
X73478095Y-37232438D01*
X73478095Y-37232438D02*
X73525714Y-37280057D01*
X73525714Y-37280057D02*
X73573333Y-37375295D01*
X73573333Y-37375295D02*
X73573333Y-37518152D01*
X73573333Y-37518152D02*
X73525714Y-37613390D01*
X73525714Y-37613390D02*
X73478095Y-37661009D01*
X73478095Y-37661009D02*
X73382857Y-37708628D01*
X73382857Y-37708628D02*
X73001905Y-37708628D01*
X73954286Y-37280057D02*
X74001905Y-37232438D01*
X74001905Y-37232438D02*
X74097143Y-37184819D01*
X74097143Y-37184819D02*
X74335238Y-37184819D01*
X74335238Y-37184819D02*
X74430476Y-37232438D01*
X74430476Y-37232438D02*
X74478095Y-37280057D01*
X74478095Y-37280057D02*
X74525714Y-37375295D01*
X74525714Y-37375295D02*
X74525714Y-37470533D01*
X74525714Y-37470533D02*
X74478095Y-37613390D01*
X74478095Y-37613390D02*
X73906667Y-38184819D01*
X73906667Y-38184819D02*
X74525714Y-38184819D01*
X71923095Y-50404819D02*
X71923095Y-49404819D01*
X71923095Y-49881009D02*
X72494523Y-49881009D01*
X72494523Y-50404819D02*
X72494523Y-49404819D01*
X72923095Y-49500057D02*
X72970714Y-49452438D01*
X72970714Y-49452438D02*
X73065952Y-49404819D01*
X73065952Y-49404819D02*
X73304047Y-49404819D01*
X73304047Y-49404819D02*
X73399285Y-49452438D01*
X73399285Y-49452438D02*
X73446904Y-49500057D01*
X73446904Y-49500057D02*
X73494523Y-49595295D01*
X73494523Y-49595295D02*
X73494523Y-49690533D01*
X73494523Y-49690533D02*
X73446904Y-49833390D01*
X73446904Y-49833390D02*
X72875476Y-50404819D01*
X72875476Y-50404819D02*
X73494523Y-50404819D01*
X113923095Y-50404819D02*
X113923095Y-49404819D01*
X113923095Y-49881009D02*
X114494523Y-49881009D01*
X114494523Y-50404819D02*
X114494523Y-49404819D01*
X115494523Y-50404819D02*
X114923095Y-50404819D01*
X115208809Y-50404819D02*
X115208809Y-49404819D01*
X115208809Y-49404819D02*
X115113571Y-49547676D01*
X115113571Y-49547676D02*
X115018333Y-49642914D01*
X115018333Y-49642914D02*
X114923095Y-49690533D01*
D11*
%TO.C,R12*%
X113917064Y-43235000D02*
X113462936Y-43235000D01*
X113917064Y-41765000D02*
X113462936Y-41765000D01*
%TO.C,R11*%
X94037064Y-43735000D02*
X93582936Y-43735000D01*
X94037064Y-42265000D02*
X93582936Y-42265000D01*
%TO.C,R10*%
X73967064Y-43735000D02*
X73512936Y-43735000D01*
X73967064Y-42265000D02*
X73512936Y-42265000D01*
%TO.C,C1*%
X85988748Y-51815000D02*
X86511252Y-51815000D01*
X85988748Y-53285000D02*
X86511252Y-53285000D01*
%TO.C,C2*%
X96840000Y-59211252D02*
X96840000Y-58688748D01*
X98310000Y-59211252D02*
X98310000Y-58688748D01*
%TO.C,R6*%
X91765000Y-58827064D02*
X91765000Y-58372936D01*
X93235000Y-58827064D02*
X93235000Y-58372936D01*
%TO.C,R3*%
X91877064Y-53785000D02*
X91422936Y-53785000D01*
X91877064Y-52315000D02*
X91422936Y-52315000D01*
%TO.C,R9*%
X94065000Y-58827064D02*
X94065000Y-58372936D01*
X95535000Y-58827064D02*
X95535000Y-58372936D01*
%TO.C,R1*%
X73522936Y-25735000D02*
X73977064Y-25735000D01*
X73522936Y-24265000D02*
X73977064Y-24265000D01*
%TO.C,R8*%
X113462936Y-40465000D02*
X113917064Y-40465000D01*
X113462936Y-38995000D02*
X113917064Y-38995000D01*
%TO.C,R7*%
X113272936Y-24265000D02*
X113727064Y-24265000D01*
X113272936Y-25735000D02*
X113727064Y-25735000D01*
%TO.C,R5*%
X93582936Y-40615000D02*
X94037064Y-40615000D01*
X93582936Y-39145000D02*
X94037064Y-39145000D01*
%TO.C,R4*%
X93272936Y-24265000D02*
X93727064Y-24265000D01*
X93272936Y-25735000D02*
X93727064Y-25735000D01*
%TO.C,R2*%
X73512936Y-40115000D02*
X73967064Y-40115000D01*
X73512936Y-38645000D02*
X73967064Y-38645000D01*
%TD*%
M02*
