%TF.GenerationSoftware,KiCad,Pcbnew,9.0.4*%
%TF.CreationDate,2026-03-05T01:51:45+00:00*%
%TF.ProjectId,Slip Ring Stactic Contacts V2,536c6970-2052-4696-9e67-205374616374,rev?*%
%TF.SameCoordinates,Original*%
%TF.FileFunction,Copper,L2,Bot*%
%TF.FilePolarity,Positive*%
%FSLAX46Y46*%
G04 Gerber Fmt 4.6, Leading zero omitted, Abs format (unit mm)*
G04 Created by KiCad (PCBNEW 9.0.4) date 2026-03-05 01:51:45*
%MOMM*%
%LPD*%
G01*
G04 APERTURE LIST*
G04 Aperture macros list*
%AMRoundRect*
0 Rectangle with rounded corners*
0 $1 Rounding radius*
0 $2 $3 $4 $5 $6 $7 $8 $9 X,Y pos of 4 corners*
0 Add a 4 corners polygon primitive as box body*
4,1,4,$2,$3,$4,$5,$6,$7,$8,$9,$2,$3,0*
0 Add four circle primitives for the rounded corners*
1,1,$1+$1,$2,$3*
1,1,$1+$1,$4,$5*
1,1,$1+$1,$6,$7*
1,1,$1+$1,$8,$9*
0 Add four rect primitives between the rounded corners*
20,1,$1+$1,$2,$3,$4,$5,0*
20,1,$1+$1,$4,$5,$6,$7,0*
20,1,$1+$1,$6,$7,$8,$9,0*
20,1,$1+$1,$8,$9,$2,$3,0*%
G04 Aperture macros list end*
%ADD10C,0.300000*%
%ADD11C,0.250000*%
%TA.AperFunction,ComponentPad*%
%ADD12RoundRect,0.250000X-0.845000X0.620000X-0.845000X-0.620000X0.845000X-0.620000X0.845000X0.620000X0*%
%TD*%
%TA.AperFunction,ComponentPad*%
%ADD13O,2.190000X1.740000*%
%TD*%
%TA.AperFunction,ComponentPad*%
%ADD14R,1.700000X1.700000*%
%TD*%
%TA.AperFunction,ComponentPad*%
%ADD15C,1.700000*%
%TD*%
%TA.AperFunction,ViaPad*%
%ADD16C,2.000000*%
%TD*%
%TA.AperFunction,Conductor*%
%ADD17C,0.600000*%
%TD*%
G04 APERTURE END LIST*
D10*
G36*
X57339716Y-39863392D02*
G01*
X57448149Y-39971825D01*
X57564284Y-40204095D01*
X57564284Y-40990418D01*
X57448148Y-41222688D01*
X57339715Y-41331122D01*
X57107445Y-41447257D01*
X56606837Y-41447257D01*
X56435713Y-41361695D01*
X56435713Y-39832819D01*
X56606837Y-39747257D01*
X57107445Y-39747257D01*
X57339716Y-39863392D01*
G37*
G36*
X59218630Y-40588564D02*
G01*
X59246094Y-40599073D01*
X59251468Y-40599454D01*
X59256449Y-40601518D01*
X59285713Y-40604400D01*
X59964589Y-40604400D01*
X60173909Y-40709060D01*
X60278570Y-40918381D01*
X60278570Y-41133275D01*
X60173909Y-41342596D01*
X59964589Y-41447257D01*
X59321123Y-41447257D01*
X59149999Y-41361695D01*
X59149999Y-40554248D01*
X59218630Y-40588564D01*
G37*
G36*
X61932916Y-40588564D02*
G01*
X61960380Y-40599073D01*
X61965754Y-40599454D01*
X61970735Y-40601518D01*
X61999999Y-40604400D01*
X62678875Y-40604400D01*
X62888195Y-40709060D01*
X62992856Y-40918381D01*
X62992856Y-41133275D01*
X62888195Y-41342596D01*
X62678875Y-41447257D01*
X62035409Y-41447257D01*
X61864285Y-41361695D01*
X61864285Y-40554248D01*
X61932916Y-40588564D01*
G37*
G36*
X52506170Y-40590114D02*
G01*
X51493826Y-40590114D01*
X51999998Y-39071598D01*
X52506170Y-40590114D01*
G37*
G36*
X66483332Y-42080590D02*
G01*
X44374253Y-42080590D01*
X44374253Y-39608783D01*
X44707586Y-39608783D01*
X44710024Y-39617482D01*
X44710024Y-39626521D01*
X44717856Y-39645429D01*
X44723380Y-39665139D01*
X44730910Y-39676944D01*
X44732422Y-39680593D01*
X44734675Y-39682846D01*
X44739194Y-39689930D01*
X46119950Y-41447257D01*
X44857142Y-41447257D01*
X44827878Y-41450139D01*
X44773806Y-41472537D01*
X44732422Y-41513921D01*
X44710024Y-41567993D01*
X44710024Y-41626521D01*
X44732422Y-41680593D01*
X44773806Y-41721977D01*
X44827878Y-41744375D01*
X44857142Y-41747257D01*
X46428570Y-41747257D01*
X46436928Y-41746433D01*
X46440096Y-41746814D01*
X46443903Y-41745746D01*
X46457834Y-41744375D01*
X46476739Y-41736543D01*
X46496452Y-41731019D01*
X46503560Y-41725434D01*
X46511906Y-41721977D01*
X46526374Y-41707508D01*
X46542474Y-41694859D01*
X46546902Y-41686980D01*
X46553290Y-41680593D01*
X46561122Y-41661683D01*
X46571153Y-41643840D01*
X46572229Y-41634870D01*
X46575688Y-41626521D01*
X46575688Y-41606053D01*
X46578127Y-41585731D01*
X46575688Y-41577028D01*
X46575688Y-41567993D01*
X46567856Y-41549087D01*
X46562332Y-41529375D01*
X46554801Y-41517569D01*
X46553290Y-41513921D01*
X46551036Y-41511667D01*
X46546518Y-41504584D01*
X45165762Y-39747257D01*
X46428570Y-39747257D01*
X46457834Y-39744375D01*
X46511906Y-39721977D01*
X46553290Y-39680593D01*
X46575688Y-39626521D01*
X46575688Y-39597257D01*
X47421427Y-39597257D01*
X47421427Y-41597257D01*
X47424309Y-41626521D01*
X47446707Y-41680593D01*
X47488091Y-41721977D01*
X47542163Y-41744375D01*
X47600691Y-41744375D01*
X47654763Y-41721977D01*
X47696147Y-41680593D01*
X47718545Y-41626521D01*
X47721427Y-41597257D01*
X47721427Y-39608783D01*
X48564728Y-39608783D01*
X48567166Y-39617482D01*
X48567166Y-39626521D01*
X48574998Y-39645429D01*
X48580522Y-39665139D01*
X48588052Y-39676944D01*
X48589564Y-39680593D01*
X48591817Y-39682846D01*
X48596336Y-39689930D01*
X49977092Y-41447257D01*
X48714284Y-41447257D01*
X48685020Y-41450139D01*
X48630948Y-41472537D01*
X48589564Y-41513921D01*
X48567166Y-41567993D01*
X48567166Y-41626521D01*
X48589564Y-41680593D01*
X48630948Y-41721977D01*
X48685020Y-41744375D01*
X48714284Y-41747257D01*
X50285712Y-41747257D01*
X50294070Y-41746433D01*
X50297238Y-41746814D01*
X50301045Y-41745746D01*
X50314976Y-41744375D01*
X50333881Y-41736543D01*
X50353594Y-41731019D01*
X50360702Y-41725434D01*
X50369048Y-41721977D01*
X50383516Y-41707508D01*
X50399616Y-41694859D01*
X50404044Y-41686980D01*
X50410432Y-41680593D01*
X50418264Y-41661683D01*
X50428295Y-41643840D01*
X50429371Y-41634870D01*
X50432830Y-41626521D01*
X50432830Y-41606053D01*
X50435269Y-41585731D01*
X50433241Y-41578496D01*
X50851176Y-41578496D01*
X50855325Y-41636877D01*
X50881499Y-41689224D01*
X50925713Y-41727571D01*
X50981237Y-41746079D01*
X51039618Y-41741930D01*
X51091965Y-41715756D01*
X51130312Y-41671542D01*
X51142300Y-41644691D01*
X51393826Y-40890114D01*
X52606170Y-40890114D01*
X52857696Y-41644691D01*
X52869684Y-41671542D01*
X52908031Y-41715757D01*
X52960379Y-41741930D01*
X53018759Y-41746080D01*
X53074283Y-41727572D01*
X53118498Y-41689224D01*
X53144671Y-41636877D01*
X53148821Y-41578497D01*
X53142301Y-41549823D01*
X52158111Y-38597257D01*
X56135713Y-38597257D01*
X56135713Y-41597257D01*
X56138595Y-41626521D01*
X56160993Y-41680593D01*
X56202377Y-41721977D01*
X56256449Y-41744375D01*
X56314977Y-41744375D01*
X56369049Y-41721977D01*
X56407851Y-41683174D01*
X56504345Y-41731421D01*
X56531808Y-41741931D01*
X56537185Y-41742313D01*
X56542163Y-41744375D01*
X56571427Y-41747257D01*
X57142855Y-41747257D01*
X57172119Y-41744375D01*
X57177097Y-41742312D01*
X57182473Y-41741931D01*
X57209937Y-41731421D01*
X57495652Y-41588564D01*
X57508243Y-41580637D01*
X57511906Y-41579121D01*
X57516028Y-41575737D01*
X57520538Y-41572899D01*
X57523133Y-41569906D01*
X57534636Y-41560466D01*
X57677493Y-41417608D01*
X57686932Y-41406106D01*
X57689926Y-41403510D01*
X57692766Y-41398996D01*
X57696148Y-41394877D01*
X57697663Y-41391217D01*
X57705591Y-41378624D01*
X57848448Y-41092910D01*
X57858958Y-41065447D01*
X57859340Y-41060069D01*
X57861402Y-41055092D01*
X57864284Y-41025828D01*
X57864284Y-40168685D01*
X57861402Y-40139421D01*
X57859340Y-40134443D01*
X57858958Y-40129066D01*
X57848448Y-40101603D01*
X57810560Y-40025828D01*
X58849999Y-40025828D01*
X58849999Y-41597257D01*
X58852881Y-41626521D01*
X58875279Y-41680593D01*
X58916663Y-41721977D01*
X58970735Y-41744375D01*
X59029263Y-41744375D01*
X59083335Y-41721977D01*
X59122137Y-41683174D01*
X59218631Y-41731421D01*
X59246094Y-41741931D01*
X59251471Y-41742313D01*
X59256449Y-41744375D01*
X59285713Y-41747257D01*
X59999999Y-41747257D01*
X60029263Y-41744375D01*
X60034240Y-41742313D01*
X60039618Y-41741931D01*
X60067081Y-41731421D01*
X60352795Y-41588564D01*
X60357689Y-41585483D01*
X60359997Y-41584714D01*
X60362871Y-41582221D01*
X60377681Y-41572899D01*
X60390003Y-41558690D01*
X60404212Y-41546368D01*
X60413534Y-41531558D01*
X60416027Y-41528684D01*
X60416796Y-41526376D01*
X60419877Y-41521482D01*
X60562734Y-41235767D01*
X60573244Y-41208303D01*
X60573625Y-41202927D01*
X60575688Y-41197949D01*
X60578570Y-41168685D01*
X60578570Y-40882971D01*
X60575688Y-40853707D01*
X60573626Y-40848729D01*
X60573244Y-40843352D01*
X60562734Y-40815889D01*
X60419877Y-40530175D01*
X60416796Y-40525280D01*
X60416027Y-40522973D01*
X60413534Y-40520098D01*
X60404212Y-40505289D01*
X60390003Y-40492966D01*
X60377681Y-40478758D01*
X60362871Y-40469435D01*
X60359997Y-40466943D01*
X60357689Y-40466173D01*
X60352795Y-40463093D01*
X60067081Y-40320236D01*
X60039618Y-40309726D01*
X60034240Y-40309343D01*
X60029263Y-40307282D01*
X59999999Y-40304400D01*
X59321123Y-40304400D01*
X59149999Y-40218837D01*
X59149999Y-40061238D01*
X59167704Y-40025828D01*
X61564285Y-40025828D01*
X61564285Y-41597257D01*
X61567167Y-41626521D01*
X61589565Y-41680593D01*
X61630949Y-41721977D01*
X61685021Y-41744375D01*
X61743549Y-41744375D01*
X61797621Y-41721977D01*
X61836423Y-41683174D01*
X61932917Y-41731421D01*
X61960380Y-41741931D01*
X61965757Y-41742313D01*
X61970735Y-41744375D01*
X61999999Y-41747257D01*
X62714285Y-41747257D01*
X62743549Y-41744375D01*
X62748526Y-41742313D01*
X62753904Y-41741931D01*
X62781367Y-41731421D01*
X63067081Y-41588564D01*
X63071975Y-41585483D01*
X63074283Y-41584714D01*
X63077157Y-41582221D01*
X63091967Y-41572899D01*
X63104289Y-41558690D01*
X63118498Y-41546368D01*
X63127820Y-41531558D01*
X63130313Y-41528684D01*
X63131082Y-41526376D01*
X63134163Y-41521482D01*
X63277020Y-41235767D01*
X63287530Y-41208303D01*
X63287911Y-41202927D01*
X63289974Y-41197949D01*
X63292856Y-41168685D01*
X63292856Y-40882971D01*
X63289974Y-40853707D01*
X63287912Y-40848729D01*
X63287530Y-40843352D01*
X63277020Y-40815889D01*
X63239132Y-40740114D01*
X64135713Y-40740114D01*
X64135713Y-41025828D01*
X64138595Y-41055092D01*
X64140656Y-41060069D01*
X64141039Y-41065447D01*
X64151549Y-41092910D01*
X64294406Y-41378624D01*
X64302333Y-41391217D01*
X64303849Y-41394877D01*
X64307230Y-41398996D01*
X64310071Y-41403510D01*
X64313064Y-41406106D01*
X64322504Y-41417608D01*
X64465362Y-41560466D01*
X64476863Y-41569905D01*
X64479460Y-41572899D01*
X64483973Y-41575739D01*
X64488093Y-41579121D01*
X64491752Y-41580636D01*
X64504346Y-41588564D01*
X64790060Y-41731421D01*
X64817523Y-41741931D01*
X64822900Y-41742313D01*
X64827878Y-41744375D01*
X64857142Y-41747257D01*
X65571428Y-41747257D01*
X65586239Y-41745798D01*
X65590189Y-41746079D01*
X65595383Y-41744897D01*
X65600692Y-41744375D01*
X65604354Y-41742857D01*
X65618862Y-41739559D01*
X66047433Y-41596703D01*
X66074284Y-41584714D01*
X66118498Y-41546367D01*
X66144671Y-41494020D01*
X66148821Y-41435640D01*
X66130313Y-41380115D01*
X66091965Y-41335901D01*
X66039618Y-41309727D01*
X65981238Y-41305578D01*
X65952564Y-41312098D01*
X65547088Y-41447257D01*
X64892552Y-41447257D01*
X64660282Y-41331122D01*
X64551848Y-41222688D01*
X64435713Y-40990418D01*
X64435713Y-40775524D01*
X64551848Y-40543254D01*
X64660282Y-40434820D01*
X64909497Y-40310212D01*
X65464951Y-40171349D01*
X65467106Y-40170578D01*
X65468188Y-40170502D01*
X65480362Y-40165842D01*
X65492642Y-40161456D01*
X65493513Y-40160810D01*
X65495652Y-40159992D01*
X65781367Y-40017135D01*
X65793960Y-40009207D01*
X65797620Y-40007692D01*
X65801739Y-40004310D01*
X65806253Y-40001470D01*
X65808849Y-39998476D01*
X65820351Y-39989037D01*
X65963208Y-39846180D01*
X65972648Y-39834677D01*
X65975641Y-39832082D01*
X65978479Y-39827572D01*
X65981863Y-39823450D01*
X65983379Y-39819787D01*
X65991306Y-39807196D01*
X66134163Y-39521482D01*
X66144673Y-39494019D01*
X66145055Y-39488641D01*
X66147117Y-39483664D01*
X66149999Y-39454400D01*
X66149999Y-39168685D01*
X66147117Y-39139421D01*
X66145055Y-39134443D01*
X66144673Y-39129066D01*
X66134163Y-39101603D01*
X65991306Y-38815889D01*
X65983379Y-38803297D01*
X65981863Y-38799635D01*
X65978479Y-38795512D01*
X65975641Y-38791003D01*
X65972648Y-38788407D01*
X65963208Y-38776905D01*
X65820351Y-38634048D01*
X65808849Y-38624608D01*
X65806253Y-38621615D01*
X65801739Y-38618774D01*
X65797620Y-38615393D01*
X65793960Y-38613877D01*
X65781367Y-38605950D01*
X65495652Y-38463093D01*
X65468188Y-38452583D01*
X65462812Y-38452201D01*
X65457834Y-38450139D01*
X65428570Y-38447257D01*
X64714285Y-38447257D01*
X64699473Y-38448715D01*
X64695524Y-38448435D01*
X64690329Y-38449616D01*
X64685021Y-38450139D01*
X64681358Y-38451656D01*
X64666851Y-38454955D01*
X64238279Y-38597811D01*
X64211428Y-38609800D01*
X64167214Y-38648147D01*
X64141040Y-38700494D01*
X64136891Y-38758874D01*
X64155399Y-38814399D01*
X64193746Y-38858613D01*
X64246093Y-38884787D01*
X64304473Y-38888936D01*
X64333147Y-38882417D01*
X64738628Y-38747257D01*
X65393160Y-38747257D01*
X65625431Y-38863392D01*
X65733864Y-38971825D01*
X65849999Y-39204095D01*
X65849999Y-39418990D01*
X65733864Y-39651260D01*
X65625431Y-39759692D01*
X65376214Y-39884300D01*
X64820762Y-40023164D01*
X64818606Y-40023934D01*
X64817523Y-40024011D01*
X64805334Y-40028675D01*
X64793070Y-40033057D01*
X64792198Y-40033702D01*
X64790060Y-40034521D01*
X64504346Y-40177378D01*
X64491752Y-40185305D01*
X64488093Y-40186821D01*
X64483973Y-40190202D01*
X64479460Y-40193043D01*
X64476863Y-40196036D01*
X64465362Y-40205476D01*
X64322504Y-40348334D01*
X64313064Y-40359835D01*
X64310071Y-40362432D01*
X64307230Y-40366945D01*
X64303849Y-40371065D01*
X64302333Y-40374724D01*
X64294406Y-40387318D01*
X64151549Y-40673032D01*
X64141039Y-40700495D01*
X64140656Y-40705872D01*
X64138595Y-40710850D01*
X64135713Y-40740114D01*
X63239132Y-40740114D01*
X63134163Y-40530175D01*
X63131082Y-40525280D01*
X63130313Y-40522973D01*
X63127820Y-40520098D01*
X63118498Y-40505289D01*
X63104289Y-40492966D01*
X63091967Y-40478758D01*
X63077157Y-40469435D01*
X63074283Y-40466943D01*
X63071975Y-40466173D01*
X63067081Y-40463093D01*
X62781367Y-40320236D01*
X62753904Y-40309726D01*
X62748526Y-40309343D01*
X62743549Y-40307282D01*
X62714285Y-40304400D01*
X62035409Y-40304400D01*
X61864285Y-40218837D01*
X61864285Y-40061238D01*
X61968945Y-39851917D01*
X62178266Y-39747257D01*
X62678875Y-39747257D01*
X62932917Y-39874278D01*
X62960380Y-39884788D01*
X63018761Y-39888936D01*
X63074283Y-39870428D01*
X63118498Y-39832082D01*
X63144673Y-39779733D01*
X63148821Y-39721353D01*
X63130313Y-39665830D01*
X63091967Y-39621615D01*
X63067081Y-39605950D01*
X62781367Y-39463093D01*
X62753904Y-39452583D01*
X62748526Y-39452200D01*
X62743549Y-39450139D01*
X62714285Y-39447257D01*
X62142856Y-39447257D01*
X62113592Y-39450139D01*
X62108614Y-39452200D01*
X62103237Y-39452583D01*
X62075774Y-39463093D01*
X61790060Y-39605950D01*
X61785165Y-39609030D01*
X61782858Y-39609800D01*
X61779983Y-39612292D01*
X61765174Y-39621615D01*
X61752851Y-39635823D01*
X61738643Y-39648146D01*
X61729320Y-39662955D01*
X61726828Y-39665830D01*
X61726058Y-39668137D01*
X61722978Y-39673032D01*
X61580121Y-39958746D01*
X61569611Y-39986209D01*
X61569228Y-39991586D01*
X61567167Y-39996564D01*
X61564285Y-40025828D01*
X59167704Y-40025828D01*
X59254659Y-39851917D01*
X59463980Y-39747257D01*
X59964589Y-39747257D01*
X60218631Y-39874278D01*
X60246094Y-39884788D01*
X60304475Y-39888936D01*
X60359997Y-39870428D01*
X60404212Y-39832082D01*
X60430387Y-39779733D01*
X60434535Y-39721353D01*
X60416027Y-39665830D01*
X60377681Y-39621615D01*
X60352795Y-39605950D01*
X60067081Y-39463093D01*
X60039618Y-39452583D01*
X60034240Y-39452200D01*
X60029263Y-39450139D01*
X59999999Y-39447257D01*
X59428570Y-39447257D01*
X59399306Y-39450139D01*
X59394328Y-39452200D01*
X59388951Y-39452583D01*
X59361488Y-39463093D01*
X59075774Y-39605950D01*
X59070879Y-39609030D01*
X59068572Y-39609800D01*
X59065697Y-39612292D01*
X59050888Y-39621615D01*
X59038565Y-39635823D01*
X59024357Y-39648146D01*
X59015034Y-39662955D01*
X59012542Y-39665830D01*
X59011772Y-39668137D01*
X59008692Y-39673032D01*
X58865835Y-39958746D01*
X58855325Y-39986209D01*
X58854942Y-39991586D01*
X58852881Y-39996564D01*
X58849999Y-40025828D01*
X57810560Y-40025828D01*
X57705591Y-39815889D01*
X57697664Y-39803297D01*
X57696148Y-39799635D01*
X57692764Y-39795512D01*
X57689926Y-39791003D01*
X57686933Y-39788407D01*
X57677493Y-39776905D01*
X57534636Y-39634048D01*
X57523134Y-39624608D01*
X57520538Y-39621615D01*
X57516024Y-39618774D01*
X57511905Y-39615393D01*
X57508245Y-39613877D01*
X57495652Y-39605950D01*
X57209937Y-39463093D01*
X57182473Y-39452583D01*
X57177097Y-39452201D01*
X57172119Y-39450139D01*
X57142855Y-39447257D01*
X56571427Y-39447257D01*
X56542163Y-39450139D01*
X56537185Y-39452200D01*
X56531808Y-39452583D01*
X56504345Y-39463093D01*
X56435713Y-39497409D01*
X56435713Y-38597257D01*
X56432831Y-38567993D01*
X56410433Y-38513921D01*
X56369049Y-38472537D01*
X56314977Y-38450139D01*
X56256449Y-38450139D01*
X56202377Y-38472537D01*
X56160993Y-38513921D01*
X56138595Y-38567993D01*
X56135713Y-38597257D01*
X52158111Y-38597257D01*
X52142300Y-38549823D01*
X52130312Y-38522972D01*
X52123291Y-38514877D01*
X52118498Y-38505290D01*
X52104285Y-38492963D01*
X52091965Y-38478758D01*
X52082382Y-38473966D01*
X52074283Y-38466942D01*
X52056435Y-38460992D01*
X52039618Y-38452584D01*
X52028930Y-38451824D01*
X52018759Y-38448434D01*
X51999993Y-38449767D01*
X51981237Y-38448435D01*
X51971069Y-38451824D01*
X51960379Y-38452584D01*
X51943555Y-38460995D01*
X51925713Y-38466943D01*
X51917618Y-38473963D01*
X51908031Y-38478757D01*
X51895705Y-38492968D01*
X51881499Y-38505290D01*
X51876706Y-38514874D01*
X51869684Y-38522972D01*
X51857696Y-38549823D01*
X50857696Y-41549823D01*
X50851176Y-41578496D01*
X50433241Y-41578496D01*
X50432830Y-41577028D01*
X50432830Y-41567993D01*
X50424998Y-41549087D01*
X50419474Y-41529375D01*
X50411943Y-41517569D01*
X50410432Y-41513921D01*
X50408178Y-41511667D01*
X50403660Y-41504584D01*
X49022904Y-39747257D01*
X50285712Y-39747257D01*
X50314976Y-39744375D01*
X50369048Y-39721977D01*
X50410432Y-39680593D01*
X50432830Y-39626521D01*
X50432830Y-39567993D01*
X50410432Y-39513921D01*
X50369048Y-39472537D01*
X50314976Y-39450139D01*
X50285712Y-39447257D01*
X48714284Y-39447257D01*
X48705921Y-39448080D01*
X48702758Y-39447701D01*
X48698955Y-39448766D01*
X48685020Y-39450139D01*
X48666111Y-39457971D01*
X48646402Y-39463495D01*
X48639294Y-39469079D01*
X48630948Y-39472537D01*
X48616477Y-39487007D01*
X48600381Y-39499655D01*
X48595952Y-39507532D01*
X48589564Y-39513921D01*
X48581730Y-39532833D01*
X48571701Y-39550674D01*
X48570624Y-39559643D01*
X48567166Y-39567993D01*
X48567166Y-39588466D01*
X48564728Y-39608783D01*
X47721427Y-39608783D01*
X47721427Y-39597257D01*
X47718545Y-39567993D01*
X47696147Y-39513921D01*
X47654763Y-39472537D01*
X47600691Y-39450139D01*
X47542163Y-39450139D01*
X47488091Y-39472537D01*
X47446707Y-39513921D01*
X47424309Y-39567993D01*
X47421427Y-39597257D01*
X46575688Y-39597257D01*
X46575688Y-39567993D01*
X46553290Y-39513921D01*
X46511906Y-39472537D01*
X46457834Y-39450139D01*
X46428570Y-39447257D01*
X44857142Y-39447257D01*
X44848779Y-39448080D01*
X44845616Y-39447701D01*
X44841813Y-39448766D01*
X44827878Y-39450139D01*
X44808969Y-39457971D01*
X44789260Y-39463495D01*
X44782152Y-39469079D01*
X44773806Y-39472537D01*
X44759335Y-39487007D01*
X44743239Y-39499655D01*
X44738810Y-39507532D01*
X44732422Y-39513921D01*
X44724588Y-39532833D01*
X44714559Y-39550674D01*
X44713482Y-39559643D01*
X44710024Y-39567993D01*
X44710024Y-39588466D01*
X44707586Y-39608783D01*
X44374253Y-39608783D01*
X44374253Y-38710851D01*
X47281452Y-38710851D01*
X47281452Y-38769377D01*
X47303849Y-38823449D01*
X47322504Y-38846180D01*
X47465361Y-38989037D01*
X47488091Y-39007692D01*
X47526326Y-39023528D01*
X47542163Y-39030089D01*
X47542164Y-39030089D01*
X47600690Y-39030089D01*
X47600691Y-39030089D01*
X47623088Y-39020811D01*
X47654762Y-39007692D01*
X47654763Y-39007691D01*
X47677493Y-38989037D01*
X47820350Y-38846180D01*
X47839005Y-38823450D01*
X47861402Y-38769377D01*
X47861402Y-38710851D01*
X47839005Y-38656779D01*
X47839005Y-38656778D01*
X47820350Y-38634048D01*
X47677493Y-38491191D01*
X47654762Y-38472536D01*
X47623088Y-38459416D01*
X47600691Y-38450139D01*
X47542163Y-38450139D01*
X47526326Y-38456699D01*
X47488091Y-38472536D01*
X47465361Y-38491191D01*
X47322504Y-38634048D01*
X47303850Y-38656778D01*
X47303849Y-38656779D01*
X47281452Y-38710851D01*
X44374253Y-38710851D01*
X44374253Y-38113924D01*
X66483332Y-38113924D01*
X66483332Y-42080590D01*
G37*
D11*
G36*
X45467907Y-23482137D02*
G01*
X45490792Y-23490894D01*
X45495273Y-23491212D01*
X45499422Y-23492931D01*
X45523808Y-23495333D01*
X45970491Y-23495333D01*
X46097305Y-23558740D01*
X46160713Y-23685555D01*
X46160713Y-23817015D01*
X46097305Y-23943830D01*
X45970491Y-24007238D01*
X45553316Y-24007238D01*
X45458332Y-23959746D01*
X45458332Y-23477349D01*
X45467907Y-23482137D01*
G37*
G36*
X50783098Y-22996874D02*
G01*
X50849647Y-23063423D01*
X50922618Y-23209365D01*
X50922618Y-23721777D01*
X50849648Y-23867715D01*
X50783096Y-23934268D01*
X50637158Y-24007238D01*
X50410459Y-24007238D01*
X50264521Y-23934269D01*
X50197969Y-23867716D01*
X50124999Y-23721776D01*
X50124999Y-23209365D01*
X50197970Y-23063422D01*
X50264519Y-22996874D01*
X50410459Y-22923904D01*
X50637158Y-22923904D01*
X50783098Y-22996874D01*
G37*
G36*
X59372670Y-23482137D02*
G01*
X59395555Y-23490894D01*
X59400036Y-23491212D01*
X59404185Y-23492931D01*
X59428571Y-23495333D01*
X59875254Y-23495333D01*
X60002068Y-23558740D01*
X60065476Y-23685555D01*
X60065476Y-23817015D01*
X60002068Y-23943830D01*
X59875254Y-24007238D01*
X59458079Y-24007238D01*
X59363095Y-23959746D01*
X59363095Y-23477349D01*
X59372670Y-23482137D01*
G37*
G36*
X41354526Y-19776986D02*
G01*
X41421075Y-19843535D01*
X41494046Y-19989477D01*
X41494046Y-20501889D01*
X41421076Y-20647827D01*
X41354524Y-20714380D01*
X41208586Y-20787350D01*
X40886649Y-20787350D01*
X40791665Y-20739858D01*
X40791665Y-19751508D01*
X40886649Y-19704016D01*
X41208586Y-19704016D01*
X41354526Y-19776986D01*
G37*
G36*
X49494047Y-19751508D02*
G01*
X49494047Y-20739857D01*
X49399063Y-20787350D01*
X49077126Y-20787350D01*
X48931188Y-20714381D01*
X48864636Y-20647828D01*
X48791666Y-20501888D01*
X48791666Y-19989477D01*
X48864637Y-19843534D01*
X48931186Y-19776986D01*
X49077126Y-19704016D01*
X49399063Y-19704016D01*
X49494047Y-19751508D01*
G37*
G36*
X60636905Y-20787350D02*
G01*
X60305998Y-20787350D01*
X60067522Y-20707858D01*
X59912256Y-20552590D01*
X59832226Y-20392531D01*
X59744048Y-20039818D01*
X59744048Y-19784881D01*
X59832226Y-19432167D01*
X59912256Y-19272107D01*
X60067523Y-19116841D01*
X60305998Y-19037350D01*
X60636905Y-19037350D01*
X60636905Y-20787350D01*
G37*
G36*
X46160713Y-19834969D02*
G01*
X45553316Y-19834969D01*
X45407378Y-19762000D01*
X45340826Y-19695447D01*
X45267856Y-19549507D01*
X45267856Y-19322810D01*
X45340826Y-19176869D01*
X45407376Y-19110320D01*
X45553316Y-19037350D01*
X46160713Y-19037350D01*
X46160713Y-19834969D01*
G37*
G36*
X56922619Y-19834969D02*
G01*
X56315222Y-19834969D01*
X56169284Y-19762000D01*
X56102732Y-19695447D01*
X56029762Y-19549507D01*
X56029762Y-19322810D01*
X56102732Y-19176869D01*
X56169282Y-19110320D01*
X56315222Y-19037350D01*
X56922619Y-19037350D01*
X56922619Y-19834969D01*
G37*
G36*
X58683715Y-20215921D02*
G01*
X58078190Y-20215921D01*
X58380953Y-19307633D01*
X58683715Y-20215921D01*
G37*
G36*
X63680556Y-24479460D02*
G01*
X40319443Y-24479460D01*
X40319443Y-23751285D01*
X40636903Y-23751285D01*
X40636903Y-23846523D01*
X40639305Y-23870909D01*
X40641023Y-23875057D01*
X40641342Y-23879539D01*
X40650099Y-23902424D01*
X40745338Y-24092902D01*
X40747904Y-24096978D01*
X40748546Y-24098904D01*
X40750625Y-24101302D01*
X40758392Y-24113639D01*
X40770232Y-24123908D01*
X40780502Y-24135749D01*
X40792839Y-24143515D01*
X40795237Y-24145595D01*
X40797161Y-24146236D01*
X40801240Y-24148804D01*
X40991717Y-24244042D01*
X41014603Y-24252799D01*
X41019082Y-24253117D01*
X41023232Y-24254836D01*
X41047618Y-24257238D01*
X41428570Y-24257238D01*
X41452956Y-24254836D01*
X41457104Y-24253117D01*
X41461586Y-24252799D01*
X41484472Y-24244041D01*
X41674948Y-24148803D01*
X41695685Y-24135749D01*
X41727641Y-24098904D01*
X41743065Y-24052634D01*
X41739607Y-24003984D01*
X41717796Y-23960361D01*
X41680951Y-23928405D01*
X41634680Y-23912981D01*
X41586030Y-23916439D01*
X41563145Y-23925196D01*
X41399062Y-24007238D01*
X41077126Y-24007238D01*
X40950310Y-23943830D01*
X40886903Y-23817014D01*
X40886903Y-23780793D01*
X40950310Y-23653978D01*
X41077126Y-23590571D01*
X41333332Y-23590571D01*
X41357718Y-23588169D01*
X41361866Y-23586450D01*
X41366348Y-23586132D01*
X41389234Y-23577374D01*
X41579710Y-23482136D01*
X41583786Y-23479569D01*
X41585712Y-23478928D01*
X41588110Y-23476848D01*
X41600447Y-23469082D01*
X41610716Y-23457241D01*
X41622557Y-23446972D01*
X41630323Y-23434635D01*
X41632403Y-23432237D01*
X41633044Y-23430311D01*
X41635611Y-23426235D01*
X41730850Y-23235758D01*
X41739607Y-23212873D01*
X41739925Y-23208391D01*
X41741644Y-23204243D01*
X41744046Y-23179857D01*
X41744046Y-23084619D01*
X41741644Y-23060233D01*
X41739925Y-23056083D01*
X41739607Y-23051604D01*
X41730850Y-23028718D01*
X41635612Y-22838241D01*
X41633044Y-22834162D01*
X41632403Y-22832238D01*
X41630323Y-22829840D01*
X41622557Y-22817503D01*
X41610716Y-22807233D01*
X41600447Y-22795393D01*
X41588110Y-22787626D01*
X41585712Y-22785547D01*
X41583786Y-22784905D01*
X41579710Y-22782339D01*
X41564068Y-22774518D01*
X42067877Y-22774518D01*
X42067877Y-22823290D01*
X42086541Y-22868350D01*
X42121029Y-22902838D01*
X42166089Y-22921502D01*
X42190475Y-22923904D01*
X42541665Y-22923904D01*
X42541665Y-23817015D01*
X42478257Y-23943830D01*
X42351443Y-24007238D01*
X42190475Y-24007238D01*
X42166089Y-24009640D01*
X42121029Y-24028304D01*
X42086541Y-24062792D01*
X42067877Y-24107852D01*
X42067877Y-24156624D01*
X42086541Y-24201684D01*
X42121029Y-24236172D01*
X42166089Y-24254836D01*
X42190475Y-24257238D01*
X42380951Y-24257238D01*
X42405337Y-24254836D01*
X42409485Y-24253117D01*
X42413967Y-24252799D01*
X42436853Y-24244041D01*
X42627329Y-24148803D01*
X42631405Y-24146236D01*
X42633331Y-24145595D01*
X42635729Y-24143515D01*
X42648066Y-24135749D01*
X42658335Y-24123908D01*
X42670176Y-24113639D01*
X42677942Y-24101301D01*
X42680022Y-24098904D01*
X42680663Y-24096979D01*
X42683231Y-24092901D01*
X42778469Y-23902424D01*
X42787226Y-23879538D01*
X42787544Y-23875058D01*
X42789263Y-23870909D01*
X42791665Y-23846523D01*
X42791665Y-22923904D01*
X42952379Y-22923904D01*
X42976765Y-22921502D01*
X43021825Y-22902838D01*
X43046155Y-22878508D01*
X43399789Y-22878508D01*
X43403247Y-22927158D01*
X43425059Y-22970781D01*
X43461904Y-23002737D01*
X43508174Y-23018161D01*
X43556824Y-23014703D01*
X43579710Y-23005945D01*
X43743792Y-22923904D01*
X44065729Y-22923904D01*
X44211669Y-22996874D01*
X44278218Y-23063423D01*
X44351189Y-23209365D01*
X44351189Y-23721777D01*
X44278219Y-23867715D01*
X44211667Y-23934268D01*
X44065729Y-24007238D01*
X43743792Y-24007238D01*
X43579710Y-23925197D01*
X43556824Y-23916439D01*
X43508174Y-23912981D01*
X43461904Y-23928405D01*
X43425059Y-23960361D01*
X43403247Y-24003984D01*
X43399789Y-24052634D01*
X43415213Y-24098904D01*
X43447169Y-24135749D01*
X43467906Y-24148803D01*
X43658383Y-24244042D01*
X43681268Y-24252799D01*
X43685749Y-24253117D01*
X43689898Y-24254836D01*
X43714284Y-24257238D01*
X44095237Y-24257238D01*
X44119623Y-24254836D01*
X44123771Y-24253117D01*
X44128253Y-24252799D01*
X44151139Y-24244041D01*
X44341615Y-24148803D01*
X44352109Y-24142196D01*
X44355160Y-24140933D01*
X44358594Y-24138114D01*
X44362352Y-24135749D01*
X44364513Y-24133257D01*
X44374102Y-24125388D01*
X44469340Y-24030149D01*
X44477208Y-24020560D01*
X44479700Y-24018400D01*
X44482064Y-24014643D01*
X44484885Y-24011207D01*
X44486149Y-24008155D01*
X44492754Y-23997663D01*
X44587993Y-23807186D01*
X44596750Y-23784301D01*
X44597068Y-23779819D01*
X44598787Y-23775671D01*
X44601189Y-23751285D01*
X44601189Y-23179857D01*
X44598787Y-23155471D01*
X44597068Y-23151321D01*
X44596750Y-23146842D01*
X44587993Y-23123956D01*
X44568325Y-23084619D01*
X45208332Y-23084619D01*
X45208332Y-24132238D01*
X45210734Y-24156624D01*
X45229398Y-24201684D01*
X45263886Y-24236172D01*
X45308946Y-24254836D01*
X45357718Y-24254836D01*
X45402778Y-24236172D01*
X45419241Y-24219708D01*
X45467907Y-24244042D01*
X45490792Y-24252799D01*
X45495273Y-24253117D01*
X45499422Y-24254836D01*
X45523808Y-24257238D01*
X45999999Y-24257238D01*
X46024385Y-24254836D01*
X46028533Y-24253117D01*
X46033015Y-24252799D01*
X46055901Y-24244041D01*
X46246377Y-24148803D01*
X46250453Y-24146236D01*
X46252379Y-24145595D01*
X46254777Y-24143515D01*
X46267114Y-24135749D01*
X46277383Y-24123908D01*
X46289224Y-24113639D01*
X46296990Y-24101301D01*
X46299070Y-24098904D01*
X46299711Y-24096979D01*
X46302279Y-24092901D01*
X46397517Y-23902424D01*
X46406274Y-23879538D01*
X46406592Y-23875058D01*
X46408311Y-23870909D01*
X46410713Y-23846523D01*
X46410713Y-23656047D01*
X46408311Y-23631661D01*
X46406592Y-23627512D01*
X46406274Y-23623031D01*
X46397517Y-23600146D01*
X46302278Y-23409669D01*
X46299711Y-23405592D01*
X46299070Y-23403667D01*
X46296990Y-23401268D01*
X46289224Y-23388932D01*
X46277383Y-23378662D01*
X46267114Y-23366822D01*
X46254777Y-23359055D01*
X46252379Y-23356976D01*
X46250453Y-23356334D01*
X46246377Y-23353768D01*
X46055901Y-23258530D01*
X46033015Y-23249772D01*
X46028533Y-23249453D01*
X46024385Y-23247735D01*
X45999999Y-23245333D01*
X45553316Y-23245333D01*
X45458332Y-23197841D01*
X45458332Y-23114127D01*
X45521740Y-22987310D01*
X45648554Y-22923904D01*
X45970491Y-22923904D01*
X46134574Y-23005946D01*
X46157459Y-23014703D01*
X46206109Y-23018161D01*
X46252380Y-23002737D01*
X46289225Y-22970781D01*
X46311036Y-22927158D01*
X46314494Y-22878508D01*
X46299070Y-22832238D01*
X46267114Y-22795393D01*
X46246377Y-22782339D01*
X46230735Y-22774518D01*
X46734544Y-22774518D01*
X46734544Y-22823290D01*
X46753208Y-22868350D01*
X46787696Y-22902838D01*
X46832756Y-22921502D01*
X46857142Y-22923904D01*
X47208332Y-22923904D01*
X47208332Y-23817015D01*
X47144924Y-23943830D01*
X47018110Y-24007238D01*
X46857142Y-24007238D01*
X46832756Y-24009640D01*
X46787696Y-24028304D01*
X46753208Y-24062792D01*
X46734544Y-24107852D01*
X46734544Y-24156624D01*
X46753208Y-24201684D01*
X46787696Y-24236172D01*
X46832756Y-24254836D01*
X46857142Y-24257238D01*
X47047618Y-24257238D01*
X47072004Y-24254836D01*
X47076152Y-24253117D01*
X47080634Y-24252799D01*
X47103520Y-24244041D01*
X47293996Y-24148803D01*
X47298072Y-24146236D01*
X47299998Y-24145595D01*
X47302396Y-24143515D01*
X47314733Y-24135749D01*
X47325002Y-24123908D01*
X47336843Y-24113639D01*
X47344609Y-24101301D01*
X47346689Y-24098904D01*
X47347330Y-24096979D01*
X47349898Y-24092901D01*
X47445136Y-23902424D01*
X47453893Y-23879538D01*
X47454211Y-23875058D01*
X47455930Y-23870909D01*
X47458332Y-23846523D01*
X47458332Y-23084619D01*
X48160713Y-23084619D01*
X48160713Y-24132238D01*
X48163115Y-24156624D01*
X48181779Y-24201684D01*
X48216267Y-24236172D01*
X48261327Y-24254836D01*
X48310099Y-24254836D01*
X48355159Y-24236172D01*
X48389647Y-24201684D01*
X48408311Y-24156624D01*
X48410713Y-24132238D01*
X48410713Y-23114127D01*
X48474121Y-22987310D01*
X48600935Y-22923904D01*
X48827634Y-22923904D01*
X48973574Y-22996874D01*
X49017856Y-23041156D01*
X49017856Y-24132238D01*
X49020258Y-24156624D01*
X49038922Y-24201684D01*
X49073410Y-24236172D01*
X49118470Y-24254836D01*
X49167242Y-24254836D01*
X49212302Y-24236172D01*
X49246790Y-24201684D01*
X49265454Y-24156624D01*
X49267856Y-24132238D01*
X49267856Y-23179857D01*
X49874999Y-23179857D01*
X49874999Y-23751285D01*
X49877401Y-23775671D01*
X49879119Y-23779819D01*
X49879438Y-23784301D01*
X49888196Y-23807187D01*
X49983434Y-23997663D01*
X49990039Y-24008155D01*
X49991303Y-24011207D01*
X49994123Y-24014643D01*
X49996488Y-24018400D01*
X49998979Y-24020560D01*
X50006848Y-24030149D01*
X50102086Y-24125388D01*
X50111674Y-24133257D01*
X50113836Y-24135749D01*
X50117593Y-24138114D01*
X50121028Y-24140933D01*
X50124078Y-24142196D01*
X50134573Y-24148803D01*
X50325050Y-24244042D01*
X50347935Y-24252799D01*
X50352416Y-24253117D01*
X50356565Y-24254836D01*
X50380951Y-24257238D01*
X50666666Y-24257238D01*
X50691052Y-24254836D01*
X50695200Y-24253117D01*
X50699682Y-24252799D01*
X50722568Y-24244041D01*
X50913044Y-24148803D01*
X50923538Y-24142196D01*
X50926589Y-24140933D01*
X50930023Y-24138114D01*
X50933781Y-24135749D01*
X50935942Y-24133257D01*
X50945531Y-24125388D01*
X51040769Y-24030149D01*
X51048637Y-24020560D01*
X51051129Y-24018400D01*
X51053493Y-24014643D01*
X51056314Y-24011207D01*
X51057578Y-24008155D01*
X51064183Y-23997663D01*
X51159422Y-23807186D01*
X51168179Y-23784301D01*
X51168497Y-23779819D01*
X51170216Y-23775671D01*
X51172618Y-23751285D01*
X51172618Y-23179857D01*
X51170216Y-23155471D01*
X51168497Y-23151321D01*
X51168179Y-23146842D01*
X51159422Y-23123956D01*
X51064184Y-22933479D01*
X51057574Y-22922980D01*
X51056313Y-22919934D01*
X51053497Y-22916502D01*
X51051129Y-22912741D01*
X51048634Y-22910577D01*
X51040768Y-22900992D01*
X50945530Y-22805754D01*
X50935944Y-22797887D01*
X50933781Y-22795393D01*
X50930019Y-22793025D01*
X50926588Y-22790209D01*
X50923540Y-22788946D01*
X50913044Y-22782339D01*
X50722568Y-22687101D01*
X50699682Y-22678343D01*
X50695200Y-22678024D01*
X50691052Y-22676306D01*
X50666666Y-22673904D01*
X50380951Y-22673904D01*
X50356565Y-22676306D01*
X50352416Y-22678024D01*
X50347935Y-22678343D01*
X50325050Y-22687100D01*
X50134573Y-22782339D01*
X50124076Y-22788946D01*
X50121029Y-22790209D01*
X50117597Y-22793025D01*
X50113836Y-22795393D01*
X50111672Y-22797887D01*
X50102087Y-22805754D01*
X50006849Y-22900992D01*
X49998982Y-22910577D01*
X49996488Y-22912741D01*
X49994120Y-22916502D01*
X49991304Y-22919934D01*
X49990041Y-22922981D01*
X49983434Y-22933478D01*
X49888195Y-23123956D01*
X49879438Y-23146841D01*
X49879119Y-23151322D01*
X49877401Y-23155471D01*
X49874999Y-23179857D01*
X49267856Y-23179857D01*
X49267856Y-22798904D01*
X49265454Y-22774518D01*
X49246790Y-22729458D01*
X49212302Y-22694970D01*
X49167242Y-22676306D01*
X49118470Y-22676306D01*
X49073410Y-22694970D01*
X49038922Y-22729458D01*
X49031859Y-22746508D01*
X48913044Y-22687101D01*
X48890158Y-22678343D01*
X48885676Y-22678024D01*
X48881528Y-22676306D01*
X48857142Y-22673904D01*
X48571427Y-22673904D01*
X48547041Y-22676306D01*
X48542892Y-22678024D01*
X48538411Y-22678343D01*
X48515526Y-22687100D01*
X48325049Y-22782339D01*
X48320972Y-22784905D01*
X48319047Y-22785547D01*
X48316648Y-22787626D01*
X48304312Y-22795393D01*
X48294042Y-22807233D01*
X48282202Y-22817503D01*
X48274435Y-22829839D01*
X48272356Y-22832238D01*
X48271714Y-22834163D01*
X48269148Y-22838240D01*
X48173909Y-23028718D01*
X48165152Y-23051603D01*
X48164833Y-23056084D01*
X48163115Y-23060233D01*
X48160713Y-23084619D01*
X47458332Y-23084619D01*
X47458332Y-22923904D01*
X47619046Y-22923904D01*
X47643432Y-22921502D01*
X47688492Y-22902838D01*
X47722980Y-22868350D01*
X47741644Y-22823290D01*
X47741644Y-22774518D01*
X47722980Y-22729458D01*
X47688492Y-22694970D01*
X47643432Y-22676306D01*
X47619046Y-22673904D01*
X47458332Y-22673904D01*
X47458332Y-22298327D01*
X51686925Y-22298327D01*
X51686925Y-22347101D01*
X51705590Y-22392160D01*
X51740077Y-22426647D01*
X51785136Y-22445312D01*
X51833910Y-22445312D01*
X51878969Y-22426647D01*
X51897911Y-22411102D01*
X51972283Y-22336729D01*
X52210758Y-22257238D01*
X52360668Y-22257238D01*
X52599143Y-22336729D01*
X52754410Y-22491997D01*
X52834439Y-22652055D01*
X52922618Y-23004769D01*
X52922618Y-23259706D01*
X52834439Y-23612420D01*
X52754410Y-23772477D01*
X52599141Y-23927747D01*
X52360668Y-24007238D01*
X52210758Y-24007238D01*
X51972285Y-23927747D01*
X51897912Y-23853373D01*
X51878970Y-23837828D01*
X51833910Y-23819163D01*
X51785137Y-23819163D01*
X51740077Y-23837827D01*
X51705590Y-23872314D01*
X51686925Y-23917374D01*
X51686925Y-23966147D01*
X51705589Y-24011207D01*
X51721134Y-24030149D01*
X51816372Y-24125388D01*
X51835314Y-24140933D01*
X51839465Y-24142652D01*
X51842858Y-24145595D01*
X51865233Y-24155585D01*
X52150947Y-24250823D01*
X52163037Y-24253572D01*
X52166089Y-24254836D01*
X52170511Y-24255271D01*
X52174841Y-24256256D01*
X52178131Y-24256022D01*
X52190475Y-24257238D01*
X52380951Y-24257238D01*
X52393294Y-24256022D01*
X52396585Y-24256256D01*
X52400914Y-24255271D01*
X52405337Y-24254836D01*
X52408388Y-24253572D01*
X52420479Y-24250823D01*
X52706194Y-24155585D01*
X52728569Y-24145595D01*
X52731961Y-24142652D01*
X52736113Y-24140933D01*
X52755055Y-24125388D01*
X52945530Y-23934911D01*
X52953396Y-23925325D01*
X52955891Y-23923162D01*
X52958258Y-23919400D01*
X52961075Y-23915969D01*
X52962337Y-23912921D01*
X52968945Y-23902425D01*
X53064184Y-23711948D01*
X53064867Y-23710161D01*
X53065403Y-23709439D01*
X53069054Y-23699220D01*
X53072941Y-23689063D01*
X53073004Y-23688163D01*
X53073648Y-23686364D01*
X53168886Y-23305412D01*
X53169511Y-23301182D01*
X53170216Y-23299481D01*
X53171120Y-23290301D01*
X53172470Y-23281172D01*
X53172198Y-23279349D01*
X53172618Y-23275095D01*
X53172618Y-22989380D01*
X53172198Y-22985125D01*
X53172470Y-22983303D01*
X53171120Y-22974173D01*
X53170216Y-22964994D01*
X53169511Y-22963292D01*
X53168886Y-22959063D01*
X53148747Y-22878508D01*
X55209314Y-22878508D01*
X55212772Y-22927158D01*
X55234584Y-22970781D01*
X55271429Y-23002737D01*
X55317699Y-23018161D01*
X55366349Y-23014703D01*
X55389235Y-23005945D01*
X55553317Y-22923904D01*
X55875254Y-22923904D01*
X56021194Y-22996874D01*
X56087743Y-23063423D01*
X56160714Y-23209365D01*
X56160714Y-23721777D01*
X56087744Y-23867715D01*
X56021192Y-23934268D01*
X55875254Y-24007238D01*
X55553317Y-24007238D01*
X55389235Y-23925197D01*
X55366349Y-23916439D01*
X55317699Y-23912981D01*
X55271429Y-23928405D01*
X55234584Y-23960361D01*
X55212772Y-24003984D01*
X55209314Y-24052634D01*
X55224738Y-24098904D01*
X55256694Y-24135749D01*
X55277431Y-24148803D01*
X55467908Y-24244042D01*
X55490793Y-24252799D01*
X55495274Y-24253117D01*
X55499423Y-24254836D01*
X55523809Y-24257238D01*
X55904762Y-24257238D01*
X55929148Y-24254836D01*
X55933296Y-24253117D01*
X55937778Y-24252799D01*
X55960664Y-24244041D01*
X56151140Y-24148803D01*
X56161634Y-24142196D01*
X56164685Y-24140933D01*
X56168119Y-24138114D01*
X56171877Y-24135749D01*
X56174038Y-24133257D01*
X56183627Y-24125388D01*
X56278865Y-24030149D01*
X56286733Y-24020560D01*
X56289225Y-24018400D01*
X56291589Y-24014643D01*
X56294410Y-24011207D01*
X56295674Y-24008155D01*
X56302279Y-23997663D01*
X56397518Y-23807186D01*
X56406275Y-23784301D01*
X56406593Y-23779819D01*
X56408312Y-23775671D01*
X56410714Y-23751285D01*
X56410714Y-23179857D01*
X56408312Y-23155471D01*
X56406593Y-23151321D01*
X56406275Y-23146842D01*
X56397518Y-23123956D01*
X56302280Y-22933479D01*
X56295670Y-22922980D01*
X56294409Y-22919934D01*
X56291593Y-22916502D01*
X56289225Y-22912741D01*
X56286730Y-22910577D01*
X56278864Y-22900992D01*
X56183626Y-22805754D01*
X56175279Y-22798904D01*
X57017857Y-22798904D01*
X57017857Y-24132238D01*
X57020259Y-24156624D01*
X57038923Y-24201684D01*
X57073411Y-24236172D01*
X57118471Y-24254836D01*
X57167243Y-24254836D01*
X57212303Y-24236172D01*
X57246791Y-24201684D01*
X57265455Y-24156624D01*
X57267857Y-24132238D01*
X57267857Y-22798904D01*
X57265455Y-22774518D01*
X57686926Y-22774518D01*
X57686926Y-22823290D01*
X57705590Y-22868350D01*
X57740078Y-22902838D01*
X57785138Y-22921502D01*
X57809524Y-22923904D01*
X58160714Y-22923904D01*
X58160714Y-23817015D01*
X58097306Y-23943830D01*
X57970492Y-24007238D01*
X57809524Y-24007238D01*
X57785138Y-24009640D01*
X57740078Y-24028304D01*
X57705590Y-24062792D01*
X57686926Y-24107852D01*
X57686926Y-24156624D01*
X57705590Y-24201684D01*
X57740078Y-24236172D01*
X57785138Y-24254836D01*
X57809524Y-24257238D01*
X58000000Y-24257238D01*
X58024386Y-24254836D01*
X58028534Y-24253117D01*
X58033016Y-24252799D01*
X58055902Y-24244041D01*
X58246378Y-24148803D01*
X58250454Y-24146236D01*
X58252380Y-24145595D01*
X58254778Y-24143515D01*
X58267115Y-24135749D01*
X58277384Y-24123908D01*
X58289225Y-24113639D01*
X58296991Y-24101301D01*
X58299071Y-24098904D01*
X58299712Y-24096979D01*
X58302280Y-24092901D01*
X58397518Y-23902424D01*
X58406275Y-23879538D01*
X58406593Y-23875058D01*
X58408312Y-23870909D01*
X58410714Y-23846523D01*
X58410714Y-23084619D01*
X59113095Y-23084619D01*
X59113095Y-24132238D01*
X59115497Y-24156624D01*
X59134161Y-24201684D01*
X59168649Y-24236172D01*
X59213709Y-24254836D01*
X59262481Y-24254836D01*
X59307541Y-24236172D01*
X59324004Y-24219708D01*
X59372670Y-24244042D01*
X59395555Y-24252799D01*
X59400036Y-24253117D01*
X59404185Y-24254836D01*
X59428571Y-24257238D01*
X59904762Y-24257238D01*
X59929148Y-24254836D01*
X59933296Y-24253117D01*
X59937778Y-24252799D01*
X59960664Y-24244041D01*
X60151140Y-24148803D01*
X60155216Y-24146236D01*
X60157142Y-24145595D01*
X60159540Y-24143515D01*
X60171877Y-24135749D01*
X60182146Y-24123908D01*
X60193987Y-24113639D01*
X60201753Y-24101301D01*
X60203833Y-24098904D01*
X60204474Y-24096979D01*
X60207042Y-24092901D01*
X60302280Y-23902424D01*
X60311037Y-23879538D01*
X60311355Y-23875058D01*
X60313074Y-23870909D01*
X60315476Y-23846523D01*
X60315476Y-23656047D01*
X60313074Y-23631661D01*
X60311355Y-23627512D01*
X60311037Y-23623031D01*
X60302280Y-23600146D01*
X60207041Y-23409669D01*
X60204474Y-23405592D01*
X60203833Y-23403667D01*
X60201753Y-23401268D01*
X60193987Y-23388932D01*
X60182146Y-23378662D01*
X60171877Y-23366822D01*
X60159540Y-23359055D01*
X60157142Y-23356976D01*
X60155216Y-23356334D01*
X60151140Y-23353768D01*
X59960664Y-23258530D01*
X59937778Y-23249772D01*
X59933296Y-23249453D01*
X59929148Y-23247735D01*
X59904762Y-23245333D01*
X59458079Y-23245333D01*
X59363095Y-23197841D01*
X59363095Y-23114127D01*
X59426503Y-22987310D01*
X59553317Y-22923904D01*
X59875254Y-22923904D01*
X60039337Y-23005946D01*
X60062222Y-23014703D01*
X60110872Y-23018161D01*
X60157143Y-23002737D01*
X60193988Y-22970781D01*
X60215799Y-22927158D01*
X60219257Y-22878508D01*
X60203833Y-22832238D01*
X60171877Y-22795393D01*
X60151140Y-22782339D01*
X60135498Y-22774518D01*
X60639307Y-22774518D01*
X60639307Y-22823290D01*
X60657971Y-22868350D01*
X60692459Y-22902838D01*
X60737519Y-22921502D01*
X60761905Y-22923904D01*
X61113095Y-22923904D01*
X61113095Y-23817015D01*
X61049687Y-23943830D01*
X60922873Y-24007238D01*
X60761905Y-24007238D01*
X60737519Y-24009640D01*
X60692459Y-24028304D01*
X60657971Y-24062792D01*
X60639307Y-24107852D01*
X60639307Y-24156624D01*
X60657971Y-24201684D01*
X60692459Y-24236172D01*
X60737519Y-24254836D01*
X60761905Y-24257238D01*
X60952381Y-24257238D01*
X60976767Y-24254836D01*
X60980915Y-24253117D01*
X60985397Y-24252799D01*
X61008283Y-24244041D01*
X61198759Y-24148803D01*
X61202835Y-24146236D01*
X61204761Y-24145595D01*
X61207159Y-24143515D01*
X61219496Y-24135749D01*
X61229765Y-24123908D01*
X61241606Y-24113639D01*
X61249372Y-24101301D01*
X61251452Y-24098904D01*
X61252093Y-24096979D01*
X61254661Y-24092901D01*
X61349899Y-23902424D01*
X61358656Y-23879538D01*
X61358974Y-23875058D01*
X61360693Y-23870909D01*
X61363095Y-23846523D01*
X61363095Y-23560809D01*
X61970238Y-23560809D01*
X61970238Y-23751285D01*
X61972640Y-23775671D01*
X61974358Y-23779819D01*
X61974677Y-23784301D01*
X61983435Y-23807187D01*
X62078673Y-23997663D01*
X62085278Y-24008155D01*
X62086542Y-24011207D01*
X62089362Y-24014643D01*
X62091727Y-24018400D01*
X62094218Y-24020560D01*
X62102087Y-24030149D01*
X62197325Y-24125388D01*
X62206913Y-24133257D01*
X62209075Y-24135749D01*
X62212832Y-24138114D01*
X62216267Y-24140933D01*
X62219317Y-24142196D01*
X62229812Y-24148803D01*
X62420289Y-24244042D01*
X62443174Y-24252799D01*
X62447655Y-24253117D01*
X62451804Y-24254836D01*
X62476190Y-24257238D01*
X62952381Y-24257238D01*
X62964724Y-24256022D01*
X62968015Y-24256256D01*
X62972344Y-24255271D01*
X62976767Y-24254836D01*
X62979818Y-24253572D01*
X62991909Y-24250823D01*
X63277623Y-24155585D01*
X63299998Y-24145595D01*
X63336844Y-24113640D01*
X63358656Y-24070015D01*
X63362113Y-24021366D01*
X63346690Y-23975097D01*
X63314735Y-23938251D01*
X63271110Y-23916439D01*
X63222461Y-23912982D01*
X63198567Y-23918415D01*
X62932098Y-24007238D01*
X62505698Y-24007238D01*
X62359760Y-23934269D01*
X62293208Y-23867716D01*
X62220238Y-23721776D01*
X62220238Y-23590317D01*
X62293208Y-23444376D01*
X62359758Y-23377827D01*
X62519816Y-23297797D01*
X62887460Y-23205887D01*
X62889259Y-23205243D01*
X62890159Y-23205180D01*
X62900305Y-23201297D01*
X62910535Y-23197642D01*
X62911259Y-23197105D01*
X62913045Y-23196422D01*
X63103521Y-23101183D01*
X63114017Y-23094575D01*
X63117065Y-23093313D01*
X63120496Y-23090496D01*
X63124258Y-23088129D01*
X63126421Y-23085634D01*
X63136007Y-23077768D01*
X63231245Y-22982530D01*
X63239111Y-22972944D01*
X63241606Y-22970781D01*
X63243973Y-22967019D01*
X63246790Y-22963588D01*
X63248052Y-22960540D01*
X63254660Y-22950044D01*
X63349899Y-22759567D01*
X63358656Y-22736682D01*
X63358974Y-22732200D01*
X63360693Y-22728052D01*
X63363095Y-22703666D01*
X63363095Y-22513190D01*
X63360693Y-22488804D01*
X63358974Y-22484655D01*
X63358656Y-22480174D01*
X63349899Y-22457289D01*
X63254660Y-22266812D01*
X63248052Y-22256315D01*
X63246790Y-22253268D01*
X63243973Y-22249836D01*
X63241606Y-22246075D01*
X63239111Y-22243911D01*
X63231245Y-22234326D01*
X63136007Y-22139088D01*
X63126421Y-22131221D01*
X63124258Y-22128727D01*
X63120496Y-22126359D01*
X63117065Y-22123543D01*
X63114017Y-22122280D01*
X63103521Y-22115673D01*
X62913045Y-22020435D01*
X62890159Y-22011677D01*
X62885677Y-22011358D01*
X62881529Y-22009640D01*
X62857143Y-22007238D01*
X62380952Y-22007238D01*
X62368608Y-22008453D01*
X62365318Y-22008220D01*
X62360988Y-22009204D01*
X62356566Y-22009640D01*
X62353514Y-22010903D01*
X62341424Y-22013653D01*
X62055710Y-22108891D01*
X62033335Y-22118881D01*
X61996489Y-22150836D01*
X61974677Y-22194461D01*
X61971220Y-22243110D01*
X61986643Y-22289379D01*
X62018598Y-22326225D01*
X62062223Y-22348037D01*
X62110872Y-22351494D01*
X62134766Y-22346061D01*
X62401235Y-22257238D01*
X62827635Y-22257238D01*
X62973575Y-22330208D01*
X63040125Y-22396758D01*
X63113095Y-22542698D01*
X63113095Y-22674158D01*
X63040125Y-22820098D01*
X62973574Y-22886648D01*
X62813515Y-22966678D01*
X62445873Y-23058589D01*
X62444073Y-23059232D01*
X62443174Y-23059296D01*
X62433016Y-23063182D01*
X62422798Y-23066834D01*
X62422075Y-23067369D01*
X62420289Y-23068053D01*
X62229812Y-23163292D01*
X62219315Y-23169899D01*
X62216268Y-23171162D01*
X62212836Y-23173978D01*
X62209075Y-23176346D01*
X62206911Y-23178840D01*
X62197326Y-23186707D01*
X62102088Y-23281945D01*
X62094221Y-23291530D01*
X62091727Y-23293694D01*
X62089359Y-23297455D01*
X62086543Y-23300887D01*
X62085280Y-23303934D01*
X62078673Y-23314431D01*
X61983435Y-23504907D01*
X61974677Y-23527793D01*
X61974358Y-23532274D01*
X61972640Y-23536423D01*
X61970238Y-23560809D01*
X61363095Y-23560809D01*
X61363095Y-22923904D01*
X61523809Y-22923904D01*
X61548195Y-22921502D01*
X61593255Y-22902838D01*
X61627743Y-22868350D01*
X61646407Y-22823290D01*
X61646407Y-22774518D01*
X61627743Y-22729458D01*
X61593255Y-22694970D01*
X61548195Y-22676306D01*
X61523809Y-22673904D01*
X61363095Y-22673904D01*
X61363095Y-22132238D01*
X61360693Y-22107852D01*
X61342029Y-22062792D01*
X61307541Y-22028304D01*
X61262481Y-22009640D01*
X61213709Y-22009640D01*
X61168649Y-22028304D01*
X61134161Y-22062792D01*
X61115497Y-22107852D01*
X61113095Y-22132238D01*
X61113095Y-22673904D01*
X60761905Y-22673904D01*
X60737519Y-22676306D01*
X60692459Y-22694970D01*
X60657971Y-22729458D01*
X60639307Y-22774518D01*
X60135498Y-22774518D01*
X59960664Y-22687101D01*
X59937778Y-22678343D01*
X59933296Y-22678024D01*
X59929148Y-22676306D01*
X59904762Y-22673904D01*
X59523809Y-22673904D01*
X59499423Y-22676306D01*
X59495274Y-22678024D01*
X59490793Y-22678343D01*
X59467908Y-22687100D01*
X59277431Y-22782339D01*
X59273354Y-22784905D01*
X59271429Y-22785547D01*
X59269030Y-22787626D01*
X59256694Y-22795393D01*
X59246424Y-22807233D01*
X59234584Y-22817503D01*
X59226817Y-22829839D01*
X59224738Y-22832238D01*
X59224096Y-22834163D01*
X59221530Y-22838240D01*
X59126291Y-23028718D01*
X59117534Y-23051603D01*
X59117215Y-23056084D01*
X59115497Y-23060233D01*
X59113095Y-23084619D01*
X58410714Y-23084619D01*
X58410714Y-22923904D01*
X58571428Y-22923904D01*
X58595814Y-22921502D01*
X58640874Y-22902838D01*
X58675362Y-22868350D01*
X58694026Y-22823290D01*
X58694026Y-22774518D01*
X58675362Y-22729458D01*
X58640874Y-22694970D01*
X58595814Y-22676306D01*
X58571428Y-22673904D01*
X58410714Y-22673904D01*
X58410714Y-22132238D01*
X58408312Y-22107852D01*
X58389648Y-22062792D01*
X58355160Y-22028304D01*
X58310100Y-22009640D01*
X58261328Y-22009640D01*
X58216268Y-22028304D01*
X58181780Y-22062792D01*
X58163116Y-22107852D01*
X58160714Y-22132238D01*
X58160714Y-22673904D01*
X57809524Y-22673904D01*
X57785138Y-22676306D01*
X57740078Y-22694970D01*
X57705590Y-22729458D01*
X57686926Y-22774518D01*
X57265455Y-22774518D01*
X57246791Y-22729458D01*
X57212303Y-22694970D01*
X57167243Y-22676306D01*
X57118471Y-22676306D01*
X57073411Y-22694970D01*
X57038923Y-22729458D01*
X57020259Y-22774518D01*
X57017857Y-22798904D01*
X56175279Y-22798904D01*
X56174040Y-22797887D01*
X56171877Y-22795393D01*
X56168115Y-22793025D01*
X56164684Y-22790209D01*
X56161636Y-22788946D01*
X56151140Y-22782339D01*
X55960664Y-22687101D01*
X55937778Y-22678343D01*
X55933296Y-22678024D01*
X55929148Y-22676306D01*
X55904762Y-22673904D01*
X55523809Y-22673904D01*
X55499423Y-22676306D01*
X55495274Y-22678024D01*
X55490793Y-22678343D01*
X55467908Y-22687100D01*
X55277431Y-22782339D01*
X55256694Y-22795393D01*
X55224738Y-22832238D01*
X55209314Y-22878508D01*
X53148747Y-22878508D01*
X53073648Y-22578111D01*
X53073004Y-22576311D01*
X53072941Y-22575412D01*
X53069054Y-22565254D01*
X53065403Y-22555036D01*
X53064867Y-22554313D01*
X53064184Y-22552527D01*
X52968945Y-22362050D01*
X52962340Y-22351557D01*
X52961076Y-22348506D01*
X52958255Y-22345069D01*
X52955891Y-22341313D01*
X52953399Y-22339152D01*
X52945531Y-22329564D01*
X52819055Y-22203089D01*
X56925021Y-22203089D01*
X56925021Y-22251863D01*
X56943686Y-22296922D01*
X56959231Y-22315864D01*
X57054469Y-22411102D01*
X57073405Y-22426642D01*
X57073411Y-22426648D01*
X57105272Y-22439845D01*
X57118470Y-22445312D01*
X57118471Y-22445312D01*
X57167243Y-22445312D01*
X57167244Y-22445312D01*
X57180441Y-22439845D01*
X57212303Y-22426648D01*
X57212308Y-22426642D01*
X57231245Y-22411102D01*
X57326483Y-22315864D01*
X57342028Y-22296922D01*
X57360693Y-22251863D01*
X57360693Y-22203089D01*
X57342028Y-22158030D01*
X57326483Y-22139088D01*
X57231245Y-22043850D01*
X57212308Y-22028309D01*
X57212303Y-22028304D01*
X57180441Y-22015106D01*
X57167244Y-22009640D01*
X57118470Y-22009640D01*
X57105272Y-22015106D01*
X57073411Y-22028304D01*
X57073405Y-22028309D01*
X57054469Y-22043850D01*
X56959231Y-22139088D01*
X56943686Y-22158030D01*
X56925021Y-22203089D01*
X52819055Y-22203089D01*
X52755054Y-22139088D01*
X52736112Y-22123543D01*
X52731962Y-22121824D01*
X52728569Y-22118881D01*
X52706194Y-22108891D01*
X52420479Y-22013653D01*
X52408388Y-22010903D01*
X52405337Y-22009640D01*
X52400914Y-22009204D01*
X52396585Y-22008220D01*
X52393294Y-22008453D01*
X52380951Y-22007238D01*
X52190475Y-22007238D01*
X52178131Y-22008453D01*
X52174841Y-22008220D01*
X52170511Y-22009204D01*
X52166089Y-22009640D01*
X52163037Y-22010903D01*
X52150947Y-22013653D01*
X51865233Y-22108891D01*
X51842858Y-22118881D01*
X51839464Y-22121824D01*
X51835315Y-22123543D01*
X51816373Y-22139088D01*
X51721135Y-22234326D01*
X51705590Y-22253268D01*
X51686925Y-22298327D01*
X47458332Y-22298327D01*
X47458332Y-22132238D01*
X47455930Y-22107852D01*
X47437266Y-22062792D01*
X47402778Y-22028304D01*
X47357718Y-22009640D01*
X47308946Y-22009640D01*
X47263886Y-22028304D01*
X47229398Y-22062792D01*
X47210734Y-22107852D01*
X47208332Y-22132238D01*
X47208332Y-22673904D01*
X46857142Y-22673904D01*
X46832756Y-22676306D01*
X46787696Y-22694970D01*
X46753208Y-22729458D01*
X46734544Y-22774518D01*
X46230735Y-22774518D01*
X46055901Y-22687101D01*
X46033015Y-22678343D01*
X46028533Y-22678024D01*
X46024385Y-22676306D01*
X45999999Y-22673904D01*
X45619046Y-22673904D01*
X45594660Y-22676306D01*
X45590511Y-22678024D01*
X45586030Y-22678343D01*
X45563145Y-22687100D01*
X45372668Y-22782339D01*
X45368591Y-22784905D01*
X45366666Y-22785547D01*
X45364267Y-22787626D01*
X45351931Y-22795393D01*
X45341661Y-22807233D01*
X45329821Y-22817503D01*
X45322054Y-22829839D01*
X45319975Y-22832238D01*
X45319333Y-22834163D01*
X45316767Y-22838240D01*
X45221528Y-23028718D01*
X45212771Y-23051603D01*
X45212452Y-23056084D01*
X45210734Y-23060233D01*
X45208332Y-23084619D01*
X44568325Y-23084619D01*
X44492755Y-22933479D01*
X44486145Y-22922980D01*
X44484884Y-22919934D01*
X44482068Y-22916502D01*
X44479700Y-22912741D01*
X44477205Y-22910577D01*
X44469339Y-22900992D01*
X44374101Y-22805754D01*
X44364515Y-22797887D01*
X44362352Y-22795393D01*
X44358590Y-22793025D01*
X44355159Y-22790209D01*
X44352111Y-22788946D01*
X44341615Y-22782339D01*
X44151139Y-22687101D01*
X44128253Y-22678343D01*
X44123771Y-22678024D01*
X44119623Y-22676306D01*
X44095237Y-22673904D01*
X43714284Y-22673904D01*
X43689898Y-22676306D01*
X43685749Y-22678024D01*
X43681268Y-22678343D01*
X43658383Y-22687100D01*
X43467906Y-22782339D01*
X43447169Y-22795393D01*
X43415213Y-22832238D01*
X43399789Y-22878508D01*
X43046155Y-22878508D01*
X43056313Y-22868350D01*
X43074977Y-22823290D01*
X43074977Y-22774518D01*
X43056313Y-22729458D01*
X43021825Y-22694970D01*
X42976765Y-22676306D01*
X42952379Y-22673904D01*
X42791665Y-22673904D01*
X42791665Y-22132238D01*
X42789263Y-22107852D01*
X42770599Y-22062792D01*
X42736111Y-22028304D01*
X42691051Y-22009640D01*
X42642279Y-22009640D01*
X42597219Y-22028304D01*
X42562731Y-22062792D01*
X42544067Y-22107852D01*
X42541665Y-22132238D01*
X42541665Y-22673904D01*
X42190475Y-22673904D01*
X42166089Y-22676306D01*
X42121029Y-22694970D01*
X42086541Y-22729458D01*
X42067877Y-22774518D01*
X41564068Y-22774518D01*
X41389234Y-22687101D01*
X41366348Y-22678343D01*
X41361866Y-22678024D01*
X41357718Y-22676306D01*
X41333332Y-22673904D01*
X41047618Y-22673904D01*
X41023232Y-22676306D01*
X41019082Y-22678024D01*
X41014603Y-22678343D01*
X40991717Y-22687100D01*
X40801240Y-22782338D01*
X40780502Y-22795393D01*
X40748546Y-22832238D01*
X40733122Y-22878508D01*
X40736580Y-22927158D01*
X40758392Y-22970781D01*
X40795237Y-23002737D01*
X40841507Y-23018161D01*
X40890157Y-23014703D01*
X40913042Y-23005946D01*
X41077126Y-22923904D01*
X41303824Y-22923904D01*
X41430638Y-22987311D01*
X41494046Y-23114127D01*
X41494046Y-23150349D01*
X41430638Y-23277163D01*
X41303824Y-23340571D01*
X41047618Y-23340571D01*
X41023232Y-23342973D01*
X41019082Y-23344691D01*
X41014603Y-23345010D01*
X40991717Y-23353767D01*
X40801240Y-23449005D01*
X40797161Y-23451572D01*
X40795237Y-23452214D01*
X40792839Y-23454293D01*
X40780502Y-23462060D01*
X40770232Y-23473900D01*
X40758392Y-23484170D01*
X40750625Y-23496506D01*
X40748546Y-23498905D01*
X40747904Y-23500830D01*
X40745338Y-23504907D01*
X40650100Y-23695383D01*
X40641342Y-23718269D01*
X40641023Y-23722750D01*
X40639305Y-23726899D01*
X40636903Y-23751285D01*
X40319443Y-23751285D01*
X40319443Y-19579016D01*
X40541665Y-19579016D01*
X40541665Y-21198064D01*
X40544067Y-21222450D01*
X40545785Y-21226598D01*
X40546104Y-21231080D01*
X40554862Y-21253966D01*
X40650100Y-21444442D01*
X40656707Y-21454938D01*
X40657970Y-21457986D01*
X40660786Y-21461417D01*
X40663154Y-21465179D01*
X40665648Y-21467342D01*
X40673515Y-21476928D01*
X40768753Y-21572166D01*
X40778338Y-21580032D01*
X40780502Y-21582527D01*
X40784263Y-21584895D01*
X40787695Y-21587711D01*
X40790741Y-21588972D01*
X40801240Y-21595582D01*
X40991717Y-21690820D01*
X41014603Y-21699577D01*
X41019082Y-21699895D01*
X41023232Y-21701614D01*
X41047618Y-21704016D01*
X41333332Y-21704016D01*
X41357718Y-21701614D01*
X41361866Y-21699895D01*
X41366348Y-21699577D01*
X41389234Y-21690819D01*
X41579710Y-21595581D01*
X41600447Y-21582527D01*
X41632403Y-21545682D01*
X41647827Y-21499412D01*
X41644369Y-21450762D01*
X41622558Y-21407139D01*
X41585713Y-21375183D01*
X41539442Y-21359759D01*
X41490792Y-21363217D01*
X41467907Y-21371974D01*
X41303824Y-21454016D01*
X41077126Y-21454016D01*
X40931184Y-21381045D01*
X40864635Y-21314496D01*
X40791665Y-21168555D01*
X40791665Y-21019366D01*
X40801240Y-21024154D01*
X40824125Y-21032911D01*
X40828606Y-21033229D01*
X40832755Y-21034948D01*
X40857141Y-21037350D01*
X41238094Y-21037350D01*
X41262480Y-21034948D01*
X41266628Y-21033229D01*
X41271110Y-21032911D01*
X41293996Y-21024153D01*
X41484472Y-20928915D01*
X41494966Y-20922308D01*
X41498017Y-20921045D01*
X41501451Y-20918226D01*
X41505209Y-20915861D01*
X41507370Y-20913369D01*
X41516959Y-20905500D01*
X41612197Y-20810261D01*
X41620065Y-20800672D01*
X41622557Y-20798512D01*
X41624921Y-20794755D01*
X41627742Y-20791319D01*
X41629006Y-20788267D01*
X41635611Y-20777775D01*
X41730850Y-20587298D01*
X41739607Y-20564413D01*
X41739925Y-20559931D01*
X41741644Y-20555783D01*
X41744046Y-20531397D01*
X41744046Y-19959969D01*
X41741644Y-19935583D01*
X41739925Y-19931433D01*
X41739607Y-19926954D01*
X41730850Y-19904068D01*
X41711182Y-19864731D01*
X42351189Y-19864731D01*
X42351189Y-20912350D01*
X42353591Y-20936736D01*
X42372255Y-20981796D01*
X42406743Y-21016284D01*
X42451803Y-21034948D01*
X42500575Y-21034948D01*
X42545635Y-21016284D01*
X42580123Y-20981796D01*
X42598787Y-20936736D01*
X42601189Y-20912350D01*
X42601189Y-19894239D01*
X42664597Y-19767422D01*
X42791411Y-19704016D01*
X43018110Y-19704016D01*
X43164050Y-19776986D01*
X43208332Y-19821268D01*
X43208332Y-20912350D01*
X43210734Y-20936736D01*
X43229398Y-20981796D01*
X43263886Y-21016284D01*
X43308946Y-21034948D01*
X43357718Y-21034948D01*
X43402778Y-21016284D01*
X43437266Y-20981796D01*
X43455930Y-20936736D01*
X43458332Y-20912350D01*
X43458332Y-19579016D01*
X44160713Y-19579016D01*
X44160713Y-20912350D01*
X44163115Y-20936736D01*
X44181779Y-20981796D01*
X44216267Y-21016284D01*
X44261327Y-21034948D01*
X44310099Y-21034948D01*
X44355159Y-21016284D01*
X44389647Y-20981796D01*
X44408311Y-20936736D01*
X44410713Y-20912350D01*
X44410713Y-19579016D01*
X44408311Y-19554630D01*
X44389647Y-19509570D01*
X44355159Y-19475082D01*
X44310099Y-19456418D01*
X44261327Y-19456418D01*
X44216267Y-19475082D01*
X44181779Y-19509570D01*
X44163115Y-19554630D01*
X44160713Y-19579016D01*
X43458332Y-19579016D01*
X43455930Y-19554630D01*
X43437266Y-19509570D01*
X43402778Y-19475082D01*
X43357718Y-19456418D01*
X43308946Y-19456418D01*
X43263886Y-19475082D01*
X43229398Y-19509570D01*
X43222335Y-19526620D01*
X43103520Y-19467213D01*
X43080634Y-19458455D01*
X43076152Y-19458136D01*
X43072004Y-19456418D01*
X43047618Y-19454016D01*
X42761903Y-19454016D01*
X42737517Y-19456418D01*
X42733368Y-19458136D01*
X42728887Y-19458455D01*
X42706002Y-19467212D01*
X42515525Y-19562451D01*
X42511448Y-19565017D01*
X42509523Y-19565659D01*
X42507124Y-19567738D01*
X42494788Y-19575505D01*
X42484518Y-19587345D01*
X42472678Y-19597615D01*
X42464911Y-19609951D01*
X42462832Y-19612350D01*
X42462190Y-19614275D01*
X42459624Y-19618352D01*
X42364385Y-19808830D01*
X42355628Y-19831715D01*
X42355309Y-19836196D01*
X42353591Y-19840345D01*
X42351189Y-19864731D01*
X41711182Y-19864731D01*
X41635612Y-19713591D01*
X41629002Y-19703092D01*
X41627741Y-19700046D01*
X41624925Y-19696614D01*
X41622557Y-19692853D01*
X41620062Y-19690689D01*
X41612196Y-19681104D01*
X41516958Y-19585866D01*
X41507372Y-19577999D01*
X41505209Y-19575505D01*
X41501447Y-19573137D01*
X41498016Y-19570321D01*
X41494968Y-19569058D01*
X41484472Y-19562451D01*
X41293996Y-19467213D01*
X41271110Y-19458455D01*
X41266628Y-19458136D01*
X41262480Y-19456418D01*
X41238094Y-19454016D01*
X40857141Y-19454016D01*
X40832755Y-19456418D01*
X40828606Y-19458136D01*
X40824125Y-19458455D01*
X40801240Y-19467212D01*
X40752574Y-19491545D01*
X40736111Y-19475082D01*
X40691051Y-19456418D01*
X40642279Y-19456418D01*
X40597219Y-19475082D01*
X40562731Y-19509570D01*
X40544067Y-19554630D01*
X40541665Y-19579016D01*
X40319443Y-19579016D01*
X40319443Y-19293302D01*
X45017856Y-19293302D01*
X45017856Y-19579016D01*
X45020258Y-19603402D01*
X45021976Y-19607550D01*
X45022295Y-19612032D01*
X45031053Y-19634918D01*
X45126291Y-19825394D01*
X45132896Y-19835886D01*
X45134160Y-19838938D01*
X45136980Y-19842374D01*
X45139345Y-19846131D01*
X45141836Y-19848291D01*
X45149705Y-19857880D01*
X45244943Y-19953119D01*
X45254531Y-19960988D01*
X45256693Y-19963480D01*
X45260450Y-19965845D01*
X45263885Y-19968664D01*
X45266935Y-19969927D01*
X45277430Y-19976534D01*
X45467907Y-20071773D01*
X45490792Y-20080530D01*
X45495273Y-20080848D01*
X45499422Y-20082567D01*
X45523808Y-20084969D01*
X45569441Y-20084969D01*
X45040452Y-20840667D01*
X45028435Y-20862022D01*
X45017885Y-20909640D01*
X45026361Y-20957671D01*
X45052573Y-20998802D01*
X45092528Y-21026771D01*
X45140146Y-21037321D01*
X45188177Y-21028845D01*
X45229308Y-21002633D01*
X45245260Y-20984033D01*
X45874605Y-20084969D01*
X46160713Y-20084969D01*
X46160713Y-20912350D01*
X46163115Y-20936736D01*
X46181779Y-20981796D01*
X46216267Y-21016284D01*
X46261327Y-21034948D01*
X46310099Y-21034948D01*
X46355159Y-21016284D01*
X46389647Y-20981796D01*
X46408311Y-20936736D01*
X46410713Y-20912350D01*
X46410713Y-19959969D01*
X48541666Y-19959969D01*
X48541666Y-20531397D01*
X48544068Y-20555783D01*
X48545786Y-20559931D01*
X48546105Y-20564413D01*
X48554863Y-20587299D01*
X48650101Y-20777775D01*
X48656706Y-20788267D01*
X48657970Y-20791319D01*
X48660790Y-20794755D01*
X48663155Y-20798512D01*
X48665646Y-20800672D01*
X48673515Y-20810261D01*
X48768753Y-20905500D01*
X48778341Y-20913369D01*
X48780503Y-20915861D01*
X48784260Y-20918226D01*
X48787695Y-20921045D01*
X48790745Y-20922308D01*
X48801240Y-20928915D01*
X48991717Y-21024154D01*
X49014602Y-21032911D01*
X49019083Y-21033229D01*
X49023232Y-21034948D01*
X49047618Y-21037350D01*
X49428571Y-21037350D01*
X49452957Y-21034948D01*
X49457105Y-21033229D01*
X49461587Y-21032911D01*
X49484473Y-21024153D01*
X49494047Y-21019366D01*
X49494047Y-21579016D01*
X49496449Y-21603402D01*
X49515113Y-21648462D01*
X49549601Y-21682950D01*
X49594661Y-21701614D01*
X49643433Y-21701614D01*
X49688493Y-21682950D01*
X49722981Y-21648462D01*
X49741645Y-21603402D01*
X49744047Y-21579016D01*
X49744047Y-19579016D01*
X50446428Y-19579016D01*
X50446428Y-20912350D01*
X50448830Y-20936736D01*
X50467494Y-20981796D01*
X50501982Y-21016284D01*
X50547042Y-21034948D01*
X50595814Y-21034948D01*
X50640874Y-21016284D01*
X50675362Y-20981796D01*
X50694026Y-20936736D01*
X50696428Y-20912350D01*
X50696428Y-20896716D01*
X51209314Y-20896716D01*
X51212772Y-20945366D01*
X51234584Y-20988989D01*
X51271429Y-21020945D01*
X51317699Y-21036369D01*
X51366349Y-21032911D01*
X51389235Y-21024153D01*
X51579711Y-20928915D01*
X51583787Y-20926348D01*
X51585713Y-20925707D01*
X51588111Y-20923627D01*
X51600448Y-20915861D01*
X51610717Y-20904020D01*
X51622558Y-20893751D01*
X51630324Y-20881413D01*
X51632404Y-20879016D01*
X51633045Y-20877091D01*
X51635613Y-20873013D01*
X51730851Y-20682536D01*
X51739608Y-20659650D01*
X51739926Y-20655170D01*
X51741645Y-20651021D01*
X51744047Y-20626635D01*
X51744047Y-20340921D01*
X52351190Y-20340921D01*
X52351190Y-20531397D01*
X52353592Y-20555783D01*
X52355310Y-20559931D01*
X52355629Y-20564413D01*
X52364387Y-20587299D01*
X52459625Y-20777775D01*
X52466230Y-20788267D01*
X52467494Y-20791319D01*
X52470314Y-20794755D01*
X52472679Y-20798512D01*
X52475170Y-20800672D01*
X52483039Y-20810261D01*
X52578277Y-20905500D01*
X52587865Y-20913369D01*
X52590027Y-20915861D01*
X52593784Y-20918226D01*
X52597219Y-20921045D01*
X52600269Y-20922308D01*
X52610764Y-20928915D01*
X52801241Y-21024154D01*
X52824126Y-21032911D01*
X52828607Y-21033229D01*
X52832756Y-21034948D01*
X52857142Y-21037350D01*
X53333333Y-21037350D01*
X53345676Y-21036134D01*
X53348967Y-21036368D01*
X53353296Y-21035383D01*
X53357719Y-21034948D01*
X53360770Y-21033684D01*
X53372861Y-21030935D01*
X53658575Y-20935697D01*
X53680950Y-20925707D01*
X53717796Y-20893752D01*
X53739608Y-20850127D01*
X53743065Y-20801478D01*
X53727642Y-20755209D01*
X53695687Y-20718363D01*
X53652062Y-20696551D01*
X53603413Y-20693094D01*
X53579519Y-20698527D01*
X53313050Y-20787350D01*
X52886650Y-20787350D01*
X52740712Y-20714381D01*
X52674160Y-20647828D01*
X52601190Y-20501888D01*
X52601190Y-20370429D01*
X52674160Y-20224488D01*
X52740710Y-20157939D01*
X52900768Y-20077909D01*
X53268412Y-19985999D01*
X53270211Y-19985355D01*
X53271111Y-19985292D01*
X53281257Y-19981409D01*
X53291487Y-19977754D01*
X53292211Y-19977217D01*
X53293997Y-19976534D01*
X53484473Y-19881295D01*
X53494969Y-19874687D01*
X53498017Y-19873425D01*
X53501448Y-19870608D01*
X53505210Y-19868241D01*
X53507373Y-19865746D01*
X53516959Y-19857880D01*
X53612197Y-19762642D01*
X53620063Y-19753056D01*
X53622558Y-19750893D01*
X53624925Y-19747131D01*
X53627742Y-19743700D01*
X53629004Y-19740652D01*
X53635612Y-19730156D01*
X53730851Y-19539679D01*
X53739608Y-19516794D01*
X53739926Y-19512312D01*
X53741645Y-19508164D01*
X53744047Y-19483778D01*
X53744047Y-19293302D01*
X55779762Y-19293302D01*
X55779762Y-19579016D01*
X55782164Y-19603402D01*
X55783882Y-19607550D01*
X55784201Y-19612032D01*
X55792959Y-19634918D01*
X55888197Y-19825394D01*
X55894802Y-19835886D01*
X55896066Y-19838938D01*
X55898886Y-19842374D01*
X55901251Y-19846131D01*
X55903742Y-19848291D01*
X55911611Y-19857880D01*
X56006849Y-19953119D01*
X56016437Y-19960988D01*
X56018599Y-19963480D01*
X56022356Y-19965845D01*
X56025791Y-19968664D01*
X56028841Y-19969927D01*
X56039336Y-19976534D01*
X56229813Y-20071773D01*
X56252698Y-20080530D01*
X56257179Y-20080848D01*
X56261328Y-20082567D01*
X56285714Y-20084969D01*
X56331347Y-20084969D01*
X55802358Y-20840667D01*
X55790341Y-20862022D01*
X55779791Y-20909640D01*
X55788267Y-20957671D01*
X55814479Y-20998802D01*
X55854434Y-21026771D01*
X55902052Y-21037321D01*
X55950083Y-21028845D01*
X55991214Y-21002633D01*
X56007166Y-20984033D01*
X56636511Y-20084969D01*
X56922619Y-20084969D01*
X56922619Y-20912350D01*
X56925021Y-20936736D01*
X56943685Y-20981796D01*
X56978173Y-21016284D01*
X57023233Y-21034948D01*
X57072005Y-21034948D01*
X57117065Y-21016284D01*
X57151553Y-20981796D01*
X57170217Y-20936736D01*
X57172619Y-20912350D01*
X57172619Y-20896716D01*
X57590268Y-20896716D01*
X57593725Y-20945365D01*
X57615537Y-20988990D01*
X57652383Y-21020945D01*
X57698652Y-21036368D01*
X57747301Y-21032911D01*
X57790926Y-21011099D01*
X57822881Y-20974253D01*
X57832871Y-20951878D01*
X57994857Y-20465921D01*
X58767048Y-20465921D01*
X58929034Y-20951879D01*
X58939024Y-20974254D01*
X58970979Y-21011099D01*
X59014604Y-21032911D01*
X59063253Y-21036368D01*
X59109522Y-21020945D01*
X59146368Y-20988990D01*
X59168180Y-20945366D01*
X59171637Y-20896716D01*
X59166204Y-20872822D01*
X58798428Y-19769492D01*
X59494048Y-19769492D01*
X59494048Y-20055207D01*
X59494467Y-20059461D01*
X59494196Y-20061283D01*
X59495545Y-20070411D01*
X59496450Y-20079593D01*
X59497154Y-20081294D01*
X59497780Y-20085524D01*
X59593018Y-20466476D01*
X59593661Y-20468275D01*
X59593725Y-20469175D01*
X59597607Y-20479321D01*
X59601263Y-20489551D01*
X59601799Y-20490275D01*
X59602483Y-20492061D01*
X59697721Y-20682537D01*
X59704326Y-20693029D01*
X59705590Y-20696081D01*
X59708410Y-20699517D01*
X59710775Y-20703274D01*
X59713266Y-20705434D01*
X59721135Y-20715023D01*
X59911611Y-20905500D01*
X59930553Y-20921045D01*
X59934704Y-20922764D01*
X59938097Y-20925707D01*
X59960472Y-20935697D01*
X60246187Y-21030935D01*
X60258277Y-21033684D01*
X60261329Y-21034948D01*
X60265751Y-21035383D01*
X60270081Y-21036368D01*
X60273371Y-21036134D01*
X60285715Y-21037350D01*
X60761905Y-21037350D01*
X60786291Y-21034948D01*
X60831351Y-21016284D01*
X60865839Y-20981796D01*
X60884503Y-20936736D01*
X60886905Y-20912350D01*
X60886905Y-19579016D01*
X61589286Y-19579016D01*
X61589286Y-20912350D01*
X61591688Y-20936736D01*
X61610352Y-20981796D01*
X61644840Y-21016284D01*
X61689900Y-21034948D01*
X61738672Y-21034948D01*
X61783732Y-21016284D01*
X61818220Y-20981796D01*
X61836884Y-20936736D01*
X61839286Y-20912350D01*
X61839286Y-20887964D01*
X62258355Y-20887964D01*
X62258355Y-20936736D01*
X62277019Y-20981796D01*
X62311507Y-21016284D01*
X62356567Y-21034948D01*
X62380953Y-21037350D01*
X63333334Y-21037350D01*
X63357720Y-21034948D01*
X63402780Y-21016284D01*
X63437268Y-20981796D01*
X63455932Y-20936736D01*
X63458334Y-20912350D01*
X63458334Y-18912350D01*
X63455932Y-18887964D01*
X63437268Y-18842904D01*
X63402780Y-18808416D01*
X63357720Y-18789752D01*
X63308948Y-18789752D01*
X63263888Y-18808416D01*
X63229400Y-18842904D01*
X63210736Y-18887964D01*
X63208334Y-18912350D01*
X63208334Y-20787350D01*
X62380953Y-20787350D01*
X62356567Y-20789752D01*
X62311507Y-20808416D01*
X62277019Y-20842904D01*
X62258355Y-20887964D01*
X61839286Y-20887964D01*
X61839286Y-19579016D01*
X61836884Y-19554630D01*
X61818220Y-19509570D01*
X61783732Y-19475082D01*
X61738672Y-19456418D01*
X61689900Y-19456418D01*
X61644840Y-19475082D01*
X61610352Y-19509570D01*
X61591688Y-19554630D01*
X61589286Y-19579016D01*
X60886905Y-19579016D01*
X60886905Y-18983201D01*
X61496450Y-18983201D01*
X61496450Y-19031975D01*
X61515115Y-19077034D01*
X61530660Y-19095976D01*
X61625898Y-19191214D01*
X61644834Y-19206754D01*
X61644840Y-19206760D01*
X61676701Y-19219957D01*
X61689899Y-19225424D01*
X61689900Y-19225424D01*
X61738672Y-19225424D01*
X61738673Y-19225424D01*
X61751870Y-19219957D01*
X61783732Y-19206760D01*
X61783737Y-19206754D01*
X61802674Y-19191214D01*
X61897912Y-19095976D01*
X61913457Y-19077034D01*
X61932122Y-19031975D01*
X61932122Y-18983201D01*
X61913457Y-18938142D01*
X61913456Y-18938141D01*
X61897912Y-18919200D01*
X61802674Y-18823962D01*
X61783737Y-18808421D01*
X61783732Y-18808416D01*
X61751870Y-18795218D01*
X61738673Y-18789752D01*
X61689899Y-18789752D01*
X61676701Y-18795218D01*
X61644840Y-18808416D01*
X61644834Y-18808421D01*
X61625898Y-18823962D01*
X61530660Y-18919200D01*
X61515116Y-18938141D01*
X61515115Y-18938142D01*
X61496450Y-18983201D01*
X60886905Y-18983201D01*
X60886905Y-18912350D01*
X60884503Y-18887964D01*
X60865839Y-18842904D01*
X60831351Y-18808416D01*
X60786291Y-18789752D01*
X60761905Y-18787350D01*
X60285715Y-18787350D01*
X60273371Y-18788565D01*
X60270081Y-18788332D01*
X60265751Y-18789316D01*
X60261329Y-18789752D01*
X60258277Y-18791015D01*
X60246187Y-18793765D01*
X59960472Y-18889003D01*
X59938097Y-18898993D01*
X59934705Y-18901934D01*
X59930554Y-18903654D01*
X59911612Y-18919199D01*
X59721136Y-19109676D01*
X59713269Y-19119261D01*
X59710775Y-19121425D01*
X59708407Y-19125186D01*
X59705591Y-19128618D01*
X59704328Y-19131665D01*
X59697721Y-19142162D01*
X59602483Y-19332638D01*
X59601799Y-19334423D01*
X59601263Y-19335148D01*
X59597607Y-19345377D01*
X59593725Y-19355524D01*
X59593661Y-19356423D01*
X59593018Y-19358223D01*
X59497780Y-19739175D01*
X59497154Y-19743404D01*
X59496450Y-19745106D01*
X59495545Y-19754287D01*
X59494196Y-19763416D01*
X59494467Y-19765237D01*
X59494048Y-19769492D01*
X58798428Y-19769492D01*
X58499538Y-18872822D01*
X58489548Y-18850447D01*
X58483696Y-18843699D01*
X58479702Y-18835711D01*
X58467864Y-18825444D01*
X58457593Y-18813601D01*
X58449601Y-18809605D01*
X58442856Y-18803755D01*
X58427988Y-18798799D01*
X58413968Y-18791789D01*
X58405058Y-18791155D01*
X58396587Y-18788332D01*
X58380953Y-18789442D01*
X58365319Y-18788332D01*
X58356847Y-18791155D01*
X58347938Y-18791789D01*
X58333917Y-18798799D01*
X58319050Y-18803755D01*
X58312303Y-18809605D01*
X58304313Y-18813601D01*
X58294044Y-18825441D01*
X58282204Y-18835710D01*
X58278208Y-18843700D01*
X58272358Y-18850447D01*
X58262368Y-18872822D01*
X57595701Y-20872822D01*
X57590268Y-20896716D01*
X57172619Y-20896716D01*
X57172619Y-18912350D01*
X57170217Y-18887964D01*
X57151553Y-18842904D01*
X57117065Y-18808416D01*
X57072005Y-18789752D01*
X57047619Y-18787350D01*
X56285714Y-18787350D01*
X56261328Y-18789752D01*
X56257179Y-18791470D01*
X56252698Y-18791789D01*
X56229813Y-18800546D01*
X56039336Y-18895785D01*
X56028839Y-18902392D01*
X56025792Y-18903655D01*
X56022360Y-18906471D01*
X56018599Y-18908839D01*
X56016435Y-18911333D01*
X56006850Y-18919200D01*
X55911612Y-19014438D01*
X55903745Y-19024023D01*
X55901251Y-19026187D01*
X55898883Y-19029948D01*
X55896067Y-19033380D01*
X55894804Y-19036427D01*
X55888197Y-19046924D01*
X55792959Y-19237400D01*
X55784201Y-19260286D01*
X55783882Y-19264767D01*
X55782164Y-19268916D01*
X55779762Y-19293302D01*
X53744047Y-19293302D01*
X53741645Y-19268916D01*
X53739926Y-19264767D01*
X53739608Y-19260286D01*
X53730851Y-19237401D01*
X53635612Y-19046924D01*
X53629004Y-19036427D01*
X53627742Y-19033380D01*
X53624925Y-19029948D01*
X53622558Y-19026187D01*
X53620063Y-19024023D01*
X53612197Y-19014438D01*
X53516959Y-18919200D01*
X53507373Y-18911333D01*
X53505210Y-18908839D01*
X53501448Y-18906471D01*
X53498017Y-18903655D01*
X53494969Y-18902392D01*
X53484473Y-18895785D01*
X53293997Y-18800547D01*
X53271111Y-18791789D01*
X53266629Y-18791470D01*
X53262481Y-18789752D01*
X53238095Y-18787350D01*
X52761904Y-18787350D01*
X52749560Y-18788565D01*
X52746270Y-18788332D01*
X52741940Y-18789316D01*
X52737518Y-18789752D01*
X52734466Y-18791015D01*
X52722376Y-18793765D01*
X52436662Y-18889003D01*
X52414287Y-18898993D01*
X52377441Y-18930948D01*
X52355629Y-18974573D01*
X52352172Y-19023222D01*
X52367595Y-19069491D01*
X52399550Y-19106337D01*
X52443175Y-19128149D01*
X52491824Y-19131606D01*
X52515718Y-19126173D01*
X52782187Y-19037350D01*
X53208587Y-19037350D01*
X53354527Y-19110320D01*
X53421077Y-19176870D01*
X53494047Y-19322810D01*
X53494047Y-19454270D01*
X53421077Y-19600210D01*
X53354526Y-19666760D01*
X53194467Y-19746790D01*
X52826825Y-19838701D01*
X52825025Y-19839344D01*
X52824126Y-19839408D01*
X52813968Y-19843294D01*
X52803750Y-19846946D01*
X52803027Y-19847481D01*
X52801241Y-19848165D01*
X52610764Y-19943404D01*
X52600267Y-19950011D01*
X52597220Y-19951274D01*
X52593788Y-19954090D01*
X52590027Y-19956458D01*
X52587863Y-19958952D01*
X52578278Y-19966819D01*
X52483040Y-20062057D01*
X52475173Y-20071642D01*
X52472679Y-20073806D01*
X52470311Y-20077567D01*
X52467495Y-20080999D01*
X52466232Y-20084046D01*
X52459625Y-20094543D01*
X52364387Y-20285019D01*
X52355629Y-20307905D01*
X52355310Y-20312386D01*
X52353592Y-20316535D01*
X52351190Y-20340921D01*
X51744047Y-20340921D01*
X51744047Y-18912350D01*
X51741645Y-18887964D01*
X51722981Y-18842904D01*
X51688493Y-18808416D01*
X51643433Y-18789752D01*
X51594661Y-18789752D01*
X51549601Y-18808416D01*
X51515113Y-18842904D01*
X51496449Y-18887964D01*
X51494047Y-18912350D01*
X51494047Y-20597127D01*
X51430639Y-20723942D01*
X51277431Y-20800547D01*
X51256694Y-20813601D01*
X51224738Y-20850446D01*
X51209314Y-20896716D01*
X50696428Y-20896716D01*
X50696428Y-19579016D01*
X50694026Y-19554630D01*
X50675362Y-19509570D01*
X50640874Y-19475082D01*
X50595814Y-19456418D01*
X50547042Y-19456418D01*
X50501982Y-19475082D01*
X50467494Y-19509570D01*
X50448830Y-19554630D01*
X50446428Y-19579016D01*
X49744047Y-19579016D01*
X49741645Y-19554630D01*
X49722981Y-19509570D01*
X49688493Y-19475082D01*
X49643433Y-19456418D01*
X49594661Y-19456418D01*
X49549601Y-19475082D01*
X49533137Y-19491545D01*
X49484473Y-19467213D01*
X49461587Y-19458455D01*
X49457105Y-19458136D01*
X49452957Y-19456418D01*
X49428571Y-19454016D01*
X49047618Y-19454016D01*
X49023232Y-19456418D01*
X49019083Y-19458136D01*
X49014602Y-19458455D01*
X48991717Y-19467212D01*
X48801240Y-19562451D01*
X48790743Y-19569058D01*
X48787696Y-19570321D01*
X48784264Y-19573137D01*
X48780503Y-19575505D01*
X48778339Y-19577999D01*
X48768754Y-19585866D01*
X48673516Y-19681104D01*
X48665649Y-19690689D01*
X48663155Y-19692853D01*
X48660787Y-19696614D01*
X48657971Y-19700046D01*
X48656708Y-19703093D01*
X48650101Y-19713590D01*
X48554862Y-19904068D01*
X48546105Y-19926953D01*
X48545786Y-19931434D01*
X48544068Y-19935583D01*
X48541666Y-19959969D01*
X46410713Y-19959969D01*
X46410713Y-18983201D01*
X50353592Y-18983201D01*
X50353592Y-19031975D01*
X50372257Y-19077034D01*
X50387802Y-19095976D01*
X50483040Y-19191214D01*
X50501976Y-19206754D01*
X50501982Y-19206760D01*
X50533843Y-19219957D01*
X50547041Y-19225424D01*
X50547042Y-19225424D01*
X50595814Y-19225424D01*
X50595815Y-19225424D01*
X50609012Y-19219957D01*
X50640874Y-19206760D01*
X50640879Y-19206754D01*
X50659816Y-19191214D01*
X50755054Y-19095976D01*
X50770599Y-19077034D01*
X50789264Y-19031975D01*
X50789264Y-18983201D01*
X50770599Y-18938142D01*
X50770598Y-18938141D01*
X50755054Y-18919200D01*
X50659816Y-18823962D01*
X50640879Y-18808421D01*
X50640874Y-18808416D01*
X50609012Y-18795218D01*
X50595815Y-18789752D01*
X50547041Y-18789752D01*
X50533843Y-18795218D01*
X50501982Y-18808416D01*
X50501976Y-18808421D01*
X50483040Y-18823962D01*
X50387802Y-18919200D01*
X50372258Y-18938141D01*
X50372257Y-18938142D01*
X50353592Y-18983201D01*
X46410713Y-18983201D01*
X46410713Y-18912350D01*
X46408311Y-18887964D01*
X46389647Y-18842904D01*
X46355159Y-18808416D01*
X46310099Y-18789752D01*
X46285713Y-18787350D01*
X45523808Y-18787350D01*
X45499422Y-18789752D01*
X45495273Y-18791470D01*
X45490792Y-18791789D01*
X45467907Y-18800546D01*
X45277430Y-18895785D01*
X45266933Y-18902392D01*
X45263886Y-18903655D01*
X45260454Y-18906471D01*
X45256693Y-18908839D01*
X45254529Y-18911333D01*
X45244944Y-18919200D01*
X45149706Y-19014438D01*
X45141839Y-19024023D01*
X45139345Y-19026187D01*
X45136977Y-19029948D01*
X45134161Y-19033380D01*
X45132898Y-19036427D01*
X45126291Y-19046924D01*
X45031053Y-19237400D01*
X45022295Y-19260286D01*
X45021976Y-19264767D01*
X45020258Y-19268916D01*
X45017856Y-19293302D01*
X40319443Y-19293302D01*
X40319443Y-18983201D01*
X44067877Y-18983201D01*
X44067877Y-19031975D01*
X44086542Y-19077034D01*
X44102087Y-19095976D01*
X44197325Y-19191214D01*
X44216261Y-19206754D01*
X44216267Y-19206760D01*
X44248128Y-19219957D01*
X44261326Y-19225424D01*
X44261327Y-19225424D01*
X44310099Y-19225424D01*
X44310100Y-19225424D01*
X44323297Y-19219957D01*
X44355159Y-19206760D01*
X44355164Y-19206754D01*
X44374101Y-19191214D01*
X44469339Y-19095976D01*
X44484884Y-19077034D01*
X44503549Y-19031975D01*
X44503549Y-18983201D01*
X44484884Y-18938142D01*
X44484883Y-18938141D01*
X44469339Y-18919200D01*
X44374101Y-18823962D01*
X44355164Y-18808421D01*
X44355159Y-18808416D01*
X44323297Y-18795218D01*
X44310100Y-18789752D01*
X44261326Y-18789752D01*
X44248128Y-18795218D01*
X44216267Y-18808416D01*
X44216261Y-18808421D01*
X44197325Y-18823962D01*
X44102087Y-18919200D01*
X44086543Y-18938141D01*
X44086542Y-18938142D01*
X44067877Y-18983201D01*
X40319443Y-18983201D01*
X40319443Y-18565128D01*
X63680556Y-18565128D01*
X63680556Y-24479460D01*
G37*
D12*
%TO.P,J1,1,Pin_1*%
%TO.N,/INTR1_6AXIS*%
X37000000Y-18840000D03*
D13*
%TO.P,J1,2,Pin_2*%
%TO.N,/INTR2_6AXIS*%
X37000000Y-21380000D03*
%TO.P,J1,3,Pin_3*%
%TO.N,/3.3V*%
X37000000Y-23920000D03*
%TO.P,J1,4,Pin_4*%
%TO.N,/EN_ToF*%
X37000000Y-26460000D03*
%TO.P,J1,5,Pin_5*%
%TO.N,/GND*%
X37000000Y-29000000D03*
%TO.P,J1,6,Pin_6*%
%TO.N,/I2C_CLK*%
X37000000Y-31540000D03*
%TO.P,J1,7,Pin_7*%
%TO.N,/I2C_DATA*%
X37000000Y-34080000D03*
%TO.P,J1,8,Pin_8*%
%TO.N,/Servo_Ctrl*%
X37000000Y-36620000D03*
%TO.P,J1,9,Pin_9*%
%TO.N,/GND*%
X37000000Y-39160000D03*
%TO.P,J1,10,Pin_10*%
%TO.N,/Servo+*%
X37000000Y-41700000D03*
%TD*%
D14*
%TO.P,J9,1,Pin_1*%
%TO.N,/Servo+*%
X42500000Y-41700000D03*
D15*
%TO.P,J9,2,Pin_2*%
%TO.N,/GND*%
X42500000Y-39160000D03*
%TO.P,J9,3,Pin_3*%
%TO.N,/Servo_Ctrl*%
X42500000Y-36620000D03*
%TD*%
D16*
%TO.N,/GND*%
X65500000Y-24000000D03*
%TD*%
D17*
%TO.N,/GND*%
X38250000Y-38250000D02*
X37910000Y-38250000D01*
X37000000Y-39160000D02*
X37660000Y-39160000D01*
X37910000Y-38250000D02*
X37000000Y-39160000D01*
X38250000Y-38250000D02*
X38500000Y-38000000D01*
X37660000Y-39160000D02*
X38500000Y-40000000D01*
%TD*%
%TA.AperFunction,Conductor*%
%TO.N,/GND*%
G36*
X66902539Y-17560185D02*
G01*
X66948294Y-17612989D01*
X66959500Y-17664500D01*
X66959500Y-42835500D01*
X66939815Y-42902539D01*
X66887011Y-42948294D01*
X66835500Y-42959500D01*
X43910040Y-42959500D01*
X43843001Y-42939815D01*
X43797246Y-42887011D01*
X43787302Y-42817853D01*
X43793858Y-42792167D01*
X43844091Y-42657482D01*
X43850500Y-42597873D01*
X43850500Y-41754708D01*
X44699692Y-41754708D01*
X66156724Y-41754708D01*
X66156724Y-38440532D01*
X44699692Y-38440532D01*
X44699692Y-41754708D01*
X43850500Y-41754708D01*
X43850499Y-40802128D01*
X43844091Y-40742517D01*
X43811315Y-40654641D01*
X43793797Y-40607671D01*
X43793793Y-40607664D01*
X43707547Y-40492455D01*
X43707544Y-40492452D01*
X43592335Y-40406206D01*
X43592328Y-40406202D01*
X43457482Y-40355908D01*
X43457483Y-40355908D01*
X43397883Y-40349501D01*
X43397881Y-40349500D01*
X43397873Y-40349500D01*
X43397865Y-40349500D01*
X43387309Y-40349500D01*
X43320270Y-40329815D01*
X43299628Y-40313181D01*
X42629408Y-39642962D01*
X42692993Y-39625925D01*
X42807007Y-39560099D01*
X42900099Y-39467007D01*
X42965925Y-39352993D01*
X42982962Y-39289408D01*
X43615270Y-39921717D01*
X43615270Y-39921716D01*
X43654622Y-39867554D01*
X43751095Y-39678217D01*
X43816757Y-39476130D01*
X43816757Y-39476127D01*
X43850000Y-39266246D01*
X43850000Y-39053753D01*
X43816757Y-38843872D01*
X43816757Y-38843869D01*
X43751095Y-38641782D01*
X43654624Y-38452449D01*
X43615270Y-38398282D01*
X43615269Y-38398282D01*
X42982962Y-39030590D01*
X42965925Y-38967007D01*
X42900099Y-38852993D01*
X42807007Y-38759901D01*
X42692993Y-38694075D01*
X42629409Y-38677037D01*
X43261716Y-38044728D01*
X43207547Y-38005373D01*
X43207547Y-38005372D01*
X43198500Y-38000763D01*
X43147706Y-37952788D01*
X43130912Y-37884966D01*
X43153451Y-37818832D01*
X43198508Y-37779793D01*
X43207816Y-37775051D01*
X43287007Y-37717515D01*
X43379786Y-37650109D01*
X43379788Y-37650106D01*
X43379792Y-37650104D01*
X43530104Y-37499792D01*
X43530106Y-37499788D01*
X43530109Y-37499786D01*
X43655048Y-37327820D01*
X43655047Y-37327820D01*
X43655051Y-37327816D01*
X43751557Y-37138412D01*
X43817246Y-36936243D01*
X43850500Y-36726287D01*
X43850500Y-36513713D01*
X43817246Y-36303757D01*
X43751557Y-36101588D01*
X43655051Y-35912184D01*
X43655049Y-35912181D01*
X43655048Y-35912179D01*
X43530109Y-35740213D01*
X43379786Y-35589890D01*
X43207820Y-35464951D01*
X43018414Y-35368444D01*
X43018413Y-35368443D01*
X43018412Y-35368443D01*
X42816243Y-35302754D01*
X42816241Y-35302753D01*
X42816240Y-35302753D01*
X42654957Y-35277208D01*
X42606287Y-35269500D01*
X42393713Y-35269500D01*
X42345042Y-35277208D01*
X42183760Y-35302753D01*
X41981585Y-35368444D01*
X41792179Y-35464951D01*
X41620213Y-35589890D01*
X41469890Y-35740213D01*
X41344951Y-35912179D01*
X41248444Y-36101585D01*
X41182753Y-36303760D01*
X41149750Y-36512133D01*
X41149500Y-36513713D01*
X41149500Y-36726287D01*
X41182754Y-36936243D01*
X41184274Y-36940922D01*
X41248444Y-37138414D01*
X41344951Y-37327820D01*
X41469890Y-37499786D01*
X41620213Y-37650109D01*
X41792179Y-37775048D01*
X41792181Y-37775049D01*
X41792184Y-37775051D01*
X41801493Y-37779794D01*
X41852290Y-37827766D01*
X41869087Y-37895587D01*
X41846552Y-37961722D01*
X41801505Y-38000760D01*
X41792446Y-38005376D01*
X41792440Y-38005380D01*
X41738282Y-38044727D01*
X41738282Y-38044728D01*
X42370591Y-38677037D01*
X42307007Y-38694075D01*
X42192993Y-38759901D01*
X42099901Y-38852993D01*
X42034075Y-38967007D01*
X42017037Y-39030591D01*
X41384728Y-38398282D01*
X41384727Y-38398282D01*
X41345380Y-38452439D01*
X41248904Y-38641782D01*
X41183242Y-38843869D01*
X41183242Y-38843872D01*
X41150000Y-39053753D01*
X41150000Y-39266246D01*
X41183242Y-39476127D01*
X41183242Y-39476130D01*
X41248904Y-39678217D01*
X41345375Y-39867550D01*
X41384728Y-39921716D01*
X42017037Y-39289408D01*
X42034075Y-39352993D01*
X42099901Y-39467007D01*
X42192993Y-39560099D01*
X42307007Y-39625925D01*
X42370590Y-39642962D01*
X41700370Y-40313181D01*
X41639047Y-40346666D01*
X41612698Y-40349500D01*
X41602134Y-40349500D01*
X41602123Y-40349501D01*
X41542516Y-40355908D01*
X41407671Y-40406202D01*
X41407664Y-40406206D01*
X41292455Y-40492452D01*
X41292452Y-40492455D01*
X41206206Y-40607664D01*
X41206202Y-40607671D01*
X41155908Y-40742517D01*
X41151380Y-40784639D01*
X41149501Y-40802123D01*
X41149500Y-40802135D01*
X41149500Y-42597870D01*
X41149501Y-42597876D01*
X41155908Y-42657483D01*
X41206142Y-42792167D01*
X41211126Y-42861859D01*
X41177641Y-42923182D01*
X41116317Y-42956666D01*
X41089960Y-42959500D01*
X38203042Y-42959500D01*
X38136003Y-42939815D01*
X38090248Y-42887011D01*
X38080304Y-42817853D01*
X38109329Y-42754297D01*
X38115361Y-42747819D01*
X38117821Y-42745359D01*
X38270359Y-42592821D01*
X38397157Y-42418299D01*
X38495092Y-42226089D01*
X38561754Y-42020926D01*
X38576752Y-41926230D01*
X38595500Y-41807866D01*
X38595500Y-41592133D01*
X38561754Y-41379077D01*
X38561754Y-41379074D01*
X38495092Y-41173911D01*
X38397157Y-40981701D01*
X38270359Y-40807179D01*
X38117821Y-40654641D01*
X37946279Y-40530008D01*
X37903614Y-40474678D01*
X37897635Y-40405064D01*
X37930241Y-40343269D01*
X37946280Y-40329372D01*
X38117491Y-40204979D01*
X38117497Y-40204974D01*
X38269974Y-40052497D01*
X38269974Y-40052496D01*
X38396728Y-39878036D01*
X38494627Y-39685901D01*
X38561266Y-39480809D01*
X38572481Y-39410000D01*
X37542709Y-39410000D01*
X37554452Y-39389661D01*
X37595000Y-39238333D01*
X37595000Y-39081667D01*
X37554452Y-38930339D01*
X37542709Y-38910000D01*
X38572481Y-38910000D01*
X38561266Y-38839190D01*
X38494627Y-38634098D01*
X38396728Y-38441963D01*
X38269974Y-38267503D01*
X38269974Y-38267502D01*
X38117497Y-38115025D01*
X37946279Y-37990627D01*
X37903614Y-37935297D01*
X37897635Y-37865683D01*
X37930241Y-37803888D01*
X37946280Y-37789991D01*
X38117821Y-37665359D01*
X38270359Y-37512821D01*
X38397157Y-37338299D01*
X38495092Y-37146089D01*
X38561754Y-36940926D01*
X38576752Y-36846230D01*
X38595500Y-36727866D01*
X38595500Y-36512133D01*
X38562496Y-36303760D01*
X38561754Y-36299074D01*
X38495092Y-36093911D01*
X38397157Y-35901701D01*
X38270359Y-35727179D01*
X38117821Y-35574641D01*
X37946704Y-35450317D01*
X37904040Y-35394988D01*
X37898061Y-35325374D01*
X37930667Y-35263580D01*
X37946702Y-35249684D01*
X38117821Y-35125359D01*
X38270359Y-34972821D01*
X38397157Y-34798299D01*
X38495092Y-34606089D01*
X38561754Y-34400926D01*
X38576752Y-34306230D01*
X38595500Y-34187866D01*
X38595500Y-33972133D01*
X38561754Y-33759077D01*
X38561754Y-33759074D01*
X38495092Y-33553911D01*
X38397157Y-33361701D01*
X38270359Y-33187179D01*
X38117821Y-33034641D01*
X37946704Y-32910317D01*
X37904040Y-32854988D01*
X37898061Y-32785374D01*
X37930667Y-32723580D01*
X37946702Y-32709684D01*
X38117821Y-32585359D01*
X38270359Y-32432821D01*
X38397157Y-32258299D01*
X38495092Y-32066089D01*
X38561754Y-31860926D01*
X38576752Y-31766230D01*
X38595500Y-31647866D01*
X38595500Y-31432133D01*
X38561754Y-31219077D01*
X38561754Y-31219074D01*
X38495092Y-31013911D01*
X38397157Y-30821701D01*
X38270359Y-30647179D01*
X38117821Y-30494641D01*
X37946279Y-30370008D01*
X37903614Y-30314678D01*
X37897635Y-30245064D01*
X37930241Y-30183269D01*
X37946280Y-30169372D01*
X38117491Y-30044979D01*
X38117497Y-30044974D01*
X38269974Y-29892497D01*
X38269974Y-29892496D01*
X38396728Y-29718036D01*
X38494627Y-29525901D01*
X38561266Y-29320809D01*
X38572481Y-29250000D01*
X37542709Y-29250000D01*
X37554452Y-29229661D01*
X37595000Y-29078333D01*
X37595000Y-28921667D01*
X37554452Y-28770339D01*
X37542709Y-28750000D01*
X38572481Y-28750000D01*
X38561266Y-28679190D01*
X38494627Y-28474098D01*
X38396728Y-28281963D01*
X38269974Y-28107503D01*
X38269974Y-28107502D01*
X38117497Y-27955025D01*
X37946279Y-27830627D01*
X37903614Y-27775297D01*
X37897635Y-27705683D01*
X37930241Y-27643888D01*
X37946280Y-27629991D01*
X38117821Y-27505359D01*
X38270359Y-27352821D01*
X38397157Y-27178299D01*
X38495092Y-26986089D01*
X38561754Y-26780926D01*
X38576752Y-26686230D01*
X38595500Y-26567866D01*
X38595500Y-26352133D01*
X38561754Y-26139077D01*
X38561754Y-26139074D01*
X38495092Y-25933911D01*
X38397157Y-25741701D01*
X38270359Y-25567179D01*
X38117821Y-25414641D01*
X37946704Y-25290317D01*
X37904040Y-25234988D01*
X37898061Y-25165374D01*
X37930667Y-25103580D01*
X37946702Y-25089684D01*
X38117821Y-24965359D01*
X38270359Y-24812821D01*
X38397157Y-24638299D01*
X38495092Y-24446089D01*
X38554363Y-24263673D01*
X40535230Y-24263673D01*
X63463334Y-24263673D01*
X63463334Y-18780915D01*
X40535230Y-18780915D01*
X40535230Y-24263673D01*
X38554363Y-24263673D01*
X38561754Y-24240926D01*
X38576752Y-24146230D01*
X38595500Y-24027866D01*
X38595500Y-23812133D01*
X38561754Y-23599077D01*
X38561754Y-23599074D01*
X38495092Y-23393911D01*
X38397157Y-23201701D01*
X38270359Y-23027179D01*
X38117821Y-22874641D01*
X37946704Y-22750317D01*
X37904040Y-22694988D01*
X37898061Y-22625374D01*
X37930667Y-22563580D01*
X37946702Y-22549684D01*
X38117821Y-22425359D01*
X38270359Y-22272821D01*
X38397157Y-22098299D01*
X38495092Y-21906089D01*
X38561754Y-21700926D01*
X38576752Y-21606230D01*
X38595500Y-21487866D01*
X38595500Y-21272133D01*
X38561754Y-21059077D01*
X38561754Y-21059074D01*
X38495092Y-20853911D01*
X38397157Y-20661701D01*
X38270359Y-20487179D01*
X38128375Y-20345195D01*
X38094890Y-20283872D01*
X38099874Y-20214180D01*
X38141746Y-20158247D01*
X38163657Y-20145129D01*
X38164322Y-20144817D01*
X38164334Y-20144814D01*
X38313656Y-20052712D01*
X38437712Y-19928656D01*
X38529814Y-19779334D01*
X38584999Y-19612797D01*
X38595500Y-19510009D01*
X38595499Y-18169992D01*
X38584999Y-18067203D01*
X38529814Y-17900666D01*
X38437712Y-17751344D01*
X38437709Y-17751341D01*
X38433234Y-17745681D01*
X38434467Y-17744705D01*
X38405064Y-17690858D01*
X38410048Y-17621166D01*
X38451920Y-17565233D01*
X38517384Y-17540816D01*
X38526230Y-17540500D01*
X66835500Y-17540500D01*
X66902539Y-17560185D01*
G37*
%TD.AperFunction*%
%TD*%
M02*
