%TF.GenerationSoftware,KiCad,Pcbnew,9.0.4*%
%TF.CreationDate,2026-03-05T01:51:45+00:00*%
%TF.ProjectId,Slip Ring Stactic Contacts V2,536c6970-2052-4696-9e67-205374616374,rev?*%
%TF.SameCoordinates,Original*%
%TF.FileFunction,Legend,Top*%
%TF.FilePolarity,Positive*%
%FSLAX46Y46*%
G04 Gerber Fmt 4.6, Leading zero omitted, Abs format (unit mm)*
G04 Created by KiCad (PCBNEW 9.0.4) date 2026-03-05 01:51:45*
%MOMM*%
%LPD*%
G01*
G04 APERTURE LIST*
%ADD10C,0.254000*%
%ADD11C,0.100000*%
G04 APERTURE END LIST*
D10*
X53204318Y-35193332D02*
X54111461Y-35193332D01*
X54111461Y-35193332D02*
X54292889Y-35253809D01*
X54292889Y-35253809D02*
X54413842Y-35374761D01*
X54413842Y-35374761D02*
X54474318Y-35556190D01*
X54474318Y-35556190D02*
X54474318Y-35677142D01*
X53204318Y-33983809D02*
X53204318Y-34588571D01*
X53204318Y-34588571D02*
X53809080Y-34649047D01*
X53809080Y-34649047D02*
X53748603Y-34588571D01*
X53748603Y-34588571D02*
X53688127Y-34467618D01*
X53688127Y-34467618D02*
X53688127Y-34165237D01*
X53688127Y-34165237D02*
X53748603Y-34044285D01*
X53748603Y-34044285D02*
X53809080Y-33983809D01*
X53809080Y-33983809D02*
X53930032Y-33923332D01*
X53930032Y-33923332D02*
X54232413Y-33923332D01*
X54232413Y-33923332D02*
X54353365Y-33983809D01*
X54353365Y-33983809D02*
X54413842Y-34044285D01*
X54413842Y-34044285D02*
X54474318Y-34165237D01*
X54474318Y-34165237D02*
X54474318Y-34467618D01*
X54474318Y-34467618D02*
X54413842Y-34588571D01*
X54413842Y-34588571D02*
X54353365Y-34649047D01*
X41804318Y-34923332D02*
X42711461Y-34923332D01*
X42711461Y-34923332D02*
X42892889Y-34983809D01*
X42892889Y-34983809D02*
X43013842Y-35104761D01*
X43013842Y-35104761D02*
X43074318Y-35286190D01*
X43074318Y-35286190D02*
X43074318Y-35407142D01*
X42348603Y-34137142D02*
X42288127Y-34258094D01*
X42288127Y-34258094D02*
X42227651Y-34318571D01*
X42227651Y-34318571D02*
X42106699Y-34379047D01*
X42106699Y-34379047D02*
X42046222Y-34379047D01*
X42046222Y-34379047D02*
X41925270Y-34318571D01*
X41925270Y-34318571D02*
X41864794Y-34258094D01*
X41864794Y-34258094D02*
X41804318Y-34137142D01*
X41804318Y-34137142D02*
X41804318Y-33895237D01*
X41804318Y-33895237D02*
X41864794Y-33774285D01*
X41864794Y-33774285D02*
X41925270Y-33713809D01*
X41925270Y-33713809D02*
X42046222Y-33653332D01*
X42046222Y-33653332D02*
X42106699Y-33653332D01*
X42106699Y-33653332D02*
X42227651Y-33713809D01*
X42227651Y-33713809D02*
X42288127Y-33774285D01*
X42288127Y-33774285D02*
X42348603Y-33895237D01*
X42348603Y-33895237D02*
X42348603Y-34137142D01*
X42348603Y-34137142D02*
X42409080Y-34258094D01*
X42409080Y-34258094D02*
X42469556Y-34318571D01*
X42469556Y-34318571D02*
X42590508Y-34379047D01*
X42590508Y-34379047D02*
X42832413Y-34379047D01*
X42832413Y-34379047D02*
X42953365Y-34318571D01*
X42953365Y-34318571D02*
X43013842Y-34258094D01*
X43013842Y-34258094D02*
X43074318Y-34137142D01*
X43074318Y-34137142D02*
X43074318Y-33895237D01*
X43074318Y-33895237D02*
X43013842Y-33774285D01*
X43013842Y-33774285D02*
X42953365Y-33713809D01*
X42953365Y-33713809D02*
X42832413Y-33653332D01*
X42832413Y-33653332D02*
X42590508Y-33653332D01*
X42590508Y-33653332D02*
X42469556Y-33713809D01*
X42469556Y-33713809D02*
X42409080Y-33774285D01*
X42409080Y-33774285D02*
X42348603Y-33895237D01*
X64604318Y-35193332D02*
X65511461Y-35193332D01*
X65511461Y-35193332D02*
X65692889Y-35253809D01*
X65692889Y-35253809D02*
X65813842Y-35374761D01*
X65813842Y-35374761D02*
X65874318Y-35556190D01*
X65874318Y-35556190D02*
X65874318Y-35677142D01*
X64725270Y-34649047D02*
X64664794Y-34588571D01*
X64664794Y-34588571D02*
X64604318Y-34467618D01*
X64604318Y-34467618D02*
X64604318Y-34165237D01*
X64604318Y-34165237D02*
X64664794Y-34044285D01*
X64664794Y-34044285D02*
X64725270Y-33983809D01*
X64725270Y-33983809D02*
X64846222Y-33923332D01*
X64846222Y-33923332D02*
X64967175Y-33923332D01*
X64967175Y-33923332D02*
X65148603Y-33983809D01*
X65148603Y-33983809D02*
X65874318Y-34709523D01*
X65874318Y-34709523D02*
X65874318Y-33923332D01*
X45604318Y-35193332D02*
X46511461Y-35193332D01*
X46511461Y-35193332D02*
X46692889Y-35253809D01*
X46692889Y-35253809D02*
X46813842Y-35374761D01*
X46813842Y-35374761D02*
X46874318Y-35556190D01*
X46874318Y-35556190D02*
X46874318Y-35677142D01*
X45604318Y-34709523D02*
X45604318Y-33862856D01*
X45604318Y-33862856D02*
X46874318Y-34407142D01*
X57004318Y-35193332D02*
X57911461Y-35193332D01*
X57911461Y-35193332D02*
X58092889Y-35253809D01*
X58092889Y-35253809D02*
X58213842Y-35374761D01*
X58213842Y-35374761D02*
X58274318Y-35556190D01*
X58274318Y-35556190D02*
X58274318Y-35677142D01*
X57427651Y-34044285D02*
X58274318Y-34044285D01*
X56943842Y-34346666D02*
X57850984Y-34649047D01*
X57850984Y-34649047D02*
X57850984Y-33862856D01*
X60804318Y-35193332D02*
X61711461Y-35193332D01*
X61711461Y-35193332D02*
X61892889Y-35253809D01*
X61892889Y-35253809D02*
X62013842Y-35374761D01*
X62013842Y-35374761D02*
X62074318Y-35556190D01*
X62074318Y-35556190D02*
X62074318Y-35677142D01*
X60804318Y-34709523D02*
X60804318Y-33923332D01*
X60804318Y-33923332D02*
X61288127Y-34346666D01*
X61288127Y-34346666D02*
X61288127Y-34165237D01*
X61288127Y-34165237D02*
X61348603Y-34044285D01*
X61348603Y-34044285D02*
X61409080Y-33983809D01*
X61409080Y-33983809D02*
X61530032Y-33923332D01*
X61530032Y-33923332D02*
X61832413Y-33923332D01*
X61832413Y-33923332D02*
X61953365Y-33983809D01*
X61953365Y-33983809D02*
X62013842Y-34044285D01*
X62013842Y-34044285D02*
X62074318Y-34165237D01*
X62074318Y-34165237D02*
X62074318Y-34528094D01*
X62074318Y-34528094D02*
X62013842Y-34649047D01*
X62013842Y-34649047D02*
X61953365Y-34709523D01*
X49404318Y-35193332D02*
X50311461Y-35193332D01*
X50311461Y-35193332D02*
X50492889Y-35253809D01*
X50492889Y-35253809D02*
X50613842Y-35374761D01*
X50613842Y-35374761D02*
X50674318Y-35556190D01*
X50674318Y-35556190D02*
X50674318Y-35677142D01*
X49404318Y-34044285D02*
X49404318Y-34286190D01*
X49404318Y-34286190D02*
X49464794Y-34407142D01*
X49464794Y-34407142D02*
X49525270Y-34467618D01*
X49525270Y-34467618D02*
X49706699Y-34588571D01*
X49706699Y-34588571D02*
X49948603Y-34649047D01*
X49948603Y-34649047D02*
X50432413Y-34649047D01*
X50432413Y-34649047D02*
X50553365Y-34588571D01*
X50553365Y-34588571D02*
X50613842Y-34528094D01*
X50613842Y-34528094D02*
X50674318Y-34407142D01*
X50674318Y-34407142D02*
X50674318Y-34165237D01*
X50674318Y-34165237D02*
X50613842Y-34044285D01*
X50613842Y-34044285D02*
X50553365Y-33983809D01*
X50553365Y-33983809D02*
X50432413Y-33923332D01*
X50432413Y-33923332D02*
X50130032Y-33923332D01*
X50130032Y-33923332D02*
X50009080Y-33983809D01*
X50009080Y-33983809D02*
X49948603Y-34044285D01*
X49948603Y-34044285D02*
X49888127Y-34165237D01*
X49888127Y-34165237D02*
X49888127Y-34407142D01*
X49888127Y-34407142D02*
X49948603Y-34528094D01*
X49948603Y-34528094D02*
X50009080Y-34588571D01*
X50009080Y-34588571D02*
X50130032Y-34649047D01*
D11*
%TO.C,J5*%
X52750000Y-33270000D02*
X52750000Y-32770000D01*
X55050000Y-32770000D02*
X55050000Y-33270000D01*
X55050000Y-33270000D02*
X52750000Y-33270000D01*
%TO.C,J8*%
X41350000Y-33270000D02*
X41350000Y-32770000D01*
X43650000Y-32770000D02*
X43650000Y-33270000D01*
X43650000Y-33270000D02*
X41350000Y-33270000D01*
%TO.C,J2*%
X64150000Y-33270000D02*
X64150000Y-32770000D01*
X66450000Y-32770000D02*
X66450000Y-33270000D01*
X66450000Y-33270000D02*
X64150000Y-33270000D01*
%TO.C,J7*%
X45150000Y-33270000D02*
X45150000Y-32770000D01*
X47450000Y-32770000D02*
X47450000Y-33270000D01*
X47450000Y-33270000D02*
X45150000Y-33270000D01*
%TO.C,J4*%
X56550000Y-33270000D02*
X56550000Y-32770000D01*
X58850000Y-32770000D02*
X58850000Y-33270000D01*
X58850000Y-33270000D02*
X56550000Y-33270000D01*
%TO.C,J3*%
X60350000Y-33270000D02*
X60350000Y-32770000D01*
X62650000Y-32770000D02*
X62650000Y-33270000D01*
X62650000Y-33270000D02*
X60350000Y-33270000D01*
%TO.C,J6*%
X48950000Y-33270000D02*
X48950000Y-32770000D01*
X51250000Y-32770000D02*
X51250000Y-33270000D01*
X51250000Y-33270000D02*
X48950000Y-33270000D01*
%TD*%
M02*
