%TF.GenerationSoftware,KiCad,Pcbnew,9.0.4*%
%TF.CreationDate,2026-03-05T01:51:45+00:00*%
%TF.ProjectId,Slip Ring Stactic Contacts V2,536c6970-2052-4696-9e67-205374616374,rev?*%
%TF.SameCoordinates,Original*%
%TF.FileFunction,Copper,L1,Top*%
%TF.FilePolarity,Positive*%
%FSLAX46Y46*%
G04 Gerber Fmt 4.6, Leading zero omitted, Abs format (unit mm)*
G04 Created by KiCad (PCBNEW 9.0.4) date 2026-03-05 01:51:45*
%MOMM*%
%LPD*%
G01*
G04 APERTURE LIST*
G04 Aperture macros list*
%AMRoundRect*
0 Rectangle with rounded corners*
0 $1 Rounding radius*
0 $2 $3 $4 $5 $6 $7 $8 $9 X,Y pos of 4 corners*
0 Add a 4 corners polygon primitive as box body*
4,1,4,$2,$3,$4,$5,$6,$7,$8,$9,$2,$3,0*
0 Add four circle primitives for the rounded corners*
1,1,$1+$1,$2,$3*
1,1,$1+$1,$4,$5*
1,1,$1+$1,$6,$7*
1,1,$1+$1,$8,$9*
0 Add four rect primitives between the rounded corners*
20,1,$1+$1,$2,$3,$4,$5,0*
20,1,$1+$1,$4,$5,$6,$7,0*
20,1,$1+$1,$6,$7,$8,$9,0*
20,1,$1+$1,$8,$9,$2,$3,0*%
G04 Aperture macros list end*
%ADD10C,0.250000*%
%TA.AperFunction,SMDPad,CuDef*%
%ADD11R,2.800000X3.300000*%
%TD*%
%TA.AperFunction,ComponentPad*%
%ADD12RoundRect,0.250000X-0.845000X0.620000X-0.845000X-0.620000X0.845000X-0.620000X0.845000X0.620000X0*%
%TD*%
%TA.AperFunction,ComponentPad*%
%ADD13O,2.190000X1.740000*%
%TD*%
%TA.AperFunction,ComponentPad*%
%ADD14R,1.700000X1.700000*%
%TD*%
%TA.AperFunction,ComponentPad*%
%ADD15C,1.700000*%
%TD*%
%TA.AperFunction,ViaPad*%
%ADD16C,2.000000*%
%TD*%
%TA.AperFunction,Conductor*%
%ADD17C,0.600000*%
%TD*%
G04 APERTURE END LIST*
D10*
G36*
X47917306Y-40797311D02*
G01*
X47980714Y-40924127D01*
X47980714Y-40982619D01*
X47278333Y-41123095D01*
X47278333Y-40924127D01*
X47341741Y-40797310D01*
X47468555Y-40733904D01*
X47790492Y-40733904D01*
X47917306Y-40797311D01*
G37*
G36*
X49695000Y-41769745D02*
G01*
X49600016Y-41817238D01*
X49182841Y-41817238D01*
X49056027Y-41753831D01*
X48992619Y-41627014D01*
X48992619Y-41495555D01*
X49056026Y-41368740D01*
X49182841Y-41305333D01*
X49629524Y-41305333D01*
X49653910Y-41302931D01*
X49658058Y-41301212D01*
X49662540Y-41300894D01*
X49685426Y-41292136D01*
X49695000Y-41287349D01*
X49695000Y-41769745D01*
G37*
G36*
X49038191Y-36926841D02*
G01*
X49193458Y-37082109D01*
X49273487Y-37242167D01*
X49361666Y-37594881D01*
X49361666Y-37849818D01*
X49273487Y-38202532D01*
X49193458Y-38362589D01*
X49038189Y-38517859D01*
X48799716Y-38597350D01*
X48468809Y-38597350D01*
X48468809Y-36847350D01*
X48799716Y-36847350D01*
X49038191Y-36926841D01*
G37*
G36*
X51222146Y-36920320D02*
G01*
X51288696Y-36986870D01*
X51361666Y-37132810D01*
X51361666Y-37359508D01*
X51288696Y-37505446D01*
X51222144Y-37571999D01*
X51076206Y-37644969D01*
X50468809Y-37644969D01*
X50468809Y-36847350D01*
X51076206Y-36847350D01*
X51222146Y-36920320D01*
G37*
G36*
X56450823Y-42289460D02*
G01*
X45094227Y-42289460D01*
X45094227Y-39917852D01*
X45316449Y-39917852D01*
X45316449Y-39966624D01*
X45335113Y-40011684D01*
X45369601Y-40046172D01*
X45414661Y-40064836D01*
X45439047Y-40067238D01*
X45885475Y-40067238D01*
X45885475Y-41942238D01*
X45887877Y-41966624D01*
X45906541Y-42011684D01*
X45941029Y-42046172D01*
X45986089Y-42064836D01*
X46034861Y-42064836D01*
X46079921Y-42046172D01*
X46114409Y-42011684D01*
X46133073Y-41966624D01*
X46135475Y-41942238D01*
X46135475Y-40894619D01*
X47028333Y-40894619D01*
X47028333Y-41656523D01*
X47030735Y-41680909D01*
X47032453Y-41685057D01*
X47032772Y-41689539D01*
X47041529Y-41712424D01*
X47136768Y-41902902D01*
X47139334Y-41906978D01*
X47139976Y-41908904D01*
X47142055Y-41911302D01*
X47149822Y-41923639D01*
X47161662Y-41933908D01*
X47171932Y-41945749D01*
X47184268Y-41953515D01*
X47186667Y-41955595D01*
X47188592Y-41956236D01*
X47192669Y-41958803D01*
X47383146Y-42054042D01*
X47406031Y-42062799D01*
X47410512Y-42063117D01*
X47414661Y-42064836D01*
X47439047Y-42067238D01*
X47820000Y-42067238D01*
X47844386Y-42064836D01*
X47848534Y-42063117D01*
X47853016Y-42062799D01*
X47875902Y-42054041D01*
X48066378Y-41958803D01*
X48087115Y-41945749D01*
X48119071Y-41908904D01*
X48134495Y-41862634D01*
X48131037Y-41813984D01*
X48109226Y-41770361D01*
X48072381Y-41738405D01*
X48026110Y-41722981D01*
X47977460Y-41726439D01*
X47954575Y-41735196D01*
X47790492Y-41817238D01*
X47468555Y-41817238D01*
X47341741Y-41753831D01*
X47278333Y-41627014D01*
X47278333Y-41466047D01*
X48742619Y-41466047D01*
X48742619Y-41656523D01*
X48745021Y-41680909D01*
X48746739Y-41685057D01*
X48747058Y-41689539D01*
X48755815Y-41712424D01*
X48851054Y-41902902D01*
X48853620Y-41906978D01*
X48854262Y-41908904D01*
X48856341Y-41911302D01*
X48864108Y-41923639D01*
X48875948Y-41933908D01*
X48886218Y-41945749D01*
X48898554Y-41953515D01*
X48900953Y-41955595D01*
X48902878Y-41956236D01*
X48906955Y-41958803D01*
X49097432Y-42054042D01*
X49120317Y-42062799D01*
X49124798Y-42063117D01*
X49128947Y-42064836D01*
X49153333Y-42067238D01*
X49629524Y-42067238D01*
X49653910Y-42064836D01*
X49658058Y-42063117D01*
X49662540Y-42062799D01*
X49685426Y-42054041D01*
X49734090Y-42029708D01*
X49750554Y-42046172D01*
X49795614Y-42064836D01*
X49844386Y-42064836D01*
X49889446Y-42046172D01*
X49923934Y-42011684D01*
X49942598Y-41966624D01*
X49945000Y-41942238D01*
X49945000Y-40894619D01*
X49942598Y-40870233D01*
X49940879Y-40866083D01*
X49940561Y-40861604D01*
X49931804Y-40838718D01*
X49836566Y-40648241D01*
X49833998Y-40644162D01*
X49833357Y-40642238D01*
X49831277Y-40639840D01*
X49823511Y-40627503D01*
X49811670Y-40617233D01*
X49804446Y-40608904D01*
X50647381Y-40608904D01*
X50647381Y-41942238D01*
X50649783Y-41966624D01*
X50668447Y-42011684D01*
X50702935Y-42046172D01*
X50747995Y-42064836D01*
X50796767Y-42064836D01*
X50841827Y-42046172D01*
X50876315Y-42011684D01*
X50894979Y-41966624D01*
X50897381Y-41942238D01*
X50897381Y-40851156D01*
X50941663Y-40806874D01*
X51087603Y-40733904D01*
X51314302Y-40733904D01*
X51441116Y-40797311D01*
X51504524Y-40924127D01*
X51504524Y-41942238D01*
X51506926Y-41966624D01*
X51525590Y-42011684D01*
X51560078Y-42046172D01*
X51605138Y-42064836D01*
X51653910Y-42064836D01*
X51698970Y-42046172D01*
X51733458Y-42011684D01*
X51752122Y-41966624D01*
X51754524Y-41942238D01*
X51754524Y-40924127D01*
X51817932Y-40797310D01*
X51944746Y-40733904D01*
X52171443Y-40733904D01*
X52298259Y-40797311D01*
X52361667Y-40924127D01*
X52361667Y-41942238D01*
X52364069Y-41966624D01*
X52382733Y-42011684D01*
X52417221Y-42046172D01*
X52462281Y-42064836D01*
X52511053Y-42064836D01*
X52556113Y-42046172D01*
X52590601Y-42011684D01*
X52609265Y-41966624D01*
X52611667Y-41942238D01*
X52611667Y-40894619D01*
X52609265Y-40870233D01*
X52607546Y-40866083D01*
X52607228Y-40861604D01*
X52598471Y-40838718D01*
X52503233Y-40648241D01*
X52500665Y-40644162D01*
X52500024Y-40642238D01*
X52497944Y-40639840D01*
X52490178Y-40627503D01*
X52478337Y-40617233D01*
X52468068Y-40605393D01*
X52455731Y-40597626D01*
X52453333Y-40595547D01*
X52451407Y-40594905D01*
X52447331Y-40592339D01*
X52256853Y-40497100D01*
X52233968Y-40488343D01*
X52229486Y-40488024D01*
X52225338Y-40486306D01*
X52200952Y-40483904D01*
X51915238Y-40483904D01*
X51890852Y-40486306D01*
X51886703Y-40488024D01*
X51882222Y-40488343D01*
X51859337Y-40497100D01*
X51668860Y-40592339D01*
X51664783Y-40594905D01*
X51662858Y-40595547D01*
X51660459Y-40597626D01*
X51648123Y-40605393D01*
X51637853Y-40617233D01*
X51629524Y-40624457D01*
X51621194Y-40617233D01*
X51610925Y-40605393D01*
X51598588Y-40597626D01*
X51596190Y-40595547D01*
X51594264Y-40594905D01*
X51590188Y-40592339D01*
X51399712Y-40497101D01*
X51376826Y-40488343D01*
X51372344Y-40488024D01*
X51368196Y-40486306D01*
X51343810Y-40483904D01*
X51058095Y-40483904D01*
X51033709Y-40486306D01*
X51029560Y-40488024D01*
X51025079Y-40488343D01*
X51002194Y-40497100D01*
X50883377Y-40556508D01*
X50876315Y-40539458D01*
X50841827Y-40504970D01*
X50796767Y-40486306D01*
X50747995Y-40486306D01*
X50702935Y-40504970D01*
X50668447Y-40539458D01*
X50649783Y-40584518D01*
X50647381Y-40608904D01*
X49804446Y-40608904D01*
X49801401Y-40605393D01*
X49789064Y-40597626D01*
X49786666Y-40595547D01*
X49784740Y-40594905D01*
X49780664Y-40592339D01*
X49590188Y-40497101D01*
X49567302Y-40488343D01*
X49562820Y-40488024D01*
X49558672Y-40486306D01*
X49534286Y-40483904D01*
X49153333Y-40483904D01*
X49128947Y-40486306D01*
X49124798Y-40488024D01*
X49120317Y-40488343D01*
X49097432Y-40497100D01*
X48906955Y-40592339D01*
X48886218Y-40605393D01*
X48854262Y-40642238D01*
X48838838Y-40688508D01*
X48842296Y-40737158D01*
X48864108Y-40780781D01*
X48900953Y-40812737D01*
X48947223Y-40828161D01*
X48995873Y-40824703D01*
X49018759Y-40815945D01*
X49182841Y-40733904D01*
X49504778Y-40733904D01*
X49631592Y-40797311D01*
X49695000Y-40924127D01*
X49695000Y-41007840D01*
X49600016Y-41055333D01*
X49153333Y-41055333D01*
X49128947Y-41057735D01*
X49124798Y-41059453D01*
X49120317Y-41059772D01*
X49097432Y-41068529D01*
X48906955Y-41163768D01*
X48902878Y-41166334D01*
X48900953Y-41166976D01*
X48898554Y-41169055D01*
X48886218Y-41176822D01*
X48875948Y-41188662D01*
X48864108Y-41198932D01*
X48856341Y-41211268D01*
X48854262Y-41213667D01*
X48853620Y-41215592D01*
X48851054Y-41219669D01*
X48755816Y-41410145D01*
X48747058Y-41433031D01*
X48746739Y-41437512D01*
X48745021Y-41441661D01*
X48742619Y-41466047D01*
X47278333Y-41466047D01*
X47278333Y-41378046D01*
X48130229Y-41207668D01*
X48153670Y-41200530D01*
X48163845Y-41193715D01*
X48175160Y-41189029D01*
X48183910Y-41180278D01*
X48194195Y-41173391D01*
X48200988Y-41163200D01*
X48209648Y-41154541D01*
X48214384Y-41143106D01*
X48221249Y-41132809D01*
X48223625Y-41120795D01*
X48228312Y-41109481D01*
X48230714Y-41085095D01*
X48230714Y-40894619D01*
X48228312Y-40870233D01*
X48226593Y-40866083D01*
X48226275Y-40861604D01*
X48217518Y-40838718D01*
X48122280Y-40648241D01*
X48119712Y-40644162D01*
X48119071Y-40642238D01*
X48116991Y-40639840D01*
X48109225Y-40627503D01*
X48097384Y-40617233D01*
X48087115Y-40605393D01*
X48074778Y-40597626D01*
X48072380Y-40595547D01*
X48070454Y-40594905D01*
X48066378Y-40592339D01*
X47875902Y-40497101D01*
X47853016Y-40488343D01*
X47848534Y-40488024D01*
X47844386Y-40486306D01*
X47820000Y-40483904D01*
X47439047Y-40483904D01*
X47414661Y-40486306D01*
X47410512Y-40488024D01*
X47406031Y-40488343D01*
X47383146Y-40497100D01*
X47192669Y-40592339D01*
X47188592Y-40594905D01*
X47186667Y-40595547D01*
X47184268Y-40597626D01*
X47171932Y-40605393D01*
X47161662Y-40617233D01*
X47149822Y-40627503D01*
X47142055Y-40639839D01*
X47139976Y-40642238D01*
X47139334Y-40644163D01*
X47136768Y-40648240D01*
X47041529Y-40838718D01*
X47032772Y-40861603D01*
X47032453Y-40866084D01*
X47030735Y-40870233D01*
X47028333Y-40894619D01*
X46135475Y-40894619D01*
X46135475Y-40067238D01*
X46581904Y-40067238D01*
X46606290Y-40064836D01*
X46651350Y-40046172D01*
X46685838Y-40011684D01*
X46704502Y-39966624D01*
X46704502Y-39917852D01*
X54649784Y-39917852D01*
X54649784Y-39966624D01*
X54668448Y-40011684D01*
X54702936Y-40046172D01*
X54747996Y-40064836D01*
X54772382Y-40067238D01*
X55916148Y-40067238D01*
X55133679Y-41892998D01*
X55126281Y-41916359D01*
X55125685Y-41965127D01*
X55143799Y-42010412D01*
X55177864Y-42045317D01*
X55222693Y-42064529D01*
X55271461Y-42065125D01*
X55316746Y-42047011D01*
X55351651Y-42012946D01*
X55363465Y-41991478D01*
X56220608Y-39991478D01*
X56228006Y-39968118D01*
X56228015Y-39967342D01*
X56228313Y-39966624D01*
X56228313Y-39942954D01*
X56228601Y-39919349D01*
X56228313Y-39918629D01*
X56228313Y-39917852D01*
X56219249Y-39895969D01*
X56210487Y-39874064D01*
X56209946Y-39873510D01*
X56209649Y-39872792D01*
X56192908Y-39856051D01*
X56176423Y-39839159D01*
X56175710Y-39838853D01*
X56175161Y-39838304D01*
X56153281Y-39829241D01*
X56131594Y-39819947D01*
X56130819Y-39819937D01*
X56130101Y-39819640D01*
X56105715Y-39817238D01*
X54772382Y-39817238D01*
X54747996Y-39819640D01*
X54702936Y-39838304D01*
X54668448Y-39872792D01*
X54649784Y-39917852D01*
X46704502Y-39917852D01*
X46685838Y-39872792D01*
X46651350Y-39838304D01*
X46606290Y-39819640D01*
X46581904Y-39817238D01*
X45439047Y-39817238D01*
X45414661Y-39819640D01*
X45369601Y-39838304D01*
X45335113Y-39872792D01*
X45316449Y-39917852D01*
X45094227Y-39917852D01*
X45094227Y-36697964D01*
X46411687Y-36697964D01*
X46411687Y-36746736D01*
X46430351Y-36791796D01*
X46464839Y-36826284D01*
X46509899Y-36844948D01*
X46534285Y-36847350D01*
X46980713Y-36847350D01*
X46980713Y-38722350D01*
X46983115Y-38746736D01*
X47001779Y-38791796D01*
X47036267Y-38826284D01*
X47081327Y-38844948D01*
X47130099Y-38844948D01*
X47175159Y-38826284D01*
X47209647Y-38791796D01*
X47228311Y-38746736D01*
X47230713Y-38722350D01*
X47230713Y-36847350D01*
X47677142Y-36847350D01*
X47701528Y-36844948D01*
X47746588Y-36826284D01*
X47781076Y-36791796D01*
X47799740Y-36746736D01*
X47799740Y-36722350D01*
X48218809Y-36722350D01*
X48218809Y-38722350D01*
X48221211Y-38746736D01*
X48239875Y-38791796D01*
X48274363Y-38826284D01*
X48319423Y-38844948D01*
X48343809Y-38847350D01*
X48819999Y-38847350D01*
X48832342Y-38846134D01*
X48835633Y-38846368D01*
X48839962Y-38845383D01*
X48844385Y-38844948D01*
X48847436Y-38843684D01*
X48859527Y-38840935D01*
X49145242Y-38745697D01*
X49167617Y-38735707D01*
X49171009Y-38732764D01*
X49175161Y-38731045D01*
X49194103Y-38715500D01*
X49384578Y-38525023D01*
X49392444Y-38515437D01*
X49394939Y-38513274D01*
X49397306Y-38509512D01*
X49400123Y-38506081D01*
X49401385Y-38503033D01*
X49407993Y-38492537D01*
X49503232Y-38302060D01*
X49503915Y-38300273D01*
X49504451Y-38299551D01*
X49508102Y-38289332D01*
X49511989Y-38279175D01*
X49512052Y-38278275D01*
X49512696Y-38276476D01*
X49607934Y-37895524D01*
X49608559Y-37891294D01*
X49609264Y-37889593D01*
X49610168Y-37880413D01*
X49611518Y-37871284D01*
X49611246Y-37869461D01*
X49611666Y-37865207D01*
X49611666Y-37579492D01*
X49611246Y-37575237D01*
X49611518Y-37573415D01*
X49610168Y-37564285D01*
X49609264Y-37555106D01*
X49608559Y-37553404D01*
X49607934Y-37549175D01*
X49512696Y-37168223D01*
X49512052Y-37166423D01*
X49511989Y-37165524D01*
X49508102Y-37155366D01*
X49504451Y-37145148D01*
X49503915Y-37144425D01*
X49503232Y-37142639D01*
X49407993Y-36952162D01*
X49401388Y-36941669D01*
X49400124Y-36938618D01*
X49397303Y-36935181D01*
X49394939Y-36931425D01*
X49392447Y-36929264D01*
X49384579Y-36919676D01*
X49194102Y-36729200D01*
X49185755Y-36722350D01*
X50218809Y-36722350D01*
X50218809Y-38722350D01*
X50221211Y-38746736D01*
X50239875Y-38791796D01*
X50274363Y-38826284D01*
X50319423Y-38844948D01*
X50368195Y-38844948D01*
X50413255Y-38826284D01*
X50447743Y-38791796D01*
X50466407Y-38746736D01*
X50468809Y-38722350D01*
X50468809Y-37894969D01*
X51105714Y-37894969D01*
X51130100Y-37892567D01*
X51134248Y-37890848D01*
X51138730Y-37890530D01*
X51161616Y-37881772D01*
X51352092Y-37786534D01*
X51362586Y-37779927D01*
X51365637Y-37778664D01*
X51369071Y-37775845D01*
X51372829Y-37773480D01*
X51374990Y-37770988D01*
X51384579Y-37763119D01*
X51479817Y-37667880D01*
X51487685Y-37658291D01*
X51490177Y-37656131D01*
X51492541Y-37652374D01*
X51495362Y-37648938D01*
X51496626Y-37645886D01*
X51503231Y-37635394D01*
X51598470Y-37444917D01*
X51607227Y-37422032D01*
X51607545Y-37417550D01*
X51609264Y-37413402D01*
X51611666Y-37389016D01*
X51611666Y-37103302D01*
X51609264Y-37078916D01*
X51607545Y-37074767D01*
X51607227Y-37070286D01*
X51598470Y-37047401D01*
X51503231Y-36856924D01*
X51496623Y-36846427D01*
X51495361Y-36843380D01*
X51492544Y-36839948D01*
X51490177Y-36836187D01*
X51487682Y-36834023D01*
X51479816Y-36824438D01*
X51384578Y-36729200D01*
X51374992Y-36721333D01*
X51372829Y-36718839D01*
X51369067Y-36716471D01*
X51365636Y-36713655D01*
X51362588Y-36712392D01*
X51352092Y-36705785D01*
X51336450Y-36697964D01*
X53554545Y-36697964D01*
X53554545Y-36746736D01*
X53573209Y-36791796D01*
X53607697Y-36826284D01*
X53652757Y-36844948D01*
X53677143Y-36847350D01*
X54639767Y-36847350D01*
X54154499Y-37401941D01*
X54146963Y-37412481D01*
X54144637Y-37414808D01*
X54143723Y-37417013D01*
X54140248Y-37421875D01*
X54133741Y-37441113D01*
X54125973Y-37459868D01*
X54125973Y-37464081D01*
X54124622Y-37468076D01*
X54125973Y-37488337D01*
X54125973Y-37508640D01*
X54127586Y-37512535D01*
X54127867Y-37516742D01*
X54136866Y-37534940D01*
X54144637Y-37553700D01*
X54147618Y-37556681D01*
X54149487Y-37560460D01*
X54164767Y-37573830D01*
X54179125Y-37588188D01*
X54183019Y-37589801D01*
X54186192Y-37592577D01*
X54205430Y-37599083D01*
X54224185Y-37606852D01*
X54230129Y-37607437D01*
X54232393Y-37608203D01*
X54235677Y-37607983D01*
X54248571Y-37609254D01*
X54504778Y-37609254D01*
X54650716Y-37682223D01*
X54717268Y-37748776D01*
X54790238Y-37894715D01*
X54790238Y-38311889D01*
X54717268Y-38457827D01*
X54650716Y-38524380D01*
X54504778Y-38597350D01*
X53992365Y-38597350D01*
X53846427Y-38524381D01*
X53765532Y-38443485D01*
X53746590Y-38427940D01*
X53701530Y-38409275D01*
X53652757Y-38409275D01*
X53607697Y-38427939D01*
X53573210Y-38462426D01*
X53554545Y-38507486D01*
X53554545Y-38556259D01*
X53573209Y-38601319D01*
X53588754Y-38620261D01*
X53683992Y-38715500D01*
X53693580Y-38723369D01*
X53695742Y-38725861D01*
X53699499Y-38728226D01*
X53702934Y-38731045D01*
X53705984Y-38732308D01*
X53716479Y-38738915D01*
X53906956Y-38834154D01*
X53929841Y-38842911D01*
X53934322Y-38843229D01*
X53938471Y-38844948D01*
X53962857Y-38847350D01*
X54534286Y-38847350D01*
X54558672Y-38844948D01*
X54562820Y-38843229D01*
X54567302Y-38842911D01*
X54590188Y-38834153D01*
X54780664Y-38738915D01*
X54791158Y-38732308D01*
X54794209Y-38731045D01*
X54797643Y-38728226D01*
X54801401Y-38725861D01*
X54803562Y-38723369D01*
X54813151Y-38715500D01*
X54908389Y-38620261D01*
X54916257Y-38610672D01*
X54918749Y-38608512D01*
X54921113Y-38604755D01*
X54923934Y-38601319D01*
X54925198Y-38598267D01*
X54931803Y-38587775D01*
X55027042Y-38397298D01*
X55035799Y-38374413D01*
X55036117Y-38369931D01*
X55037836Y-38365783D01*
X55040238Y-38341397D01*
X55040238Y-37865207D01*
X55037836Y-37840821D01*
X55036117Y-37836672D01*
X55035799Y-37832191D01*
X55027042Y-37809306D01*
X54931803Y-37618829D01*
X54925198Y-37608336D01*
X54923934Y-37605285D01*
X54921113Y-37601848D01*
X54918749Y-37598092D01*
X54916257Y-37595931D01*
X54908389Y-37586343D01*
X54813151Y-37491104D01*
X54803562Y-37483234D01*
X54801401Y-37480743D01*
X54797643Y-37478377D01*
X54794209Y-37475559D01*
X54791158Y-37474295D01*
X54780664Y-37467689D01*
X54590188Y-37372451D01*
X54567302Y-37363693D01*
X54562820Y-37363374D01*
X54558672Y-37361656D01*
X54534286Y-37359254D01*
X54524042Y-37359254D01*
X55009310Y-36804664D01*
X55016844Y-36794123D01*
X55019172Y-36791796D01*
X55020086Y-36789588D01*
X55023560Y-36784729D01*
X55030062Y-36765503D01*
X55037836Y-36746736D01*
X55037836Y-36742519D01*
X55039186Y-36738528D01*
X55037836Y-36718275D01*
X55037836Y-36697964D01*
X55036222Y-36694068D01*
X55035942Y-36689863D01*
X55026945Y-36671672D01*
X55019172Y-36652904D01*
X55016188Y-36649920D01*
X55014321Y-36646144D01*
X54999049Y-36632781D01*
X54984684Y-36618416D01*
X54980787Y-36616801D01*
X54977617Y-36614028D01*
X54958393Y-36607526D01*
X54939624Y-36599752D01*
X54933673Y-36599165D01*
X54931415Y-36598402D01*
X54928136Y-36598620D01*
X54915238Y-36597350D01*
X53677143Y-36597350D01*
X53652757Y-36599752D01*
X53607697Y-36618416D01*
X53573209Y-36652904D01*
X53554545Y-36697964D01*
X51336450Y-36697964D01*
X51161616Y-36610547D01*
X51138730Y-36601789D01*
X51134248Y-36601470D01*
X51130100Y-36599752D01*
X51105714Y-36597350D01*
X50343809Y-36597350D01*
X50319423Y-36599752D01*
X50274363Y-36618416D01*
X50239875Y-36652904D01*
X50221211Y-36697964D01*
X50218809Y-36722350D01*
X49185755Y-36722350D01*
X49175160Y-36713655D01*
X49171010Y-36711936D01*
X49167617Y-36708993D01*
X49145242Y-36699003D01*
X48859527Y-36603765D01*
X48847436Y-36601015D01*
X48844385Y-36599752D01*
X48839962Y-36599316D01*
X48835633Y-36598332D01*
X48832342Y-36598565D01*
X48819999Y-36597350D01*
X48343809Y-36597350D01*
X48319423Y-36599752D01*
X48274363Y-36618416D01*
X48239875Y-36652904D01*
X48221211Y-36697964D01*
X48218809Y-36722350D01*
X47799740Y-36722350D01*
X47799740Y-36697964D01*
X47781076Y-36652904D01*
X47746588Y-36618416D01*
X47701528Y-36599752D01*
X47677142Y-36597350D01*
X46534285Y-36597350D01*
X46509899Y-36599752D01*
X46464839Y-36618416D01*
X46430351Y-36652904D01*
X46411687Y-36697964D01*
X45094227Y-36697964D01*
X45094227Y-36375128D01*
X56450823Y-36375128D01*
X56450823Y-42289460D01*
G37*
D11*
%TO.P,J5,1,Pin_1*%
%TO.N,/EN_ToF*%
X53900000Y-30270000D03*
%TD*%
%TO.P,J8,1,Pin_1*%
%TO.N,/I2C_DATA*%
X42500000Y-30270000D03*
%TD*%
%TO.P,J2,1,Pin_1*%
%TO.N,/INTR1_6AXIS*%
X65300000Y-30270000D03*
%TD*%
%TO.P,J7,1,Pin_1*%
%TO.N,/I2C_CLK*%
X46300000Y-30270000D03*
%TD*%
%TO.P,J4,1,Pin_1*%
%TO.N,/3.3V*%
X57700000Y-30270000D03*
%TD*%
%TO.P,J3,1,Pin_1*%
%TO.N,/INTR2_6AXIS*%
X61500000Y-30270000D03*
%TD*%
%TO.P,J6,1,Pin_1*%
%TO.N,/GND*%
X50100000Y-30270000D03*
%TD*%
D12*
%TO.P,J1,1,Pin_1*%
%TO.N,/INTR1_6AXIS*%
X37000000Y-18840000D03*
D13*
%TO.P,J1,2,Pin_2*%
%TO.N,/INTR2_6AXIS*%
X37000000Y-21380000D03*
%TO.P,J1,3,Pin_3*%
%TO.N,/3.3V*%
X37000000Y-23920000D03*
%TO.P,J1,4,Pin_4*%
%TO.N,/EN_ToF*%
X37000000Y-26460000D03*
%TO.P,J1,5,Pin_5*%
%TO.N,/GND*%
X37000000Y-29000000D03*
%TO.P,J1,6,Pin_6*%
%TO.N,/I2C_CLK*%
X37000000Y-31540000D03*
%TO.P,J1,7,Pin_7*%
%TO.N,/I2C_DATA*%
X37000000Y-34080000D03*
%TO.P,J1,8,Pin_8*%
%TO.N,/Servo_Ctrl*%
X37000000Y-36620000D03*
%TO.P,J1,9,Pin_9*%
%TO.N,/GND*%
X37000000Y-39160000D03*
%TO.P,J1,10,Pin_10*%
%TO.N,/Servo+*%
X37000000Y-41700000D03*
%TD*%
D14*
%TO.P,J9,1,Pin_1*%
%TO.N,/Servo+*%
X42500000Y-41700000D03*
D15*
%TO.P,J9,2,Pin_2*%
%TO.N,/GND*%
X42500000Y-39160000D03*
%TO.P,J9,3,Pin_3*%
%TO.N,/Servo_Ctrl*%
X42500000Y-36620000D03*
%TD*%
D16*
%TO.N,/GND*%
X65500000Y-24000000D03*
%TD*%
D17*
%TO.N,/INTR2_6AXIS*%
X61500000Y-30270000D02*
X61500000Y-28020000D01*
X61500000Y-28020000D02*
X54860000Y-21380000D01*
X54860000Y-21380000D02*
X37000000Y-21380000D01*
%TO.N,/I2C_DATA*%
X37000000Y-34080000D02*
X37920000Y-34080000D01*
X37920000Y-34080000D02*
X41730000Y-30270000D01*
X41730000Y-30270000D02*
X42500000Y-30270000D01*
%TO.N,/3.3V*%
X57700000Y-27559000D02*
X53211000Y-23070000D01*
X57700000Y-30270000D02*
X57700000Y-27559000D01*
X53211000Y-23070000D02*
X37850000Y-23070000D01*
X37850000Y-23070000D02*
X37000000Y-23920000D01*
%TO.N,/EN_ToF*%
X39896133Y-24603867D02*
X38040000Y-26460000D01*
X52103867Y-24603867D02*
X39896133Y-24603867D01*
X53900000Y-30270000D02*
X53900000Y-26400000D01*
X38040000Y-26460000D02*
X37000000Y-26460000D01*
X53900000Y-26400000D02*
X52103867Y-24603867D01*
%TO.N,/INTR1_6AXIS*%
X54722000Y-18840000D02*
X65300000Y-29418000D01*
X37000000Y-18840000D02*
X54722000Y-18840000D01*
X65300000Y-29418000D02*
X65300000Y-30270000D01*
%TO.N,/GND*%
X50100000Y-27100000D02*
X48704867Y-25704867D01*
X48704867Y-25704867D02*
X40795133Y-25704867D01*
X37000000Y-39160000D02*
X42500000Y-39160000D01*
X37500000Y-29000000D02*
X37000000Y-29000000D01*
X50100000Y-30270000D02*
X50100000Y-27100000D01*
X40795133Y-25704867D02*
X37500000Y-29000000D01*
%TO.N,/I2C_CLK*%
X45000000Y-27000000D02*
X46300000Y-28300000D01*
X41588151Y-27000000D02*
X45000000Y-27000000D01*
X37048151Y-31540000D02*
X41588151Y-27000000D01*
X37000000Y-31540000D02*
X37048151Y-31540000D01*
X46300000Y-28300000D02*
X46300000Y-30270000D01*
%TO.N,/Servo_Ctrl*%
X42500000Y-36620000D02*
X37000000Y-36620000D01*
%TO.N,/Servo+*%
X42500000Y-41700000D02*
X37000000Y-41700000D01*
%TD*%
%TA.AperFunction,Conductor*%
%TO.N,/GND*%
G36*
X40419334Y-32815257D02*
G01*
X40475267Y-32857129D01*
X40499684Y-32922593D01*
X40500000Y-32931439D01*
X40500000Y-34000000D01*
X66835500Y-34000000D01*
X66902539Y-34019685D01*
X66948294Y-34072489D01*
X66959500Y-34124000D01*
X66959500Y-42835500D01*
X66939815Y-42902539D01*
X66887011Y-42948294D01*
X66835500Y-42959500D01*
X43910040Y-42959500D01*
X43843001Y-42939815D01*
X43797246Y-42887011D01*
X43787302Y-42817853D01*
X43793858Y-42792167D01*
X43844091Y-42657482D01*
X43850500Y-42597873D01*
X43850500Y-42073673D01*
X45309047Y-42073673D01*
X56236009Y-42073673D01*
X56236009Y-36590915D01*
X45309047Y-36590915D01*
X45309047Y-42073673D01*
X43850500Y-42073673D01*
X43850499Y-40802128D01*
X43844091Y-40742517D01*
X43811315Y-40654641D01*
X43793797Y-40607671D01*
X43793793Y-40607664D01*
X43707547Y-40492455D01*
X43707544Y-40492452D01*
X43592335Y-40406206D01*
X43592328Y-40406202D01*
X43457482Y-40355908D01*
X43457483Y-40355908D01*
X43397883Y-40349501D01*
X43397881Y-40349500D01*
X43397873Y-40349500D01*
X43397865Y-40349500D01*
X43387309Y-40349500D01*
X43320270Y-40329815D01*
X43299628Y-40313181D01*
X42629408Y-39642962D01*
X42692993Y-39625925D01*
X42807007Y-39560099D01*
X42900099Y-39467007D01*
X42965925Y-39352993D01*
X42982962Y-39289408D01*
X43615270Y-39921717D01*
X43615270Y-39921716D01*
X43654622Y-39867554D01*
X43751095Y-39678217D01*
X43816757Y-39476130D01*
X43816757Y-39476127D01*
X43850000Y-39266246D01*
X43850000Y-39053753D01*
X43816757Y-38843872D01*
X43816757Y-38843869D01*
X43751095Y-38641782D01*
X43654624Y-38452449D01*
X43615270Y-38398282D01*
X43615269Y-38398282D01*
X42982962Y-39030590D01*
X42965925Y-38967007D01*
X42900099Y-38852993D01*
X42807007Y-38759901D01*
X42692993Y-38694075D01*
X42629409Y-38677037D01*
X43261716Y-38044728D01*
X43207547Y-38005373D01*
X43207547Y-38005372D01*
X43198500Y-38000763D01*
X43147706Y-37952788D01*
X43130912Y-37884966D01*
X43153451Y-37818832D01*
X43198508Y-37779793D01*
X43207816Y-37775051D01*
X43287007Y-37717515D01*
X43379786Y-37650109D01*
X43379788Y-37650106D01*
X43379792Y-37650104D01*
X43530104Y-37499792D01*
X43530106Y-37499788D01*
X43530109Y-37499786D01*
X43655048Y-37327820D01*
X43655047Y-37327820D01*
X43655051Y-37327816D01*
X43751557Y-37138412D01*
X43817246Y-36936243D01*
X43850500Y-36726287D01*
X43850500Y-36513713D01*
X43817246Y-36303757D01*
X43751557Y-36101588D01*
X43655051Y-35912184D01*
X43655049Y-35912181D01*
X43655048Y-35912179D01*
X43530109Y-35740213D01*
X43379786Y-35589890D01*
X43207820Y-35464951D01*
X43018414Y-35368444D01*
X43018413Y-35368443D01*
X43018412Y-35368443D01*
X42816243Y-35302754D01*
X42816241Y-35302753D01*
X42816240Y-35302753D01*
X42654957Y-35277208D01*
X42606287Y-35269500D01*
X42393713Y-35269500D01*
X42345042Y-35277208D01*
X42183760Y-35302753D01*
X41981585Y-35368444D01*
X41792179Y-35464951D01*
X41620213Y-35589890D01*
X41469898Y-35740205D01*
X41469898Y-35740206D01*
X41469896Y-35740208D01*
X41449422Y-35768386D01*
X41394094Y-35811051D01*
X41349106Y-35819500D01*
X38400615Y-35819500D01*
X38333576Y-35799815D01*
X38300297Y-35768385D01*
X38270361Y-35727182D01*
X38270356Y-35727176D01*
X38117823Y-35574643D01*
X38117821Y-35574641D01*
X37946704Y-35450317D01*
X37904040Y-35394988D01*
X37898061Y-35325374D01*
X37930667Y-35263580D01*
X37946702Y-35249684D01*
X38117821Y-35125359D01*
X38270359Y-34972821D01*
X38397157Y-34798299D01*
X38454081Y-34686575D01*
X38476879Y-34655197D01*
X40288319Y-32843758D01*
X40349642Y-32810273D01*
X40419334Y-32815257D01*
G37*
%TD.AperFunction*%
%TA.AperFunction,Conductor*%
G36*
X41416145Y-37440185D02*
G01*
X41449422Y-37471612D01*
X41469896Y-37499792D01*
X41469898Y-37499794D01*
X41620213Y-37650109D01*
X41792179Y-37775048D01*
X41792181Y-37775049D01*
X41792184Y-37775051D01*
X41801493Y-37779794D01*
X41852290Y-37827766D01*
X41869087Y-37895587D01*
X41846552Y-37961722D01*
X41801505Y-38000760D01*
X41792446Y-38005376D01*
X41792440Y-38005380D01*
X41738282Y-38044727D01*
X41738282Y-38044728D01*
X42370591Y-38677037D01*
X42307007Y-38694075D01*
X42192993Y-38759901D01*
X42099901Y-38852993D01*
X42034075Y-38967007D01*
X42017037Y-39030591D01*
X41384728Y-38398282D01*
X41384727Y-38398282D01*
X41345380Y-38452439D01*
X41248904Y-38641782D01*
X41183242Y-38843869D01*
X41183242Y-38843872D01*
X41150000Y-39053753D01*
X41150000Y-39266246D01*
X41183242Y-39476127D01*
X41183242Y-39476130D01*
X41248904Y-39678217D01*
X41345375Y-39867550D01*
X41384728Y-39921716D01*
X42017037Y-39289408D01*
X42034075Y-39352993D01*
X42099901Y-39467007D01*
X42192993Y-39560099D01*
X42307007Y-39625925D01*
X42370590Y-39642962D01*
X41700370Y-40313181D01*
X41639047Y-40346666D01*
X41612698Y-40349500D01*
X41602134Y-40349500D01*
X41602123Y-40349501D01*
X41542516Y-40355908D01*
X41407671Y-40406202D01*
X41407664Y-40406206D01*
X41292455Y-40492452D01*
X41292452Y-40492455D01*
X41206206Y-40607664D01*
X41206202Y-40607671D01*
X41155910Y-40742513D01*
X41155909Y-40742517D01*
X41150937Y-40788757D01*
X41124201Y-40853306D01*
X41066809Y-40893154D01*
X41027649Y-40899500D01*
X38400615Y-40899500D01*
X38333576Y-40879815D01*
X38300297Y-40848385D01*
X38270361Y-40807182D01*
X38270356Y-40807176D01*
X38117823Y-40654643D01*
X38117822Y-40654642D01*
X38117821Y-40654641D01*
X37946279Y-40530008D01*
X37903614Y-40474678D01*
X37897635Y-40405064D01*
X37930241Y-40343269D01*
X37946280Y-40329372D01*
X38117491Y-40204979D01*
X38117497Y-40204974D01*
X38269974Y-40052497D01*
X38269974Y-40052496D01*
X38396728Y-39878036D01*
X38494627Y-39685901D01*
X38561266Y-39480809D01*
X38572481Y-39410000D01*
X37542709Y-39410000D01*
X37554452Y-39389661D01*
X37595000Y-39238333D01*
X37595000Y-39081667D01*
X37554452Y-38930339D01*
X37542709Y-38910000D01*
X38572481Y-38910000D01*
X38561266Y-38839190D01*
X38494627Y-38634098D01*
X38396728Y-38441963D01*
X38269974Y-38267503D01*
X38269974Y-38267502D01*
X38117497Y-38115025D01*
X37946279Y-37990627D01*
X37903614Y-37935297D01*
X37897635Y-37865683D01*
X37930241Y-37803888D01*
X37946280Y-37789991D01*
X38117821Y-37665359D01*
X38270359Y-37512821D01*
X38300298Y-37471614D01*
X38355627Y-37428949D01*
X38400615Y-37420500D01*
X41349106Y-37420500D01*
X41416145Y-37440185D01*
G37*
%TD.AperFunction*%
%TA.AperFunction,Conductor*%
G36*
X51787966Y-25424052D02*
G01*
X51808608Y-25440686D01*
X53063181Y-26695259D01*
X53096666Y-26756582D01*
X53099500Y-26782940D01*
X53099500Y-27876000D01*
X53079815Y-27943039D01*
X53027011Y-27988794D01*
X52975500Y-28000000D01*
X47125045Y-28000000D01*
X47058006Y-27980315D01*
X47012251Y-27927511D01*
X47010482Y-27923448D01*
X47009394Y-27920822D01*
X47009390Y-27920814D01*
X46921789Y-27789711D01*
X46921786Y-27789707D01*
X45510292Y-26378213D01*
X45510288Y-26378210D01*
X45379185Y-26290609D01*
X45379172Y-26290602D01*
X45233501Y-26230264D01*
X45233489Y-26230261D01*
X45078845Y-26199500D01*
X45078842Y-26199500D01*
X41666994Y-26199500D01*
X41509309Y-26199500D01*
X41509304Y-26199500D01*
X41354661Y-26230260D01*
X41354653Y-26230262D01*
X41208975Y-26290604D01*
X41208965Y-26290609D01*
X41077862Y-26378210D01*
X41077858Y-26378213D01*
X38757225Y-28698846D01*
X38695902Y-28732331D01*
X38626210Y-28727347D01*
X38570277Y-28685475D01*
X38551613Y-28649483D01*
X38494627Y-28474100D01*
X38396728Y-28281963D01*
X38269974Y-28107503D01*
X38269974Y-28107502D01*
X38117497Y-27955025D01*
X37946279Y-27830627D01*
X37903614Y-27775297D01*
X37897635Y-27705683D01*
X37930241Y-27643888D01*
X37946280Y-27629991D01*
X38117821Y-27505359D01*
X38270359Y-27352821D01*
X38377008Y-27206029D01*
X38414504Y-27173364D01*
X38414113Y-27172779D01*
X38418679Y-27169727D01*
X38418879Y-27169554D01*
X38419171Y-27169397D01*
X38419179Y-27169394D01*
X38550289Y-27081789D01*
X40191392Y-25440686D01*
X40252715Y-25407201D01*
X40279073Y-25404367D01*
X51720927Y-25404367D01*
X51787966Y-25424052D01*
G37*
%TD.AperFunction*%
%TA.AperFunction,Conductor*%
G36*
X66902539Y-17560185D02*
G01*
X66948294Y-17612989D01*
X66959500Y-17664500D01*
X66959500Y-27876000D01*
X66939815Y-27943039D01*
X66887011Y-27988794D01*
X66835500Y-28000000D01*
X65065440Y-28000000D01*
X64998401Y-27980315D01*
X64977759Y-27963681D01*
X55232292Y-18218213D01*
X55232288Y-18218210D01*
X55101185Y-18130609D01*
X55101172Y-18130602D01*
X54955501Y-18070264D01*
X54955489Y-18070261D01*
X54800845Y-18039500D01*
X54800842Y-18039500D01*
X38665360Y-18039500D01*
X38598321Y-18019815D01*
X38552566Y-17967011D01*
X38547654Y-17954504D01*
X38529814Y-17900666D01*
X38437712Y-17751344D01*
X38437709Y-17751341D01*
X38433234Y-17745681D01*
X38434467Y-17744705D01*
X38405064Y-17690858D01*
X38410048Y-17621166D01*
X38451920Y-17565233D01*
X38517384Y-17540816D01*
X38526230Y-17540500D01*
X66835500Y-17540500D01*
X66902539Y-17560185D01*
G37*
%TD.AperFunction*%
%TD*%
M02*
