M48
; DRILL file {KiCad 9.0.4} date 2026-01-29T00:13:39+0000
; FORMAT={-:-/ absolute / metric / decimal}
; #@! TF.CreationDate,2026-01-29T00:13:39+00:00
; #@! TF.GenerationSoftware,Kicad,Pcbnew,9.0.4
; #@! TF.FileFunction,Plated,1,2,PTH
FMAT,2
METRIC
; #@! TA.AperFunction,Plated,PTH,ComponentDrill
T1C0.800
; #@! TA.AperFunction,Plated,PTH,ViaDrill
T2C1.000
; #@! TA.AperFunction,Plated,PTH,ComponentDrill
T3C1.000
; #@! TA.AperFunction,Plated,PTH,ComponentDrill
T4C3.200
%
G90
G05
T1
X106.19Y-42.19
X106.19Y-44.73
X106.19Y-47.27
X106.19Y-49.81
X107.46Y-60.5
X110.0Y-60.5
X112.54Y-60.5
X113.81Y-42.19
X113.81Y-44.73
X113.81Y-47.27
X113.81Y-49.81
T2
X103.149Y-52.9
X104.04Y-56.5
X107.951Y-47.345
X108.908Y-49.96
X110.0Y-64.5
X110.7Y-41.0
X111.362Y-53.405
X114.0Y-38.5
X115.52Y-56.52
X117.083Y-52.083
T3
X103.0Y-42.0
X103.0Y-44.54
X103.0Y-47.08
X103.0Y-49.62
X108.46Y-31.5
X108.46Y-37.0
X108.5Y-53.0
X111.0Y-31.5
X111.0Y-37.0
X117.0Y-42.0
X117.0Y-44.54
X117.0Y-47.08
X117.0Y-49.62
T4
X106.0Y-65.5
X114.0Y-65.5
M30
