%TF.GenerationSoftware,KiCad,Pcbnew,9.0.4*%
%TF.CreationDate,2026-02-17T14:01:31+00:00*%
%TF.ProjectId,Slip Ring Contacts V1,536c6970-2052-4696-9e67-20436f6e7461,rev?*%
%TF.SameCoordinates,Original*%
%TF.FileFunction,Copper,L1,Top*%
%TF.FilePolarity,Positive*%
%FSLAX46Y46*%
G04 Gerber Fmt 4.6, Leading zero omitted, Abs format (unit mm)*
G04 Created by KiCad (PCBNEW 9.0.4) date 2026-02-17 14:01:31*
%MOMM*%
%LPD*%
G01*
G04 APERTURE LIST*
%TA.AperFunction,SMDPad,CuDef*%
%ADD10R,2.200000X1.200000*%
%TD*%
%TA.AperFunction,ComponentPad*%
%ADD11R,2.600000X2.000000*%
%TD*%
%TA.AperFunction,ComponentPad*%
%ADD12O,2.600000X2.000000*%
%TD*%
%TA.AperFunction,ViaPad*%
%ADD13C,2.000000*%
%TD*%
%TA.AperFunction,Conductor*%
%ADD14C,1.200000*%
%TD*%
G04 APERTURE END LIST*
D10*
%TO.P,J6,1,1*%
%TO.N,/EN_ToF*%
X49500000Y-41920000D03*
%TO.P,J6,2,2*%
X51500000Y-41920000D03*
%TD*%
%TO.P,J4,1,1*%
%TO.N,/I2C_CLK*%
X49500000Y-37520000D03*
%TO.P,J4,2,2*%
X51500000Y-37520000D03*
%TD*%
%TO.P,J7,1,1*%
%TO.N,/INTR1_6AXIS*%
X49500000Y-44120000D03*
%TO.P,J7,2,2*%
X51500000Y-44120000D03*
%TD*%
%TO.P,J2,1,1*%
%TO.N,/3.3V*%
X49500000Y-33120000D03*
%TO.P,J2,2,2*%
X51500000Y-33120000D03*
%TD*%
%TO.P,J3,1,1*%
%TO.N,/GND*%
X49500000Y-35320000D03*
%TO.P,J3,2,2*%
X51500000Y-35320000D03*
%TD*%
%TO.P,J5,1,1*%
%TO.N,/I2C_DATA*%
X49500000Y-39720000D03*
%TO.P,J5,2,2*%
X51500000Y-39720000D03*
%TD*%
%TO.P,J8,1,1*%
%TO.N,/INTR2_6AXIS*%
X49500000Y-46320000D03*
%TO.P,J8,2,2*%
X51500000Y-46320000D03*
%TD*%
D11*
%TO.P,J1,1,Pin_1*%
%TO.N,/3.3V*%
X43800000Y-32080000D03*
D12*
%TO.P,J1,2,Pin_2*%
%TO.N,/GND*%
X43800000Y-34620000D03*
%TO.P,J1,3,Pin_3*%
%TO.N,/I2C_CLK*%
X43800000Y-37160000D03*
%TO.P,J1,4,Pin_4*%
%TO.N,/I2C_DATA*%
X43800000Y-39700000D03*
%TO.P,J1,5,Pin_5*%
%TO.N,/EN_ToF*%
X43800000Y-42240000D03*
%TO.P,J1,6,Pin_6*%
%TO.N,/INTR1_6AXIS*%
X43800000Y-44780000D03*
%TO.P,J1,7,Pin_7*%
%TO.N,/INTR2_6AXIS*%
X43800000Y-47320000D03*
%TD*%
D13*
%TO.N,/GND*%
X47000000Y-34820000D03*
%TD*%
D14*
%TO.N,/INTR2_6AXIS*%
X49500000Y-46320000D02*
X48500000Y-47320000D01*
X48500000Y-47320000D02*
X43800000Y-47320000D01*
X51500000Y-46320000D02*
X49500000Y-46320000D01*
%TO.N,/I2C_DATA*%
X51500000Y-39720000D02*
X49500000Y-39720000D01*
X49500000Y-39720000D02*
X43820000Y-39720000D01*
X43820000Y-39720000D02*
X43800000Y-39700000D01*
%TO.N,/3.3V*%
X48460000Y-32080000D02*
X43800000Y-32080000D01*
X49500000Y-33120000D02*
X48460000Y-32080000D01*
X51500000Y-33120000D02*
X49500000Y-33120000D01*
%TO.N,/EN_ToF*%
X49500000Y-41920000D02*
X44120000Y-41920000D01*
X51500000Y-41920000D02*
X49500000Y-41920000D01*
X44120000Y-41920000D02*
X43800000Y-42240000D01*
%TO.N,/INTR1_6AXIS*%
X49500000Y-44120000D02*
X47200000Y-44120000D01*
X47200000Y-44120000D02*
X46540000Y-44780000D01*
X51500000Y-44120000D02*
X49500000Y-44120000D01*
X46540000Y-44780000D02*
X43800000Y-44780000D01*
%TO.N,/GND*%
X43800000Y-34620000D02*
X44000000Y-34820000D01*
X51500000Y-35320000D02*
X49500000Y-35320000D01*
X44000000Y-34820000D02*
X45500000Y-34820000D01*
%TO.N,/I2C_CLK*%
X44160000Y-37520000D02*
X43800000Y-37160000D01*
X51500000Y-37520000D02*
X49500000Y-37520000D01*
X49500000Y-37520000D02*
X44160000Y-37520000D01*
%TD*%
%TA.AperFunction,Conductor*%
%TO.N,/GND*%
G36*
X53402539Y-30060185D02*
G01*
X53448294Y-30112989D01*
X53459500Y-30164500D01*
X53459500Y-49335500D01*
X53439815Y-49402539D01*
X53387011Y-49448294D01*
X53335500Y-49459500D01*
X41664500Y-49459500D01*
X41597461Y-49439815D01*
X41551706Y-49387011D01*
X41540500Y-49335500D01*
X41540500Y-31032135D01*
X41999500Y-31032135D01*
X41999500Y-33127870D01*
X41999501Y-33127876D01*
X42005908Y-33187483D01*
X42056202Y-33322328D01*
X42056206Y-33322335D01*
X42142452Y-33437544D01*
X42142455Y-33437547D01*
X42257664Y-33523793D01*
X42265454Y-33528047D01*
X42263725Y-33531211D01*
X42305915Y-33562734D01*
X42330393Y-33628175D01*
X42315604Y-33696462D01*
X42307036Y-33710021D01*
X42217084Y-33833829D01*
X42109897Y-34044197D01*
X42036934Y-34268752D01*
X42020898Y-34370000D01*
X43366988Y-34370000D01*
X43334075Y-34427007D01*
X43300000Y-34554174D01*
X43300000Y-34685826D01*
X43334075Y-34812993D01*
X43366988Y-34870000D01*
X42020898Y-34870000D01*
X42036934Y-34971247D01*
X42109897Y-35195802D01*
X42217085Y-35406171D01*
X42355866Y-35597186D01*
X42522815Y-35764135D01*
X42557551Y-35789372D01*
X42600217Y-35844702D01*
X42606196Y-35914315D01*
X42573591Y-35976111D01*
X42557552Y-35990008D01*
X42522496Y-36015478D01*
X42522487Y-36015485D01*
X42355485Y-36182487D01*
X42355485Y-36182488D01*
X42355483Y-36182490D01*
X42327367Y-36221188D01*
X42216657Y-36373566D01*
X42109433Y-36584003D01*
X42036446Y-36808631D01*
X41999500Y-37041902D01*
X41999500Y-37278097D01*
X42036446Y-37511368D01*
X42109433Y-37735996D01*
X42216657Y-37946433D01*
X42355483Y-38137510D01*
X42522490Y-38304517D01*
X42557127Y-38329683D01*
X42599792Y-38385013D01*
X42605771Y-38454626D01*
X42573165Y-38516421D01*
X42557130Y-38530315D01*
X42554374Y-38532318D01*
X42522488Y-38555484D01*
X42355485Y-38722487D01*
X42355485Y-38722488D01*
X42355483Y-38722490D01*
X42326446Y-38762456D01*
X42216657Y-38913566D01*
X42109433Y-39124003D01*
X42036446Y-39348631D01*
X41999500Y-39581902D01*
X41999500Y-39818097D01*
X42036446Y-40051368D01*
X42109433Y-40275996D01*
X42186620Y-40427482D01*
X42216657Y-40486433D01*
X42355483Y-40677510D01*
X42522490Y-40844517D01*
X42557127Y-40869683D01*
X42599792Y-40925013D01*
X42605771Y-40994626D01*
X42573165Y-41056421D01*
X42557130Y-41070315D01*
X42547016Y-41077664D01*
X42522488Y-41095484D01*
X42355485Y-41262487D01*
X42355485Y-41262488D01*
X42355483Y-41262490D01*
X42348481Y-41272128D01*
X42216657Y-41453566D01*
X42109433Y-41664003D01*
X42036446Y-41888631D01*
X41999500Y-42121902D01*
X41999500Y-42358097D01*
X42036446Y-42591368D01*
X42109433Y-42815996D01*
X42210368Y-43014091D01*
X42216657Y-43026433D01*
X42355483Y-43217510D01*
X42522490Y-43384517D01*
X42557127Y-43409683D01*
X42599792Y-43465013D01*
X42605771Y-43534626D01*
X42573165Y-43596421D01*
X42557130Y-43610315D01*
X42539365Y-43623222D01*
X42522488Y-43635484D01*
X42355485Y-43802487D01*
X42355485Y-43802488D01*
X42355483Y-43802490D01*
X42295862Y-43884550D01*
X42216657Y-43993566D01*
X42109433Y-44204003D01*
X42036446Y-44428631D01*
X41999500Y-44661902D01*
X41999500Y-44898097D01*
X42036446Y-45131368D01*
X42109433Y-45355996D01*
X42216657Y-45566433D01*
X42355483Y-45757510D01*
X42522490Y-45924517D01*
X42557127Y-45949683D01*
X42599792Y-46005013D01*
X42605771Y-46074626D01*
X42573165Y-46136421D01*
X42557130Y-46150315D01*
X42540306Y-46162539D01*
X42522488Y-46175484D01*
X42355485Y-46342487D01*
X42355485Y-46342488D01*
X42355483Y-46342490D01*
X42295862Y-46424550D01*
X42216657Y-46533566D01*
X42109433Y-46744003D01*
X42036446Y-46968631D01*
X41999500Y-47201902D01*
X41999500Y-47438097D01*
X42036446Y-47671368D01*
X42109433Y-47895996D01*
X42216657Y-48106433D01*
X42355483Y-48297510D01*
X42522490Y-48464517D01*
X42713567Y-48603343D01*
X42812991Y-48654002D01*
X42924003Y-48710566D01*
X42924005Y-48710566D01*
X42924008Y-48710568D01*
X43044412Y-48749689D01*
X43148631Y-48783553D01*
X43381903Y-48820500D01*
X43381908Y-48820500D01*
X44218097Y-48820500D01*
X44451368Y-48783553D01*
X44675992Y-48710568D01*
X44886433Y-48603343D01*
X45077510Y-48464517D01*
X45085208Y-48456819D01*
X45146531Y-48423334D01*
X45172889Y-48420500D01*
X48586610Y-48420500D01*
X48586611Y-48420500D01*
X48757701Y-48393402D01*
X48922445Y-48339873D01*
X49076788Y-48261232D01*
X49216928Y-48159414D01*
X49919523Y-47456819D01*
X49980846Y-47423334D01*
X50007204Y-47420500D01*
X51596601Y-47420500D01*
X51596613Y-47420499D01*
X52647871Y-47420499D01*
X52647872Y-47420499D01*
X52707483Y-47414091D01*
X52842331Y-47363796D01*
X52957546Y-47277546D01*
X53043796Y-47162331D01*
X53094091Y-47027483D01*
X53100500Y-46967873D01*
X53100499Y-45672128D01*
X53094091Y-45612517D01*
X53043796Y-45477669D01*
X53043795Y-45477668D01*
X53043793Y-45477664D01*
X52957547Y-45362456D01*
X52957548Y-45362456D01*
X52957546Y-45362454D01*
X52899854Y-45319265D01*
X52857984Y-45263333D01*
X52853000Y-45193641D01*
X52886485Y-45132318D01*
X52899850Y-45120736D01*
X52957546Y-45077546D01*
X53043796Y-44962331D01*
X53094091Y-44827483D01*
X53100500Y-44767873D01*
X53100499Y-43472128D01*
X53094091Y-43412517D01*
X53083648Y-43384519D01*
X53043797Y-43277671D01*
X53043793Y-43277664D01*
X52992123Y-43208643D01*
X52957546Y-43162454D01*
X52899854Y-43119265D01*
X52857984Y-43063333D01*
X52853000Y-42993641D01*
X52886485Y-42932318D01*
X52899850Y-42920736D01*
X52957546Y-42877546D01*
X53043796Y-42762331D01*
X53094091Y-42627483D01*
X53100500Y-42567873D01*
X53100499Y-41272128D01*
X53094091Y-41212517D01*
X53043796Y-41077669D01*
X53043795Y-41077668D01*
X53043793Y-41077664D01*
X52957547Y-40962456D01*
X52957548Y-40962456D01*
X52957546Y-40962454D01*
X52899854Y-40919265D01*
X52857984Y-40863333D01*
X52853000Y-40793641D01*
X52886485Y-40732318D01*
X52899850Y-40720736D01*
X52957546Y-40677546D01*
X53043796Y-40562331D01*
X53094091Y-40427483D01*
X53100500Y-40367873D01*
X53100499Y-39072128D01*
X53094091Y-39012517D01*
X53043796Y-38877669D01*
X53043795Y-38877668D01*
X53043793Y-38877664D01*
X52957547Y-38762456D01*
X52957548Y-38762456D01*
X52957546Y-38762454D01*
X52899854Y-38719265D01*
X52857984Y-38663333D01*
X52853000Y-38593641D01*
X52886485Y-38532318D01*
X52899850Y-38520736D01*
X52957546Y-38477546D01*
X53043796Y-38362331D01*
X53094091Y-38227483D01*
X53100500Y-38167873D01*
X53100499Y-36872128D01*
X53094091Y-36812517D01*
X53043796Y-36677669D01*
X53043795Y-36677668D01*
X53043793Y-36677664D01*
X52957547Y-36562455D01*
X52899437Y-36518953D01*
X52857567Y-36463019D01*
X52852583Y-36393327D01*
X52886069Y-36332004D01*
X52899439Y-36320420D01*
X52957189Y-36277188D01*
X52957190Y-36277187D01*
X53043350Y-36162093D01*
X53043354Y-36162086D01*
X53093596Y-36027379D01*
X53093598Y-36027372D01*
X53099999Y-35967844D01*
X53100000Y-35967827D01*
X53100000Y-35570000D01*
X47900000Y-35570000D01*
X47900000Y-35967844D01*
X47906401Y-36027372D01*
X47906403Y-36027379D01*
X47956645Y-36162086D01*
X47956647Y-36162089D01*
X48000889Y-36221188D01*
X48025307Y-36286652D01*
X48010456Y-36354926D01*
X47961051Y-36404331D01*
X47901623Y-36419500D01*
X45479897Y-36419500D01*
X45412858Y-36399815D01*
X45379579Y-36368386D01*
X45362189Y-36344452D01*
X45244517Y-36182490D01*
X45077510Y-36015483D01*
X45042447Y-35990008D01*
X44999782Y-35934679D01*
X44993803Y-35865066D01*
X45026409Y-35803271D01*
X45042450Y-35789371D01*
X45077182Y-35764137D01*
X45244133Y-35597186D01*
X45382914Y-35406171D01*
X45490102Y-35195802D01*
X45563065Y-34971247D01*
X45579102Y-34870000D01*
X44233012Y-34870000D01*
X44265925Y-34812993D01*
X44300000Y-34685826D01*
X44300000Y-34554174D01*
X44265925Y-34427007D01*
X44233012Y-34370000D01*
X45579102Y-34370000D01*
X45563065Y-34268752D01*
X45490102Y-34044197D01*
X45382914Y-33833828D01*
X45292964Y-33710023D01*
X45269484Y-33644216D01*
X45285309Y-33576162D01*
X45334640Y-33528220D01*
X45334546Y-33528047D01*
X45335169Y-33527706D01*
X45335415Y-33527468D01*
X45336480Y-33526990D01*
X45342326Y-33523797D01*
X45342331Y-33523796D01*
X45457546Y-33437546D01*
X45543796Y-33322331D01*
X45566609Y-33261167D01*
X45608480Y-33205233D01*
X45673944Y-33180816D01*
X45682791Y-33180500D01*
X47775501Y-33180500D01*
X47842540Y-33200185D01*
X47888295Y-33252989D01*
X47899501Y-33304500D01*
X47899501Y-33767876D01*
X47905908Y-33827483D01*
X47956202Y-33962328D01*
X47956206Y-33962335D01*
X48042452Y-34077544D01*
X48042453Y-34077544D01*
X48042454Y-34077546D01*
X48077727Y-34103951D01*
X48100562Y-34121046D01*
X48142432Y-34176980D01*
X48147416Y-34246672D01*
X48113930Y-34307994D01*
X48100562Y-34319578D01*
X48042809Y-34362812D01*
X47956649Y-34477906D01*
X47956645Y-34477913D01*
X47906403Y-34612620D01*
X47906401Y-34612627D01*
X47900000Y-34672155D01*
X47900000Y-35070000D01*
X53100000Y-35070000D01*
X53100000Y-34672172D01*
X53099999Y-34672155D01*
X53093598Y-34612627D01*
X53093596Y-34612620D01*
X53043354Y-34477913D01*
X53043350Y-34477906D01*
X52957190Y-34362812D01*
X52957187Y-34362809D01*
X52899438Y-34319578D01*
X52857567Y-34263645D01*
X52852583Y-34193953D01*
X52886069Y-34132630D01*
X52899432Y-34121049D01*
X52957546Y-34077546D01*
X53043796Y-33962331D01*
X53094091Y-33827483D01*
X53100500Y-33767873D01*
X53100499Y-32472128D01*
X53094091Y-32412517D01*
X53043796Y-32277669D01*
X53043795Y-32277668D01*
X53043793Y-32277664D01*
X52957547Y-32162455D01*
X52957544Y-32162452D01*
X52842335Y-32076206D01*
X52842328Y-32076202D01*
X52707482Y-32025908D01*
X52707483Y-32025908D01*
X52647883Y-32019501D01*
X52647881Y-32019500D01*
X52647873Y-32019500D01*
X52647865Y-32019500D01*
X50007204Y-32019500D01*
X49940165Y-31999815D01*
X49919523Y-31983181D01*
X49176930Y-31240588D01*
X49176928Y-31240586D01*
X49036788Y-31138768D01*
X48882445Y-31060127D01*
X48717701Y-31006598D01*
X48717699Y-31006597D01*
X48717698Y-31006597D01*
X48586271Y-30985781D01*
X48546611Y-30979500D01*
X48546610Y-30979500D01*
X45682791Y-30979500D01*
X45615752Y-30959815D01*
X45569997Y-30907011D01*
X45566609Y-30898833D01*
X45543797Y-30837671D01*
X45543793Y-30837664D01*
X45457547Y-30722455D01*
X45457544Y-30722452D01*
X45342335Y-30636206D01*
X45342328Y-30636202D01*
X45207482Y-30585908D01*
X45207483Y-30585908D01*
X45147883Y-30579501D01*
X45147881Y-30579500D01*
X45147873Y-30579500D01*
X45147864Y-30579500D01*
X42452129Y-30579500D01*
X42452123Y-30579501D01*
X42392516Y-30585908D01*
X42257671Y-30636202D01*
X42257664Y-30636206D01*
X42142455Y-30722452D01*
X42142452Y-30722455D01*
X42056206Y-30837664D01*
X42056202Y-30837671D01*
X42005908Y-30972517D01*
X41999501Y-31032116D01*
X41999500Y-31032135D01*
X41540500Y-31032135D01*
X41540500Y-30164500D01*
X41560185Y-30097461D01*
X41612989Y-30051706D01*
X41664500Y-30040500D01*
X53335500Y-30040500D01*
X53402539Y-30060185D01*
G37*
%TD.AperFunction*%
%TD*%
M02*
