M48
; DRILL file {KiCad 9.0.4} date 2026-03-05T01:45:23+0000
; FORMAT={-:-/ absolute / metric / decimal}
; #@! TF.CreationDate,2026-03-05T01:45:23+00:00
; #@! TF.GenerationSoftware,Kicad,Pcbnew,9.0.4
; #@! TF.FileFunction,MixedPlating,1,2
FMAT,2
METRIC
; #@! TA.AperFunction,Plated,PTH,ViaDrill
T1C1.000
; #@! TA.AperFunction,Plated,PTH,ComponentDrill
T2C1.000
; #@! TA.AperFunction,Plated,PTH,ComponentDrill
T3C1.020
%
G90
G05
T1
X83.202Y-71.604
X84.45Y-39.9
X85.7Y-71.5
X88.3Y-71.3
X88.4Y-53.5
X88.8Y-63.1
T2
X80.63Y-75.775
X83.17Y-75.775
X85.71Y-75.775
X88.25Y-75.775
T3
X76.83Y-32.32
X76.83Y-34.86
X76.83Y-37.4
X76.83Y-39.94
X76.83Y-42.48
X76.83Y-45.02
X76.83Y-47.56
X76.83Y-50.1
X76.83Y-52.64
X76.83Y-55.18
X76.83Y-57.72
X76.83Y-60.26
X76.83Y-62.8
X76.83Y-65.34
X76.83Y-67.88
X92.07Y-32.32
X92.07Y-34.86
X92.07Y-37.4
X92.07Y-39.94
X92.07Y-42.48
X92.07Y-45.02
X92.07Y-47.56
X92.07Y-50.1
X92.07Y-52.64
X92.07Y-55.18
X92.07Y-57.72
X92.07Y-60.26
X92.07Y-62.8
X92.07Y-65.34
X92.07Y-67.88
M30
