%TF.GenerationSoftware,KiCad,Pcbnew,9.0.4*%
%TF.CreationDate,2026-03-05T01:45:13+00:00*%
%TF.ProjectId,ESP32_Programming_Board V1,45535033-325f-4507-926f-6772616d6d69,rev?*%
%TF.SameCoordinates,Original*%
%TF.FileFunction,Copper,L2,Bot*%
%TF.FilePolarity,Positive*%
%FSLAX46Y46*%
G04 Gerber Fmt 4.6, Leading zero omitted, Abs format (unit mm)*
G04 Created by KiCad (PCBNEW 9.0.4) date 2026-03-05 01:45:13*
%MOMM*%
%LPD*%
G01*
G04 APERTURE LIST*
%TA.AperFunction,ComponentPad*%
%ADD10R,1.530000X1.530000*%
%TD*%
%TA.AperFunction,ComponentPad*%
%ADD11C,1.530000*%
%TD*%
%TA.AperFunction,ComponentPad*%
%ADD12R,1.700000X1.700000*%
%TD*%
%TA.AperFunction,ComponentPad*%
%ADD13O,1.700000X1.700000*%
%TD*%
%TA.AperFunction,ViaPad*%
%ADD14C,2.000000*%
%TD*%
%TA.AperFunction,Conductor*%
%ADD15C,0.600000*%
%TD*%
G04 APERTURE END LIST*
D10*
%TO.P,U1,CN3_1,PA9*%
%TO.N,unconnected-(U1A-PA9-PadCN3_1)*%
X76830000Y-32320000D03*
D11*
%TO.P,U1,CN3_2,PA10*%
%TO.N,unconnected-(U1A-PA10-PadCN3_2)*%
X76830000Y-34860000D03*
%TO.P,U1,CN3_3,NRST_CN3*%
%TO.N,GND*%
X76830000Y-37400000D03*
%TO.P,U1,CN3_4,GND_CN3*%
X76830000Y-39940000D03*
%TO.P,U1,CN3_5,PA12*%
%TO.N,unconnected-(U1A-PA12-PadCN3_5)*%
X76830000Y-42480000D03*
%TO.P,U1,CN3_6,PB0*%
%TO.N,unconnected-(U1A-PB0-PadCN3_6)*%
X76830000Y-45020000D03*
%TO.P,U1,CN3_7,PB7*%
%TO.N,unconnected-(U1A-PB7-PadCN3_7)*%
X76830000Y-47560000D03*
%TO.P,U1,CN3_8,PB6*%
%TO.N,unconnected-(U1A-PB6-PadCN3_8)*%
X76830000Y-50100000D03*
%TO.P,U1,CN3_9,PB1*%
%TO.N,unconnected-(U1A-PB1-PadCN3_9)*%
X76830000Y-52640000D03*
%TO.P,U1,CN3_10,PC14*%
%TO.N,unconnected-(U1A-PC14-PadCN3_10)*%
X76830000Y-55180000D03*
%TO.P,U1,CN3_11,PC15*%
%TO.N,unconnected-(U1A-PC15-PadCN3_11)*%
X76830000Y-57720000D03*
%TO.P,U1,CN3_12,PA8*%
%TO.N,unconnected-(U1A-PA8-PadCN3_12)*%
X76830000Y-60260000D03*
%TO.P,U1,CN3_13,PA11*%
%TO.N,unconnected-(U1A-PA11-PadCN3_13)*%
X76830000Y-62800000D03*
%TO.P,U1,CN3_14,PB5*%
%TO.N,unconnected-(U1A-PB5-PadCN3_14)*%
X76830000Y-65340000D03*
%TO.P,U1,CN3_15,PB4*%
%TO.N,unconnected-(U1A-PB4-PadCN3_15)*%
X76830000Y-67880000D03*
D10*
%TO.P,U1,CN4_1,VIN*%
%TO.N,unconnected-(U1B-VIN-PadCN4_1)*%
X92070000Y-32320000D03*
D11*
%TO.P,U1,CN4_2,GND_CN4*%
%TO.N,GND*%
X92070000Y-34860000D03*
%TO.P,U1,CN4_3,NRST_CN4*%
X92070000Y-37400000D03*
%TO.P,U1,CN4_4,+5V*%
%TO.N,unconnected-(U1B-+5V-PadCN4_4)*%
X92070000Y-39940000D03*
%TO.P,U1,CN4_5,PA2*%
%TO.N,TX_UART*%
X92070000Y-42480000D03*
%TO.P,U1,CN4_6,PA7*%
%TO.N,unconnected-(U1B-PA7-PadCN4_6)*%
X92070000Y-45020000D03*
%TO.P,U1,CN4_7,PA6*%
%TO.N,unconnected-(U1B-PA6-PadCN4_7)*%
X92070000Y-47560000D03*
%TO.P,U1,CN4_8,PA5*%
%TO.N,unconnected-(U1B-PA5-PadCN4_8)*%
X92070000Y-50100000D03*
%TO.P,U1,CN4_9,PA4*%
%TO.N,unconnected-(U1B-PA4-PadCN4_9)*%
X92070000Y-52640000D03*
%TO.P,U1,CN4_10,PA3*%
%TO.N,RX_UART*%
X92070000Y-55180000D03*
%TO.P,U1,CN4_11,PA1*%
%TO.N,unconnected-(U1B-PA1-PadCN4_11)*%
X92070000Y-57720000D03*
%TO.P,U1,CN4_12,PA0*%
%TO.N,unconnected-(U1B-PA0-PadCN4_12)*%
X92070000Y-60260000D03*
%TO.P,U1,CN4_13,AREF*%
%TO.N,unconnected-(U1B-AREF-PadCN4_13)*%
X92070000Y-62800000D03*
%TO.P,U1,CN4_14,+3V3*%
%TO.N,+3V3*%
X92070000Y-65340000D03*
%TO.P,U1,CN4_15,PB3*%
%TO.N,unconnected-(U1B-PB3-PadCN4_15)*%
X92070000Y-67880000D03*
%TD*%
D12*
%TO.P,J1,1,Pin_1*%
%TO.N,+3V3*%
X88250000Y-75775000D03*
D13*
%TO.P,J1,2,Pin_2*%
%TO.N,RX_UART*%
X85710000Y-75775000D03*
%TO.P,J1,3,Pin_3*%
%TO.N,TX_UART*%
X83170000Y-75775000D03*
%TO.P,J1,4,Pin_4*%
%TO.N,GND*%
X80630000Y-75775000D03*
%TD*%
D14*
%TO.N,RX_UART*%
X85700000Y-71500000D03*
%TO.N,TX_UART*%
X83202165Y-71604076D03*
%TO.N,GND*%
X88800000Y-63100000D03*
X88400000Y-53500000D03*
X84450000Y-39900000D03*
%TO.N,+3V3*%
X88300000Y-71300000D03*
%TD*%
D15*
%TO.N,RX_UART*%
X85710000Y-75775000D02*
X85710000Y-71510000D01*
X85710000Y-71510000D02*
X85700000Y-71500000D01*
%TO.N,TX_UART*%
X83170000Y-75775000D02*
X83170000Y-71636241D01*
X83170000Y-71636241D02*
X83202165Y-71604076D01*
%TO.N,+3V3*%
X88250000Y-71350000D02*
X88300000Y-71300000D01*
X88250000Y-75775000D02*
X88250000Y-71350000D01*
%TD*%
%TA.AperFunction,Conductor*%
%TO.N,GND*%
G36*
X93852539Y-22960185D02*
G01*
X93898294Y-23012989D01*
X93909500Y-23064500D01*
X93909500Y-74176000D01*
X93889815Y-74243039D01*
X93837011Y-74288794D01*
X93785500Y-74300000D01*
X90100000Y-74300000D01*
X90100000Y-77735500D01*
X90080315Y-77802539D01*
X90027511Y-77848294D01*
X89976000Y-77859500D01*
X78924000Y-77859500D01*
X78856961Y-77839815D01*
X78811206Y-77787011D01*
X78800000Y-77735500D01*
X78800000Y-75525000D01*
X79302769Y-75525000D01*
X80196988Y-75525000D01*
X80164075Y-75582007D01*
X80130000Y-75709174D01*
X80130000Y-75840826D01*
X80164075Y-75967993D01*
X80196988Y-76025000D01*
X79302769Y-76025000D01*
X79313242Y-76091126D01*
X79313242Y-76091129D01*
X79378904Y-76293217D01*
X79475379Y-76482557D01*
X79600272Y-76654459D01*
X79600276Y-76654464D01*
X79750535Y-76804723D01*
X79750540Y-76804727D01*
X79922442Y-76929620D01*
X80111782Y-77026095D01*
X80313871Y-77091757D01*
X80380000Y-77102231D01*
X80380000Y-76208012D01*
X80437007Y-76240925D01*
X80564174Y-76275000D01*
X80695826Y-76275000D01*
X80822993Y-76240925D01*
X80880000Y-76208012D01*
X80880000Y-77102230D01*
X80946126Y-77091757D01*
X80946129Y-77091757D01*
X81148217Y-77026095D01*
X81337557Y-76929620D01*
X81509459Y-76804727D01*
X81509464Y-76804723D01*
X81659723Y-76654464D01*
X81659727Y-76654459D01*
X81784620Y-76482558D01*
X81789232Y-76473507D01*
X81837205Y-76422709D01*
X81905025Y-76405912D01*
X81971161Y-76428447D01*
X82010204Y-76473504D01*
X82014949Y-76482817D01*
X82139890Y-76654786D01*
X82290213Y-76805109D01*
X82462179Y-76930048D01*
X82462181Y-76930049D01*
X82462184Y-76930051D01*
X82651588Y-77026557D01*
X82853757Y-77092246D01*
X83063713Y-77125500D01*
X83063714Y-77125500D01*
X83276286Y-77125500D01*
X83276287Y-77125500D01*
X83486243Y-77092246D01*
X83688412Y-77026557D01*
X83877816Y-76930051D01*
X83964138Y-76867335D01*
X84049786Y-76805109D01*
X84049788Y-76805106D01*
X84049792Y-76805104D01*
X84200104Y-76654792D01*
X84200106Y-76654788D01*
X84200109Y-76654786D01*
X84325048Y-76482820D01*
X84325050Y-76482817D01*
X84325051Y-76482816D01*
X84329514Y-76474054D01*
X84377488Y-76423259D01*
X84445308Y-76406463D01*
X84511444Y-76428999D01*
X84550486Y-76474056D01*
X84554951Y-76482820D01*
X84679890Y-76654786D01*
X84830213Y-76805109D01*
X85002179Y-76930048D01*
X85002181Y-76930049D01*
X85002184Y-76930051D01*
X85191588Y-77026557D01*
X85393757Y-77092246D01*
X85603713Y-77125500D01*
X85603714Y-77125500D01*
X85816286Y-77125500D01*
X85816287Y-77125500D01*
X86026243Y-77092246D01*
X86228412Y-77026557D01*
X86417816Y-76930051D01*
X86589792Y-76805104D01*
X86703329Y-76691566D01*
X86764648Y-76658084D01*
X86834340Y-76663068D01*
X86890274Y-76704939D01*
X86907189Y-76735917D01*
X86956202Y-76867328D01*
X86956206Y-76867335D01*
X87042452Y-76982544D01*
X87042455Y-76982547D01*
X87157664Y-77068793D01*
X87157671Y-77068797D01*
X87292517Y-77119091D01*
X87292516Y-77119091D01*
X87299444Y-77119835D01*
X87352127Y-77125500D01*
X89147872Y-77125499D01*
X89207483Y-77119091D01*
X89342331Y-77068796D01*
X89457546Y-76982546D01*
X89543796Y-76867331D01*
X89594091Y-76732483D01*
X89600500Y-76672873D01*
X89600499Y-74877128D01*
X89594091Y-74817517D01*
X89592810Y-74814083D01*
X89543797Y-74682671D01*
X89543793Y-74682664D01*
X89457547Y-74567455D01*
X89457544Y-74567452D01*
X89342335Y-74481206D01*
X89342328Y-74481202D01*
X89207483Y-74430908D01*
X89161243Y-74425937D01*
X89096693Y-74399199D01*
X89056845Y-74341806D01*
X89050500Y-74302648D01*
X89050500Y-72672631D01*
X89070185Y-72605592D01*
X89101614Y-72572313D01*
X89277510Y-72444517D01*
X89444517Y-72277510D01*
X89583343Y-72086433D01*
X89690568Y-71875992D01*
X89763553Y-71651368D01*
X89800500Y-71418097D01*
X89800500Y-71181902D01*
X89763553Y-70948631D01*
X89690566Y-70724003D01*
X89601715Y-70549624D01*
X89583343Y-70513567D01*
X89444517Y-70322490D01*
X89277510Y-70155483D01*
X89086433Y-70016657D01*
X88875996Y-69909433D01*
X88651368Y-69836446D01*
X88418097Y-69799500D01*
X88418092Y-69799500D01*
X88181908Y-69799500D01*
X88181903Y-69799500D01*
X87948631Y-69836446D01*
X87724003Y-69909433D01*
X87513566Y-70016657D01*
X87486328Y-70036447D01*
X87322490Y-70155483D01*
X87322488Y-70155485D01*
X87322487Y-70155485D01*
X87155484Y-70322488D01*
X87025801Y-70500980D01*
X86970470Y-70543645D01*
X86900857Y-70549624D01*
X86839062Y-70517018D01*
X86837802Y-70515775D01*
X86677512Y-70355485D01*
X86677510Y-70355483D01*
X86486433Y-70216657D01*
X86480253Y-70213508D01*
X86275996Y-70109433D01*
X86051368Y-70036446D01*
X85818097Y-69999500D01*
X85818092Y-69999500D01*
X85581908Y-69999500D01*
X85581903Y-69999500D01*
X85348631Y-70036446D01*
X85124003Y-70109433D01*
X84913566Y-70216657D01*
X84804550Y-70295862D01*
X84722490Y-70355483D01*
X84722488Y-70355485D01*
X84722487Y-70355485D01*
X84555485Y-70522487D01*
X84555478Y-70522496D01*
X84509158Y-70586249D01*
X84453828Y-70628915D01*
X84384215Y-70634893D01*
X84322420Y-70602286D01*
X84321160Y-70601044D01*
X84179677Y-70459561D01*
X84179675Y-70459559D01*
X83988598Y-70320733D01*
X83778161Y-70213509D01*
X83553533Y-70140522D01*
X83320262Y-70103576D01*
X83320257Y-70103576D01*
X83084073Y-70103576D01*
X83084068Y-70103576D01*
X82850796Y-70140522D01*
X82626168Y-70213509D01*
X82415731Y-70320733D01*
X82367900Y-70355485D01*
X82224655Y-70459559D01*
X82224653Y-70459561D01*
X82224652Y-70459561D01*
X82057650Y-70626563D01*
X82057650Y-70626564D01*
X82057648Y-70626566D01*
X81998027Y-70708626D01*
X81918822Y-70817642D01*
X81811598Y-71028079D01*
X81738611Y-71252707D01*
X81701665Y-71485978D01*
X81701665Y-71722173D01*
X81738611Y-71955444D01*
X81811598Y-72180072D01*
X81916033Y-72385036D01*
X81918822Y-72390509D01*
X82057648Y-72581586D01*
X82224655Y-72748593D01*
X82318388Y-72816694D01*
X82361051Y-72872020D01*
X82369500Y-72917009D01*
X82369500Y-74624106D01*
X82349815Y-74691145D01*
X82318387Y-74724422D01*
X82290208Y-74744896D01*
X82290206Y-74744898D01*
X82290205Y-74744898D01*
X82139890Y-74895213D01*
X82014949Y-75067182D01*
X82010202Y-75076499D01*
X81962227Y-75127293D01*
X81894405Y-75144087D01*
X81828271Y-75121548D01*
X81789234Y-75076495D01*
X81784622Y-75067444D01*
X81659727Y-74895540D01*
X81659723Y-74895535D01*
X81509464Y-74745276D01*
X81509459Y-74745272D01*
X81337557Y-74620379D01*
X81148215Y-74523903D01*
X80946124Y-74458241D01*
X80880000Y-74447768D01*
X80880000Y-75341988D01*
X80822993Y-75309075D01*
X80695826Y-75275000D01*
X80564174Y-75275000D01*
X80437007Y-75309075D01*
X80380000Y-75341988D01*
X80380000Y-74447768D01*
X80379999Y-74447768D01*
X80313875Y-74458241D01*
X80111784Y-74523903D01*
X79922442Y-74620379D01*
X79750540Y-74745272D01*
X79750535Y-74745276D01*
X79600276Y-74895535D01*
X79600272Y-74895540D01*
X79475379Y-75067442D01*
X79378904Y-75256782D01*
X79313242Y-75458870D01*
X79313242Y-75458873D01*
X79302769Y-75525000D01*
X78800000Y-75525000D01*
X78800000Y-74300000D01*
X75114500Y-74300000D01*
X75047461Y-74280315D01*
X75001706Y-74227511D01*
X74990500Y-74176000D01*
X74990500Y-31507135D01*
X75564500Y-31507135D01*
X75564500Y-33132870D01*
X75564501Y-33132876D01*
X75570908Y-33192483D01*
X75621202Y-33327328D01*
X75621206Y-33327335D01*
X75707452Y-33442544D01*
X75707455Y-33442547D01*
X75822664Y-33528793D01*
X75822671Y-33528797D01*
X75957517Y-33579091D01*
X75957516Y-33579091D01*
X75964444Y-33579835D01*
X76017127Y-33585500D01*
X76049568Y-33585499D01*
X76116605Y-33605182D01*
X76162361Y-33657984D01*
X76172306Y-33727143D01*
X76143283Y-33790699D01*
X76122455Y-33809816D01*
X76005582Y-33894730D01*
X75864733Y-34035579D01*
X75864733Y-34035580D01*
X75864731Y-34035582D01*
X75814447Y-34104790D01*
X75747647Y-34196733D01*
X75657213Y-34374219D01*
X75595661Y-34563656D01*
X75595661Y-34563659D01*
X75564500Y-34760403D01*
X75564500Y-34959596D01*
X75595661Y-35156340D01*
X75595661Y-35156343D01*
X75657213Y-35345780D01*
X75657215Y-35345783D01*
X75747647Y-35523266D01*
X75864731Y-35684418D01*
X76005582Y-35825269D01*
X76166734Y-35942353D01*
X76256909Y-35988299D01*
X76318722Y-36019795D01*
X76369518Y-36067770D01*
X76386313Y-36135591D01*
X76363776Y-36201726D01*
X76318723Y-36240764D01*
X76166993Y-36318075D01*
X76129135Y-36345580D01*
X76129135Y-36345581D01*
X76692425Y-36908871D01*
X76633147Y-36924755D01*
X76516853Y-36991898D01*
X76421898Y-37086853D01*
X76354755Y-37203147D01*
X76338871Y-37262425D01*
X75775581Y-36699135D01*
X75775580Y-36699135D01*
X75748077Y-36736990D01*
X75657679Y-36914405D01*
X75596147Y-37103777D01*
X75565000Y-37300436D01*
X75565000Y-37499563D01*
X75596147Y-37696222D01*
X75657679Y-37885594D01*
X75748077Y-38063008D01*
X75775580Y-38100863D01*
X75775581Y-38100864D01*
X76338871Y-37537574D01*
X76354755Y-37596853D01*
X76421898Y-37713147D01*
X76516853Y-37808102D01*
X76633147Y-37875245D01*
X76692425Y-37891128D01*
X76129134Y-38454417D01*
X76166999Y-38481928D01*
X76319272Y-38559516D01*
X76370068Y-38607490D01*
X76386863Y-38675311D01*
X76364325Y-38741446D01*
X76319272Y-38780484D01*
X76166996Y-38858073D01*
X76166995Y-38858074D01*
X76129135Y-38885580D01*
X76129135Y-38885581D01*
X76692425Y-39448871D01*
X76633147Y-39464755D01*
X76516853Y-39531898D01*
X76421898Y-39626853D01*
X76354755Y-39743147D01*
X76338871Y-39802425D01*
X75775581Y-39239135D01*
X75775580Y-39239135D01*
X75748077Y-39276990D01*
X75657679Y-39454405D01*
X75596147Y-39643777D01*
X75565000Y-39840436D01*
X75565000Y-40039563D01*
X75596147Y-40236222D01*
X75657679Y-40425594D01*
X75748077Y-40603008D01*
X75775580Y-40640863D01*
X75775581Y-40640864D01*
X76338871Y-40077574D01*
X76354755Y-40136853D01*
X76421898Y-40253147D01*
X76516853Y-40348102D01*
X76633147Y-40415245D01*
X76692425Y-40431128D01*
X76129134Y-40994417D01*
X76166994Y-41021924D01*
X76318722Y-41099234D01*
X76369518Y-41147209D01*
X76386313Y-41215030D01*
X76363776Y-41281165D01*
X76318723Y-41320203D01*
X76166735Y-41397645D01*
X76053997Y-41479555D01*
X76005582Y-41514731D01*
X76005580Y-41514733D01*
X76005579Y-41514733D01*
X75864733Y-41655579D01*
X75864733Y-41655580D01*
X75864731Y-41655582D01*
X75814447Y-41724790D01*
X75747647Y-41816733D01*
X75657213Y-41994219D01*
X75595661Y-42183656D01*
X75595661Y-42183659D01*
X75564500Y-42380403D01*
X75564500Y-42579596D01*
X75595661Y-42776340D01*
X75595661Y-42776343D01*
X75657213Y-42965780D01*
X75657215Y-42965783D01*
X75747647Y-43143266D01*
X75864731Y-43304418D01*
X76005582Y-43445269D01*
X76166734Y-43562353D01*
X76236453Y-43597877D01*
X76318172Y-43639515D01*
X76368968Y-43687490D01*
X76385763Y-43755311D01*
X76363225Y-43821446D01*
X76318172Y-43860485D01*
X76166733Y-43937647D01*
X76074790Y-44004447D01*
X76005582Y-44054731D01*
X76005580Y-44054733D01*
X76005579Y-44054733D01*
X75864733Y-44195579D01*
X75864733Y-44195580D01*
X75864731Y-44195582D01*
X75814447Y-44264790D01*
X75747647Y-44356733D01*
X75657213Y-44534219D01*
X75595661Y-44723656D01*
X75595661Y-44723659D01*
X75564500Y-44920403D01*
X75564500Y-45119596D01*
X75595661Y-45316340D01*
X75595661Y-45316343D01*
X75657213Y-45505780D01*
X75657215Y-45505783D01*
X75747647Y-45683266D01*
X75864731Y-45844418D01*
X76005582Y-45985269D01*
X76166734Y-46102353D01*
X76236453Y-46137877D01*
X76318172Y-46179515D01*
X76368968Y-46227490D01*
X76385763Y-46295311D01*
X76363225Y-46361446D01*
X76318172Y-46400485D01*
X76166733Y-46477647D01*
X76074790Y-46544447D01*
X76005582Y-46594731D01*
X76005580Y-46594733D01*
X76005579Y-46594733D01*
X75864733Y-46735579D01*
X75864733Y-46735580D01*
X75864731Y-46735582D01*
X75814447Y-46804790D01*
X75747647Y-46896733D01*
X75657213Y-47074219D01*
X75595661Y-47263656D01*
X75595661Y-47263659D01*
X75564500Y-47460403D01*
X75564500Y-47659596D01*
X75595661Y-47856340D01*
X75595661Y-47856343D01*
X75657213Y-48045780D01*
X75657215Y-48045783D01*
X75747647Y-48223266D01*
X75864731Y-48384418D01*
X76005582Y-48525269D01*
X76166734Y-48642353D01*
X76236453Y-48677877D01*
X76318172Y-48719515D01*
X76368968Y-48767490D01*
X76385763Y-48835311D01*
X76363225Y-48901446D01*
X76318172Y-48940485D01*
X76166733Y-49017647D01*
X76074790Y-49084447D01*
X76005582Y-49134731D01*
X76005580Y-49134733D01*
X76005579Y-49134733D01*
X75864733Y-49275579D01*
X75864733Y-49275580D01*
X75864731Y-49275582D01*
X75814447Y-49344790D01*
X75747647Y-49436733D01*
X75657213Y-49614219D01*
X75595661Y-49803656D01*
X75595661Y-49803659D01*
X75564500Y-50000403D01*
X75564500Y-50199596D01*
X75595661Y-50396340D01*
X75595661Y-50396343D01*
X75657213Y-50585780D01*
X75657215Y-50585783D01*
X75747647Y-50763266D01*
X75864731Y-50924418D01*
X76005582Y-51065269D01*
X76166734Y-51182353D01*
X76236453Y-51217877D01*
X76318172Y-51259515D01*
X76368968Y-51307490D01*
X76385763Y-51375311D01*
X76363225Y-51441446D01*
X76318172Y-51480485D01*
X76166733Y-51557647D01*
X76074790Y-51624447D01*
X76005582Y-51674731D01*
X76005580Y-51674733D01*
X76005579Y-51674733D01*
X75864733Y-51815579D01*
X75864733Y-51815580D01*
X75864731Y-51815582D01*
X75814447Y-51884790D01*
X75747647Y-51976733D01*
X75657213Y-52154219D01*
X75595661Y-52343656D01*
X75595661Y-52343659D01*
X75564500Y-52540403D01*
X75564500Y-52739596D01*
X75595661Y-52936340D01*
X75595661Y-52936343D01*
X75657213Y-53125780D01*
X75657215Y-53125783D01*
X75747647Y-53303266D01*
X75864731Y-53464418D01*
X76005582Y-53605269D01*
X76166734Y-53722353D01*
X76236453Y-53757877D01*
X76318172Y-53799515D01*
X76368968Y-53847490D01*
X76385763Y-53915311D01*
X76363225Y-53981446D01*
X76318172Y-54020485D01*
X76166733Y-54097647D01*
X76074790Y-54164447D01*
X76005582Y-54214731D01*
X76005580Y-54214733D01*
X76005579Y-54214733D01*
X75864733Y-54355579D01*
X75864733Y-54355580D01*
X75864731Y-54355582D01*
X75814447Y-54424790D01*
X75747647Y-54516733D01*
X75657213Y-54694219D01*
X75595661Y-54883656D01*
X75595661Y-54883659D01*
X75564500Y-55080403D01*
X75564500Y-55279596D01*
X75595661Y-55476340D01*
X75595661Y-55476343D01*
X75657213Y-55665780D01*
X75657215Y-55665783D01*
X75747647Y-55843266D01*
X75864731Y-56004418D01*
X76005582Y-56145269D01*
X76166734Y-56262353D01*
X76236453Y-56297877D01*
X76318172Y-56339515D01*
X76368968Y-56387490D01*
X76385763Y-56455311D01*
X76363225Y-56521446D01*
X76318172Y-56560485D01*
X76166733Y-56637647D01*
X76074790Y-56704447D01*
X76005582Y-56754731D01*
X76005580Y-56754733D01*
X76005579Y-56754733D01*
X75864733Y-56895579D01*
X75864733Y-56895580D01*
X75864731Y-56895582D01*
X75814447Y-56964790D01*
X75747647Y-57056733D01*
X75657213Y-57234219D01*
X75595661Y-57423656D01*
X75595661Y-57423659D01*
X75564500Y-57620403D01*
X75564500Y-57819596D01*
X75595661Y-58016340D01*
X75595661Y-58016343D01*
X75657213Y-58205780D01*
X75657215Y-58205783D01*
X75747647Y-58383266D01*
X75864731Y-58544418D01*
X76005582Y-58685269D01*
X76166734Y-58802353D01*
X76236453Y-58837877D01*
X76318172Y-58879515D01*
X76368968Y-58927490D01*
X76385763Y-58995311D01*
X76363225Y-59061446D01*
X76318172Y-59100485D01*
X76166733Y-59177647D01*
X76074790Y-59244447D01*
X76005582Y-59294731D01*
X76005580Y-59294733D01*
X76005579Y-59294733D01*
X75864733Y-59435579D01*
X75864733Y-59435580D01*
X75864731Y-59435582D01*
X75814447Y-59504790D01*
X75747647Y-59596733D01*
X75657213Y-59774219D01*
X75595661Y-59963656D01*
X75595661Y-59963659D01*
X75564500Y-60160403D01*
X75564500Y-60359596D01*
X75595661Y-60556340D01*
X75595661Y-60556343D01*
X75657213Y-60745780D01*
X75657215Y-60745783D01*
X75747647Y-60923266D01*
X75864731Y-61084418D01*
X76005582Y-61225269D01*
X76166734Y-61342353D01*
X76236453Y-61377877D01*
X76318172Y-61419515D01*
X76368968Y-61467490D01*
X76385763Y-61535311D01*
X76363225Y-61601446D01*
X76318172Y-61640485D01*
X76166733Y-61717647D01*
X76074790Y-61784447D01*
X76005582Y-61834731D01*
X76005580Y-61834733D01*
X76005579Y-61834733D01*
X75864733Y-61975579D01*
X75864733Y-61975580D01*
X75864731Y-61975582D01*
X75814447Y-62044790D01*
X75747647Y-62136733D01*
X75657213Y-62314219D01*
X75595661Y-62503656D01*
X75595661Y-62503659D01*
X75564500Y-62700403D01*
X75564500Y-62899596D01*
X75595661Y-63096340D01*
X75595661Y-63096343D01*
X75657213Y-63285780D01*
X75657215Y-63285783D01*
X75747647Y-63463266D01*
X75864731Y-63624418D01*
X76005582Y-63765269D01*
X76166734Y-63882353D01*
X76236453Y-63917877D01*
X76318172Y-63959515D01*
X76368968Y-64007490D01*
X76385763Y-64075311D01*
X76363225Y-64141446D01*
X76318172Y-64180485D01*
X76166733Y-64257647D01*
X76074790Y-64324447D01*
X76005582Y-64374731D01*
X76005580Y-64374733D01*
X76005579Y-64374733D01*
X75864733Y-64515579D01*
X75864733Y-64515580D01*
X75864731Y-64515582D01*
X75814447Y-64584790D01*
X75747647Y-64676733D01*
X75657213Y-64854219D01*
X75595661Y-65043656D01*
X75595661Y-65043659D01*
X75564500Y-65240403D01*
X75564500Y-65439596D01*
X75595661Y-65636340D01*
X75595661Y-65636343D01*
X75657213Y-65825780D01*
X75657215Y-65825783D01*
X75747647Y-66003266D01*
X75864731Y-66164418D01*
X76005582Y-66305269D01*
X76166734Y-66422353D01*
X76236453Y-66457877D01*
X76318172Y-66499515D01*
X76368968Y-66547490D01*
X76385763Y-66615311D01*
X76363225Y-66681446D01*
X76318172Y-66720485D01*
X76166733Y-66797647D01*
X76074790Y-66864447D01*
X76005582Y-66914731D01*
X76005580Y-66914733D01*
X76005579Y-66914733D01*
X75864733Y-67055579D01*
X75864733Y-67055580D01*
X75864731Y-67055582D01*
X75814447Y-67124790D01*
X75747647Y-67216733D01*
X75657213Y-67394219D01*
X75595661Y-67583656D01*
X75595661Y-67583659D01*
X75564500Y-67780403D01*
X75564500Y-67979596D01*
X75595661Y-68176340D01*
X75595661Y-68176343D01*
X75657213Y-68365780D01*
X75657215Y-68365783D01*
X75747647Y-68543266D01*
X75864731Y-68704418D01*
X76005582Y-68845269D01*
X76166734Y-68962353D01*
X76344217Y-69052785D01*
X76344219Y-69052786D01*
X76533657Y-69114338D01*
X76533658Y-69114338D01*
X76533661Y-69114339D01*
X76730403Y-69145500D01*
X76730404Y-69145500D01*
X76929596Y-69145500D01*
X76929597Y-69145500D01*
X77126339Y-69114339D01*
X77126342Y-69114338D01*
X77126343Y-69114338D01*
X77315780Y-69052786D01*
X77315780Y-69052785D01*
X77315783Y-69052785D01*
X77493266Y-68962353D01*
X77654418Y-68845269D01*
X77795269Y-68704418D01*
X77912353Y-68543266D01*
X78002785Y-68365783D01*
X78064339Y-68176339D01*
X78095500Y-67979597D01*
X78095500Y-67780403D01*
X78064339Y-67583661D01*
X78064338Y-67583657D01*
X78064338Y-67583656D01*
X78002786Y-67394219D01*
X77912352Y-67216733D01*
X77795269Y-67055582D01*
X77654418Y-66914731D01*
X77493266Y-66797647D01*
X77341827Y-66720485D01*
X77291031Y-66672510D01*
X77274236Y-66604689D01*
X77296773Y-66538554D01*
X77341827Y-66499515D01*
X77351116Y-66494781D01*
X77493266Y-66422353D01*
X77654418Y-66305269D01*
X77795269Y-66164418D01*
X77912353Y-66003266D01*
X78002785Y-65825783D01*
X78064339Y-65636339D01*
X78095500Y-65439597D01*
X78095500Y-65240403D01*
X78064339Y-65043661D01*
X78064338Y-65043657D01*
X78064338Y-65043656D01*
X78002786Y-64854219D01*
X77912352Y-64676733D01*
X77795269Y-64515582D01*
X77654418Y-64374731D01*
X77493266Y-64257647D01*
X77341827Y-64180485D01*
X77291031Y-64132510D01*
X77274236Y-64064689D01*
X77296773Y-63998554D01*
X77341827Y-63959515D01*
X77351116Y-63954781D01*
X77493266Y-63882353D01*
X77654418Y-63765269D01*
X77795269Y-63624418D01*
X77912353Y-63463266D01*
X78002785Y-63285783D01*
X78064339Y-63096339D01*
X78095500Y-62899597D01*
X78095500Y-62700403D01*
X78064339Y-62503661D01*
X78064338Y-62503657D01*
X78064338Y-62503656D01*
X78002786Y-62314219D01*
X77912352Y-62136733D01*
X77795269Y-61975582D01*
X77654418Y-61834731D01*
X77493266Y-61717647D01*
X77341827Y-61640485D01*
X77291031Y-61592510D01*
X77274236Y-61524689D01*
X77296773Y-61458554D01*
X77341827Y-61419515D01*
X77351116Y-61414781D01*
X77493266Y-61342353D01*
X77654418Y-61225269D01*
X77795269Y-61084418D01*
X77912353Y-60923266D01*
X78002785Y-60745783D01*
X78064339Y-60556339D01*
X78095500Y-60359597D01*
X78095500Y-60160403D01*
X78064339Y-59963661D01*
X78064338Y-59963657D01*
X78064338Y-59963656D01*
X78002786Y-59774219D01*
X77912352Y-59596733D01*
X77795269Y-59435582D01*
X77654418Y-59294731D01*
X77493266Y-59177647D01*
X77341827Y-59100485D01*
X77291031Y-59052510D01*
X77274236Y-58984689D01*
X77296773Y-58918554D01*
X77341827Y-58879515D01*
X77351116Y-58874781D01*
X77493266Y-58802353D01*
X77654418Y-58685269D01*
X77795269Y-58544418D01*
X77912353Y-58383266D01*
X78002785Y-58205783D01*
X78064339Y-58016339D01*
X78095500Y-57819597D01*
X78095500Y-57620403D01*
X78064339Y-57423661D01*
X78064338Y-57423657D01*
X78064338Y-57423656D01*
X78002786Y-57234219D01*
X77912352Y-57056733D01*
X77795269Y-56895582D01*
X77654418Y-56754731D01*
X77493266Y-56637647D01*
X77341827Y-56560485D01*
X77291031Y-56512510D01*
X77274236Y-56444689D01*
X77296773Y-56378554D01*
X77341827Y-56339515D01*
X77351116Y-56334781D01*
X77493266Y-56262353D01*
X77654418Y-56145269D01*
X77795269Y-56004418D01*
X77912353Y-55843266D01*
X78002785Y-55665783D01*
X78064339Y-55476339D01*
X78095500Y-55279597D01*
X78095500Y-55080403D01*
X78064339Y-54883661D01*
X78064338Y-54883657D01*
X78064338Y-54883656D01*
X78002786Y-54694219D01*
X77912352Y-54516733D01*
X77795269Y-54355582D01*
X77654418Y-54214731D01*
X77493266Y-54097647D01*
X77341827Y-54020485D01*
X77291031Y-53972510D01*
X77274236Y-53904689D01*
X77296773Y-53838554D01*
X77341827Y-53799515D01*
X77351116Y-53794781D01*
X77493266Y-53722353D01*
X77654418Y-53605269D01*
X77795269Y-53464418D01*
X77912353Y-53303266D01*
X78002785Y-53125783D01*
X78064339Y-52936339D01*
X78095500Y-52739597D01*
X78095500Y-52540403D01*
X78064339Y-52343661D01*
X78064338Y-52343657D01*
X78064338Y-52343656D01*
X78002786Y-52154219D01*
X77912352Y-51976733D01*
X77795269Y-51815582D01*
X77654418Y-51674731D01*
X77493266Y-51557647D01*
X77341827Y-51480485D01*
X77291031Y-51432510D01*
X77274236Y-51364689D01*
X77296773Y-51298554D01*
X77341827Y-51259515D01*
X77351116Y-51254781D01*
X77493266Y-51182353D01*
X77654418Y-51065269D01*
X77795269Y-50924418D01*
X77912353Y-50763266D01*
X78002785Y-50585783D01*
X78064339Y-50396339D01*
X78095500Y-50199597D01*
X78095500Y-50000403D01*
X78064339Y-49803661D01*
X78064338Y-49803657D01*
X78064338Y-49803656D01*
X78002786Y-49614219D01*
X77912352Y-49436733D01*
X77795269Y-49275582D01*
X77654418Y-49134731D01*
X77493266Y-49017647D01*
X77341827Y-48940485D01*
X77291031Y-48892510D01*
X77274236Y-48824689D01*
X77296773Y-48758554D01*
X77341827Y-48719515D01*
X77351116Y-48714781D01*
X77493266Y-48642353D01*
X77654418Y-48525269D01*
X77795269Y-48384418D01*
X77912353Y-48223266D01*
X78002785Y-48045783D01*
X78064339Y-47856339D01*
X78095500Y-47659597D01*
X78095500Y-47460403D01*
X78064339Y-47263661D01*
X78064338Y-47263657D01*
X78064338Y-47263656D01*
X78002786Y-47074219D01*
X77912352Y-46896733D01*
X77795269Y-46735582D01*
X77654418Y-46594731D01*
X77493266Y-46477647D01*
X77341827Y-46400485D01*
X77291031Y-46352510D01*
X77274236Y-46284689D01*
X77296773Y-46218554D01*
X77341827Y-46179515D01*
X77351116Y-46174781D01*
X77493266Y-46102353D01*
X77654418Y-45985269D01*
X77795269Y-45844418D01*
X77912353Y-45683266D01*
X78002785Y-45505783D01*
X78064339Y-45316339D01*
X78095500Y-45119597D01*
X78095500Y-44920403D01*
X78064339Y-44723661D01*
X78064338Y-44723657D01*
X78064338Y-44723656D01*
X78002786Y-44534219D01*
X77912352Y-44356733D01*
X77795269Y-44195582D01*
X77654418Y-44054731D01*
X77493266Y-43937647D01*
X77341827Y-43860485D01*
X77291031Y-43812510D01*
X77274236Y-43744689D01*
X77296773Y-43678554D01*
X77341827Y-43639515D01*
X77351116Y-43634781D01*
X77493266Y-43562353D01*
X77654418Y-43445269D01*
X77795269Y-43304418D01*
X77912353Y-43143266D01*
X78002785Y-42965783D01*
X78064339Y-42776339D01*
X78095500Y-42579597D01*
X78095500Y-42380403D01*
X78064339Y-42183661D01*
X78064338Y-42183657D01*
X78064338Y-42183656D01*
X78002786Y-41994219D01*
X77912352Y-41816733D01*
X77795269Y-41655582D01*
X77654418Y-41514731D01*
X77493266Y-41397647D01*
X77493262Y-41397645D01*
X77341277Y-41320204D01*
X77290481Y-41272229D01*
X77273686Y-41204408D01*
X77296224Y-41138273D01*
X77341277Y-41099234D01*
X77493005Y-41021924D01*
X77530863Y-40994418D01*
X77530863Y-40994417D01*
X76967574Y-40431128D01*
X77026853Y-40415245D01*
X77143147Y-40348102D01*
X77238102Y-40253147D01*
X77305245Y-40136853D01*
X77321128Y-40077574D01*
X77884417Y-40640863D01*
X77884418Y-40640863D01*
X77911924Y-40603005D01*
X78002320Y-40425594D01*
X78063852Y-40236222D01*
X78095000Y-40039563D01*
X78095000Y-39840436D01*
X78063852Y-39643777D01*
X78002320Y-39454405D01*
X77911924Y-39276994D01*
X77884417Y-39239135D01*
X77884417Y-39239134D01*
X77321128Y-39802424D01*
X77305245Y-39743147D01*
X77238102Y-39626853D01*
X77143147Y-39531898D01*
X77026853Y-39464755D01*
X76967574Y-39448871D01*
X77530864Y-38885581D01*
X77530863Y-38885580D01*
X77493008Y-38858077D01*
X77340727Y-38780485D01*
X77289931Y-38732510D01*
X77273136Y-38664689D01*
X77295674Y-38598554D01*
X77340727Y-38559515D01*
X77493005Y-38481924D01*
X77530863Y-38454418D01*
X77530863Y-38454417D01*
X76967574Y-37891128D01*
X77026853Y-37875245D01*
X77143147Y-37808102D01*
X77238102Y-37713147D01*
X77305245Y-37596853D01*
X77321128Y-37537574D01*
X77884417Y-38100863D01*
X77884418Y-38100863D01*
X77911924Y-38063005D01*
X78002320Y-37885594D01*
X78063852Y-37696222D01*
X78095000Y-37499563D01*
X78095000Y-37300436D01*
X78063852Y-37103777D01*
X78002320Y-36914405D01*
X77911924Y-36736994D01*
X77884417Y-36699135D01*
X77884417Y-36699134D01*
X77321128Y-37262424D01*
X77305245Y-37203147D01*
X77238102Y-37086853D01*
X77143147Y-36991898D01*
X77026853Y-36924755D01*
X76967574Y-36908871D01*
X77530864Y-36345581D01*
X77530863Y-36345580D01*
X77493008Y-36318077D01*
X77341277Y-36240765D01*
X77290481Y-36192790D01*
X77273686Y-36124969D01*
X77296224Y-36058834D01*
X77341277Y-36019795D01*
X77341827Y-36019515D01*
X77493266Y-35942353D01*
X77654418Y-35825269D01*
X77795269Y-35684418D01*
X77912353Y-35523266D01*
X78002785Y-35345783D01*
X78064339Y-35156339D01*
X78095500Y-34959597D01*
X78095500Y-34760403D01*
X78064339Y-34563661D01*
X78064338Y-34563657D01*
X78064338Y-34563656D01*
X78002786Y-34374219D01*
X77912352Y-34196733D01*
X77795269Y-34035582D01*
X77654418Y-33894731D01*
X77537543Y-33809816D01*
X77494878Y-33754487D01*
X77488899Y-33684874D01*
X77521505Y-33623079D01*
X77582343Y-33588722D01*
X77610428Y-33585499D01*
X77642872Y-33585499D01*
X77702483Y-33579091D01*
X77837331Y-33528796D01*
X77952546Y-33442546D01*
X78038796Y-33327331D01*
X78089091Y-33192483D01*
X78095500Y-33132873D01*
X78095499Y-31507135D01*
X90804500Y-31507135D01*
X90804500Y-33132870D01*
X90804501Y-33132876D01*
X90810908Y-33192483D01*
X90861202Y-33327328D01*
X90861206Y-33327335D01*
X90947452Y-33442544D01*
X90947455Y-33442547D01*
X91062664Y-33528793D01*
X91062671Y-33528797D01*
X91197517Y-33579091D01*
X91197516Y-33579091D01*
X91204444Y-33579835D01*
X91257127Y-33585500D01*
X91290417Y-33585499D01*
X91357454Y-33605182D01*
X91403210Y-33657984D01*
X91413155Y-33727143D01*
X91384132Y-33790699D01*
X91369230Y-33804376D01*
X91369135Y-33805581D01*
X91932425Y-34368871D01*
X91873147Y-34384755D01*
X91756853Y-34451898D01*
X91661898Y-34546853D01*
X91594755Y-34663147D01*
X91578871Y-34722425D01*
X91015581Y-34159135D01*
X91015580Y-34159135D01*
X90988077Y-34196990D01*
X90897679Y-34374405D01*
X90836147Y-34563777D01*
X90805000Y-34760436D01*
X90805000Y-34959563D01*
X90836147Y-35156222D01*
X90897679Y-35345594D01*
X90988077Y-35523008D01*
X91015580Y-35560863D01*
X91015581Y-35560864D01*
X91578871Y-34997574D01*
X91594755Y-35056853D01*
X91661898Y-35173147D01*
X91756853Y-35268102D01*
X91873147Y-35335245D01*
X91932425Y-35351128D01*
X91369134Y-35914417D01*
X91406999Y-35941928D01*
X91559272Y-36019516D01*
X91610068Y-36067490D01*
X91626863Y-36135311D01*
X91604325Y-36201446D01*
X91559272Y-36240484D01*
X91406996Y-36318073D01*
X91406995Y-36318074D01*
X91369135Y-36345580D01*
X91369135Y-36345581D01*
X91932425Y-36908871D01*
X91873147Y-36924755D01*
X91756853Y-36991898D01*
X91661898Y-37086853D01*
X91594755Y-37203147D01*
X91578871Y-37262425D01*
X91015581Y-36699135D01*
X91015580Y-36699135D01*
X90988077Y-36736990D01*
X90897679Y-36914405D01*
X90836147Y-37103777D01*
X90805000Y-37300436D01*
X90805000Y-37499563D01*
X90836147Y-37696222D01*
X90897679Y-37885594D01*
X90988077Y-38063008D01*
X91015580Y-38100863D01*
X91015581Y-38100864D01*
X91578871Y-37537574D01*
X91594755Y-37596853D01*
X91661898Y-37713147D01*
X91756853Y-37808102D01*
X91873147Y-37875245D01*
X91932425Y-37891128D01*
X91369134Y-38454417D01*
X91406994Y-38481924D01*
X91558722Y-38559234D01*
X91609518Y-38607209D01*
X91626313Y-38675030D01*
X91603776Y-38741165D01*
X91558723Y-38780203D01*
X91406735Y-38857645D01*
X91293997Y-38939555D01*
X91245582Y-38974731D01*
X91245580Y-38974733D01*
X91245579Y-38974733D01*
X91104733Y-39115579D01*
X91104733Y-39115580D01*
X91104731Y-39115582D01*
X91054447Y-39184790D01*
X90987647Y-39276733D01*
X90897213Y-39454219D01*
X90835661Y-39643656D01*
X90835661Y-39643659D01*
X90804500Y-39840403D01*
X90804500Y-40039596D01*
X90835661Y-40236340D01*
X90835661Y-40236343D01*
X90897213Y-40425780D01*
X90897215Y-40425783D01*
X90987647Y-40603266D01*
X91104731Y-40764418D01*
X91245582Y-40905269D01*
X91406734Y-41022353D01*
X91476453Y-41057877D01*
X91558172Y-41099515D01*
X91608968Y-41147490D01*
X91625763Y-41215311D01*
X91603225Y-41281446D01*
X91558172Y-41320485D01*
X91406733Y-41397647D01*
X91314790Y-41464447D01*
X91245582Y-41514731D01*
X91245580Y-41514733D01*
X91245579Y-41514733D01*
X91104733Y-41655579D01*
X91104733Y-41655580D01*
X91104731Y-41655582D01*
X91054447Y-41724790D01*
X90987647Y-41816733D01*
X90897213Y-41994219D01*
X90835661Y-42183656D01*
X90835661Y-42183659D01*
X90804500Y-42380403D01*
X90804500Y-42579596D01*
X90835661Y-42776340D01*
X90835661Y-42776343D01*
X90897213Y-42965780D01*
X90897215Y-42965783D01*
X90987647Y-43143266D01*
X91104731Y-43304418D01*
X91245582Y-43445269D01*
X91406734Y-43562353D01*
X91476453Y-43597877D01*
X91558172Y-43639515D01*
X91608968Y-43687490D01*
X91625763Y-43755311D01*
X91603225Y-43821446D01*
X91558172Y-43860485D01*
X91406733Y-43937647D01*
X91314790Y-44004447D01*
X91245582Y-44054731D01*
X91245580Y-44054733D01*
X91245579Y-44054733D01*
X91104733Y-44195579D01*
X91104733Y-44195580D01*
X91104731Y-44195582D01*
X91054447Y-44264790D01*
X90987647Y-44356733D01*
X90897213Y-44534219D01*
X90835661Y-44723656D01*
X90835661Y-44723659D01*
X90804500Y-44920403D01*
X90804500Y-45119596D01*
X90835661Y-45316340D01*
X90835661Y-45316343D01*
X90897213Y-45505780D01*
X90897215Y-45505783D01*
X90987647Y-45683266D01*
X91104731Y-45844418D01*
X91245582Y-45985269D01*
X91406734Y-46102353D01*
X91476453Y-46137877D01*
X91558172Y-46179515D01*
X91608968Y-46227490D01*
X91625763Y-46295311D01*
X91603225Y-46361446D01*
X91558172Y-46400485D01*
X91406733Y-46477647D01*
X91314790Y-46544447D01*
X91245582Y-46594731D01*
X91245580Y-46594733D01*
X91245579Y-46594733D01*
X91104733Y-46735579D01*
X91104733Y-46735580D01*
X91104731Y-46735582D01*
X91054447Y-46804790D01*
X90987647Y-46896733D01*
X90897213Y-47074219D01*
X90835661Y-47263656D01*
X90835661Y-47263659D01*
X90804500Y-47460403D01*
X90804500Y-47659596D01*
X90835661Y-47856340D01*
X90835661Y-47856343D01*
X90897213Y-48045780D01*
X90897215Y-48045783D01*
X90987647Y-48223266D01*
X91104731Y-48384418D01*
X91245582Y-48525269D01*
X91406734Y-48642353D01*
X91476453Y-48677877D01*
X91558172Y-48719515D01*
X91608968Y-48767490D01*
X91625763Y-48835311D01*
X91603225Y-48901446D01*
X91558172Y-48940485D01*
X91406733Y-49017647D01*
X91314790Y-49084447D01*
X91245582Y-49134731D01*
X91245580Y-49134733D01*
X91245579Y-49134733D01*
X91104733Y-49275579D01*
X91104733Y-49275580D01*
X91104731Y-49275582D01*
X91054447Y-49344790D01*
X90987647Y-49436733D01*
X90897213Y-49614219D01*
X90835661Y-49803656D01*
X90835661Y-49803659D01*
X90804500Y-50000403D01*
X90804500Y-50199596D01*
X90835661Y-50396340D01*
X90835661Y-50396343D01*
X90897213Y-50585780D01*
X90897215Y-50585783D01*
X90987647Y-50763266D01*
X91104731Y-50924418D01*
X91245582Y-51065269D01*
X91406734Y-51182353D01*
X91476453Y-51217877D01*
X91558172Y-51259515D01*
X91608968Y-51307490D01*
X91625763Y-51375311D01*
X91603225Y-51441446D01*
X91558172Y-51480485D01*
X91406733Y-51557647D01*
X91314790Y-51624447D01*
X91245582Y-51674731D01*
X91245580Y-51674733D01*
X91245579Y-51674733D01*
X91104733Y-51815579D01*
X91104733Y-51815580D01*
X91104731Y-51815582D01*
X91054447Y-51884790D01*
X90987647Y-51976733D01*
X90897213Y-52154219D01*
X90835661Y-52343656D01*
X90835661Y-52343659D01*
X90804500Y-52540403D01*
X90804500Y-52739596D01*
X90835661Y-52936340D01*
X90835661Y-52936343D01*
X90897213Y-53125780D01*
X90897215Y-53125783D01*
X90987647Y-53303266D01*
X91104731Y-53464418D01*
X91245582Y-53605269D01*
X91406734Y-53722353D01*
X91476453Y-53757877D01*
X91558172Y-53799515D01*
X91608968Y-53847490D01*
X91625763Y-53915311D01*
X91603225Y-53981446D01*
X91558172Y-54020485D01*
X91406733Y-54097647D01*
X91314790Y-54164447D01*
X91245582Y-54214731D01*
X91245580Y-54214733D01*
X91245579Y-54214733D01*
X91104733Y-54355579D01*
X91104733Y-54355580D01*
X91104731Y-54355582D01*
X91054447Y-54424790D01*
X90987647Y-54516733D01*
X90897213Y-54694219D01*
X90835661Y-54883656D01*
X90835661Y-54883659D01*
X90804500Y-55080403D01*
X90804500Y-55279596D01*
X90835661Y-55476340D01*
X90835661Y-55476343D01*
X90897213Y-55665780D01*
X90897215Y-55665783D01*
X90987647Y-55843266D01*
X91104731Y-56004418D01*
X91245582Y-56145269D01*
X91406734Y-56262353D01*
X91476453Y-56297877D01*
X91558172Y-56339515D01*
X91608968Y-56387490D01*
X91625763Y-56455311D01*
X91603225Y-56521446D01*
X91558172Y-56560485D01*
X91406733Y-56637647D01*
X91314790Y-56704447D01*
X91245582Y-56754731D01*
X91245580Y-56754733D01*
X91245579Y-56754733D01*
X91104733Y-56895579D01*
X91104733Y-56895580D01*
X91104731Y-56895582D01*
X91054447Y-56964790D01*
X90987647Y-57056733D01*
X90897213Y-57234219D01*
X90835661Y-57423656D01*
X90835661Y-57423659D01*
X90804500Y-57620403D01*
X90804500Y-57819596D01*
X90835661Y-58016340D01*
X90835661Y-58016343D01*
X90897213Y-58205780D01*
X90897215Y-58205783D01*
X90987647Y-58383266D01*
X91104731Y-58544418D01*
X91245582Y-58685269D01*
X91406734Y-58802353D01*
X91476453Y-58837877D01*
X91558172Y-58879515D01*
X91608968Y-58927490D01*
X91625763Y-58995311D01*
X91603225Y-59061446D01*
X91558172Y-59100485D01*
X91406733Y-59177647D01*
X91314790Y-59244447D01*
X91245582Y-59294731D01*
X91245580Y-59294733D01*
X91245579Y-59294733D01*
X91104733Y-59435579D01*
X91104733Y-59435580D01*
X91104731Y-59435582D01*
X91054447Y-59504790D01*
X90987647Y-59596733D01*
X90897213Y-59774219D01*
X90835661Y-59963656D01*
X90835661Y-59963659D01*
X90804500Y-60160403D01*
X90804500Y-60359596D01*
X90835661Y-60556340D01*
X90835661Y-60556343D01*
X90897213Y-60745780D01*
X90897215Y-60745783D01*
X90987647Y-60923266D01*
X91104731Y-61084418D01*
X91245582Y-61225269D01*
X91406734Y-61342353D01*
X91476453Y-61377877D01*
X91558172Y-61419515D01*
X91608968Y-61467490D01*
X91625763Y-61535311D01*
X91603225Y-61601446D01*
X91558172Y-61640485D01*
X91406733Y-61717647D01*
X91314790Y-61784447D01*
X91245582Y-61834731D01*
X91245580Y-61834733D01*
X91245579Y-61834733D01*
X91104733Y-61975579D01*
X91104733Y-61975580D01*
X91104731Y-61975582D01*
X91054447Y-62044790D01*
X90987647Y-62136733D01*
X90897213Y-62314219D01*
X90835661Y-62503656D01*
X90835661Y-62503659D01*
X90804500Y-62700403D01*
X90804500Y-62899596D01*
X90835661Y-63096340D01*
X90835661Y-63096343D01*
X90897213Y-63285780D01*
X90897215Y-63285783D01*
X90987647Y-63463266D01*
X91104731Y-63624418D01*
X91245582Y-63765269D01*
X91406734Y-63882353D01*
X91476453Y-63917877D01*
X91558172Y-63959515D01*
X91608968Y-64007490D01*
X91625763Y-64075311D01*
X91603225Y-64141446D01*
X91558172Y-64180485D01*
X91406733Y-64257647D01*
X91314790Y-64324447D01*
X91245582Y-64374731D01*
X91245580Y-64374733D01*
X91245579Y-64374733D01*
X91104733Y-64515579D01*
X91104733Y-64515580D01*
X91104731Y-64515582D01*
X91054447Y-64584790D01*
X90987647Y-64676733D01*
X90897213Y-64854219D01*
X90835661Y-65043656D01*
X90835661Y-65043659D01*
X90804500Y-65240403D01*
X90804500Y-65439596D01*
X90835661Y-65636340D01*
X90835661Y-65636343D01*
X90897213Y-65825780D01*
X90897215Y-65825783D01*
X90987647Y-66003266D01*
X91104731Y-66164418D01*
X91245582Y-66305269D01*
X91406734Y-66422353D01*
X91476453Y-66457877D01*
X91558172Y-66499515D01*
X91608968Y-66547490D01*
X91625763Y-66615311D01*
X91603225Y-66681446D01*
X91558172Y-66720485D01*
X91406733Y-66797647D01*
X91314790Y-66864447D01*
X91245582Y-66914731D01*
X91245580Y-66914733D01*
X91245579Y-66914733D01*
X91104733Y-67055579D01*
X91104733Y-67055580D01*
X91104731Y-67055582D01*
X91054447Y-67124790D01*
X90987647Y-67216733D01*
X90897213Y-67394219D01*
X90835661Y-67583656D01*
X90835661Y-67583659D01*
X90804500Y-67780403D01*
X90804500Y-67979596D01*
X90835661Y-68176340D01*
X90835661Y-68176343D01*
X90897213Y-68365780D01*
X90897215Y-68365783D01*
X90987647Y-68543266D01*
X91104731Y-68704418D01*
X91245582Y-68845269D01*
X91406734Y-68962353D01*
X91584217Y-69052785D01*
X91584219Y-69052786D01*
X91773657Y-69114338D01*
X91773658Y-69114338D01*
X91773661Y-69114339D01*
X91970403Y-69145500D01*
X91970404Y-69145500D01*
X92169596Y-69145500D01*
X92169597Y-69145500D01*
X92366339Y-69114339D01*
X92366342Y-69114338D01*
X92366343Y-69114338D01*
X92555780Y-69052786D01*
X92555780Y-69052785D01*
X92555783Y-69052785D01*
X92733266Y-68962353D01*
X92894418Y-68845269D01*
X93035269Y-68704418D01*
X93152353Y-68543266D01*
X93242785Y-68365783D01*
X93304339Y-68176339D01*
X93335500Y-67979597D01*
X93335500Y-67780403D01*
X93304339Y-67583661D01*
X93304338Y-67583657D01*
X93304338Y-67583656D01*
X93242786Y-67394219D01*
X93152352Y-67216733D01*
X93035269Y-67055582D01*
X92894418Y-66914731D01*
X92733266Y-66797647D01*
X92581827Y-66720485D01*
X92531031Y-66672510D01*
X92514236Y-66604689D01*
X92536773Y-66538554D01*
X92581827Y-66499515D01*
X92591116Y-66494781D01*
X92733266Y-66422353D01*
X92894418Y-66305269D01*
X93035269Y-66164418D01*
X93152353Y-66003266D01*
X93242785Y-65825783D01*
X93304339Y-65636339D01*
X93335500Y-65439597D01*
X93335500Y-65240403D01*
X93304339Y-65043661D01*
X93304338Y-65043657D01*
X93304338Y-65043656D01*
X93242786Y-64854219D01*
X93152352Y-64676733D01*
X93035269Y-64515582D01*
X92894418Y-64374731D01*
X92733266Y-64257647D01*
X92581827Y-64180485D01*
X92531031Y-64132510D01*
X92514236Y-64064689D01*
X92536773Y-63998554D01*
X92581827Y-63959515D01*
X92591116Y-63954781D01*
X92733266Y-63882353D01*
X92894418Y-63765269D01*
X93035269Y-63624418D01*
X93152353Y-63463266D01*
X93242785Y-63285783D01*
X93304339Y-63096339D01*
X93335500Y-62899597D01*
X93335500Y-62700403D01*
X93304339Y-62503661D01*
X93304338Y-62503657D01*
X93304338Y-62503656D01*
X93242786Y-62314219D01*
X93152352Y-62136733D01*
X93035269Y-61975582D01*
X92894418Y-61834731D01*
X92733266Y-61717647D01*
X92581827Y-61640485D01*
X92531031Y-61592510D01*
X92514236Y-61524689D01*
X92536773Y-61458554D01*
X92581827Y-61419515D01*
X92591116Y-61414781D01*
X92733266Y-61342353D01*
X92894418Y-61225269D01*
X93035269Y-61084418D01*
X93152353Y-60923266D01*
X93242785Y-60745783D01*
X93304339Y-60556339D01*
X93335500Y-60359597D01*
X93335500Y-60160403D01*
X93304339Y-59963661D01*
X93304338Y-59963657D01*
X93304338Y-59963656D01*
X93242786Y-59774219D01*
X93152352Y-59596733D01*
X93035269Y-59435582D01*
X92894418Y-59294731D01*
X92733266Y-59177647D01*
X92581827Y-59100485D01*
X92531031Y-59052510D01*
X92514236Y-58984689D01*
X92536773Y-58918554D01*
X92581827Y-58879515D01*
X92591116Y-58874781D01*
X92733266Y-58802353D01*
X92894418Y-58685269D01*
X93035269Y-58544418D01*
X93152353Y-58383266D01*
X93242785Y-58205783D01*
X93304339Y-58016339D01*
X93335500Y-57819597D01*
X93335500Y-57620403D01*
X93304339Y-57423661D01*
X93304338Y-57423657D01*
X93304338Y-57423656D01*
X93242786Y-57234219D01*
X93152352Y-57056733D01*
X93035269Y-56895582D01*
X92894418Y-56754731D01*
X92733266Y-56637647D01*
X92581827Y-56560485D01*
X92531031Y-56512510D01*
X92514236Y-56444689D01*
X92536773Y-56378554D01*
X92581827Y-56339515D01*
X92591116Y-56334781D01*
X92733266Y-56262353D01*
X92894418Y-56145269D01*
X93035269Y-56004418D01*
X93152353Y-55843266D01*
X93242785Y-55665783D01*
X93304339Y-55476339D01*
X93335500Y-55279597D01*
X93335500Y-55080403D01*
X93304339Y-54883661D01*
X93304338Y-54883657D01*
X93304338Y-54883656D01*
X93242786Y-54694219D01*
X93152352Y-54516733D01*
X93035269Y-54355582D01*
X92894418Y-54214731D01*
X92733266Y-54097647D01*
X92581827Y-54020485D01*
X92531031Y-53972510D01*
X92514236Y-53904689D01*
X92536773Y-53838554D01*
X92581827Y-53799515D01*
X92591116Y-53794781D01*
X92733266Y-53722353D01*
X92894418Y-53605269D01*
X93035269Y-53464418D01*
X93152353Y-53303266D01*
X93242785Y-53125783D01*
X93304339Y-52936339D01*
X93335500Y-52739597D01*
X93335500Y-52540403D01*
X93304339Y-52343661D01*
X93304338Y-52343657D01*
X93304338Y-52343656D01*
X93242786Y-52154219D01*
X93152352Y-51976733D01*
X93035269Y-51815582D01*
X92894418Y-51674731D01*
X92733266Y-51557647D01*
X92581827Y-51480485D01*
X92531031Y-51432510D01*
X92514236Y-51364689D01*
X92536773Y-51298554D01*
X92581827Y-51259515D01*
X92591116Y-51254781D01*
X92733266Y-51182353D01*
X92894418Y-51065269D01*
X93035269Y-50924418D01*
X93152353Y-50763266D01*
X93242785Y-50585783D01*
X93304339Y-50396339D01*
X93335500Y-50199597D01*
X93335500Y-50000403D01*
X93304339Y-49803661D01*
X93304338Y-49803657D01*
X93304338Y-49803656D01*
X93242786Y-49614219D01*
X93152352Y-49436733D01*
X93035269Y-49275582D01*
X92894418Y-49134731D01*
X92733266Y-49017647D01*
X92581827Y-48940485D01*
X92531031Y-48892510D01*
X92514236Y-48824689D01*
X92536773Y-48758554D01*
X92581827Y-48719515D01*
X92591116Y-48714781D01*
X92733266Y-48642353D01*
X92894418Y-48525269D01*
X93035269Y-48384418D01*
X93152353Y-48223266D01*
X93242785Y-48045783D01*
X93304339Y-47856339D01*
X93335500Y-47659597D01*
X93335500Y-47460403D01*
X93304339Y-47263661D01*
X93304338Y-47263657D01*
X93304338Y-47263656D01*
X93242786Y-47074219D01*
X93152352Y-46896733D01*
X93035269Y-46735582D01*
X92894418Y-46594731D01*
X92733266Y-46477647D01*
X92581827Y-46400485D01*
X92531031Y-46352510D01*
X92514236Y-46284689D01*
X92536773Y-46218554D01*
X92581827Y-46179515D01*
X92591116Y-46174781D01*
X92733266Y-46102353D01*
X92894418Y-45985269D01*
X93035269Y-45844418D01*
X93152353Y-45683266D01*
X93242785Y-45505783D01*
X93304339Y-45316339D01*
X93335500Y-45119597D01*
X93335500Y-44920403D01*
X93304339Y-44723661D01*
X93304338Y-44723657D01*
X93304338Y-44723656D01*
X93242786Y-44534219D01*
X93152352Y-44356733D01*
X93035269Y-44195582D01*
X92894418Y-44054731D01*
X92733266Y-43937647D01*
X92581827Y-43860485D01*
X92531031Y-43812510D01*
X92514236Y-43744689D01*
X92536773Y-43678554D01*
X92581827Y-43639515D01*
X92591116Y-43634781D01*
X92733266Y-43562353D01*
X92894418Y-43445269D01*
X93035269Y-43304418D01*
X93152353Y-43143266D01*
X93242785Y-42965783D01*
X93304339Y-42776339D01*
X93335500Y-42579597D01*
X93335500Y-42380403D01*
X93304339Y-42183661D01*
X93304338Y-42183657D01*
X93304338Y-42183656D01*
X93242786Y-41994219D01*
X93152352Y-41816733D01*
X93035269Y-41655582D01*
X92894418Y-41514731D01*
X92733266Y-41397647D01*
X92581827Y-41320485D01*
X92531031Y-41272510D01*
X92514236Y-41204689D01*
X92536773Y-41138554D01*
X92581827Y-41099515D01*
X92591116Y-41094781D01*
X92733266Y-41022353D01*
X92894418Y-40905269D01*
X93035269Y-40764418D01*
X93152353Y-40603266D01*
X93242785Y-40425783D01*
X93304339Y-40236339D01*
X93335500Y-40039597D01*
X93335500Y-39840403D01*
X93304339Y-39643661D01*
X93304338Y-39643657D01*
X93304338Y-39643656D01*
X93242786Y-39454219D01*
X93152352Y-39276733D01*
X93035269Y-39115582D01*
X92894418Y-38974731D01*
X92733266Y-38857647D01*
X92733262Y-38857645D01*
X92581277Y-38780204D01*
X92530481Y-38732229D01*
X92513686Y-38664408D01*
X92536224Y-38598273D01*
X92581277Y-38559234D01*
X92733005Y-38481924D01*
X92770863Y-38454418D01*
X92770863Y-38454417D01*
X92207574Y-37891128D01*
X92266853Y-37875245D01*
X92383147Y-37808102D01*
X92478102Y-37713147D01*
X92545245Y-37596853D01*
X92561128Y-37537574D01*
X93124417Y-38100863D01*
X93124418Y-38100863D01*
X93151924Y-38063005D01*
X93242320Y-37885594D01*
X93303852Y-37696222D01*
X93335000Y-37499563D01*
X93335000Y-37300436D01*
X93303852Y-37103777D01*
X93242320Y-36914405D01*
X93151924Y-36736994D01*
X93124417Y-36699135D01*
X93124417Y-36699134D01*
X92561128Y-37262424D01*
X92545245Y-37203147D01*
X92478102Y-37086853D01*
X92383147Y-36991898D01*
X92266853Y-36924755D01*
X92207574Y-36908871D01*
X92770864Y-36345581D01*
X92770863Y-36345580D01*
X92733008Y-36318077D01*
X92580727Y-36240485D01*
X92529931Y-36192510D01*
X92513136Y-36124689D01*
X92535674Y-36058554D01*
X92580727Y-36019515D01*
X92733005Y-35941924D01*
X92770863Y-35914418D01*
X92770863Y-35914417D01*
X92207574Y-35351128D01*
X92266853Y-35335245D01*
X92383147Y-35268102D01*
X92478102Y-35173147D01*
X92545245Y-35056853D01*
X92561128Y-34997574D01*
X93124417Y-35560863D01*
X93124418Y-35560863D01*
X93151924Y-35523005D01*
X93242320Y-35345594D01*
X93303852Y-35156222D01*
X93335000Y-34959563D01*
X93335000Y-34760436D01*
X93303852Y-34563777D01*
X93242320Y-34374405D01*
X93151924Y-34196994D01*
X93124417Y-34159135D01*
X93124417Y-34159134D01*
X92561128Y-34722424D01*
X92545245Y-34663147D01*
X92478102Y-34546853D01*
X92383147Y-34451898D01*
X92266853Y-34384755D01*
X92207574Y-34368871D01*
X92770864Y-33805581D01*
X92770572Y-33801877D01*
X92734029Y-33754488D01*
X92728049Y-33684875D01*
X92760655Y-33623080D01*
X92821493Y-33588722D01*
X92849579Y-33585499D01*
X92882872Y-33585499D01*
X92942483Y-33579091D01*
X93077331Y-33528796D01*
X93192546Y-33442546D01*
X93278796Y-33327331D01*
X93329091Y-33192483D01*
X93335500Y-33132873D01*
X93335499Y-31507128D01*
X93329091Y-31447517D01*
X93278796Y-31312669D01*
X93278795Y-31312668D01*
X93278793Y-31312664D01*
X93192547Y-31197455D01*
X93192544Y-31197452D01*
X93077335Y-31111206D01*
X93077328Y-31111202D01*
X92942482Y-31060908D01*
X92942483Y-31060908D01*
X92882883Y-31054501D01*
X92882881Y-31054500D01*
X92882873Y-31054500D01*
X92882864Y-31054500D01*
X91257129Y-31054500D01*
X91257123Y-31054501D01*
X91197516Y-31060908D01*
X91062671Y-31111202D01*
X91062664Y-31111206D01*
X90947455Y-31197452D01*
X90947452Y-31197455D01*
X90861206Y-31312664D01*
X90861202Y-31312671D01*
X90810908Y-31447517D01*
X90804501Y-31507116D01*
X90804501Y-31507123D01*
X90804500Y-31507135D01*
X78095499Y-31507135D01*
X78095499Y-31507128D01*
X78089091Y-31447517D01*
X78038796Y-31312669D01*
X78038795Y-31312668D01*
X78038793Y-31312664D01*
X77952547Y-31197455D01*
X77952544Y-31197452D01*
X77837335Y-31111206D01*
X77837328Y-31111202D01*
X77702482Y-31060908D01*
X77702483Y-31060908D01*
X77642883Y-31054501D01*
X77642881Y-31054500D01*
X77642873Y-31054500D01*
X77642864Y-31054500D01*
X76017129Y-31054500D01*
X76017123Y-31054501D01*
X75957516Y-31060908D01*
X75822671Y-31111202D01*
X75822664Y-31111206D01*
X75707455Y-31197452D01*
X75707452Y-31197455D01*
X75621206Y-31312664D01*
X75621202Y-31312671D01*
X75570908Y-31447517D01*
X75564501Y-31507116D01*
X75564501Y-31507123D01*
X75564500Y-31507135D01*
X74990500Y-31507135D01*
X74990500Y-23064500D01*
X75010185Y-22997461D01*
X75062989Y-22951706D01*
X75114500Y-22940500D01*
X93785500Y-22940500D01*
X93852539Y-22960185D01*
G37*
%TD.AperFunction*%
%TD*%
M02*
