%TF.GenerationSoftware,KiCad,Pcbnew,9.0.4*%
%TF.CreationDate,2026-03-05T01:45:13+00:00*%
%TF.ProjectId,ESP32_Programming_Board V1,45535033-325f-4507-926f-6772616d6d69,rev?*%
%TF.SameCoordinates,Original*%
%TF.FileFunction,Legend,Top*%
%TF.FilePolarity,Positive*%
%FSLAX46Y46*%
G04 Gerber Fmt 4.6, Leading zero omitted, Abs format (unit mm)*
G04 Created by KiCad (PCBNEW 9.0.4) date 2026-03-05 01:45:13*
%MOMM*%
%LPD*%
G01*
G04 APERTURE LIST*
%ADD10C,0.150000*%
%ADD11C,0.127000*%
%ADD12C,0.200000*%
G04 APERTURE END LIST*
D10*
X77973095Y-21954819D02*
X77973095Y-22764342D01*
X77973095Y-22764342D02*
X78020714Y-22859580D01*
X78020714Y-22859580D02*
X78068333Y-22907200D01*
X78068333Y-22907200D02*
X78163571Y-22954819D01*
X78163571Y-22954819D02*
X78354047Y-22954819D01*
X78354047Y-22954819D02*
X78449285Y-22907200D01*
X78449285Y-22907200D02*
X78496904Y-22859580D01*
X78496904Y-22859580D02*
X78544523Y-22764342D01*
X78544523Y-22764342D02*
X78544523Y-21954819D01*
X79544523Y-22954819D02*
X78973095Y-22954819D01*
X79258809Y-22954819D02*
X79258809Y-21954819D01*
X79258809Y-21954819D02*
X79163571Y-22097676D01*
X79163571Y-22097676D02*
X79068333Y-22192914D01*
X79068333Y-22192914D02*
X78973095Y-22240533D01*
D11*
%TO.C,U1*%
X75180000Y-23390000D02*
X93720000Y-23390000D01*
X75180000Y-73680000D02*
X75180000Y-23390000D01*
X93720000Y-23390000D02*
X93720000Y-73680000D01*
X93720000Y-73680000D02*
X75180000Y-73680000D01*
D12*
X74550000Y-32035000D02*
G75*
G02*
X74350000Y-32035000I-100000J0D01*
G01*
X74350000Y-32035000D02*
G75*
G02*
X74550000Y-32035000I100000J0D01*
G01*
%TD*%
M02*
