M48
; DRILL file {KiCad 9.0.4} date 2026-02-17T13:46:45+0000
; FORMAT={-:-/ absolute / metric / decimal}
; #@! TF.CreationDate,2026-02-17T13:46:45+00:00
; #@! TF.GenerationSoftware,Kicad,Pcbnew,9.0.4
; #@! TF.FileFunction,Plated,1,2,PTH
FMAT,2
METRIC
; #@! TA.AperFunction,Plated,PTH,ViaDrill
T1C1.000
; #@! TA.AperFunction,Plated,PTH,ComponentDrill
T2C1.000
; #@! TA.AperFunction,Plated,PTH,ComponentDrill
T3C3.200
%
G90
G05
T1
X29.477Y-61.523
X32.0Y-58.0
X44.5Y-43.5
X45.723Y-53.343
X46.023Y-62.023
X46.14Y-56.22
X46.26Y-50.26
T2
X32.18Y-47.687
X32.18Y-50.227
X32.18Y-52.767
X32.18Y-55.307
X35.14Y-46.497
X35.14Y-58.997
X37.68Y-46.497
X37.68Y-58.997
X40.22Y-46.497
X40.22Y-58.997
X43.18Y-47.687
X43.18Y-50.227
X43.18Y-52.767
X43.18Y-55.307
X53.34Y-40.64
X53.34Y-43.18
X53.34Y-45.72
X53.34Y-48.26
X53.34Y-50.8
X53.34Y-53.34
X53.34Y-55.88
X58.42Y-45.72
X58.42Y-48.26
X58.42Y-50.8
X58.42Y-53.34
X58.42Y-55.88
T3
X23.5Y-38.5
X23.5Y-65.0
X61.5Y-38.5
X61.5Y-65.0
M30
