%TF.GenerationSoftware,KiCad,Pcbnew,9.0.4*%
%TF.CreationDate,2026-01-29T23:05:15+00:00*%
%TF.ProjectId,Line following V1,4c696e65-2066-46f6-9c6c-6f77696e6720,rev?*%
%TF.SameCoordinates,Original*%
%TF.FileFunction,Copper,L1,Top*%
%TF.FilePolarity,Positive*%
%FSLAX46Y46*%
G04 Gerber Fmt 4.6, Leading zero omitted, Abs format (unit mm)*
G04 Created by KiCad (PCBNEW 9.0.4) date 2026-01-29 23:05:15*
%MOMM*%
%LPD*%
G01*
G04 APERTURE LIST*
G04 Aperture macros list*
%AMRoundRect*
0 Rectangle with rounded corners*
0 $1 Rounding radius*
0 $2 $3 $4 $5 $6 $7 $8 $9 X,Y pos of 4 corners*
0 Add a 4 corners polygon primitive as box body*
4,1,4,$2,$3,$4,$5,$6,$7,$8,$9,$2,$3,0*
0 Add four circle primitives for the rounded corners*
1,1,$1+$1,$2,$3*
1,1,$1+$1,$4,$5*
1,1,$1+$1,$6,$7*
1,1,$1+$1,$8,$9*
0 Add four rect primitives between the rounded corners*
20,1,$1+$1,$2,$3,$4,$5,0*
20,1,$1+$1,$4,$5,$6,$7,0*
20,1,$1+$1,$6,$7,$8,$9,0*
20,1,$1+$1,$8,$9,$2,$3,0*%
G04 Aperture macros list end*
%ADD10C,0.100000*%
%TA.AperFunction,ComponentPad*%
%ADD11R,1.700000X1.700000*%
%TD*%
%TA.AperFunction,SMDPad,CuDef*%
%ADD12RoundRect,0.250000X0.337500X0.475000X-0.337500X0.475000X-0.337500X-0.475000X0.337500X-0.475000X0*%
%TD*%
%TA.AperFunction,SMDPad,CuDef*%
%ADD13RoundRect,0.250000X0.450000X-0.350000X0.450000X0.350000X-0.450000X0.350000X-0.450000X-0.350000X0*%
%TD*%
%TA.AperFunction,ComponentPad*%
%ADD14C,1.700000*%
%TD*%
%TA.AperFunction,ComponentPad*%
%ADD15C,5.700000*%
%TD*%
%TA.AperFunction,ConnectorPad*%
%ADD16C,9.200000*%
%TD*%
%TA.AperFunction,SMDPad,CuDef*%
%ADD17RoundRect,0.250000X0.350000X0.450000X-0.350000X0.450000X-0.350000X-0.450000X0.350000X-0.450000X0*%
%TD*%
%TA.AperFunction,ComponentPad*%
%ADD18C,1.440000*%
%TD*%
%TA.AperFunction,ComponentPad*%
%ADD19R,2.000000X2.000000*%
%TD*%
%TA.AperFunction,ComponentPad*%
%ADD20C,2.000000*%
%TD*%
%TA.AperFunction,ComponentPad*%
%ADD21RoundRect,0.250000X-0.950000X-0.550000X0.950000X-0.550000X0.950000X0.550000X-0.950000X0.550000X0*%
%TD*%
%TA.AperFunction,ComponentPad*%
%ADD22O,2.400000X1.600000*%
%TD*%
%TA.AperFunction,ViaPad*%
%ADD23C,2.000000*%
%TD*%
%TA.AperFunction,Conductor*%
%ADD24C,0.600000*%
%TD*%
G04 APERTURE END LIST*
D10*
G36*
X99736872Y-36867577D02*
G01*
X99819942Y-36909112D01*
X99901099Y-36990268D01*
X99942419Y-37114228D01*
X99942419Y-37294210D01*
X99042419Y-37294210D01*
X99042419Y-37114228D01*
X99083739Y-36990266D01*
X99164892Y-36909113D01*
X99247966Y-36867576D01*
X99427145Y-36822782D01*
X99557692Y-36822782D01*
X99736872Y-36867577D01*
G37*
G36*
X99391372Y-35861493D02*
G01*
X99427516Y-35897638D01*
X99466228Y-35975061D01*
X99466228Y-36294210D01*
X99042419Y-36294210D01*
X99042419Y-35975061D01*
X99081130Y-35897637D01*
X99117275Y-35861493D01*
X99194699Y-35822782D01*
X99313949Y-35822782D01*
X99391372Y-35861493D01*
G37*
G36*
X99598095Y-32865638D02*
G01*
X99480413Y-32865638D01*
X99410638Y-32830751D01*
X99375752Y-32760978D01*
X99375752Y-32594108D01*
X99410638Y-32524334D01*
X99480413Y-32489448D01*
X99522857Y-32489448D01*
X99598095Y-32865638D01*
G37*
G36*
X99942419Y-31689346D02*
G01*
X99942419Y-31903834D01*
X99907532Y-31973608D01*
X99837759Y-32008495D01*
X99766127Y-32008495D01*
X99696352Y-31973608D01*
X99661466Y-31903835D01*
X99661466Y-31677543D01*
X99660977Y-31675086D01*
X99661340Y-31673998D01*
X99659223Y-31666270D01*
X99657660Y-31658409D01*
X99656848Y-31657597D01*
X99656187Y-31655182D01*
X99644749Y-31632305D01*
X99913898Y-31632305D01*
X99942419Y-31689346D01*
G37*
G36*
X100153530Y-38406277D02*
G01*
X98831308Y-38406277D01*
X98831308Y-37677544D01*
X98942419Y-37677544D01*
X98942419Y-38248972D01*
X98946225Y-38268106D01*
X98973285Y-38295166D01*
X99011553Y-38295166D01*
X99038613Y-38268106D01*
X99042419Y-38248972D01*
X99042419Y-38013258D01*
X99992419Y-38013258D01*
X100011553Y-38009452D01*
X100038613Y-37982392D01*
X100038613Y-37944124D01*
X100011553Y-37917064D01*
X99992419Y-37913258D01*
X99042419Y-37913258D01*
X99042419Y-37677544D01*
X99038613Y-37658410D01*
X99011553Y-37631350D01*
X98973285Y-37631350D01*
X98946225Y-37658410D01*
X98942419Y-37677544D01*
X98831308Y-37677544D01*
X98831308Y-37106115D01*
X98942419Y-37106115D01*
X98942419Y-37344210D01*
X98946225Y-37363344D01*
X98973285Y-37390404D01*
X98992419Y-37394210D01*
X99992419Y-37394210D01*
X100011553Y-37390404D01*
X100038613Y-37363344D01*
X100042419Y-37344210D01*
X100042419Y-37106115D01*
X100040855Y-37098253D01*
X100039853Y-37090303D01*
X99992234Y-36947447D01*
X99990994Y-36945271D01*
X99990994Y-36944124D01*
X99986543Y-36937463D01*
X99982573Y-36930498D01*
X99981545Y-36929984D01*
X99980155Y-36927903D01*
X99884916Y-36832664D01*
X99878249Y-36828209D01*
X99871921Y-36823298D01*
X99776684Y-36775680D01*
X99771402Y-36774233D01*
X99766450Y-36771894D01*
X99575974Y-36724275D01*
X99569856Y-36723977D01*
X99563847Y-36722782D01*
X99420990Y-36722782D01*
X99414980Y-36723977D01*
X99408863Y-36724275D01*
X99218387Y-36771894D01*
X99213434Y-36774233D01*
X99208153Y-36775680D01*
X99112915Y-36823299D01*
X99106580Y-36828214D01*
X99099921Y-36832665D01*
X99004683Y-36927903D01*
X99003291Y-36929985D01*
X99002265Y-36930499D01*
X98998297Y-36937459D01*
X98993844Y-36944124D01*
X98993844Y-36945271D01*
X98992604Y-36947447D01*
X98944985Y-37090304D01*
X98943982Y-37098252D01*
X98942419Y-37106115D01*
X98831308Y-37106115D01*
X98831308Y-35963258D01*
X98942419Y-35963258D01*
X98942419Y-36344210D01*
X98946225Y-36363344D01*
X98973285Y-36390404D01*
X98992419Y-36394210D01*
X99992419Y-36394210D01*
X100011553Y-36390404D01*
X100038613Y-36363344D01*
X100038613Y-36325076D01*
X100011553Y-36298016D01*
X99992419Y-36294210D01*
X99566228Y-36294210D01*
X99566228Y-35963258D01*
X99565739Y-35960801D01*
X99566102Y-35959713D01*
X99563985Y-35951985D01*
X99562422Y-35944124D01*
X99561610Y-35943312D01*
X99560949Y-35940897D01*
X99513330Y-35845659D01*
X99508418Y-35839330D01*
X99503964Y-35832664D01*
X99456345Y-35785046D01*
X99449683Y-35780594D01*
X99443350Y-35775679D01*
X99348113Y-35728061D01*
X99345697Y-35727399D01*
X99344886Y-35726588D01*
X99337024Y-35725024D01*
X99329297Y-35722908D01*
X99328208Y-35723270D01*
X99325752Y-35722782D01*
X99182895Y-35722782D01*
X99180438Y-35723270D01*
X99179350Y-35722908D01*
X99171622Y-35725024D01*
X99163761Y-35726588D01*
X99162949Y-35727399D01*
X99160534Y-35728061D01*
X99065296Y-35775680D01*
X99058967Y-35780591D01*
X99052301Y-35785046D01*
X99004683Y-35832665D01*
X99000231Y-35839326D01*
X98995316Y-35845660D01*
X98947698Y-35940897D01*
X98947036Y-35943312D01*
X98946225Y-35944124D01*
X98944661Y-35951985D01*
X98942545Y-35959713D01*
X98942907Y-35960801D01*
X98942419Y-35963258D01*
X98831308Y-35963258D01*
X98831308Y-34820401D01*
X98942419Y-34820401D01*
X98942419Y-35439448D01*
X98946225Y-35458582D01*
X98973285Y-35485642D01*
X99011553Y-35485642D01*
X99038613Y-35458582D01*
X99042419Y-35439448D01*
X99042419Y-34930589D01*
X99340446Y-35191363D01*
X99352766Y-35198457D01*
X99354237Y-35199928D01*
X99355320Y-35199928D01*
X99357352Y-35201098D01*
X99374906Y-35199928D01*
X99392505Y-35199928D01*
X99393761Y-35198671D01*
X99395536Y-35198553D01*
X99407124Y-35185308D01*
X99419565Y-35172868D01*
X99420022Y-35170567D01*
X99420735Y-35169753D01*
X99420596Y-35167680D01*
X99423371Y-35153734D01*
X99423371Y-35022680D01*
X99462082Y-34945256D01*
X99498227Y-34909112D01*
X99575651Y-34870401D01*
X99790139Y-34870401D01*
X99867561Y-34909112D01*
X99903708Y-34945258D01*
X99942419Y-35022680D01*
X99942419Y-35284787D01*
X99903708Y-35362209D01*
X99861825Y-35404092D01*
X99850986Y-35420313D01*
X99850986Y-35458582D01*
X99878045Y-35485642D01*
X99916314Y-35485642D01*
X99932535Y-35474804D01*
X99980155Y-35427185D01*
X99984609Y-35420518D01*
X99989521Y-35414190D01*
X100037140Y-35318952D01*
X100037801Y-35316536D01*
X100038613Y-35315725D01*
X100040176Y-35307863D01*
X100042293Y-35300136D01*
X100041930Y-35299047D01*
X100042419Y-35296591D01*
X100042419Y-35010877D01*
X100041930Y-35008420D01*
X100042293Y-35007332D01*
X100040176Y-34999604D01*
X100038613Y-34991743D01*
X100037801Y-34990931D01*
X100037140Y-34988516D01*
X99989521Y-34893278D01*
X99984609Y-34886949D01*
X99980155Y-34880283D01*
X99932535Y-34832664D01*
X99925868Y-34828209D01*
X99919540Y-34823298D01*
X99824303Y-34775680D01*
X99821887Y-34775018D01*
X99821076Y-34774207D01*
X99813214Y-34772643D01*
X99805487Y-34770527D01*
X99804398Y-34770889D01*
X99801942Y-34770401D01*
X99563847Y-34770401D01*
X99561390Y-34770889D01*
X99560302Y-34770527D01*
X99552574Y-34772643D01*
X99544713Y-34774207D01*
X99543901Y-34775018D01*
X99541486Y-34775680D01*
X99446248Y-34823299D01*
X99439919Y-34828210D01*
X99433253Y-34832665D01*
X99385635Y-34880284D01*
X99381183Y-34886945D01*
X99376268Y-34893279D01*
X99328650Y-34988516D01*
X99327988Y-34990931D01*
X99327177Y-34991743D01*
X99325613Y-34999604D01*
X99323497Y-35007332D01*
X99323859Y-35008420D01*
X99323371Y-35010877D01*
X99323371Y-35043545D01*
X99025344Y-34782772D01*
X99013023Y-34775677D01*
X99011553Y-34774207D01*
X99010470Y-34774207D01*
X99008438Y-34773037D01*
X98990884Y-34774207D01*
X98973285Y-34774207D01*
X98972028Y-34775463D01*
X98970254Y-34775582D01*
X98958665Y-34788826D01*
X98946225Y-34801267D01*
X98945767Y-34803567D01*
X98945055Y-34804382D01*
X98945193Y-34806454D01*
X98942419Y-34820401D01*
X98831308Y-34820401D01*
X98831308Y-33201353D01*
X98942419Y-33201353D01*
X98942419Y-33772781D01*
X98946225Y-33791915D01*
X98973285Y-33818975D01*
X99011553Y-33818975D01*
X99038613Y-33791915D01*
X99042419Y-33772781D01*
X99042419Y-33537067D01*
X99992419Y-33537067D01*
X100011553Y-33533261D01*
X100038613Y-33506201D01*
X100038613Y-33467933D01*
X100011553Y-33440873D01*
X99992419Y-33437067D01*
X99042419Y-33437067D01*
X99042419Y-33201353D01*
X99038613Y-33182219D01*
X99011553Y-33155159D01*
X98973285Y-33155159D01*
X98946225Y-33182219D01*
X98942419Y-33201353D01*
X98831308Y-33201353D01*
X98831308Y-32582305D01*
X99275752Y-32582305D01*
X99275752Y-32772781D01*
X99276240Y-32775237D01*
X99275878Y-32776326D01*
X99277994Y-32784053D01*
X99279558Y-32791915D01*
X99280369Y-32792726D01*
X99281031Y-32795142D01*
X99328649Y-32890379D01*
X99334752Y-32898243D01*
X99335598Y-32900779D01*
X99338421Y-32902970D01*
X99340611Y-32905791D01*
X99343144Y-32906635D01*
X99351010Y-32912740D01*
X99446248Y-32960359D01*
X99448663Y-32961020D01*
X99449475Y-32961832D01*
X99457336Y-32963395D01*
X99465064Y-32965512D01*
X99466152Y-32965149D01*
X99468609Y-32965638D01*
X99849561Y-32965638D01*
X99852017Y-32965149D01*
X99853105Y-32965512D01*
X99860829Y-32963396D01*
X99868695Y-32961832D01*
X99869506Y-32961020D01*
X99871921Y-32960359D01*
X99967160Y-32912741D01*
X99975024Y-32906637D01*
X99977560Y-32905792D01*
X99979751Y-32902968D01*
X99982572Y-32900779D01*
X99983416Y-32898245D01*
X99989521Y-32890380D01*
X100037140Y-32795142D01*
X100037801Y-32792726D01*
X100038613Y-32791915D01*
X100040176Y-32784053D01*
X100042293Y-32776326D01*
X100041930Y-32775237D01*
X100042419Y-32772781D01*
X100042419Y-32582305D01*
X100041930Y-32579848D01*
X100042293Y-32578760D01*
X100040176Y-32571032D01*
X100038613Y-32563171D01*
X100037801Y-32562359D01*
X100037140Y-32559944D01*
X99989521Y-32464706D01*
X99977560Y-32449294D01*
X99941255Y-32437193D01*
X99907027Y-32454307D01*
X99894926Y-32490612D01*
X99900079Y-32509428D01*
X99942419Y-32594108D01*
X99942419Y-32760977D01*
X99907532Y-32830751D01*
X99837759Y-32865638D01*
X99700075Y-32865638D01*
X99612876Y-32429642D01*
X99610041Y-32422818D01*
X99610041Y-32420314D01*
X99608261Y-32418534D01*
X99605391Y-32411626D01*
X99593277Y-32403550D01*
X99582981Y-32393254D01*
X99575643Y-32391794D01*
X99573550Y-32390399D01*
X99571095Y-32390889D01*
X99563847Y-32389448D01*
X99468609Y-32389448D01*
X99466152Y-32389936D01*
X99465064Y-32389574D01*
X99457336Y-32391690D01*
X99449475Y-32393254D01*
X99448663Y-32394065D01*
X99446248Y-32394727D01*
X99351010Y-32442346D01*
X99343144Y-32448450D01*
X99340611Y-32449295D01*
X99338421Y-32452115D01*
X99335598Y-32454307D01*
X99334752Y-32456842D01*
X99328649Y-32464707D01*
X99281031Y-32559944D01*
X99280369Y-32562359D01*
X99279558Y-32563171D01*
X99277994Y-32571032D01*
X99275878Y-32578760D01*
X99276240Y-32579848D01*
X99275752Y-32582305D01*
X98831308Y-32582305D01*
X98831308Y-31725162D01*
X99275752Y-31725162D01*
X99275752Y-31915638D01*
X99276240Y-31918094D01*
X99275878Y-31919183D01*
X99277994Y-31926910D01*
X99279558Y-31934772D01*
X99280369Y-31935583D01*
X99281031Y-31937999D01*
X99328649Y-32033236D01*
X99340611Y-32048648D01*
X99376915Y-32060750D01*
X99411143Y-32043636D01*
X99423245Y-32007331D01*
X99418092Y-31988515D01*
X99375752Y-31903835D01*
X99375752Y-31736965D01*
X99410638Y-31667191D01*
X99480413Y-31632305D01*
X99532945Y-31632305D01*
X99561466Y-31689346D01*
X99561466Y-31915638D01*
X99561954Y-31918094D01*
X99561592Y-31919183D01*
X99563708Y-31926910D01*
X99565272Y-31934772D01*
X99566083Y-31935583D01*
X99566745Y-31937999D01*
X99614363Y-32033236D01*
X99620466Y-32041100D01*
X99621312Y-32043636D01*
X99624135Y-32045827D01*
X99626325Y-32048648D01*
X99628858Y-32049492D01*
X99636724Y-32055597D01*
X99731962Y-32103216D01*
X99734377Y-32103877D01*
X99735189Y-32104689D01*
X99743050Y-32106252D01*
X99750778Y-32108369D01*
X99751866Y-32108006D01*
X99754323Y-32108495D01*
X99849561Y-32108495D01*
X99852017Y-32108006D01*
X99853105Y-32108369D01*
X99860829Y-32106253D01*
X99868695Y-32104689D01*
X99869506Y-32103877D01*
X99871921Y-32103216D01*
X99967160Y-32055598D01*
X99975024Y-32049494D01*
X99977560Y-32048649D01*
X99979751Y-32045825D01*
X99982572Y-32043636D01*
X99983416Y-32041102D01*
X99989521Y-32033237D01*
X100037140Y-31937999D01*
X100037801Y-31935583D01*
X100038613Y-31934772D01*
X100040176Y-31926910D01*
X100042293Y-31919183D01*
X100041930Y-31918094D01*
X100042419Y-31915638D01*
X100042419Y-31677543D01*
X100041930Y-31675086D01*
X100042293Y-31673998D01*
X100040176Y-31666270D01*
X100038613Y-31658409D01*
X100037801Y-31657597D01*
X100037140Y-31655182D01*
X100019716Y-31620335D01*
X100038613Y-31601439D01*
X100038613Y-31563171D01*
X100011553Y-31536111D01*
X99992419Y-31532305D01*
X99468609Y-31532305D01*
X99466152Y-31532793D01*
X99465064Y-31532431D01*
X99457336Y-31534547D01*
X99449475Y-31536111D01*
X99448663Y-31536922D01*
X99446248Y-31537584D01*
X99351010Y-31585203D01*
X99343144Y-31591307D01*
X99340611Y-31592152D01*
X99338421Y-31594972D01*
X99335598Y-31597164D01*
X99334752Y-31599699D01*
X99328649Y-31607564D01*
X99281031Y-31702801D01*
X99280369Y-31705216D01*
X99279558Y-31706028D01*
X99277994Y-31713889D01*
X99275878Y-31721617D01*
X99276240Y-31722705D01*
X99275752Y-31725162D01*
X98831308Y-31725162D01*
X98831308Y-30391829D01*
X99275752Y-30391829D01*
X99275752Y-30534686D01*
X99276240Y-30537142D01*
X99275878Y-30538231D01*
X99277994Y-30545958D01*
X99279558Y-30553820D01*
X99280369Y-30554631D01*
X99281031Y-30557047D01*
X99328649Y-30652284D01*
X99334752Y-30660148D01*
X99335598Y-30662684D01*
X99338421Y-30664875D01*
X99340611Y-30667696D01*
X99343144Y-30668540D01*
X99351010Y-30674645D01*
X99356806Y-30677543D01*
X99351010Y-30680441D01*
X99343144Y-30686545D01*
X99340611Y-30687390D01*
X99338421Y-30690210D01*
X99335598Y-30692402D01*
X99334752Y-30694937D01*
X99328649Y-30702802D01*
X99281031Y-30798039D01*
X99280369Y-30800454D01*
X99279558Y-30801266D01*
X99277994Y-30809127D01*
X99275878Y-30816855D01*
X99276240Y-30817943D01*
X99275752Y-30820400D01*
X99275752Y-30963257D01*
X99276240Y-30965713D01*
X99275878Y-30966802D01*
X99277994Y-30974529D01*
X99279558Y-30982391D01*
X99280369Y-30983202D01*
X99281031Y-30985618D01*
X99317135Y-31057827D01*
X99306618Y-31059920D01*
X99279558Y-31086980D01*
X99279558Y-31125248D01*
X99306618Y-31152308D01*
X99325752Y-31156114D01*
X99992419Y-31156114D01*
X100011553Y-31152308D01*
X100038613Y-31125248D01*
X100038613Y-31086980D01*
X100011553Y-31059920D01*
X99992419Y-31056114D01*
X99441701Y-31056114D01*
X99414463Y-31028877D01*
X99375752Y-30951454D01*
X99375752Y-30832203D01*
X99410638Y-30762429D01*
X99480413Y-30727543D01*
X99992419Y-30727543D01*
X100011553Y-30723737D01*
X100038613Y-30696677D01*
X100038613Y-30658409D01*
X100011553Y-30631349D01*
X99992419Y-30627543D01*
X99480413Y-30627543D01*
X99410638Y-30592656D01*
X99375752Y-30522883D01*
X99375752Y-30403631D01*
X99410638Y-30333857D01*
X99480413Y-30298971D01*
X99992419Y-30298971D01*
X100011553Y-30295165D01*
X100038613Y-30268105D01*
X100038613Y-30229837D01*
X100011553Y-30202777D01*
X99992419Y-30198971D01*
X99468609Y-30198971D01*
X99466152Y-30199459D01*
X99465064Y-30199097D01*
X99457336Y-30201213D01*
X99449475Y-30202777D01*
X99448663Y-30203588D01*
X99446248Y-30204250D01*
X99351010Y-30251869D01*
X99343144Y-30257973D01*
X99340611Y-30258818D01*
X99338421Y-30261638D01*
X99335598Y-30263830D01*
X99334752Y-30266365D01*
X99328649Y-30274230D01*
X99281031Y-30369469D01*
X99280369Y-30371883D01*
X99279558Y-30372695D01*
X99277993Y-30380560D01*
X99275878Y-30388285D01*
X99276240Y-30389372D01*
X99275752Y-30391829D01*
X98831308Y-30391829D01*
X98831308Y-28439448D01*
X98942419Y-28439448D01*
X98942419Y-29106114D01*
X98946225Y-29125248D01*
X98973285Y-29152308D01*
X99011553Y-29152308D01*
X99038613Y-29125248D01*
X99042419Y-29106114D01*
X99042419Y-28515274D01*
X99972723Y-28913976D01*
X99991809Y-28918015D01*
X100027340Y-28903802D01*
X100042415Y-28868629D01*
X100028202Y-28833097D01*
X100012115Y-28822062D01*
X99012115Y-28393491D01*
X99011702Y-28393403D01*
X99011553Y-28393254D01*
X99010995Y-28393254D01*
X98993029Y-28389452D01*
X98983523Y-28393254D01*
X98973285Y-28393254D01*
X98966459Y-28400079D01*
X98957497Y-28403664D01*
X98953463Y-28413075D01*
X98946225Y-28420314D01*
X98942641Y-28438327D01*
X98942423Y-28438838D01*
X98942501Y-28439033D01*
X98942419Y-28439448D01*
X98831308Y-28439448D01*
X98831308Y-28278341D01*
X100153530Y-28278341D01*
X100153530Y-38406277D01*
G37*
G36*
X110290475Y-63877524D02*
G01*
X109971327Y-63877524D01*
X109893903Y-63838812D01*
X109857758Y-63802668D01*
X109819047Y-63725245D01*
X109819047Y-63605994D01*
X109857758Y-63528570D01*
X109893903Y-63492426D01*
X109971327Y-63453715D01*
X110290475Y-63453715D01*
X110290475Y-63877524D01*
G37*
G36*
X106644190Y-61406292D02*
G01*
X106680334Y-61442437D01*
X106719046Y-61519860D01*
X106719046Y-61781967D01*
X106680334Y-61859390D01*
X106644190Y-61895535D01*
X106566767Y-61934247D01*
X106399898Y-61934247D01*
X106342856Y-61905726D01*
X106342856Y-61396101D01*
X106399897Y-61367580D01*
X106566767Y-61367580D01*
X106644190Y-61406292D01*
G37*
G36*
X108072762Y-61406292D02*
G01*
X108108906Y-61442437D01*
X108147618Y-61519860D01*
X108147618Y-61781967D01*
X108108906Y-61859390D01*
X108072762Y-61895535D01*
X107995339Y-61934247D01*
X107876089Y-61934247D01*
X107798665Y-61895535D01*
X107762520Y-61859391D01*
X107723809Y-61781968D01*
X107723809Y-61519860D01*
X107762520Y-61442436D01*
X107798665Y-61406291D01*
X107876088Y-61367580D01*
X107995339Y-61367580D01*
X108072762Y-61406292D01*
G37*
G36*
X110719047Y-61829586D02*
G01*
X110684160Y-61899360D01*
X110614387Y-61934247D01*
X110447518Y-61934247D01*
X110377743Y-61899360D01*
X110342857Y-61829587D01*
X110342857Y-61787142D01*
X110719047Y-61711904D01*
X110719047Y-61829586D01*
G37*
G36*
X113307305Y-64088635D02*
G01*
X106131745Y-64088635D01*
X106131745Y-62927524D01*
X108147619Y-62927524D01*
X108147619Y-63927524D01*
X108151425Y-63946658D01*
X108157707Y-63952940D01*
X108160745Y-63961293D01*
X108170710Y-63965943D01*
X108178485Y-63973718D01*
X108187370Y-63973718D01*
X108195423Y-63977476D01*
X108205758Y-63973718D01*
X108216753Y-63973718D01*
X108223035Y-63967435D01*
X108231388Y-63964398D01*
X108242928Y-63948668D01*
X108530951Y-63331473D01*
X108818976Y-63948669D01*
X108830516Y-63964398D01*
X108838868Y-63967435D01*
X108845151Y-63973718D01*
X108856146Y-63973718D01*
X108866481Y-63977476D01*
X108874534Y-63973718D01*
X108883419Y-63973718D01*
X108891193Y-63965943D01*
X108901159Y-63961293D01*
X108904196Y-63952940D01*
X108910479Y-63946658D01*
X108914285Y-63927524D01*
X108914285Y-62927524D01*
X109290475Y-62927524D01*
X109290475Y-63927524D01*
X109294281Y-63946658D01*
X109321341Y-63973718D01*
X109359609Y-63973718D01*
X109386669Y-63946658D01*
X109390475Y-63927524D01*
X109390475Y-63594191D01*
X109719047Y-63594191D01*
X109719047Y-63737048D01*
X109719535Y-63739504D01*
X109719173Y-63740593D01*
X109721289Y-63748320D01*
X109722853Y-63756182D01*
X109723664Y-63756993D01*
X109724326Y-63759409D01*
X109771944Y-63854646D01*
X109776859Y-63860979D01*
X109781311Y-63867641D01*
X109828929Y-63915260D01*
X109835595Y-63919714D01*
X109841924Y-63924626D01*
X109937162Y-63972245D01*
X109939577Y-63972906D01*
X109940389Y-63973718D01*
X109948250Y-63975281D01*
X109955978Y-63977398D01*
X109957066Y-63977035D01*
X109959523Y-63977524D01*
X110340475Y-63977524D01*
X110359609Y-63973718D01*
X110386669Y-63946658D01*
X110390475Y-63927524D01*
X110390475Y-63908390D01*
X110627615Y-63908390D01*
X110627615Y-63946658D01*
X110654675Y-63973718D01*
X110673809Y-63977524D01*
X111245237Y-63977524D01*
X111264371Y-63973718D01*
X111291431Y-63946658D01*
X111291431Y-63908390D01*
X111264371Y-63881330D01*
X111245237Y-63877524D01*
X111009523Y-63877524D01*
X111009523Y-62927524D01*
X111005717Y-62908390D01*
X110978657Y-62881330D01*
X110940389Y-62881330D01*
X110913329Y-62908390D01*
X110909523Y-62927524D01*
X110909523Y-63877524D01*
X110673809Y-63877524D01*
X110654675Y-63881330D01*
X110627615Y-63908390D01*
X110390475Y-63908390D01*
X110390475Y-62927524D01*
X110386669Y-62908390D01*
X110359609Y-62881330D01*
X110321341Y-62881330D01*
X110294281Y-62908390D01*
X110290475Y-62927524D01*
X110290475Y-63353715D01*
X110128413Y-63353715D01*
X109810009Y-62898851D01*
X109795918Y-62885358D01*
X109758232Y-62878708D01*
X109726881Y-62900653D01*
X109720231Y-62938339D01*
X109728085Y-62956197D01*
X110006347Y-63353715D01*
X109959523Y-63353715D01*
X109957066Y-63354203D01*
X109955978Y-63353841D01*
X109948250Y-63355957D01*
X109940389Y-63357521D01*
X109939577Y-63358332D01*
X109937162Y-63358994D01*
X109841924Y-63406613D01*
X109835595Y-63411524D01*
X109828929Y-63415979D01*
X109781311Y-63463598D01*
X109776859Y-63470259D01*
X109771944Y-63476593D01*
X109724326Y-63571830D01*
X109723664Y-63574245D01*
X109722853Y-63575057D01*
X109721289Y-63582918D01*
X109719173Y-63590646D01*
X109719535Y-63591734D01*
X109719047Y-63594191D01*
X109390475Y-63594191D01*
X109390475Y-62927524D01*
X109386669Y-62908390D01*
X109359609Y-62881330D01*
X109321341Y-62881330D01*
X109294281Y-62908390D01*
X109290475Y-62927524D01*
X108914285Y-62927524D01*
X108910479Y-62908390D01*
X108883419Y-62881330D01*
X108845151Y-62881330D01*
X108818091Y-62908390D01*
X108814285Y-62927524D01*
X108814285Y-63702146D01*
X108576261Y-63192095D01*
X108568638Y-63181705D01*
X108567826Y-63179470D01*
X108566568Y-63178883D01*
X108564721Y-63176365D01*
X108548648Y-63170520D01*
X108533148Y-63163287D01*
X108530952Y-63164085D01*
X108528756Y-63163287D01*
X108513255Y-63170520D01*
X108497183Y-63176365D01*
X108495335Y-63178883D01*
X108494078Y-63179470D01*
X108493265Y-63181704D01*
X108485643Y-63192094D01*
X108247619Y-63702146D01*
X108247619Y-62927524D01*
X108243813Y-62908390D01*
X108216753Y-62881330D01*
X108178485Y-62881330D01*
X108151425Y-62908390D01*
X108147619Y-62927524D01*
X106131745Y-62927524D01*
X106131745Y-61317580D01*
X106242856Y-61317580D01*
X106242856Y-62317580D01*
X106246662Y-62336714D01*
X106273722Y-62363774D01*
X106311990Y-62363774D01*
X106339050Y-62336714D01*
X106342856Y-62317580D01*
X106342856Y-62017529D01*
X106365733Y-62028968D01*
X106368148Y-62029629D01*
X106368960Y-62030441D01*
X106376821Y-62032004D01*
X106384549Y-62034121D01*
X106385637Y-62033758D01*
X106388094Y-62034247D01*
X106578570Y-62034247D01*
X106581026Y-62033758D01*
X106582115Y-62034121D01*
X106589842Y-62032004D01*
X106597704Y-62030441D01*
X106598515Y-62029629D01*
X106600931Y-62028968D01*
X106696168Y-61981350D01*
X106702501Y-61976434D01*
X106709163Y-61971983D01*
X106756782Y-61924365D01*
X106761236Y-61917698D01*
X106766148Y-61911370D01*
X106813767Y-61816132D01*
X106814428Y-61813716D01*
X106815240Y-61812905D01*
X106816803Y-61805043D01*
X106818920Y-61797316D01*
X106818557Y-61796227D01*
X106819046Y-61793771D01*
X106819046Y-61508057D01*
X106818557Y-61505600D01*
X106818920Y-61504512D01*
X106816803Y-61496784D01*
X106815240Y-61488923D01*
X106814428Y-61488111D01*
X106813767Y-61485696D01*
X106766148Y-61390458D01*
X106761236Y-61384129D01*
X106756782Y-61377463D01*
X106709163Y-61329845D01*
X106702503Y-61325394D01*
X106696169Y-61320479D01*
X106683281Y-61314035D01*
X107052506Y-61314035D01*
X107064607Y-61350340D01*
X107080019Y-61362301D01*
X107160350Y-61402467D01*
X107195237Y-61472241D01*
X107195237Y-62317580D01*
X107199043Y-62336714D01*
X107226103Y-62363774D01*
X107264371Y-62363774D01*
X107291431Y-62336714D01*
X107295237Y-62317580D01*
X107295237Y-61508057D01*
X107623809Y-61508057D01*
X107623809Y-61793771D01*
X107624297Y-61796227D01*
X107623935Y-61797316D01*
X107626051Y-61805043D01*
X107627615Y-61812905D01*
X107628426Y-61813716D01*
X107629088Y-61816132D01*
X107676706Y-61911369D01*
X107681621Y-61917702D01*
X107686073Y-61924364D01*
X107733691Y-61971983D01*
X107740357Y-61976437D01*
X107746686Y-61981349D01*
X107841924Y-62028968D01*
X107844339Y-62029629D01*
X107845151Y-62030441D01*
X107853012Y-62032004D01*
X107860740Y-62034121D01*
X107861828Y-62033758D01*
X107864285Y-62034247D01*
X108007142Y-62034247D01*
X108009598Y-62033758D01*
X108010687Y-62034121D01*
X108018414Y-62032004D01*
X108026276Y-62030441D01*
X108027087Y-62029629D01*
X108029503Y-62028968D01*
X108124740Y-61981350D01*
X108131073Y-61976434D01*
X108137735Y-61971983D01*
X108185354Y-61924365D01*
X108189808Y-61917698D01*
X108194720Y-61911370D01*
X108242339Y-61816132D01*
X108243000Y-61813716D01*
X108243812Y-61812905D01*
X108245375Y-61805043D01*
X108247492Y-61797316D01*
X108247129Y-61796227D01*
X108247618Y-61793771D01*
X108247618Y-61508057D01*
X108247129Y-61505600D01*
X108247492Y-61504512D01*
X108245375Y-61496784D01*
X108243812Y-61488923D01*
X108243000Y-61488111D01*
X108242339Y-61485696D01*
X108194720Y-61390458D01*
X108189808Y-61384129D01*
X108185354Y-61377463D01*
X108137735Y-61329845D01*
X108131075Y-61325394D01*
X108124741Y-61320479D01*
X108118943Y-61317580D01*
X108576190Y-61317580D01*
X108576190Y-61841390D01*
X108576678Y-61843846D01*
X108576316Y-61844935D01*
X108578432Y-61852662D01*
X108579996Y-61860524D01*
X108580807Y-61861335D01*
X108581469Y-61863751D01*
X108629087Y-61958988D01*
X108635190Y-61966852D01*
X108636036Y-61969388D01*
X108638859Y-61971579D01*
X108641049Y-61974400D01*
X108643582Y-61975244D01*
X108651448Y-61981349D01*
X108746686Y-62028968D01*
X108749101Y-62029629D01*
X108749913Y-62030441D01*
X108757774Y-62032004D01*
X108765502Y-62034121D01*
X108766590Y-62033758D01*
X108769047Y-62034247D01*
X108911904Y-62034247D01*
X108914360Y-62033758D01*
X108915449Y-62034121D01*
X108923176Y-62032004D01*
X108931038Y-62030441D01*
X108931849Y-62029629D01*
X108934265Y-62028968D01*
X109004761Y-61993720D01*
X109004761Y-62317580D01*
X109008567Y-62336714D01*
X109035627Y-62363774D01*
X109073895Y-62363774D01*
X109100955Y-62336714D01*
X109104761Y-62317580D01*
X109104761Y-61460438D01*
X109433333Y-61460438D01*
X109433333Y-61508057D01*
X109433821Y-61510513D01*
X109433459Y-61511602D01*
X109435575Y-61519329D01*
X109437139Y-61527191D01*
X109437950Y-61528002D01*
X109438612Y-61530418D01*
X109486230Y-61625655D01*
X109492333Y-61633519D01*
X109493179Y-61636055D01*
X109496002Y-61638246D01*
X109498192Y-61641067D01*
X109500725Y-61641911D01*
X109508591Y-61648016D01*
X109603829Y-61695635D01*
X109606244Y-61696296D01*
X109607056Y-61697108D01*
X109614917Y-61698671D01*
X109622645Y-61700788D01*
X109623733Y-61700425D01*
X109626190Y-61700914D01*
X109757244Y-61700914D01*
X109827017Y-61735800D01*
X109861904Y-61805574D01*
X109861904Y-61829586D01*
X109827017Y-61899360D01*
X109757244Y-61934247D01*
X109637994Y-61934247D01*
X109553313Y-61891907D01*
X109534497Y-61886754D01*
X109498192Y-61898855D01*
X109481078Y-61933083D01*
X109493179Y-61969388D01*
X109508591Y-61981349D01*
X109603829Y-62028968D01*
X109606244Y-62029629D01*
X109607056Y-62030441D01*
X109614917Y-62032004D01*
X109622645Y-62034121D01*
X109623733Y-62033758D01*
X109626190Y-62034247D01*
X109769047Y-62034247D01*
X109771503Y-62033758D01*
X109772592Y-62034121D01*
X109780319Y-62032004D01*
X109788181Y-62030441D01*
X109788992Y-62029629D01*
X109791408Y-62028968D01*
X109886645Y-61981350D01*
X109894509Y-61975246D01*
X109897045Y-61974401D01*
X109899236Y-61971577D01*
X109902057Y-61969388D01*
X109902901Y-61966854D01*
X109909006Y-61958989D01*
X109956625Y-61863751D01*
X109957286Y-61861335D01*
X109958098Y-61860524D01*
X109959661Y-61852662D01*
X109961778Y-61844935D01*
X109961415Y-61843846D01*
X109961904Y-61841390D01*
X109961904Y-61793771D01*
X109961415Y-61791314D01*
X109961778Y-61790226D01*
X109959661Y-61782498D01*
X109958098Y-61774637D01*
X109957286Y-61773825D01*
X109956625Y-61771410D01*
X109943996Y-61746152D01*
X110242857Y-61746152D01*
X110242857Y-61841390D01*
X110243345Y-61843846D01*
X110242983Y-61844935D01*
X110245099Y-61852662D01*
X110246663Y-61860524D01*
X110247474Y-61861335D01*
X110248136Y-61863751D01*
X110295754Y-61958988D01*
X110301857Y-61966852D01*
X110302703Y-61969388D01*
X110305526Y-61971579D01*
X110307716Y-61974400D01*
X110310249Y-61975244D01*
X110318115Y-61981349D01*
X110413353Y-62028968D01*
X110415768Y-62029629D01*
X110416580Y-62030441D01*
X110424441Y-62032004D01*
X110432169Y-62034121D01*
X110433257Y-62033758D01*
X110435714Y-62034247D01*
X110626190Y-62034247D01*
X110628646Y-62033758D01*
X110629735Y-62034121D01*
X110637462Y-62032004D01*
X110645324Y-62030441D01*
X110646135Y-62029629D01*
X110648551Y-62028968D01*
X110743788Y-61981350D01*
X110751652Y-61975246D01*
X110754188Y-61974401D01*
X110756379Y-61971577D01*
X110759200Y-61969388D01*
X110760044Y-61966854D01*
X110761395Y-61965113D01*
X111008568Y-61965113D01*
X111008568Y-62003381D01*
X111035628Y-62030441D01*
X111054762Y-62034247D01*
X111150000Y-62034247D01*
X111152456Y-62033758D01*
X111153545Y-62034121D01*
X111161272Y-62032004D01*
X111169134Y-62030441D01*
X111169945Y-62029629D01*
X111172361Y-62028968D01*
X111267598Y-61981350D01*
X111273931Y-61976434D01*
X111280593Y-61971983D01*
X111290476Y-61962100D01*
X111290476Y-61984247D01*
X111294282Y-62003381D01*
X111321342Y-62030441D01*
X111359610Y-62030441D01*
X111386670Y-62003381D01*
X111390476Y-61984247D01*
X111390476Y-61317580D01*
X111766667Y-61317580D01*
X111766667Y-61841390D01*
X111767155Y-61843846D01*
X111766793Y-61844935D01*
X111768909Y-61852662D01*
X111770473Y-61860524D01*
X111771284Y-61861335D01*
X111771946Y-61863751D01*
X111819564Y-61958988D01*
X111825667Y-61966852D01*
X111826513Y-61969388D01*
X111829336Y-61971579D01*
X111831526Y-61974400D01*
X111834059Y-61975244D01*
X111841925Y-61981349D01*
X111937163Y-62028968D01*
X111939578Y-62029629D01*
X111940390Y-62030441D01*
X111948251Y-62032004D01*
X111955979Y-62034121D01*
X111957067Y-62033758D01*
X111959524Y-62034247D01*
X112102381Y-62034247D01*
X112104837Y-62033758D01*
X112105926Y-62034121D01*
X112113653Y-62032004D01*
X112121515Y-62030441D01*
X112122326Y-62029629D01*
X112124742Y-62028968D01*
X112195238Y-61993720D01*
X112195238Y-62317580D01*
X112199044Y-62336714D01*
X112226104Y-62363774D01*
X112264372Y-62363774D01*
X112291432Y-62336714D01*
X112295238Y-62317580D01*
X112295238Y-62298446D01*
X112532378Y-62298446D01*
X112532378Y-62336714D01*
X112559438Y-62363774D01*
X112578572Y-62367580D01*
X113150000Y-62367580D01*
X113169134Y-62363774D01*
X113196194Y-62336714D01*
X113196194Y-62298446D01*
X113169134Y-62271386D01*
X113150000Y-62267580D01*
X112914286Y-62267580D01*
X112914286Y-61317580D01*
X112910480Y-61298446D01*
X112883420Y-61271386D01*
X112845152Y-61271386D01*
X112818092Y-61298446D01*
X112814286Y-61317580D01*
X112814286Y-62267580D01*
X112578572Y-62267580D01*
X112559438Y-62271386D01*
X112532378Y-62298446D01*
X112295238Y-62298446D01*
X112295238Y-61317580D01*
X112291432Y-61298446D01*
X112264372Y-61271386D01*
X112226104Y-61271386D01*
X112199044Y-61298446D01*
X112195238Y-61317580D01*
X112195238Y-61868298D01*
X112168001Y-61895535D01*
X112090578Y-61934247D01*
X111971328Y-61934247D01*
X111901553Y-61899360D01*
X111866667Y-61829587D01*
X111866667Y-61317580D01*
X111862861Y-61298446D01*
X111835801Y-61271386D01*
X111797533Y-61271386D01*
X111770473Y-61298446D01*
X111766667Y-61317580D01*
X111390476Y-61317580D01*
X111386670Y-61298446D01*
X111359610Y-61271386D01*
X111321342Y-61271386D01*
X111294282Y-61298446D01*
X111290476Y-61317580D01*
X111290476Y-61781967D01*
X111251764Y-61859390D01*
X111215620Y-61895535D01*
X111138197Y-61934247D01*
X111054762Y-61934247D01*
X111035628Y-61938053D01*
X111008568Y-61965113D01*
X110761395Y-61965113D01*
X110766149Y-61958989D01*
X110813768Y-61863751D01*
X110814429Y-61861335D01*
X110815241Y-61860524D01*
X110816804Y-61852662D01*
X110818921Y-61844935D01*
X110818558Y-61843846D01*
X110819047Y-61841390D01*
X110819047Y-61460438D01*
X110818558Y-61457981D01*
X110818921Y-61456893D01*
X110816804Y-61449165D01*
X110815241Y-61441304D01*
X110814429Y-61440492D01*
X110813768Y-61438077D01*
X110766149Y-61342839D01*
X110760046Y-61334975D01*
X110759201Y-61332440D01*
X110756378Y-61330249D01*
X110754188Y-61327427D01*
X110751652Y-61326581D01*
X110743789Y-61320479D01*
X110648551Y-61272859D01*
X110646135Y-61272197D01*
X110645324Y-61271386D01*
X110637462Y-61269822D01*
X110629735Y-61267706D01*
X110628646Y-61268068D01*
X110626190Y-61267580D01*
X110435714Y-61267580D01*
X110433257Y-61268068D01*
X110432169Y-61267706D01*
X110424441Y-61269822D01*
X110416580Y-61271386D01*
X110415768Y-61272197D01*
X110413353Y-61272859D01*
X110318115Y-61320479D01*
X110302703Y-61332440D01*
X110290602Y-61368745D01*
X110307716Y-61402973D01*
X110344021Y-61415074D01*
X110362837Y-61409921D01*
X110447517Y-61367580D01*
X110614387Y-61367580D01*
X110684160Y-61402467D01*
X110719047Y-61472241D01*
X110719047Y-61609923D01*
X110283051Y-61697123D01*
X110276227Y-61699958D01*
X110273723Y-61699958D01*
X110271943Y-61701737D01*
X110265035Y-61704608D01*
X110256959Y-61716721D01*
X110246663Y-61727018D01*
X110245203Y-61734355D01*
X110243808Y-61736449D01*
X110244298Y-61738903D01*
X110242857Y-61746152D01*
X109943996Y-61746152D01*
X109909006Y-61676172D01*
X109902901Y-61668306D01*
X109902057Y-61665773D01*
X109899236Y-61663583D01*
X109897045Y-61660760D01*
X109894509Y-61659914D01*
X109886645Y-61653811D01*
X109791408Y-61606193D01*
X109788992Y-61605531D01*
X109788181Y-61604720D01*
X109780319Y-61603156D01*
X109772592Y-61601040D01*
X109771503Y-61601402D01*
X109769047Y-61600914D01*
X109637994Y-61600914D01*
X109568219Y-61566027D01*
X109533333Y-61496254D01*
X109533333Y-61472241D01*
X109568219Y-61402467D01*
X109637993Y-61367580D01*
X109804863Y-61367580D01*
X109889543Y-61409921D01*
X109908359Y-61415074D01*
X109944664Y-61402973D01*
X109961778Y-61368745D01*
X109949677Y-61332440D01*
X109934265Y-61320479D01*
X109839027Y-61272859D01*
X109836611Y-61272197D01*
X109835800Y-61271386D01*
X109827938Y-61269822D01*
X109820211Y-61267706D01*
X109819122Y-61268068D01*
X109816666Y-61267580D01*
X109626190Y-61267580D01*
X109623733Y-61268068D01*
X109622645Y-61267706D01*
X109614917Y-61269822D01*
X109607056Y-61271386D01*
X109606244Y-61272197D01*
X109603829Y-61272859D01*
X109508591Y-61320479D01*
X109500725Y-61326583D01*
X109498192Y-61327428D01*
X109496002Y-61330248D01*
X109493179Y-61332440D01*
X109492333Y-61334975D01*
X109486230Y-61342840D01*
X109438612Y-61438077D01*
X109437950Y-61440492D01*
X109437139Y-61441304D01*
X109435575Y-61449165D01*
X109433459Y-61456893D01*
X109433821Y-61457981D01*
X109433333Y-61460438D01*
X109104761Y-61460438D01*
X109104761Y-61317580D01*
X109100955Y-61298446D01*
X109073895Y-61271386D01*
X109035627Y-61271386D01*
X109008567Y-61298446D01*
X109004761Y-61317580D01*
X109004761Y-61868298D01*
X108977524Y-61895535D01*
X108900101Y-61934247D01*
X108780851Y-61934247D01*
X108711076Y-61899360D01*
X108676190Y-61829587D01*
X108676190Y-61317580D01*
X108672384Y-61298446D01*
X108645324Y-61271386D01*
X108607056Y-61271386D01*
X108579996Y-61298446D01*
X108576190Y-61317580D01*
X108118943Y-61317580D01*
X108029503Y-61272859D01*
X108027087Y-61272197D01*
X108026276Y-61271386D01*
X108018414Y-61269822D01*
X108010687Y-61267706D01*
X108009598Y-61268068D01*
X108007142Y-61267580D01*
X107864285Y-61267580D01*
X107861828Y-61268068D01*
X107860740Y-61267706D01*
X107853012Y-61269822D01*
X107845151Y-61271386D01*
X107844339Y-61272197D01*
X107841924Y-61272859D01*
X107746686Y-61320479D01*
X107740357Y-61325390D01*
X107733691Y-61329845D01*
X107686073Y-61377464D01*
X107681621Y-61384125D01*
X107676706Y-61390459D01*
X107629088Y-61485696D01*
X107628426Y-61488111D01*
X107627615Y-61488923D01*
X107626051Y-61496784D01*
X107623935Y-61504512D01*
X107624297Y-61505600D01*
X107623809Y-61508057D01*
X107295237Y-61508057D01*
X107295237Y-61460438D01*
X107294748Y-61457981D01*
X107295111Y-61456893D01*
X107292994Y-61449165D01*
X107291431Y-61441304D01*
X107290619Y-61440492D01*
X107289958Y-61438077D01*
X107242339Y-61342839D01*
X107236236Y-61334975D01*
X107235391Y-61332440D01*
X107232568Y-61330249D01*
X107230378Y-61327427D01*
X107227842Y-61326581D01*
X107219979Y-61320479D01*
X107124741Y-61272859D01*
X107105925Y-61267706D01*
X107069620Y-61279807D01*
X107052506Y-61314035D01*
X106683281Y-61314035D01*
X106600931Y-61272859D01*
X106598515Y-61272197D01*
X106597704Y-61271386D01*
X106589842Y-61269822D01*
X106582115Y-61267706D01*
X106581026Y-61268068D01*
X106578570Y-61267580D01*
X106388094Y-61267580D01*
X106385637Y-61268068D01*
X106384549Y-61267706D01*
X106376821Y-61269822D01*
X106368960Y-61271386D01*
X106368148Y-61272197D01*
X106365733Y-61272859D01*
X106330886Y-61290282D01*
X106311990Y-61271386D01*
X106273722Y-61271386D01*
X106246662Y-61298446D01*
X106242856Y-61317580D01*
X106131745Y-61317580D01*
X106131745Y-61156469D01*
X113307305Y-61156469D01*
X113307305Y-64088635D01*
G37*
D11*
%TO.P,J3,1,Pin_1*%
%TO.N,Output*%
X109700000Y-54300000D03*
%TD*%
D12*
%TO.P,C1,1*%
%TO.N,GND*%
X114537500Y-53700000D03*
%TO.P,C1,2*%
%TO.N,+5V*%
X112462500Y-53700000D03*
%TD*%
D13*
%TO.P,R1,1*%
%TO.N,+5V*%
X114700000Y-33500000D03*
%TO.P,R1,2*%
%TO.N,Net-(Q1-A)*%
X114700000Y-31500000D03*
%TD*%
D11*
%TO.P,J1,1,Pin_1*%
%TO.N,+5V*%
X116200000Y-49500000D03*
D14*
%TO.P,J1,2,Pin_2*%
%TO.N,+3.3V*%
X116200000Y-46960000D03*
%TO.P,J1,3,Pin_3*%
%TO.N,Enable*%
X116200000Y-44420000D03*
%TO.P,J1,4,Pin_4*%
%TO.N,GND*%
X116200000Y-41880000D03*
%TD*%
D15*
%TO.P,H2,1,1*%
%TO.N,GND*%
X115580000Y-70490000D03*
D16*
X115580000Y-70490000D03*
%TD*%
D17*
%TO.P,R2,1*%
%TO.N,+5V*%
X115000000Y-37000000D03*
%TO.P,R2,2*%
%TO.N,Net-(Q1-C)*%
X113000000Y-37000000D03*
%TD*%
D11*
%TO.P,J2,1,Pin_1*%
%TO.N,+5V*%
X103200000Y-49500000D03*
D14*
%TO.P,J2,2,Pin_2*%
%TO.N,+3.3V*%
X103200000Y-46960000D03*
%TO.P,J2,3,Pin_3*%
%TO.N,Enable*%
X103200000Y-44420000D03*
%TO.P,J2,4,Pin_4*%
%TO.N,GND*%
X103200000Y-41880000D03*
%TD*%
D15*
%TO.P,H1,1,1*%
%TO.N,GND*%
X103710000Y-70490000D03*
D16*
X103710000Y-70490000D03*
%TD*%
D18*
%TO.P,RV1,1,1*%
%TO.N,+5V*%
X107160000Y-59830000D03*
%TO.P,RV1,2,2*%
%TO.N,Net-(U2--)*%
X109700000Y-57290000D03*
%TO.P,RV1,3,3*%
%TO.N,GND*%
X112240000Y-59830000D03*
%TD*%
D19*
%TO.P,Q1,1,C*%
%TO.N,Net-(Q1-C)*%
X110900000Y-37000000D03*
D20*
%TO.P,Q1,2,E*%
%TO.N,GND*%
X108360000Y-37000000D03*
%TO.P,Q1,3,K*%
X108360000Y-31500000D03*
%TO.P,Q1,4,A*%
%TO.N,Net-(Q1-A)*%
X110900000Y-31500000D03*
%TD*%
D21*
%TO.P,U2,1,GND*%
%TO.N,GND*%
X105880000Y-49580000D03*
D22*
%TO.P,U2,2,+*%
%TO.N,Net-(Q1-C)*%
X105880000Y-47040000D03*
%TO.P,U2,3,-*%
%TO.N,Net-(U2--)*%
X105880000Y-44500000D03*
%TO.P,U2,4,V-*%
%TO.N,GND*%
X105880000Y-41960000D03*
%TO.P,U2,5,BAL*%
%TO.N,unconnected-(U2-BAL-Pad5)*%
X113500000Y-41960000D03*
%TO.P,U2,6,STRB*%
%TO.N,Enable*%
X113500000Y-44500000D03*
%TO.P,U2,7*%
%TO.N,Output*%
X113500000Y-47040000D03*
%TO.P,U2,8,V+*%
%TO.N,+5V*%
X113500000Y-49580000D03*
%TD*%
D23*
%TO.N,GND*%
X109800000Y-59551000D03*
X102100000Y-29840000D03*
X107441703Y-49381000D03*
X117369426Y-39469426D03*
X108481707Y-42427293D03*
X109640000Y-66602703D03*
%TO.N,Enable*%
X103900000Y-38900000D03*
X110250000Y-44410000D03*
%TO.N,+5V*%
X116500000Y-52000000D03*
X103163628Y-51136372D03*
%TO.N,Output*%
X108000000Y-54300000D03*
%TO.N,Net-(U2--)*%
X107300000Y-57300000D03*
%TD*%
D24*
%TO.N,GND*%
X112742950Y-39000000D02*
X109298000Y-39000000D01*
X107441703Y-49381000D02*
X107160406Y-49381000D01*
X108360000Y-37000000D02*
X108481000Y-37121000D01*
X109360000Y-35199000D02*
X108360000Y-36199000D01*
X114679000Y-39602000D02*
X113344950Y-39602000D01*
X108481707Y-42427293D02*
X107934414Y-41880000D01*
X114679000Y-39602000D02*
X117236852Y-39602000D01*
X108360000Y-36199000D02*
X108360000Y-37000000D01*
X108360000Y-38062000D02*
X108360000Y-37000000D01*
X106961406Y-49580000D02*
X105880000Y-49580000D01*
X109360000Y-32500000D02*
X109360000Y-35199000D01*
X107160406Y-49381000D02*
X106961406Y-49580000D01*
X109298000Y-39000000D02*
X108360000Y-38062000D01*
X103190000Y-42190000D02*
X103000000Y-42000000D01*
X108360000Y-31500000D02*
X109360000Y-32500000D01*
X107934414Y-41880000D02*
X103200000Y-41880000D01*
X113344950Y-39602000D02*
X112742950Y-39000000D01*
X117236852Y-39602000D02*
X117369426Y-39469426D01*
%TO.N,Enable*%
X105879000Y-39438892D02*
X105879000Y-38679000D01*
X104330000Y-38470000D02*
X103900000Y-38900000D01*
X113100000Y-44500000D02*
X110940000Y-42340000D01*
X110940000Y-42340000D02*
X108829000Y-40229000D01*
X105670000Y-38470000D02*
X104330000Y-38470000D01*
X105879000Y-38679000D02*
X105670000Y-38470000D01*
X107401000Y-40201000D02*
X106641108Y-40201000D01*
X106641108Y-40201000D02*
X105879000Y-39438892D01*
X110250000Y-44410000D02*
X110940000Y-43720000D01*
X108829000Y-40229000D02*
X107429000Y-40229000D01*
X107429000Y-40229000D02*
X107401000Y-40201000D01*
X110940000Y-43720000D02*
X110940000Y-42340000D01*
X113500000Y-44500000D02*
X113100000Y-44500000D01*
%TO.N,+5V*%
X101379669Y-40340331D02*
X102099000Y-39621000D01*
X113440000Y-52491734D02*
X113440000Y-49640000D01*
X116201000Y-32292266D02*
X114993266Y-33500000D01*
X116201000Y-30707734D02*
X116201000Y-32292266D01*
X114993266Y-33500000D02*
X114700000Y-33500000D01*
X103163628Y-51136372D02*
X101379669Y-49352413D01*
X115000000Y-33800000D02*
X114700000Y-33500000D01*
X113149000Y-52782734D02*
X113440000Y-52491734D01*
X103163628Y-49536372D02*
X103200000Y-49500000D01*
X105306501Y-32593499D02*
X105306501Y-32006501D01*
X102099000Y-39621000D02*
X102099000Y-38154001D01*
X115000000Y-37000000D02*
X115000000Y-33800000D01*
X105306501Y-32006501D02*
X107614002Y-29699000D01*
X113440000Y-49640000D02*
X113500000Y-49580000D01*
X103154001Y-37099000D02*
X103700000Y-37099000D01*
X113931734Y-52000000D02*
X116500000Y-52000000D01*
X103700000Y-37099000D02*
X103700000Y-34200000D01*
X112462500Y-53469234D02*
X113931734Y-52000000D01*
X101379669Y-49352413D02*
X101379669Y-40340331D01*
X103163628Y-51136372D02*
X103163628Y-49536372D01*
X113149000Y-53013500D02*
X113149000Y-52782734D01*
X107614002Y-29699000D02*
X115192266Y-29699000D01*
X102099000Y-38154001D02*
X103154001Y-37099000D01*
X115192266Y-29699000D02*
X116201000Y-30707734D01*
X112462500Y-53700000D02*
X113149000Y-53013500D01*
X103700000Y-34200000D02*
X105306501Y-32593499D01*
%TO.N,Output*%
X110083000Y-53357000D02*
X112339000Y-51101000D01*
X112339000Y-51101000D02*
X112339000Y-51083156D01*
X108000000Y-54300000D02*
X110083000Y-54300000D01*
X112339000Y-51083156D02*
X111499000Y-50243156D01*
X110083000Y-54300000D02*
X110083000Y-53357000D01*
X112561000Y-47979000D02*
X113500000Y-47040000D01*
X111499000Y-48916844D02*
X112436844Y-47979000D01*
X112436844Y-47979000D02*
X112561000Y-47979000D01*
X111499000Y-50243156D02*
X111499000Y-48916844D01*
%TO.N,Net-(Q1-C)*%
X105165578Y-52937372D02*
X102417629Y-52937372D01*
X100278669Y-39884282D02*
X100998000Y-39164951D01*
X101362628Y-51882371D02*
X101362628Y-51880958D01*
X100998000Y-37697951D02*
X102599000Y-36096951D01*
X115648316Y-28598000D02*
X117302000Y-30251685D01*
X104205501Y-32137449D02*
X104205501Y-31550451D01*
X113000000Y-37000000D02*
X110900000Y-37000000D01*
X101362628Y-51880958D02*
X100810000Y-51328330D01*
X100278669Y-49808462D02*
X100278669Y-39884282D01*
X107157953Y-28598000D02*
X115648316Y-28598000D01*
X100998000Y-39164951D02*
X100998000Y-37697951D01*
X106921950Y-51181000D02*
X105165578Y-52937372D01*
X117302000Y-30251685D02*
X117302000Y-36991266D01*
X104205501Y-31550451D02*
X107157953Y-28598000D01*
X107926999Y-47040000D02*
X109241703Y-48354704D01*
X115792266Y-38501000D02*
X113801000Y-38501000D01*
X113000000Y-37700000D02*
X113000000Y-37000000D01*
X117302000Y-36991266D02*
X115792266Y-38501000D01*
X100810000Y-51328330D02*
X100810000Y-50339794D01*
X109241703Y-48354704D02*
X109241703Y-51084198D01*
X102599000Y-33743950D02*
X104205501Y-32137449D01*
X109144901Y-51181000D02*
X106921950Y-51181000D01*
X109241703Y-51084198D02*
X109144901Y-51181000D01*
X100810000Y-50339794D02*
X100278669Y-49808462D01*
X102599000Y-36096951D02*
X102599000Y-33743950D01*
X113801000Y-38501000D02*
X113000000Y-37700000D01*
X102417629Y-52937372D02*
X101362628Y-51882371D01*
X105880000Y-47040000D02*
X107926999Y-47040000D01*
%TO.N,Net-(Q1-A)*%
X114700000Y-31500000D02*
X110900000Y-31500000D01*
%TO.N,Net-(U2--)*%
X105880000Y-44500000D02*
X108449000Y-44500000D01*
X110398000Y-50699206D02*
X110790872Y-51092079D01*
X104900000Y-54760000D02*
X104900000Y-54900000D01*
X108449000Y-45155999D02*
X109504001Y-46211000D01*
X111499000Y-47359795D02*
X110398000Y-48460794D01*
X104900000Y-54900000D02*
X107300000Y-57300000D01*
X107378000Y-52282000D02*
X104900000Y-54760000D01*
X110398000Y-48460794D02*
X110398000Y-50699206D01*
X110790872Y-51092079D02*
X109600951Y-52282000D01*
X109600951Y-52282000D02*
X107378000Y-52282000D01*
X108449000Y-44500000D02*
X108449000Y-45155999D01*
X109504001Y-46211000D02*
X110941001Y-46211000D01*
X110941001Y-46211000D02*
X111499000Y-46768999D01*
X111499000Y-46768999D02*
X111499000Y-47359795D01*
%TD*%
%TA.AperFunction,Conductor*%
%TO.N,GND*%
G36*
X120462539Y-28230185D02*
G01*
X120508294Y-28282989D01*
X120519500Y-28334500D01*
X120519500Y-75315500D01*
X120499815Y-75382539D01*
X120447011Y-75428294D01*
X120395500Y-75439500D01*
X98894500Y-75439500D01*
X98827461Y-75419815D01*
X98781706Y-75367011D01*
X98770500Y-75315500D01*
X98770500Y-38427972D01*
X98790185Y-38360933D01*
X98842989Y-38315178D01*
X98894500Y-38303972D01*
X100073500Y-38303972D01*
X100140539Y-38323657D01*
X100186294Y-38376461D01*
X100197500Y-38427972D01*
X100197500Y-38782011D01*
X100177815Y-38849050D01*
X100161181Y-38869692D01*
X99768380Y-39262493D01*
X99729374Y-39301499D01*
X99656878Y-39373994D01*
X99569278Y-39505096D01*
X99569271Y-39505109D01*
X99508933Y-39650780D01*
X99508930Y-39650792D01*
X99478169Y-39805435D01*
X99478169Y-49887308D01*
X99508929Y-50041951D01*
X99508931Y-50041959D01*
X99535581Y-50106297D01*
X99569275Y-50187641D01*
X99618260Y-50260952D01*
X99621643Y-50266015D01*
X99656881Y-50318753D01*
X99656882Y-50318754D01*
X99973181Y-50635052D01*
X100006666Y-50696375D01*
X100009500Y-50722733D01*
X100009500Y-51407176D01*
X100040261Y-51561819D01*
X100040264Y-51561831D01*
X100100602Y-51707502D01*
X100100609Y-51707515D01*
X100188210Y-51838618D01*
X100188213Y-51838622D01*
X100730058Y-52380466D01*
X100738227Y-52389479D01*
X100740836Y-52392658D01*
X101907336Y-53559158D01*
X101907340Y-53559161D01*
X102038443Y-53646762D01*
X102038447Y-53646764D01*
X102038450Y-53646766D01*
X102184132Y-53707110D01*
X102338782Y-53737871D01*
X102338786Y-53737872D01*
X102338787Y-53737872D01*
X102496472Y-53737872D01*
X104490688Y-53737872D01*
X104557727Y-53757557D01*
X104603482Y-53810361D01*
X104613426Y-53879519D01*
X104584401Y-53943075D01*
X104578369Y-53949553D01*
X104389711Y-54138211D01*
X104333960Y-54193962D01*
X104278209Y-54249712D01*
X104190609Y-54380814D01*
X104190602Y-54380827D01*
X104130264Y-54526498D01*
X104130261Y-54526510D01*
X104099500Y-54681153D01*
X104099500Y-54978846D01*
X104130261Y-55133489D01*
X104130264Y-55133501D01*
X104190602Y-55279172D01*
X104190609Y-55279185D01*
X104278210Y-55410288D01*
X104278213Y-55410292D01*
X105789051Y-56921129D01*
X105822536Y-56982452D01*
X105823843Y-57028208D01*
X105799500Y-57181902D01*
X105799500Y-57418097D01*
X105836446Y-57651368D01*
X105909433Y-57875996D01*
X106014227Y-58081663D01*
X106016657Y-58086433D01*
X106155483Y-58277510D01*
X106322490Y-58444517D01*
X106413308Y-58510500D01*
X106517509Y-58586207D01*
X106516283Y-58587894D01*
X106557294Y-58633241D01*
X106568703Y-58702173D01*
X106541033Y-58766330D01*
X106518504Y-58787453D01*
X106364896Y-58899056D01*
X106229057Y-59034895D01*
X106229057Y-59034896D01*
X106229055Y-59034898D01*
X106180560Y-59101645D01*
X106116135Y-59190318D01*
X106028916Y-59361493D01*
X105969553Y-59544197D01*
X105939500Y-59733945D01*
X105939500Y-59926054D01*
X105969553Y-60115802D01*
X106028916Y-60298506D01*
X106028918Y-60298509D01*
X106116135Y-60469681D01*
X106229055Y-60625102D01*
X106364898Y-60760945D01*
X106520319Y-60873865D01*
X106690576Y-60960616D01*
X106691493Y-60961083D01*
X106863349Y-61016922D01*
X106921024Y-61056359D01*
X106948223Y-61120718D01*
X106936309Y-61189564D01*
X106889065Y-61241040D01*
X106825031Y-61258853D01*
X106234129Y-61258853D01*
X106234129Y-63986291D01*
X113205000Y-63986291D01*
X113205000Y-61258853D01*
X112573351Y-61258853D01*
X112506312Y-61239168D01*
X112460557Y-61186364D01*
X112450613Y-61117206D01*
X112479638Y-61053650D01*
X112535032Y-61016922D01*
X112708321Y-60960616D01*
X112879419Y-60873436D01*
X112908646Y-60852201D01*
X112908646Y-60852200D01*
X112286447Y-60230000D01*
X112292661Y-60230000D01*
X112394394Y-60202741D01*
X112485606Y-60150080D01*
X112560080Y-60075606D01*
X112612741Y-59984394D01*
X112640000Y-59882661D01*
X112640000Y-59876446D01*
X113262200Y-60498646D01*
X113262201Y-60498646D01*
X113283436Y-60469419D01*
X113370616Y-60298321D01*
X113429959Y-60115684D01*
X113460000Y-59926015D01*
X113460000Y-59733984D01*
X113429959Y-59544315D01*
X113370616Y-59361678D01*
X113283434Y-59190577D01*
X113262201Y-59161352D01*
X113262200Y-59161351D01*
X112640000Y-59783552D01*
X112640000Y-59777339D01*
X112612741Y-59675606D01*
X112560080Y-59584394D01*
X112485606Y-59509920D01*
X112394394Y-59457259D01*
X112292661Y-59430000D01*
X112286447Y-59430000D01*
X112908646Y-58807798D01*
X112879415Y-58786561D01*
X112708321Y-58699383D01*
X112525684Y-58640040D01*
X112336015Y-58610000D01*
X112143985Y-58610000D01*
X111954315Y-58640040D01*
X111771678Y-58699383D01*
X111600578Y-58786564D01*
X111571352Y-58807798D01*
X111571351Y-58807798D01*
X112193554Y-59430000D01*
X112187339Y-59430000D01*
X112085606Y-59457259D01*
X111994394Y-59509920D01*
X111919920Y-59584394D01*
X111867259Y-59675606D01*
X111840000Y-59777339D01*
X111840000Y-59783553D01*
X111217798Y-59161351D01*
X111217798Y-59161352D01*
X111196564Y-59190578D01*
X111109383Y-59361678D01*
X111050040Y-59544315D01*
X111020000Y-59733984D01*
X111020000Y-59926015D01*
X111050040Y-60115684D01*
X111109383Y-60298321D01*
X111196561Y-60469415D01*
X111217798Y-60498646D01*
X111840000Y-59876445D01*
X111840000Y-59882661D01*
X111867259Y-59984394D01*
X111919920Y-60075606D01*
X111994394Y-60150080D01*
X112085606Y-60202741D01*
X112187339Y-60230000D01*
X112193554Y-60230000D01*
X111571351Y-60852200D01*
X111571352Y-60852201D01*
X111600577Y-60873434D01*
X111771678Y-60960616D01*
X111944968Y-61016922D01*
X112002643Y-61056360D01*
X112029841Y-61120719D01*
X112017926Y-61189565D01*
X111970682Y-61241041D01*
X111906649Y-61258853D01*
X107494969Y-61258853D01*
X107427930Y-61239168D01*
X107382175Y-61186364D01*
X107372231Y-61117206D01*
X107401256Y-61053650D01*
X107456651Y-61016922D01*
X107628506Y-60961083D01*
X107628506Y-60961082D01*
X107628509Y-60961082D01*
X107799681Y-60873865D01*
X107955102Y-60760945D01*
X108090945Y-60625102D01*
X108203865Y-60469681D01*
X108291082Y-60298509D01*
X108350447Y-60115801D01*
X108380500Y-59926055D01*
X108380500Y-59733945D01*
X108350447Y-59544199D01*
X108291082Y-59361491D01*
X108203865Y-59190319D01*
X108090945Y-59034898D01*
X107955102Y-58899055D01*
X107913110Y-58868546D01*
X107908992Y-58864961D01*
X107892993Y-58839940D01*
X107874860Y-58816423D01*
X107874379Y-58810827D01*
X107871354Y-58806096D01*
X107871422Y-58776399D01*
X107868881Y-58746810D01*
X107871502Y-58741842D01*
X107871515Y-58736227D01*
X107887625Y-58711284D01*
X107901487Y-58685015D01*
X107907420Y-58680639D01*
X107909425Y-58677536D01*
X107915154Y-58674935D01*
X107934113Y-58660953D01*
X108086433Y-58583343D01*
X108277510Y-58444517D01*
X108444517Y-58277510D01*
X108576774Y-58095473D01*
X108632104Y-58052808D01*
X108701717Y-58046829D01*
X108763512Y-58079435D01*
X108765603Y-58081663D01*
X108765610Y-58081657D01*
X108769055Y-58085102D01*
X108904898Y-58220945D01*
X109060319Y-58333865D01*
X109231491Y-58421082D01*
X109231493Y-58421083D01*
X109303608Y-58444514D01*
X109414199Y-58480447D01*
X109603945Y-58510500D01*
X109603946Y-58510500D01*
X109796054Y-58510500D01*
X109796055Y-58510500D01*
X109985801Y-58480447D01*
X110168509Y-58421082D01*
X110339681Y-58333865D01*
X110495102Y-58220945D01*
X110630945Y-58085102D01*
X110743865Y-57929681D01*
X110831082Y-57758509D01*
X110890447Y-57575801D01*
X110920500Y-57386055D01*
X110920500Y-57193945D01*
X110890447Y-57004199D01*
X110831082Y-56821491D01*
X110743865Y-56650319D01*
X110630945Y-56494898D01*
X110495102Y-56359055D01*
X110339681Y-56246135D01*
X110168506Y-56158916D01*
X109985802Y-56099553D01*
X109890928Y-56084526D01*
X109796055Y-56069500D01*
X109603945Y-56069500D01*
X109540696Y-56079517D01*
X109414197Y-56099553D01*
X109231493Y-56158916D01*
X109060318Y-56246135D01*
X108971645Y-56310560D01*
X108904898Y-56359055D01*
X108904896Y-56359057D01*
X108904895Y-56359057D01*
X108769057Y-56494895D01*
X108765891Y-56498603D01*
X108764862Y-56497724D01*
X108714387Y-56536634D01*
X108644772Y-56542602D01*
X108582982Y-56509986D01*
X108569099Y-56493962D01*
X108444517Y-56322490D01*
X108277510Y-56155483D01*
X108090023Y-56019265D01*
X108047358Y-55963935D01*
X108041379Y-55894321D01*
X108073985Y-55832526D01*
X108134824Y-55798169D01*
X108143511Y-55796474D01*
X108351368Y-55763553D01*
X108575992Y-55690568D01*
X108650534Y-55652585D01*
X108719198Y-55639690D01*
X108735349Y-55642396D01*
X108742512Y-55644089D01*
X108742517Y-55644091D01*
X108742522Y-55644091D01*
X108742524Y-55644092D01*
X108756370Y-55645580D01*
X108802127Y-55650500D01*
X110597872Y-55650499D01*
X110657483Y-55644091D01*
X110792331Y-55593796D01*
X110907546Y-55507546D01*
X110993796Y-55392331D01*
X111044091Y-55257483D01*
X111050500Y-55197873D01*
X111050499Y-53572938D01*
X111059143Y-53543498D01*
X111065667Y-53513512D01*
X111069421Y-53508496D01*
X111070184Y-53505900D01*
X111086813Y-53485263D01*
X111162821Y-53409255D01*
X111224142Y-53375772D01*
X111293834Y-53380756D01*
X111349767Y-53422628D01*
X111374184Y-53488092D01*
X111374500Y-53496938D01*
X111374500Y-54225001D01*
X111374501Y-54225019D01*
X111385000Y-54327796D01*
X111385001Y-54327799D01*
X111402569Y-54380814D01*
X111440186Y-54494334D01*
X111532288Y-54643656D01*
X111656344Y-54767712D01*
X111805666Y-54859814D01*
X111972203Y-54914999D01*
X112074991Y-54925500D01*
X112850008Y-54925499D01*
X112850016Y-54925498D01*
X112850019Y-54925498D01*
X112906302Y-54919748D01*
X112952797Y-54914999D01*
X113119334Y-54859814D01*
X113268656Y-54767712D01*
X113392712Y-54643656D01*
X113394752Y-54640347D01*
X113396745Y-54638555D01*
X113397193Y-54637989D01*
X113397289Y-54638065D01*
X113446694Y-54593623D01*
X113515656Y-54582395D01*
X113579740Y-54610234D01*
X113605829Y-54640339D01*
X113607681Y-54643341D01*
X113607683Y-54643344D01*
X113731654Y-54767315D01*
X113880875Y-54859356D01*
X113880880Y-54859358D01*
X114047302Y-54914505D01*
X114047309Y-54914506D01*
X114150019Y-54924999D01*
X114287499Y-54924999D01*
X114787500Y-54924999D01*
X114924972Y-54924999D01*
X114924986Y-54924998D01*
X115027697Y-54914505D01*
X115194119Y-54859358D01*
X115194124Y-54859356D01*
X115343345Y-54767315D01*
X115467315Y-54643345D01*
X115559356Y-54494124D01*
X115559358Y-54494119D01*
X115614505Y-54327697D01*
X115614506Y-54327690D01*
X115624999Y-54224986D01*
X115625000Y-54224973D01*
X115625000Y-53950000D01*
X114787500Y-53950000D01*
X114787500Y-54924999D01*
X114287499Y-54924999D01*
X114287500Y-54924998D01*
X114287500Y-53824000D01*
X114307185Y-53756961D01*
X114359989Y-53711206D01*
X114411500Y-53700000D01*
X114537500Y-53700000D01*
X114537500Y-53574000D01*
X114557185Y-53506961D01*
X114609989Y-53461206D01*
X114661500Y-53450000D01*
X115624999Y-53450000D01*
X115624999Y-53440565D01*
X115644684Y-53373526D01*
X115697488Y-53327771D01*
X115766646Y-53317827D01*
X115805294Y-53330080D01*
X115924003Y-53390566D01*
X115924005Y-53390566D01*
X115924008Y-53390568D01*
X115981527Y-53409257D01*
X116148631Y-53463553D01*
X116381903Y-53500500D01*
X116381908Y-53500500D01*
X116618097Y-53500500D01*
X116851368Y-53463553D01*
X116858591Y-53461206D01*
X117075992Y-53390568D01*
X117286433Y-53283343D01*
X117477510Y-53144517D01*
X117644517Y-52977510D01*
X117783343Y-52786433D01*
X117890568Y-52575992D01*
X117963553Y-52351368D01*
X117997526Y-52136872D01*
X118000500Y-52118097D01*
X118000500Y-51881902D01*
X117963553Y-51648631D01*
X117890566Y-51424003D01*
X117834002Y-51312991D01*
X117783343Y-51213567D01*
X117644517Y-51022490D01*
X117477510Y-50855483D01*
X117470650Y-50850499D01*
X117462222Y-50844375D01*
X117419556Y-50789045D01*
X117413578Y-50719431D01*
X117435840Y-50669749D01*
X117493796Y-50592331D01*
X117544091Y-50457483D01*
X117550500Y-50397873D01*
X117550499Y-48602128D01*
X117544091Y-48542517D01*
X117516191Y-48467714D01*
X117493797Y-48407671D01*
X117493793Y-48407664D01*
X117407547Y-48292455D01*
X117407544Y-48292452D01*
X117292335Y-48206206D01*
X117292328Y-48206202D01*
X117160917Y-48157189D01*
X117104983Y-48115318D01*
X117080566Y-48049853D01*
X117095418Y-47981580D01*
X117116563Y-47953332D01*
X117230104Y-47839792D01*
X117243560Y-47821272D01*
X117355048Y-47667820D01*
X117355047Y-47667820D01*
X117355051Y-47667816D01*
X117451557Y-47478412D01*
X117517246Y-47276243D01*
X117550500Y-47066287D01*
X117550500Y-46853713D01*
X117517246Y-46643757D01*
X117451557Y-46441588D01*
X117355051Y-46252184D01*
X117355049Y-46252181D01*
X117355048Y-46252179D01*
X117230109Y-46080213D01*
X117079786Y-45929890D01*
X116907820Y-45804951D01*
X116907115Y-45804591D01*
X116899054Y-45800485D01*
X116848259Y-45752512D01*
X116831463Y-45684692D01*
X116853999Y-45618556D01*
X116899054Y-45579515D01*
X116907816Y-45575051D01*
X116962697Y-45535178D01*
X117079786Y-45450109D01*
X117079788Y-45450106D01*
X117079792Y-45450104D01*
X117230104Y-45299792D01*
X117230106Y-45299788D01*
X117230109Y-45299786D01*
X117355048Y-45127820D01*
X117355047Y-45127820D01*
X117355051Y-45127816D01*
X117451557Y-44938412D01*
X117517246Y-44736243D01*
X117550500Y-44526287D01*
X117550500Y-44313713D01*
X117517246Y-44103757D01*
X117451557Y-43901588D01*
X117355051Y-43712184D01*
X117355049Y-43712181D01*
X117355048Y-43712179D01*
X117230109Y-43540213D01*
X117079786Y-43389890D01*
X116907817Y-43264949D01*
X116898504Y-43260204D01*
X116847707Y-43212230D01*
X116830912Y-43144409D01*
X116853449Y-43078274D01*
X116898507Y-43039232D01*
X116907555Y-43034622D01*
X116961716Y-42995270D01*
X116961717Y-42995270D01*
X116329408Y-42362962D01*
X116392993Y-42345925D01*
X116507007Y-42280099D01*
X116600099Y-42187007D01*
X116665925Y-42072993D01*
X116682962Y-42009408D01*
X117315270Y-42641717D01*
X117315270Y-42641716D01*
X117354622Y-42587554D01*
X117451095Y-42398217D01*
X117516757Y-42196130D01*
X117516757Y-42196127D01*
X117550000Y-41986246D01*
X117550000Y-41773753D01*
X117516757Y-41563872D01*
X117516757Y-41563869D01*
X117451095Y-41361782D01*
X117354624Y-41172449D01*
X117315270Y-41118282D01*
X117315269Y-41118282D01*
X116682962Y-41750590D01*
X116665925Y-41687007D01*
X116600099Y-41572993D01*
X116507007Y-41479901D01*
X116392993Y-41414075D01*
X116329409Y-41397037D01*
X116961716Y-40764728D01*
X116907550Y-40725375D01*
X116718217Y-40628904D01*
X116516129Y-40563242D01*
X116306246Y-40530000D01*
X116093754Y-40530000D01*
X115883872Y-40563242D01*
X115883869Y-40563242D01*
X115681782Y-40628904D01*
X115492439Y-40725380D01*
X115438282Y-40764727D01*
X115438282Y-40764728D01*
X116070591Y-41397037D01*
X116007007Y-41414075D01*
X115892993Y-41479901D01*
X115799901Y-41572993D01*
X115734075Y-41687007D01*
X115717037Y-41750591D01*
X115084728Y-41118282D01*
X115079537Y-41118691D01*
X115035333Y-41152777D01*
X114965719Y-41158756D01*
X114903924Y-41126150D01*
X114895379Y-41116287D01*
X114895138Y-41116494D01*
X114891967Y-41112782D01*
X114747219Y-40968034D01*
X114670515Y-40912306D01*
X114670513Y-40912303D01*
X114581613Y-40847715D01*
X114581612Y-40847714D01*
X114581610Y-40847713D01*
X114524653Y-40818691D01*
X114399223Y-40754781D01*
X114204534Y-40691522D01*
X114029995Y-40663878D01*
X114002352Y-40659500D01*
X112997648Y-40659500D01*
X112973329Y-40663351D01*
X112795465Y-40691522D01*
X112600776Y-40754781D01*
X112418386Y-40847715D01*
X112252786Y-40968028D01*
X112108028Y-41112786D01*
X111987715Y-41278386D01*
X111894781Y-41460776D01*
X111831522Y-41655465D01*
X111808888Y-41798373D01*
X111803495Y-41809749D01*
X111802597Y-41822309D01*
X111788812Y-41840723D01*
X111778959Y-41861508D01*
X111768269Y-41868163D01*
X111760725Y-41878242D01*
X111739174Y-41886279D01*
X111719647Y-41898439D01*
X111707057Y-41898259D01*
X111695261Y-41902659D01*
X111672784Y-41897769D01*
X111649784Y-41897441D01*
X111637656Y-41890127D01*
X111626988Y-41887807D01*
X111598734Y-41866656D01*
X111450289Y-41718211D01*
X109339292Y-39607213D01*
X109339288Y-39607210D01*
X109208185Y-39519609D01*
X109208172Y-39519602D01*
X109062501Y-39459264D01*
X109062489Y-39459261D01*
X108907845Y-39428500D01*
X108907842Y-39428500D01*
X108229600Y-39428500D01*
X108162561Y-39408815D01*
X108116806Y-39356011D01*
X108106862Y-39286853D01*
X108115037Y-39257050D01*
X108142051Y-39191835D01*
X108180500Y-38998541D01*
X108180500Y-38801459D01*
X108180500Y-38801456D01*
X108150013Y-38648192D01*
X108156240Y-38578600D01*
X108199103Y-38523423D01*
X108264992Y-38500178D01*
X108271630Y-38500000D01*
X108478052Y-38500000D01*
X108711247Y-38463065D01*
X108935802Y-38390102D01*
X109146171Y-38282914D01*
X109269977Y-38192964D01*
X109335784Y-38169484D01*
X109403838Y-38185309D01*
X109451779Y-38234640D01*
X109451953Y-38234546D01*
X109452293Y-38235169D01*
X109452532Y-38235415D01*
X109453009Y-38236480D01*
X109456206Y-38242335D01*
X109542452Y-38357544D01*
X109542455Y-38357547D01*
X109657664Y-38443793D01*
X109657671Y-38443797D01*
X109792517Y-38494091D01*
X109792516Y-38494091D01*
X109799444Y-38494835D01*
X109852127Y-38500500D01*
X111947872Y-38500499D01*
X112007483Y-38494091D01*
X112142331Y-38443796D01*
X112257546Y-38357546D01*
X112286488Y-38318883D01*
X112342420Y-38277013D01*
X112412112Y-38272029D01*
X112473435Y-38305513D01*
X112473435Y-38305514D01*
X113290707Y-39122786D01*
X113290711Y-39122789D01*
X113421814Y-39210390D01*
X113421827Y-39210397D01*
X113534452Y-39257047D01*
X113567503Y-39270737D01*
X113722153Y-39301499D01*
X113722156Y-39301500D01*
X113722158Y-39301500D01*
X115871110Y-39301500D01*
X115871111Y-39301499D01*
X116025763Y-39270737D01*
X116171445Y-39210394D01*
X116302555Y-39122789D01*
X117812286Y-37613056D01*
X117812289Y-37613055D01*
X117923789Y-37501555D01*
X118011394Y-37370445D01*
X118071737Y-37224763D01*
X118102500Y-37070108D01*
X118102500Y-30172843D01*
X118102500Y-30172840D01*
X118102499Y-30172838D01*
X118071738Y-30018195D01*
X118071737Y-30018188D01*
X118071735Y-30018183D01*
X118011397Y-29872512D01*
X118011390Y-29872499D01*
X117923790Y-29741397D01*
X117923789Y-29741396D01*
X117812289Y-29629896D01*
X116604575Y-28422181D01*
X116571090Y-28360858D01*
X116576074Y-28291166D01*
X116617946Y-28235233D01*
X116683410Y-28210816D01*
X116692256Y-28210500D01*
X120395500Y-28210500D01*
X120462539Y-28230185D01*
G37*
%TD.AperFunction*%
%TA.AperFunction,Conductor*%
G36*
X106130000Y-50789510D02*
G01*
X106110315Y-50856549D01*
X106093681Y-50877191D01*
X104870319Y-52100553D01*
X104843391Y-52115256D01*
X104817573Y-52131849D01*
X104811372Y-52132740D01*
X104808996Y-52134038D01*
X104782638Y-52136872D01*
X104534806Y-52136872D01*
X104467767Y-52117187D01*
X104422012Y-52064383D01*
X104412068Y-51995225D01*
X104434488Y-51939986D01*
X104439870Y-51932578D01*
X104446971Y-51922805D01*
X104554196Y-51712364D01*
X104627181Y-51487740D01*
X104639942Y-51407172D01*
X104664128Y-51254469D01*
X104664128Y-51018283D01*
X104664128Y-51018280D01*
X104663519Y-51014436D01*
X104672473Y-50945146D01*
X104717468Y-50891693D01*
X104784219Y-50871052D01*
X104798595Y-50871681D01*
X104880020Y-50879999D01*
X105629999Y-50879999D01*
X105630000Y-50879998D01*
X105630000Y-49895686D01*
X105634394Y-49900080D01*
X105725606Y-49952741D01*
X105827339Y-49980000D01*
X105932661Y-49980000D01*
X106034394Y-49952741D01*
X106125606Y-49900080D01*
X106130000Y-49895686D01*
X106130000Y-50789510D01*
G37*
%TD.AperFunction*%
%TA.AperFunction,Conductor*%
G36*
X107611098Y-47860185D02*
G01*
X107631740Y-47876819D01*
X108404884Y-48649963D01*
X108438369Y-48711286D01*
X108441203Y-48737644D01*
X108441203Y-50256500D01*
X108421518Y-50323539D01*
X108368714Y-50369294D01*
X108317203Y-50380500D01*
X107696828Y-50380500D01*
X107629789Y-50360815D01*
X107584034Y-50308011D01*
X107573470Y-50243897D01*
X107579999Y-50179986D01*
X107580000Y-50179973D01*
X107580000Y-49830000D01*
X106195686Y-49830000D01*
X106200080Y-49825606D01*
X106252741Y-49734394D01*
X106280000Y-49632661D01*
X106280000Y-49527339D01*
X106252741Y-49425606D01*
X106200080Y-49334394D01*
X106195686Y-49330000D01*
X107579999Y-49330000D01*
X107579999Y-48980028D01*
X107579998Y-48980013D01*
X107569505Y-48877302D01*
X107514358Y-48710880D01*
X107514356Y-48710875D01*
X107422315Y-48561654D01*
X107298345Y-48437684D01*
X107149124Y-48345643D01*
X107149119Y-48345641D01*
X107066931Y-48318407D01*
X107009486Y-48278634D01*
X106982663Y-48214119D01*
X106994978Y-48145343D01*
X107033049Y-48100383D01*
X107127219Y-48031966D01*
X107271966Y-47887219D01*
X107271972Y-47887210D01*
X107274748Y-47883962D01*
X107275130Y-47883712D01*
X107275320Y-47883297D01*
X107304380Y-47864621D01*
X107333258Y-47845773D01*
X107333843Y-47845686D01*
X107334098Y-47845523D01*
X107369033Y-47840500D01*
X107544059Y-47840500D01*
X107611098Y-47860185D01*
G37*
%TD.AperFunction*%
%TA.AperFunction,Conductor*%
G36*
X108513099Y-41049185D02*
G01*
X108533741Y-41065819D01*
X110103181Y-42635259D01*
X110136666Y-42696582D01*
X110139500Y-42722940D01*
X110139500Y-42802391D01*
X110119815Y-42869430D01*
X110067011Y-42915185D01*
X110034898Y-42924864D01*
X109898631Y-42946446D01*
X109674003Y-43019433D01*
X109463566Y-43126657D01*
X109354550Y-43205862D01*
X109272490Y-43265483D01*
X109272488Y-43265485D01*
X109272487Y-43265485D01*
X109105485Y-43432487D01*
X109105485Y-43432488D01*
X109105483Y-43432490D01*
X109050602Y-43508027D01*
X108966655Y-43623569D01*
X108924282Y-43706729D01*
X108876307Y-43757525D01*
X108808486Y-43774319D01*
X108766346Y-43764994D01*
X108682497Y-43730263D01*
X108682489Y-43730261D01*
X108527845Y-43699500D01*
X108527842Y-43699500D01*
X107369033Y-43699500D01*
X107301994Y-43679815D01*
X107274748Y-43656038D01*
X107271964Y-43652779D01*
X107127213Y-43508028D01*
X106961611Y-43387713D01*
X106868369Y-43340203D01*
X106817574Y-43292229D01*
X106800779Y-43224407D01*
X106823317Y-43158273D01*
X106868371Y-43119234D01*
X106961347Y-43071861D01*
X107126894Y-42951582D01*
X107126895Y-42951582D01*
X107271582Y-42806895D01*
X107271582Y-42806894D01*
X107391859Y-42641349D01*
X107484755Y-42459029D01*
X107547990Y-42264413D01*
X107556609Y-42210000D01*
X106195686Y-42210000D01*
X106200080Y-42205606D01*
X106252741Y-42114394D01*
X106280000Y-42012661D01*
X106280000Y-41907339D01*
X106252741Y-41805606D01*
X106200080Y-41714394D01*
X106195686Y-41710000D01*
X107556609Y-41710000D01*
X107547990Y-41655586D01*
X107484755Y-41460970D01*
X107391859Y-41278650D01*
X107353887Y-41226386D01*
X107330407Y-41160579D01*
X107346232Y-41092525D01*
X107396338Y-41043830D01*
X107454205Y-41029500D01*
X107507842Y-41029500D01*
X108446060Y-41029500D01*
X108513099Y-41049185D01*
G37*
%TD.AperFunction*%
%TA.AperFunction,Conductor*%
G36*
X115734075Y-42072993D02*
G01*
X115799901Y-42187007D01*
X115892993Y-42280099D01*
X116007007Y-42345925D01*
X116070590Y-42362962D01*
X115438282Y-42995269D01*
X115438282Y-42995270D01*
X115492452Y-43034626D01*
X115492451Y-43034626D01*
X115501495Y-43039234D01*
X115552292Y-43087208D01*
X115569087Y-43155029D01*
X115546550Y-43221164D01*
X115501499Y-43260202D01*
X115492182Y-43264949D01*
X115320213Y-43389890D01*
X115169894Y-43540209D01*
X115090354Y-43649687D01*
X115035024Y-43692352D01*
X114965410Y-43698331D01*
X114903615Y-43665725D01*
X114895414Y-43656258D01*
X114895138Y-43656494D01*
X114891967Y-43652782D01*
X114747213Y-43508028D01*
X114581614Y-43387715D01*
X114575006Y-43384348D01*
X114488917Y-43340483D01*
X114438123Y-43292511D01*
X114421328Y-43224690D01*
X114443865Y-43158555D01*
X114488917Y-43119516D01*
X114581610Y-43072287D01*
X114627107Y-43039232D01*
X114747213Y-42951971D01*
X114747215Y-42951968D01*
X114747219Y-42951966D01*
X114891966Y-42807219D01*
X114975314Y-42692499D01*
X115030643Y-42649833D01*
X115084560Y-42641884D01*
X115717037Y-42009408D01*
X115734075Y-42072993D01*
G37*
%TD.AperFunction*%
%TA.AperFunction,Conductor*%
G36*
X104322202Y-42648649D02*
G01*
X104364680Y-42657572D01*
X104406351Y-42693941D01*
X104488417Y-42806895D01*
X104633104Y-42951582D01*
X104798652Y-43071861D01*
X104891628Y-43119234D01*
X104942425Y-43167208D01*
X104959220Y-43235029D01*
X104936683Y-43301164D01*
X104891630Y-43340203D01*
X104798388Y-43387713D01*
X104632788Y-43508027D01*
X104488676Y-43652139D01*
X104427353Y-43685623D01*
X104357661Y-43680639D01*
X104301728Y-43638767D01*
X104300677Y-43637342D01*
X104230109Y-43540214D01*
X104230105Y-43540209D01*
X104079786Y-43389890D01*
X103907817Y-43264949D01*
X103898504Y-43260204D01*
X103847707Y-43212230D01*
X103830912Y-43144409D01*
X103853449Y-43078274D01*
X103898507Y-43039232D01*
X103907555Y-43034622D01*
X103961716Y-42995270D01*
X103961717Y-42995270D01*
X103329409Y-42362962D01*
X103392993Y-42345925D01*
X103507007Y-42280099D01*
X103600099Y-42187007D01*
X103665925Y-42072993D01*
X103682962Y-42009408D01*
X104322202Y-42648649D01*
G37*
%TD.AperFunction*%
%TA.AperFunction,Conductor*%
G36*
X105167484Y-39857055D02*
G01*
X105223418Y-39898926D01*
X105227253Y-39904346D01*
X105257210Y-39949181D01*
X105257213Y-39949184D01*
X105756349Y-40448319D01*
X105789834Y-40509642D01*
X105784850Y-40579333D01*
X105742979Y-40635267D01*
X105677514Y-40659684D01*
X105668668Y-40660000D01*
X105377683Y-40660000D01*
X105175582Y-40692009D01*
X104980968Y-40755244D01*
X104798650Y-40848140D01*
X104633108Y-40968414D01*
X104488615Y-41112907D01*
X104427292Y-41146391D01*
X104357600Y-41141407D01*
X104328054Y-41119288D01*
X104315269Y-41118282D01*
X103682962Y-41750590D01*
X103665925Y-41687007D01*
X103600099Y-41572993D01*
X103507007Y-41479901D01*
X103392993Y-41414075D01*
X103329407Y-41397036D01*
X103961716Y-40764728D01*
X103907550Y-40725375D01*
X103730151Y-40634985D01*
X103679355Y-40587010D01*
X103662560Y-40519189D01*
X103685098Y-40453054D01*
X103739813Y-40409603D01*
X103786446Y-40400500D01*
X104018097Y-40400500D01*
X104251368Y-40363553D01*
X104475992Y-40290568D01*
X104686433Y-40183343D01*
X104877510Y-40044517D01*
X105036473Y-39885553D01*
X105097793Y-39852071D01*
X105167484Y-39857055D01*
G37*
%TD.AperFunction*%
%TA.AperFunction,Conductor*%
G36*
X106181052Y-28230185D02*
G01*
X106226807Y-28282989D01*
X106236751Y-28352147D01*
X106207726Y-28415703D01*
X106201694Y-28422181D01*
X103677771Y-30946102D01*
X103583714Y-31040158D01*
X103583711Y-31040162D01*
X103496110Y-31171265D01*
X103496103Y-31171278D01*
X103435765Y-31316949D01*
X103435762Y-31316961D01*
X103405001Y-31471604D01*
X103405001Y-31754509D01*
X103385316Y-31821548D01*
X103368682Y-31842190D01*
X102088711Y-33122161D01*
X102038350Y-33172522D01*
X101977209Y-33233662D01*
X101889609Y-33364764D01*
X101889602Y-33364777D01*
X101829264Y-33510448D01*
X101829261Y-33510460D01*
X101798500Y-33665103D01*
X101798500Y-35714011D01*
X101778815Y-35781050D01*
X101762181Y-35801692D01*
X100487711Y-37076162D01*
X100445821Y-37118052D01*
X100376209Y-37187663D01*
X100288609Y-37318765D01*
X100285736Y-37324142D01*
X100283970Y-37323198D01*
X100245895Y-37370445D01*
X100179601Y-37392509D01*
X100111902Y-37375229D01*
X100064292Y-37324092D01*
X100051176Y-37268588D01*
X100051176Y-28334500D01*
X100070861Y-28267461D01*
X100123665Y-28221706D01*
X100175176Y-28210500D01*
X106114013Y-28210500D01*
X106181052Y-28230185D01*
G37*
%TD.AperFunction*%
%TA.AperFunction,Conductor*%
G36*
X109582657Y-32369104D02*
G01*
X109602404Y-32367550D01*
X109670781Y-32381914D01*
X109712451Y-32418282D01*
X109755483Y-32477510D01*
X109922490Y-32644517D01*
X110113567Y-32783343D01*
X110199241Y-32826996D01*
X110324003Y-32890566D01*
X110324005Y-32890566D01*
X110324008Y-32890568D01*
X110414812Y-32920072D01*
X110548631Y-32963553D01*
X110701243Y-32987724D01*
X110764378Y-33017653D01*
X110801310Y-33076964D01*
X110800312Y-33146827D01*
X110780222Y-33185684D01*
X110711389Y-33275387D01*
X110596657Y-33474109D01*
X110596650Y-33474123D01*
X110508842Y-33686112D01*
X110486012Y-33771318D01*
X110449454Y-33907757D01*
X110449453Y-33907759D01*
X110449451Y-33907770D01*
X110419500Y-34135258D01*
X110419500Y-34364741D01*
X110436684Y-34495258D01*
X110449452Y-34592238D01*
X110463369Y-34644178D01*
X110508842Y-34813887D01*
X110596650Y-35025876D01*
X110596657Y-35025890D01*
X110711389Y-35224612D01*
X110769247Y-35300013D01*
X110794441Y-35365183D01*
X110780403Y-35433627D01*
X110731589Y-35483617D01*
X110670871Y-35499500D01*
X109852129Y-35499500D01*
X109852123Y-35499501D01*
X109792516Y-35505908D01*
X109657671Y-35556202D01*
X109657664Y-35556206D01*
X109542455Y-35642452D01*
X109542452Y-35642455D01*
X109456206Y-35757664D01*
X109451953Y-35765454D01*
X109448807Y-35763736D01*
X109417139Y-35806010D01*
X109351667Y-35830404D01*
X109283399Y-35815529D01*
X109269978Y-35807035D01*
X109146174Y-35717087D01*
X108935802Y-35609897D01*
X108711247Y-35536934D01*
X108711248Y-35536934D01*
X108638656Y-35525437D01*
X108575521Y-35495508D01*
X108538590Y-35436196D01*
X108539588Y-35366334D01*
X108559679Y-35327477D01*
X108638607Y-35224617D01*
X108638606Y-35224617D01*
X108638611Y-35224612D01*
X108753344Y-35025888D01*
X108841158Y-34813887D01*
X108900548Y-34592238D01*
X108930500Y-34364734D01*
X108930500Y-34135266D01*
X108900548Y-33907762D01*
X108841158Y-33686113D01*
X108753344Y-33474112D01*
X108638611Y-33275388D01*
X108559677Y-33172520D01*
X108534484Y-33107353D01*
X108548522Y-33038908D01*
X108597336Y-32988918D01*
X108638658Y-32974561D01*
X108711252Y-32963064D01*
X108935802Y-32890102D01*
X109146163Y-32782918D01*
X109146169Y-32782914D01*
X109229104Y-32722658D01*
X109229105Y-32722658D01*
X108489409Y-31982962D01*
X108552993Y-31965925D01*
X108667007Y-31900099D01*
X108760099Y-31807007D01*
X108825925Y-31692993D01*
X108842962Y-31629409D01*
X109582657Y-32369104D01*
G37*
%TD.AperFunction*%
%TD*%
M02*
