%TF.GenerationSoftware,KiCad,Pcbnew,9.0.4*%
%TF.CreationDate,2026-01-29T23:05:15+00:00*%
%TF.ProjectId,Line following V1,4c696e65-2066-46f6-9c6c-6f77696e6720,rev?*%
%TF.SameCoordinates,Original*%
%TF.FileFunction,Legend,Bot*%
%TF.FilePolarity,Positive*%
%FSLAX46Y46*%
G04 Gerber Fmt 4.6, Leading zero omitted, Abs format (unit mm)*
G04 Created by KiCad (PCBNEW 9.0.4) date 2026-01-29 23:05:15*
%MOMM*%
%LPD*%
G01*
G04 APERTURE LIST*
%ADD10C,0.150000*%
%ADD11C,0.254000*%
%ADD12C,0.120000*%
%ADD13C,0.100000*%
G04 APERTURE END LIST*
D10*
X102404819Y-57733333D02*
X101928628Y-57400000D01*
X102404819Y-57161905D02*
X101404819Y-57161905D01*
X101404819Y-57161905D02*
X101404819Y-57542857D01*
X101404819Y-57542857D02*
X101452438Y-57638095D01*
X101452438Y-57638095D02*
X101500057Y-57685714D01*
X101500057Y-57685714D02*
X101595295Y-57733333D01*
X101595295Y-57733333D02*
X101738152Y-57733333D01*
X101738152Y-57733333D02*
X101833390Y-57685714D01*
X101833390Y-57685714D02*
X101881009Y-57638095D01*
X101881009Y-57638095D02*
X101928628Y-57542857D01*
X101928628Y-57542857D02*
X101928628Y-57161905D01*
X101404819Y-58590476D02*
X101404819Y-58400000D01*
X101404819Y-58400000D02*
X101452438Y-58304762D01*
X101452438Y-58304762D02*
X101500057Y-58257143D01*
X101500057Y-58257143D02*
X101642914Y-58161905D01*
X101642914Y-58161905D02*
X101833390Y-58114286D01*
X101833390Y-58114286D02*
X102214342Y-58114286D01*
X102214342Y-58114286D02*
X102309580Y-58161905D01*
X102309580Y-58161905D02*
X102357200Y-58209524D01*
X102357200Y-58209524D02*
X102404819Y-58304762D01*
X102404819Y-58304762D02*
X102404819Y-58495238D01*
X102404819Y-58495238D02*
X102357200Y-58590476D01*
X102357200Y-58590476D02*
X102309580Y-58638095D01*
X102309580Y-58638095D02*
X102214342Y-58685714D01*
X102214342Y-58685714D02*
X101976247Y-58685714D01*
X101976247Y-58685714D02*
X101881009Y-58638095D01*
X101881009Y-58638095D02*
X101833390Y-58590476D01*
X101833390Y-58590476D02*
X101785771Y-58495238D01*
X101785771Y-58495238D02*
X101785771Y-58304762D01*
X101785771Y-58304762D02*
X101833390Y-58209524D01*
X101833390Y-58209524D02*
X101881009Y-58161905D01*
X101881009Y-58161905D02*
X101976247Y-58114286D01*
X114304819Y-57533333D02*
X113828628Y-57200000D01*
X114304819Y-56961905D02*
X113304819Y-56961905D01*
X113304819Y-56961905D02*
X113304819Y-57342857D01*
X113304819Y-57342857D02*
X113352438Y-57438095D01*
X113352438Y-57438095D02*
X113400057Y-57485714D01*
X113400057Y-57485714D02*
X113495295Y-57533333D01*
X113495295Y-57533333D02*
X113638152Y-57533333D01*
X113638152Y-57533333D02*
X113733390Y-57485714D01*
X113733390Y-57485714D02*
X113781009Y-57438095D01*
X113781009Y-57438095D02*
X113828628Y-57342857D01*
X113828628Y-57342857D02*
X113828628Y-56961905D01*
X113304819Y-57866667D02*
X113304819Y-58533333D01*
X113304819Y-58533333D02*
X114304819Y-58104762D01*
D11*
X110370270Y-34154047D02*
X110309794Y-34033095D01*
X110309794Y-34033095D02*
X110188842Y-33912142D01*
X110188842Y-33912142D02*
X110007413Y-33730714D01*
X110007413Y-33730714D02*
X109946937Y-33609761D01*
X109946937Y-33609761D02*
X109946937Y-33488809D01*
X110249318Y-33549285D02*
X110188842Y-33428333D01*
X110188842Y-33428333D02*
X110067889Y-33307380D01*
X110067889Y-33307380D02*
X109825984Y-33246904D01*
X109825984Y-33246904D02*
X109402651Y-33246904D01*
X109402651Y-33246904D02*
X109160746Y-33307380D01*
X109160746Y-33307380D02*
X109039794Y-33428333D01*
X109039794Y-33428333D02*
X108979318Y-33549285D01*
X108979318Y-33549285D02*
X108979318Y-33791190D01*
X108979318Y-33791190D02*
X109039794Y-33912142D01*
X109039794Y-33912142D02*
X109160746Y-34033095D01*
X109160746Y-34033095D02*
X109402651Y-34093571D01*
X109402651Y-34093571D02*
X109825984Y-34093571D01*
X109825984Y-34093571D02*
X110067889Y-34033095D01*
X110067889Y-34033095D02*
X110188842Y-33912142D01*
X110188842Y-33912142D02*
X110249318Y-33791190D01*
X110249318Y-33791190D02*
X110249318Y-33549285D01*
X110249318Y-35303095D02*
X110249318Y-34577380D01*
X110249318Y-34940237D02*
X108979318Y-34940237D01*
X108979318Y-34940237D02*
X109160746Y-34819285D01*
X109160746Y-34819285D02*
X109281699Y-34698333D01*
X109281699Y-34698333D02*
X109342175Y-34577380D01*
D10*
X105766666Y-56504819D02*
X106099999Y-56028628D01*
X106338094Y-56504819D02*
X106338094Y-55504819D01*
X106338094Y-55504819D02*
X105957142Y-55504819D01*
X105957142Y-55504819D02*
X105861904Y-55552438D01*
X105861904Y-55552438D02*
X105814285Y-55600057D01*
X105814285Y-55600057D02*
X105766666Y-55695295D01*
X105766666Y-55695295D02*
X105766666Y-55838152D01*
X105766666Y-55838152D02*
X105814285Y-55933390D01*
X105814285Y-55933390D02*
X105861904Y-55981009D01*
X105861904Y-55981009D02*
X105957142Y-56028628D01*
X105957142Y-56028628D02*
X106338094Y-56028628D01*
X105433332Y-55504819D02*
X104814285Y-55504819D01*
X104814285Y-55504819D02*
X105147618Y-55885771D01*
X105147618Y-55885771D02*
X105004761Y-55885771D01*
X105004761Y-55885771D02*
X104909523Y-55933390D01*
X104909523Y-55933390D02*
X104861904Y-55981009D01*
X104861904Y-55981009D02*
X104814285Y-56076247D01*
X104814285Y-56076247D02*
X104814285Y-56314342D01*
X104814285Y-56314342D02*
X104861904Y-56409580D01*
X104861904Y-56409580D02*
X104909523Y-56457200D01*
X104909523Y-56457200D02*
X105004761Y-56504819D01*
X105004761Y-56504819D02*
X105290475Y-56504819D01*
X105290475Y-56504819D02*
X105385713Y-56457200D01*
X105385713Y-56457200D02*
X105433332Y-56409580D01*
X110451904Y-51364819D02*
X110451904Y-52174342D01*
X110451904Y-52174342D02*
X110404285Y-52269580D01*
X110404285Y-52269580D02*
X110356666Y-52317200D01*
X110356666Y-52317200D02*
X110261428Y-52364819D01*
X110261428Y-52364819D02*
X110070952Y-52364819D01*
X110070952Y-52364819D02*
X109975714Y-52317200D01*
X109975714Y-52317200D02*
X109928095Y-52269580D01*
X109928095Y-52269580D02*
X109880476Y-52174342D01*
X109880476Y-52174342D02*
X109880476Y-51364819D01*
X109451904Y-51460057D02*
X109404285Y-51412438D01*
X109404285Y-51412438D02*
X109309047Y-51364819D01*
X109309047Y-51364819D02*
X109070952Y-51364819D01*
X109070952Y-51364819D02*
X108975714Y-51412438D01*
X108975714Y-51412438D02*
X108928095Y-51460057D01*
X108928095Y-51460057D02*
X108880476Y-51555295D01*
X108880476Y-51555295D02*
X108880476Y-51650533D01*
X108880476Y-51650533D02*
X108928095Y-51793390D01*
X108928095Y-51793390D02*
X109499523Y-52364819D01*
X109499523Y-52364819D02*
X108880476Y-52364819D01*
D12*
%TO.C,R6*%
X102865000Y-57672936D02*
X102865000Y-58127064D01*
X104335000Y-57672936D02*
X104335000Y-58127064D01*
%TO.C,R7*%
X114765000Y-57472936D02*
X114765000Y-57927064D01*
X116235000Y-57472936D02*
X116235000Y-57927064D01*
D13*
%TO.C,Q1*%
X106730000Y-29150000D02*
X106730000Y-32750000D01*
X106730000Y-38250000D02*
X106730000Y-35750000D01*
X112530000Y-29150000D02*
X106730000Y-29150000D01*
X112530000Y-29150000D02*
X112530000Y-32750000D01*
X112530000Y-39350000D02*
X108105000Y-39350000D01*
X112530000Y-39350000D02*
X112530000Y-35750000D01*
D12*
%TO.C,R3*%
X105372936Y-53665000D02*
X105827064Y-53665000D01*
X105372936Y-55135000D02*
X105827064Y-55135000D01*
%TO.C,U2*%
X107440000Y-40630000D02*
X111940000Y-40630000D01*
X107440000Y-50910000D02*
X107440000Y-40630000D01*
X108690000Y-50910000D02*
X107440000Y-50910000D01*
X111940000Y-40630000D02*
X111940000Y-50910000D01*
X111940000Y-50910000D02*
X110690000Y-50910000D01*
X108690000Y-50910000D02*
G75*
G02*
X110690000Y-50910000I1000000J0D01*
G01*
%TD*%
M02*
