%TF.GenerationSoftware,KiCad,Pcbnew,9.0.4*%
%TF.CreationDate,2026-01-29T23:05:15+00:00*%
%TF.ProjectId,Line following V1,4c696e65-2066-46f6-9c6c-6f77696e6720,rev?*%
%TF.SameCoordinates,Original*%
%TF.FileFunction,Copper,L2,Bot*%
%TF.FilePolarity,Positive*%
%FSLAX46Y46*%
G04 Gerber Fmt 4.6, Leading zero omitted, Abs format (unit mm)*
G04 Created by KiCad (PCBNEW 9.0.4) date 2026-01-29 23:05:15*
%MOMM*%
%LPD*%
G01*
G04 APERTURE LIST*
G04 Aperture macros list*
%AMRoundRect*
0 Rectangle with rounded corners*
0 $1 Rounding radius*
0 $2 $3 $4 $5 $6 $7 $8 $9 X,Y pos of 4 corners*
0 Add a 4 corners polygon primitive as box body*
4,1,4,$2,$3,$4,$5,$6,$7,$8,$9,$2,$3,0*
0 Add four circle primitives for the rounded corners*
1,1,$1+$1,$2,$3*
1,1,$1+$1,$4,$5*
1,1,$1+$1,$6,$7*
1,1,$1+$1,$8,$9*
0 Add four rect primitives between the rounded corners*
20,1,$1+$1,$2,$3,$4,$5,0*
20,1,$1+$1,$4,$5,$6,$7,0*
20,1,$1+$1,$6,$7,$8,$9,0*
20,1,$1+$1,$8,$9,$2,$3,0*%
G04 Aperture macros list end*
%ADD10C,0.100000*%
%TA.AperFunction,ComponentPad*%
%ADD11R,1.700000X1.700000*%
%TD*%
%TA.AperFunction,ComponentPad*%
%ADD12C,1.700000*%
%TD*%
%TA.AperFunction,ComponentPad*%
%ADD13C,5.700000*%
%TD*%
%TA.AperFunction,ConnectorPad*%
%ADD14C,9.200000*%
%TD*%
%TA.AperFunction,ComponentPad*%
%ADD15C,1.440000*%
%TD*%
%TA.AperFunction,SMDPad,CuDef*%
%ADD16RoundRect,0.250000X-0.450000X0.350000X-0.450000X-0.350000X0.450000X-0.350000X0.450000X0.350000X0*%
%TD*%
%TA.AperFunction,ComponentPad*%
%ADD17R,2.000000X2.000000*%
%TD*%
%TA.AperFunction,ComponentPad*%
%ADD18C,2.000000*%
%TD*%
%TA.AperFunction,SMDPad,CuDef*%
%ADD19RoundRect,0.250000X-0.350000X-0.450000X0.350000X-0.450000X0.350000X0.450000X-0.350000X0.450000X0*%
%TD*%
%TA.AperFunction,ComponentPad*%
%ADD20RoundRect,0.250000X-0.950000X-0.550000X0.950000X-0.550000X0.950000X0.550000X-0.950000X0.550000X0*%
%TD*%
%TA.AperFunction,ComponentPad*%
%ADD21O,2.400000X1.600000*%
%TD*%
%TA.AperFunction,ViaPad*%
%ADD22C,2.000000*%
%TD*%
%TA.AperFunction,Conductor*%
%ADD23C,0.600000*%
%TD*%
G04 APERTURE END LIST*
D10*
G36*
X119625360Y-59957226D02*
G01*
X118019325Y-59957226D01*
X118019325Y-59319925D01*
X118367580Y-59319925D01*
X118367580Y-59796115D01*
X118371386Y-59815249D01*
X118398446Y-59842309D01*
X118417580Y-59846115D01*
X119417580Y-59846115D01*
X119436714Y-59842309D01*
X119463774Y-59815249D01*
X119467580Y-59796115D01*
X119467580Y-59319925D01*
X119463774Y-59300791D01*
X119436714Y-59273731D01*
X119398446Y-59273731D01*
X119371386Y-59300791D01*
X119367580Y-59319925D01*
X119367580Y-59746115D01*
X118991390Y-59746115D01*
X118991390Y-59462782D01*
X118987584Y-59443648D01*
X118960524Y-59416588D01*
X118922256Y-59416588D01*
X118895196Y-59443648D01*
X118891390Y-59462782D01*
X118891390Y-59746115D01*
X118467580Y-59746115D01*
X118467580Y-59319925D01*
X118463774Y-59300791D01*
X118436714Y-59273731D01*
X118398446Y-59273731D01*
X118371386Y-59300791D01*
X118367580Y-59319925D01*
X118019325Y-59319925D01*
X118019325Y-58313619D01*
X118367979Y-58313619D01*
X118371386Y-58326111D01*
X118371386Y-58339059D01*
X118376240Y-58343913D01*
X118378048Y-58350540D01*
X118392773Y-58363337D01*
X119229302Y-58841353D01*
X118417580Y-58841353D01*
X118398446Y-58845159D01*
X118371386Y-58872219D01*
X118371386Y-58910487D01*
X118398446Y-58937547D01*
X118417580Y-58941353D01*
X119417580Y-58941353D01*
X119436714Y-58937547D01*
X119441568Y-58932692D01*
X119448195Y-58930885D01*
X119454620Y-58919640D01*
X119463774Y-58910487D01*
X119463774Y-58903621D01*
X119467181Y-58897659D01*
X119463774Y-58885166D01*
X119463774Y-58872219D01*
X119458918Y-58867363D01*
X119457112Y-58860739D01*
X119442387Y-58847941D01*
X118605858Y-58369925D01*
X119417580Y-58369925D01*
X119436714Y-58366119D01*
X119463774Y-58339059D01*
X119463774Y-58300791D01*
X119436714Y-58273731D01*
X119417580Y-58269925D01*
X118417580Y-58269925D01*
X118398446Y-58273731D01*
X118393591Y-58278585D01*
X118386965Y-58280393D01*
X118380539Y-58291637D01*
X118371386Y-58300791D01*
X118371386Y-58307656D01*
X118367979Y-58313619D01*
X118019325Y-58313619D01*
X118019325Y-57996294D01*
X118130436Y-57996294D01*
X118151663Y-58028135D01*
X118189188Y-58035640D01*
X118207220Y-58028194D01*
X119492935Y-57171052D01*
X119506744Y-57157271D01*
X119514249Y-57119746D01*
X119493022Y-57087905D01*
X119455496Y-57080400D01*
X119437465Y-57087847D01*
X118151750Y-57944988D01*
X118137941Y-57958769D01*
X118130436Y-57996294D01*
X118019325Y-57996294D01*
X118019325Y-56319925D01*
X118367580Y-56319925D01*
X118367580Y-56796115D01*
X118371386Y-56815249D01*
X118398446Y-56842309D01*
X118417580Y-56846115D01*
X119417580Y-56846115D01*
X119436714Y-56842309D01*
X119463774Y-56815249D01*
X119467580Y-56796115D01*
X119467580Y-56319925D01*
X119463774Y-56300791D01*
X119436714Y-56273731D01*
X119398446Y-56273731D01*
X119371386Y-56300791D01*
X119367580Y-56319925D01*
X119367580Y-56746115D01*
X118991390Y-56746115D01*
X118991390Y-56462782D01*
X118987584Y-56443648D01*
X118960524Y-56416588D01*
X118922256Y-56416588D01*
X118895196Y-56443648D01*
X118891390Y-56462782D01*
X118891390Y-56746115D01*
X118467580Y-56746115D01*
X118467580Y-56319925D01*
X118463774Y-56300791D01*
X118436714Y-56273731D01*
X118398446Y-56273731D01*
X118371386Y-56300791D01*
X118367580Y-56319925D01*
X118019325Y-56319925D01*
X118019325Y-55313619D01*
X118367979Y-55313619D01*
X118371386Y-55326111D01*
X118371386Y-55339059D01*
X118376240Y-55343913D01*
X118378048Y-55350540D01*
X118392773Y-55363337D01*
X119229302Y-55841353D01*
X118417580Y-55841353D01*
X118398446Y-55845159D01*
X118371386Y-55872219D01*
X118371386Y-55910487D01*
X118398446Y-55937547D01*
X118417580Y-55941353D01*
X119417580Y-55941353D01*
X119436714Y-55937547D01*
X119441568Y-55932692D01*
X119448195Y-55930885D01*
X119454620Y-55919640D01*
X119463774Y-55910487D01*
X119463774Y-55903621D01*
X119467181Y-55897659D01*
X119463774Y-55885166D01*
X119463774Y-55872219D01*
X119458918Y-55867363D01*
X119457112Y-55860739D01*
X119442387Y-55847941D01*
X118605858Y-55369925D01*
X119417580Y-55369925D01*
X119436714Y-55366119D01*
X119463774Y-55339059D01*
X119463774Y-55300791D01*
X119436714Y-55273731D01*
X119417580Y-55269925D01*
X118417580Y-55269925D01*
X118398446Y-55273731D01*
X118393591Y-55278585D01*
X118386965Y-55280393D01*
X118380539Y-55291637D01*
X118371386Y-55300791D01*
X118371386Y-55307656D01*
X118367979Y-55313619D01*
X118019325Y-55313619D01*
X118019325Y-55158814D01*
X119625360Y-55158814D01*
X119625360Y-59957226D01*
G37*
G36*
X119996704Y-33241655D02*
G01*
X119490532Y-33072932D01*
X119996704Y-32904208D01*
X119996704Y-33241655D01*
G37*
G36*
X120207561Y-31256881D02*
G01*
X120243708Y-31293027D01*
X120282419Y-31370449D01*
X120282419Y-31537318D01*
X120253898Y-31594360D01*
X119744272Y-31594360D01*
X119715752Y-31537319D01*
X119715752Y-31370449D01*
X119754463Y-31293025D01*
X119790608Y-31256881D01*
X119868032Y-31218170D01*
X120130139Y-31218170D01*
X120207561Y-31256881D01*
G37*
G36*
X120247532Y-30348294D02*
G01*
X120282419Y-30418068D01*
X120282419Y-30632556D01*
X120253898Y-30689598D01*
X119984748Y-30689598D01*
X119996187Y-30666721D01*
X119996848Y-30664305D01*
X119997660Y-30663494D01*
X119999223Y-30655632D01*
X120001340Y-30647905D01*
X120000977Y-30646816D01*
X120001466Y-30644360D01*
X120001466Y-30418068D01*
X120036352Y-30348294D01*
X120106127Y-30313408D01*
X120177759Y-30313408D01*
X120247532Y-30348294D01*
G37*
G36*
X120247532Y-29443532D02*
G01*
X120282419Y-29513306D01*
X120282419Y-29727794D01*
X120253898Y-29784836D01*
X119984748Y-29784836D01*
X119996187Y-29761959D01*
X119996848Y-29759543D01*
X119997660Y-29758732D01*
X119999223Y-29750870D01*
X120001340Y-29743143D01*
X120000977Y-29742054D01*
X120001466Y-29739598D01*
X120001466Y-29513306D01*
X120036352Y-29443532D01*
X120106127Y-29408646D01*
X120177759Y-29408646D01*
X120247532Y-29443532D01*
G37*
G36*
X120493530Y-35613140D02*
G01*
X119171308Y-35613140D01*
X119171308Y-34930075D01*
X119615752Y-34930075D01*
X119615752Y-35453884D01*
X119617919Y-35464778D01*
X119617607Y-35467378D01*
X119618717Y-35468790D01*
X119619558Y-35473018D01*
X119631133Y-35484593D01*
X119641250Y-35497469D01*
X119644385Y-35497845D01*
X119646618Y-35500078D01*
X119662989Y-35500078D01*
X119679246Y-35502029D01*
X119683090Y-35500078D01*
X119684886Y-35500078D01*
X119686736Y-35498227D01*
X119696643Y-35493200D01*
X120282419Y-35032948D01*
X120282419Y-35453884D01*
X120286225Y-35473018D01*
X120313285Y-35500078D01*
X120351553Y-35500078D01*
X120378613Y-35473018D01*
X120382419Y-35453884D01*
X120382419Y-34930075D01*
X120380251Y-34919180D01*
X120380564Y-34916581D01*
X120379453Y-34915168D01*
X120378613Y-34910941D01*
X120367037Y-34899365D01*
X120356921Y-34886490D01*
X120353785Y-34886113D01*
X120351553Y-34883881D01*
X120335182Y-34883881D01*
X120318925Y-34881930D01*
X120315081Y-34883881D01*
X120313285Y-34883881D01*
X120311434Y-34885731D01*
X120301528Y-34890759D01*
X119715752Y-35351010D01*
X119715752Y-34930075D01*
X119711946Y-34910941D01*
X119684886Y-34883881D01*
X119646618Y-34883881D01*
X119619558Y-34910941D01*
X119615752Y-34930075D01*
X119171308Y-34930075D01*
X119171308Y-34529989D01*
X119286225Y-34529989D01*
X119286225Y-34568257D01*
X119297064Y-34584478D01*
X119344682Y-34632097D01*
X119360903Y-34642936D01*
X119360904Y-34642936D01*
X119399172Y-34642936D01*
X119415393Y-34632097D01*
X119463012Y-34584479D01*
X119473851Y-34568258D01*
X119473851Y-34529989D01*
X119619558Y-34529989D01*
X119619558Y-34568257D01*
X119646618Y-34595317D01*
X119665752Y-34599123D01*
X120332419Y-34599123D01*
X120351553Y-34595317D01*
X120378613Y-34568257D01*
X120378613Y-34529989D01*
X120351553Y-34502929D01*
X120332419Y-34499123D01*
X119665752Y-34499123D01*
X119646618Y-34502929D01*
X119619558Y-34529989D01*
X119473851Y-34529989D01*
X119473851Y-34529988D01*
X119463012Y-34513767D01*
X119415393Y-34466149D01*
X119399172Y-34455310D01*
X119360903Y-34455310D01*
X119344682Y-34466149D01*
X119297064Y-34513768D01*
X119286226Y-34529988D01*
X119286225Y-34529989D01*
X119171308Y-34529989D01*
X119171308Y-33644361D01*
X119615752Y-33644361D01*
X119615752Y-34168170D01*
X119617919Y-34179064D01*
X119617607Y-34181664D01*
X119618717Y-34183076D01*
X119619558Y-34187304D01*
X119631133Y-34198879D01*
X119641250Y-34211755D01*
X119644385Y-34212131D01*
X119646618Y-34214364D01*
X119662989Y-34214364D01*
X119679246Y-34216315D01*
X119683090Y-34214364D01*
X119684886Y-34214364D01*
X119686736Y-34212513D01*
X119696643Y-34207486D01*
X120282419Y-33747234D01*
X120282419Y-34168170D01*
X120286225Y-34187304D01*
X120313285Y-34214364D01*
X120351553Y-34214364D01*
X120378613Y-34187304D01*
X120382419Y-34168170D01*
X120382419Y-33644361D01*
X120380251Y-33633466D01*
X120380564Y-33630867D01*
X120379453Y-33629454D01*
X120378613Y-33625227D01*
X120367037Y-33613651D01*
X120356921Y-33600776D01*
X120353785Y-33600399D01*
X120351553Y-33598167D01*
X120335182Y-33598167D01*
X120318925Y-33596216D01*
X120315081Y-33598167D01*
X120313285Y-33598167D01*
X120311434Y-33600017D01*
X120301528Y-33605045D01*
X119715752Y-34065296D01*
X119715752Y-33644361D01*
X119711946Y-33625227D01*
X119684886Y-33598167D01*
X119646618Y-33598167D01*
X119619558Y-33625227D01*
X119615752Y-33644361D01*
X119171308Y-33644361D01*
X119171308Y-33069388D01*
X119282545Y-33069388D01*
X119283726Y-33072932D01*
X119282545Y-33076476D01*
X119289632Y-33090652D01*
X119294646Y-33105692D01*
X119297988Y-33107362D01*
X119299659Y-33110705D01*
X119316608Y-33120366D01*
X120316607Y-33453699D01*
X120335963Y-33456139D01*
X120370191Y-33439025D01*
X120382293Y-33402721D01*
X120365178Y-33368492D01*
X120348230Y-33358831D01*
X120096704Y-33274989D01*
X120096704Y-32870874D01*
X120348230Y-32787033D01*
X120365178Y-32777372D01*
X120382293Y-32743143D01*
X120370191Y-32706839D01*
X120335963Y-32689725D01*
X120316607Y-32692165D01*
X119316608Y-33025498D01*
X119299659Y-33035159D01*
X119297988Y-33038501D01*
X119294646Y-33040172D01*
X119289632Y-33055211D01*
X119282545Y-33069388D01*
X119171308Y-33069388D01*
X119171308Y-31625226D01*
X119286225Y-31625226D01*
X119286225Y-31663494D01*
X119313285Y-31690554D01*
X119332419Y-31694360D01*
X120332419Y-31694360D01*
X120351553Y-31690554D01*
X120378613Y-31663494D01*
X120378613Y-31625226D01*
X120359716Y-31606329D01*
X120377140Y-31571483D01*
X120377801Y-31569067D01*
X120378613Y-31568256D01*
X120380176Y-31560394D01*
X120382293Y-31552667D01*
X120381930Y-31551578D01*
X120382419Y-31549122D01*
X120382419Y-31358646D01*
X120381930Y-31356189D01*
X120382293Y-31355101D01*
X120380176Y-31347373D01*
X120378613Y-31339512D01*
X120377801Y-31338700D01*
X120377140Y-31336285D01*
X120329521Y-31241047D01*
X120324609Y-31234718D01*
X120320155Y-31228052D01*
X120272535Y-31180433D01*
X120265868Y-31175978D01*
X120259540Y-31171067D01*
X120164303Y-31123449D01*
X120161887Y-31122787D01*
X120161076Y-31121976D01*
X120153214Y-31120412D01*
X120145487Y-31118296D01*
X120144398Y-31118658D01*
X120141942Y-31118170D01*
X119856228Y-31118170D01*
X119853771Y-31118658D01*
X119852683Y-31118296D01*
X119844955Y-31120412D01*
X119837094Y-31121976D01*
X119836282Y-31122787D01*
X119833867Y-31123449D01*
X119738629Y-31171068D01*
X119732300Y-31175979D01*
X119725634Y-31180434D01*
X119678016Y-31228053D01*
X119673564Y-31234714D01*
X119668649Y-31241048D01*
X119621031Y-31336285D01*
X119620369Y-31338700D01*
X119619558Y-31339512D01*
X119617994Y-31347373D01*
X119615878Y-31355101D01*
X119616240Y-31356189D01*
X119615752Y-31358646D01*
X119615752Y-31549122D01*
X119616240Y-31551578D01*
X119615878Y-31552667D01*
X119617994Y-31560394D01*
X119619558Y-31568256D01*
X119620369Y-31569067D01*
X119621031Y-31571483D01*
X119632469Y-31594360D01*
X119332419Y-31594360D01*
X119313285Y-31598166D01*
X119286225Y-31625226D01*
X119171308Y-31625226D01*
X119171308Y-30406265D01*
X119615752Y-30406265D01*
X119615752Y-30596741D01*
X119616240Y-30599197D01*
X119615878Y-30600286D01*
X119617994Y-30608013D01*
X119619558Y-30615875D01*
X119620369Y-30616686D01*
X119621031Y-30619102D01*
X119668649Y-30714339D01*
X119674752Y-30722203D01*
X119675598Y-30724739D01*
X119678421Y-30726930D01*
X119680611Y-30729751D01*
X119683144Y-30730595D01*
X119691010Y-30736700D01*
X119786248Y-30784319D01*
X119788663Y-30784980D01*
X119789475Y-30785792D01*
X119797336Y-30787355D01*
X119805064Y-30789472D01*
X119806152Y-30789109D01*
X119808609Y-30789598D01*
X120332419Y-30789598D01*
X120351553Y-30785792D01*
X120378613Y-30758732D01*
X120378613Y-30720464D01*
X120359716Y-30701567D01*
X120377140Y-30666721D01*
X120377801Y-30664305D01*
X120378613Y-30663494D01*
X120380176Y-30655632D01*
X120382293Y-30647905D01*
X120381930Y-30646816D01*
X120382419Y-30644360D01*
X120382419Y-30406265D01*
X120381930Y-30403808D01*
X120382293Y-30402720D01*
X120380176Y-30394992D01*
X120378613Y-30387131D01*
X120377801Y-30386319D01*
X120377140Y-30383904D01*
X120329521Y-30288666D01*
X120323416Y-30280800D01*
X120322572Y-30278267D01*
X120319751Y-30276077D01*
X120317560Y-30273254D01*
X120315024Y-30272408D01*
X120307160Y-30266305D01*
X120211921Y-30218687D01*
X120209506Y-30218025D01*
X120208695Y-30217214D01*
X120200829Y-30215649D01*
X120193105Y-30213534D01*
X120192017Y-30213896D01*
X120189561Y-30213408D01*
X120094323Y-30213408D01*
X120091866Y-30213896D01*
X120090778Y-30213534D01*
X120083050Y-30215650D01*
X120075189Y-30217214D01*
X120074377Y-30218025D01*
X120071962Y-30218687D01*
X119976724Y-30266306D01*
X119968858Y-30272410D01*
X119966325Y-30273255D01*
X119964135Y-30276075D01*
X119961312Y-30278267D01*
X119960466Y-30280802D01*
X119954363Y-30288667D01*
X119906745Y-30383904D01*
X119906083Y-30386319D01*
X119905272Y-30387131D01*
X119903708Y-30394992D01*
X119901592Y-30402720D01*
X119901954Y-30403808D01*
X119901466Y-30406265D01*
X119901466Y-30632556D01*
X119872945Y-30689598D01*
X119820413Y-30689598D01*
X119750638Y-30654711D01*
X119715752Y-30584938D01*
X119715752Y-30418068D01*
X119758092Y-30333388D01*
X119763245Y-30314572D01*
X119751143Y-30278267D01*
X119716915Y-30261153D01*
X119680611Y-30273255D01*
X119668649Y-30288667D01*
X119621031Y-30383904D01*
X119620369Y-30386319D01*
X119619558Y-30387131D01*
X119617994Y-30394992D01*
X119615878Y-30402720D01*
X119616240Y-30403808D01*
X119615752Y-30406265D01*
X119171308Y-30406265D01*
X119171308Y-29501503D01*
X119615752Y-29501503D01*
X119615752Y-29691979D01*
X119616240Y-29694435D01*
X119615878Y-29695524D01*
X119617994Y-29703251D01*
X119619558Y-29711113D01*
X119620369Y-29711924D01*
X119621031Y-29714340D01*
X119668649Y-29809577D01*
X119674752Y-29817441D01*
X119675598Y-29819977D01*
X119678421Y-29822168D01*
X119680611Y-29824989D01*
X119683144Y-29825833D01*
X119691010Y-29831938D01*
X119786248Y-29879557D01*
X119788663Y-29880218D01*
X119789475Y-29881030D01*
X119797336Y-29882593D01*
X119805064Y-29884710D01*
X119806152Y-29884347D01*
X119808609Y-29884836D01*
X120332419Y-29884836D01*
X120351553Y-29881030D01*
X120378613Y-29853970D01*
X120378613Y-29815702D01*
X120359716Y-29796805D01*
X120377140Y-29761959D01*
X120377801Y-29759543D01*
X120378613Y-29758732D01*
X120380176Y-29750870D01*
X120382293Y-29743143D01*
X120381930Y-29742054D01*
X120382419Y-29739598D01*
X120382419Y-29501503D01*
X120381930Y-29499046D01*
X120382293Y-29497958D01*
X120380176Y-29490230D01*
X120378613Y-29482369D01*
X120377801Y-29481557D01*
X120377140Y-29479142D01*
X120329521Y-29383904D01*
X120323416Y-29376038D01*
X120322572Y-29373505D01*
X120319751Y-29371315D01*
X120317560Y-29368492D01*
X120315024Y-29367646D01*
X120307160Y-29361543D01*
X120211921Y-29313925D01*
X120209506Y-29313263D01*
X120208695Y-29312452D01*
X120200829Y-29310887D01*
X120193105Y-29308772D01*
X120192017Y-29309134D01*
X120189561Y-29308646D01*
X120094323Y-29308646D01*
X120091866Y-29309134D01*
X120090778Y-29308772D01*
X120083050Y-29310888D01*
X120075189Y-29312452D01*
X120074377Y-29313263D01*
X120071962Y-29313925D01*
X119976724Y-29361544D01*
X119968858Y-29367648D01*
X119966325Y-29368493D01*
X119964135Y-29371313D01*
X119961312Y-29373505D01*
X119960466Y-29376040D01*
X119954363Y-29383905D01*
X119906745Y-29479142D01*
X119906083Y-29481557D01*
X119905272Y-29482369D01*
X119903708Y-29490230D01*
X119901592Y-29497958D01*
X119901954Y-29499046D01*
X119901466Y-29501503D01*
X119901466Y-29727794D01*
X119872945Y-29784836D01*
X119820413Y-29784836D01*
X119750638Y-29749949D01*
X119715752Y-29680176D01*
X119715752Y-29513306D01*
X119758092Y-29428626D01*
X119763245Y-29409810D01*
X119751143Y-29373505D01*
X119716915Y-29356391D01*
X119680611Y-29368493D01*
X119668649Y-29383905D01*
X119621031Y-29479142D01*
X119620369Y-29481557D01*
X119619558Y-29482369D01*
X119617994Y-29490230D01*
X119615878Y-29497958D01*
X119616240Y-29499046D01*
X119615752Y-29501503D01*
X119171308Y-29501503D01*
X119171308Y-28596741D01*
X119282419Y-28596741D01*
X119282419Y-28834836D01*
X119283982Y-28842698D01*
X119284985Y-28850647D01*
X119332604Y-28993504D01*
X119342265Y-29010452D01*
X119376494Y-29027567D01*
X119412798Y-29015465D01*
X119429912Y-28981237D01*
X119427472Y-28961881D01*
X119382419Y-28826722D01*
X119382419Y-28608544D01*
X119421130Y-28531120D01*
X119457275Y-28494976D01*
X119534699Y-28456265D01*
X119606330Y-28456265D01*
X119683753Y-28494976D01*
X119719897Y-28531121D01*
X119761433Y-28614193D01*
X119807721Y-28799344D01*
X119810060Y-28804296D01*
X119811507Y-28809578D01*
X119859125Y-28904815D01*
X119864040Y-28911148D01*
X119868492Y-28917810D01*
X119916110Y-28965429D01*
X119922776Y-28969883D01*
X119929105Y-28974795D01*
X120024343Y-29022414D01*
X120026758Y-29023075D01*
X120027570Y-29023887D01*
X120035431Y-29025450D01*
X120043159Y-29027567D01*
X120044247Y-29027204D01*
X120046704Y-29027693D01*
X120141942Y-29027693D01*
X120144398Y-29027204D01*
X120145487Y-29027567D01*
X120153214Y-29025450D01*
X120161076Y-29023887D01*
X120161887Y-29023075D01*
X120164303Y-29022414D01*
X120259540Y-28974796D01*
X120265868Y-28969884D01*
X120272535Y-28965430D01*
X120320155Y-28917811D01*
X120324609Y-28911144D01*
X120329521Y-28904816D01*
X120377140Y-28809578D01*
X120377801Y-28807162D01*
X120378613Y-28806351D01*
X120380176Y-28798489D01*
X120382293Y-28790762D01*
X120381930Y-28789673D01*
X120382419Y-28787217D01*
X120382419Y-28549122D01*
X120380855Y-28541260D01*
X120379853Y-28533310D01*
X120332234Y-28390454D01*
X120322573Y-28373505D01*
X120288344Y-28356391D01*
X120252040Y-28368492D01*
X120234926Y-28402721D01*
X120237366Y-28422076D01*
X120282419Y-28557235D01*
X120282419Y-28775413D01*
X120243708Y-28852835D01*
X120207561Y-28888981D01*
X120130139Y-28927693D01*
X120058508Y-28927693D01*
X119981084Y-28888981D01*
X119944939Y-28852837D01*
X119903404Y-28769766D01*
X119857116Y-28584614D01*
X119854776Y-28579661D01*
X119853330Y-28574380D01*
X119805711Y-28479142D01*
X119800799Y-28472813D01*
X119796345Y-28466147D01*
X119748726Y-28418529D01*
X119742064Y-28414077D01*
X119735731Y-28409162D01*
X119640494Y-28361544D01*
X119638078Y-28360882D01*
X119637267Y-28360071D01*
X119629405Y-28358507D01*
X119621678Y-28356391D01*
X119620589Y-28356753D01*
X119618133Y-28356265D01*
X119522895Y-28356265D01*
X119520438Y-28356753D01*
X119519350Y-28356391D01*
X119511622Y-28358507D01*
X119503761Y-28360071D01*
X119502949Y-28360882D01*
X119500534Y-28361544D01*
X119405296Y-28409163D01*
X119398967Y-28414074D01*
X119392301Y-28418529D01*
X119344683Y-28466148D01*
X119340231Y-28472809D01*
X119335316Y-28479143D01*
X119287698Y-28574380D01*
X119287036Y-28576795D01*
X119286225Y-28577607D01*
X119284661Y-28585468D01*
X119282545Y-28593196D01*
X119282907Y-28594284D01*
X119282419Y-28596741D01*
X119171308Y-28596741D01*
X119171308Y-28245154D01*
X120493530Y-28245154D01*
X120493530Y-35613140D01*
G37*
G36*
X101352857Y-61672933D02*
G01*
X101310413Y-61672933D01*
X101240638Y-61638046D01*
X101205752Y-61568273D01*
X101205752Y-61401403D01*
X101240638Y-61331629D01*
X101310413Y-61296743D01*
X101428095Y-61296743D01*
X101352857Y-61672933D01*
G37*
G36*
X101653998Y-57244271D02*
G01*
X101733707Y-57323980D01*
X101772419Y-57401402D01*
X101772419Y-57568271D01*
X101733707Y-57645693D01*
X101653998Y-57725402D01*
X101482930Y-57768170D01*
X101161907Y-57768170D01*
X100990837Y-57725402D01*
X100911131Y-57645696D01*
X100872419Y-57568272D01*
X100872419Y-57401402D01*
X100911131Y-57323978D01*
X100990837Y-57244271D01*
X101161907Y-57201504D01*
X101482930Y-57201504D01*
X101653998Y-57244271D01*
G37*
G36*
X101352857Y-55434836D02*
G01*
X101310413Y-55434836D01*
X101240638Y-55399949D01*
X101205752Y-55330176D01*
X101205752Y-55163306D01*
X101240638Y-55093532D01*
X101310413Y-55058646D01*
X101428095Y-55058646D01*
X101352857Y-55434836D01*
G37*
G36*
X102078768Y-62693506D02*
G01*
X100661308Y-62693506D01*
X100661308Y-62058750D01*
X101105814Y-62058750D01*
X101122196Y-62093334D01*
X101138935Y-62103354D01*
X101673758Y-62294362D01*
X101138935Y-62485370D01*
X101122196Y-62495390D01*
X101105814Y-62529974D01*
X101118685Y-62566013D01*
X101153269Y-62582395D01*
X101172569Y-62579544D01*
X101839236Y-62341449D01*
X101855975Y-62331429D01*
X101857103Y-62329046D01*
X101859486Y-62327918D01*
X101865148Y-62312062D01*
X101872357Y-62296845D01*
X101871470Y-62294362D01*
X101872357Y-62291879D01*
X101865148Y-62276661D01*
X101859486Y-62260806D01*
X101857103Y-62259677D01*
X101855975Y-62257295D01*
X101839236Y-62247275D01*
X101172569Y-62009180D01*
X101153269Y-62006329D01*
X101118685Y-62022711D01*
X101105814Y-62058750D01*
X100661308Y-62058750D01*
X100661308Y-61389600D01*
X101105752Y-61389600D01*
X101105752Y-61580076D01*
X101106240Y-61582532D01*
X101105878Y-61583621D01*
X101107994Y-61591348D01*
X101109558Y-61599210D01*
X101110369Y-61600021D01*
X101111031Y-61602437D01*
X101158649Y-61697674D01*
X101164752Y-61705538D01*
X101165598Y-61708074D01*
X101168421Y-61710265D01*
X101170611Y-61713086D01*
X101173144Y-61713930D01*
X101181010Y-61720035D01*
X101276248Y-61767654D01*
X101278663Y-61768315D01*
X101279475Y-61769127D01*
X101287336Y-61770690D01*
X101295064Y-61772807D01*
X101296152Y-61772444D01*
X101298609Y-61772933D01*
X101393847Y-61772933D01*
X101401095Y-61771491D01*
X101403550Y-61771982D01*
X101405643Y-61770586D01*
X101412981Y-61769127D01*
X101423277Y-61758830D01*
X101435391Y-61750755D01*
X101438261Y-61743846D01*
X101440041Y-61742067D01*
X101440041Y-61739562D01*
X101442876Y-61732739D01*
X101530075Y-61296743D01*
X101667759Y-61296743D01*
X101737532Y-61331629D01*
X101772419Y-61401403D01*
X101772419Y-61568272D01*
X101730079Y-61652953D01*
X101724926Y-61671769D01*
X101737027Y-61708074D01*
X101771255Y-61725188D01*
X101807560Y-61713087D01*
X101819521Y-61697675D01*
X101867140Y-61602437D01*
X101867801Y-61600021D01*
X101868613Y-61599210D01*
X101870176Y-61591348D01*
X101872293Y-61583621D01*
X101871930Y-61582532D01*
X101872419Y-61580076D01*
X101872419Y-61389600D01*
X101871930Y-61387143D01*
X101872293Y-61386055D01*
X101870176Y-61378327D01*
X101868613Y-61370466D01*
X101867801Y-61369654D01*
X101867140Y-61367239D01*
X101819521Y-61272001D01*
X101813416Y-61264135D01*
X101812572Y-61261602D01*
X101809751Y-61259412D01*
X101807560Y-61256589D01*
X101805024Y-61255743D01*
X101797160Y-61249640D01*
X101701921Y-61202022D01*
X101699506Y-61201360D01*
X101698695Y-61200549D01*
X101690829Y-61198984D01*
X101683105Y-61196869D01*
X101682017Y-61197231D01*
X101679561Y-61196743D01*
X101298609Y-61196743D01*
X101296152Y-61197231D01*
X101295064Y-61196869D01*
X101287336Y-61198985D01*
X101279475Y-61200549D01*
X101278663Y-61201360D01*
X101276248Y-61202022D01*
X101181010Y-61249641D01*
X101173144Y-61255745D01*
X101170611Y-61256590D01*
X101168421Y-61259410D01*
X101165598Y-61261602D01*
X101164752Y-61264137D01*
X101158649Y-61272002D01*
X101111031Y-61367239D01*
X101110369Y-61369654D01*
X101109558Y-61370466D01*
X101107994Y-61378327D01*
X101105878Y-61386055D01*
X101106240Y-61387143D01*
X101105752Y-61389600D01*
X100661308Y-61389600D01*
X100661308Y-60465704D01*
X100776225Y-60465704D01*
X100776225Y-60503972D01*
X100803285Y-60531032D01*
X100822419Y-60534838D01*
X101772419Y-60534838D01*
X101772419Y-60961028D01*
X101776225Y-60980162D01*
X101803285Y-61007222D01*
X101841553Y-61007222D01*
X101868613Y-60980162D01*
X101872419Y-60961028D01*
X101872419Y-60484838D01*
X101868613Y-60465704D01*
X101841553Y-60438644D01*
X101822419Y-60434838D01*
X100822419Y-60434838D01*
X100803285Y-60438644D01*
X100776225Y-60465704D01*
X100661308Y-60465704D01*
X100661308Y-59484838D01*
X101867657Y-59484838D01*
X101867657Y-60246742D01*
X101871463Y-60265876D01*
X101898523Y-60292936D01*
X101936791Y-60292936D01*
X101963851Y-60265876D01*
X101967657Y-60246742D01*
X101967657Y-59484838D01*
X101963851Y-59465704D01*
X101936791Y-59438644D01*
X101898523Y-59438644D01*
X101871463Y-59465704D01*
X101867657Y-59484838D01*
X100661308Y-59484838D01*
X100661308Y-59132370D01*
X100776225Y-59132370D01*
X100776225Y-59170638D01*
X100803285Y-59197698D01*
X100822419Y-59201504D01*
X101105752Y-59201504D01*
X101105752Y-59389599D01*
X101109558Y-59408733D01*
X101136618Y-59435793D01*
X101174886Y-59435793D01*
X101201946Y-59408733D01*
X101205752Y-59389599D01*
X101205752Y-59201504D01*
X101667759Y-59201504D01*
X101737532Y-59236390D01*
X101772419Y-59306164D01*
X101772419Y-59389599D01*
X101776225Y-59408733D01*
X101803285Y-59435793D01*
X101841553Y-59435793D01*
X101868613Y-59408733D01*
X101872419Y-59389599D01*
X101872419Y-59294361D01*
X101871930Y-59291904D01*
X101872293Y-59290816D01*
X101870176Y-59283088D01*
X101868613Y-59275227D01*
X101867801Y-59274415D01*
X101867140Y-59272000D01*
X101819521Y-59176762D01*
X101813416Y-59168896D01*
X101812572Y-59166363D01*
X101809751Y-59164173D01*
X101807560Y-59161350D01*
X101805024Y-59160504D01*
X101797160Y-59154401D01*
X101701921Y-59106783D01*
X101699506Y-59106121D01*
X101698695Y-59105310D01*
X101690829Y-59103745D01*
X101683105Y-59101630D01*
X101682017Y-59101992D01*
X101679561Y-59101504D01*
X101205752Y-59101504D01*
X101205752Y-59008647D01*
X101201946Y-58989513D01*
X101174886Y-58962453D01*
X101136618Y-58962453D01*
X101109558Y-58989513D01*
X101105752Y-59008647D01*
X101105752Y-59101504D01*
X100822419Y-59101504D01*
X100803285Y-59105310D01*
X100776225Y-59132370D01*
X100661308Y-59132370D01*
X100661308Y-58227608D01*
X101109558Y-58227608D01*
X101109558Y-58265876D01*
X101136618Y-58292936D01*
X101155752Y-58296742D01*
X101667759Y-58296742D01*
X101737532Y-58331628D01*
X101772419Y-58401402D01*
X101772419Y-58520652D01*
X101733708Y-58598074D01*
X101706469Y-58625313D01*
X101155752Y-58625313D01*
X101136618Y-58629119D01*
X101109558Y-58656179D01*
X101109558Y-58694447D01*
X101136618Y-58721507D01*
X101155752Y-58725313D01*
X101822419Y-58725313D01*
X101841553Y-58721507D01*
X101868613Y-58694447D01*
X101868613Y-58656179D01*
X101841553Y-58629119D01*
X101831035Y-58627026D01*
X101867140Y-58554817D01*
X101867801Y-58552401D01*
X101868613Y-58551590D01*
X101870176Y-58543728D01*
X101872293Y-58536001D01*
X101871930Y-58534912D01*
X101872419Y-58532456D01*
X101872419Y-58389599D01*
X101871930Y-58387142D01*
X101872293Y-58386054D01*
X101870176Y-58378326D01*
X101868613Y-58370465D01*
X101867801Y-58369653D01*
X101867140Y-58367238D01*
X101819521Y-58272000D01*
X101813416Y-58264134D01*
X101812572Y-58261601D01*
X101809751Y-58259411D01*
X101807560Y-58256588D01*
X101805024Y-58255742D01*
X101797160Y-58249639D01*
X101701921Y-58202021D01*
X101699506Y-58201359D01*
X101698695Y-58200548D01*
X101690829Y-58198983D01*
X101683105Y-58196868D01*
X101682017Y-58197230D01*
X101679561Y-58196742D01*
X101155752Y-58196742D01*
X101136618Y-58200548D01*
X101109558Y-58227608D01*
X100661308Y-58227608D01*
X100661308Y-57389599D01*
X100772419Y-57389599D01*
X100772419Y-57580075D01*
X100772907Y-57582531D01*
X100772545Y-57583620D01*
X100774661Y-57591347D01*
X100776225Y-57599209D01*
X100777036Y-57600020D01*
X100777698Y-57602436D01*
X100825316Y-57697673D01*
X100830231Y-57704006D01*
X100834683Y-57710668D01*
X100929921Y-57805906D01*
X100934423Y-57808914D01*
X100935510Y-57810725D01*
X100941048Y-57813341D01*
X100946142Y-57816745D01*
X100948253Y-57816745D01*
X100953149Y-57819058D01*
X101143625Y-57866677D01*
X101149742Y-57866974D01*
X101155752Y-57868170D01*
X101489085Y-57868170D01*
X101495094Y-57866974D01*
X101501212Y-57866677D01*
X101691688Y-57819058D01*
X101696584Y-57816745D01*
X101698695Y-57816745D01*
X101703790Y-57813340D01*
X101709327Y-57810725D01*
X101710412Y-57808916D01*
X101714916Y-57805907D01*
X101810155Y-57710668D01*
X101814605Y-57704008D01*
X101819521Y-57697674D01*
X101867140Y-57602436D01*
X101867801Y-57600020D01*
X101868613Y-57599209D01*
X101870176Y-57591347D01*
X101872293Y-57583620D01*
X101871930Y-57582531D01*
X101872419Y-57580075D01*
X101872419Y-57389599D01*
X101871930Y-57387142D01*
X101872293Y-57386054D01*
X101870176Y-57378326D01*
X101868613Y-57370465D01*
X101867801Y-57369653D01*
X101867140Y-57367238D01*
X101819521Y-57272000D01*
X101814605Y-57265665D01*
X101810155Y-57259006D01*
X101714916Y-57163767D01*
X101710412Y-57160757D01*
X101709327Y-57158949D01*
X101703790Y-57156333D01*
X101698695Y-57152929D01*
X101696584Y-57152929D01*
X101691688Y-57150616D01*
X101501212Y-57102997D01*
X101495094Y-57102699D01*
X101489085Y-57101504D01*
X101155752Y-57101504D01*
X101149742Y-57102699D01*
X101143625Y-57102997D01*
X100953149Y-57150616D01*
X100948253Y-57152929D01*
X100946142Y-57152929D01*
X100941048Y-57156332D01*
X100935510Y-57158949D01*
X100934423Y-57160759D01*
X100929921Y-57163768D01*
X100834683Y-57259006D01*
X100830231Y-57265667D01*
X100825316Y-57272001D01*
X100777698Y-57367238D01*
X100777036Y-57369653D01*
X100776225Y-57370465D01*
X100774661Y-57378326D01*
X100772545Y-57386054D01*
X100772907Y-57387142D01*
X100772419Y-57389599D01*
X100661308Y-57389599D01*
X100661308Y-56199123D01*
X101867657Y-56199123D01*
X101867657Y-56961027D01*
X101871463Y-56980161D01*
X101898523Y-57007221D01*
X101936791Y-57007221D01*
X101963851Y-56980161D01*
X101967657Y-56961027D01*
X101967657Y-56199123D01*
X101963851Y-56179989D01*
X101936791Y-56152929D01*
X101898523Y-56152929D01*
X101871463Y-56179989D01*
X101867657Y-56199123D01*
X100661308Y-56199123D01*
X100661308Y-55894274D01*
X100776225Y-55894274D01*
X100776225Y-55932542D01*
X100803285Y-55959602D01*
X100822419Y-55963408D01*
X101667759Y-55963408D01*
X101737532Y-55998294D01*
X101777697Y-56078625D01*
X101789659Y-56094037D01*
X101825963Y-56106139D01*
X101860191Y-56089025D01*
X101872293Y-56052720D01*
X101867140Y-56033904D01*
X101819521Y-55938666D01*
X101813416Y-55930800D01*
X101812572Y-55928267D01*
X101809751Y-55926077D01*
X101807560Y-55923254D01*
X101805024Y-55922408D01*
X101797160Y-55916305D01*
X101701921Y-55868687D01*
X101699506Y-55868025D01*
X101698695Y-55867214D01*
X101690829Y-55865649D01*
X101683105Y-55863534D01*
X101682017Y-55863896D01*
X101679561Y-55863408D01*
X100822419Y-55863408D01*
X100803285Y-55867214D01*
X100776225Y-55894274D01*
X100661308Y-55894274D01*
X100661308Y-55151503D01*
X101105752Y-55151503D01*
X101105752Y-55341979D01*
X101106240Y-55344435D01*
X101105878Y-55345524D01*
X101107994Y-55353251D01*
X101109558Y-55361113D01*
X101110369Y-55361924D01*
X101111031Y-55364340D01*
X101158649Y-55459577D01*
X101164752Y-55467441D01*
X101165598Y-55469977D01*
X101168421Y-55472168D01*
X101170611Y-55474989D01*
X101173144Y-55475833D01*
X101181010Y-55481938D01*
X101276248Y-55529557D01*
X101278663Y-55530218D01*
X101279475Y-55531030D01*
X101287336Y-55532593D01*
X101295064Y-55534710D01*
X101296152Y-55534347D01*
X101298609Y-55534836D01*
X101393847Y-55534836D01*
X101401095Y-55533394D01*
X101403550Y-55533885D01*
X101405643Y-55532489D01*
X101412981Y-55531030D01*
X101423277Y-55520733D01*
X101435391Y-55512658D01*
X101438261Y-55505749D01*
X101440041Y-55503970D01*
X101440041Y-55501465D01*
X101442876Y-55494642D01*
X101530075Y-55058646D01*
X101667759Y-55058646D01*
X101737532Y-55093532D01*
X101772419Y-55163306D01*
X101772419Y-55330175D01*
X101730079Y-55414856D01*
X101724926Y-55433672D01*
X101737027Y-55469977D01*
X101771255Y-55487091D01*
X101807560Y-55474990D01*
X101819521Y-55459578D01*
X101867140Y-55364340D01*
X101867801Y-55361924D01*
X101868613Y-55361113D01*
X101870176Y-55353251D01*
X101872293Y-55345524D01*
X101871930Y-55344435D01*
X101872419Y-55341979D01*
X101872419Y-55151503D01*
X101871930Y-55149046D01*
X101872293Y-55147958D01*
X101870176Y-55140230D01*
X101868613Y-55132369D01*
X101867801Y-55131557D01*
X101867140Y-55129142D01*
X101819521Y-55033904D01*
X101813416Y-55026038D01*
X101812572Y-55023505D01*
X101809751Y-55021315D01*
X101807560Y-55018492D01*
X101805024Y-55017646D01*
X101797160Y-55011543D01*
X101701921Y-54963925D01*
X101699506Y-54963263D01*
X101698695Y-54962452D01*
X101690829Y-54960887D01*
X101683105Y-54958772D01*
X101682017Y-54959134D01*
X101679561Y-54958646D01*
X101298609Y-54958646D01*
X101296152Y-54959134D01*
X101295064Y-54958772D01*
X101287336Y-54960888D01*
X101279475Y-54962452D01*
X101278663Y-54963263D01*
X101276248Y-54963925D01*
X101181010Y-55011544D01*
X101173144Y-55017648D01*
X101170611Y-55018493D01*
X101168421Y-55021313D01*
X101165598Y-55023505D01*
X101164752Y-55026040D01*
X101158649Y-55033905D01*
X101111031Y-55129142D01*
X101110369Y-55131557D01*
X101109558Y-55132369D01*
X101107994Y-55140230D01*
X101105878Y-55147958D01*
X101106240Y-55149046D01*
X101105752Y-55151503D01*
X100661308Y-55151503D01*
X100661308Y-54246741D01*
X100772419Y-54246741D01*
X100772419Y-54484836D01*
X100773982Y-54492698D01*
X100774985Y-54500647D01*
X100822604Y-54643504D01*
X100832265Y-54660452D01*
X100866494Y-54677567D01*
X100902798Y-54665465D01*
X100919912Y-54631237D01*
X100917472Y-54611881D01*
X100872419Y-54476722D01*
X100872419Y-54258544D01*
X100911130Y-54181120D01*
X100947275Y-54144976D01*
X101024699Y-54106265D01*
X101096330Y-54106265D01*
X101173753Y-54144976D01*
X101209897Y-54181121D01*
X101251433Y-54264193D01*
X101297721Y-54449344D01*
X101300060Y-54454296D01*
X101301507Y-54459578D01*
X101349125Y-54554815D01*
X101354040Y-54561148D01*
X101358492Y-54567810D01*
X101406110Y-54615429D01*
X101412776Y-54619883D01*
X101419105Y-54624795D01*
X101514343Y-54672414D01*
X101516758Y-54673075D01*
X101517570Y-54673887D01*
X101525431Y-54675450D01*
X101533159Y-54677567D01*
X101534247Y-54677204D01*
X101536704Y-54677693D01*
X101631942Y-54677693D01*
X101634398Y-54677204D01*
X101635487Y-54677567D01*
X101643214Y-54675450D01*
X101651076Y-54673887D01*
X101651887Y-54673075D01*
X101654303Y-54672414D01*
X101749540Y-54624796D01*
X101755868Y-54619884D01*
X101762535Y-54615430D01*
X101810155Y-54567811D01*
X101814609Y-54561144D01*
X101819521Y-54554816D01*
X101867140Y-54459578D01*
X101867801Y-54457162D01*
X101868613Y-54456351D01*
X101870176Y-54448489D01*
X101872293Y-54440762D01*
X101871930Y-54439673D01*
X101872419Y-54437217D01*
X101872419Y-54199122D01*
X101870855Y-54191260D01*
X101869853Y-54183310D01*
X101822234Y-54040454D01*
X101812573Y-54023505D01*
X101778344Y-54006391D01*
X101742040Y-54018492D01*
X101724926Y-54052721D01*
X101727366Y-54072076D01*
X101772419Y-54207235D01*
X101772419Y-54425413D01*
X101733708Y-54502835D01*
X101697561Y-54538981D01*
X101620139Y-54577693D01*
X101548508Y-54577693D01*
X101471084Y-54538981D01*
X101434939Y-54502837D01*
X101393404Y-54419766D01*
X101347116Y-54234614D01*
X101344776Y-54229661D01*
X101343330Y-54224380D01*
X101295711Y-54129142D01*
X101290799Y-54122813D01*
X101286345Y-54116147D01*
X101238726Y-54068529D01*
X101232064Y-54064077D01*
X101225731Y-54059162D01*
X101130494Y-54011544D01*
X101128078Y-54010882D01*
X101127267Y-54010071D01*
X101119405Y-54008507D01*
X101111678Y-54006391D01*
X101110589Y-54006753D01*
X101108133Y-54006265D01*
X101012895Y-54006265D01*
X101010438Y-54006753D01*
X101009350Y-54006391D01*
X101001622Y-54008507D01*
X100993761Y-54010071D01*
X100992949Y-54010882D01*
X100990534Y-54011544D01*
X100895296Y-54059163D01*
X100888967Y-54064074D01*
X100882301Y-54068529D01*
X100834683Y-54116148D01*
X100830231Y-54122809D01*
X100825316Y-54129143D01*
X100777698Y-54224380D01*
X100777036Y-54226795D01*
X100776225Y-54227607D01*
X100774661Y-54235468D01*
X100772545Y-54243196D01*
X100772907Y-54244284D01*
X100772419Y-54246741D01*
X100661308Y-54246741D01*
X100661308Y-53895154D01*
X102078768Y-53895154D01*
X102078768Y-62693506D01*
G37*
D11*
%TO.P,J3,1,Pin_1*%
%TO.N,Output*%
X109700000Y-54300000D03*
%TD*%
%TO.P,J1,1,Pin_1*%
%TO.N,+5V*%
X116200000Y-49500000D03*
D12*
%TO.P,J1,2,Pin_2*%
%TO.N,+3.3V*%
X116200000Y-46960000D03*
%TO.P,J1,3,Pin_3*%
%TO.N,Enable*%
X116200000Y-44420000D03*
%TO.P,J1,4,Pin_4*%
%TO.N,GND*%
X116200000Y-41880000D03*
%TD*%
D13*
%TO.P,H2,1,1*%
%TO.N,GND*%
X115580000Y-70490000D03*
D14*
X115580000Y-70490000D03*
%TD*%
D11*
%TO.P,J2,1,Pin_1*%
%TO.N,+5V*%
X103200000Y-49500000D03*
D12*
%TO.P,J2,2,Pin_2*%
%TO.N,+3.3V*%
X103200000Y-46960000D03*
%TO.P,J2,3,Pin_3*%
%TO.N,Enable*%
X103200000Y-44420000D03*
%TO.P,J2,4,Pin_4*%
%TO.N,GND*%
X103200000Y-41880000D03*
%TD*%
D13*
%TO.P,H1,1,1*%
%TO.N,GND*%
X103710000Y-70490000D03*
D14*
X103710000Y-70490000D03*
%TD*%
D15*
%TO.P,RV1,1,1*%
%TO.N,+5V*%
X107160000Y-59830000D03*
%TO.P,RV1,2,2*%
%TO.N,Net-(U2--)*%
X109700000Y-57290000D03*
%TO.P,RV1,3,3*%
%TO.N,GND*%
X112240000Y-59830000D03*
%TD*%
D16*
%TO.P,R6,1*%
%TO.N,+3.3V*%
X103600000Y-56900000D03*
%TO.P,R6,2*%
%TO.N,+5V*%
X103600000Y-58900000D03*
%TD*%
%TO.P,R7,1*%
%TO.N,Enable*%
X115500000Y-56700000D03*
%TO.P,R7,2*%
%TO.N,+5V*%
X115500000Y-58700000D03*
%TD*%
D17*
%TO.P,Q1,1,C*%
%TO.N,Net-(Q1-C)*%
X110900000Y-37000000D03*
D18*
%TO.P,Q1,2,E*%
%TO.N,GND*%
X108360000Y-37000000D03*
%TO.P,Q1,3,K*%
X108360000Y-31500000D03*
%TO.P,Q1,4,A*%
%TO.N,Net-(Q1-A)*%
X110900000Y-31500000D03*
%TD*%
D19*
%TO.P,R3,1*%
%TO.N,+3.3V*%
X104600000Y-54400000D03*
%TO.P,R3,2*%
%TO.N,Output*%
X106600000Y-54400000D03*
%TD*%
D20*
%TO.P,U2,1,GND*%
%TO.N,GND*%
X105880000Y-49580000D03*
D21*
%TO.P,U2,2,+*%
%TO.N,Net-(Q1-C)*%
X105880000Y-47040000D03*
%TO.P,U2,3,-*%
%TO.N,Net-(U2--)*%
X105880000Y-44500000D03*
%TO.P,U2,4,V-*%
%TO.N,GND*%
X105880000Y-41960000D03*
%TO.P,U2,5,BAL*%
%TO.N,unconnected-(U2-BAL-Pad5)*%
X113500000Y-41960000D03*
%TO.P,U2,6,STRB*%
%TO.N,Enable*%
X113500000Y-44500000D03*
%TO.P,U2,7*%
%TO.N,Output*%
X113500000Y-47040000D03*
%TO.P,U2,8,V+*%
%TO.N,+5V*%
X113500000Y-49580000D03*
%TD*%
D22*
%TO.N,GND*%
X109800000Y-59551000D03*
X102100000Y-29840000D03*
X107441703Y-49381000D03*
X117369426Y-39469426D03*
X108481707Y-42427293D03*
X109640000Y-66602703D03*
%TO.N,Enable*%
X103900000Y-38900000D03*
X110250000Y-44410000D03*
%TO.N,+5V*%
X116500000Y-52000000D03*
X103163628Y-51136372D03*
%TO.N,Output*%
X108000000Y-54300000D03*
%TO.N,Net-(U2--)*%
X107300000Y-57300000D03*
%TD*%
D23*
%TO.N,GND*%
X103280000Y-41960000D02*
X103200000Y-41880000D01*
X108481707Y-42427293D02*
X108427293Y-42427293D01*
X108427293Y-42427293D02*
X107960000Y-41960000D01*
X108481707Y-42427293D02*
X110242707Y-42427293D01*
X116479852Y-40359000D02*
X117369426Y-39469426D01*
X117369426Y-39469426D02*
X117369426Y-40710574D01*
X112311000Y-40359000D02*
X116479852Y-40359000D01*
X107960000Y-41960000D02*
X105880000Y-41960000D01*
X109800000Y-59551000D02*
X110079000Y-59830000D01*
X117369426Y-40710574D02*
X116200000Y-41880000D01*
X105880000Y-41960000D02*
X103280000Y-41960000D01*
X110079000Y-59830000D02*
X112240000Y-59830000D01*
X110242707Y-42427293D02*
X112311000Y-40359000D01*
%TO.N,Enable*%
X101549000Y-42769000D02*
X103200000Y-44420000D01*
X113500000Y-44500000D02*
X116120000Y-44500000D01*
X110250000Y-44410000D02*
X113410000Y-44410000D01*
X111499000Y-50243156D02*
X112436844Y-51181000D01*
X115500000Y-54010000D02*
X115500000Y-56700000D01*
X111499000Y-48916844D02*
X111499000Y-50243156D01*
X103900000Y-38900000D02*
X103845133Y-38900000D01*
X111500000Y-46100000D02*
X111500000Y-48915844D01*
X112671000Y-51181000D02*
X115500000Y-54010000D01*
X113410000Y-44410000D02*
X113500000Y-44500000D01*
X101549000Y-41196133D02*
X101549000Y-42769000D01*
X112436844Y-51181000D02*
X112671000Y-51181000D01*
X113100000Y-44500000D02*
X111500000Y-46100000D01*
X103845133Y-38900000D02*
X101549000Y-41196133D01*
X111500000Y-48915844D02*
X111499000Y-48916844D01*
X116120000Y-44500000D02*
X116200000Y-44420000D01*
%TO.N,+5V*%
X111351000Y-52649000D02*
X111351000Y-54844266D01*
X103051000Y-51023744D02*
X103051000Y-49351000D01*
X104530000Y-59830000D02*
X103600000Y-58900000D01*
X103165041Y-51136372D02*
X103209669Y-51181000D01*
X115500000Y-58700000D02*
X113999000Y-60201000D01*
X111351000Y-54844266D02*
X115206734Y-58700000D01*
X116200000Y-58700000D02*
X115500000Y-58700000D01*
X116500000Y-49800000D02*
X116200000Y-49500000D01*
X117001000Y-57899000D02*
X116200000Y-58700000D01*
X117001000Y-52501000D02*
X117001000Y-57899000D01*
X103209669Y-51181000D02*
X109883000Y-51181000D01*
X112870019Y-61351000D02*
X113999000Y-60222019D01*
X107160000Y-59830000D02*
X108681000Y-61351000D01*
X103163628Y-51136372D02*
X103051000Y-51023744D01*
X107160000Y-59830000D02*
X104530000Y-59830000D01*
X115206734Y-58700000D02*
X115500000Y-58700000D01*
X108681000Y-61351000D02*
X112870019Y-61351000D01*
X116500000Y-52000000D02*
X116500000Y-49800000D01*
X113999000Y-60201000D02*
X113999000Y-60222019D01*
X116500000Y-52000000D02*
X117001000Y-52501000D01*
X109883000Y-51181000D02*
X111351000Y-52649000D01*
X103163628Y-51136372D02*
X103165041Y-51136372D01*
%TO.N,+3.3V*%
X101223670Y-46960000D02*
X103200000Y-46960000D01*
X105701000Y-38154001D02*
X105701000Y-39260892D01*
X106799108Y-40359000D02*
X110753950Y-40359000D01*
X101050000Y-51568330D02*
X101050000Y-47133670D01*
X112232950Y-38880000D02*
X115411853Y-38880000D01*
X103154001Y-37099000D02*
X100448000Y-39805001D01*
X105701000Y-38154001D02*
X104645999Y-37099000D01*
X110753950Y-40359000D02*
X112232950Y-38880000D01*
X100448000Y-39805001D02*
X100448000Y-44208000D01*
X119170426Y-40215425D02*
X119170426Y-38723427D01*
X104600000Y-54400000D02*
X103881670Y-54400000D01*
X118115425Y-37668426D02*
X116623427Y-37668426D01*
X100448000Y-44208000D02*
X103200000Y-46960000D01*
X118480000Y-40905851D02*
X119170426Y-40215425D01*
X119170426Y-38723427D02*
X118115425Y-37668426D01*
X101050000Y-47133670D02*
X101223670Y-46960000D01*
X116200000Y-46960000D02*
X118480000Y-44680000D01*
X103881670Y-54400000D02*
X101050000Y-51568330D01*
X104645999Y-37099000D02*
X103154001Y-37099000D01*
X104600000Y-54400000D02*
X104600000Y-55900000D01*
X105701000Y-39260892D02*
X106799108Y-40359000D01*
X118480000Y-44680000D02*
X118480000Y-40905851D01*
X116623427Y-37668426D02*
X115411853Y-38880000D01*
X104600000Y-55900000D02*
X103600000Y-56900000D01*
%TO.N,Output*%
X108000000Y-54300000D02*
X109700000Y-54300000D01*
X107900000Y-54400000D02*
X108000000Y-54300000D01*
X106600000Y-54400000D02*
X107900000Y-54400000D01*
%TO.N,Net-(U2--)*%
X107300000Y-57300000D02*
X109690000Y-57300000D01*
X109690000Y-57300000D02*
X109700000Y-57290000D01*
%TD*%
%TA.AperFunction,Conductor*%
%TO.N,GND*%
G36*
X110940771Y-55573219D02*
G01*
X110969025Y-55594369D01*
X112568602Y-57193945D01*
X114133608Y-58758951D01*
X114167093Y-58820274D01*
X114162109Y-58889966D01*
X114133608Y-58934313D01*
X113596007Y-59471914D01*
X113534684Y-59505399D01*
X113464992Y-59500415D01*
X113409059Y-59458543D01*
X113390395Y-59422551D01*
X113370616Y-59361680D01*
X113283434Y-59190577D01*
X113262201Y-59161352D01*
X113262200Y-59161351D01*
X112640000Y-59783551D01*
X112640000Y-59777339D01*
X112612741Y-59675606D01*
X112560080Y-59584394D01*
X112485606Y-59509920D01*
X112394394Y-59457259D01*
X112292661Y-59430000D01*
X112286447Y-59430000D01*
X112908646Y-58807798D01*
X112879415Y-58786561D01*
X112708321Y-58699383D01*
X112525684Y-58640040D01*
X112336015Y-58610000D01*
X112143985Y-58610000D01*
X111954315Y-58640040D01*
X111771678Y-58699383D01*
X111600578Y-58786564D01*
X111571352Y-58807798D01*
X111571351Y-58807798D01*
X112193554Y-59430000D01*
X112187339Y-59430000D01*
X112085606Y-59457259D01*
X111994394Y-59509920D01*
X111919920Y-59584394D01*
X111867259Y-59675606D01*
X111840000Y-59777339D01*
X111840000Y-59783553D01*
X111217798Y-59161351D01*
X111217798Y-59161352D01*
X111196564Y-59190578D01*
X111109383Y-59361678D01*
X111050040Y-59544315D01*
X111020000Y-59733984D01*
X111020000Y-59926015D01*
X111050040Y-60115684D01*
X111109383Y-60298321D01*
X111146011Y-60370205D01*
X111158907Y-60438874D01*
X111132631Y-60503614D01*
X111075525Y-60543872D01*
X111035526Y-60550500D01*
X109063940Y-60550500D01*
X108996901Y-60530815D01*
X108976259Y-60514181D01*
X108416819Y-59954741D01*
X108383334Y-59893418D01*
X108380500Y-59867060D01*
X108380500Y-59733945D01*
X108366050Y-59642712D01*
X108350447Y-59544199D01*
X108313342Y-59430000D01*
X108291083Y-59361493D01*
X108259760Y-59300019D01*
X108203865Y-59190319D01*
X108090945Y-59034898D01*
X107955102Y-58899055D01*
X107913110Y-58868546D01*
X107908992Y-58864961D01*
X107892993Y-58839940D01*
X107874860Y-58816423D01*
X107874379Y-58810827D01*
X107871354Y-58806096D01*
X107871422Y-58776399D01*
X107868881Y-58746810D01*
X107871502Y-58741842D01*
X107871515Y-58736227D01*
X107887625Y-58711284D01*
X107901487Y-58685015D01*
X107907420Y-58680639D01*
X107909425Y-58677536D01*
X107915154Y-58674935D01*
X107934113Y-58660953D01*
X108086433Y-58583343D01*
X108277510Y-58444517D01*
X108444517Y-58277510D01*
X108535986Y-58151613D01*
X108540318Y-58148273D01*
X108542591Y-58143297D01*
X108567690Y-58127166D01*
X108591316Y-58108949D01*
X108597987Y-58107696D01*
X108601369Y-58105523D01*
X108636304Y-58100500D01*
X108733091Y-58100500D01*
X108800130Y-58120185D01*
X108820772Y-58136819D01*
X108904898Y-58220945D01*
X109060319Y-58333865D01*
X109184626Y-58397203D01*
X109231493Y-58421083D01*
X109303608Y-58444514D01*
X109414199Y-58480447D01*
X109603945Y-58510500D01*
X109603946Y-58510500D01*
X109796054Y-58510500D01*
X109796055Y-58510500D01*
X109985801Y-58480447D01*
X110168509Y-58421082D01*
X110339681Y-58333865D01*
X110495102Y-58220945D01*
X110630945Y-58085102D01*
X110743865Y-57929681D01*
X110831082Y-57758509D01*
X110890447Y-57575801D01*
X110920500Y-57386055D01*
X110920500Y-57193945D01*
X110890447Y-57004199D01*
X110851048Y-56882940D01*
X110831083Y-56821493D01*
X110817716Y-56795259D01*
X110743865Y-56650319D01*
X110630945Y-56494898D01*
X110495102Y-56359055D01*
X110339681Y-56246135D01*
X110168506Y-56158916D01*
X109985802Y-56099553D01*
X109890928Y-56084526D01*
X109796055Y-56069500D01*
X109603945Y-56069500D01*
X109540696Y-56079517D01*
X109414197Y-56099553D01*
X109231493Y-56158916D01*
X109060318Y-56246135D01*
X108904899Y-56359054D01*
X108800771Y-56463182D01*
X108773837Y-56477888D01*
X108748025Y-56494477D01*
X108741824Y-56495368D01*
X108739448Y-56496666D01*
X108713090Y-56499500D01*
X108636304Y-56499500D01*
X108569265Y-56479815D01*
X108535986Y-56448386D01*
X108508309Y-56410292D01*
X108444517Y-56322490D01*
X108277510Y-56155483D01*
X108155836Y-56067081D01*
X108090023Y-56019265D01*
X108047358Y-55963935D01*
X108041379Y-55894321D01*
X108073985Y-55832526D01*
X108134824Y-55798169D01*
X108143511Y-55796474D01*
X108351368Y-55763553D01*
X108575992Y-55690568D01*
X108650534Y-55652585D01*
X108719198Y-55639690D01*
X108735349Y-55642396D01*
X108742512Y-55644089D01*
X108742517Y-55644091D01*
X108742522Y-55644091D01*
X108742524Y-55644092D01*
X108756370Y-55645580D01*
X108802127Y-55650500D01*
X110597872Y-55650499D01*
X110657483Y-55644091D01*
X110792331Y-55593796D01*
X110807034Y-55582788D01*
X110872497Y-55558369D01*
X110940771Y-55573219D01*
G37*
%TD.AperFunction*%
%TA.AperFunction,Conductor*%
G36*
X117799524Y-38488611D02*
G01*
X117820166Y-38505245D01*
X118333607Y-39018686D01*
X118367092Y-39080009D01*
X118369926Y-39106367D01*
X118369926Y-39832485D01*
X118350241Y-39899524D01*
X118333607Y-39920166D01*
X117969711Y-40284062D01*
X117913960Y-40339813D01*
X117858209Y-40395563D01*
X117770609Y-40526665D01*
X117770602Y-40526678D01*
X117710264Y-40672349D01*
X117710261Y-40672361D01*
X117679500Y-40827004D01*
X117679500Y-41293554D01*
X117659815Y-41360593D01*
X117607011Y-41406348D01*
X117537853Y-41416292D01*
X117474297Y-41387267D01*
X117445015Y-41349849D01*
X117354624Y-41172449D01*
X117315270Y-41118282D01*
X117315269Y-41118282D01*
X116682962Y-41750590D01*
X116665925Y-41687007D01*
X116600099Y-41572993D01*
X116507007Y-41479901D01*
X116392993Y-41414075D01*
X116329409Y-41397037D01*
X116961716Y-40764728D01*
X116907550Y-40725375D01*
X116718217Y-40628904D01*
X116516129Y-40563242D01*
X116306246Y-40530000D01*
X116093754Y-40530000D01*
X115883872Y-40563242D01*
X115883869Y-40563242D01*
X115681782Y-40628904D01*
X115492439Y-40725380D01*
X115438282Y-40764727D01*
X115438282Y-40764728D01*
X116070591Y-41397037D01*
X116007007Y-41414075D01*
X115892993Y-41479901D01*
X115799901Y-41572993D01*
X115734075Y-41687007D01*
X115717037Y-41750591D01*
X115084728Y-41118282D01*
X115079537Y-41118691D01*
X115035333Y-41152777D01*
X114965719Y-41158756D01*
X114903924Y-41126150D01*
X114895379Y-41116287D01*
X114895138Y-41116494D01*
X114891967Y-41112782D01*
X114747219Y-40968034D01*
X114670515Y-40912306D01*
X114670513Y-40912303D01*
X114581613Y-40847715D01*
X114581612Y-40847714D01*
X114581610Y-40847713D01*
X114524653Y-40818691D01*
X114399223Y-40754781D01*
X114204534Y-40691522D01*
X114029995Y-40663878D01*
X114002352Y-40659500D01*
X112997648Y-40659500D01*
X112973329Y-40663351D01*
X112795465Y-40691522D01*
X112600776Y-40754781D01*
X112418386Y-40847715D01*
X112252786Y-40968028D01*
X112108028Y-41112786D01*
X111987715Y-41278386D01*
X111894781Y-41460776D01*
X111831522Y-41655465D01*
X111799500Y-41857648D01*
X111799500Y-42062351D01*
X111831522Y-42264534D01*
X111894781Y-42459223D01*
X111987715Y-42641613D01*
X112108028Y-42807213D01*
X112252786Y-42951971D01*
X112372893Y-43039232D01*
X112418390Y-43072287D01*
X112478185Y-43102754D01*
X112511080Y-43119515D01*
X112561876Y-43167490D01*
X112578671Y-43235311D01*
X112556134Y-43301446D01*
X112511080Y-43340485D01*
X112418386Y-43387715D01*
X112252786Y-43508028D01*
X112252782Y-43508032D01*
X112187634Y-43573181D01*
X112126311Y-43606666D01*
X112099953Y-43609500D01*
X111586304Y-43609500D01*
X111519265Y-43589815D01*
X111485986Y-43558386D01*
X111472783Y-43540214D01*
X111394517Y-43432490D01*
X111227510Y-43265483D01*
X111036433Y-43126657D01*
X110989521Y-43102754D01*
X110825996Y-43019433D01*
X110601368Y-42946446D01*
X110368097Y-42909500D01*
X110368092Y-42909500D01*
X110131908Y-42909500D01*
X110131903Y-42909500D01*
X109898631Y-42946446D01*
X109674003Y-43019433D01*
X109463566Y-43126657D01*
X109354550Y-43205862D01*
X109272490Y-43265483D01*
X109272488Y-43265485D01*
X109272487Y-43265485D01*
X109105485Y-43432487D01*
X109105485Y-43432488D01*
X109105483Y-43432490D01*
X109050602Y-43508027D01*
X108966657Y-43623566D01*
X108859433Y-43834003D01*
X108786446Y-44058631D01*
X108749500Y-44291902D01*
X108749500Y-44528097D01*
X108786446Y-44761368D01*
X108859433Y-44985996D01*
X108959104Y-45181610D01*
X108966657Y-45196433D01*
X109105483Y-45387510D01*
X109272490Y-45554517D01*
X109463567Y-45693343D01*
X109562991Y-45744002D01*
X109674003Y-45800566D01*
X109674005Y-45800566D01*
X109674008Y-45800568D01*
X109794412Y-45839689D01*
X109898631Y-45873553D01*
X110131903Y-45910500D01*
X110131908Y-45910500D01*
X110368097Y-45910500D01*
X110496689Y-45890132D01*
X110557290Y-45880534D01*
X110626582Y-45889488D01*
X110680034Y-45934484D01*
X110700674Y-46001236D01*
X110700091Y-46015154D01*
X110699500Y-46021158D01*
X110699500Y-48821757D01*
X110698903Y-48833910D01*
X110698500Y-48838002D01*
X110698500Y-50322002D01*
X110729261Y-50476645D01*
X110729264Y-50476657D01*
X110786647Y-50615193D01*
X110794116Y-50684662D01*
X110762840Y-50747141D01*
X110702751Y-50782793D01*
X110632926Y-50780299D01*
X110584405Y-50750326D01*
X110393292Y-50559213D01*
X110393288Y-50559210D01*
X110262185Y-50471609D01*
X110262172Y-50471602D01*
X110116501Y-50411264D01*
X110116489Y-50411261D01*
X109961845Y-50380500D01*
X109961842Y-50380500D01*
X107696828Y-50380500D01*
X107629789Y-50360815D01*
X107584034Y-50308011D01*
X107573470Y-50243897D01*
X107579999Y-50179986D01*
X107580000Y-50179973D01*
X107580000Y-49830000D01*
X106195686Y-49830000D01*
X106200080Y-49825606D01*
X106252741Y-49734394D01*
X106280000Y-49632661D01*
X106280000Y-49527339D01*
X106252741Y-49425606D01*
X106200080Y-49334394D01*
X106195686Y-49330000D01*
X107579999Y-49330000D01*
X107579999Y-48980028D01*
X107579998Y-48980013D01*
X107569505Y-48877302D01*
X107514358Y-48710880D01*
X107514356Y-48710875D01*
X107422315Y-48561654D01*
X107298345Y-48437684D01*
X107149124Y-48345643D01*
X107149119Y-48345641D01*
X107066931Y-48318407D01*
X107009486Y-48278634D01*
X106982663Y-48214119D01*
X106994978Y-48145343D01*
X107033049Y-48100383D01*
X107127219Y-48031966D01*
X107271966Y-47887219D01*
X107271968Y-47887215D01*
X107271971Y-47887213D01*
X107338632Y-47795460D01*
X107392287Y-47721610D01*
X107485220Y-47539219D01*
X107548477Y-47344534D01*
X107580500Y-47142352D01*
X107580500Y-46937648D01*
X107561757Y-46819313D01*
X107548477Y-46735465D01*
X107485218Y-46540776D01*
X107451503Y-46474607D01*
X107392287Y-46358390D01*
X107367921Y-46324853D01*
X107271971Y-46192786D01*
X107127213Y-46048028D01*
X106961614Y-45927715D01*
X106955006Y-45924348D01*
X106868917Y-45880483D01*
X106818123Y-45832511D01*
X106801328Y-45764690D01*
X106823865Y-45698555D01*
X106868917Y-45659516D01*
X106961610Y-45612287D01*
X107006719Y-45579514D01*
X107127213Y-45491971D01*
X107127215Y-45491968D01*
X107127219Y-45491966D01*
X107271966Y-45347219D01*
X107271968Y-45347215D01*
X107271971Y-45347213D01*
X107329498Y-45268032D01*
X107392287Y-45181610D01*
X107485220Y-44999219D01*
X107548477Y-44804534D01*
X107580500Y-44602352D01*
X107580500Y-44397648D01*
X107562950Y-44286842D01*
X107548477Y-44195465D01*
X107504017Y-44058632D01*
X107485220Y-44000781D01*
X107485218Y-44000778D01*
X107485218Y-44000776D01*
X107447202Y-43926166D01*
X107392287Y-43818390D01*
X107367921Y-43784853D01*
X107271971Y-43652786D01*
X107127213Y-43508028D01*
X106961611Y-43387713D01*
X106868369Y-43340203D01*
X106817574Y-43292229D01*
X106800779Y-43224407D01*
X106823317Y-43158273D01*
X106868371Y-43119234D01*
X106961347Y-43071861D01*
X107126894Y-42951582D01*
X107126895Y-42951582D01*
X107271582Y-42806895D01*
X107271582Y-42806894D01*
X107391859Y-42641349D01*
X107484755Y-42459029D01*
X107547990Y-42264413D01*
X107556609Y-42210000D01*
X106195686Y-42210000D01*
X106200080Y-42205606D01*
X106252741Y-42114394D01*
X106280000Y-42012661D01*
X106280000Y-41907339D01*
X106252741Y-41805606D01*
X106200080Y-41714394D01*
X106195686Y-41710000D01*
X107556609Y-41710000D01*
X107547990Y-41655586D01*
X107484755Y-41460970D01*
X107423014Y-41339795D01*
X107410118Y-41271126D01*
X107436394Y-41206385D01*
X107493501Y-41166128D01*
X107533499Y-41159500D01*
X110832794Y-41159500D01*
X110832795Y-41159499D01*
X110987447Y-41128737D01*
X111133129Y-41068394D01*
X111264239Y-40980789D01*
X112528209Y-39716819D01*
X112589532Y-39683334D01*
X112615890Y-39680500D01*
X115490697Y-39680500D01*
X115490698Y-39680499D01*
X115645350Y-39649737D01*
X115791032Y-39589394D01*
X115922142Y-39501789D01*
X116918686Y-38505245D01*
X116980009Y-38471760D01*
X117006367Y-38468926D01*
X117732485Y-38468926D01*
X117799524Y-38488611D01*
G37*
%TD.AperFunction*%
%TA.AperFunction,Conductor*%
G36*
X117315270Y-42641717D02*
G01*
X117315270Y-42641716D01*
X117354622Y-42587554D01*
X117445015Y-42410150D01*
X117492990Y-42359354D01*
X117560811Y-42342559D01*
X117626946Y-42365096D01*
X117670397Y-42419812D01*
X117679500Y-42466445D01*
X117679500Y-43832453D01*
X117659815Y-43899492D01*
X117607011Y-43945247D01*
X117537853Y-43955191D01*
X117474297Y-43926166D01*
X117445015Y-43888748D01*
X117416331Y-43832453D01*
X117355051Y-43712184D01*
X117342186Y-43694477D01*
X117230109Y-43540213D01*
X117079786Y-43389890D01*
X116907817Y-43264949D01*
X116898504Y-43260204D01*
X116847707Y-43212230D01*
X116830912Y-43144409D01*
X116853449Y-43078274D01*
X116898507Y-43039232D01*
X116907555Y-43034622D01*
X116961716Y-42995270D01*
X116961717Y-42995270D01*
X116329408Y-42362962D01*
X116392993Y-42345925D01*
X116507007Y-42280099D01*
X116600099Y-42187007D01*
X116665925Y-42072993D01*
X116682962Y-42009408D01*
X117315270Y-42641717D01*
G37*
%TD.AperFunction*%
%TA.AperFunction,Conductor*%
G36*
X115734075Y-42072993D02*
G01*
X115799901Y-42187007D01*
X115892993Y-42280099D01*
X116007007Y-42345925D01*
X116070590Y-42362962D01*
X115438282Y-42995269D01*
X115438282Y-42995270D01*
X115492452Y-43034626D01*
X115492451Y-43034626D01*
X115501495Y-43039234D01*
X115552292Y-43087208D01*
X115569087Y-43155029D01*
X115546550Y-43221164D01*
X115501499Y-43260202D01*
X115492182Y-43264949D01*
X115320213Y-43389890D01*
X115169896Y-43540207D01*
X115156689Y-43558386D01*
X115091299Y-43648386D01*
X115086968Y-43651726D01*
X115084696Y-43656703D01*
X115059599Y-43672831D01*
X115035972Y-43691051D01*
X115029298Y-43692304D01*
X115025918Y-43694477D01*
X114990983Y-43699500D01*
X114989033Y-43699500D01*
X114921994Y-43679815D01*
X114894748Y-43656038D01*
X114891964Y-43652779D01*
X114747213Y-43508028D01*
X114581614Y-43387715D01*
X114575006Y-43384348D01*
X114488917Y-43340483D01*
X114438123Y-43292511D01*
X114421328Y-43224690D01*
X114443865Y-43158555D01*
X114488917Y-43119516D01*
X114581610Y-43072287D01*
X114627107Y-43039232D01*
X114747213Y-42951971D01*
X114747215Y-42951968D01*
X114747219Y-42951966D01*
X114891966Y-42807219D01*
X114975314Y-42692499D01*
X115030643Y-42649833D01*
X115084560Y-42641884D01*
X115717037Y-42009408D01*
X115734075Y-42072993D01*
G37*
%TD.AperFunction*%
%TA.AperFunction,Conductor*%
G36*
X104322202Y-42648649D02*
G01*
X104364680Y-42657572D01*
X104406351Y-42693941D01*
X104488417Y-42806895D01*
X104633104Y-42951582D01*
X104798652Y-43071861D01*
X104891628Y-43119234D01*
X104942425Y-43167208D01*
X104959220Y-43235029D01*
X104936683Y-43301164D01*
X104891630Y-43340203D01*
X104798388Y-43387713D01*
X104632788Y-43508027D01*
X104488676Y-43652139D01*
X104427353Y-43685623D01*
X104357661Y-43680639D01*
X104301728Y-43638767D01*
X104300677Y-43637342D01*
X104230109Y-43540214D01*
X104230105Y-43540209D01*
X104079786Y-43389890D01*
X103907817Y-43264949D01*
X103898504Y-43260204D01*
X103847707Y-43212230D01*
X103830912Y-43144409D01*
X103853449Y-43078274D01*
X103898507Y-43039232D01*
X103907555Y-43034622D01*
X103961716Y-42995270D01*
X103961717Y-42995270D01*
X103329409Y-42362962D01*
X103392993Y-42345925D01*
X103507007Y-42280099D01*
X103600099Y-42187007D01*
X103665925Y-42072993D01*
X103682962Y-42009408D01*
X104322202Y-42648649D01*
G37*
%TD.AperFunction*%
%TA.AperFunction,Conductor*%
G36*
X105158361Y-39866178D02*
G01*
X105202709Y-39894679D01*
X105756349Y-40448319D01*
X105789834Y-40509642D01*
X105784850Y-40579334D01*
X105742978Y-40635267D01*
X105677514Y-40659684D01*
X105668668Y-40660000D01*
X105377683Y-40660000D01*
X105175582Y-40692009D01*
X104980968Y-40755244D01*
X104798650Y-40848140D01*
X104633108Y-40968414D01*
X104488615Y-41112907D01*
X104427292Y-41146391D01*
X104357600Y-41141407D01*
X104328054Y-41119288D01*
X104315269Y-41118282D01*
X103682962Y-41750590D01*
X103665925Y-41687007D01*
X103600099Y-41572993D01*
X103507007Y-41479901D01*
X103392993Y-41414075D01*
X103329407Y-41397036D01*
X103961716Y-40764728D01*
X103907550Y-40725375D01*
X103730151Y-40634985D01*
X103679355Y-40587010D01*
X103662560Y-40519189D01*
X103685098Y-40453054D01*
X103739813Y-40409603D01*
X103786446Y-40400500D01*
X104018097Y-40400500D01*
X104251368Y-40363553D01*
X104277765Y-40354976D01*
X104475992Y-40290568D01*
X104686433Y-40183343D01*
X104877510Y-40044517D01*
X105027350Y-39894676D01*
X105088670Y-39861194D01*
X105158361Y-39866178D01*
G37*
%TD.AperFunction*%
%TA.AperFunction,Conductor*%
G36*
X109582657Y-32369104D02*
G01*
X109602404Y-32367550D01*
X109670781Y-32381914D01*
X109712451Y-32418282D01*
X109755483Y-32477510D01*
X109922490Y-32644517D01*
X110113567Y-32783343D01*
X110212991Y-32834002D01*
X110324003Y-32890566D01*
X110324005Y-32890566D01*
X110324008Y-32890568D01*
X110444412Y-32929689D01*
X110548631Y-32963553D01*
X110701243Y-32987724D01*
X110764378Y-33017653D01*
X110801310Y-33076964D01*
X110800312Y-33146827D01*
X110780222Y-33185684D01*
X110711389Y-33275387D01*
X110596657Y-33474109D01*
X110596650Y-33474123D01*
X110508842Y-33686112D01*
X110449453Y-33907759D01*
X110449451Y-33907770D01*
X110419500Y-34135258D01*
X110419500Y-34364741D01*
X110444446Y-34554215D01*
X110449452Y-34592238D01*
X110449453Y-34592240D01*
X110508842Y-34813887D01*
X110596650Y-35025876D01*
X110596657Y-35025890D01*
X110711389Y-35224612D01*
X110769247Y-35300013D01*
X110794441Y-35365183D01*
X110780403Y-35433627D01*
X110731589Y-35483617D01*
X110670871Y-35499500D01*
X109852129Y-35499500D01*
X109852123Y-35499501D01*
X109792516Y-35505908D01*
X109657671Y-35556202D01*
X109657664Y-35556206D01*
X109542455Y-35642452D01*
X109542452Y-35642455D01*
X109456206Y-35757664D01*
X109451953Y-35765454D01*
X109448807Y-35763736D01*
X109417139Y-35806010D01*
X109351667Y-35830404D01*
X109283399Y-35815529D01*
X109269978Y-35807035D01*
X109146174Y-35717087D01*
X108935802Y-35609897D01*
X108711247Y-35536934D01*
X108711248Y-35536934D01*
X108638656Y-35525437D01*
X108575521Y-35495508D01*
X108538590Y-35436196D01*
X108539588Y-35366334D01*
X108559679Y-35327477D01*
X108638607Y-35224617D01*
X108638606Y-35224617D01*
X108638611Y-35224612D01*
X108753344Y-35025888D01*
X108841158Y-34813887D01*
X108900548Y-34592238D01*
X108930500Y-34364734D01*
X108930500Y-34135266D01*
X108900548Y-33907762D01*
X108841158Y-33686113D01*
X108753344Y-33474112D01*
X108638611Y-33275388D01*
X108559677Y-33172520D01*
X108534484Y-33107353D01*
X108548522Y-33038908D01*
X108597336Y-32988918D01*
X108638658Y-32974561D01*
X108711252Y-32963064D01*
X108935802Y-32890102D01*
X109146163Y-32782918D01*
X109146169Y-32782914D01*
X109229104Y-32722658D01*
X109229105Y-32722658D01*
X108489408Y-31982962D01*
X108552993Y-31965925D01*
X108667007Y-31900099D01*
X108760099Y-31807007D01*
X108825925Y-31692993D01*
X108842962Y-31629409D01*
X109582657Y-32369104D01*
G37*
%TD.AperFunction*%
%TA.AperFunction,Conductor*%
G36*
X119216731Y-28230185D02*
G01*
X119262486Y-28282989D01*
X119273692Y-28334500D01*
X119273692Y-35510960D01*
X120395500Y-35510960D01*
X120462539Y-35530645D01*
X120508294Y-35583449D01*
X120519500Y-35634960D01*
X120519500Y-75315500D01*
X120499815Y-75382539D01*
X120447011Y-75428294D01*
X120395500Y-75439500D01*
X98894500Y-75439500D01*
X98827461Y-75419815D01*
X98781706Y-75367011D01*
X98770500Y-75315500D01*
X98770500Y-62591219D01*
X100763692Y-62591219D01*
X101972657Y-62591219D01*
X101972657Y-53997538D01*
X100763692Y-53997538D01*
X100763692Y-62591219D01*
X98770500Y-62591219D01*
X98770500Y-39726154D01*
X99647500Y-39726154D01*
X99647500Y-44286846D01*
X99678261Y-44441489D01*
X99678264Y-44441501D01*
X99738602Y-44587172D01*
X99738609Y-44587185D01*
X99826210Y-44718288D01*
X99826213Y-44718292D01*
X101083042Y-45975120D01*
X101116527Y-46036443D01*
X101111543Y-46106135D01*
X101069671Y-46162068D01*
X101019554Y-46184418D01*
X100990176Y-46190261D01*
X100990167Y-46190264D01*
X100947502Y-46207936D01*
X100947503Y-46207937D01*
X100844493Y-46250604D01*
X100844484Y-46250609D01*
X100713382Y-46338209D01*
X100713381Y-46338211D01*
X100713380Y-46338212D01*
X100539711Y-46511881D01*
X100510816Y-46540776D01*
X100428209Y-46623382D01*
X100340609Y-46754484D01*
X100340602Y-46754497D01*
X100280264Y-46900168D01*
X100280261Y-46900180D01*
X100249500Y-47054823D01*
X100249500Y-51647176D01*
X100280261Y-51801819D01*
X100280264Y-51801831D01*
X100340602Y-51947502D01*
X100340609Y-51947515D01*
X100428210Y-52078618D01*
X100428213Y-52078622D01*
X103259881Y-54910289D01*
X103371381Y-55021789D01*
X103502491Y-55109394D01*
X103502497Y-55109396D01*
X103507862Y-55112264D01*
X103507099Y-55113691D01*
X103555405Y-55152618D01*
X103562648Y-55165219D01*
X103565185Y-55169333D01*
X103565186Y-55169334D01*
X103621980Y-55261413D01*
X103657289Y-55318657D01*
X103763181Y-55424549D01*
X103777884Y-55451476D01*
X103794477Y-55477295D01*
X103795368Y-55483495D01*
X103796666Y-55485872D01*
X103799500Y-55512230D01*
X103799500Y-55517059D01*
X103779815Y-55584098D01*
X103763181Y-55604740D01*
X103604740Y-55763181D01*
X103543417Y-55796666D01*
X103517059Y-55799500D01*
X103099998Y-55799500D01*
X103099980Y-55799501D01*
X102997203Y-55810000D01*
X102997200Y-55810001D01*
X102830668Y-55865185D01*
X102830663Y-55865187D01*
X102681342Y-55957289D01*
X102557289Y-56081342D01*
X102465187Y-56230663D01*
X102465186Y-56230666D01*
X102410001Y-56397203D01*
X102410001Y-56397204D01*
X102410000Y-56397204D01*
X102399500Y-56499983D01*
X102399500Y-57300001D01*
X102399501Y-57300019D01*
X102410000Y-57402796D01*
X102410001Y-57402799D01*
X102465185Y-57569331D01*
X102465187Y-57569336D01*
X102557289Y-57718657D01*
X102650951Y-57812319D01*
X102684436Y-57873642D01*
X102679452Y-57943334D01*
X102650951Y-57987681D01*
X102557289Y-58081342D01*
X102465187Y-58230663D01*
X102465186Y-58230666D01*
X102410001Y-58397203D01*
X102410001Y-58397204D01*
X102410000Y-58397204D01*
X102399500Y-58499983D01*
X102399500Y-59300001D01*
X102399501Y-59300019D01*
X102410000Y-59402796D01*
X102410001Y-59402799D01*
X102465185Y-59569331D01*
X102465186Y-59569334D01*
X102557288Y-59718656D01*
X102681344Y-59842712D01*
X102830666Y-59934814D01*
X102997203Y-59989999D01*
X103099991Y-60000500D01*
X103517059Y-60000499D01*
X103584098Y-60020183D01*
X103604740Y-60036818D01*
X104019707Y-60451786D01*
X104019711Y-60451789D01*
X104150814Y-60539390D01*
X104150818Y-60539392D01*
X104150821Y-60539394D01*
X104296503Y-60599738D01*
X104451153Y-60630499D01*
X104451157Y-60630500D01*
X104451158Y-60630500D01*
X106183091Y-60630500D01*
X106250130Y-60650185D01*
X106270772Y-60666819D01*
X106364898Y-60760945D01*
X106520319Y-60873865D01*
X106691491Y-60961082D01*
X106691493Y-60961083D01*
X106782845Y-60990764D01*
X106874199Y-61020447D01*
X107063945Y-61050500D01*
X107197060Y-61050500D01*
X107264099Y-61070185D01*
X107284741Y-61086819D01*
X108059211Y-61861289D01*
X108170708Y-61972786D01*
X108170712Y-61972790D01*
X108301814Y-62060390D01*
X108301827Y-62060397D01*
X108447498Y-62120735D01*
X108447503Y-62120737D01*
X108602153Y-62151499D01*
X108602156Y-62151500D01*
X108602158Y-62151500D01*
X112948863Y-62151500D01*
X112948864Y-62151499D01*
X113103516Y-62120737D01*
X113249198Y-62060394D01*
X113380308Y-61972789D01*
X114620789Y-60732308D01*
X114656328Y-60679117D01*
X114671744Y-60660332D01*
X115480962Y-59851115D01*
X118121491Y-59851115D01*
X119523194Y-59851115D01*
X119523194Y-55261413D01*
X118121491Y-55261413D01*
X118121491Y-59851115D01*
X115480962Y-59851115D01*
X115495259Y-59836818D01*
X115556582Y-59803333D01*
X115582940Y-59800499D01*
X116000002Y-59800499D01*
X116000008Y-59800499D01*
X116102797Y-59789999D01*
X116269334Y-59734814D01*
X116418656Y-59642712D01*
X116542712Y-59518656D01*
X116617603Y-59397235D01*
X116654249Y-59359233D01*
X116710289Y-59321789D01*
X117622789Y-58409289D01*
X117710394Y-58278179D01*
X117770737Y-58132497D01*
X117801500Y-57977842D01*
X117801500Y-57820158D01*
X117801500Y-52780567D01*
X117815015Y-52724272D01*
X117836456Y-52682193D01*
X117890568Y-52575992D01*
X117963553Y-52351368D01*
X117991998Y-52171773D01*
X118000500Y-52118097D01*
X118000500Y-51881902D01*
X117963553Y-51648631D01*
X117890566Y-51424003D01*
X117783342Y-51213566D01*
X117783340Y-51213563D01*
X117644517Y-51022490D01*
X117477510Y-50855483D01*
X117470650Y-50850499D01*
X117462222Y-50844375D01*
X117419556Y-50789045D01*
X117413578Y-50719431D01*
X117435840Y-50669749D01*
X117493796Y-50592331D01*
X117544091Y-50457483D01*
X117550500Y-50397873D01*
X117550499Y-48602128D01*
X117544091Y-48542517D01*
X117516191Y-48467714D01*
X117493797Y-48407671D01*
X117493793Y-48407664D01*
X117407547Y-48292455D01*
X117407544Y-48292452D01*
X117292335Y-48206206D01*
X117292328Y-48206202D01*
X117160917Y-48157189D01*
X117104983Y-48115318D01*
X117080566Y-48049853D01*
X117095418Y-47981580D01*
X117116563Y-47953332D01*
X117230104Y-47839792D01*
X117243560Y-47821272D01*
X117355048Y-47667820D01*
X117355047Y-47667820D01*
X117355051Y-47667816D01*
X117451557Y-47478412D01*
X117517246Y-47276243D01*
X117550500Y-47066287D01*
X117550500Y-46853713D01*
X117545051Y-46819312D01*
X117554005Y-46750020D01*
X117579840Y-46712236D01*
X119101789Y-45190289D01*
X119189394Y-45059179D01*
X119249737Y-44913497D01*
X119280500Y-44758842D01*
X119280500Y-44601158D01*
X119280500Y-41288791D01*
X119300185Y-41221752D01*
X119316819Y-41201110D01*
X119792212Y-40725717D01*
X119792215Y-40725714D01*
X119879820Y-40594604D01*
X119940163Y-40448922D01*
X119970926Y-40294267D01*
X119970926Y-40136582D01*
X119970926Y-38644585D01*
X119951840Y-38548632D01*
X119951840Y-38548629D01*
X119942167Y-38500000D01*
X119940164Y-38489930D01*
X119879820Y-38344248D01*
X119879818Y-38344245D01*
X119879816Y-38344241D01*
X119792215Y-38213138D01*
X119792212Y-38213134D01*
X118625717Y-37046639D01*
X118625713Y-37046636D01*
X118494610Y-36959035D01*
X118494597Y-36959028D01*
X118348926Y-36898690D01*
X118348914Y-36898687D01*
X118194270Y-36867926D01*
X118194267Y-36867926D01*
X116702269Y-36867926D01*
X116544584Y-36867926D01*
X116544581Y-36867926D01*
X116389936Y-36898687D01*
X116389924Y-36898690D01*
X116347259Y-36916362D01*
X116347260Y-36916363D01*
X116244250Y-36959030D01*
X116152767Y-37020158D01*
X116152766Y-37020158D01*
X116113141Y-37046634D01*
X116113133Y-37046640D01*
X115116594Y-38043181D01*
X115055271Y-38076666D01*
X115028913Y-38079500D01*
X112524500Y-38079500D01*
X112457461Y-38059815D01*
X112411706Y-38007011D01*
X112400500Y-37955500D01*
X112400500Y-37046634D01*
X112400499Y-36094002D01*
X112420184Y-36026964D01*
X112472987Y-35981209D01*
X112508313Y-35971064D01*
X112512238Y-35970548D01*
X112733887Y-35911158D01*
X112945888Y-35823344D01*
X113144612Y-35708611D01*
X113326661Y-35568919D01*
X113326665Y-35568914D01*
X113326670Y-35568911D01*
X113488911Y-35406670D01*
X113488914Y-35406665D01*
X113488919Y-35406661D01*
X113628611Y-35224612D01*
X113743344Y-35025888D01*
X113831158Y-34813887D01*
X113890548Y-34592238D01*
X113920500Y-34364734D01*
X113920500Y-34135266D01*
X113890548Y-33907762D01*
X113831158Y-33686113D01*
X113743344Y-33474112D01*
X113628611Y-33275388D01*
X113628608Y-33275385D01*
X113628607Y-33275382D01*
X113488918Y-33093338D01*
X113488911Y-33093330D01*
X113326670Y-32931089D01*
X113326661Y-32931081D01*
X113144617Y-32791392D01*
X112945890Y-32676657D01*
X112945876Y-32676650D01*
X112733887Y-32588842D01*
X112512238Y-32529452D01*
X112474215Y-32524446D01*
X112284741Y-32499500D01*
X112284734Y-32499500D01*
X112271905Y-32499500D01*
X112204866Y-32479815D01*
X112159111Y-32427011D01*
X112149167Y-32357853D01*
X112171586Y-32302615D01*
X112183343Y-32286433D01*
X112290568Y-32075992D01*
X112363553Y-31851368D01*
X112388637Y-31692993D01*
X112400500Y-31618097D01*
X112400500Y-31381902D01*
X112363553Y-31148631D01*
X112290566Y-30924003D01*
X112183342Y-30713566D01*
X112123277Y-30630894D01*
X112044517Y-30522490D01*
X111877510Y-30355483D01*
X111686433Y-30216657D01*
X111475996Y-30109433D01*
X111251368Y-30036446D01*
X111018097Y-29999500D01*
X111018092Y-29999500D01*
X110781908Y-29999500D01*
X110781903Y-29999500D01*
X110548631Y-30036446D01*
X110324003Y-30109433D01*
X110113566Y-30216657D01*
X110030047Y-30277338D01*
X109922490Y-30355483D01*
X109922488Y-30355485D01*
X109922487Y-30355485D01*
X109755482Y-30522490D01*
X109712451Y-30581717D01*
X109657120Y-30624382D01*
X109602405Y-30632448D01*
X109582658Y-30630893D01*
X108842962Y-31370590D01*
X108825925Y-31307007D01*
X108760099Y-31192993D01*
X108667007Y-31099901D01*
X108552993Y-31034075D01*
X108489409Y-31017037D01*
X109229105Y-30277340D01*
X109229104Y-30277338D01*
X109146174Y-30217087D01*
X108935802Y-30109897D01*
X108711247Y-30036934D01*
X108711248Y-30036934D01*
X108478052Y-30000000D01*
X108241948Y-30000000D01*
X108008752Y-30036934D01*
X107784197Y-30109897D01*
X107573830Y-30217084D01*
X107490894Y-30277340D01*
X108230591Y-31017037D01*
X108167007Y-31034075D01*
X108052993Y-31099901D01*
X107959901Y-31192993D01*
X107894075Y-31307007D01*
X107877037Y-31370591D01*
X107137340Y-30630894D01*
X107077084Y-30713830D01*
X106969897Y-30924197D01*
X106896934Y-31148752D01*
X106860000Y-31381947D01*
X106860000Y-31618052D01*
X106896934Y-31851247D01*
X106969897Y-32075802D01*
X107077087Y-32286175D01*
X107095005Y-32310837D01*
X107118485Y-32376644D01*
X107102659Y-32444697D01*
X107052553Y-32493392D01*
X107010873Y-32506661D01*
X106897496Y-32521587D01*
X106837762Y-32529452D01*
X106744076Y-32554554D01*
X106616112Y-32588842D01*
X106404123Y-32676650D01*
X106404109Y-32676657D01*
X106205382Y-32791392D01*
X106023338Y-32931081D01*
X105861081Y-33093338D01*
X105721392Y-33275382D01*
X105606657Y-33474109D01*
X105606650Y-33474123D01*
X105518842Y-33686112D01*
X105459453Y-33907759D01*
X105459451Y-33907770D01*
X105429500Y-34135258D01*
X105429500Y-34364741D01*
X105454446Y-34554215D01*
X105459452Y-34592238D01*
X105459453Y-34592240D01*
X105518842Y-34813887D01*
X105606650Y-35025876D01*
X105606657Y-35025890D01*
X105721392Y-35224617D01*
X105861081Y-35406661D01*
X105861089Y-35406670D01*
X106023330Y-35568911D01*
X106023338Y-35568918D01*
X106205382Y-35708607D01*
X106205385Y-35708608D01*
X106205388Y-35708611D01*
X106404112Y-35823344D01*
X106404117Y-35823346D01*
X106404123Y-35823349D01*
X106495480Y-35861190D01*
X106616113Y-35911158D01*
X106837762Y-35970548D01*
X107010874Y-35993339D01*
X107074769Y-36021604D01*
X107113240Y-36079929D01*
X107114071Y-36149793D01*
X107095007Y-36189160D01*
X107077086Y-36213827D01*
X106969897Y-36424197D01*
X106896934Y-36648752D01*
X106860000Y-36881947D01*
X106860000Y-37118052D01*
X106896934Y-37351247D01*
X106969897Y-37575802D01*
X107055550Y-37743906D01*
X107068446Y-37812575D01*
X107042170Y-37877316D01*
X106985063Y-37917573D01*
X106969257Y-37921818D01*
X106888170Y-37937947D01*
X106888160Y-37937950D01*
X106706092Y-38013364D01*
X106706076Y-38013373D01*
X106668954Y-38038177D01*
X106602277Y-38059054D01*
X106534897Y-38040569D01*
X106488207Y-37988589D01*
X106478448Y-37959268D01*
X106470738Y-37920504D01*
X106410394Y-37774822D01*
X106410392Y-37774819D01*
X106410390Y-37774815D01*
X106322789Y-37643712D01*
X106322786Y-37643708D01*
X105156291Y-36477213D01*
X105156287Y-36477210D01*
X105025184Y-36389609D01*
X105025171Y-36389602D01*
X104879500Y-36329264D01*
X104879488Y-36329261D01*
X104724844Y-36298500D01*
X104724841Y-36298500D01*
X103232843Y-36298500D01*
X103075158Y-36298500D01*
X103075156Y-36298500D01*
X102920509Y-36329261D01*
X102920499Y-36329264D01*
X102774828Y-36389602D01*
X102774815Y-36389609D01*
X102643713Y-36477209D01*
X102587963Y-36532960D01*
X102532212Y-36588711D01*
X102532210Y-36588713D01*
X99920270Y-39200652D01*
X99826213Y-39294708D01*
X99826210Y-39294712D01*
X99738609Y-39425815D01*
X99738602Y-39425828D01*
X99678264Y-39571499D01*
X99678261Y-39571511D01*
X99647500Y-39726154D01*
X98770500Y-39726154D01*
X98770500Y-28334500D01*
X98790185Y-28267461D01*
X98842989Y-28221706D01*
X98894500Y-28210500D01*
X119149692Y-28210500D01*
X119216731Y-28230185D01*
G37*
%TD.AperFunction*%
%TD*%
M02*
