%TF.GenerationSoftware,KiCad,Pcbnew,9.0.4*%
%TF.CreationDate,2026-01-29T23:05:15+00:00*%
%TF.ProjectId,Line following V1,4c696e65-2066-46f6-9c6c-6f77696e6720,rev?*%
%TF.SameCoordinates,Original*%
%TF.FileFunction,Legend,Top*%
%TF.FilePolarity,Positive*%
%FSLAX46Y46*%
G04 Gerber Fmt 4.6, Leading zero omitted, Abs format (unit mm)*
G04 Created by KiCad (PCBNEW 9.0.4) date 2026-01-29 23:05:15*
%MOMM*%
%LPD*%
G01*
G04 APERTURE LIST*
%ADD10C,0.150000*%
%ADD11C,0.120000*%
G04 APERTURE END LIST*
D10*
X109366666Y-51374819D02*
X109366666Y-52089104D01*
X109366666Y-52089104D02*
X109319047Y-52231961D01*
X109319047Y-52231961D02*
X109223809Y-52327200D01*
X109223809Y-52327200D02*
X109080952Y-52374819D01*
X109080952Y-52374819D02*
X108985714Y-52374819D01*
X109747619Y-51374819D02*
X110366666Y-51374819D01*
X110366666Y-51374819D02*
X110033333Y-51755771D01*
X110033333Y-51755771D02*
X110176190Y-51755771D01*
X110176190Y-51755771D02*
X110271428Y-51803390D01*
X110271428Y-51803390D02*
X110319047Y-51851009D01*
X110319047Y-51851009D02*
X110366666Y-51946247D01*
X110366666Y-51946247D02*
X110366666Y-52184342D01*
X110366666Y-52184342D02*
X110319047Y-52279580D01*
X110319047Y-52279580D02*
X110271428Y-52327200D01*
X110271428Y-52327200D02*
X110176190Y-52374819D01*
X110176190Y-52374819D02*
X109890476Y-52374819D01*
X109890476Y-52374819D02*
X109795238Y-52327200D01*
X109795238Y-52327200D02*
X109747619Y-52279580D01*
X113333333Y-55739580D02*
X113285714Y-55787200D01*
X113285714Y-55787200D02*
X113142857Y-55834819D01*
X113142857Y-55834819D02*
X113047619Y-55834819D01*
X113047619Y-55834819D02*
X112904762Y-55787200D01*
X112904762Y-55787200D02*
X112809524Y-55691961D01*
X112809524Y-55691961D02*
X112761905Y-55596723D01*
X112761905Y-55596723D02*
X112714286Y-55406247D01*
X112714286Y-55406247D02*
X112714286Y-55263390D01*
X112714286Y-55263390D02*
X112761905Y-55072914D01*
X112761905Y-55072914D02*
X112809524Y-54977676D01*
X112809524Y-54977676D02*
X112904762Y-54882438D01*
X112904762Y-54882438D02*
X113047619Y-54834819D01*
X113047619Y-54834819D02*
X113142857Y-54834819D01*
X113142857Y-54834819D02*
X113285714Y-54882438D01*
X113285714Y-54882438D02*
X113333333Y-54930057D01*
X114285714Y-55834819D02*
X113714286Y-55834819D01*
X114000000Y-55834819D02*
X114000000Y-54834819D01*
X114000000Y-54834819D02*
X113904762Y-54977676D01*
X113904762Y-54977676D02*
X113809524Y-55072914D01*
X113809524Y-55072914D02*
X113714286Y-55120533D01*
X113504819Y-32666666D02*
X113028628Y-32999999D01*
X113504819Y-33238094D02*
X112504819Y-33238094D01*
X112504819Y-33238094D02*
X112504819Y-32857142D01*
X112504819Y-32857142D02*
X112552438Y-32761904D01*
X112552438Y-32761904D02*
X112600057Y-32714285D01*
X112600057Y-32714285D02*
X112695295Y-32666666D01*
X112695295Y-32666666D02*
X112838152Y-32666666D01*
X112838152Y-32666666D02*
X112933390Y-32714285D01*
X112933390Y-32714285D02*
X112981009Y-32761904D01*
X112981009Y-32761904D02*
X113028628Y-32857142D01*
X113028628Y-32857142D02*
X113028628Y-33238094D01*
X113504819Y-31714285D02*
X113504819Y-32285713D01*
X113504819Y-31999999D02*
X112504819Y-31999999D01*
X112504819Y-31999999D02*
X112647676Y-32095237D01*
X112647676Y-32095237D02*
X112742914Y-32190475D01*
X112742914Y-32190475D02*
X112790533Y-32285713D01*
X115866666Y-51334819D02*
X115866666Y-52049104D01*
X115866666Y-52049104D02*
X115819047Y-52191961D01*
X115819047Y-52191961D02*
X115723809Y-52287200D01*
X115723809Y-52287200D02*
X115580952Y-52334819D01*
X115580952Y-52334819D02*
X115485714Y-52334819D01*
X116866666Y-52334819D02*
X116295238Y-52334819D01*
X116580952Y-52334819D02*
X116580952Y-51334819D01*
X116580952Y-51334819D02*
X116485714Y-51477676D01*
X116485714Y-51477676D02*
X116390476Y-51572914D01*
X116390476Y-51572914D02*
X116295238Y-51620533D01*
X114818095Y-65394819D02*
X114818095Y-64394819D01*
X114818095Y-64871009D02*
X115389523Y-64871009D01*
X115389523Y-65394819D02*
X115389523Y-64394819D01*
X115818095Y-64490057D02*
X115865714Y-64442438D01*
X115865714Y-64442438D02*
X115960952Y-64394819D01*
X115960952Y-64394819D02*
X116199047Y-64394819D01*
X116199047Y-64394819D02*
X116294285Y-64442438D01*
X116294285Y-64442438D02*
X116341904Y-64490057D01*
X116341904Y-64490057D02*
X116389523Y-64585295D01*
X116389523Y-64585295D02*
X116389523Y-64680533D01*
X116389523Y-64680533D02*
X116341904Y-64823390D01*
X116341904Y-64823390D02*
X115770476Y-65394819D01*
X115770476Y-65394819D02*
X116389523Y-65394819D01*
X113833333Y-39104819D02*
X113500000Y-38628628D01*
X113261905Y-39104819D02*
X113261905Y-38104819D01*
X113261905Y-38104819D02*
X113642857Y-38104819D01*
X113642857Y-38104819D02*
X113738095Y-38152438D01*
X113738095Y-38152438D02*
X113785714Y-38200057D01*
X113785714Y-38200057D02*
X113833333Y-38295295D01*
X113833333Y-38295295D02*
X113833333Y-38438152D01*
X113833333Y-38438152D02*
X113785714Y-38533390D01*
X113785714Y-38533390D02*
X113738095Y-38581009D01*
X113738095Y-38581009D02*
X113642857Y-38628628D01*
X113642857Y-38628628D02*
X113261905Y-38628628D01*
X114214286Y-38200057D02*
X114261905Y-38152438D01*
X114261905Y-38152438D02*
X114357143Y-38104819D01*
X114357143Y-38104819D02*
X114595238Y-38104819D01*
X114595238Y-38104819D02*
X114690476Y-38152438D01*
X114690476Y-38152438D02*
X114738095Y-38200057D01*
X114738095Y-38200057D02*
X114785714Y-38295295D01*
X114785714Y-38295295D02*
X114785714Y-38390533D01*
X114785714Y-38390533D02*
X114738095Y-38533390D01*
X114738095Y-38533390D02*
X114166667Y-39104819D01*
X114166667Y-39104819D02*
X114785714Y-39104819D01*
X102866666Y-51334819D02*
X102866666Y-52049104D01*
X102866666Y-52049104D02*
X102819047Y-52191961D01*
X102819047Y-52191961D02*
X102723809Y-52287200D01*
X102723809Y-52287200D02*
X102580952Y-52334819D01*
X102580952Y-52334819D02*
X102485714Y-52334819D01*
X103295238Y-51430057D02*
X103342857Y-51382438D01*
X103342857Y-51382438D02*
X103438095Y-51334819D01*
X103438095Y-51334819D02*
X103676190Y-51334819D01*
X103676190Y-51334819D02*
X103771428Y-51382438D01*
X103771428Y-51382438D02*
X103819047Y-51430057D01*
X103819047Y-51430057D02*
X103866666Y-51525295D01*
X103866666Y-51525295D02*
X103866666Y-51620533D01*
X103866666Y-51620533D02*
X103819047Y-51763390D01*
X103819047Y-51763390D02*
X103247619Y-52334819D01*
X103247619Y-52334819D02*
X103866666Y-52334819D01*
X102948095Y-65394819D02*
X102948095Y-64394819D01*
X102948095Y-64871009D02*
X103519523Y-64871009D01*
X103519523Y-65394819D02*
X103519523Y-64394819D01*
X104519523Y-65394819D02*
X103948095Y-65394819D01*
X104233809Y-65394819D02*
X104233809Y-64394819D01*
X104233809Y-64394819D02*
X104138571Y-64537676D01*
X104138571Y-64537676D02*
X104043333Y-64632914D01*
X104043333Y-64632914D02*
X103948095Y-64680533D01*
X109104761Y-62554819D02*
X108771428Y-62078628D01*
X108533333Y-62554819D02*
X108533333Y-61554819D01*
X108533333Y-61554819D02*
X108914285Y-61554819D01*
X108914285Y-61554819D02*
X109009523Y-61602438D01*
X109009523Y-61602438D02*
X109057142Y-61650057D01*
X109057142Y-61650057D02*
X109104761Y-61745295D01*
X109104761Y-61745295D02*
X109104761Y-61888152D01*
X109104761Y-61888152D02*
X109057142Y-61983390D01*
X109057142Y-61983390D02*
X109009523Y-62031009D01*
X109009523Y-62031009D02*
X108914285Y-62078628D01*
X108914285Y-62078628D02*
X108533333Y-62078628D01*
X109390476Y-61554819D02*
X109723809Y-62554819D01*
X109723809Y-62554819D02*
X110057142Y-61554819D01*
X110914285Y-62554819D02*
X110342857Y-62554819D01*
X110628571Y-62554819D02*
X110628571Y-61554819D01*
X110628571Y-61554819D02*
X110533333Y-61697676D01*
X110533333Y-61697676D02*
X110438095Y-61792914D01*
X110438095Y-61792914D02*
X110342857Y-61840533D01*
D11*
%TO.C,J3*%
X108320000Y-52920000D02*
X109700000Y-52920000D01*
X108320000Y-54300000D02*
X108320000Y-52920000D01*
X108320000Y-55570000D02*
X108320000Y-55680000D01*
X108320000Y-55570000D02*
X111080000Y-55570000D01*
X108320000Y-55680000D02*
X111080000Y-55680000D01*
X111080000Y-55570000D02*
X111080000Y-55680000D01*
%TO.C,C1*%
X113761252Y-52965000D02*
X113238748Y-52965000D01*
X113761252Y-54435000D02*
X113238748Y-54435000D01*
%TO.C,R1*%
X113965000Y-32727064D02*
X113965000Y-32272936D01*
X115435000Y-32727064D02*
X115435000Y-32272936D01*
%TO.C,J1*%
X114820000Y-48230000D02*
X114820000Y-40500000D01*
X117580000Y-40500000D02*
X114820000Y-40500000D01*
X117580000Y-48230000D02*
X114820000Y-48230000D01*
X117580000Y-48230000D02*
X117580000Y-40500000D01*
X117580000Y-49500000D02*
X117580000Y-50880000D01*
X117580000Y-50880000D02*
X116200000Y-50880000D01*
%TO.C,R2*%
X114227064Y-36265000D02*
X113772936Y-36265000D01*
X114227064Y-37735000D02*
X113772936Y-37735000D01*
%TO.C,J2*%
X101820000Y-48230000D02*
X101820000Y-40500000D01*
X104580000Y-40500000D02*
X101820000Y-40500000D01*
X104580000Y-48230000D02*
X101820000Y-48230000D01*
X104580000Y-48230000D02*
X104580000Y-40500000D01*
X104580000Y-49500000D02*
X104580000Y-50880000D01*
X104580000Y-50880000D02*
X103200000Y-50880000D01*
%TO.C,RV1*%
X106235000Y-56240000D02*
X113165000Y-56240000D01*
X106235000Y-59613000D02*
X106235000Y-56240000D01*
X106235000Y-60960000D02*
X106235000Y-60047000D01*
X113165000Y-56240000D02*
X113165000Y-59613000D01*
X113165000Y-60047000D02*
X113165000Y-60960000D01*
X113165000Y-60960000D02*
X106235000Y-60960000D01*
%TD*%
M02*
