M48
; DRILL file {KiCad 9.0.4} date 2026-02-19T09:50:17+0000
; FORMAT={-:-/ absolute / metric / decimal}
; #@! TF.CreationDate,2026-02-19T09:50:17+00:00
; #@! TF.GenerationSoftware,Kicad,Pcbnew,9.0.4
; #@! TF.FileFunction,Plated,1,2,PTH
FMAT,2
METRIC
; #@! TA.AperFunction,Plated,PTH,ComponentDrill
T1C0.800
; #@! TA.AperFunction,Plated,PTH,ViaDrill
T2C1.000
; #@! TA.AperFunction,Plated,PTH,ComponentDrill
T3C1.000
; #@! TA.AperFunction,Plated,PTH,ComponentDrill
T4C1.100
; #@! TA.AperFunction,Plated,PTH,ComponentDrill
T5C4.300
%
G90
G05
T1
X171.4Y-52.87
X171.4Y-60.49
X173.9Y-60.49
X173.9Y-68.11
X176.4Y-55.37
X176.4Y-62.99
X178.9Y-62.99
X178.9Y-70.61
X181.69Y-69.19
X181.69Y-76.81
X184.23Y-69.19
X184.23Y-76.81
X186.77Y-69.19
X186.77Y-76.81
X189.31Y-69.19
X189.31Y-76.81
X212.98Y-69.05
X212.98Y-76.67
X215.52Y-69.05
X215.52Y-76.67
X218.06Y-69.05
X218.06Y-76.67
X220.6Y-69.05
X220.6Y-76.67
X223.4Y-62.95
X223.4Y-70.57
X225.9Y-55.33
X225.9Y-62.95
X228.4Y-60.45
X228.4Y-68.07
X230.9Y-52.83
X230.9Y-60.45
T2
X177.25Y-47.85
X186.5Y-81.6
X190.725Y-79.225
X191.8Y-67.908
X193.494Y-79.617
X194.213Y-69.008
X195.992Y-79.522
X201.0Y-71.5
X201.05Y-48.6
X201.268Y-77.859
X204.5Y-85.75
X205.15Y-79.1
X206.2Y-71.7
X207.852Y-78.809
X210.35Y-78.7
X212.95Y-74.01
X215.702Y-82.098
X220.45Y-72.1
X221.35Y-82.35
X223.6Y-46.9
X225.45Y-48.7
X232.8Y-72.15
T3
X167.45Y-60.46
X167.45Y-63.0
X189.31Y-81.55
X191.85Y-81.55
X192.222Y-65.507
X193.492Y-60.427
X194.39Y-81.55
X194.762Y-65.507
X195.98Y-74.7
X196.032Y-60.427
X196.93Y-81.55
X197.302Y-65.507
X198.52Y-74.7
X198.572Y-60.427
X199.843Y-65.507
X201.06Y-74.7
X201.112Y-60.427
X202.382Y-65.507
X203.6Y-74.7
X203.653Y-60.427
X204.922Y-65.507
X205.36Y-81.4
X206.14Y-74.7
X206.192Y-60.427
X207.462Y-65.507
X207.9Y-81.4
X208.732Y-60.427
X210.002Y-65.507
X210.44Y-81.4
X212.98Y-81.4
X234.0Y-60.435
X234.0Y-62.975
T4
X189.29Y-87.35
X196.91Y-87.35
X205.38Y-87.35
X213.0Y-87.35
T5
X164.95Y-85.75
X165.0Y-42.0
X233.95Y-85.75
X234.0Y-42.0
M30
