%TF.GenerationSoftware,KiCad,Pcbnew,9.0.4*%
%TF.CreationDate,2026-02-10T12:32:23+00:00*%
%TF.ProjectId,Breakout STM-LSM6DSOQTR V1,42726561-6b6f-4757-9420-53544d2d4c53,rev?*%
%TF.SameCoordinates,Original*%
%TF.FileFunction,Copper,L2,Bot*%
%TF.FilePolarity,Positive*%
%FSLAX46Y46*%
G04 Gerber Fmt 4.6, Leading zero omitted, Abs format (unit mm)*
G04 Created by KiCad (PCBNEW 9.0.4) date 2026-02-10 12:32:23*
%MOMM*%
%LPD*%
G01*
G04 APERTURE LIST*
%ADD10C,0.200000*%
%TA.AperFunction,ComponentPad*%
%ADD11R,1.700000X1.700000*%
%TD*%
%TA.AperFunction,ComponentPad*%
%ADD12C,1.700000*%
%TD*%
%TA.AperFunction,ViaPad*%
%ADD13C,1.800000*%
%TD*%
G04 APERTURE END LIST*
D10*
G36*
X45266972Y-38474957D02*
G01*
X44830170Y-38474957D01*
X45048571Y-37819755D01*
X45266972Y-38474957D01*
G37*
G36*
X48958095Y-39270195D02*
G01*
X41210772Y-39270195D01*
X41210772Y-38011213D01*
X41377439Y-38011213D01*
X41379064Y-38017010D01*
X41379064Y-38023037D01*
X41384287Y-38035646D01*
X41387969Y-38048783D01*
X41392987Y-38056651D01*
X41393996Y-38059085D01*
X41395499Y-38060588D01*
X41398511Y-38065310D01*
X42057111Y-38903528D01*
X41477143Y-38903528D01*
X41457634Y-38905449D01*
X41421586Y-38920381D01*
X41393996Y-38947971D01*
X41379064Y-38984019D01*
X41379064Y-39023037D01*
X41393996Y-39059085D01*
X41421586Y-39086675D01*
X41457634Y-39101607D01*
X41477143Y-39103528D01*
X42262857Y-39103528D01*
X42268432Y-39102978D01*
X42270541Y-39103232D01*
X42273074Y-39102521D01*
X42282366Y-39101607D01*
X42294975Y-39096383D01*
X42308112Y-39092702D01*
X42312848Y-39088980D01*
X42318414Y-39086675D01*
X42328062Y-39077026D01*
X42338792Y-39068596D01*
X42341743Y-39063345D01*
X42346004Y-39059085D01*
X42351228Y-39046472D01*
X42357912Y-39034583D01*
X42358629Y-39028605D01*
X42360936Y-39023037D01*
X42360936Y-39009384D01*
X42362561Y-38995843D01*
X42360936Y-38990045D01*
X42360936Y-38984019D01*
X42355712Y-38971409D01*
X42352031Y-38958273D01*
X42347012Y-38950404D01*
X42346004Y-38947971D01*
X42344501Y-38946468D01*
X42341489Y-38941746D01*
X41682889Y-38103528D01*
X42262857Y-38103528D01*
X42282366Y-38101607D01*
X42318414Y-38086675D01*
X42346004Y-38059085D01*
X42360936Y-38023037D01*
X42360936Y-38003528D01*
X42734286Y-38003528D01*
X42734286Y-39003528D01*
X42736207Y-39023037D01*
X42751139Y-39059085D01*
X42778729Y-39086675D01*
X42814777Y-39101607D01*
X42853795Y-39101607D01*
X42889843Y-39086675D01*
X42917433Y-39059085D01*
X42932365Y-39023037D01*
X42934286Y-39003528D01*
X42934286Y-38011213D01*
X43306011Y-38011213D01*
X43307636Y-38017010D01*
X43307636Y-38023037D01*
X43312859Y-38035646D01*
X43316541Y-38048783D01*
X43321559Y-38056651D01*
X43322568Y-38059085D01*
X43324071Y-38060588D01*
X43327083Y-38065310D01*
X43985683Y-38903528D01*
X43405715Y-38903528D01*
X43386206Y-38905449D01*
X43350158Y-38920381D01*
X43322568Y-38947971D01*
X43307636Y-38984019D01*
X43307636Y-39023037D01*
X43322568Y-39059085D01*
X43350158Y-39086675D01*
X43386206Y-39101607D01*
X43405715Y-39103528D01*
X44191429Y-39103528D01*
X44197004Y-39102978D01*
X44199113Y-39103232D01*
X44201646Y-39102521D01*
X44210938Y-39101607D01*
X44223547Y-39096383D01*
X44236684Y-39092702D01*
X44241420Y-39088980D01*
X44246986Y-39086675D01*
X44256634Y-39077026D01*
X44267364Y-39068596D01*
X44270315Y-39063345D01*
X44274576Y-39059085D01*
X44279800Y-39046472D01*
X44286484Y-39034583D01*
X44287201Y-39028605D01*
X44289508Y-39023037D01*
X44289508Y-39009384D01*
X44291133Y-38995843D01*
X44289782Y-38991021D01*
X44449356Y-38991021D01*
X44452122Y-39029941D01*
X44469572Y-39064840D01*
X44499048Y-39090405D01*
X44536064Y-39102743D01*
X44574984Y-39099977D01*
X44609883Y-39082527D01*
X44635448Y-39053051D01*
X44643439Y-39035151D01*
X44763504Y-38674957D01*
X45333638Y-38674957D01*
X45453703Y-39035151D01*
X45461694Y-39053051D01*
X45487260Y-39082528D01*
X45522158Y-39099977D01*
X45561078Y-39102743D01*
X45598094Y-39090405D01*
X45627570Y-39064840D01*
X45645020Y-39029941D01*
X45647786Y-38991021D01*
X45643439Y-38971905D01*
X45623668Y-38912591D01*
X47021921Y-38912591D01*
X47021921Y-38951609D01*
X47024781Y-38958513D01*
X47036853Y-38987658D01*
X47049290Y-39002811D01*
X47120719Y-39074239D01*
X47135872Y-39086676D01*
X47161362Y-39097233D01*
X47171920Y-39101607D01*
X47171921Y-39101607D01*
X47210938Y-39101607D01*
X47232436Y-39092702D01*
X47246987Y-39086675D01*
X47246991Y-39086670D01*
X47262140Y-39074239D01*
X47333567Y-39002811D01*
X47346004Y-38987658D01*
X47357507Y-38959886D01*
X47360935Y-38951610D01*
X47360936Y-38912592D01*
X47346005Y-38876543D01*
X47333568Y-38861390D01*
X47262140Y-38789961D01*
X47246987Y-38777524D01*
X47232055Y-38771339D01*
X47210938Y-38762592D01*
X47171920Y-38762592D01*
X47161362Y-38766965D01*
X47135872Y-38777523D01*
X47135866Y-38777528D01*
X47120718Y-38789960D01*
X47049289Y-38861389D01*
X47036857Y-38876537D01*
X47036852Y-38876543D01*
X47026294Y-38902033D01*
X47021921Y-38912591D01*
X45623668Y-38912591D01*
X45511123Y-38574957D01*
X47734285Y-38574957D01*
X47734285Y-38717814D01*
X47736206Y-38737323D01*
X47737581Y-38740643D01*
X47737836Y-38744227D01*
X47744842Y-38762536D01*
X47816271Y-38905392D01*
X47821557Y-38913790D01*
X47822567Y-38916228D01*
X47824818Y-38918971D01*
X47826714Y-38921983D01*
X47828711Y-38923715D01*
X47835003Y-38931382D01*
X47906432Y-39002811D01*
X47914102Y-39009105D01*
X47915832Y-39011100D01*
X47918839Y-39012993D01*
X47921586Y-39015247D01*
X47924025Y-39016257D01*
X47932422Y-39021543D01*
X48075279Y-39092971D01*
X48093588Y-39099977D01*
X48097170Y-39100231D01*
X48100491Y-39101607D01*
X48120000Y-39103528D01*
X48477143Y-39103528D01*
X48487016Y-39102555D01*
X48489650Y-39102743D01*
X48493113Y-39101955D01*
X48496652Y-39101607D01*
X48499094Y-39100595D01*
X48508766Y-39098396D01*
X48723051Y-39026968D01*
X48740951Y-39018977D01*
X48770427Y-38993412D01*
X48787877Y-38958513D01*
X48790643Y-38919593D01*
X48778305Y-38882577D01*
X48752740Y-38853101D01*
X48717841Y-38835651D01*
X48678921Y-38832885D01*
X48659805Y-38837232D01*
X48460916Y-38903528D01*
X48143607Y-38903528D01*
X48036379Y-38849914D01*
X47987899Y-38801434D01*
X47934285Y-38694205D01*
X47934285Y-38598565D01*
X47987899Y-38491336D01*
X48036379Y-38442856D01*
X48154905Y-38383592D01*
X48429967Y-38314828D01*
X48431404Y-38314314D01*
X48432127Y-38314263D01*
X48440268Y-38311148D01*
X48448428Y-38308233D01*
X48449007Y-38307803D01*
X48450436Y-38307257D01*
X48593292Y-38235828D01*
X48601686Y-38230544D01*
X48604128Y-38229533D01*
X48606875Y-38227278D01*
X48609883Y-38225385D01*
X48611614Y-38223388D01*
X48619281Y-38217096D01*
X48690710Y-38145668D01*
X48697005Y-38137998D01*
X48699000Y-38136268D01*
X48700891Y-38133262D01*
X48703147Y-38130515D01*
X48704158Y-38128073D01*
X48709443Y-38119678D01*
X48780871Y-37976821D01*
X48787877Y-37958512D01*
X48788131Y-37954929D01*
X48789507Y-37951609D01*
X48791428Y-37932100D01*
X48791428Y-37789242D01*
X48789507Y-37769733D01*
X48788131Y-37766412D01*
X48787877Y-37762830D01*
X48780871Y-37744521D01*
X48709443Y-37601664D01*
X48704158Y-37593268D01*
X48703147Y-37590827D01*
X48700891Y-37588079D01*
X48699000Y-37585074D01*
X48697005Y-37583343D01*
X48690710Y-37575674D01*
X48619281Y-37504246D01*
X48611614Y-37497953D01*
X48609883Y-37495957D01*
X48606875Y-37494063D01*
X48604128Y-37491809D01*
X48601686Y-37490797D01*
X48593292Y-37485514D01*
X48450436Y-37414085D01*
X48432127Y-37407079D01*
X48428543Y-37406824D01*
X48425223Y-37405449D01*
X48405714Y-37403528D01*
X48048571Y-37403528D01*
X48038697Y-37404500D01*
X48036063Y-37404313D01*
X48032599Y-37405100D01*
X48029062Y-37405449D01*
X48026620Y-37406460D01*
X48016948Y-37408660D01*
X47802662Y-37480089D01*
X47784762Y-37488080D01*
X47755286Y-37513646D01*
X47737836Y-37548545D01*
X47735070Y-37587465D01*
X47747408Y-37624480D01*
X47772974Y-37653956D01*
X47807873Y-37671406D01*
X47846793Y-37674172D01*
X47865908Y-37669825D01*
X48064798Y-37603528D01*
X48382106Y-37603528D01*
X48489337Y-37657144D01*
X48537814Y-37705620D01*
X48591428Y-37812848D01*
X48591428Y-37908493D01*
X48537814Y-38015721D01*
X48489337Y-38064197D01*
X48370807Y-38123463D01*
X48095747Y-38192228D01*
X48094309Y-38192741D01*
X48093587Y-38192793D01*
X48085456Y-38195904D01*
X48077286Y-38198823D01*
X48076706Y-38199252D01*
X48075278Y-38199799D01*
X47932421Y-38271228D01*
X47924022Y-38276514D01*
X47921586Y-38277524D01*
X47918842Y-38279775D01*
X47915831Y-38281671D01*
X47914098Y-38283668D01*
X47906432Y-38289960D01*
X47835003Y-38361389D01*
X47828711Y-38369055D01*
X47826714Y-38370788D01*
X47824818Y-38373799D01*
X47822567Y-38376543D01*
X47821557Y-38378980D01*
X47816271Y-38387379D01*
X47744842Y-38530235D01*
X47737836Y-38548544D01*
X47737581Y-38552127D01*
X47736206Y-38555448D01*
X47734285Y-38574957D01*
X45511123Y-38574957D01*
X45143439Y-37471905D01*
X45135448Y-37454005D01*
X45130764Y-37448605D01*
X45127570Y-37442216D01*
X45118098Y-37434000D01*
X45109883Y-37424529D01*
X45103493Y-37421334D01*
X45098094Y-37416651D01*
X45086196Y-37412685D01*
X45074984Y-37407079D01*
X45067856Y-37406572D01*
X45061078Y-37404313D01*
X45048571Y-37405201D01*
X45036064Y-37404313D01*
X45029285Y-37406572D01*
X45022158Y-37407079D01*
X45010944Y-37412685D01*
X44999048Y-37416651D01*
X44993649Y-37421333D01*
X44987260Y-37424528D01*
X44979044Y-37434000D01*
X44969572Y-37442216D01*
X44966377Y-37448605D01*
X44961694Y-37454005D01*
X44953703Y-37471905D01*
X44453703Y-38971905D01*
X44449356Y-38991021D01*
X44289782Y-38991021D01*
X44289508Y-38990045D01*
X44289508Y-38984019D01*
X44284284Y-38971409D01*
X44280603Y-38958273D01*
X44275584Y-38950404D01*
X44274576Y-38947971D01*
X44273073Y-38946468D01*
X44270061Y-38941746D01*
X43611461Y-38103528D01*
X44191429Y-38103528D01*
X44210938Y-38101607D01*
X44246986Y-38086675D01*
X44274576Y-38059085D01*
X44289508Y-38023037D01*
X44289508Y-37984019D01*
X44274576Y-37947971D01*
X44246986Y-37920381D01*
X44210938Y-37905449D01*
X44191429Y-37903528D01*
X43405715Y-37903528D01*
X43400138Y-37904077D01*
X43398030Y-37903824D01*
X43395495Y-37904534D01*
X43386206Y-37905449D01*
X43373596Y-37910672D01*
X43360460Y-37914354D01*
X43355723Y-37918075D01*
X43350158Y-37920381D01*
X43340511Y-37930027D01*
X43329779Y-37938460D01*
X43326826Y-37943712D01*
X43322568Y-37947971D01*
X43317345Y-37960578D01*
X43310660Y-37972472D01*
X43309942Y-37978450D01*
X43307636Y-37984019D01*
X43307636Y-37997671D01*
X43306011Y-38011213D01*
X42934286Y-38011213D01*
X42934286Y-38003528D01*
X42932365Y-37984019D01*
X42917433Y-37947971D01*
X42889843Y-37920381D01*
X42853795Y-37905449D01*
X42814777Y-37905449D01*
X42778729Y-37920381D01*
X42751139Y-37947971D01*
X42736207Y-37984019D01*
X42734286Y-38003528D01*
X42360936Y-38003528D01*
X42360936Y-37984019D01*
X42346004Y-37947971D01*
X42318414Y-37920381D01*
X42282366Y-37905449D01*
X42262857Y-37903528D01*
X41477143Y-37903528D01*
X41471566Y-37904077D01*
X41469458Y-37903824D01*
X41466923Y-37904534D01*
X41457634Y-37905449D01*
X41445024Y-37910672D01*
X41431888Y-37914354D01*
X41427151Y-37918075D01*
X41421586Y-37920381D01*
X41411939Y-37930027D01*
X41401207Y-37938460D01*
X41398254Y-37943712D01*
X41393996Y-37947971D01*
X41388773Y-37960578D01*
X41382088Y-37972472D01*
X41381370Y-37978450D01*
X41379064Y-37984019D01*
X41379064Y-37997671D01*
X41377439Y-38011213D01*
X41210772Y-38011213D01*
X41210772Y-37555448D01*
X42664778Y-37555448D01*
X42664778Y-37594466D01*
X42666406Y-37598396D01*
X42679710Y-37630515D01*
X42692147Y-37645668D01*
X42763576Y-37717096D01*
X42778729Y-37729533D01*
X42804219Y-37740090D01*
X42814777Y-37744464D01*
X42814778Y-37744464D01*
X42853795Y-37744464D01*
X42879817Y-37733685D01*
X42889844Y-37729532D01*
X42889848Y-37729527D01*
X42904997Y-37717096D01*
X42976424Y-37645668D01*
X42988861Y-37630515D01*
X43000811Y-37601664D01*
X43003792Y-37594467D01*
X43003793Y-37555449D01*
X42988862Y-37519400D01*
X42976425Y-37504247D01*
X42904997Y-37432818D01*
X42889844Y-37420381D01*
X42874644Y-37414085D01*
X42853795Y-37405449D01*
X42814777Y-37405449D01*
X42807025Y-37408660D01*
X42778729Y-37420380D01*
X42778723Y-37420385D01*
X42763575Y-37432817D01*
X42692146Y-37504246D01*
X42679714Y-37519394D01*
X42679709Y-37519400D01*
X42669151Y-37544890D01*
X42664778Y-37555448D01*
X41210772Y-37555448D01*
X41210772Y-37236861D01*
X48958095Y-37236861D01*
X48958095Y-39270195D01*
G37*
G36*
X43002194Y-35324602D02*
G01*
X43050671Y-35373078D01*
X43104285Y-35480306D01*
X43104285Y-35861665D01*
X43050671Y-35968892D01*
X43002191Y-36017372D01*
X42894964Y-36070986D01*
X42727892Y-36070986D01*
X42620663Y-36017372D01*
X42572187Y-35968895D01*
X42518571Y-35861663D01*
X42518571Y-35480308D01*
X42572186Y-35373078D01*
X42620662Y-35324601D01*
X42727892Y-35270986D01*
X42894963Y-35270986D01*
X43002194Y-35324602D01*
G37*
G36*
X46915464Y-35316951D02*
G01*
X46961428Y-35408878D01*
X46961428Y-35549005D01*
X46447143Y-35446148D01*
X46447143Y-35408878D01*
X46493106Y-35316950D01*
X46585035Y-35270986D01*
X46823535Y-35270986D01*
X46915464Y-35316951D01*
G37*
G36*
X47430762Y-32981112D02*
G01*
X47479242Y-33029592D01*
X47532856Y-33136819D01*
X47532856Y-33446749D01*
X47479242Y-33553976D01*
X47430762Y-33602456D01*
X47323535Y-33656070D01*
X47085035Y-33656070D01*
X46977807Y-33602456D01*
X46929327Y-33553976D01*
X46875713Y-33446747D01*
X46875713Y-33136821D01*
X46929327Y-33029592D01*
X46977807Y-32981112D01*
X47085035Y-32927499D01*
X47323535Y-32927499D01*
X47430762Y-32981112D01*
G37*
G36*
X46065543Y-33227499D02*
G01*
X45628741Y-33227499D01*
X45847142Y-32572297D01*
X46065543Y-33227499D01*
G37*
G36*
X48756666Y-36437653D02*
G01*
X41082396Y-36437653D01*
X41082396Y-35151477D01*
X41249063Y-35151477D01*
X41249063Y-35190495D01*
X41263995Y-35226543D01*
X41291585Y-35254133D01*
X41327633Y-35269065D01*
X41347142Y-35270986D01*
X41466392Y-35270986D01*
X41573620Y-35324600D01*
X41622098Y-35373077D01*
X41675714Y-35480307D01*
X41675714Y-36170986D01*
X41677635Y-36190495D01*
X41692567Y-36226543D01*
X41720157Y-36254133D01*
X41756205Y-36269065D01*
X41795223Y-36269065D01*
X41831271Y-36254133D01*
X41858861Y-36226543D01*
X41873793Y-36190495D01*
X41875714Y-36170986D01*
X41875714Y-35456700D01*
X42318571Y-35456700D01*
X42318571Y-35885272D01*
X42320492Y-35904781D01*
X42321867Y-35908101D01*
X42322122Y-35911685D01*
X42329128Y-35929994D01*
X42400557Y-36072850D01*
X42405840Y-36081244D01*
X42406852Y-36083686D01*
X42409106Y-36086433D01*
X42411000Y-36089441D01*
X42412996Y-36091172D01*
X42419289Y-36098839D01*
X42490717Y-36170268D01*
X42498386Y-36176563D01*
X42500117Y-36178558D01*
X42503122Y-36180449D01*
X42505870Y-36182705D01*
X42508311Y-36183716D01*
X42516707Y-36189001D01*
X42659564Y-36260429D01*
X42677873Y-36267435D01*
X42681455Y-36267689D01*
X42684776Y-36269065D01*
X42704285Y-36270986D01*
X42918571Y-36270986D01*
X42938080Y-36269065D01*
X42941400Y-36267689D01*
X42944984Y-36267435D01*
X42963292Y-36260429D01*
X43106149Y-36189001D01*
X43114547Y-36183714D01*
X43116985Y-36182705D01*
X43119728Y-36180453D01*
X43122740Y-36178558D01*
X43124472Y-36176560D01*
X43132139Y-36170269D01*
X43203568Y-36098840D01*
X43209862Y-36091169D01*
X43211857Y-36089440D01*
X43213750Y-36086432D01*
X43216004Y-36083686D01*
X43217014Y-36081246D01*
X43222300Y-36072850D01*
X43293728Y-35929993D01*
X43300734Y-35911684D01*
X43300988Y-35908101D01*
X43302364Y-35904781D01*
X43304285Y-35885272D01*
X43675714Y-35885272D01*
X43675714Y-35956700D01*
X43677635Y-35976209D01*
X43679010Y-35979529D01*
X43679265Y-35983113D01*
X43686271Y-36001421D01*
X43757700Y-36144279D01*
X43759754Y-36147542D01*
X43760267Y-36149081D01*
X43761928Y-36150996D01*
X43768143Y-36160870D01*
X43777618Y-36169087D01*
X43785832Y-36178558D01*
X43795703Y-36184771D01*
X43797620Y-36186434D01*
X43799158Y-36186947D01*
X43802422Y-36189001D01*
X43945279Y-36260429D01*
X43963588Y-36267435D01*
X43967170Y-36267689D01*
X43970491Y-36269065D01*
X43990000Y-36270986D01*
X44275714Y-36270986D01*
X44295223Y-36269065D01*
X44298543Y-36267689D01*
X44302127Y-36267435D01*
X44320435Y-36260429D01*
X44463292Y-36189001D01*
X44479883Y-36178558D01*
X44505447Y-36149081D01*
X44517786Y-36112065D01*
X44515021Y-36073145D01*
X44497571Y-36038246D01*
X44468095Y-36012682D01*
X44431079Y-36000343D01*
X44392159Y-36003109D01*
X44373850Y-36010115D01*
X44252107Y-36070986D01*
X44013607Y-36070986D01*
X43921678Y-36025022D01*
X43875714Y-35933093D01*
X43875714Y-35908880D01*
X43921679Y-35816950D01*
X44013607Y-35770986D01*
X44204286Y-35770986D01*
X44223795Y-35769065D01*
X44227115Y-35767689D01*
X44230699Y-35767435D01*
X44249007Y-35760429D01*
X44391864Y-35689001D01*
X44395126Y-35686947D01*
X44396667Y-35686434D01*
X44398584Y-35684770D01*
X44408455Y-35678558D01*
X44416671Y-35669083D01*
X44426143Y-35660869D01*
X44432356Y-35650997D01*
X44434019Y-35649081D01*
X44434532Y-35647542D01*
X44436586Y-35644279D01*
X44508014Y-35501421D01*
X44515021Y-35483112D01*
X44515275Y-35479526D01*
X44516650Y-35476209D01*
X44518571Y-35456700D01*
X44518571Y-35385272D01*
X44961429Y-35385272D01*
X44961429Y-36170986D01*
X44963350Y-36190495D01*
X44978282Y-36226543D01*
X45005872Y-36254133D01*
X45041920Y-36269065D01*
X45080938Y-36269065D01*
X45116986Y-36254133D01*
X45144576Y-36226543D01*
X45159508Y-36190495D01*
X45161429Y-36170986D01*
X45161429Y-35408878D01*
X45207392Y-35316950D01*
X45299321Y-35270986D01*
X45466392Y-35270986D01*
X45573623Y-35324602D01*
X45604286Y-35355264D01*
X45604286Y-36170986D01*
X45606207Y-36190495D01*
X45621139Y-36226543D01*
X45648729Y-36254133D01*
X45684777Y-36269065D01*
X45723795Y-36269065D01*
X45759843Y-36254133D01*
X45787433Y-36226543D01*
X45802365Y-36190495D01*
X45804286Y-36170986D01*
X45804286Y-35385272D01*
X46247143Y-35385272D01*
X46247143Y-35528129D01*
X46249064Y-35547638D01*
X46252813Y-35556690D01*
X46254715Y-35566301D01*
X46260206Y-35574537D01*
X46263996Y-35583686D01*
X46270922Y-35590612D01*
X46276358Y-35598766D01*
X46284586Y-35604276D01*
X46291586Y-35611276D01*
X46300637Y-35615025D01*
X46308778Y-35620477D01*
X46327531Y-35626187D01*
X46327632Y-35626207D01*
X46327634Y-35626208D01*
X46327636Y-35626208D01*
X46961428Y-35752966D01*
X46961428Y-35933093D01*
X46915464Y-36025022D01*
X46823536Y-36070986D01*
X46585035Y-36070986D01*
X46463292Y-36010115D01*
X46444984Y-36003109D01*
X46406063Y-36000343D01*
X46369048Y-36012682D01*
X46339571Y-36038247D01*
X46322122Y-36073145D01*
X46319356Y-36112066D01*
X46331695Y-36149081D01*
X46357260Y-36178558D01*
X46373850Y-36189001D01*
X46516707Y-36260429D01*
X46535016Y-36267435D01*
X46538598Y-36267689D01*
X46541919Y-36269065D01*
X46561428Y-36270986D01*
X46847143Y-36270986D01*
X46866652Y-36269065D01*
X46869972Y-36267689D01*
X46873556Y-36267435D01*
X46891864Y-36260429D01*
X47034721Y-36189001D01*
X47037983Y-36186947D01*
X47039524Y-36186434D01*
X47041441Y-36184770D01*
X47051312Y-36178558D01*
X47059528Y-36169083D01*
X47069000Y-36160869D01*
X47075213Y-36150997D01*
X47076876Y-36149081D01*
X47077389Y-36147542D01*
X47079443Y-36144279D01*
X47150871Y-36001421D01*
X47157878Y-35983112D01*
X47158132Y-35979526D01*
X47159507Y-35976209D01*
X47161428Y-35956700D01*
X47161428Y-35742415D01*
X47532856Y-35742415D01*
X47532856Y-35885272D01*
X47534777Y-35904781D01*
X47536152Y-35908101D01*
X47536407Y-35911685D01*
X47543413Y-35929994D01*
X47614842Y-36072850D01*
X47620128Y-36081248D01*
X47621138Y-36083686D01*
X47623389Y-36086429D01*
X47625285Y-36089441D01*
X47627282Y-36091173D01*
X47633574Y-36098840D01*
X47705003Y-36170269D01*
X47712673Y-36176563D01*
X47714403Y-36178558D01*
X47717410Y-36180451D01*
X47720157Y-36182705D01*
X47722596Y-36183715D01*
X47730993Y-36189001D01*
X47873850Y-36260429D01*
X47892159Y-36267435D01*
X47895741Y-36267689D01*
X47899062Y-36269065D01*
X47918571Y-36270986D01*
X48275714Y-36270986D01*
X48285587Y-36270013D01*
X48288221Y-36270201D01*
X48291684Y-36269413D01*
X48295223Y-36269065D01*
X48297665Y-36268053D01*
X48307337Y-36265854D01*
X48521622Y-36194426D01*
X48539522Y-36186435D01*
X48568998Y-36160870D01*
X48586448Y-36125971D01*
X48589214Y-36087051D01*
X48576876Y-36050035D01*
X48551311Y-36020559D01*
X48516412Y-36003109D01*
X48477492Y-36000343D01*
X48458376Y-36004690D01*
X48259487Y-36070986D01*
X47942178Y-36070986D01*
X47834950Y-36017372D01*
X47786470Y-35968892D01*
X47732856Y-35861663D01*
X47732856Y-35766023D01*
X47786470Y-35658794D01*
X47834950Y-35610314D01*
X47953476Y-35551050D01*
X48228538Y-35482286D01*
X48229975Y-35481772D01*
X48230698Y-35481721D01*
X48238839Y-35478606D01*
X48246999Y-35475691D01*
X48247578Y-35475261D01*
X48249007Y-35474715D01*
X48391863Y-35403286D01*
X48400257Y-35398002D01*
X48402699Y-35396991D01*
X48405446Y-35394736D01*
X48408454Y-35392843D01*
X48410185Y-35390846D01*
X48417852Y-35384554D01*
X48489281Y-35313126D01*
X48495576Y-35305456D01*
X48497571Y-35303726D01*
X48499462Y-35300720D01*
X48501718Y-35297973D01*
X48502729Y-35295531D01*
X48508014Y-35287136D01*
X48579442Y-35144279D01*
X48586448Y-35125970D01*
X48586702Y-35122387D01*
X48588078Y-35119067D01*
X48589999Y-35099558D01*
X48589999Y-34956700D01*
X48588078Y-34937191D01*
X48586702Y-34933870D01*
X48586448Y-34930288D01*
X48579442Y-34911979D01*
X48508014Y-34769122D01*
X48502729Y-34760726D01*
X48501718Y-34758285D01*
X48499462Y-34755537D01*
X48497571Y-34752532D01*
X48495576Y-34750801D01*
X48489281Y-34743132D01*
X48417852Y-34671704D01*
X48410185Y-34665411D01*
X48408454Y-34663415D01*
X48405446Y-34661521D01*
X48402699Y-34659267D01*
X48400257Y-34658255D01*
X48391863Y-34652972D01*
X48249007Y-34581543D01*
X48230698Y-34574537D01*
X48227114Y-34574282D01*
X48223794Y-34572907D01*
X48204285Y-34570986D01*
X47847142Y-34570986D01*
X47837268Y-34571958D01*
X47834634Y-34571771D01*
X47831170Y-34572558D01*
X47827633Y-34572907D01*
X47825191Y-34573918D01*
X47815519Y-34576118D01*
X47601233Y-34647547D01*
X47583333Y-34655538D01*
X47553857Y-34681104D01*
X47536407Y-34716003D01*
X47533641Y-34754923D01*
X47545979Y-34791938D01*
X47571545Y-34821414D01*
X47606444Y-34838864D01*
X47645364Y-34841630D01*
X47664479Y-34837283D01*
X47863369Y-34770986D01*
X48180677Y-34770986D01*
X48287908Y-34824602D01*
X48336385Y-34873078D01*
X48389999Y-34980306D01*
X48389999Y-35075951D01*
X48336385Y-35183179D01*
X48287908Y-35231655D01*
X48169378Y-35290921D01*
X47894318Y-35359686D01*
X47892880Y-35360199D01*
X47892158Y-35360251D01*
X47884027Y-35363362D01*
X47875857Y-35366281D01*
X47875277Y-35366710D01*
X47873849Y-35367257D01*
X47730992Y-35438686D01*
X47722593Y-35443972D01*
X47720157Y-35444982D01*
X47717413Y-35447233D01*
X47714402Y-35449129D01*
X47712669Y-35451126D01*
X47705003Y-35457418D01*
X47633574Y-35528847D01*
X47627282Y-35536513D01*
X47625285Y-35538246D01*
X47623389Y-35541257D01*
X47621138Y-35544001D01*
X47620128Y-35546438D01*
X47614842Y-35554837D01*
X47543413Y-35697693D01*
X47536407Y-35716002D01*
X47536152Y-35719585D01*
X47534777Y-35722906D01*
X47532856Y-35742415D01*
X47161428Y-35742415D01*
X47161428Y-35671096D01*
X47161429Y-35671091D01*
X47161428Y-35671085D01*
X47161428Y-35385272D01*
X47159507Y-35365763D01*
X47158131Y-35362442D01*
X47157877Y-35358860D01*
X47150871Y-35340551D01*
X47079443Y-35197694D01*
X47077389Y-35194430D01*
X47076876Y-35192892D01*
X47075213Y-35190975D01*
X47069000Y-35181104D01*
X47059529Y-35172890D01*
X47051312Y-35163415D01*
X47041438Y-35157200D01*
X47039523Y-35155539D01*
X47037984Y-35155026D01*
X47034721Y-35152972D01*
X46891865Y-35081543D01*
X46873556Y-35074537D01*
X46869972Y-35074282D01*
X46866652Y-35072907D01*
X46847143Y-35070986D01*
X46561428Y-35070986D01*
X46541919Y-35072907D01*
X46538598Y-35074282D01*
X46535015Y-35074537D01*
X46516706Y-35081543D01*
X46373849Y-35152972D01*
X46370584Y-35155026D01*
X46369048Y-35155539D01*
X46367133Y-35157198D01*
X46357259Y-35163415D01*
X46349043Y-35172887D01*
X46339571Y-35181103D01*
X46333356Y-35190976D01*
X46331695Y-35192892D01*
X46331182Y-35194430D01*
X46329128Y-35197694D01*
X46257700Y-35340551D01*
X46250694Y-35358859D01*
X46250439Y-35362442D01*
X46249064Y-35365763D01*
X46247143Y-35385272D01*
X45804286Y-35385272D01*
X45804286Y-35170986D01*
X45802365Y-35151477D01*
X45787433Y-35115429D01*
X45759843Y-35087839D01*
X45723795Y-35072907D01*
X45684777Y-35072907D01*
X45648729Y-35087839D01*
X45621139Y-35115429D01*
X45617939Y-35123152D01*
X45534722Y-35081543D01*
X45516413Y-35074537D01*
X45512829Y-35074282D01*
X45509509Y-35072907D01*
X45490000Y-35070986D01*
X45275714Y-35070986D01*
X45256205Y-35072907D01*
X45252884Y-35074282D01*
X45249301Y-35074537D01*
X45230992Y-35081543D01*
X45088135Y-35152972D01*
X45084870Y-35155026D01*
X45083334Y-35155539D01*
X45081419Y-35157198D01*
X45071545Y-35163415D01*
X45063329Y-35172887D01*
X45053857Y-35181103D01*
X45047642Y-35190976D01*
X45045981Y-35192892D01*
X45045468Y-35194430D01*
X45043414Y-35197694D01*
X44971986Y-35340551D01*
X44964980Y-35358859D01*
X44964725Y-35362442D01*
X44963350Y-35365763D01*
X44961429Y-35385272D01*
X44518571Y-35385272D01*
X44516650Y-35365763D01*
X44515274Y-35362442D01*
X44515020Y-35358860D01*
X44508014Y-35340551D01*
X44436586Y-35197694D01*
X44434532Y-35194430D01*
X44434019Y-35192892D01*
X44432356Y-35190975D01*
X44426143Y-35181104D01*
X44416672Y-35172890D01*
X44408455Y-35163415D01*
X44398581Y-35157200D01*
X44396666Y-35155539D01*
X44395127Y-35155026D01*
X44391864Y-35152972D01*
X44249008Y-35081543D01*
X44230699Y-35074537D01*
X44227115Y-35074282D01*
X44223795Y-35072907D01*
X44204286Y-35070986D01*
X43990000Y-35070986D01*
X43970491Y-35072907D01*
X43967170Y-35074282D01*
X43963587Y-35074537D01*
X43945278Y-35081543D01*
X43802421Y-35152972D01*
X43785831Y-35163415D01*
X43760267Y-35192892D01*
X43747928Y-35229908D01*
X43750694Y-35268828D01*
X43768143Y-35303727D01*
X43797620Y-35329291D01*
X43834636Y-35341630D01*
X43873556Y-35338864D01*
X43891865Y-35331858D01*
X44013607Y-35270986D01*
X44180678Y-35270986D01*
X44272607Y-35316951D01*
X44318571Y-35408878D01*
X44318571Y-35433093D01*
X44272607Y-35525022D01*
X44180679Y-35570986D01*
X43990000Y-35570986D01*
X43970491Y-35572907D01*
X43967170Y-35574282D01*
X43963587Y-35574537D01*
X43945278Y-35581543D01*
X43802421Y-35652972D01*
X43799156Y-35655026D01*
X43797620Y-35655539D01*
X43795705Y-35657198D01*
X43785831Y-35663415D01*
X43777615Y-35672887D01*
X43768143Y-35681103D01*
X43761928Y-35690976D01*
X43760267Y-35692892D01*
X43759754Y-35694430D01*
X43757700Y-35697694D01*
X43686271Y-35840550D01*
X43679265Y-35858859D01*
X43679010Y-35862442D01*
X43677635Y-35865763D01*
X43675714Y-35885272D01*
X43304285Y-35885272D01*
X43304285Y-35456700D01*
X43302364Y-35437191D01*
X43300988Y-35433870D01*
X43300734Y-35430288D01*
X43293728Y-35411979D01*
X43222300Y-35269122D01*
X43217015Y-35260726D01*
X43216004Y-35258285D01*
X43213748Y-35255537D01*
X43211857Y-35252532D01*
X43209862Y-35250801D01*
X43203567Y-35243132D01*
X43132138Y-35171704D01*
X43124471Y-35165411D01*
X43122740Y-35163415D01*
X43119732Y-35161521D01*
X43116985Y-35159267D01*
X43114543Y-35158255D01*
X43106149Y-35152972D01*
X42963293Y-35081543D01*
X42944984Y-35074537D01*
X42941400Y-35074282D01*
X42938080Y-35072907D01*
X42918571Y-35070986D01*
X42704285Y-35070986D01*
X42684776Y-35072907D01*
X42681455Y-35074282D01*
X42677872Y-35074537D01*
X42659563Y-35081543D01*
X42516706Y-35152972D01*
X42508308Y-35158257D01*
X42505870Y-35159268D01*
X42503125Y-35161520D01*
X42500116Y-35163415D01*
X42498383Y-35165412D01*
X42490717Y-35171705D01*
X42419289Y-35243132D01*
X42412997Y-35250798D01*
X42411000Y-35252531D01*
X42409104Y-35255542D01*
X42406853Y-35258286D01*
X42405843Y-35260723D01*
X42400557Y-35269122D01*
X42329128Y-35411978D01*
X42322122Y-35430287D01*
X42321867Y-35433870D01*
X42320492Y-35437191D01*
X42318571Y-35456700D01*
X41875714Y-35456700D01*
X41875714Y-35170986D01*
X41873793Y-35151477D01*
X41858861Y-35115429D01*
X41831271Y-35087839D01*
X41795223Y-35072907D01*
X41756205Y-35072907D01*
X41720157Y-35087839D01*
X41692567Y-35115429D01*
X41677635Y-35151477D01*
X41677492Y-35152929D01*
X41534720Y-35081543D01*
X41516412Y-35074537D01*
X41512828Y-35074282D01*
X41509508Y-35072907D01*
X41489999Y-35070986D01*
X41347142Y-35070986D01*
X41327633Y-35072907D01*
X41291585Y-35087839D01*
X41263995Y-35115429D01*
X41249063Y-35151477D01*
X41082396Y-35151477D01*
X41082396Y-33470356D01*
X42247142Y-33470356D01*
X42247142Y-33541784D01*
X42249063Y-33561293D01*
X42250438Y-33564613D01*
X42250693Y-33568197D01*
X42257699Y-33586505D01*
X42329128Y-33729363D01*
X42331182Y-33732626D01*
X42331695Y-33734165D01*
X42333356Y-33736080D01*
X42339571Y-33745954D01*
X42349046Y-33754171D01*
X42357260Y-33763642D01*
X42367131Y-33769855D01*
X42369048Y-33771518D01*
X42370586Y-33772031D01*
X42373850Y-33774085D01*
X42516707Y-33845513D01*
X42535016Y-33852519D01*
X42538598Y-33852773D01*
X42541919Y-33854149D01*
X42561428Y-33856070D01*
X42847142Y-33856070D01*
X42866651Y-33854149D01*
X42869971Y-33852773D01*
X42873555Y-33852519D01*
X42891863Y-33845513D01*
X43034720Y-33774085D01*
X43051311Y-33763642D01*
X43076875Y-33734165D01*
X43089214Y-33697149D01*
X43086449Y-33658229D01*
X43068999Y-33623330D01*
X43039523Y-33597766D01*
X43002507Y-33585427D01*
X42963587Y-33588193D01*
X42945278Y-33595199D01*
X42823535Y-33656070D01*
X42585035Y-33656070D01*
X42493106Y-33610106D01*
X42447142Y-33518177D01*
X42447142Y-33493964D01*
X42493107Y-33402034D01*
X42585035Y-33356070D01*
X42775714Y-33356070D01*
X42795223Y-33354149D01*
X42798543Y-33352773D01*
X42802127Y-33352519D01*
X42820435Y-33345513D01*
X42963292Y-33274085D01*
X42966554Y-33272031D01*
X42968095Y-33271518D01*
X42970012Y-33269854D01*
X42979883Y-33263642D01*
X42988099Y-33254167D01*
X42997571Y-33245953D01*
X43003784Y-33236081D01*
X43005447Y-33234165D01*
X43005960Y-33232626D01*
X43008014Y-33229363D01*
X43079442Y-33086505D01*
X43086449Y-33068196D01*
X43086703Y-33064610D01*
X43088078Y-33061293D01*
X43089999Y-33041784D01*
X43089999Y-32970356D01*
X43088078Y-32950847D01*
X43086702Y-32947526D01*
X43086448Y-32943944D01*
X43079442Y-32925635D01*
X43008014Y-32782778D01*
X43005960Y-32779514D01*
X43005447Y-32777976D01*
X43003784Y-32776059D01*
X42997571Y-32766188D01*
X42988100Y-32757974D01*
X42986449Y-32756070D01*
X43532857Y-32756070D01*
X43532857Y-33756070D01*
X43534778Y-33775579D01*
X43549710Y-33811627D01*
X43577300Y-33839217D01*
X43613348Y-33854149D01*
X43652366Y-33854149D01*
X43688414Y-33839217D01*
X43716004Y-33811627D01*
X43730936Y-33775579D01*
X43732857Y-33756070D01*
X43732857Y-32763755D01*
X44104582Y-32763755D01*
X44115112Y-32801325D01*
X44125654Y-32817852D01*
X44469968Y-33256070D01*
X44125654Y-33694288D01*
X44115112Y-33710815D01*
X44104582Y-33748385D01*
X44109231Y-33787126D01*
X44128350Y-33821138D01*
X44159031Y-33845244D01*
X44196601Y-33855774D01*
X44235342Y-33851125D01*
X44269354Y-33832006D01*
X44282918Y-33817852D01*
X44597143Y-33417929D01*
X44911368Y-33817852D01*
X44924932Y-33832005D01*
X44958944Y-33851125D01*
X44997684Y-33855774D01*
X45035255Y-33845244D01*
X45065935Y-33821138D01*
X45085055Y-33787125D01*
X45089704Y-33748385D01*
X45088353Y-33743563D01*
X45247927Y-33743563D01*
X45250693Y-33782483D01*
X45268143Y-33817382D01*
X45297619Y-33842947D01*
X45334635Y-33855285D01*
X45373555Y-33852519D01*
X45408454Y-33835069D01*
X45434019Y-33805593D01*
X45442010Y-33787693D01*
X45562075Y-33427499D01*
X46132209Y-33427499D01*
X46252274Y-33787693D01*
X46260265Y-33805593D01*
X46285831Y-33835070D01*
X46320729Y-33852519D01*
X46359649Y-33855285D01*
X46396665Y-33842947D01*
X46426141Y-33817382D01*
X46443591Y-33782483D01*
X46446357Y-33743563D01*
X46442010Y-33724447D01*
X46238265Y-33113213D01*
X46675713Y-33113213D01*
X46675713Y-33470356D01*
X46677634Y-33489865D01*
X46679009Y-33493185D01*
X46679264Y-33496769D01*
X46686270Y-33515078D01*
X46757699Y-33657934D01*
X46762985Y-33666332D01*
X46763995Y-33668770D01*
X46766246Y-33671513D01*
X46768142Y-33674525D01*
X46770139Y-33676257D01*
X46776431Y-33683924D01*
X46847860Y-33755353D01*
X46855530Y-33761647D01*
X46857260Y-33763642D01*
X46860267Y-33765535D01*
X46863014Y-33767789D01*
X46865453Y-33768799D01*
X46873850Y-33774085D01*
X47016707Y-33845513D01*
X47035016Y-33852519D01*
X47038598Y-33852773D01*
X47041919Y-33854149D01*
X47061428Y-33856070D01*
X47347142Y-33856070D01*
X47366651Y-33854149D01*
X47369971Y-33852773D01*
X47373555Y-33852519D01*
X47391863Y-33845513D01*
X47534720Y-33774085D01*
X47543118Y-33768798D01*
X47545556Y-33767789D01*
X47548299Y-33765537D01*
X47551311Y-33763642D01*
X47553043Y-33761644D01*
X47560710Y-33755353D01*
X47632139Y-33683924D01*
X47638433Y-33676253D01*
X47640428Y-33674524D01*
X47642321Y-33671516D01*
X47644575Y-33668770D01*
X47645585Y-33666330D01*
X47650871Y-33657934D01*
X47722299Y-33515077D01*
X47729305Y-33496768D01*
X47729559Y-33493185D01*
X47730935Y-33489865D01*
X47732856Y-33470356D01*
X47732856Y-32898927D01*
X47732520Y-32895524D01*
X47732738Y-32894066D01*
X47731658Y-32886768D01*
X47730935Y-32879418D01*
X47730370Y-32878054D01*
X47729870Y-32874673D01*
X47658442Y-32588960D01*
X47654337Y-32577469D01*
X47653857Y-32575042D01*
X47652684Y-32572842D01*
X47651847Y-32570499D01*
X47650376Y-32568514D01*
X47644633Y-32557743D01*
X47501776Y-32343457D01*
X47501732Y-32343403D01*
X47501718Y-32343369D01*
X47495573Y-32335883D01*
X47489356Y-32328290D01*
X47489324Y-32328268D01*
X47489281Y-32328216D01*
X47417852Y-32256788D01*
X47410185Y-32250495D01*
X47408454Y-32248499D01*
X47405446Y-32246605D01*
X47402699Y-32244351D01*
X47400257Y-32243339D01*
X47391863Y-32238056D01*
X47249007Y-32166627D01*
X47230698Y-32159621D01*
X47227114Y-32159366D01*
X47223794Y-32157991D01*
X47204285Y-32156070D01*
X46918571Y-32156070D01*
X46899062Y-32157991D01*
X46863014Y-32172923D01*
X46835424Y-32200513D01*
X46820492Y-32236561D01*
X46820492Y-32275579D01*
X46835424Y-32311627D01*
X46863014Y-32339217D01*
X46899062Y-32354149D01*
X46918571Y-32356070D01*
X47180677Y-32356070D01*
X47287908Y-32409686D01*
X47340858Y-32462635D01*
X47468615Y-32654271D01*
X47503518Y-32793883D01*
X47391863Y-32738056D01*
X47373555Y-32731050D01*
X47369971Y-32730795D01*
X47366651Y-32729420D01*
X47347142Y-32727499D01*
X47061428Y-32727499D01*
X47041919Y-32729420D01*
X47038598Y-32730795D01*
X47035016Y-32731050D01*
X47016707Y-32738056D01*
X46873850Y-32809484D01*
X46865453Y-32814769D01*
X46863014Y-32815780D01*
X46860267Y-32818033D01*
X46857260Y-32819927D01*
X46855530Y-32821921D01*
X46847860Y-32828216D01*
X46776431Y-32899645D01*
X46770139Y-32907311D01*
X46768142Y-32909044D01*
X46766246Y-32912055D01*
X46763995Y-32914799D01*
X46762985Y-32917236D01*
X46757699Y-32925635D01*
X46686270Y-33068491D01*
X46679264Y-33086800D01*
X46679009Y-33090383D01*
X46677634Y-33093704D01*
X46675713Y-33113213D01*
X46238265Y-33113213D01*
X45942010Y-32224447D01*
X45934019Y-32206547D01*
X45929335Y-32201147D01*
X45926141Y-32194758D01*
X45916669Y-32186542D01*
X45908454Y-32177071D01*
X45902064Y-32173876D01*
X45896665Y-32169193D01*
X45884767Y-32165227D01*
X45873555Y-32159621D01*
X45866427Y-32159114D01*
X45859649Y-32156855D01*
X45847142Y-32157743D01*
X45834635Y-32156855D01*
X45827856Y-32159114D01*
X45820729Y-32159621D01*
X45809515Y-32165227D01*
X45797619Y-32169193D01*
X45792220Y-32173875D01*
X45785831Y-32177070D01*
X45777615Y-32186542D01*
X45768143Y-32194758D01*
X45764948Y-32201147D01*
X45760265Y-32206547D01*
X45752274Y-32224447D01*
X45252274Y-33724447D01*
X45247927Y-33743563D01*
X45088353Y-33743563D01*
X45079174Y-33710815D01*
X45068632Y-33694288D01*
X44724317Y-33256070D01*
X45068632Y-32817852D01*
X45079174Y-32801325D01*
X45089704Y-32763755D01*
X45085055Y-32725015D01*
X45065935Y-32691002D01*
X45035255Y-32666896D01*
X44997684Y-32656366D01*
X44958944Y-32661015D01*
X44924932Y-32680135D01*
X44911368Y-32694288D01*
X44597143Y-33094210D01*
X44282918Y-32694288D01*
X44269354Y-32680134D01*
X44235342Y-32661015D01*
X44196601Y-32656366D01*
X44159031Y-32666896D01*
X44128350Y-32691002D01*
X44109231Y-32725014D01*
X44104582Y-32763755D01*
X43732857Y-32763755D01*
X43732857Y-32756070D01*
X43730936Y-32736561D01*
X43716004Y-32700513D01*
X43688414Y-32672923D01*
X43652366Y-32657991D01*
X43613348Y-32657991D01*
X43577300Y-32672923D01*
X43549710Y-32700513D01*
X43534778Y-32736561D01*
X43532857Y-32756070D01*
X42986449Y-32756070D01*
X42979883Y-32748499D01*
X42970009Y-32742284D01*
X42968094Y-32740623D01*
X42966555Y-32740110D01*
X42963292Y-32738056D01*
X42820436Y-32666627D01*
X42802127Y-32659621D01*
X42798543Y-32659366D01*
X42795223Y-32657991D01*
X42775714Y-32656070D01*
X42561428Y-32656070D01*
X42541919Y-32657991D01*
X42538598Y-32659366D01*
X42535015Y-32659621D01*
X42516706Y-32666627D01*
X42373849Y-32738056D01*
X42357259Y-32748499D01*
X42331695Y-32777976D01*
X42319356Y-32814992D01*
X42322122Y-32853912D01*
X42339571Y-32888811D01*
X42369048Y-32914375D01*
X42406064Y-32926714D01*
X42444984Y-32923948D01*
X42463293Y-32916942D01*
X42585035Y-32856070D01*
X42752106Y-32856070D01*
X42844035Y-32902035D01*
X42889999Y-32993962D01*
X42889999Y-33018177D01*
X42844035Y-33110106D01*
X42752107Y-33156070D01*
X42561428Y-33156070D01*
X42541919Y-33157991D01*
X42538598Y-33159366D01*
X42535015Y-33159621D01*
X42516706Y-33166627D01*
X42373849Y-33238056D01*
X42370584Y-33240110D01*
X42369048Y-33240623D01*
X42367133Y-33242282D01*
X42357259Y-33248499D01*
X42349043Y-33257971D01*
X42339571Y-33266187D01*
X42333356Y-33276060D01*
X42331695Y-33277976D01*
X42331182Y-33279514D01*
X42329128Y-33282778D01*
X42257699Y-33425634D01*
X42250693Y-33443943D01*
X42250438Y-33447526D01*
X42249063Y-33450847D01*
X42247142Y-33470356D01*
X41082396Y-33470356D01*
X41082396Y-32307990D01*
X43463349Y-32307990D01*
X43463349Y-32347008D01*
X43472096Y-32368125D01*
X43478281Y-32383057D01*
X43490718Y-32398210D01*
X43562147Y-32469638D01*
X43577300Y-32482075D01*
X43602790Y-32492632D01*
X43613348Y-32497006D01*
X43613349Y-32497006D01*
X43652366Y-32497006D01*
X43673483Y-32488258D01*
X43688415Y-32482074D01*
X43688419Y-32482069D01*
X43703568Y-32469638D01*
X43774995Y-32398210D01*
X43787432Y-32383057D01*
X43798610Y-32356070D01*
X43802363Y-32347009D01*
X43802364Y-32307991D01*
X43787433Y-32271942D01*
X43774996Y-32256789D01*
X43703568Y-32185360D01*
X43688415Y-32172923D01*
X43673215Y-32166627D01*
X43652366Y-32157991D01*
X43613348Y-32157991D01*
X43602790Y-32162364D01*
X43577300Y-32172922D01*
X43577294Y-32172927D01*
X43562146Y-32185359D01*
X43490717Y-32256788D01*
X43478285Y-32271936D01*
X43478280Y-32271942D01*
X43467722Y-32297432D01*
X43463349Y-32307990D01*
X41082396Y-32307990D01*
X41082396Y-31989403D01*
X48756666Y-31989403D01*
X48756666Y-36437653D01*
G37*
D11*
%TO.P,J4,1,Pin_1*%
%TO.N,Net-(AC1-CS)*%
X47540000Y-30500000D03*
D12*
%TO.P,J4,2,Pin_2*%
%TO.N,Net-(AC1-SCL)*%
X45000000Y-30500000D03*
%TO.P,J4,3,Pin_3*%
%TO.N,Net-(AC1-SDA)*%
X42460000Y-30500000D03*
%TD*%
D11*
%TO.P,J2,1,Pin_1*%
%TO.N,Net-(AC1-VDDIO)*%
X42460000Y-43000000D03*
D12*
%TO.P,J2,2,Pin_2*%
%TO.N,GND*%
X45000000Y-43000000D03*
%TO.P,J2,3,Pin_3*%
X47540000Y-43000000D03*
%TD*%
D11*
%TO.P,J3,1,Pin_1*%
%TO.N,Net-(AC1-SDO_AUX_)*%
X50500000Y-31690000D03*
D12*
%TO.P,J3,2,Pin_2*%
%TO.N,Net-(AC1-OCS_AUX)*%
X50500000Y-34230000D03*
%TO.P,J3,3,Pin_3*%
%TO.N,Net-(AC1-INT2)*%
X50500000Y-36770000D03*
%TO.P,J3,4,Pin_4*%
%TO.N,Net-(AC1-VDD)*%
X50500000Y-39310000D03*
%TD*%
D11*
%TO.P,J1,1,Pin_1*%
%TO.N,Net-(AC1-SDO{slash}SA0)*%
X39500000Y-31690000D03*
D12*
%TO.P,J1,2,Pin_2*%
%TO.N,Net-(AC1-SDX)*%
X39500000Y-34230000D03*
%TO.P,J1,3,Pin_3*%
%TO.N,Net-(AC1-SCX)*%
X39500000Y-36770000D03*
%TO.P,J1,4,Pin_4*%
%TO.N,Net-(AC1-INT1_)*%
X39500000Y-39310000D03*
%TD*%
D13*
%TO.N,GND*%
X45500000Y-41000000D03*
%TD*%
%TA.AperFunction,Conductor*%
%TO.N,GND*%
G36*
X52943039Y-27560185D02*
G01*
X52988794Y-27612989D01*
X53000000Y-27664500D01*
X53000000Y-44876000D01*
X52980315Y-44943039D01*
X52927511Y-44988794D01*
X52876000Y-45000000D01*
X37124000Y-45000000D01*
X37056961Y-44980315D01*
X37011206Y-44927511D01*
X37000000Y-44876000D01*
X37000000Y-42102135D01*
X41109500Y-42102135D01*
X41109500Y-43897870D01*
X41109501Y-43897876D01*
X41115908Y-43957483D01*
X41166202Y-44092328D01*
X41166206Y-44092335D01*
X41252452Y-44207544D01*
X41252455Y-44207547D01*
X41367664Y-44293793D01*
X41367671Y-44293797D01*
X41502517Y-44344091D01*
X41502516Y-44344091D01*
X41509444Y-44344835D01*
X41562127Y-44350500D01*
X43357872Y-44350499D01*
X43417483Y-44344091D01*
X43552331Y-44293796D01*
X43667546Y-44207546D01*
X43753796Y-44092331D01*
X43804091Y-43957483D01*
X43810500Y-43897873D01*
X43810499Y-43873979D01*
X43813330Y-43860963D01*
X43823940Y-43841525D01*
X43830179Y-43820275D01*
X43846803Y-43799643D01*
X43846808Y-43799636D01*
X43846811Y-43799634D01*
X43846818Y-43799626D01*
X44517037Y-43129408D01*
X44534075Y-43192993D01*
X44599901Y-43307007D01*
X44692993Y-43400099D01*
X44807007Y-43465925D01*
X44870590Y-43482962D01*
X44238282Y-44115269D01*
X44238282Y-44115270D01*
X44292449Y-44154624D01*
X44481782Y-44251095D01*
X44683870Y-44316757D01*
X44893754Y-44350000D01*
X45106246Y-44350000D01*
X45316127Y-44316757D01*
X45316130Y-44316757D01*
X45518217Y-44251095D01*
X45707554Y-44154622D01*
X45761716Y-44115270D01*
X45761717Y-44115270D01*
X45129408Y-43482962D01*
X45192993Y-43465925D01*
X45307007Y-43400099D01*
X45400099Y-43307007D01*
X45465925Y-43192993D01*
X45482962Y-43129409D01*
X46115270Y-43761717D01*
X46115270Y-43761716D01*
X46154622Y-43707554D01*
X46159514Y-43697954D01*
X46207488Y-43647157D01*
X46275308Y-43630361D01*
X46341444Y-43652897D01*
X46380486Y-43697954D01*
X46385375Y-43707550D01*
X46424728Y-43761716D01*
X47057037Y-43129408D01*
X47074075Y-43192993D01*
X47139901Y-43307007D01*
X47232993Y-43400099D01*
X47347007Y-43465925D01*
X47410590Y-43482962D01*
X46778282Y-44115269D01*
X46778282Y-44115270D01*
X46832449Y-44154624D01*
X47021782Y-44251095D01*
X47223870Y-44316757D01*
X47433754Y-44350000D01*
X47646246Y-44350000D01*
X47856127Y-44316757D01*
X47856130Y-44316757D01*
X48058217Y-44251095D01*
X48247554Y-44154622D01*
X48301716Y-44115270D01*
X48301717Y-44115270D01*
X47669408Y-43482962D01*
X47732993Y-43465925D01*
X47847007Y-43400099D01*
X47940099Y-43307007D01*
X48005925Y-43192993D01*
X48022962Y-43129408D01*
X48655270Y-43761717D01*
X48655270Y-43761716D01*
X48694622Y-43707554D01*
X48791095Y-43518217D01*
X48856757Y-43316130D01*
X48856757Y-43316127D01*
X48890000Y-43106246D01*
X48890000Y-42893753D01*
X48856757Y-42683872D01*
X48856757Y-42683869D01*
X48791095Y-42481782D01*
X48694624Y-42292449D01*
X48655270Y-42238282D01*
X48655269Y-42238282D01*
X48022962Y-42870590D01*
X48005925Y-42807007D01*
X47940099Y-42692993D01*
X47847007Y-42599901D01*
X47732993Y-42534075D01*
X47669409Y-42517037D01*
X48301716Y-41884728D01*
X48247550Y-41845375D01*
X48058217Y-41748904D01*
X47856129Y-41683242D01*
X47646246Y-41650000D01*
X47433754Y-41650000D01*
X47223872Y-41683242D01*
X47223869Y-41683242D01*
X47021782Y-41748904D01*
X46832439Y-41845380D01*
X46778282Y-41884727D01*
X46778282Y-41884728D01*
X47410591Y-42517037D01*
X47347007Y-42534075D01*
X47232993Y-42599901D01*
X47139901Y-42692993D01*
X47074075Y-42807007D01*
X47057037Y-42870591D01*
X46424728Y-42238282D01*
X46424727Y-42238282D01*
X46385380Y-42292440D01*
X46380483Y-42302051D01*
X46332506Y-42352845D01*
X46264684Y-42369638D01*
X46198550Y-42347098D01*
X46159516Y-42302048D01*
X46154626Y-42292452D01*
X46115270Y-42238282D01*
X46115269Y-42238282D01*
X45482962Y-42870590D01*
X45465925Y-42807007D01*
X45400099Y-42692993D01*
X45307007Y-42599901D01*
X45192993Y-42534075D01*
X45129409Y-42517037D01*
X45761716Y-41884728D01*
X45707550Y-41845375D01*
X45518217Y-41748904D01*
X45316129Y-41683242D01*
X45106246Y-41650000D01*
X44893754Y-41650000D01*
X44683872Y-41683242D01*
X44683869Y-41683242D01*
X44481782Y-41748904D01*
X44292439Y-41845380D01*
X44238282Y-41884727D01*
X44238282Y-41884728D01*
X44870591Y-42517037D01*
X44807007Y-42534075D01*
X44692993Y-42599901D01*
X44599901Y-42692993D01*
X44534075Y-42807007D01*
X44517037Y-42870591D01*
X43846818Y-42200372D01*
X43813333Y-42139049D01*
X43813330Y-42139036D01*
X43810499Y-42126015D01*
X43810499Y-42102128D01*
X43804091Y-42042517D01*
X43775926Y-41967002D01*
X43753798Y-41907673D01*
X43753793Y-41907664D01*
X43667547Y-41792455D01*
X43667544Y-41792452D01*
X43552335Y-41706206D01*
X43552328Y-41706202D01*
X43417482Y-41655908D01*
X43417483Y-41655908D01*
X43357883Y-41649501D01*
X43357881Y-41649500D01*
X43357873Y-41649500D01*
X43357864Y-41649500D01*
X41562129Y-41649500D01*
X41562123Y-41649501D01*
X41502516Y-41655908D01*
X41367671Y-41706202D01*
X41367664Y-41706206D01*
X41252455Y-41792452D01*
X41252452Y-41792455D01*
X41166206Y-41907664D01*
X41166202Y-41907671D01*
X41115908Y-42042517D01*
X41109501Y-42102116D01*
X41109500Y-42102135D01*
X37000000Y-42102135D01*
X37000000Y-30792135D01*
X38149500Y-30792135D01*
X38149500Y-32587870D01*
X38149501Y-32587876D01*
X38155908Y-32647483D01*
X38206202Y-32782328D01*
X38206206Y-32782335D01*
X38292452Y-32897544D01*
X38292455Y-32897547D01*
X38407664Y-32983793D01*
X38407671Y-32983797D01*
X38539082Y-33032810D01*
X38595016Y-33074681D01*
X38619433Y-33140145D01*
X38604582Y-33208418D01*
X38583431Y-33236673D01*
X38469889Y-33350215D01*
X38344951Y-33522179D01*
X38248444Y-33711585D01*
X38182753Y-33913760D01*
X38149500Y-34123713D01*
X38149500Y-34336286D01*
X38182753Y-34546239D01*
X38248444Y-34748414D01*
X38344951Y-34937820D01*
X38469890Y-35109786D01*
X38620213Y-35260109D01*
X38792182Y-35385050D01*
X38800946Y-35389516D01*
X38851742Y-35437491D01*
X38868536Y-35505312D01*
X38845998Y-35571447D01*
X38800946Y-35610484D01*
X38792182Y-35614949D01*
X38620213Y-35739890D01*
X38469890Y-35890213D01*
X38344951Y-36062179D01*
X38248444Y-36251585D01*
X38182753Y-36453760D01*
X38149500Y-36663713D01*
X38149500Y-36876286D01*
X38182753Y-37086239D01*
X38248444Y-37288414D01*
X38344951Y-37477820D01*
X38469890Y-37649786D01*
X38620213Y-37800109D01*
X38792182Y-37925050D01*
X38800946Y-37929516D01*
X38851742Y-37977491D01*
X38868536Y-38045312D01*
X38845998Y-38111447D01*
X38800946Y-38150484D01*
X38792182Y-38154949D01*
X38620213Y-38279890D01*
X38469890Y-38430213D01*
X38344951Y-38602179D01*
X38248444Y-38791585D01*
X38182753Y-38993760D01*
X38149500Y-39203713D01*
X38149500Y-39416286D01*
X38182753Y-39626239D01*
X38248444Y-39828414D01*
X38344951Y-40017820D01*
X38469890Y-40189786D01*
X38620213Y-40340109D01*
X38792179Y-40465048D01*
X38792181Y-40465049D01*
X38792184Y-40465051D01*
X38981588Y-40561557D01*
X39183757Y-40627246D01*
X39393713Y-40660500D01*
X39393714Y-40660500D01*
X39606286Y-40660500D01*
X39606287Y-40660500D01*
X39816243Y-40627246D01*
X40018412Y-40561557D01*
X40207816Y-40465051D01*
X40229789Y-40449086D01*
X40379786Y-40340109D01*
X40379788Y-40340106D01*
X40379792Y-40340104D01*
X40530104Y-40189792D01*
X40530106Y-40189788D01*
X40530109Y-40189786D01*
X40655048Y-40017820D01*
X40655047Y-40017820D01*
X40655051Y-40017816D01*
X40751557Y-39828412D01*
X40817246Y-39626243D01*
X40850500Y-39416287D01*
X40850500Y-39203713D01*
X40835681Y-39110149D01*
X41370522Y-39110149D01*
X48797573Y-39110149D01*
X48797573Y-37397382D01*
X41370522Y-37397382D01*
X41370522Y-39110149D01*
X40835681Y-39110149D01*
X40817246Y-38993757D01*
X40751557Y-38791588D01*
X40655051Y-38602184D01*
X40655049Y-38602181D01*
X40655048Y-38602179D01*
X40530109Y-38430213D01*
X40379786Y-38279890D01*
X40207820Y-38154951D01*
X40207115Y-38154591D01*
X40199054Y-38150485D01*
X40148259Y-38102512D01*
X40131463Y-38034692D01*
X40153999Y-37968556D01*
X40199054Y-37929515D01*
X40207816Y-37925051D01*
X40229789Y-37909086D01*
X40379786Y-37800109D01*
X40379788Y-37800106D01*
X40379792Y-37800104D01*
X40530104Y-37649792D01*
X40530106Y-37649788D01*
X40530109Y-37649786D01*
X40655048Y-37477820D01*
X40655047Y-37477820D01*
X40655051Y-37477816D01*
X40751557Y-37288412D01*
X40817246Y-37086243D01*
X40850500Y-36876287D01*
X40850500Y-36663713D01*
X40817246Y-36453757D01*
X40759856Y-36277131D01*
X41242142Y-36277131D01*
X48596144Y-36277131D01*
X48596144Y-32149924D01*
X41242142Y-32149924D01*
X41242142Y-36277131D01*
X40759856Y-36277131D01*
X40751557Y-36251588D01*
X40655051Y-36062184D01*
X40655049Y-36062181D01*
X40655048Y-36062179D01*
X40530109Y-35890213D01*
X40379786Y-35739890D01*
X40207820Y-35614951D01*
X40207115Y-35614591D01*
X40199054Y-35610485D01*
X40148259Y-35562512D01*
X40131463Y-35494692D01*
X40153999Y-35428556D01*
X40199054Y-35389515D01*
X40207816Y-35385051D01*
X40229789Y-35369086D01*
X40379786Y-35260109D01*
X40379788Y-35260106D01*
X40379792Y-35260104D01*
X40530104Y-35109792D01*
X40530106Y-35109788D01*
X40530109Y-35109786D01*
X40655048Y-34937820D01*
X40655047Y-34937820D01*
X40655051Y-34937816D01*
X40751557Y-34748412D01*
X40817246Y-34546243D01*
X40850500Y-34336287D01*
X40850500Y-34123713D01*
X40817246Y-33913757D01*
X40751557Y-33711588D01*
X40655051Y-33522184D01*
X40655049Y-33522181D01*
X40655048Y-33522179D01*
X40530109Y-33350213D01*
X40416569Y-33236673D01*
X40383084Y-33175350D01*
X40388068Y-33105658D01*
X40429940Y-33049725D01*
X40460915Y-33032810D01*
X40592331Y-32983796D01*
X40707546Y-32897546D01*
X40793796Y-32782331D01*
X40844091Y-32647483D01*
X40850500Y-32587873D01*
X40850499Y-31655051D01*
X40850499Y-30792129D01*
X40850498Y-30792123D01*
X40850497Y-30792116D01*
X40844091Y-30732517D01*
X40797010Y-30606287D01*
X40793797Y-30597671D01*
X40793793Y-30597664D01*
X40707547Y-30482455D01*
X40707544Y-30482452D01*
X40592335Y-30396206D01*
X40592328Y-30396202D01*
X40585655Y-30393713D01*
X41109500Y-30393713D01*
X41109500Y-30606286D01*
X41142753Y-30816239D01*
X41208444Y-31018414D01*
X41304951Y-31207820D01*
X41429890Y-31379786D01*
X41580213Y-31530109D01*
X41752179Y-31655048D01*
X41752181Y-31655049D01*
X41752184Y-31655051D01*
X41941588Y-31751557D01*
X42143757Y-31817246D01*
X42353713Y-31850500D01*
X42353714Y-31850500D01*
X42566286Y-31850500D01*
X42566287Y-31850500D01*
X42776243Y-31817246D01*
X42978412Y-31751557D01*
X43167816Y-31655051D01*
X43254138Y-31592335D01*
X43339786Y-31530109D01*
X43339788Y-31530106D01*
X43339792Y-31530104D01*
X43490104Y-31379792D01*
X43490106Y-31379788D01*
X43490109Y-31379786D01*
X43615048Y-31207820D01*
X43615047Y-31207820D01*
X43615051Y-31207816D01*
X43619514Y-31199054D01*
X43667488Y-31148259D01*
X43735308Y-31131463D01*
X43801444Y-31153999D01*
X43840486Y-31199056D01*
X43844951Y-31207820D01*
X43969890Y-31379786D01*
X44120213Y-31530109D01*
X44292179Y-31655048D01*
X44292181Y-31655049D01*
X44292184Y-31655051D01*
X44481588Y-31751557D01*
X44683757Y-31817246D01*
X44893713Y-31850500D01*
X44893714Y-31850500D01*
X45106286Y-31850500D01*
X45106287Y-31850500D01*
X45316243Y-31817246D01*
X45518412Y-31751557D01*
X45707816Y-31655051D01*
X45879792Y-31530104D01*
X45993329Y-31416566D01*
X46054648Y-31383084D01*
X46124340Y-31388068D01*
X46180274Y-31429939D01*
X46197189Y-31460917D01*
X46246202Y-31592328D01*
X46246206Y-31592335D01*
X46332452Y-31707544D01*
X46332455Y-31707547D01*
X46447664Y-31793793D01*
X46447671Y-31793797D01*
X46582517Y-31844091D01*
X46582516Y-31844091D01*
X46589444Y-31844835D01*
X46642127Y-31850500D01*
X48437872Y-31850499D01*
X48497483Y-31844091D01*
X48632331Y-31793796D01*
X48747546Y-31707546D01*
X48833796Y-31592331D01*
X48884091Y-31457483D01*
X48890500Y-31397873D01*
X48890499Y-30792135D01*
X49149500Y-30792135D01*
X49149500Y-32587870D01*
X49149501Y-32587876D01*
X49155908Y-32647483D01*
X49206202Y-32782328D01*
X49206206Y-32782335D01*
X49292452Y-32897544D01*
X49292455Y-32897547D01*
X49407664Y-32983793D01*
X49407671Y-32983797D01*
X49539082Y-33032810D01*
X49595016Y-33074681D01*
X49619433Y-33140145D01*
X49604582Y-33208418D01*
X49583431Y-33236673D01*
X49469889Y-33350215D01*
X49344951Y-33522179D01*
X49248444Y-33711585D01*
X49182753Y-33913760D01*
X49149500Y-34123713D01*
X49149500Y-34336286D01*
X49182753Y-34546239D01*
X49248444Y-34748414D01*
X49344951Y-34937820D01*
X49469890Y-35109786D01*
X49620213Y-35260109D01*
X49792182Y-35385050D01*
X49800946Y-35389516D01*
X49851742Y-35437491D01*
X49868536Y-35505312D01*
X49845998Y-35571447D01*
X49800946Y-35610484D01*
X49792182Y-35614949D01*
X49620213Y-35739890D01*
X49469890Y-35890213D01*
X49344951Y-36062179D01*
X49248444Y-36251585D01*
X49182753Y-36453760D01*
X49149500Y-36663713D01*
X49149500Y-36876286D01*
X49182753Y-37086239D01*
X49248444Y-37288414D01*
X49344951Y-37477820D01*
X49469890Y-37649786D01*
X49620213Y-37800109D01*
X49792182Y-37925050D01*
X49800946Y-37929516D01*
X49851742Y-37977491D01*
X49868536Y-38045312D01*
X49845998Y-38111447D01*
X49800946Y-38150484D01*
X49792182Y-38154949D01*
X49620213Y-38279890D01*
X49469890Y-38430213D01*
X49344951Y-38602179D01*
X49248444Y-38791585D01*
X49182753Y-38993760D01*
X49149500Y-39203713D01*
X49149500Y-39416286D01*
X49182753Y-39626239D01*
X49248444Y-39828414D01*
X49344951Y-40017820D01*
X49469890Y-40189786D01*
X49620213Y-40340109D01*
X49792179Y-40465048D01*
X49792181Y-40465049D01*
X49792184Y-40465051D01*
X49981588Y-40561557D01*
X50183757Y-40627246D01*
X50393713Y-40660500D01*
X50393714Y-40660500D01*
X50606286Y-40660500D01*
X50606287Y-40660500D01*
X50816243Y-40627246D01*
X51018412Y-40561557D01*
X51207816Y-40465051D01*
X51229789Y-40449086D01*
X51379786Y-40340109D01*
X51379788Y-40340106D01*
X51379792Y-40340104D01*
X51530104Y-40189792D01*
X51530106Y-40189788D01*
X51530109Y-40189786D01*
X51655048Y-40017820D01*
X51655047Y-40017820D01*
X51655051Y-40017816D01*
X51751557Y-39828412D01*
X51817246Y-39626243D01*
X51850500Y-39416287D01*
X51850500Y-39203713D01*
X51817246Y-38993757D01*
X51751557Y-38791588D01*
X51655051Y-38602184D01*
X51655049Y-38602181D01*
X51655048Y-38602179D01*
X51530109Y-38430213D01*
X51379786Y-38279890D01*
X51207820Y-38154951D01*
X51207115Y-38154591D01*
X51199054Y-38150485D01*
X51148259Y-38102512D01*
X51131463Y-38034692D01*
X51153999Y-37968556D01*
X51199054Y-37929515D01*
X51207816Y-37925051D01*
X51229789Y-37909086D01*
X51379786Y-37800109D01*
X51379788Y-37800106D01*
X51379792Y-37800104D01*
X51530104Y-37649792D01*
X51530106Y-37649788D01*
X51530109Y-37649786D01*
X51655048Y-37477820D01*
X51655047Y-37477820D01*
X51655051Y-37477816D01*
X51751557Y-37288412D01*
X51817246Y-37086243D01*
X51850500Y-36876287D01*
X51850500Y-36663713D01*
X51817246Y-36453757D01*
X51751557Y-36251588D01*
X51655051Y-36062184D01*
X51655049Y-36062181D01*
X51655048Y-36062179D01*
X51530109Y-35890213D01*
X51379786Y-35739890D01*
X51207820Y-35614951D01*
X51207115Y-35614591D01*
X51199054Y-35610485D01*
X51148259Y-35562512D01*
X51131463Y-35494692D01*
X51153999Y-35428556D01*
X51199054Y-35389515D01*
X51207816Y-35385051D01*
X51229789Y-35369086D01*
X51379786Y-35260109D01*
X51379788Y-35260106D01*
X51379792Y-35260104D01*
X51530104Y-35109792D01*
X51530106Y-35109788D01*
X51530109Y-35109786D01*
X51655048Y-34937820D01*
X51655047Y-34937820D01*
X51655051Y-34937816D01*
X51751557Y-34748412D01*
X51817246Y-34546243D01*
X51850500Y-34336287D01*
X51850500Y-34123713D01*
X51817246Y-33913757D01*
X51751557Y-33711588D01*
X51655051Y-33522184D01*
X51655049Y-33522181D01*
X51655048Y-33522179D01*
X51530109Y-33350213D01*
X51416569Y-33236673D01*
X51383084Y-33175350D01*
X51388068Y-33105658D01*
X51429940Y-33049725D01*
X51460915Y-33032810D01*
X51592331Y-32983796D01*
X51707546Y-32897546D01*
X51793796Y-32782331D01*
X51844091Y-32647483D01*
X51850500Y-32587873D01*
X51850499Y-30792128D01*
X51844091Y-30732517D01*
X51797010Y-30606287D01*
X51793797Y-30597671D01*
X51793793Y-30597664D01*
X51707547Y-30482455D01*
X51707544Y-30482452D01*
X51592335Y-30396206D01*
X51592328Y-30396202D01*
X51457482Y-30345908D01*
X51457483Y-30345908D01*
X51397883Y-30339501D01*
X51397881Y-30339500D01*
X51397873Y-30339500D01*
X51397864Y-30339500D01*
X49602129Y-30339500D01*
X49602123Y-30339501D01*
X49542516Y-30345908D01*
X49407671Y-30396202D01*
X49407664Y-30396206D01*
X49292455Y-30482452D01*
X49292452Y-30482455D01*
X49206206Y-30597664D01*
X49206202Y-30597671D01*
X49155908Y-30732517D01*
X49149857Y-30788805D01*
X49149501Y-30792123D01*
X49149500Y-30792135D01*
X48890499Y-30792135D01*
X48890499Y-30482455D01*
X48890499Y-29602129D01*
X48890498Y-29602123D01*
X48884091Y-29542516D01*
X48833797Y-29407671D01*
X48833793Y-29407664D01*
X48747547Y-29292455D01*
X48747544Y-29292452D01*
X48632335Y-29206206D01*
X48632328Y-29206202D01*
X48497482Y-29155908D01*
X48497483Y-29155908D01*
X48437883Y-29149501D01*
X48437881Y-29149500D01*
X48437873Y-29149500D01*
X48437864Y-29149500D01*
X46642129Y-29149500D01*
X46642123Y-29149501D01*
X46582516Y-29155908D01*
X46447671Y-29206202D01*
X46447664Y-29206206D01*
X46332455Y-29292452D01*
X46332452Y-29292455D01*
X46246206Y-29407664D01*
X46246203Y-29407669D01*
X46197189Y-29539083D01*
X46155317Y-29595016D01*
X46089853Y-29619433D01*
X46021580Y-29604581D01*
X45993326Y-29583430D01*
X45879786Y-29469890D01*
X45707820Y-29344951D01*
X45518414Y-29248444D01*
X45518413Y-29248443D01*
X45518412Y-29248443D01*
X45316243Y-29182754D01*
X45316241Y-29182753D01*
X45316240Y-29182753D01*
X45154957Y-29157208D01*
X45106287Y-29149500D01*
X44893713Y-29149500D01*
X44845042Y-29157208D01*
X44683760Y-29182753D01*
X44481585Y-29248444D01*
X44292179Y-29344951D01*
X44120213Y-29469890D01*
X43969890Y-29620213D01*
X43844949Y-29792182D01*
X43840484Y-29800946D01*
X43792509Y-29851742D01*
X43724688Y-29868536D01*
X43658553Y-29845998D01*
X43619516Y-29800946D01*
X43615050Y-29792182D01*
X43490109Y-29620213D01*
X43339786Y-29469890D01*
X43167820Y-29344951D01*
X42978414Y-29248444D01*
X42978413Y-29248443D01*
X42978412Y-29248443D01*
X42776243Y-29182754D01*
X42776241Y-29182753D01*
X42776240Y-29182753D01*
X42614957Y-29157208D01*
X42566287Y-29149500D01*
X42353713Y-29149500D01*
X42305042Y-29157208D01*
X42143760Y-29182753D01*
X41941585Y-29248444D01*
X41752179Y-29344951D01*
X41580213Y-29469890D01*
X41429890Y-29620213D01*
X41304951Y-29792179D01*
X41208444Y-29981585D01*
X41142753Y-30183760D01*
X41109500Y-30393713D01*
X40585655Y-30393713D01*
X40457482Y-30345908D01*
X40457483Y-30345908D01*
X40397883Y-30339501D01*
X40397881Y-30339500D01*
X40397873Y-30339500D01*
X40397864Y-30339500D01*
X38602129Y-30339500D01*
X38602123Y-30339501D01*
X38542516Y-30345908D01*
X38407671Y-30396202D01*
X38407664Y-30396206D01*
X38292455Y-30482452D01*
X38292452Y-30482455D01*
X38206206Y-30597664D01*
X38206202Y-30597671D01*
X38155908Y-30732517D01*
X38149857Y-30788805D01*
X38149501Y-30792123D01*
X38149500Y-30792135D01*
X37000000Y-30792135D01*
X37000000Y-27664500D01*
X37019685Y-27597461D01*
X37072489Y-27551706D01*
X37124000Y-27540500D01*
X52876000Y-27540500D01*
X52943039Y-27560185D01*
G37*
%TD.AperFunction*%
%TD*%
M02*
