%TF.GenerationSoftware,KiCad,Pcbnew,9.0.4*%
%TF.CreationDate,2026-03-10T18:05:46+00:00*%
%TF.ProjectId,TDP3 VOLTAGE REG w BUCK,54445033-2056-44f4-9c54-414745205245,rev?*%
%TF.SameCoordinates,Original*%
%TF.FileFunction,Paste,Bot*%
%TF.FilePolarity,Positive*%
%FSLAX46Y46*%
G04 Gerber Fmt 4.6, Leading zero omitted, Abs format (unit mm)*
G04 Created by KiCad (PCBNEW 9.0.4) date 2026-03-10 18:05:46*
%MOMM*%
%LPD*%
G01*
G04 APERTURE LIST*
G04 Aperture macros list*
%AMRoundRect*
0 Rectangle with rounded corners*
0 $1 Rounding radius*
0 $2 $3 $4 $5 $6 $7 $8 $9 X,Y pos of 4 corners*
0 Add a 4 corners polygon primitive as box body*
4,1,4,$2,$3,$4,$5,$6,$7,$8,$9,$2,$3,0*
0 Add four circle primitives for the rounded corners*
1,1,$1+$1,$2,$3*
1,1,$1+$1,$4,$5*
1,1,$1+$1,$6,$7*
1,1,$1+$1,$8,$9*
0 Add four rect primitives between the rounded corners*
20,1,$1+$1,$2,$3,$4,$5,0*
20,1,$1+$1,$4,$5,$6,$7,0*
20,1,$1+$1,$6,$7,$8,$9,0*
20,1,$1+$1,$8,$9,$2,$3,0*%
G04 Aperture macros list end*
%ADD10RoundRect,0.250000X2.375000X-2.025000X2.375000X2.025000X-2.375000X2.025000X-2.375000X-2.025000X0*%
%ADD11RoundRect,0.250000X0.300000X-2.050000X0.300000X2.050000X-0.300000X2.050000X-0.300000X-2.050000X0*%
%ADD12RoundRect,0.250000X0.350000X0.450000X-0.350000X0.450000X-0.350000X-0.450000X0.350000X-0.450000X0*%
%ADD13R,5.400000X2.900000*%
%ADD14RoundRect,0.250000X0.450000X-0.350000X0.450000X0.350000X-0.450000X0.350000X-0.450000X-0.350000X0*%
%ADD15RoundRect,0.250000X-0.350000X-0.450000X0.350000X-0.450000X0.350000X0.450000X-0.350000X0.450000X0*%
%ADD16RoundRect,0.250000X-2.025000X-2.375000X2.025000X-2.375000X2.025000X2.375000X-2.025000X2.375000X0*%
%ADD17RoundRect,0.250000X-2.050000X-0.300000X2.050000X-0.300000X2.050000X0.300000X-2.050000X0.300000X0*%
%ADD18R,2.900000X5.400000*%
G04 APERTURE END LIST*
D10*
%TO.C,U2*%
X71975000Y-46660000D03*
X77525000Y-46660000D03*
X71975000Y-41810000D03*
X77525000Y-41810000D03*
D11*
X78150000Y-53385000D03*
X76450000Y-53385000D03*
X74750000Y-53385000D03*
X73050000Y-53385000D03*
X71350000Y-53385000D03*
%TD*%
D12*
%TO.C,R10*%
X72400000Y-76800000D03*
X70400000Y-76800000D03*
%TD*%
D13*
%TO.C,L2*%
X87400000Y-49410000D03*
X87400000Y-59310000D03*
%TD*%
D14*
%TO.C,R1*%
X39150000Y-47800000D03*
X39150000Y-45800000D03*
%TD*%
%TO.C,R2*%
X39150000Y-43800000D03*
X39150000Y-41800000D03*
%TD*%
D12*
%TO.C,R14*%
X66150000Y-67800000D03*
X64150000Y-67800000D03*
%TD*%
D14*
%TO.C,R6*%
X68150000Y-51360000D03*
X68150000Y-49360000D03*
%TD*%
D12*
%TO.C,R12*%
X92400000Y-40050000D03*
X90400000Y-40050000D03*
%TD*%
%TO.C,R9*%
X63650000Y-76810000D03*
X61650000Y-76810000D03*
%TD*%
D15*
%TO.C,R4*%
X68150000Y-57050000D03*
X70150000Y-57050000D03*
%TD*%
D14*
%TO.C,R5*%
X68150000Y-55110000D03*
X68150000Y-53110000D03*
%TD*%
%TO.C,R3*%
X39150000Y-40050000D03*
X39150000Y-38050000D03*
%TD*%
D12*
%TO.C,R15*%
X75150000Y-67800000D03*
X73150000Y-67800000D03*
%TD*%
%TO.C,R13*%
X57400000Y-67800000D03*
X55400000Y-67800000D03*
%TD*%
%TO.C,R7*%
X46125000Y-41050000D03*
X44125000Y-41050000D03*
%TD*%
D15*
%TO.C,R11*%
X90400000Y-33300000D03*
X92400000Y-33300000D03*
%TD*%
D16*
%TO.C,U1*%
X50100000Y-47750000D03*
X50100000Y-53300000D03*
X54950000Y-47750000D03*
X54950000Y-53300000D03*
D17*
X43375000Y-53925000D03*
X43375000Y-52225000D03*
X43375000Y-50525000D03*
X43375000Y-48825000D03*
X43375000Y-47125000D03*
%TD*%
D12*
%TO.C,R8*%
X55000000Y-76800000D03*
X53000000Y-76800000D03*
%TD*%
D18*
%TO.C,L1*%
X47230000Y-63140000D03*
X37330000Y-63140000D03*
%TD*%
M02*
