%TF.GenerationSoftware,KiCad,Pcbnew,9.0.4*%
%TF.CreationDate,2026-03-10T18:05:46+00:00*%
%TF.ProjectId,TDP3 VOLTAGE REG w BUCK,54445033-2056-44f4-9c54-414745205245,rev?*%
%TF.SameCoordinates,Original*%
%TF.FileFunction,Legend,Bot*%
%TF.FilePolarity,Positive*%
%FSLAX46Y46*%
G04 Gerber Fmt 4.6, Leading zero omitted, Abs format (unit mm)*
G04 Created by KiCad (PCBNEW 9.0.4) date 2026-03-10 18:05:46*
%MOMM*%
%LPD*%
G01*
G04 APERTURE LIST*
%ADD10C,0.150000*%
%ADD11C,0.120000*%
G04 APERTURE END LIST*
D10*
X80854819Y-44973095D02*
X81664342Y-44973095D01*
X81664342Y-44973095D02*
X81759580Y-45020714D01*
X81759580Y-45020714D02*
X81807200Y-45068333D01*
X81807200Y-45068333D02*
X81854819Y-45163571D01*
X81854819Y-45163571D02*
X81854819Y-45354047D01*
X81854819Y-45354047D02*
X81807200Y-45449285D01*
X81807200Y-45449285D02*
X81759580Y-45496904D01*
X81759580Y-45496904D02*
X81664342Y-45544523D01*
X81664342Y-45544523D02*
X80854819Y-45544523D01*
X80950057Y-45973095D02*
X80902438Y-46020714D01*
X80902438Y-46020714D02*
X80854819Y-46115952D01*
X80854819Y-46115952D02*
X80854819Y-46354047D01*
X80854819Y-46354047D02*
X80902438Y-46449285D01*
X80902438Y-46449285D02*
X80950057Y-46496904D01*
X80950057Y-46496904D02*
X81045295Y-46544523D01*
X81045295Y-46544523D02*
X81140533Y-46544523D01*
X81140533Y-46544523D02*
X81283390Y-46496904D01*
X81283390Y-46496904D02*
X81854819Y-45925476D01*
X81854819Y-45925476D02*
X81854819Y-46544523D01*
X66514819Y-30966666D02*
X67229104Y-30966666D01*
X67229104Y-30966666D02*
X67371961Y-30919047D01*
X67371961Y-30919047D02*
X67467200Y-30823809D01*
X67467200Y-30823809D02*
X67514819Y-30680952D01*
X67514819Y-30680952D02*
X67514819Y-30585714D01*
X66610057Y-31395238D02*
X66562438Y-31442857D01*
X66562438Y-31442857D02*
X66514819Y-31538095D01*
X66514819Y-31538095D02*
X66514819Y-31776190D01*
X66514819Y-31776190D02*
X66562438Y-31871428D01*
X66562438Y-31871428D02*
X66610057Y-31919047D01*
X66610057Y-31919047D02*
X66705295Y-31966666D01*
X66705295Y-31966666D02*
X66800533Y-31966666D01*
X66800533Y-31966666D02*
X66943390Y-31919047D01*
X66943390Y-31919047D02*
X67514819Y-31347619D01*
X67514819Y-31347619D02*
X67514819Y-31966666D01*
X72042857Y-75604819D02*
X72376190Y-75128628D01*
X72614285Y-75604819D02*
X72614285Y-74604819D01*
X72614285Y-74604819D02*
X72233333Y-74604819D01*
X72233333Y-74604819D02*
X72138095Y-74652438D01*
X72138095Y-74652438D02*
X72090476Y-74700057D01*
X72090476Y-74700057D02*
X72042857Y-74795295D01*
X72042857Y-74795295D02*
X72042857Y-74938152D01*
X72042857Y-74938152D02*
X72090476Y-75033390D01*
X72090476Y-75033390D02*
X72138095Y-75081009D01*
X72138095Y-75081009D02*
X72233333Y-75128628D01*
X72233333Y-75128628D02*
X72614285Y-75128628D01*
X71090476Y-75604819D02*
X71661904Y-75604819D01*
X71376190Y-75604819D02*
X71376190Y-74604819D01*
X71376190Y-74604819D02*
X71471428Y-74747676D01*
X71471428Y-74747676D02*
X71566666Y-74842914D01*
X71566666Y-74842914D02*
X71661904Y-74890533D01*
X70471428Y-74604819D02*
X70376190Y-74604819D01*
X70376190Y-74604819D02*
X70280952Y-74652438D01*
X70280952Y-74652438D02*
X70233333Y-74700057D01*
X70233333Y-74700057D02*
X70185714Y-74795295D01*
X70185714Y-74795295D02*
X70138095Y-74985771D01*
X70138095Y-74985771D02*
X70138095Y-75223866D01*
X70138095Y-75223866D02*
X70185714Y-75414342D01*
X70185714Y-75414342D02*
X70233333Y-75509580D01*
X70233333Y-75509580D02*
X70280952Y-75557200D01*
X70280952Y-75557200D02*
X70376190Y-75604819D01*
X70376190Y-75604819D02*
X70471428Y-75604819D01*
X70471428Y-75604819D02*
X70566666Y-75557200D01*
X70566666Y-75557200D02*
X70614285Y-75509580D01*
X70614285Y-75509580D02*
X70661904Y-75414342D01*
X70661904Y-75414342D02*
X70709523Y-75223866D01*
X70709523Y-75223866D02*
X70709523Y-74985771D01*
X70709523Y-74985771D02*
X70661904Y-74795295D01*
X70661904Y-74795295D02*
X70614285Y-74700057D01*
X70614285Y-74700057D02*
X70566666Y-74652438D01*
X70566666Y-74652438D02*
X70471428Y-74604819D01*
X80754819Y-54193333D02*
X80754819Y-53717143D01*
X80754819Y-53717143D02*
X79754819Y-53717143D01*
X79850057Y-54479048D02*
X79802438Y-54526667D01*
X79802438Y-54526667D02*
X79754819Y-54621905D01*
X79754819Y-54621905D02*
X79754819Y-54860000D01*
X79754819Y-54860000D02*
X79802438Y-54955238D01*
X79802438Y-54955238D02*
X79850057Y-55002857D01*
X79850057Y-55002857D02*
X79945295Y-55050476D01*
X79945295Y-55050476D02*
X80040533Y-55050476D01*
X80040533Y-55050476D02*
X80183390Y-55002857D01*
X80183390Y-55002857D02*
X80754819Y-54431429D01*
X80754819Y-54431429D02*
X80754819Y-55050476D01*
X41254819Y-46633333D02*
X40778628Y-46300000D01*
X41254819Y-46061905D02*
X40254819Y-46061905D01*
X40254819Y-46061905D02*
X40254819Y-46442857D01*
X40254819Y-46442857D02*
X40302438Y-46538095D01*
X40302438Y-46538095D02*
X40350057Y-46585714D01*
X40350057Y-46585714D02*
X40445295Y-46633333D01*
X40445295Y-46633333D02*
X40588152Y-46633333D01*
X40588152Y-46633333D02*
X40683390Y-46585714D01*
X40683390Y-46585714D02*
X40731009Y-46538095D01*
X40731009Y-46538095D02*
X40778628Y-46442857D01*
X40778628Y-46442857D02*
X40778628Y-46061905D01*
X41254819Y-47585714D02*
X41254819Y-47014286D01*
X41254819Y-47300000D02*
X40254819Y-47300000D01*
X40254819Y-47300000D02*
X40397676Y-47204762D01*
X40397676Y-47204762D02*
X40492914Y-47109524D01*
X40492914Y-47109524D02*
X40540533Y-47014286D01*
X41254819Y-42633333D02*
X40778628Y-42300000D01*
X41254819Y-42061905D02*
X40254819Y-42061905D01*
X40254819Y-42061905D02*
X40254819Y-42442857D01*
X40254819Y-42442857D02*
X40302438Y-42538095D01*
X40302438Y-42538095D02*
X40350057Y-42585714D01*
X40350057Y-42585714D02*
X40445295Y-42633333D01*
X40445295Y-42633333D02*
X40588152Y-42633333D01*
X40588152Y-42633333D02*
X40683390Y-42585714D01*
X40683390Y-42585714D02*
X40731009Y-42538095D01*
X40731009Y-42538095D02*
X40778628Y-42442857D01*
X40778628Y-42442857D02*
X40778628Y-42061905D01*
X40350057Y-43014286D02*
X40302438Y-43061905D01*
X40302438Y-43061905D02*
X40254819Y-43157143D01*
X40254819Y-43157143D02*
X40254819Y-43395238D01*
X40254819Y-43395238D02*
X40302438Y-43490476D01*
X40302438Y-43490476D02*
X40350057Y-43538095D01*
X40350057Y-43538095D02*
X40445295Y-43585714D01*
X40445295Y-43585714D02*
X40540533Y-43585714D01*
X40540533Y-43585714D02*
X40683390Y-43538095D01*
X40683390Y-43538095D02*
X41254819Y-42966667D01*
X41254819Y-42966667D02*
X41254819Y-43585714D01*
X65792857Y-66604819D02*
X66126190Y-66128628D01*
X66364285Y-66604819D02*
X66364285Y-65604819D01*
X66364285Y-65604819D02*
X65983333Y-65604819D01*
X65983333Y-65604819D02*
X65888095Y-65652438D01*
X65888095Y-65652438D02*
X65840476Y-65700057D01*
X65840476Y-65700057D02*
X65792857Y-65795295D01*
X65792857Y-65795295D02*
X65792857Y-65938152D01*
X65792857Y-65938152D02*
X65840476Y-66033390D01*
X65840476Y-66033390D02*
X65888095Y-66081009D01*
X65888095Y-66081009D02*
X65983333Y-66128628D01*
X65983333Y-66128628D02*
X66364285Y-66128628D01*
X64840476Y-66604819D02*
X65411904Y-66604819D01*
X65126190Y-66604819D02*
X65126190Y-65604819D01*
X65126190Y-65604819D02*
X65221428Y-65747676D01*
X65221428Y-65747676D02*
X65316666Y-65842914D01*
X65316666Y-65842914D02*
X65411904Y-65890533D01*
X63983333Y-65938152D02*
X63983333Y-66604819D01*
X64221428Y-65557200D02*
X64459523Y-66271485D01*
X64459523Y-66271485D02*
X63840476Y-66271485D01*
X92609819Y-30966666D02*
X93324104Y-30966666D01*
X93324104Y-30966666D02*
X93466961Y-30919047D01*
X93466961Y-30919047D02*
X93562200Y-30823809D01*
X93562200Y-30823809D02*
X93609819Y-30680952D01*
X93609819Y-30680952D02*
X93609819Y-30585714D01*
X92609819Y-31871428D02*
X92609819Y-31680952D01*
X92609819Y-31680952D02*
X92657438Y-31585714D01*
X92657438Y-31585714D02*
X92705057Y-31538095D01*
X92705057Y-31538095D02*
X92847914Y-31442857D01*
X92847914Y-31442857D02*
X93038390Y-31395238D01*
X93038390Y-31395238D02*
X93419342Y-31395238D01*
X93419342Y-31395238D02*
X93514580Y-31442857D01*
X93514580Y-31442857D02*
X93562200Y-31490476D01*
X93562200Y-31490476D02*
X93609819Y-31585714D01*
X93609819Y-31585714D02*
X93609819Y-31776190D01*
X93609819Y-31776190D02*
X93562200Y-31871428D01*
X93562200Y-31871428D02*
X93514580Y-31919047D01*
X93514580Y-31919047D02*
X93419342Y-31966666D01*
X93419342Y-31966666D02*
X93181247Y-31966666D01*
X93181247Y-31966666D02*
X93086009Y-31919047D01*
X93086009Y-31919047D02*
X93038390Y-31871428D01*
X93038390Y-31871428D02*
X92990771Y-31776190D01*
X92990771Y-31776190D02*
X92990771Y-31585714D01*
X92990771Y-31585714D02*
X93038390Y-31490476D01*
X93038390Y-31490476D02*
X93086009Y-31442857D01*
X93086009Y-31442857D02*
X93181247Y-31395238D01*
X70254819Y-50193333D02*
X69778628Y-49860000D01*
X70254819Y-49621905D02*
X69254819Y-49621905D01*
X69254819Y-49621905D02*
X69254819Y-50002857D01*
X69254819Y-50002857D02*
X69302438Y-50098095D01*
X69302438Y-50098095D02*
X69350057Y-50145714D01*
X69350057Y-50145714D02*
X69445295Y-50193333D01*
X69445295Y-50193333D02*
X69588152Y-50193333D01*
X69588152Y-50193333D02*
X69683390Y-50145714D01*
X69683390Y-50145714D02*
X69731009Y-50098095D01*
X69731009Y-50098095D02*
X69778628Y-50002857D01*
X69778628Y-50002857D02*
X69778628Y-49621905D01*
X69254819Y-51050476D02*
X69254819Y-50860000D01*
X69254819Y-50860000D02*
X69302438Y-50764762D01*
X69302438Y-50764762D02*
X69350057Y-50717143D01*
X69350057Y-50717143D02*
X69492914Y-50621905D01*
X69492914Y-50621905D02*
X69683390Y-50574286D01*
X69683390Y-50574286D02*
X70064342Y-50574286D01*
X70064342Y-50574286D02*
X70159580Y-50621905D01*
X70159580Y-50621905D02*
X70207200Y-50669524D01*
X70207200Y-50669524D02*
X70254819Y-50764762D01*
X70254819Y-50764762D02*
X70254819Y-50955238D01*
X70254819Y-50955238D02*
X70207200Y-51050476D01*
X70207200Y-51050476D02*
X70159580Y-51098095D01*
X70159580Y-51098095D02*
X70064342Y-51145714D01*
X70064342Y-51145714D02*
X69826247Y-51145714D01*
X69826247Y-51145714D02*
X69731009Y-51098095D01*
X69731009Y-51098095D02*
X69683390Y-51050476D01*
X69683390Y-51050476D02*
X69635771Y-50955238D01*
X69635771Y-50955238D02*
X69635771Y-50764762D01*
X69635771Y-50764762D02*
X69683390Y-50669524D01*
X69683390Y-50669524D02*
X69731009Y-50621905D01*
X69731009Y-50621905D02*
X69826247Y-50574286D01*
X92042857Y-38854819D02*
X92376190Y-38378628D01*
X92614285Y-38854819D02*
X92614285Y-37854819D01*
X92614285Y-37854819D02*
X92233333Y-37854819D01*
X92233333Y-37854819D02*
X92138095Y-37902438D01*
X92138095Y-37902438D02*
X92090476Y-37950057D01*
X92090476Y-37950057D02*
X92042857Y-38045295D01*
X92042857Y-38045295D02*
X92042857Y-38188152D01*
X92042857Y-38188152D02*
X92090476Y-38283390D01*
X92090476Y-38283390D02*
X92138095Y-38331009D01*
X92138095Y-38331009D02*
X92233333Y-38378628D01*
X92233333Y-38378628D02*
X92614285Y-38378628D01*
X91090476Y-38854819D02*
X91661904Y-38854819D01*
X91376190Y-38854819D02*
X91376190Y-37854819D01*
X91376190Y-37854819D02*
X91471428Y-37997676D01*
X91471428Y-37997676D02*
X91566666Y-38092914D01*
X91566666Y-38092914D02*
X91661904Y-38140533D01*
X90709523Y-37950057D02*
X90661904Y-37902438D01*
X90661904Y-37902438D02*
X90566666Y-37854819D01*
X90566666Y-37854819D02*
X90328571Y-37854819D01*
X90328571Y-37854819D02*
X90233333Y-37902438D01*
X90233333Y-37902438D02*
X90185714Y-37950057D01*
X90185714Y-37950057D02*
X90138095Y-38045295D01*
X90138095Y-38045295D02*
X90138095Y-38140533D01*
X90138095Y-38140533D02*
X90185714Y-38283390D01*
X90185714Y-38283390D02*
X90757142Y-38854819D01*
X90757142Y-38854819D02*
X90138095Y-38854819D01*
X58388094Y-42624819D02*
X58388094Y-41624819D01*
X58388094Y-41624819D02*
X58149999Y-41624819D01*
X58149999Y-41624819D02*
X58007142Y-41672438D01*
X58007142Y-41672438D02*
X57911904Y-41767676D01*
X57911904Y-41767676D02*
X57864285Y-41862914D01*
X57864285Y-41862914D02*
X57816666Y-42053390D01*
X57816666Y-42053390D02*
X57816666Y-42196247D01*
X57816666Y-42196247D02*
X57864285Y-42386723D01*
X57864285Y-42386723D02*
X57911904Y-42481961D01*
X57911904Y-42481961D02*
X58007142Y-42577200D01*
X58007142Y-42577200D02*
X58149999Y-42624819D01*
X58149999Y-42624819D02*
X58388094Y-42624819D01*
X57435713Y-41720057D02*
X57388094Y-41672438D01*
X57388094Y-41672438D02*
X57292856Y-41624819D01*
X57292856Y-41624819D02*
X57054761Y-41624819D01*
X57054761Y-41624819D02*
X56959523Y-41672438D01*
X56959523Y-41672438D02*
X56911904Y-41720057D01*
X56911904Y-41720057D02*
X56864285Y-41815295D01*
X56864285Y-41815295D02*
X56864285Y-41910533D01*
X56864285Y-41910533D02*
X56911904Y-42053390D01*
X56911904Y-42053390D02*
X57483332Y-42624819D01*
X57483332Y-42624819D02*
X56864285Y-42624819D01*
X54101904Y-42304819D02*
X54101904Y-41304819D01*
X53530476Y-42304819D02*
X53959047Y-41733390D01*
X53530476Y-41304819D02*
X54101904Y-41876247D01*
X62816666Y-75614819D02*
X63149999Y-75138628D01*
X63388094Y-75614819D02*
X63388094Y-74614819D01*
X63388094Y-74614819D02*
X63007142Y-74614819D01*
X63007142Y-74614819D02*
X62911904Y-74662438D01*
X62911904Y-74662438D02*
X62864285Y-74710057D01*
X62864285Y-74710057D02*
X62816666Y-74805295D01*
X62816666Y-74805295D02*
X62816666Y-74948152D01*
X62816666Y-74948152D02*
X62864285Y-75043390D01*
X62864285Y-75043390D02*
X62911904Y-75091009D01*
X62911904Y-75091009D02*
X63007142Y-75138628D01*
X63007142Y-75138628D02*
X63388094Y-75138628D01*
X62340475Y-75614819D02*
X62149999Y-75614819D01*
X62149999Y-75614819D02*
X62054761Y-75567200D01*
X62054761Y-75567200D02*
X62007142Y-75519580D01*
X62007142Y-75519580D02*
X61911904Y-75376723D01*
X61911904Y-75376723D02*
X61864285Y-75186247D01*
X61864285Y-75186247D02*
X61864285Y-74805295D01*
X61864285Y-74805295D02*
X61911904Y-74710057D01*
X61911904Y-74710057D02*
X61959523Y-74662438D01*
X61959523Y-74662438D02*
X62054761Y-74614819D01*
X62054761Y-74614819D02*
X62245237Y-74614819D01*
X62245237Y-74614819D02*
X62340475Y-74662438D01*
X62340475Y-74662438D02*
X62388094Y-74710057D01*
X62388094Y-74710057D02*
X62435713Y-74805295D01*
X62435713Y-74805295D02*
X62435713Y-75043390D01*
X62435713Y-75043390D02*
X62388094Y-75138628D01*
X62388094Y-75138628D02*
X62340475Y-75186247D01*
X62340475Y-75186247D02*
X62245237Y-75233866D01*
X62245237Y-75233866D02*
X62054761Y-75233866D01*
X62054761Y-75233866D02*
X61959523Y-75186247D01*
X61959523Y-75186247D02*
X61911904Y-75138628D01*
X61911904Y-75138628D02*
X61864285Y-75043390D01*
X69316666Y-59154819D02*
X69649999Y-58678628D01*
X69888094Y-59154819D02*
X69888094Y-58154819D01*
X69888094Y-58154819D02*
X69507142Y-58154819D01*
X69507142Y-58154819D02*
X69411904Y-58202438D01*
X69411904Y-58202438D02*
X69364285Y-58250057D01*
X69364285Y-58250057D02*
X69316666Y-58345295D01*
X69316666Y-58345295D02*
X69316666Y-58488152D01*
X69316666Y-58488152D02*
X69364285Y-58583390D01*
X69364285Y-58583390D02*
X69411904Y-58631009D01*
X69411904Y-58631009D02*
X69507142Y-58678628D01*
X69507142Y-58678628D02*
X69888094Y-58678628D01*
X68459523Y-58488152D02*
X68459523Y-59154819D01*
X68697618Y-58107200D02*
X68935713Y-58821485D01*
X68935713Y-58821485D02*
X68316666Y-58821485D01*
X70254819Y-53943333D02*
X69778628Y-53610000D01*
X70254819Y-53371905D02*
X69254819Y-53371905D01*
X69254819Y-53371905D02*
X69254819Y-53752857D01*
X69254819Y-53752857D02*
X69302438Y-53848095D01*
X69302438Y-53848095D02*
X69350057Y-53895714D01*
X69350057Y-53895714D02*
X69445295Y-53943333D01*
X69445295Y-53943333D02*
X69588152Y-53943333D01*
X69588152Y-53943333D02*
X69683390Y-53895714D01*
X69683390Y-53895714D02*
X69731009Y-53848095D01*
X69731009Y-53848095D02*
X69778628Y-53752857D01*
X69778628Y-53752857D02*
X69778628Y-53371905D01*
X69254819Y-54848095D02*
X69254819Y-54371905D01*
X69254819Y-54371905D02*
X69731009Y-54324286D01*
X69731009Y-54324286D02*
X69683390Y-54371905D01*
X69683390Y-54371905D02*
X69635771Y-54467143D01*
X69635771Y-54467143D02*
X69635771Y-54705238D01*
X69635771Y-54705238D02*
X69683390Y-54800476D01*
X69683390Y-54800476D02*
X69731009Y-54848095D01*
X69731009Y-54848095D02*
X69826247Y-54895714D01*
X69826247Y-54895714D02*
X70064342Y-54895714D01*
X70064342Y-54895714D02*
X70159580Y-54848095D01*
X70159580Y-54848095D02*
X70207200Y-54800476D01*
X70207200Y-54800476D02*
X70254819Y-54705238D01*
X70254819Y-54705238D02*
X70254819Y-54467143D01*
X70254819Y-54467143D02*
X70207200Y-54371905D01*
X70207200Y-54371905D02*
X70159580Y-54324286D01*
X41254819Y-38883333D02*
X40778628Y-38550000D01*
X41254819Y-38311905D02*
X40254819Y-38311905D01*
X40254819Y-38311905D02*
X40254819Y-38692857D01*
X40254819Y-38692857D02*
X40302438Y-38788095D01*
X40302438Y-38788095D02*
X40350057Y-38835714D01*
X40350057Y-38835714D02*
X40445295Y-38883333D01*
X40445295Y-38883333D02*
X40588152Y-38883333D01*
X40588152Y-38883333D02*
X40683390Y-38835714D01*
X40683390Y-38835714D02*
X40731009Y-38788095D01*
X40731009Y-38788095D02*
X40778628Y-38692857D01*
X40778628Y-38692857D02*
X40778628Y-38311905D01*
X40254819Y-39216667D02*
X40254819Y-39835714D01*
X40254819Y-39835714D02*
X40635771Y-39502381D01*
X40635771Y-39502381D02*
X40635771Y-39645238D01*
X40635771Y-39645238D02*
X40683390Y-39740476D01*
X40683390Y-39740476D02*
X40731009Y-39788095D01*
X40731009Y-39788095D02*
X40826247Y-39835714D01*
X40826247Y-39835714D02*
X41064342Y-39835714D01*
X41064342Y-39835714D02*
X41159580Y-39788095D01*
X41159580Y-39788095D02*
X41207200Y-39740476D01*
X41207200Y-39740476D02*
X41254819Y-39645238D01*
X41254819Y-39645238D02*
X41254819Y-39359524D01*
X41254819Y-39359524D02*
X41207200Y-39264286D01*
X41207200Y-39264286D02*
X41159580Y-39216667D01*
X74792857Y-66604819D02*
X75126190Y-66128628D01*
X75364285Y-66604819D02*
X75364285Y-65604819D01*
X75364285Y-65604819D02*
X74983333Y-65604819D01*
X74983333Y-65604819D02*
X74888095Y-65652438D01*
X74888095Y-65652438D02*
X74840476Y-65700057D01*
X74840476Y-65700057D02*
X74792857Y-65795295D01*
X74792857Y-65795295D02*
X74792857Y-65938152D01*
X74792857Y-65938152D02*
X74840476Y-66033390D01*
X74840476Y-66033390D02*
X74888095Y-66081009D01*
X74888095Y-66081009D02*
X74983333Y-66128628D01*
X74983333Y-66128628D02*
X75364285Y-66128628D01*
X73840476Y-66604819D02*
X74411904Y-66604819D01*
X74126190Y-66604819D02*
X74126190Y-65604819D01*
X74126190Y-65604819D02*
X74221428Y-65747676D01*
X74221428Y-65747676D02*
X74316666Y-65842914D01*
X74316666Y-65842914D02*
X74411904Y-65890533D01*
X72935714Y-65604819D02*
X73411904Y-65604819D01*
X73411904Y-65604819D02*
X73459523Y-66081009D01*
X73459523Y-66081009D02*
X73411904Y-66033390D01*
X73411904Y-66033390D02*
X73316666Y-65985771D01*
X73316666Y-65985771D02*
X73078571Y-65985771D01*
X73078571Y-65985771D02*
X72983333Y-66033390D01*
X72983333Y-66033390D02*
X72935714Y-66081009D01*
X72935714Y-66081009D02*
X72888095Y-66176247D01*
X72888095Y-66176247D02*
X72888095Y-66414342D01*
X72888095Y-66414342D02*
X72935714Y-66509580D01*
X72935714Y-66509580D02*
X72983333Y-66557200D01*
X72983333Y-66557200D02*
X73078571Y-66604819D01*
X73078571Y-66604819D02*
X73316666Y-66604819D01*
X73316666Y-66604819D02*
X73411904Y-66557200D01*
X73411904Y-66557200D02*
X73459523Y-66509580D01*
X57042857Y-66604819D02*
X57376190Y-66128628D01*
X57614285Y-66604819D02*
X57614285Y-65604819D01*
X57614285Y-65604819D02*
X57233333Y-65604819D01*
X57233333Y-65604819D02*
X57138095Y-65652438D01*
X57138095Y-65652438D02*
X57090476Y-65700057D01*
X57090476Y-65700057D02*
X57042857Y-65795295D01*
X57042857Y-65795295D02*
X57042857Y-65938152D01*
X57042857Y-65938152D02*
X57090476Y-66033390D01*
X57090476Y-66033390D02*
X57138095Y-66081009D01*
X57138095Y-66081009D02*
X57233333Y-66128628D01*
X57233333Y-66128628D02*
X57614285Y-66128628D01*
X56090476Y-66604819D02*
X56661904Y-66604819D01*
X56376190Y-66604819D02*
X56376190Y-65604819D01*
X56376190Y-65604819D02*
X56471428Y-65747676D01*
X56471428Y-65747676D02*
X56566666Y-65842914D01*
X56566666Y-65842914D02*
X56661904Y-65890533D01*
X55757142Y-65604819D02*
X55138095Y-65604819D01*
X55138095Y-65604819D02*
X55471428Y-65985771D01*
X55471428Y-65985771D02*
X55328571Y-65985771D01*
X55328571Y-65985771D02*
X55233333Y-66033390D01*
X55233333Y-66033390D02*
X55185714Y-66081009D01*
X55185714Y-66081009D02*
X55138095Y-66176247D01*
X55138095Y-66176247D02*
X55138095Y-66414342D01*
X55138095Y-66414342D02*
X55185714Y-66509580D01*
X55185714Y-66509580D02*
X55233333Y-66557200D01*
X55233333Y-66557200D02*
X55328571Y-66604819D01*
X55328571Y-66604819D02*
X55614285Y-66604819D01*
X55614285Y-66604819D02*
X55709523Y-66557200D01*
X55709523Y-66557200D02*
X55757142Y-66509580D01*
X45291666Y-39854819D02*
X45624999Y-39378628D01*
X45863094Y-39854819D02*
X45863094Y-38854819D01*
X45863094Y-38854819D02*
X45482142Y-38854819D01*
X45482142Y-38854819D02*
X45386904Y-38902438D01*
X45386904Y-38902438D02*
X45339285Y-38950057D01*
X45339285Y-38950057D02*
X45291666Y-39045295D01*
X45291666Y-39045295D02*
X45291666Y-39188152D01*
X45291666Y-39188152D02*
X45339285Y-39283390D01*
X45339285Y-39283390D02*
X45386904Y-39331009D01*
X45386904Y-39331009D02*
X45482142Y-39378628D01*
X45482142Y-39378628D02*
X45863094Y-39378628D01*
X44958332Y-38854819D02*
X44291666Y-38854819D01*
X44291666Y-38854819D02*
X44720237Y-39854819D01*
X92042857Y-35404819D02*
X92376190Y-34928628D01*
X92614285Y-35404819D02*
X92614285Y-34404819D01*
X92614285Y-34404819D02*
X92233333Y-34404819D01*
X92233333Y-34404819D02*
X92138095Y-34452438D01*
X92138095Y-34452438D02*
X92090476Y-34500057D01*
X92090476Y-34500057D02*
X92042857Y-34595295D01*
X92042857Y-34595295D02*
X92042857Y-34738152D01*
X92042857Y-34738152D02*
X92090476Y-34833390D01*
X92090476Y-34833390D02*
X92138095Y-34881009D01*
X92138095Y-34881009D02*
X92233333Y-34928628D01*
X92233333Y-34928628D02*
X92614285Y-34928628D01*
X91090476Y-35404819D02*
X91661904Y-35404819D01*
X91376190Y-35404819D02*
X91376190Y-34404819D01*
X91376190Y-34404819D02*
X91471428Y-34547676D01*
X91471428Y-34547676D02*
X91566666Y-34642914D01*
X91566666Y-34642914D02*
X91661904Y-34690533D01*
X90138095Y-35404819D02*
X90709523Y-35404819D01*
X90423809Y-35404819D02*
X90423809Y-34404819D01*
X90423809Y-34404819D02*
X90519047Y-34547676D01*
X90519047Y-34547676D02*
X90614285Y-34642914D01*
X90614285Y-34642914D02*
X90709523Y-34690533D01*
X42536904Y-42879819D02*
X42536904Y-43689342D01*
X42536904Y-43689342D02*
X42489285Y-43784580D01*
X42489285Y-43784580D02*
X42441666Y-43832200D01*
X42441666Y-43832200D02*
X42346428Y-43879819D01*
X42346428Y-43879819D02*
X42155952Y-43879819D01*
X42155952Y-43879819D02*
X42060714Y-43832200D01*
X42060714Y-43832200D02*
X42013095Y-43784580D01*
X42013095Y-43784580D02*
X41965476Y-43689342D01*
X41965476Y-43689342D02*
X41965476Y-42879819D01*
X40965476Y-43879819D02*
X41536904Y-43879819D01*
X41251190Y-43879819D02*
X41251190Y-42879819D01*
X41251190Y-42879819D02*
X41346428Y-43022676D01*
X41346428Y-43022676D02*
X41441666Y-43117914D01*
X41441666Y-43117914D02*
X41536904Y-43165533D01*
X54166666Y-75604819D02*
X54499999Y-75128628D01*
X54738094Y-75604819D02*
X54738094Y-74604819D01*
X54738094Y-74604819D02*
X54357142Y-74604819D01*
X54357142Y-74604819D02*
X54261904Y-74652438D01*
X54261904Y-74652438D02*
X54214285Y-74700057D01*
X54214285Y-74700057D02*
X54166666Y-74795295D01*
X54166666Y-74795295D02*
X54166666Y-74938152D01*
X54166666Y-74938152D02*
X54214285Y-75033390D01*
X54214285Y-75033390D02*
X54261904Y-75081009D01*
X54261904Y-75081009D02*
X54357142Y-75128628D01*
X54357142Y-75128628D02*
X54738094Y-75128628D01*
X53595237Y-75033390D02*
X53690475Y-74985771D01*
X53690475Y-74985771D02*
X53738094Y-74938152D01*
X53738094Y-74938152D02*
X53785713Y-74842914D01*
X53785713Y-74842914D02*
X53785713Y-74795295D01*
X53785713Y-74795295D02*
X53738094Y-74700057D01*
X53738094Y-74700057D02*
X53690475Y-74652438D01*
X53690475Y-74652438D02*
X53595237Y-74604819D01*
X53595237Y-74604819D02*
X53404761Y-74604819D01*
X53404761Y-74604819D02*
X53309523Y-74652438D01*
X53309523Y-74652438D02*
X53261904Y-74700057D01*
X53261904Y-74700057D02*
X53214285Y-74795295D01*
X53214285Y-74795295D02*
X53214285Y-74842914D01*
X53214285Y-74842914D02*
X53261904Y-74938152D01*
X53261904Y-74938152D02*
X53309523Y-74985771D01*
X53309523Y-74985771D02*
X53404761Y-75033390D01*
X53404761Y-75033390D02*
X53595237Y-75033390D01*
X53595237Y-75033390D02*
X53690475Y-75081009D01*
X53690475Y-75081009D02*
X53738094Y-75128628D01*
X53738094Y-75128628D02*
X53785713Y-75223866D01*
X53785713Y-75223866D02*
X53785713Y-75414342D01*
X53785713Y-75414342D02*
X53738094Y-75509580D01*
X53738094Y-75509580D02*
X53690475Y-75557200D01*
X53690475Y-75557200D02*
X53595237Y-75604819D01*
X53595237Y-75604819D02*
X53404761Y-75604819D01*
X53404761Y-75604819D02*
X53309523Y-75557200D01*
X53309523Y-75557200D02*
X53261904Y-75509580D01*
X53261904Y-75509580D02*
X53214285Y-75414342D01*
X53214285Y-75414342D02*
X53214285Y-75223866D01*
X53214285Y-75223866D02*
X53261904Y-75128628D01*
X53261904Y-75128628D02*
X53309523Y-75081009D01*
X53309523Y-75081009D02*
X53404761Y-75033390D01*
X42446666Y-56494819D02*
X42922856Y-56494819D01*
X42922856Y-56494819D02*
X42922856Y-55494819D01*
X41589523Y-56494819D02*
X42160951Y-56494819D01*
X41875237Y-56494819D02*
X41875237Y-55494819D01*
X41875237Y-55494819D02*
X41970475Y-55637676D01*
X41970475Y-55637676D02*
X42065713Y-55732914D01*
X42065713Y-55732914D02*
X42160951Y-55780533D01*
D11*
%TO.C,U2*%
X69550000Y-49195000D02*
X69550000Y-50560000D01*
X69550000Y-50560000D02*
X70500000Y-50560000D01*
X79950000Y-49195000D02*
X79950000Y-50560000D01*
X79950000Y-50560000D02*
X79000000Y-50560000D01*
X79430000Y-53725000D02*
X78960000Y-53385000D01*
X79430000Y-53045000D01*
X79430000Y-53725000D01*
G36*
X79430000Y-53725000D02*
G01*
X78960000Y-53385000D01*
X79430000Y-53045000D01*
X79430000Y-53725000D01*
G37*
%TO.C,J2*%
X68060000Y-29920000D02*
X68060000Y-31300000D01*
X69440000Y-29920000D02*
X68060000Y-29920000D01*
X70710000Y-29920000D02*
X70710000Y-32680000D01*
X70710000Y-29920000D02*
X88600000Y-29920000D01*
X70710000Y-32680000D02*
X88600000Y-32680000D01*
X88600000Y-29920000D02*
X88600000Y-32680000D01*
%TO.C,R10*%
X71627064Y-76065000D02*
X71172936Y-76065000D01*
X71627064Y-77535000D02*
X71172936Y-77535000D01*
%TO.C,L2*%
X81100000Y-48060000D02*
X81100000Y-60660000D01*
X81100000Y-60660000D02*
X84100000Y-60660000D01*
X84100000Y-48060000D02*
X81100000Y-48060000D01*
X90700000Y-60660000D02*
X93700000Y-60660000D01*
X93700000Y-48060000D02*
X90700000Y-48060000D01*
X93700000Y-60660000D02*
X93700000Y-48060000D01*
%TO.C,R1*%
X38415000Y-47027064D02*
X38415000Y-46572936D01*
X39885000Y-47027064D02*
X39885000Y-46572936D01*
%TO.C,R2*%
X38415000Y-43027064D02*
X38415000Y-42572936D01*
X39885000Y-43027064D02*
X39885000Y-42572936D01*
%TO.C,R14*%
X65377064Y-67065000D02*
X64922936Y-67065000D01*
X65377064Y-68535000D02*
X64922936Y-68535000D01*
%TO.C,J6*%
X94155000Y-29920000D02*
X94155000Y-31300000D01*
X95535000Y-29920000D02*
X94155000Y-29920000D01*
X96805000Y-29920000D02*
X96805000Y-32680000D01*
X96805000Y-29920000D02*
X99455000Y-29920000D01*
X96805000Y-32680000D02*
X99455000Y-32680000D01*
X99455000Y-29920000D02*
X99455000Y-32680000D01*
%TO.C,R6*%
X67415000Y-50587064D02*
X67415000Y-50132936D01*
X68885000Y-50587064D02*
X68885000Y-50132936D01*
%TO.C,R12*%
X91627064Y-39315000D02*
X91172936Y-39315000D01*
X91627064Y-40785000D02*
X91172936Y-40785000D01*
%TO.C,D2*%
X54880000Y-40050000D02*
X55530000Y-40050000D01*
X56130000Y-41170000D02*
X56130000Y-38930000D01*
X56250000Y-41170000D02*
X56250000Y-38930000D01*
X56370000Y-41170000D02*
X56370000Y-38930000D01*
X60420000Y-40050000D02*
X59770000Y-40050000D01*
X55530000Y-41170000D02*
X59770000Y-41170000D01*
X59770000Y-38930000D01*
X55530000Y-38930000D01*
X55530000Y-41170000D01*
%TO.C,R9*%
X62877064Y-76075000D02*
X62422936Y-76075000D01*
X62877064Y-77545000D02*
X62422936Y-77545000D01*
%TO.C,R4*%
X68922936Y-56315000D02*
X69377064Y-56315000D01*
X68922936Y-57785000D02*
X69377064Y-57785000D01*
%TO.C,R5*%
X67415000Y-54337064D02*
X67415000Y-53882936D01*
X68885000Y-54337064D02*
X68885000Y-53882936D01*
%TO.C,R3*%
X38415000Y-39277064D02*
X38415000Y-38822936D01*
X39885000Y-39277064D02*
X39885000Y-38822936D01*
%TO.C,R15*%
X74377064Y-67065000D02*
X73922936Y-67065000D01*
X74377064Y-68535000D02*
X73922936Y-68535000D01*
%TO.C,R13*%
X56627064Y-67065000D02*
X56172936Y-67065000D01*
X56627064Y-68535000D02*
X56172936Y-68535000D01*
%TO.C,R7*%
X45352064Y-40315000D02*
X44897936Y-40315000D01*
X45352064Y-41785000D02*
X44897936Y-41785000D01*
%TO.C,R11*%
X91172936Y-32565000D02*
X91627064Y-32565000D01*
X91172936Y-34035000D02*
X91627064Y-34035000D01*
%TO.C,U1*%
X46200000Y-45325000D02*
X46200000Y-46275000D01*
X46200000Y-55725000D02*
X46200000Y-54775000D01*
X47565000Y-45325000D02*
X46200000Y-45325000D01*
X47565000Y-55725000D02*
X46200000Y-55725000D01*
X43715000Y-55205000D02*
X43035000Y-55205000D01*
X43375000Y-54735000D01*
X43715000Y-55205000D01*
G36*
X43715000Y-55205000D02*
G01*
X43035000Y-55205000D01*
X43375000Y-54735000D01*
X43715000Y-55205000D01*
G37*
%TO.C,R8*%
X54227064Y-77535000D02*
X53772936Y-77535000D01*
X54227064Y-76065000D02*
X53772936Y-76065000D01*
%TO.C,L1*%
X35980000Y-56840000D02*
X35980000Y-59840000D01*
X35980000Y-66440000D02*
X35980000Y-69440000D01*
X35980000Y-69440000D02*
X48580000Y-69440000D01*
X48580000Y-56840000D02*
X35980000Y-56840000D01*
X48580000Y-59840000D02*
X48580000Y-56840000D01*
X48580000Y-69440000D02*
X48580000Y-66440000D01*
%TD*%
M02*
