M48
; DRILL file {KiCad 9.0.4} date 2026-03-10T18:05:56+0000
; FORMAT={-:-/ absolute / metric / decimal}
; #@! TF.CreationDate,2026-03-10T18:05:56+00:00
; #@! TF.GenerationSoftware,Kicad,Pcbnew,9.0.4
; #@! TF.FileFunction,MixedPlating,1,2
FMAT,2
METRIC
; #@! TA.AperFunction,Plated,PTH,ComponentDrill
T1C0.800
; #@! TA.AperFunction,Plated,PTH,ViaDrill
T2C0.900
; #@! TA.AperFunction,Plated,PTH,ComponentDrill
T3C1.000
; #@! TA.AperFunction,Plated,PTH,ComponentDrill
T4C1.190
; #@! TA.AperFunction,Plated,PTH,ComponentDrill
T5C1.200
; #@! TA.AperFunction,Plated,PTH,ComponentDrill
T6C1.300
; #@! TA.AperFunction,Plated,PTH,ComponentDrill
T7C1.600
; #@! TA.AperFunction,NonPlated,NPTH,ComponentDrill
T8C3.200
%
G90
G05
T1
X53.84Y-40.05
X61.46Y-40.05
X64.25Y-48.24
X64.25Y-55.86
X82.4Y-37.55
X82.4Y-45.17
X89.94Y-36.34
X89.94Y-43.96
X92.48Y-36.34
X92.48Y-43.96
X95.02Y-36.34
X95.02Y-43.96
X97.56Y-36.34
X97.56Y-43.96
T2
X23.9Y-74.55
X24.627Y-72.368
X24.681Y-69.565
X24.8Y-40.8
X35.0Y-46.0
X35.4Y-28.55
X36.15Y-34.05
X36.65Y-74.05
X39.4Y-55.4
X41.9Y-43.3
X46.974Y-43.077
X49.4Y-34.8
X51.744Y-76.75
X54.9Y-60.3
X59.15Y-76.8
X59.65Y-66.55
X61.547Y-67.85
X67.65Y-76.601
X67.7Y-36.95
X69.9Y-67.8
X79.2Y-75.2
X84.15Y-28.05
X87.65Y-40.05
X91.4Y-31.05
X94.6Y-80.4
X95.02Y-46.16
X95.15Y-33.8
X96.9Y-57.05
X97.4Y-40.3
T3
X30.2Y-62.2
X30.2Y-67.2
X69.44Y-31.3
X71.98Y-31.3
X74.52Y-31.3
X77.06Y-31.3
X79.6Y-31.3
X82.14Y-31.3
X84.68Y-31.3
X85.368Y-62.6
X87.22Y-31.3
X90.368Y-62.6
X95.535Y-31.3
X98.075Y-31.3
T4
X31.4Y-31.68
X31.4Y-34.22
X31.4Y-36.76
X31.4Y-39.3
X52.36Y-72.28
X54.9Y-72.28
X57.44Y-72.28
X61.24Y-72.28
X63.78Y-72.28
X66.32Y-72.28
X70.04Y-72.28
X72.58Y-72.28
X75.12Y-72.28
T5
X30.2Y-50.085
X30.2Y-55.085
X86.2Y-75.2
X91.2Y-75.2
T6
X39.0Y-52.05
X43.65Y-34.05
X61.0Y-52.05
X65.65Y-34.05
X76.15Y-37.61
X76.15Y-59.61
T7
X32.16Y-72.8
X47.4Y-72.8
X49.97Y-41.59
X65.21Y-41.59
X96.9Y-49.24
X96.9Y-64.48
T8
X26.0Y-26.0
X26.1Y-78.55
X61.0Y-25.95
X99.15Y-78.55
M30
