%TF.GenerationSoftware,KiCad,Pcbnew,9.0.4*%
%TF.CreationDate,2026-03-18T07:23:28+00:00*%
%TF.ProjectId,Switch Encoder Controller,53776974-6368-4204-956e-636f64657220,rev?*%
%TF.SameCoordinates,Original*%
%TF.FileFunction,Paste,Bot*%
%TF.FilePolarity,Positive*%
%FSLAX46Y46*%
G04 Gerber Fmt 4.6, Leading zero omitted, Abs format (unit mm)*
G04 Created by KiCad (PCBNEW 9.0.4) date 2026-03-18 07:23:28*
%MOMM*%
%LPD*%
G01*
G04 APERTURE LIST*
G04 Aperture macros list*
%AMRoundRect*
0 Rectangle with rounded corners*
0 $1 Rounding radius*
0 $2 $3 $4 $5 $6 $7 $8 $9 X,Y pos of 4 corners*
0 Add a 4 corners polygon primitive as box body*
4,1,4,$2,$3,$4,$5,$6,$7,$8,$9,$2,$3,0*
0 Add four circle primitives for the rounded corners*
1,1,$1+$1,$2,$3*
1,1,$1+$1,$4,$5*
1,1,$1+$1,$6,$7*
1,1,$1+$1,$8,$9*
0 Add four rect primitives between the rounded corners*
20,1,$1+$1,$2,$3,$4,$5,0*
20,1,$1+$1,$4,$5,$6,$7,0*
20,1,$1+$1,$6,$7,$8,$9,0*
20,1,$1+$1,$8,$9,$2,$3,0*%
G04 Aperture macros list end*
%ADD10RoundRect,0.250000X0.350000X0.450000X-0.350000X0.450000X-0.350000X-0.450000X0.350000X-0.450000X0*%
%ADD11RoundRect,0.250000X-0.350000X-0.450000X0.350000X-0.450000X0.350000X0.450000X-0.350000X0.450000X0*%
%ADD12RoundRect,0.250000X0.450000X-0.350000X0.450000X0.350000X-0.450000X0.350000X-0.450000X-0.350000X0*%
%ADD13RoundRect,0.250000X0.475000X-0.337500X0.475000X0.337500X-0.475000X0.337500X-0.475000X-0.337500X0*%
%ADD14RoundRect,0.250000X-0.337500X-0.475000X0.337500X-0.475000X0.337500X0.475000X-0.337500X0.475000X0*%
G04 APERTURE END LIST*
D10*
%TO.C,R202*%
X54100000Y-70600000D03*
X52100000Y-70600000D03*
%TD*%
D11*
%TO.C,R201*%
X52100000Y-72500000D03*
X54100000Y-72500000D03*
%TD*%
D12*
%TO.C,R2*%
X59900000Y-95000000D03*
X59900000Y-93000000D03*
%TD*%
%TO.C,R22*%
X113100000Y-95000000D03*
X113100000Y-93000000D03*
%TD*%
D13*
%TO.C,C8*%
X79650000Y-63037500D03*
X79650000Y-60962500D03*
%TD*%
D10*
%TO.C,R103*%
X102100000Y-47900000D03*
X100100000Y-47900000D03*
%TD*%
D13*
%TO.C,C7*%
X72700000Y-88437500D03*
X72700000Y-86362500D03*
%TD*%
D12*
%TO.C,R15*%
X94200000Y-95000000D03*
X94200000Y-93000000D03*
%TD*%
D13*
%TO.C,C6*%
X70600000Y-88437500D03*
X70600000Y-86362500D03*
%TD*%
D12*
%TO.C,R16*%
X96700000Y-95000000D03*
X96700000Y-93000000D03*
%TD*%
D13*
%TO.C,C13*%
X91550000Y-85500000D03*
X91550000Y-83425000D03*
%TD*%
D12*
%TO.C,R1*%
X57400000Y-95000000D03*
X57400000Y-93000000D03*
%TD*%
%TO.C,R19*%
X105500000Y-95000000D03*
X105500000Y-93000000D03*
%TD*%
%TO.C,R9*%
X77700000Y-95000000D03*
X77700000Y-93000000D03*
%TD*%
D14*
%TO.C,C18*%
X122625000Y-68890000D03*
X124700000Y-68890000D03*
%TD*%
%TO.C,C1*%
X72100000Y-66590000D03*
X74175000Y-66590000D03*
%TD*%
%TO.C,C10*%
X98025000Y-68790000D03*
X100100000Y-68790000D03*
%TD*%
D12*
%TO.C,R13*%
X89100000Y-95100000D03*
X89100000Y-93100000D03*
%TD*%
D14*
%TO.C,C101*%
X72025000Y-79190000D03*
X74100000Y-79190000D03*
%TD*%
%TO.C,C12*%
X98025000Y-73890000D03*
X100100000Y-73890000D03*
%TD*%
D12*
%TO.C,R6*%
X70100000Y-95000000D03*
X70100000Y-93000000D03*
%TD*%
D14*
%TO.C,C21*%
X117712500Y-81800000D03*
X119787500Y-81800000D03*
%TD*%
D12*
%TO.C,R4*%
X65000000Y-95000000D03*
X65000000Y-93000000D03*
%TD*%
D14*
%TO.C,C11*%
X98025000Y-71390000D03*
X100100000Y-71390000D03*
%TD*%
D12*
%TO.C,R7*%
X72600000Y-95000000D03*
X72600000Y-93000000D03*
%TD*%
%TO.C,R8*%
X75200000Y-95000000D03*
X75200000Y-93000000D03*
%TD*%
D14*
%TO.C,C9*%
X98025000Y-66290000D03*
X100100000Y-66290000D03*
%TD*%
%TO.C,C3*%
X72062500Y-71690000D03*
X74137500Y-71690000D03*
%TD*%
D12*
%TO.C,R20*%
X108100000Y-95000000D03*
X108100000Y-93000000D03*
%TD*%
D13*
%TO.C,C103*%
X122550000Y-78337500D03*
X122550000Y-76262500D03*
%TD*%
D12*
%TO.C,R3*%
X62500000Y-95000000D03*
X62500000Y-93000000D03*
%TD*%
D14*
%TO.C,C20*%
X122625000Y-73990000D03*
X124700000Y-73990000D03*
%TD*%
D13*
%TO.C,C16*%
X105600000Y-62737500D03*
X105600000Y-60662500D03*
%TD*%
D14*
%TO.C,C4*%
X72062500Y-74190000D03*
X74137500Y-74190000D03*
%TD*%
D10*
%TO.C,R102*%
X98100000Y-50900000D03*
X96100000Y-50900000D03*
%TD*%
D14*
%TO.C,C19*%
X122625000Y-71490000D03*
X124700000Y-71490000D03*
%TD*%
D13*
%TO.C,C102*%
X97950000Y-78287500D03*
X97950000Y-76212500D03*
%TD*%
D14*
%TO.C,C17*%
X122625000Y-66390000D03*
X124700000Y-66390000D03*
%TD*%
D12*
%TO.C,R18*%
X101800000Y-95000000D03*
X101800000Y-93000000D03*
%TD*%
%TO.C,R14*%
X91600000Y-95000000D03*
X91600000Y-93000000D03*
%TD*%
%TO.C,R11*%
X84000000Y-95000000D03*
X84000000Y-93000000D03*
%TD*%
D13*
%TO.C,C5*%
X67000000Y-85337500D03*
X67000000Y-83262500D03*
%TD*%
D14*
%TO.C,C2*%
X72100000Y-69090000D03*
X74175000Y-69090000D03*
%TD*%
D13*
%TO.C,C22*%
X130900000Y-69737500D03*
X130900000Y-67662500D03*
%TD*%
D12*
%TO.C,R21*%
X110600000Y-95000000D03*
X110600000Y-93000000D03*
%TD*%
%TO.C,R17*%
X99300000Y-95000000D03*
X99300000Y-93000000D03*
%TD*%
%TO.C,R10*%
X80400000Y-95000000D03*
X80400000Y-93000000D03*
%TD*%
%TO.C,R5*%
X67600000Y-95000000D03*
X67600000Y-93000000D03*
%TD*%
D14*
%TO.C,C14*%
X94312500Y-85000000D03*
X96387500Y-85000000D03*
%TD*%
D12*
%TO.C,R12*%
X86600000Y-95000000D03*
X86600000Y-93000000D03*
%TD*%
D13*
%TO.C,C15*%
X100700000Y-85937500D03*
X100700000Y-83862500D03*
%TD*%
D10*
%TO.C,R101*%
X102100000Y-50900000D03*
X100100000Y-50900000D03*
%TD*%
M02*
