%TF.GenerationSoftware,KiCad,Pcbnew,9.0.4*%
%TF.CreationDate,2026-03-18T07:23:28+00:00*%
%TF.ProjectId,Switch Encoder Controller,53776974-6368-4204-956e-636f64657220,rev?*%
%TF.SameCoordinates,Original*%
%TF.FileFunction,Soldermask,Top*%
%TF.FilePolarity,Negative*%
%FSLAX46Y46*%
G04 Gerber Fmt 4.6, Leading zero omitted, Abs format (unit mm)*
G04 Created by KiCad (PCBNEW 9.0.4) date 2026-03-18 07:23:28*
%MOMM*%
%LPD*%
G01*
G04 APERTURE LIST*
G04 Aperture macros list*
%AMRoundRect*
0 Rectangle with rounded corners*
0 $1 Rounding radius*
0 $2 $3 $4 $5 $6 $7 $8 $9 X,Y pos of 4 corners*
0 Add a 4 corners polygon primitive as box body*
4,1,4,$2,$3,$4,$5,$6,$7,$8,$9,$2,$3,0*
0 Add four circle primitives for the rounded corners*
1,1,$1+$1,$2,$3*
1,1,$1+$1,$4,$5*
1,1,$1+$1,$6,$7*
1,1,$1+$1,$8,$9*
0 Add four rect primitives between the rounded corners*
20,1,$1+$1,$2,$3,$4,$5,0*
20,1,$1+$1,$4,$5,$6,$7,0*
20,1,$1+$1,$6,$7,$8,$9,0*
20,1,$1+$1,$8,$9,$2,$3,0*%
G04 Aperture macros list end*
%ADD10RoundRect,0.250000X0.620000X0.845000X-0.620000X0.845000X-0.620000X-0.845000X0.620000X-0.845000X0*%
%ADD11O,1.740000X2.190000*%
%ADD12RoundRect,0.250000X-0.620000X-0.845000X0.620000X-0.845000X0.620000X0.845000X-0.620000X0.845000X0*%
%ADD13RoundRect,0.250000X0.845000X-0.620000X0.845000X0.620000X-0.845000X0.620000X-0.845000X-0.620000X0*%
%ADD14O,2.190000X1.740000*%
%ADD15RoundRect,0.250000X0.550000X-0.550000X0.550000X0.550000X-0.550000X0.550000X-0.550000X-0.550000X0*%
%ADD16C,1.600000*%
%ADD17RoundRect,0.250000X-0.550000X-0.550000X0.550000X-0.550000X0.550000X0.550000X-0.550000X0.550000X0*%
%ADD18RoundRect,0.250000X0.950000X0.550000X-0.950000X0.550000X-0.950000X-0.550000X0.950000X-0.550000X0*%
%ADD19O,2.400000X1.600000*%
%ADD20C,3.200000*%
%ADD21RoundRect,0.250000X0.550000X0.550000X-0.550000X0.550000X-0.550000X-0.550000X0.550000X-0.550000X0*%
%ADD22R,1.500000X2.000000*%
%ADD23O,1.500000X2.000000*%
G04 APERTURE END LIST*
D10*
%TO.C,J3*%
X118200000Y-90500000D03*
D11*
X115660000Y-90500000D03*
X113120000Y-90500000D03*
X110580000Y-90500000D03*
X108040000Y-90500000D03*
X105500000Y-90500000D03*
%TD*%
%TO.C,J4*%
X90010000Y-47920000D03*
X87470000Y-47920000D03*
X84930000Y-47920000D03*
X82390000Y-47920000D03*
X79850000Y-47920000D03*
X77310000Y-47920000D03*
X74770000Y-47920000D03*
X72230000Y-47920000D03*
X69690000Y-47920000D03*
D12*
X67150000Y-47920000D03*
%TD*%
D13*
%TO.C,J5*%
X49400000Y-77960000D03*
D14*
X49400000Y-75420000D03*
X49400000Y-72880000D03*
X49400000Y-70340000D03*
X49400000Y-67800000D03*
X49400000Y-65260000D03*
X49400000Y-62720000D03*
X49400000Y-60180000D03*
%TD*%
D15*
%TO.C,D8*%
X88000000Y-72860000D03*
D16*
X88000000Y-65240000D03*
%TD*%
D15*
%TO.C,D19*%
X111550000Y-69460000D03*
D16*
X111550000Y-61840000D03*
%TD*%
D15*
%TO.C,D18*%
X114150000Y-74050000D03*
D16*
X114150000Y-66430000D03*
%TD*%
D10*
%TO.C,J2*%
X101780000Y-90500000D03*
D11*
X99240000Y-90500000D03*
X96700000Y-90500000D03*
X94160000Y-90500000D03*
X91620000Y-90500000D03*
X89080000Y-90500000D03*
X86540000Y-90500000D03*
X84000000Y-90500000D03*
%TD*%
D15*
%TO.C,D17*%
X116650000Y-68660000D03*
D16*
X116650000Y-61040000D03*
%TD*%
D10*
%TO.C,J1*%
X80240000Y-90500000D03*
D11*
X77700000Y-90500000D03*
X75160000Y-90500000D03*
X72620000Y-90500000D03*
X70080000Y-90500000D03*
X67540000Y-90500000D03*
X65000000Y-90500000D03*
X62460000Y-90500000D03*
X59920000Y-90500000D03*
X57380000Y-90500000D03*
%TD*%
D17*
%TO.C,D21*%
X117690000Y-83950000D03*
D16*
X125310000Y-83950000D03*
%TD*%
D18*
%TO.C,U3*%
X127562500Y-79090000D03*
D19*
X127562500Y-76550000D03*
X127562500Y-74010000D03*
X127562500Y-71470000D03*
X127562500Y-68930000D03*
X127562500Y-66390000D03*
X127562500Y-63850000D03*
X127562500Y-61310000D03*
X119942500Y-61310000D03*
X119942500Y-63850000D03*
X119942500Y-66390000D03*
X119942500Y-68930000D03*
X119942500Y-71470000D03*
X119942500Y-74010000D03*
X119942500Y-76550000D03*
X119942500Y-79090000D03*
%TD*%
D15*
%TO.C,D1*%
X57400000Y-77710000D03*
D16*
X57400000Y-70090000D03*
%TD*%
D15*
%TO.C,D6*%
X82750000Y-74510000D03*
D16*
X82750000Y-66890000D03*
%TD*%
D15*
%TO.C,D2*%
X60100000Y-77660000D03*
D16*
X60100000Y-70040000D03*
%TD*%
D15*
%TO.C,D7*%
X85500000Y-72260000D03*
D16*
X85500000Y-64640000D03*
%TD*%
D17*
%TO.C,D15*%
X93840000Y-97150000D03*
D16*
X101460000Y-97150000D03*
%TD*%
D15*
%TO.C,D10*%
X86400000Y-62020000D03*
D16*
X86400000Y-54400000D03*
%TD*%
D20*
%TO.C,H1*%
X49000000Y-46120000D03*
%TD*%
D15*
%TO.C,D9*%
X83900000Y-62020000D03*
D16*
X83900000Y-54400000D03*
%TD*%
D21*
%TO.C,D14*%
X91660000Y-97150000D03*
D16*
X84040000Y-97150000D03*
%TD*%
D15*
%TO.C,D20*%
X109000000Y-67310000D03*
D16*
X109000000Y-59690000D03*
%TD*%
D15*
%TO.C,D12*%
X91500000Y-62010000D03*
D16*
X91500000Y-54390000D03*
%TD*%
D15*
%TO.C,D5*%
X79850000Y-74460000D03*
D16*
X79850000Y-66840000D03*
%TD*%
D18*
%TO.C,U1*%
X76975000Y-79290000D03*
D19*
X76975000Y-76750000D03*
X76975000Y-74210000D03*
X76975000Y-71670000D03*
X76975000Y-69130000D03*
X76975000Y-66590000D03*
X76975000Y-64050000D03*
X76975000Y-61510000D03*
X69355000Y-61510000D03*
X69355000Y-64050000D03*
X69355000Y-66590000D03*
X69355000Y-69130000D03*
X69355000Y-71670000D03*
X69355000Y-74210000D03*
X69355000Y-76750000D03*
X69355000Y-79290000D03*
%TD*%
D15*
%TO.C,D11*%
X88900000Y-62020000D03*
D16*
X88900000Y-54400000D03*
%TD*%
D18*
%TO.C,U2*%
X102890000Y-78990000D03*
D19*
X102890000Y-76450000D03*
X102890000Y-73910000D03*
X102890000Y-71370000D03*
X102890000Y-68830000D03*
X102890000Y-66290000D03*
X102890000Y-63750000D03*
X102890000Y-61210000D03*
X95270000Y-61210000D03*
X95270000Y-63750000D03*
X95270000Y-66290000D03*
X95270000Y-68830000D03*
X95270000Y-71370000D03*
X95270000Y-73910000D03*
X95270000Y-76450000D03*
X95270000Y-78990000D03*
%TD*%
D21*
%TO.C,D13*%
X81910000Y-97150000D03*
D16*
X74290000Y-97150000D03*
%TD*%
D20*
%TO.C,H4*%
X134000000Y-96460000D03*
%TD*%
D15*
%TO.C,D3*%
X62800000Y-76710000D03*
D16*
X62800000Y-69090000D03*
%TD*%
D20*
%TO.C,H2*%
X49000000Y-96580000D03*
%TD*%
D17*
%TO.C,D16*%
X103640000Y-97150000D03*
D16*
X111260000Y-97150000D03*
%TD*%
D20*
%TO.C,H3*%
X134000000Y-46000000D03*
%TD*%
D22*
%TO.C,Q1*%
X98140000Y-47900000D03*
D23*
X95600000Y-47900000D03*
X93060000Y-47900000D03*
%TD*%
D15*
%TO.C,D4*%
X65400000Y-75500000D03*
D16*
X65400000Y-67880000D03*
%TD*%
D17*
%TO.C,D22*%
X121390000Y-86550000D03*
D16*
X129010000Y-86550000D03*
%TD*%
M02*
