%TF.GenerationSoftware,KiCad,Pcbnew,9.0.4*%
%TF.CreationDate,2026-03-18T07:23:28+00:00*%
%TF.ProjectId,Switch Encoder Controller,53776974-6368-4204-956e-636f64657220,rev?*%
%TF.SameCoordinates,Original*%
%TF.FileFunction,Soldermask,Bot*%
%TF.FilePolarity,Negative*%
%FSLAX46Y46*%
G04 Gerber Fmt 4.6, Leading zero omitted, Abs format (unit mm)*
G04 Created by KiCad (PCBNEW 9.0.4) date 2026-03-18 07:23:28*
%MOMM*%
%LPD*%
G01*
G04 APERTURE LIST*
G04 Aperture macros list*
%AMRoundRect*
0 Rectangle with rounded corners*
0 $1 Rounding radius*
0 $2 $3 $4 $5 $6 $7 $8 $9 X,Y pos of 4 corners*
0 Add a 4 corners polygon primitive as box body*
4,1,4,$2,$3,$4,$5,$6,$7,$8,$9,$2,$3,0*
0 Add four circle primitives for the rounded corners*
1,1,$1+$1,$2,$3*
1,1,$1+$1,$4,$5*
1,1,$1+$1,$6,$7*
1,1,$1+$1,$8,$9*
0 Add four rect primitives between the rounded corners*
20,1,$1+$1,$2,$3,$4,$5,0*
20,1,$1+$1,$4,$5,$6,$7,0*
20,1,$1+$1,$6,$7,$8,$9,0*
20,1,$1+$1,$8,$9,$2,$3,0*%
G04 Aperture macros list end*
%ADD10RoundRect,0.250000X0.620000X0.845000X-0.620000X0.845000X-0.620000X-0.845000X0.620000X-0.845000X0*%
%ADD11O,1.740000X2.190000*%
%ADD12RoundRect,0.250000X-0.620000X-0.845000X0.620000X-0.845000X0.620000X0.845000X-0.620000X0.845000X0*%
%ADD13RoundRect,0.250000X0.350000X0.450000X-0.350000X0.450000X-0.350000X-0.450000X0.350000X-0.450000X0*%
%ADD14RoundRect,0.250000X-0.350000X-0.450000X0.350000X-0.450000X0.350000X0.450000X-0.350000X0.450000X0*%
%ADD15RoundRect,0.250000X0.845000X-0.620000X0.845000X0.620000X-0.845000X0.620000X-0.845000X-0.620000X0*%
%ADD16O,2.190000X1.740000*%
%ADD17RoundRect,0.250000X0.550000X-0.550000X0.550000X0.550000X-0.550000X0.550000X-0.550000X-0.550000X0*%
%ADD18C,1.600000*%
%ADD19RoundRect,0.250000X-0.550000X-0.550000X0.550000X-0.550000X0.550000X0.550000X-0.550000X0.550000X0*%
%ADD20RoundRect,0.250000X0.950000X0.550000X-0.950000X0.550000X-0.950000X-0.550000X0.950000X-0.550000X0*%
%ADD21O,2.400000X1.600000*%
%ADD22C,3.200000*%
%ADD23RoundRect,0.250000X0.550000X0.550000X-0.550000X0.550000X-0.550000X-0.550000X0.550000X-0.550000X0*%
%ADD24R,1.500000X2.000000*%
%ADD25O,1.500000X2.000000*%
%ADD26RoundRect,0.250000X0.450000X-0.350000X0.450000X0.350000X-0.450000X0.350000X-0.450000X-0.350000X0*%
%ADD27RoundRect,0.250000X0.475000X-0.337500X0.475000X0.337500X-0.475000X0.337500X-0.475000X-0.337500X0*%
%ADD28RoundRect,0.250000X-0.337500X-0.475000X0.337500X-0.475000X0.337500X0.475000X-0.337500X0.475000X0*%
G04 APERTURE END LIST*
D10*
%TO.C,J3*%
X118200000Y-90500000D03*
D11*
X115660000Y-90500000D03*
X113120000Y-90500000D03*
X110580000Y-90500000D03*
X108040000Y-90500000D03*
X105500000Y-90500000D03*
%TD*%
%TO.C,J4*%
X90010000Y-47920000D03*
X87470000Y-47920000D03*
X84930000Y-47920000D03*
X82390000Y-47920000D03*
X79850000Y-47920000D03*
X77310000Y-47920000D03*
X74770000Y-47920000D03*
X72230000Y-47920000D03*
X69690000Y-47920000D03*
D12*
X67150000Y-47920000D03*
%TD*%
D13*
%TO.C,R202*%
X54100000Y-70600000D03*
X52100000Y-70600000D03*
%TD*%
D14*
%TO.C,R201*%
X52100000Y-72500000D03*
X54100000Y-72500000D03*
%TD*%
D15*
%TO.C,J5*%
X49400000Y-77960000D03*
D16*
X49400000Y-75420000D03*
X49400000Y-72880000D03*
X49400000Y-70340000D03*
X49400000Y-67800000D03*
X49400000Y-65260000D03*
X49400000Y-62720000D03*
X49400000Y-60180000D03*
%TD*%
D17*
%TO.C,D8*%
X88000000Y-72860000D03*
D18*
X88000000Y-65240000D03*
%TD*%
D17*
%TO.C,D19*%
X111550000Y-69460000D03*
D18*
X111550000Y-61840000D03*
%TD*%
D17*
%TO.C,D18*%
X114150000Y-74050000D03*
D18*
X114150000Y-66430000D03*
%TD*%
D10*
%TO.C,J2*%
X101780000Y-90500000D03*
D11*
X99240000Y-90500000D03*
X96700000Y-90500000D03*
X94160000Y-90500000D03*
X91620000Y-90500000D03*
X89080000Y-90500000D03*
X86540000Y-90500000D03*
X84000000Y-90500000D03*
%TD*%
D17*
%TO.C,D17*%
X116650000Y-68660000D03*
D18*
X116650000Y-61040000D03*
%TD*%
D10*
%TO.C,J1*%
X80240000Y-90500000D03*
D11*
X77700000Y-90500000D03*
X75160000Y-90500000D03*
X72620000Y-90500000D03*
X70080000Y-90500000D03*
X67540000Y-90500000D03*
X65000000Y-90500000D03*
X62460000Y-90500000D03*
X59920000Y-90500000D03*
X57380000Y-90500000D03*
%TD*%
D19*
%TO.C,D21*%
X117690000Y-83950000D03*
D18*
X125310000Y-83950000D03*
%TD*%
D20*
%TO.C,U3*%
X127562500Y-79090000D03*
D21*
X127562500Y-76550000D03*
X127562500Y-74010000D03*
X127562500Y-71470000D03*
X127562500Y-68930000D03*
X127562500Y-66390000D03*
X127562500Y-63850000D03*
X127562500Y-61310000D03*
X119942500Y-61310000D03*
X119942500Y-63850000D03*
X119942500Y-66390000D03*
X119942500Y-68930000D03*
X119942500Y-71470000D03*
X119942500Y-74010000D03*
X119942500Y-76550000D03*
X119942500Y-79090000D03*
%TD*%
D17*
%TO.C,D1*%
X57400000Y-77710000D03*
D18*
X57400000Y-70090000D03*
%TD*%
D17*
%TO.C,D6*%
X82750000Y-74510000D03*
D18*
X82750000Y-66890000D03*
%TD*%
D17*
%TO.C,D2*%
X60100000Y-77660000D03*
D18*
X60100000Y-70040000D03*
%TD*%
D17*
%TO.C,D7*%
X85500000Y-72260000D03*
D18*
X85500000Y-64640000D03*
%TD*%
D19*
%TO.C,D15*%
X93840000Y-97150000D03*
D18*
X101460000Y-97150000D03*
%TD*%
D17*
%TO.C,D10*%
X86400000Y-62020000D03*
D18*
X86400000Y-54400000D03*
%TD*%
D22*
%TO.C,H1*%
X49000000Y-46120000D03*
%TD*%
D17*
%TO.C,D9*%
X83900000Y-62020000D03*
D18*
X83900000Y-54400000D03*
%TD*%
D23*
%TO.C,D14*%
X91660000Y-97150000D03*
D18*
X84040000Y-97150000D03*
%TD*%
D17*
%TO.C,D20*%
X109000000Y-67310000D03*
D18*
X109000000Y-59690000D03*
%TD*%
D17*
%TO.C,D12*%
X91500000Y-62010000D03*
D18*
X91500000Y-54390000D03*
%TD*%
D17*
%TO.C,D5*%
X79850000Y-74460000D03*
D18*
X79850000Y-66840000D03*
%TD*%
D20*
%TO.C,U1*%
X76975000Y-79290000D03*
D21*
X76975000Y-76750000D03*
X76975000Y-74210000D03*
X76975000Y-71670000D03*
X76975000Y-69130000D03*
X76975000Y-66590000D03*
X76975000Y-64050000D03*
X76975000Y-61510000D03*
X69355000Y-61510000D03*
X69355000Y-64050000D03*
X69355000Y-66590000D03*
X69355000Y-69130000D03*
X69355000Y-71670000D03*
X69355000Y-74210000D03*
X69355000Y-76750000D03*
X69355000Y-79290000D03*
%TD*%
D17*
%TO.C,D11*%
X88900000Y-62020000D03*
D18*
X88900000Y-54400000D03*
%TD*%
D20*
%TO.C,U2*%
X102890000Y-78990000D03*
D21*
X102890000Y-76450000D03*
X102890000Y-73910000D03*
X102890000Y-71370000D03*
X102890000Y-68830000D03*
X102890000Y-66290000D03*
X102890000Y-63750000D03*
X102890000Y-61210000D03*
X95270000Y-61210000D03*
X95270000Y-63750000D03*
X95270000Y-66290000D03*
X95270000Y-68830000D03*
X95270000Y-71370000D03*
X95270000Y-73910000D03*
X95270000Y-76450000D03*
X95270000Y-78990000D03*
%TD*%
D23*
%TO.C,D13*%
X81910000Y-97150000D03*
D18*
X74290000Y-97150000D03*
%TD*%
D22*
%TO.C,H4*%
X134000000Y-96460000D03*
%TD*%
D17*
%TO.C,D3*%
X62800000Y-76710000D03*
D18*
X62800000Y-69090000D03*
%TD*%
D22*
%TO.C,H2*%
X49000000Y-96580000D03*
%TD*%
D19*
%TO.C,D16*%
X103640000Y-97150000D03*
D18*
X111260000Y-97150000D03*
%TD*%
D22*
%TO.C,H3*%
X134000000Y-46000000D03*
%TD*%
D24*
%TO.C,Q1*%
X98140000Y-47900000D03*
D25*
X95600000Y-47900000D03*
X93060000Y-47900000D03*
%TD*%
D17*
%TO.C,D4*%
X65400000Y-75500000D03*
D18*
X65400000Y-67880000D03*
%TD*%
D19*
%TO.C,D22*%
X121390000Y-86550000D03*
D18*
X129010000Y-86550000D03*
%TD*%
D26*
%TO.C,R2*%
X59900000Y-95000000D03*
X59900000Y-93000000D03*
%TD*%
%TO.C,R22*%
X113100000Y-95000000D03*
X113100000Y-93000000D03*
%TD*%
D27*
%TO.C,C8*%
X79650000Y-63037500D03*
X79650000Y-60962500D03*
%TD*%
D13*
%TO.C,R103*%
X102100000Y-47900000D03*
X100100000Y-47900000D03*
%TD*%
D27*
%TO.C,C7*%
X72700000Y-88437500D03*
X72700000Y-86362500D03*
%TD*%
D26*
%TO.C,R15*%
X94200000Y-95000000D03*
X94200000Y-93000000D03*
%TD*%
D27*
%TO.C,C6*%
X70600000Y-88437500D03*
X70600000Y-86362500D03*
%TD*%
D26*
%TO.C,R16*%
X96700000Y-95000000D03*
X96700000Y-93000000D03*
%TD*%
D27*
%TO.C,C13*%
X91550000Y-85500000D03*
X91550000Y-83425000D03*
%TD*%
D26*
%TO.C,R1*%
X57400000Y-95000000D03*
X57400000Y-93000000D03*
%TD*%
%TO.C,R19*%
X105500000Y-95000000D03*
X105500000Y-93000000D03*
%TD*%
%TO.C,R9*%
X77700000Y-95000000D03*
X77700000Y-93000000D03*
%TD*%
D28*
%TO.C,C18*%
X122625000Y-68890000D03*
X124700000Y-68890000D03*
%TD*%
%TO.C,C1*%
X72100000Y-66590000D03*
X74175000Y-66590000D03*
%TD*%
%TO.C,C10*%
X98025000Y-68790000D03*
X100100000Y-68790000D03*
%TD*%
D26*
%TO.C,R13*%
X89100000Y-95100000D03*
X89100000Y-93100000D03*
%TD*%
D28*
%TO.C,C101*%
X72025000Y-79190000D03*
X74100000Y-79190000D03*
%TD*%
%TO.C,C12*%
X98025000Y-73890000D03*
X100100000Y-73890000D03*
%TD*%
D26*
%TO.C,R6*%
X70100000Y-95000000D03*
X70100000Y-93000000D03*
%TD*%
D28*
%TO.C,C21*%
X117712500Y-81800000D03*
X119787500Y-81800000D03*
%TD*%
D26*
%TO.C,R4*%
X65000000Y-95000000D03*
X65000000Y-93000000D03*
%TD*%
D28*
%TO.C,C11*%
X98025000Y-71390000D03*
X100100000Y-71390000D03*
%TD*%
D26*
%TO.C,R7*%
X72600000Y-95000000D03*
X72600000Y-93000000D03*
%TD*%
%TO.C,R8*%
X75200000Y-95000000D03*
X75200000Y-93000000D03*
%TD*%
D28*
%TO.C,C9*%
X98025000Y-66290000D03*
X100100000Y-66290000D03*
%TD*%
%TO.C,C3*%
X72062500Y-71690000D03*
X74137500Y-71690000D03*
%TD*%
D26*
%TO.C,R20*%
X108100000Y-95000000D03*
X108100000Y-93000000D03*
%TD*%
D27*
%TO.C,C103*%
X122550000Y-78337500D03*
X122550000Y-76262500D03*
%TD*%
D26*
%TO.C,R3*%
X62500000Y-95000000D03*
X62500000Y-93000000D03*
%TD*%
D28*
%TO.C,C20*%
X122625000Y-73990000D03*
X124700000Y-73990000D03*
%TD*%
D27*
%TO.C,C16*%
X105600000Y-62737500D03*
X105600000Y-60662500D03*
%TD*%
D28*
%TO.C,C4*%
X72062500Y-74190000D03*
X74137500Y-74190000D03*
%TD*%
D13*
%TO.C,R102*%
X98100000Y-50900000D03*
X96100000Y-50900000D03*
%TD*%
D28*
%TO.C,C19*%
X122625000Y-71490000D03*
X124700000Y-71490000D03*
%TD*%
D27*
%TO.C,C102*%
X97950000Y-78287500D03*
X97950000Y-76212500D03*
%TD*%
D28*
%TO.C,C17*%
X122625000Y-66390000D03*
X124700000Y-66390000D03*
%TD*%
D26*
%TO.C,R18*%
X101800000Y-95000000D03*
X101800000Y-93000000D03*
%TD*%
%TO.C,R14*%
X91600000Y-95000000D03*
X91600000Y-93000000D03*
%TD*%
%TO.C,R11*%
X84000000Y-95000000D03*
X84000000Y-93000000D03*
%TD*%
D27*
%TO.C,C5*%
X67000000Y-85337500D03*
X67000000Y-83262500D03*
%TD*%
D28*
%TO.C,C2*%
X72100000Y-69090000D03*
X74175000Y-69090000D03*
%TD*%
D27*
%TO.C,C22*%
X130900000Y-69737500D03*
X130900000Y-67662500D03*
%TD*%
D26*
%TO.C,R21*%
X110600000Y-95000000D03*
X110600000Y-93000000D03*
%TD*%
%TO.C,R17*%
X99300000Y-95000000D03*
X99300000Y-93000000D03*
%TD*%
%TO.C,R10*%
X80400000Y-95000000D03*
X80400000Y-93000000D03*
%TD*%
%TO.C,R5*%
X67600000Y-95000000D03*
X67600000Y-93000000D03*
%TD*%
D28*
%TO.C,C14*%
X94312500Y-85000000D03*
X96387500Y-85000000D03*
%TD*%
D26*
%TO.C,R12*%
X86600000Y-95000000D03*
X86600000Y-93000000D03*
%TD*%
D27*
%TO.C,C15*%
X100700000Y-85937500D03*
X100700000Y-83862500D03*
%TD*%
D13*
%TO.C,R101*%
X102100000Y-50900000D03*
X100100000Y-50900000D03*
%TD*%
M02*
