%TF.GenerationSoftware,KiCad,Pcbnew,9.0.4*%
%TF.CreationDate,2026-03-15T16:46:37+00:00*%
%TF.ProjectId,Line following V3,4c696e65-2066-46f6-9c6c-6f77696e6720,rev?*%
%TF.SameCoordinates,Original*%
%TF.FileFunction,Legend,Top*%
%TF.FilePolarity,Positive*%
%FSLAX46Y46*%
G04 Gerber Fmt 4.6, Leading zero omitted, Abs format (unit mm)*
G04 Created by KiCad (PCBNEW 9.0.4) date 2026-03-15 16:46:37*
%MOMM*%
%LPD*%
G01*
G04 APERTURE LIST*
%ADD10C,0.150000*%
%ADD11C,0.254000*%
%ADD12C,0.120000*%
%ADD13C,0.100000*%
G04 APERTURE END LIST*
D10*
X110266963Y-43523333D02*
X110981248Y-43523333D01*
X110981248Y-43523333D02*
X111124105Y-43570952D01*
X111124105Y-43570952D02*
X111219344Y-43666190D01*
X111219344Y-43666190D02*
X111266963Y-43809047D01*
X111266963Y-43809047D02*
X111266963Y-43904285D01*
X111266963Y-42523333D02*
X111266963Y-43094761D01*
X111266963Y-42809047D02*
X110266963Y-42809047D01*
X110266963Y-42809047D02*
X110409820Y-42904285D01*
X110409820Y-42904285D02*
X110505058Y-42999523D01*
X110505058Y-42999523D02*
X110552677Y-43094761D01*
D11*
X97712414Y-34315952D02*
X97651938Y-34436904D01*
X97651938Y-34436904D02*
X97530986Y-34557857D01*
X97530986Y-34557857D02*
X97349557Y-34739285D01*
X97349557Y-34739285D02*
X97289081Y-34860238D01*
X97289081Y-34860238D02*
X97289081Y-34981190D01*
X97591462Y-34920714D02*
X97530986Y-35041666D01*
X97530986Y-35041666D02*
X97410033Y-35162619D01*
X97410033Y-35162619D02*
X97168128Y-35223095D01*
X97168128Y-35223095D02*
X96744795Y-35223095D01*
X96744795Y-35223095D02*
X96502890Y-35162619D01*
X96502890Y-35162619D02*
X96381938Y-35041666D01*
X96381938Y-35041666D02*
X96321462Y-34920714D01*
X96321462Y-34920714D02*
X96321462Y-34678809D01*
X96321462Y-34678809D02*
X96381938Y-34557857D01*
X96381938Y-34557857D02*
X96502890Y-34436904D01*
X96502890Y-34436904D02*
X96744795Y-34376428D01*
X96744795Y-34376428D02*
X97168128Y-34376428D01*
X97168128Y-34376428D02*
X97410033Y-34436904D01*
X97410033Y-34436904D02*
X97530986Y-34557857D01*
X97530986Y-34557857D02*
X97591462Y-34678809D01*
X97591462Y-34678809D02*
X97591462Y-34920714D01*
X97591462Y-33166904D02*
X97591462Y-33892619D01*
X97591462Y-33529762D02*
X96321462Y-33529762D01*
X96321462Y-33529762D02*
X96502890Y-33650714D01*
X96502890Y-33650714D02*
X96623843Y-33771666D01*
X96623843Y-33771666D02*
X96684319Y-33892619D01*
D10*
X96240239Y-51284819D02*
X96240239Y-52094342D01*
X96240239Y-52094342D02*
X96287858Y-52189580D01*
X96287858Y-52189580D02*
X96335477Y-52237200D01*
X96335477Y-52237200D02*
X96430715Y-52284819D01*
X96430715Y-52284819D02*
X96621191Y-52284819D01*
X96621191Y-52284819D02*
X96716429Y-52237200D01*
X96716429Y-52237200D02*
X96764048Y-52189580D01*
X96764048Y-52189580D02*
X96811667Y-52094342D01*
X96811667Y-52094342D02*
X96811667Y-51284819D01*
X97240239Y-51380057D02*
X97287858Y-51332438D01*
X97287858Y-51332438D02*
X97383096Y-51284819D01*
X97383096Y-51284819D02*
X97621191Y-51284819D01*
X97621191Y-51284819D02*
X97716429Y-51332438D01*
X97716429Y-51332438D02*
X97764048Y-51380057D01*
X97764048Y-51380057D02*
X97811667Y-51475295D01*
X97811667Y-51475295D02*
X97811667Y-51570533D01*
X97811667Y-51570533D02*
X97764048Y-51713390D01*
X97764048Y-51713390D02*
X97192620Y-52284819D01*
X97192620Y-52284819D02*
X97811667Y-52284819D01*
D12*
%TO.C,J1*%
X108692144Y-35170000D02*
X104692144Y-35170000D01*
X109722144Y-35460000D02*
X103702144Y-35460000D01*
X103702144Y-35460000D02*
X103702144Y-50920000D01*
X109722144Y-36040000D02*
X109122144Y-36040000D01*
X109122144Y-36040000D02*
X109122144Y-37640000D01*
X104702144Y-36840000D02*
X105232144Y-37090000D01*
X104702144Y-36840000D02*
X104702144Y-49540000D01*
X103702144Y-36840000D02*
X104702144Y-36840000D01*
X105232144Y-37090000D02*
X105232144Y-49290000D01*
X103702144Y-37090000D02*
X104702144Y-37090000D01*
X109122144Y-37640000D02*
X109722144Y-37640000D01*
X109722144Y-38580000D02*
X109122144Y-38580000D01*
X109122144Y-38580000D02*
X109122144Y-40180000D01*
X109122144Y-40180000D02*
X109722144Y-40180000D01*
X109722144Y-41120000D02*
X109122144Y-41120000D01*
X109122144Y-41120000D02*
X109122144Y-42720000D01*
X109122144Y-42720000D02*
X109722144Y-42720000D01*
X109722144Y-43660000D02*
X109122144Y-43660000D01*
X109122144Y-43660000D02*
X109122144Y-45260000D01*
X109122144Y-45260000D02*
X109722144Y-45260000D01*
X109722144Y-46200000D02*
X109122144Y-46200000D01*
X109122144Y-46200000D02*
X109122144Y-47800000D01*
X109122144Y-47800000D02*
X109722144Y-47800000D01*
X109722144Y-48740000D02*
X109122144Y-48740000D01*
X109122144Y-48740000D02*
X109122144Y-50340000D01*
X105232144Y-49290000D02*
X104702144Y-49540000D01*
X103702144Y-49290000D02*
X104702144Y-49290000D01*
X104702144Y-49540000D02*
X103702144Y-49540000D01*
X109122144Y-50340000D02*
X109722144Y-50340000D01*
X109722144Y-50920000D02*
X109722144Y-35460000D01*
X103702144Y-50920000D02*
X109722144Y-50920000D01*
D13*
%TO.C,Q1*%
X99962144Y-29070000D02*
X99962144Y-32670000D01*
X99962144Y-38170000D02*
X99962144Y-35670000D01*
X94162144Y-29070000D02*
X99962144Y-29070000D01*
X94162144Y-29070000D02*
X94162144Y-32670000D01*
X94162144Y-39270000D02*
X98587144Y-39270000D01*
X94162144Y-39270000D02*
X94162144Y-35670000D01*
D12*
%TO.C,U2*%
X99252144Y-40550000D02*
X94752144Y-40550000D01*
X99252144Y-50830000D02*
X99252144Y-40550000D01*
X98002144Y-50830000D02*
X99252144Y-50830000D01*
X94752144Y-40550000D02*
X94752144Y-50830000D01*
X94752144Y-50830000D02*
X96002144Y-50830000D01*
X96002144Y-50830000D02*
G75*
G02*
X98002144Y-50830000I1000000J0D01*
G01*
%TD*%
M02*
