%TF.GenerationSoftware,KiCad,Pcbnew,9.0.4*%
%TF.CreationDate,2026-03-15T16:46:37+00:00*%
%TF.ProjectId,Line following V3,4c696e65-2066-46f6-9c6c-6f77696e6720,rev?*%
%TF.SameCoordinates,Original*%
%TF.FileFunction,Copper,L2,Bot*%
%TF.FilePolarity,Positive*%
%FSLAX46Y46*%
G04 Gerber Fmt 4.6, Leading zero omitted, Abs format (unit mm)*
G04 Created by KiCad (PCBNEW 9.0.4) date 2026-03-15 16:46:37*
%MOMM*%
%LPD*%
G01*
G04 APERTURE LIST*
G04 Aperture macros list*
%AMRoundRect*
0 Rectangle with rounded corners*
0 $1 Rounding radius*
0 $2 $3 $4 $5 $6 $7 $8 $9 X,Y pos of 4 corners*
0 Add a 4 corners polygon primitive as box body*
4,1,4,$2,$3,$4,$5,$6,$7,$8,$9,$2,$3,0*
0 Add four circle primitives for the rounded corners*
1,1,$1+$1,$2,$3*
1,1,$1+$1,$4,$5*
1,1,$1+$1,$6,$7*
1,1,$1+$1,$8,$9*
0 Add four rect primitives between the rounded corners*
20,1,$1+$1,$2,$3,$4,$5,0*
20,1,$1+$1,$4,$5,$6,$7,0*
20,1,$1+$1,$6,$7,$8,$9,0*
20,1,$1+$1,$8,$9,$2,$3,0*%
G04 Aperture macros list end*
%ADD10C,0.100000*%
%TA.AperFunction,ComponentPad*%
%ADD11RoundRect,0.250000X-0.845000X0.620000X-0.845000X-0.620000X0.845000X-0.620000X0.845000X0.620000X0*%
%TD*%
%TA.AperFunction,ComponentPad*%
%ADD12O,2.190000X1.740000*%
%TD*%
%TA.AperFunction,ComponentPad*%
%ADD13C,6.000000*%
%TD*%
%TA.AperFunction,SMDPad,CuDef*%
%ADD14RoundRect,0.250000X-0.337500X-0.475000X0.337500X-0.475000X0.337500X0.475000X-0.337500X0.475000X0*%
%TD*%
%TA.AperFunction,SMDPad,CuDef*%
%ADD15RoundRect,0.250000X0.450000X-0.350000X0.450000X0.350000X-0.450000X0.350000X-0.450000X-0.350000X0*%
%TD*%
%TA.AperFunction,SMDPad,CuDef*%
%ADD16RoundRect,0.250000X-0.350000X-0.450000X0.350000X-0.450000X0.350000X0.450000X-0.350000X0.450000X0*%
%TD*%
%TA.AperFunction,ComponentPad*%
%ADD17R,2.000000X2.000000*%
%TD*%
%TA.AperFunction,ComponentPad*%
%ADD18C,2.000000*%
%TD*%
%TA.AperFunction,SMDPad,CuDef*%
%ADD19RoundRect,0.250000X-0.450000X0.350000X-0.450000X-0.350000X0.450000X-0.350000X0.450000X0.350000X0*%
%TD*%
%TA.AperFunction,ComponentPad*%
%ADD20RoundRect,0.250000X0.950000X0.550000X-0.950000X0.550000X-0.950000X-0.550000X0.950000X-0.550000X0*%
%TD*%
%TA.AperFunction,ComponentPad*%
%ADD21O,2.400000X1.600000*%
%TD*%
%TA.AperFunction,ViaPad*%
%ADD22C,2.000000*%
%TD*%
%TA.AperFunction,Conductor*%
%ADD23C,0.600000*%
%TD*%
G04 APERTURE END LIST*
D10*
G36*
X103111876Y-28218901D02*
G01*
X103193029Y-28300054D01*
X103234566Y-28383128D01*
X103279361Y-28562307D01*
X103279361Y-28692854D01*
X103234566Y-28872032D01*
X103193029Y-28955106D01*
X103111876Y-29036259D01*
X102987915Y-29077580D01*
X102807933Y-29077580D01*
X102807933Y-28177580D01*
X102987914Y-28177580D01*
X103111876Y-28218901D01*
G37*
G36*
X104204505Y-28692482D02*
G01*
X104240649Y-28728627D01*
X104279361Y-28806050D01*
X104279361Y-28925300D01*
X104240649Y-29002723D01*
X104204505Y-29038868D01*
X104127082Y-29077580D01*
X103807933Y-29077580D01*
X103807933Y-28653771D01*
X104127082Y-28653771D01*
X104204505Y-28692482D01*
G37*
G36*
X107612695Y-28597142D02*
G01*
X107612695Y-28639586D01*
X107577808Y-28709360D01*
X107508035Y-28744247D01*
X107341166Y-28744247D01*
X107271391Y-28709360D01*
X107236505Y-28639587D01*
X107236505Y-28521904D01*
X107612695Y-28597142D01*
G37*
G36*
X108469838Y-28206101D02*
G01*
X108469838Y-28475250D01*
X108446961Y-28463812D01*
X108444545Y-28463150D01*
X108443734Y-28462339D01*
X108435872Y-28460775D01*
X108428145Y-28458659D01*
X108427056Y-28459021D01*
X108424600Y-28458533D01*
X108198309Y-28458533D01*
X108128534Y-28423646D01*
X108093648Y-28353873D01*
X108093648Y-28282241D01*
X108128534Y-28212467D01*
X108198308Y-28177580D01*
X108412797Y-28177580D01*
X108469838Y-28206101D01*
G37*
G36*
X111823802Y-29288691D02*
G01*
X101695866Y-29288691D01*
X101695866Y-29108446D01*
X101806977Y-29108446D01*
X101806977Y-29146714D01*
X101834037Y-29173774D01*
X101853171Y-29177580D01*
X102424599Y-29177580D01*
X102443733Y-29173774D01*
X102470793Y-29146714D01*
X102470793Y-29108446D01*
X102443733Y-29081386D01*
X102424599Y-29077580D01*
X102188885Y-29077580D01*
X102188885Y-28127580D01*
X102707933Y-28127580D01*
X102707933Y-29127580D01*
X102711739Y-29146714D01*
X102738799Y-29173774D01*
X102757933Y-29177580D01*
X102996028Y-29177580D01*
X103003890Y-29176016D01*
X103011839Y-29175014D01*
X103154696Y-29127395D01*
X103156871Y-29126155D01*
X103158019Y-29126155D01*
X103164683Y-29121701D01*
X103171644Y-29117734D01*
X103172157Y-29116707D01*
X103174240Y-29115316D01*
X103269478Y-29020078D01*
X103273928Y-29013418D01*
X103278844Y-29007084D01*
X103326463Y-28911846D01*
X103327909Y-28906564D01*
X103330249Y-28901612D01*
X103377868Y-28711136D01*
X103378165Y-28705018D01*
X103379361Y-28699009D01*
X103379361Y-28556152D01*
X103378165Y-28550142D01*
X103377868Y-28544025D01*
X103330249Y-28353549D01*
X103327909Y-28348596D01*
X103326463Y-28343315D01*
X103278844Y-28248077D01*
X103273928Y-28241742D01*
X103269478Y-28235083D01*
X103174240Y-28139845D01*
X103172158Y-28138454D01*
X103171645Y-28137427D01*
X103164677Y-28133455D01*
X103158019Y-28129006D01*
X103156872Y-28129006D01*
X103154697Y-28127766D01*
X103154139Y-28127580D01*
X103707933Y-28127580D01*
X103707933Y-29127580D01*
X103711739Y-29146714D01*
X103738799Y-29173774D01*
X103757933Y-29177580D01*
X104138885Y-29177580D01*
X104141341Y-29177091D01*
X104142430Y-29177454D01*
X104150157Y-29175337D01*
X104158019Y-29173774D01*
X104158830Y-29172962D01*
X104161246Y-29172301D01*
X104256483Y-29124683D01*
X104262816Y-29119767D01*
X104269478Y-29115316D01*
X104317097Y-29067698D01*
X104321551Y-29061031D01*
X104326463Y-29054703D01*
X104374082Y-28959465D01*
X104374743Y-28957049D01*
X104375555Y-28956238D01*
X104377118Y-28948376D01*
X104379235Y-28940649D01*
X104378872Y-28939560D01*
X104379361Y-28937104D01*
X104379361Y-28794247D01*
X104378872Y-28791790D01*
X104379235Y-28790702D01*
X104377118Y-28782974D01*
X104375555Y-28775113D01*
X104374743Y-28774301D01*
X104374082Y-28771886D01*
X104326463Y-28676648D01*
X104321551Y-28670319D01*
X104317097Y-28663653D01*
X104269478Y-28616035D01*
X104262816Y-28611583D01*
X104256483Y-28606668D01*
X104161246Y-28559050D01*
X104158830Y-28558388D01*
X104158019Y-28557577D01*
X104150157Y-28556013D01*
X104142430Y-28553897D01*
X104141341Y-28554259D01*
X104138885Y-28553771D01*
X103807933Y-28553771D01*
X103807933Y-28203685D01*
X104616501Y-28203685D01*
X104616501Y-28241953D01*
X104643561Y-28269013D01*
X104681829Y-28269013D01*
X104698050Y-28258174D01*
X104739932Y-28216291D01*
X104817355Y-28177580D01*
X105079463Y-28177580D01*
X105156886Y-28216292D01*
X105193030Y-28252437D01*
X105231742Y-28329860D01*
X105231742Y-28544348D01*
X105193030Y-28621771D01*
X105156886Y-28657916D01*
X105079463Y-28696628D01*
X104948409Y-28696628D01*
X104934462Y-28699402D01*
X104932390Y-28699264D01*
X104931575Y-28699976D01*
X104929275Y-28700434D01*
X104916834Y-28712874D01*
X104903590Y-28724463D01*
X104903471Y-28726237D01*
X104902215Y-28727494D01*
X104902215Y-28745092D01*
X104901045Y-28762647D01*
X104902215Y-28764678D01*
X104902215Y-28765762D01*
X104903685Y-28767232D01*
X104910780Y-28779553D01*
X105171554Y-29077580D01*
X104662695Y-29077580D01*
X104643561Y-29081386D01*
X104616501Y-29108446D01*
X104616501Y-29146714D01*
X104643561Y-29173774D01*
X104662695Y-29177580D01*
X105281742Y-29177580D01*
X105295688Y-29174805D01*
X105297761Y-29174944D01*
X105298575Y-29174231D01*
X105300876Y-29173774D01*
X105313316Y-29161333D01*
X105326561Y-29149745D01*
X105326679Y-29147970D01*
X105327936Y-29146714D01*
X105327936Y-29129115D01*
X105329106Y-29111561D01*
X105327936Y-29109529D01*
X105327936Y-29108446D01*
X106283168Y-29108446D01*
X106283168Y-29146714D01*
X106310228Y-29173774D01*
X106329362Y-29177580D01*
X106900790Y-29177580D01*
X106919924Y-29173774D01*
X106946984Y-29146714D01*
X106946984Y-29108446D01*
X110949835Y-29108446D01*
X110949835Y-29146714D01*
X110976895Y-29173774D01*
X110996029Y-29177580D01*
X111662695Y-29177580D01*
X111663109Y-29177497D01*
X111663305Y-29177576D01*
X111663815Y-29177357D01*
X111681829Y-29173774D01*
X111689069Y-29166533D01*
X111698478Y-29162501D01*
X111702062Y-29153540D01*
X111708889Y-29146714D01*
X111708889Y-29136474D01*
X111712691Y-29126970D01*
X111708889Y-29109003D01*
X111708889Y-29108446D01*
X111708739Y-29108296D01*
X111708652Y-29107884D01*
X111280081Y-28107884D01*
X111269046Y-28091796D01*
X111233514Y-28077584D01*
X111198340Y-28092658D01*
X111184128Y-28128190D01*
X111188167Y-28147276D01*
X111586868Y-29077580D01*
X110996029Y-29077580D01*
X110976895Y-29081386D01*
X110949835Y-29108446D01*
X106946984Y-29108446D01*
X106919924Y-29081386D01*
X106900790Y-29077580D01*
X106665076Y-29077580D01*
X106665076Y-28270438D01*
X107136505Y-28270438D01*
X107136505Y-28651390D01*
X107136993Y-28653846D01*
X107136631Y-28654935D01*
X107138747Y-28662662D01*
X107140311Y-28670524D01*
X107141122Y-28671335D01*
X107141784Y-28673751D01*
X107189402Y-28768988D01*
X107195505Y-28776852D01*
X107196351Y-28779388D01*
X107199174Y-28781579D01*
X107201364Y-28784400D01*
X107203897Y-28785244D01*
X107211763Y-28791349D01*
X107307001Y-28838968D01*
X107309416Y-28839629D01*
X107310228Y-28840441D01*
X107318089Y-28842004D01*
X107325817Y-28844121D01*
X107326905Y-28843758D01*
X107329362Y-28844247D01*
X107519838Y-28844247D01*
X107522294Y-28843758D01*
X107523383Y-28844121D01*
X107531110Y-28842004D01*
X107538972Y-28840441D01*
X107539783Y-28839629D01*
X107542199Y-28838968D01*
X107637436Y-28791350D01*
X107645300Y-28785246D01*
X107647836Y-28784401D01*
X107650027Y-28781577D01*
X107652848Y-28779388D01*
X107653692Y-28776854D01*
X107659797Y-28768989D01*
X107707416Y-28673751D01*
X107708077Y-28671335D01*
X107708889Y-28670524D01*
X107710452Y-28662662D01*
X107712569Y-28654935D01*
X107712206Y-28653846D01*
X107712695Y-28651390D01*
X107712695Y-28556152D01*
X107711253Y-28548903D01*
X107711744Y-28546449D01*
X107710348Y-28544355D01*
X107708889Y-28537018D01*
X107698592Y-28526721D01*
X107690516Y-28514607D01*
X107683608Y-28511737D01*
X107681829Y-28509958D01*
X107679325Y-28509958D01*
X107672500Y-28507123D01*
X107236505Y-28419923D01*
X107236505Y-28282241D01*
X107242406Y-28270438D01*
X107993648Y-28270438D01*
X107993648Y-28365676D01*
X107994136Y-28368132D01*
X107993774Y-28369221D01*
X107995890Y-28376948D01*
X107997454Y-28384810D01*
X107998265Y-28385621D01*
X107998927Y-28388037D01*
X108046545Y-28483274D01*
X108052648Y-28491138D01*
X108053494Y-28493674D01*
X108056317Y-28495865D01*
X108058507Y-28498686D01*
X108061040Y-28499530D01*
X108068906Y-28505635D01*
X108164144Y-28553254D01*
X108166559Y-28553915D01*
X108167371Y-28554727D01*
X108175232Y-28556290D01*
X108182960Y-28558407D01*
X108184048Y-28558044D01*
X108186505Y-28558533D01*
X108412797Y-28558533D01*
X108469838Y-28587053D01*
X108469838Y-28639586D01*
X108434951Y-28709360D01*
X108365178Y-28744247D01*
X108198309Y-28744247D01*
X108113628Y-28701907D01*
X108094812Y-28696754D01*
X108058507Y-28708855D01*
X108041393Y-28743083D01*
X108053494Y-28779388D01*
X108068906Y-28791349D01*
X108164144Y-28838968D01*
X108166559Y-28839629D01*
X108167371Y-28840441D01*
X108175232Y-28842004D01*
X108182960Y-28844121D01*
X108184048Y-28843758D01*
X108186505Y-28844247D01*
X108376981Y-28844247D01*
X108379437Y-28843758D01*
X108380526Y-28844121D01*
X108388253Y-28842004D01*
X108396115Y-28840441D01*
X108396926Y-28839629D01*
X108399342Y-28838968D01*
X108494579Y-28791350D01*
X108502443Y-28785246D01*
X108504979Y-28784401D01*
X108507170Y-28781577D01*
X108509991Y-28779388D01*
X108510835Y-28776854D01*
X108516940Y-28768989D01*
X108564559Y-28673751D01*
X108565220Y-28671335D01*
X108566032Y-28670524D01*
X108567595Y-28662662D01*
X108569712Y-28654935D01*
X108569349Y-28653846D01*
X108569838Y-28651390D01*
X108569838Y-28127580D01*
X108946029Y-28127580D01*
X108946029Y-28794247D01*
X108949835Y-28813381D01*
X108976895Y-28840441D01*
X109015163Y-28840441D01*
X109042223Y-28813381D01*
X109044315Y-28802863D01*
X109116525Y-28838968D01*
X109118940Y-28839629D01*
X109119752Y-28840441D01*
X109127613Y-28842004D01*
X109135341Y-28844121D01*
X109136429Y-28843758D01*
X109138886Y-28844247D01*
X109281743Y-28844247D01*
X109284199Y-28843758D01*
X109285288Y-28844121D01*
X109293015Y-28842004D01*
X109300877Y-28840441D01*
X109301688Y-28839629D01*
X109304104Y-28838968D01*
X109399341Y-28791350D01*
X109407205Y-28785246D01*
X109409741Y-28784401D01*
X109411932Y-28781577D01*
X109414753Y-28779388D01*
X109415597Y-28776854D01*
X109421702Y-28768989D01*
X109424599Y-28763193D01*
X109427497Y-28768988D01*
X109433600Y-28776852D01*
X109434446Y-28779388D01*
X109437269Y-28781579D01*
X109439459Y-28784400D01*
X109441992Y-28785244D01*
X109449858Y-28791349D01*
X109545096Y-28838968D01*
X109547511Y-28839629D01*
X109548323Y-28840441D01*
X109556184Y-28842004D01*
X109563912Y-28844121D01*
X109565000Y-28843758D01*
X109567457Y-28844247D01*
X109710314Y-28844247D01*
X109712770Y-28843758D01*
X109713858Y-28844121D01*
X109721582Y-28842005D01*
X109729448Y-28840441D01*
X109730259Y-28839629D01*
X109732674Y-28838968D01*
X109827913Y-28791350D01*
X109835777Y-28785246D01*
X109838313Y-28784401D01*
X109840504Y-28781577D01*
X109843325Y-28779388D01*
X109844169Y-28776854D01*
X109850274Y-28768989D01*
X109897893Y-28673751D01*
X109898554Y-28671335D01*
X109899366Y-28670524D01*
X109900929Y-28662662D01*
X109903046Y-28654935D01*
X109902683Y-28653846D01*
X109903172Y-28651390D01*
X109903172Y-28127580D01*
X109899366Y-28108446D01*
X109872306Y-28081386D01*
X109834038Y-28081386D01*
X109806978Y-28108446D01*
X109803172Y-28127580D01*
X109803172Y-28639586D01*
X109768285Y-28709360D01*
X109698512Y-28744247D01*
X109579261Y-28744247D01*
X109509486Y-28709360D01*
X109474600Y-28639587D01*
X109474600Y-28127580D01*
X109470794Y-28108446D01*
X109443734Y-28081386D01*
X109405466Y-28081386D01*
X109378406Y-28108446D01*
X109374600Y-28127580D01*
X109374600Y-28639586D01*
X109339713Y-28709360D01*
X109269940Y-28744247D01*
X109150690Y-28744247D01*
X109073266Y-28705535D01*
X109046029Y-28678298D01*
X109046029Y-28127580D01*
X109042223Y-28108446D01*
X109015163Y-28081386D01*
X108976895Y-28081386D01*
X108949835Y-28108446D01*
X108946029Y-28127580D01*
X108569838Y-28127580D01*
X108566032Y-28108446D01*
X108538972Y-28081386D01*
X108500704Y-28081386D01*
X108481807Y-28100282D01*
X108446961Y-28082859D01*
X108444545Y-28082197D01*
X108443734Y-28081386D01*
X108435872Y-28079822D01*
X108428145Y-28077706D01*
X108427056Y-28078068D01*
X108424600Y-28077580D01*
X108186505Y-28077580D01*
X108184048Y-28078068D01*
X108182960Y-28077706D01*
X108175232Y-28079822D01*
X108167371Y-28081386D01*
X108166559Y-28082197D01*
X108164144Y-28082859D01*
X108068906Y-28130479D01*
X108061040Y-28136583D01*
X108058507Y-28137428D01*
X108056317Y-28140248D01*
X108053494Y-28142440D01*
X108052648Y-28144975D01*
X108046545Y-28152840D01*
X107998927Y-28248077D01*
X107998265Y-28250492D01*
X107997454Y-28251304D01*
X107995890Y-28259165D01*
X107993774Y-28266893D01*
X107994136Y-28267981D01*
X107993648Y-28270438D01*
X107242406Y-28270438D01*
X107271391Y-28212467D01*
X107341165Y-28177580D01*
X107508035Y-28177580D01*
X107592715Y-28219921D01*
X107611531Y-28225074D01*
X107647836Y-28212973D01*
X107664950Y-28178745D01*
X107652849Y-28142440D01*
X107637437Y-28130479D01*
X107542199Y-28082859D01*
X107539783Y-28082197D01*
X107538972Y-28081386D01*
X107531110Y-28079822D01*
X107523383Y-28077706D01*
X107522294Y-28078068D01*
X107519838Y-28077580D01*
X107329362Y-28077580D01*
X107326905Y-28078068D01*
X107325817Y-28077706D01*
X107318089Y-28079822D01*
X107310228Y-28081386D01*
X107309416Y-28082197D01*
X107307001Y-28082859D01*
X107211763Y-28130479D01*
X107203897Y-28136583D01*
X107201364Y-28137428D01*
X107199174Y-28140248D01*
X107196351Y-28142440D01*
X107195505Y-28144975D01*
X107189402Y-28152840D01*
X107141784Y-28248077D01*
X107141122Y-28250492D01*
X107140311Y-28251304D01*
X107138747Y-28259165D01*
X107136631Y-28266893D01*
X107136993Y-28267981D01*
X107136505Y-28270438D01*
X106665076Y-28270438D01*
X106665076Y-28127580D01*
X106661270Y-28108446D01*
X106634210Y-28081386D01*
X106595942Y-28081386D01*
X106568882Y-28108446D01*
X106565076Y-28127580D01*
X106565076Y-29077580D01*
X106329362Y-29077580D01*
X106310228Y-29081386D01*
X106283168Y-29108446D01*
X105327936Y-29108446D01*
X105326465Y-29106975D01*
X105319371Y-29094655D01*
X105058597Y-28796628D01*
X105091266Y-28796628D01*
X105093722Y-28796139D01*
X105094811Y-28796502D01*
X105102538Y-28794385D01*
X105110400Y-28792822D01*
X105111211Y-28792010D01*
X105113627Y-28791349D01*
X105208864Y-28743731D01*
X105215197Y-28738815D01*
X105221859Y-28734364D01*
X105269478Y-28686746D01*
X105273932Y-28680079D01*
X105278844Y-28673751D01*
X105326463Y-28578513D01*
X105327124Y-28576097D01*
X105327936Y-28575286D01*
X105329499Y-28567424D01*
X105331616Y-28559697D01*
X105331253Y-28558608D01*
X105331742Y-28556152D01*
X105331742Y-28318057D01*
X105331253Y-28315600D01*
X105331616Y-28314512D01*
X105329499Y-28306784D01*
X105327936Y-28298923D01*
X105327124Y-28298111D01*
X105326463Y-28295696D01*
X105278844Y-28200458D01*
X105273932Y-28194129D01*
X105269478Y-28187463D01*
X105221859Y-28139845D01*
X105215199Y-28135394D01*
X105208865Y-28130479D01*
X105113627Y-28082859D01*
X105111211Y-28082197D01*
X105110400Y-28081386D01*
X105102538Y-28079822D01*
X105094811Y-28077706D01*
X105093722Y-28078068D01*
X105091266Y-28077580D01*
X104805552Y-28077580D01*
X104803095Y-28078068D01*
X104802007Y-28077706D01*
X104794279Y-28079822D01*
X104786418Y-28081386D01*
X104785606Y-28082197D01*
X104783191Y-28082859D01*
X104687953Y-28130479D01*
X104681624Y-28135390D01*
X104674958Y-28139845D01*
X104627340Y-28187464D01*
X104616501Y-28203685D01*
X103807933Y-28203685D01*
X103807933Y-28127580D01*
X103804127Y-28108446D01*
X103777067Y-28081386D01*
X103738799Y-28081386D01*
X103711739Y-28108446D01*
X103707933Y-28127580D01*
X103154139Y-28127580D01*
X103011840Y-28080146D01*
X103003889Y-28079143D01*
X102996028Y-28077580D01*
X102757933Y-28077580D01*
X102738799Y-28081386D01*
X102711739Y-28108446D01*
X102707933Y-28127580D01*
X102188885Y-28127580D01*
X102185079Y-28108446D01*
X102158019Y-28081386D01*
X102119751Y-28081386D01*
X102092691Y-28108446D01*
X102088885Y-28127580D01*
X102088885Y-29077580D01*
X101853171Y-29077580D01*
X101834037Y-29081386D01*
X101806977Y-29108446D01*
X101695866Y-29108446D01*
X101695866Y-27966469D01*
X111823802Y-27966469D01*
X111823802Y-29288691D01*
G37*
D11*
%TO.P,J1,1,Pin_1*%
%TO.N,GND*%
X106692144Y-36840000D03*
D12*
%TO.P,J1,2,Pin_2*%
%TO.N,+5V*%
X106692144Y-39380000D03*
%TO.P,J1,3,Pin_3*%
%TO.N,+3.3V*%
X106692144Y-41920000D03*
%TO.P,J1,4,Pin_4*%
%TO.N,Output*%
X106692144Y-44460000D03*
%TO.P,J1,5,Pin_5*%
%TO.N,Threshold*%
X106692144Y-47000000D03*
%TO.P,J1,6,Pin_6*%
%TO.N,GND*%
X106692144Y-49540000D03*
%TD*%
D13*
%TO.P,H2,1,1*%
%TO.N,GND*%
X95192144Y-56000000D03*
%TD*%
%TO.P,H1,1,1*%
%TO.N,GND*%
X106692144Y-56000000D03*
%TD*%
D14*
%TO.P,C1,1*%
%TO.N,GND*%
X106654644Y-33880000D03*
%TO.P,C1,2*%
%TO.N,+5V*%
X108729644Y-33880000D03*
%TD*%
D15*
%TO.P,R1,1*%
%TO.N,+5V*%
X91992144Y-33420000D03*
%TO.P,R1,2*%
%TO.N,Net-(Q1-A)*%
X91992144Y-31420000D03*
%TD*%
D16*
%TO.P,R2,1*%
%TO.N,+5V*%
X91692144Y-36920000D03*
%TO.P,R2,2*%
%TO.N,Net-(Q1-C)*%
X93692144Y-36920000D03*
%TD*%
D17*
%TO.P,Q1,1,C*%
%TO.N,Net-(Q1-C)*%
X95792144Y-36920000D03*
D18*
%TO.P,Q1,2,E*%
%TO.N,GND*%
X98332144Y-36920000D03*
%TO.P,Q1,3,K*%
X98332144Y-31420000D03*
%TO.P,Q1,4,A*%
%TO.N,Net-(Q1-A)*%
X95792144Y-31420000D03*
%TD*%
D19*
%TO.P,R3,2*%
%TO.N,Output*%
X104192144Y-43880000D03*
%TO.P,R3,1*%
%TO.N,+3.3V*%
X104192144Y-41880000D03*
%TD*%
D20*
%TO.P,U2,1,GND*%
%TO.N,GND*%
X100812144Y-49500000D03*
D21*
%TO.P,U2,2,+*%
%TO.N,Net-(Q1-C)*%
X100812144Y-46960000D03*
%TO.P,U2,3,-*%
%TO.N,Threshold*%
X100812144Y-44420000D03*
%TO.P,U2,4,V-*%
%TO.N,GND*%
X100812144Y-41880000D03*
%TO.P,U2,5,BAL*%
%TO.N,unconnected-(U2-BAL-Pad5)*%
X93192144Y-41880000D03*
%TO.P,U2,6,STRB*%
%TO.N,+5V*%
X93192144Y-44420000D03*
%TO.P,U2,7*%
%TO.N,Output*%
X93192144Y-46960000D03*
%TO.P,U2,8,V+*%
%TO.N,+5V*%
X93192144Y-49500000D03*
%TD*%
D22*
%TO.N,GND*%
X103192144Y-33000000D03*
X97192144Y-47000000D03*
%TD*%
D23*
%TO.N,Net-(Q1-C)*%
X93692144Y-36920000D02*
X95792144Y-36920000D01*
%TO.N,+3.3V*%
X106652144Y-41880000D02*
X106692144Y-41920000D01*
X104192144Y-41880000D02*
X106652144Y-41880000D01*
%TO.N,Output*%
X109692144Y-46000000D02*
X108152144Y-44460000D01*
X108692144Y-52000000D02*
X109692144Y-51000000D01*
X108152144Y-44460000D02*
X106692144Y-44460000D01*
X98632144Y-52000000D02*
X108692144Y-52000000D01*
X93592144Y-46960000D02*
X98632144Y-52000000D01*
X109692144Y-51000000D02*
X109692144Y-46000000D01*
X93192144Y-46960000D02*
X93592144Y-46960000D01*
%TO.N,+5V*%
X91292144Y-33420000D02*
X91992144Y-33420000D01*
X90491144Y-30627734D02*
X90491144Y-32619000D01*
X90491144Y-32619000D02*
X91292144Y-33420000D01*
X99561144Y-29619000D02*
X91499878Y-29619000D01*
X106574644Y-31000000D02*
X100942144Y-31000000D01*
X108729644Y-33880000D02*
X108729644Y-33155000D01*
X108729644Y-33155000D02*
X106574644Y-31000000D01*
X100942144Y-31000000D02*
X99561144Y-29619000D01*
X91499878Y-29619000D02*
X90491144Y-30627734D01*
%TO.N,GND*%
X106654644Y-36802500D02*
X106692144Y-36840000D01*
X106654644Y-33880000D02*
X106654644Y-36802500D01*
X105852144Y-36840000D02*
X106692144Y-36840000D01*
X100812144Y-41880000D02*
X105852144Y-36840000D01*
X99692144Y-49500000D02*
X97192144Y-47000000D01*
X100812144Y-49500000D02*
X99692144Y-49500000D01*
X106652144Y-49500000D02*
X106692144Y-49540000D01*
X100812144Y-49500000D02*
X106652144Y-49500000D01*
X98211144Y-39679000D02*
X100412144Y-41880000D01*
X100412144Y-41880000D02*
X100812144Y-41880000D01*
X98211144Y-37041000D02*
X98211144Y-39679000D01*
X98332144Y-36920000D02*
X98211144Y-37041000D01*
X97332144Y-32420000D02*
X97332144Y-34890552D01*
X98332144Y-31420000D02*
X97332144Y-32420000D01*
X97332144Y-34890552D02*
X98332144Y-35890552D01*
X98332144Y-35890552D02*
X98332144Y-36920000D01*
%TO.N,+5V*%
X108729644Y-37760766D02*
X108729644Y-33880000D01*
X107110410Y-39380000D02*
X108729644Y-37760766D01*
X106692144Y-39380000D02*
X107110410Y-39380000D01*
X91191144Y-47899000D02*
X91191144Y-46296844D01*
X92792144Y-49500000D02*
X91191144Y-47899000D01*
X91191144Y-46296844D02*
X93067988Y-44420000D01*
X93192144Y-49500000D02*
X92792144Y-49500000D01*
X93067988Y-44420000D02*
X93192144Y-44420000D01*
%TO.N,Output*%
X106112144Y-43880000D02*
X106692144Y-44460000D01*
X104192144Y-43880000D02*
X106112144Y-43880000D01*
%TO.N,Threshold*%
X104692144Y-47000000D02*
X106692144Y-47000000D01*
X102112144Y-44420000D02*
X104692144Y-47000000D01*
X100812144Y-44420000D02*
X102112144Y-44420000D01*
%TO.N,+5V*%
X91191144Y-42819000D02*
X92792144Y-44420000D01*
X91191144Y-37421000D02*
X91191144Y-42819000D01*
X92792144Y-44420000D02*
X93192144Y-44420000D01*
X91692144Y-36920000D02*
X91191144Y-37421000D01*
X91992144Y-36620000D02*
X91692144Y-36920000D01*
X91992144Y-33420000D02*
X91992144Y-36620000D01*
%TO.N,Net-(Q1-A)*%
X91992144Y-31420000D02*
X95792144Y-31420000D01*
%TO.N,Net-(Q1-C)*%
X100687988Y-46960000D02*
X100812144Y-46960000D01*
X95792144Y-42064156D02*
X100687988Y-46960000D01*
X95792144Y-36920000D02*
X95792144Y-42064156D01*
%TD*%
%TA.AperFunction,Conductor*%
%TO.N,GND*%
G36*
X111864683Y-27730185D02*
G01*
X111910438Y-27782989D01*
X111921644Y-27834500D01*
X111921644Y-27969651D01*
X111901959Y-28036690D01*
X111849155Y-28082445D01*
X111779997Y-28092389D01*
X111728392Y-28068822D01*
X111721453Y-28068822D01*
X101798171Y-28068822D01*
X101798171Y-29186337D01*
X111731005Y-29186337D01*
X111771286Y-29164342D01*
X111840978Y-29169326D01*
X111896911Y-29211198D01*
X111921328Y-29276662D01*
X111921644Y-29285508D01*
X111921644Y-59315500D01*
X111901959Y-59382539D01*
X111849155Y-59428294D01*
X111797644Y-59439500D01*
X90296644Y-59439500D01*
X90229605Y-59419815D01*
X90183850Y-59367011D01*
X90172644Y-59315500D01*
X90172644Y-48140874D01*
X90192329Y-48073835D01*
X90245133Y-48028080D01*
X90314291Y-48018136D01*
X90377847Y-48047161D01*
X90415621Y-48105939D01*
X90418261Y-48116683D01*
X90421405Y-48132489D01*
X90421408Y-48132501D01*
X90481746Y-48278172D01*
X90481753Y-48278185D01*
X90569354Y-48409288D01*
X90569357Y-48409292D01*
X91456042Y-49295976D01*
X91489527Y-49357299D01*
X91491979Y-49393377D01*
X91491644Y-49397637D01*
X91491644Y-49602351D01*
X91523666Y-49804534D01*
X91586925Y-49999223D01*
X91679859Y-50181613D01*
X91800172Y-50347213D01*
X91944930Y-50491971D01*
X92099893Y-50604556D01*
X92110534Y-50612287D01*
X92220705Y-50668422D01*
X92292920Y-50705218D01*
X92292922Y-50705218D01*
X92292925Y-50705220D01*
X92382603Y-50734358D01*
X92487609Y-50768477D01*
X92588701Y-50784488D01*
X92689792Y-50800500D01*
X92689793Y-50800500D01*
X93694495Y-50800500D01*
X93694496Y-50800500D01*
X93896678Y-50768477D01*
X94091363Y-50705220D01*
X94273754Y-50612287D01*
X94366734Y-50544732D01*
X94439357Y-50491971D01*
X94439359Y-50491968D01*
X94439363Y-50491966D01*
X94584110Y-50347219D01*
X94584112Y-50347215D01*
X94584115Y-50347213D01*
X94648905Y-50258036D01*
X94704431Y-50181610D01*
X94797364Y-49999219D01*
X94860621Y-49804534D01*
X94883255Y-49661625D01*
X94913184Y-49598492D01*
X94972495Y-49561560D01*
X95042358Y-49562558D01*
X95093409Y-49593343D01*
X98010355Y-52510289D01*
X98121855Y-52621789D01*
X98252965Y-52709394D01*
X98355977Y-52752062D01*
X98398646Y-52769737D01*
X98553296Y-52800499D01*
X98553299Y-52800500D01*
X98553301Y-52800500D01*
X108770988Y-52800500D01*
X108770989Y-52800499D01*
X108925641Y-52769737D01*
X109071323Y-52709394D01*
X109202433Y-52621789D01*
X110313933Y-51510289D01*
X110401538Y-51379179D01*
X110461882Y-51233497D01*
X110492644Y-51078842D01*
X110492644Y-50921157D01*
X110492644Y-45921158D01*
X110492644Y-45921155D01*
X110492643Y-45921153D01*
X110478035Y-45847713D01*
X110461881Y-45766503D01*
X110457025Y-45754780D01*
X110401541Y-45620827D01*
X110401534Y-45620814D01*
X110313934Y-45489712D01*
X110261031Y-45436809D01*
X110202433Y-45378211D01*
X109548756Y-44724534D01*
X108662436Y-43838213D01*
X108662432Y-43838210D01*
X108531329Y-43750609D01*
X108531316Y-43750602D01*
X108385645Y-43690264D01*
X108385633Y-43690261D01*
X108230989Y-43659500D01*
X108230986Y-43659500D01*
X108092759Y-43659500D01*
X108025720Y-43639815D01*
X107992441Y-43608385D01*
X107962505Y-43567182D01*
X107962500Y-43567176D01*
X107809967Y-43414643D01*
X107809965Y-43414641D01*
X107638848Y-43290317D01*
X107596184Y-43234988D01*
X107590205Y-43165374D01*
X107622811Y-43103580D01*
X107638846Y-43089684D01*
X107809965Y-42965359D01*
X107962503Y-42812821D01*
X108089301Y-42638299D01*
X108187236Y-42446089D01*
X108253898Y-42240926D01*
X108272163Y-42125606D01*
X108287644Y-42027866D01*
X108287644Y-41812133D01*
X108253898Y-41599077D01*
X108253898Y-41599074D01*
X108187236Y-41393911D01*
X108089301Y-41201701D01*
X107962503Y-41027179D01*
X107809965Y-40874641D01*
X107638848Y-40750317D01*
X107596184Y-40694988D01*
X107590205Y-40625374D01*
X107622811Y-40563580D01*
X107638846Y-40549684D01*
X107809965Y-40425359D01*
X107962503Y-40272821D01*
X108089301Y-40098299D01*
X108187236Y-39906089D01*
X108253898Y-39700926D01*
X108270337Y-39597136D01*
X108287644Y-39487866D01*
X108287644Y-39386206D01*
X108307329Y-39319167D01*
X108323963Y-39298525D01*
X109351430Y-38271058D01*
X109351433Y-38271055D01*
X109439038Y-38139945D01*
X109499382Y-37994263D01*
X109530144Y-37839608D01*
X109530144Y-37681923D01*
X109530144Y-35004730D01*
X109549829Y-34937691D01*
X109566463Y-34917049D01*
X109659856Y-34823656D01*
X109751958Y-34674334D01*
X109807143Y-34507797D01*
X109817644Y-34405009D01*
X109817643Y-33354992D01*
X109807143Y-33252203D01*
X109751958Y-33085666D01*
X109659856Y-32936344D01*
X109535800Y-32812288D01*
X109535799Y-32812287D01*
X109435646Y-32750513D01*
X109397639Y-32713864D01*
X109395987Y-32711392D01*
X109351433Y-32644711D01*
X109239933Y-32533211D01*
X108192548Y-31485826D01*
X107084936Y-30378213D01*
X107084932Y-30378210D01*
X106953829Y-30290609D01*
X106953816Y-30290602D01*
X106808145Y-30230264D01*
X106808133Y-30230261D01*
X106653489Y-30199500D01*
X106653486Y-30199500D01*
X101325084Y-30199500D01*
X101258045Y-30179815D01*
X101237403Y-30163181D01*
X100071436Y-28997213D01*
X100071432Y-28997210D01*
X99940329Y-28909609D01*
X99940316Y-28909602D01*
X99794645Y-28849264D01*
X99794633Y-28849261D01*
X99639989Y-28818500D01*
X99639986Y-28818500D01*
X91578720Y-28818500D01*
X91421035Y-28818500D01*
X91421033Y-28818500D01*
X91266386Y-28849261D01*
X91266376Y-28849264D01*
X91120705Y-28909602D01*
X91120692Y-28909609D01*
X90989590Y-28997209D01*
X90933840Y-29052960D01*
X90878089Y-29108711D01*
X90384325Y-29602475D01*
X90323002Y-29635960D01*
X90253310Y-29630976D01*
X90197377Y-29589104D01*
X90172960Y-29523640D01*
X90172644Y-29514794D01*
X90172644Y-27834500D01*
X90192329Y-27767461D01*
X90245133Y-27721706D01*
X90296644Y-27710500D01*
X111797644Y-27710500D01*
X111864683Y-27730185D01*
G37*
%TD.AperFunction*%
%TA.AperFunction,Conductor*%
G36*
X94979921Y-42275747D02*
G01*
X95031396Y-42322991D01*
X95039770Y-42339572D01*
X95082746Y-42443328D01*
X95082753Y-42443341D01*
X95170354Y-42574444D01*
X95170357Y-42574448D01*
X99116349Y-46520439D01*
X99149834Y-46581762D01*
X99146602Y-46646430D01*
X99143666Y-46655465D01*
X99111644Y-46857648D01*
X99111644Y-47062351D01*
X99143666Y-47264534D01*
X99206925Y-47459223D01*
X99299859Y-47641613D01*
X99420172Y-47807213D01*
X99564926Y-47951967D01*
X99564931Y-47951971D01*
X99659092Y-48020383D01*
X99701758Y-48075713D01*
X99707737Y-48145326D01*
X99675132Y-48207121D01*
X99625212Y-48238407D01*
X99543022Y-48265642D01*
X99543019Y-48265643D01*
X99393798Y-48357684D01*
X99269828Y-48481654D01*
X99177787Y-48630875D01*
X99177785Y-48630880D01*
X99122638Y-48797302D01*
X99122637Y-48797309D01*
X99112144Y-48900013D01*
X99112144Y-49250000D01*
X100496458Y-49250000D01*
X100492064Y-49254394D01*
X100439403Y-49345606D01*
X100412144Y-49447339D01*
X100412144Y-49552661D01*
X100439403Y-49654394D01*
X100492064Y-49745606D01*
X100496458Y-49750000D01*
X99112145Y-49750000D01*
X99112145Y-50099986D01*
X99122638Y-50202697D01*
X99177785Y-50369119D01*
X99177787Y-50369124D01*
X99269828Y-50518345D01*
X99393798Y-50642315D01*
X99543019Y-50734356D01*
X99543024Y-50734358D01*
X99709446Y-50789505D01*
X99709453Y-50789506D01*
X99812163Y-50799999D01*
X100562143Y-50799999D01*
X100562144Y-50799998D01*
X100562144Y-49815686D01*
X100566538Y-49820080D01*
X100657750Y-49872741D01*
X100759483Y-49900000D01*
X100864805Y-49900000D01*
X100966538Y-49872741D01*
X101057750Y-49820080D01*
X101062144Y-49815686D01*
X101062144Y-50799999D01*
X101812116Y-50799999D01*
X101812130Y-50799998D01*
X101914841Y-50789505D01*
X102081263Y-50734358D01*
X102081268Y-50734356D01*
X102230489Y-50642315D01*
X102354459Y-50518345D01*
X102446500Y-50369124D01*
X102446502Y-50369119D01*
X102501649Y-50202697D01*
X102501650Y-50202690D01*
X102512143Y-50099986D01*
X102512144Y-50099973D01*
X102512144Y-49750000D01*
X101127830Y-49750000D01*
X101132224Y-49745606D01*
X101184885Y-49654394D01*
X101212144Y-49552661D01*
X101212144Y-49447339D01*
X101184885Y-49345606D01*
X101132224Y-49254394D01*
X101127830Y-49250000D01*
X102512143Y-49250000D01*
X102512143Y-48900028D01*
X102512142Y-48900013D01*
X102501649Y-48797302D01*
X102446502Y-48630880D01*
X102446500Y-48630875D01*
X102354459Y-48481654D01*
X102230489Y-48357684D01*
X102081268Y-48265643D01*
X102081263Y-48265641D01*
X101999075Y-48238407D01*
X101941630Y-48198634D01*
X101914807Y-48134119D01*
X101927122Y-48065343D01*
X101965193Y-48020383D01*
X102059363Y-47951966D01*
X102204110Y-47807219D01*
X102204112Y-47807215D01*
X102204115Y-47807213D01*
X102256876Y-47734590D01*
X102324431Y-47641610D01*
X102417364Y-47459219D01*
X102480621Y-47264534D01*
X102512644Y-47062352D01*
X102512644Y-46857648D01*
X102480621Y-46655466D01*
X102417364Y-46460781D01*
X102417362Y-46460778D01*
X102417362Y-46460776D01*
X102364272Y-46356582D01*
X102324431Y-46278390D01*
X102267115Y-46199500D01*
X102204115Y-46112786D01*
X102059357Y-45968028D01*
X101893758Y-45847715D01*
X101854757Y-45827843D01*
X101801061Y-45800483D01*
X101793940Y-45793758D01*
X101784709Y-45790489D01*
X101768962Y-45770167D01*
X101750267Y-45752511D01*
X101747912Y-45743002D01*
X101741913Y-45735260D01*
X101739652Y-45709647D01*
X101733472Y-45684690D01*
X101736631Y-45675419D01*
X101735770Y-45665661D01*
X101747716Y-45642890D01*
X101756009Y-45618555D01*
X101764544Y-45610814D01*
X101768230Y-45603789D01*
X101790210Y-45587538D01*
X101796129Y-45582171D01*
X101798555Y-45580793D01*
X101893754Y-45532287D01*
X101928730Y-45506874D01*
X101934757Y-45503453D01*
X101962277Y-45496985D01*
X101988902Y-45487484D01*
X101995840Y-45489097D01*
X102002773Y-45487468D01*
X102029416Y-45496903D01*
X102056957Y-45503307D01*
X102065216Y-45509582D01*
X102068635Y-45510793D01*
X102071248Y-45514165D01*
X102083667Y-45523601D01*
X104181851Y-47621786D01*
X104181855Y-47621789D01*
X104312958Y-47709390D01*
X104312971Y-47709397D01*
X104458642Y-47769735D01*
X104458647Y-47769737D01*
X104613297Y-47800499D01*
X104613300Y-47800500D01*
X104613302Y-47800500D01*
X104770986Y-47800500D01*
X105291529Y-47800500D01*
X105358568Y-47820185D01*
X105391847Y-47851615D01*
X105421785Y-47892821D01*
X105574323Y-48045359D01*
X105739297Y-48165220D01*
X105745864Y-48169991D01*
X105788529Y-48225321D01*
X105794508Y-48294935D01*
X105761902Y-48356730D01*
X105745864Y-48370627D01*
X105574647Y-48495024D01*
X105422169Y-48647502D01*
X105422169Y-48647503D01*
X105295415Y-48821963D01*
X105197516Y-49014098D01*
X105130877Y-49219190D01*
X105119663Y-49290000D01*
X106149435Y-49290000D01*
X106137692Y-49310339D01*
X106097144Y-49461667D01*
X106097144Y-49618333D01*
X106137692Y-49769661D01*
X106149435Y-49790000D01*
X105119663Y-49790000D01*
X105130877Y-49860809D01*
X105197516Y-50065901D01*
X105295415Y-50258036D01*
X105422169Y-50432496D01*
X105422169Y-50432497D01*
X105574646Y-50584974D01*
X105749107Y-50711728D01*
X105941242Y-50809627D01*
X106146334Y-50876265D01*
X106359324Y-50910000D01*
X106442144Y-50910000D01*
X106442144Y-50082709D01*
X106462483Y-50094452D01*
X106613811Y-50135000D01*
X106770477Y-50135000D01*
X106921805Y-50094452D01*
X106942144Y-50082709D01*
X106942144Y-50910000D01*
X107024964Y-50910000D01*
X107237953Y-50876265D01*
X107443045Y-50809627D01*
X107635180Y-50711728D01*
X107809640Y-50584974D01*
X107809641Y-50584974D01*
X107962118Y-50432497D01*
X107962118Y-50432496D01*
X108088872Y-50258036D01*
X108186771Y-50065901D01*
X108253410Y-49860809D01*
X108264625Y-49790000D01*
X107234853Y-49790000D01*
X107246596Y-49769661D01*
X107287144Y-49618333D01*
X107287144Y-49461667D01*
X107246596Y-49310339D01*
X107234853Y-49290000D01*
X108264625Y-49290000D01*
X108253410Y-49219190D01*
X108186771Y-49014098D01*
X108088872Y-48821963D01*
X107962118Y-48647503D01*
X107962118Y-48647502D01*
X107809641Y-48495025D01*
X107638423Y-48370627D01*
X107595758Y-48315297D01*
X107589779Y-48245683D01*
X107622385Y-48183888D01*
X107638424Y-48169991D01*
X107644991Y-48165220D01*
X107809965Y-48045359D01*
X107962503Y-47892821D01*
X108089301Y-47718299D01*
X108187236Y-47526089D01*
X108253898Y-47320926D01*
X108278749Y-47164022D01*
X108287644Y-47107866D01*
X108287644Y-46892133D01*
X108253898Y-46679077D01*
X108253898Y-46679074D01*
X108187236Y-46473911D01*
X108089301Y-46281701D01*
X107962503Y-46107179D01*
X107809965Y-45954641D01*
X107638848Y-45830317D01*
X107596184Y-45774988D01*
X107590205Y-45705374D01*
X107622811Y-45643580D01*
X107638846Y-45629684D01*
X107809965Y-45505359D01*
X107850014Y-45465310D01*
X107911337Y-45431825D01*
X107981029Y-45436809D01*
X108025376Y-45465310D01*
X108855325Y-46295259D01*
X108888810Y-46356582D01*
X108891644Y-46382940D01*
X108891644Y-50617060D01*
X108871959Y-50684099D01*
X108855325Y-50704741D01*
X108396885Y-51163181D01*
X108335562Y-51196666D01*
X108309204Y-51199500D01*
X99015084Y-51199500D01*
X98948045Y-51179815D01*
X98927403Y-51163181D01*
X94928244Y-47164022D01*
X94894759Y-47102699D01*
X94892309Y-47066592D01*
X94892642Y-47062359D01*
X94892644Y-47062352D01*
X94892644Y-46857648D01*
X94860621Y-46655466D01*
X94797364Y-46460781D01*
X94797362Y-46460778D01*
X94797362Y-46460776D01*
X94744272Y-46356582D01*
X94704431Y-46278390D01*
X94647115Y-46199500D01*
X94584115Y-46112786D01*
X94439357Y-45968028D01*
X94273758Y-45847715D01*
X94234757Y-45827843D01*
X94181061Y-45800483D01*
X94130267Y-45752511D01*
X94113472Y-45684690D01*
X94136009Y-45618555D01*
X94181061Y-45579516D01*
X94273754Y-45532287D01*
X94313642Y-45503307D01*
X94439357Y-45411971D01*
X94439359Y-45411968D01*
X94439363Y-45411966D01*
X94584110Y-45267219D01*
X94584112Y-45267215D01*
X94584115Y-45267213D01*
X94638629Y-45192180D01*
X94704431Y-45101610D01*
X94797364Y-44919219D01*
X94860621Y-44724534D01*
X94892644Y-44522352D01*
X94892644Y-44317648D01*
X94883610Y-44260611D01*
X94860621Y-44115465D01*
X94831271Y-44025137D01*
X94797364Y-43920781D01*
X94797362Y-43920778D01*
X94797362Y-43920776D01*
X94734911Y-43798211D01*
X94704431Y-43738390D01*
X94640404Y-43650263D01*
X94584115Y-43572786D01*
X94439357Y-43428028D01*
X94273758Y-43307715D01*
X94234757Y-43287843D01*
X94181061Y-43260483D01*
X94130267Y-43212511D01*
X94113472Y-43144690D01*
X94136009Y-43078555D01*
X94181061Y-43039516D01*
X94273754Y-42992287D01*
X94348287Y-42938136D01*
X94439357Y-42871971D01*
X94439359Y-42871968D01*
X94439363Y-42871966D01*
X94584110Y-42727219D01*
X94584112Y-42727215D01*
X94584115Y-42727213D01*
X94636876Y-42654590D01*
X94704431Y-42561610D01*
X94797364Y-42379219D01*
X94807278Y-42348705D01*
X94846716Y-42291030D01*
X94911074Y-42263832D01*
X94979921Y-42275747D01*
G37*
%TD.AperFunction*%
%TA.AperFunction,Conductor*%
G36*
X100037347Y-31227727D02*
G01*
X100043825Y-31233759D01*
X100431851Y-31621786D01*
X100431855Y-31621789D01*
X100562958Y-31709390D01*
X100562971Y-31709397D01*
X100708642Y-31769735D01*
X100708647Y-31769737D01*
X100863297Y-31800499D01*
X100863300Y-31800500D01*
X100863302Y-31800500D01*
X101020986Y-31800500D01*
X106191704Y-31800500D01*
X106258743Y-31820185D01*
X106279385Y-31836819D01*
X106913424Y-32470858D01*
X106946909Y-32532181D01*
X106941925Y-32601873D01*
X106913424Y-32646220D01*
X106904644Y-32655000D01*
X106904644Y-35104999D01*
X107042116Y-35104999D01*
X107042130Y-35104998D01*
X107144841Y-35094505D01*
X107311263Y-35039358D01*
X107311268Y-35039356D01*
X107460489Y-34947315D01*
X107584462Y-34823342D01*
X107586309Y-34820348D01*
X107588113Y-34818724D01*
X107588942Y-34817677D01*
X107589120Y-34817818D01*
X107638254Y-34773621D01*
X107707217Y-34762396D01*
X107771300Y-34790236D01*
X107781762Y-34800048D01*
X107790629Y-34809384D01*
X107799432Y-34823656D01*
X107893960Y-34918184D01*
X107895056Y-34919338D01*
X107910306Y-34949063D01*
X107926310Y-34978372D01*
X107926566Y-34980757D01*
X107926949Y-34981503D01*
X107926805Y-34982977D01*
X107929144Y-35004730D01*
X107929144Y-35388071D01*
X107909459Y-35455110D01*
X107856655Y-35500865D01*
X107787497Y-35510809D01*
X107766141Y-35505777D01*
X107689845Y-35480495D01*
X107689834Y-35480493D01*
X107587130Y-35470000D01*
X106942144Y-35470000D01*
X106942144Y-36297290D01*
X106921805Y-36285548D01*
X106770477Y-36245000D01*
X106613811Y-36245000D01*
X106462483Y-36285548D01*
X106442144Y-36297290D01*
X106442144Y-35470000D01*
X105797172Y-35470000D01*
X105797156Y-35470001D01*
X105694446Y-35480494D01*
X105528024Y-35535641D01*
X105528019Y-35535643D01*
X105378798Y-35627684D01*
X105254828Y-35751654D01*
X105162787Y-35900875D01*
X105162785Y-35900880D01*
X105107638Y-36067302D01*
X105107637Y-36067309D01*
X105097144Y-36170013D01*
X105097144Y-36590000D01*
X106149435Y-36590000D01*
X106137692Y-36610339D01*
X106097144Y-36761667D01*
X106097144Y-36918333D01*
X106137692Y-37069661D01*
X106149435Y-37090000D01*
X105097145Y-37090000D01*
X105097145Y-37509986D01*
X105107638Y-37612697D01*
X105162785Y-37779119D01*
X105162787Y-37779124D01*
X105254828Y-37928345D01*
X105378798Y-38052315D01*
X105528020Y-38144356D01*
X105528860Y-38144748D01*
X105529339Y-38145170D01*
X105534169Y-38148149D01*
X105533660Y-38148973D01*
X105581304Y-38190915D01*
X105600462Y-38258107D01*
X105580253Y-38324990D01*
X105564148Y-38344816D01*
X105421784Y-38487180D01*
X105294987Y-38661700D01*
X105197053Y-38853908D01*
X105130389Y-39059077D01*
X105096644Y-39272133D01*
X105096644Y-39487866D01*
X105130389Y-39700922D01*
X105130390Y-39700926D01*
X105197052Y-39906089D01*
X105294987Y-40098299D01*
X105421785Y-40272821D01*
X105574323Y-40425359D01*
X105695598Y-40513471D01*
X105745438Y-40549682D01*
X105788103Y-40605012D01*
X105794082Y-40674626D01*
X105761476Y-40736421D01*
X105745438Y-40750318D01*
X105690821Y-40790000D01*
X105574323Y-40874641D01*
X105574321Y-40874643D01*
X105574320Y-40874643D01*
X105421787Y-41027176D01*
X105421782Y-41027182D01*
X105420911Y-41028382D01*
X105420462Y-41028727D01*
X105418621Y-41030884D01*
X105418168Y-41030497D01*
X105416578Y-41031723D01*
X105414304Y-41036703D01*
X105389205Y-41052832D01*
X105365583Y-41071050D01*
X105358907Y-41072303D01*
X105355526Y-41074477D01*
X105320591Y-41079500D01*
X105304375Y-41079500D01*
X105237336Y-41059815D01*
X105216694Y-41043182D01*
X105200688Y-41027176D01*
X105110800Y-40937288D01*
X105009236Y-40874643D01*
X104961480Y-40845187D01*
X104961475Y-40845185D01*
X104960006Y-40844698D01*
X104794941Y-40790001D01*
X104794939Y-40790000D01*
X104692154Y-40779500D01*
X103692142Y-40779500D01*
X103692124Y-40779501D01*
X103589347Y-40790000D01*
X103589344Y-40790001D01*
X103422812Y-40845185D01*
X103422807Y-40845187D01*
X103273486Y-40937289D01*
X103149433Y-41061342D01*
X103057331Y-41210663D01*
X103057330Y-41210666D01*
X103002145Y-41377203D01*
X103002145Y-41377204D01*
X103002144Y-41377204D01*
X102991644Y-41479983D01*
X102991644Y-42280001D01*
X102991645Y-42280019D01*
X103002144Y-42382796D01*
X103002145Y-42382799D01*
X103057329Y-42549331D01*
X103057330Y-42549334D01*
X103138233Y-42680500D01*
X103149433Y-42698657D01*
X103243095Y-42792319D01*
X103276580Y-42853642D01*
X103271596Y-42923334D01*
X103243095Y-42967681D01*
X103149433Y-43061342D01*
X103057331Y-43210663D01*
X103057329Y-43210668D01*
X103031756Y-43287843D01*
X103002145Y-43377203D01*
X103002145Y-43377204D01*
X103002144Y-43377204D01*
X102991644Y-43479983D01*
X102991644Y-43868059D01*
X102971959Y-43935098D01*
X102919155Y-43980853D01*
X102849997Y-43990797D01*
X102786441Y-43961772D01*
X102779963Y-43955740D01*
X102622436Y-43798213D01*
X102622432Y-43798210D01*
X102491329Y-43710609D01*
X102491316Y-43710602D01*
X102345643Y-43650263D01*
X102345635Y-43650261D01*
X102293603Y-43639911D01*
X102231692Y-43607526D01*
X102217477Y-43591179D01*
X102215186Y-43588026D01*
X102204110Y-43572781D01*
X102059363Y-43428034D01*
X102059357Y-43428028D01*
X101893755Y-43307713D01*
X101800513Y-43260203D01*
X101749718Y-43212229D01*
X101732923Y-43144407D01*
X101755461Y-43078273D01*
X101800515Y-43039234D01*
X101893491Y-42991861D01*
X102059038Y-42871582D01*
X102059039Y-42871582D01*
X102203726Y-42726895D01*
X102203726Y-42726894D01*
X102324003Y-42561349D01*
X102416899Y-42379029D01*
X102480134Y-42184413D01*
X102488753Y-42130000D01*
X101127830Y-42130000D01*
X101132224Y-42125606D01*
X101184885Y-42034394D01*
X101212144Y-41932661D01*
X101212144Y-41827339D01*
X101184885Y-41725606D01*
X101132224Y-41634394D01*
X101127830Y-41630000D01*
X102488753Y-41630000D01*
X102480134Y-41575586D01*
X102416899Y-41380970D01*
X102324003Y-41198650D01*
X102203726Y-41033105D01*
X102203726Y-41033104D01*
X102059039Y-40888417D01*
X101893493Y-40768140D01*
X101711175Y-40675244D01*
X101516561Y-40612009D01*
X101314461Y-40580000D01*
X101062144Y-40580000D01*
X101062144Y-41564314D01*
X101057750Y-41559920D01*
X100966538Y-41507259D01*
X100864805Y-41480000D01*
X100759483Y-41480000D01*
X100657750Y-41507259D01*
X100566538Y-41559920D01*
X100562144Y-41564314D01*
X100562144Y-40580000D01*
X100309827Y-40580000D01*
X100107726Y-40612009D01*
X99913112Y-40675244D01*
X99730794Y-40768140D01*
X99565249Y-40888417D01*
X99565248Y-40888417D01*
X99420561Y-41033104D01*
X99420561Y-41033105D01*
X99300284Y-41198650D01*
X99207388Y-41380970D01*
X99144153Y-41575586D01*
X99135535Y-41630000D01*
X100496458Y-41630000D01*
X100492064Y-41634394D01*
X100439403Y-41725606D01*
X100412144Y-41827339D01*
X100412144Y-41932661D01*
X100439403Y-42034394D01*
X100492064Y-42125606D01*
X100496458Y-42130000D01*
X99135535Y-42130000D01*
X99144153Y-42184413D01*
X99207388Y-42379029D01*
X99300284Y-42561349D01*
X99420561Y-42726894D01*
X99420561Y-42726895D01*
X99565248Y-42871582D01*
X99730796Y-42991861D01*
X99823772Y-43039234D01*
X99874569Y-43087208D01*
X99891364Y-43155029D01*
X99868827Y-43221164D01*
X99823774Y-43260203D01*
X99730532Y-43307713D01*
X99564930Y-43428028D01*
X99420172Y-43572786D01*
X99299859Y-43738386D01*
X99206925Y-43920776D01*
X99164963Y-44049923D01*
X99125525Y-44107598D01*
X99061166Y-44134796D01*
X98992320Y-44122881D01*
X98959351Y-44099285D01*
X96628963Y-41768897D01*
X96614259Y-41741969D01*
X96597667Y-41716151D01*
X96596775Y-41709950D01*
X96595478Y-41707574D01*
X96592644Y-41681216D01*
X96592644Y-38544499D01*
X96612329Y-38477460D01*
X96665133Y-38431705D01*
X96716644Y-38420499D01*
X96840015Y-38420499D01*
X96840016Y-38420499D01*
X96899627Y-38414091D01*
X97034475Y-38363796D01*
X97149690Y-38277546D01*
X97235940Y-38162331D01*
X97235941Y-38162326D01*
X97240191Y-38154546D01*
X97243344Y-38156267D01*
X97274958Y-38114025D01*
X97340419Y-38089599D01*
X97408694Y-38104442D01*
X97422167Y-38112964D01*
X97545972Y-38202914D01*
X97756341Y-38310102D01*
X97980896Y-38383065D01*
X97980895Y-38383065D01*
X98214092Y-38420000D01*
X98420514Y-38420000D01*
X98487553Y-38439685D01*
X98533308Y-38492489D01*
X98543252Y-38561647D01*
X98542131Y-38568192D01*
X98511644Y-38721456D01*
X98511644Y-38721459D01*
X98511644Y-38918541D01*
X98511644Y-38918543D01*
X98511643Y-38918543D01*
X98550091Y-39111829D01*
X98550094Y-39111839D01*
X98625508Y-39293907D01*
X98625515Y-39293920D01*
X98735004Y-39457781D01*
X98735007Y-39457785D01*
X98874358Y-39597136D01*
X98874362Y-39597139D01*
X99038223Y-39706628D01*
X99038236Y-39706635D01*
X99220304Y-39782049D01*
X99220309Y-39782051D01*
X99220313Y-39782051D01*
X99220314Y-39782052D01*
X99413600Y-39820500D01*
X99413603Y-39820500D01*
X99610687Y-39820500D01*
X99740726Y-39794632D01*
X99803979Y-39782051D01*
X99986058Y-39706632D01*
X100149926Y-39597139D01*
X100289283Y-39457782D01*
X100398776Y-39293914D01*
X100474195Y-39111835D01*
X100512644Y-38918541D01*
X100512644Y-38721459D01*
X100512644Y-38721456D01*
X100474196Y-38528170D01*
X100474195Y-38528169D01*
X100474195Y-38528165D01*
X100457218Y-38487179D01*
X100398779Y-38346092D01*
X100398772Y-38346079D01*
X100289283Y-38182218D01*
X100289280Y-38182214D01*
X100149929Y-38042863D01*
X100149925Y-38042860D01*
X99986064Y-37933371D01*
X99986051Y-37933364D01*
X99803983Y-37857950D01*
X99803973Y-37857947D01*
X99722886Y-37841818D01*
X99660975Y-37809433D01*
X99626401Y-37748717D01*
X99630141Y-37678948D01*
X99636593Y-37663906D01*
X99722246Y-37495802D01*
X99795209Y-37271247D01*
X99832144Y-37038052D01*
X99832144Y-36801947D01*
X99795209Y-36568752D01*
X99722246Y-36344197D01*
X99661758Y-36225481D01*
X99589433Y-36097163D01*
X99583094Y-36069804D01*
X99573658Y-36043356D01*
X99575315Y-36036226D01*
X99573664Y-36029096D01*
X99583121Y-36002657D01*
X99589483Y-35975302D01*
X99594732Y-35970199D01*
X99597198Y-35963309D01*
X99619447Y-35946181D01*
X99639589Y-35926607D01*
X99648602Y-35923737D01*
X99652563Y-35920689D01*
X99660227Y-35920037D01*
X99681266Y-35913339D01*
X99854382Y-35890548D01*
X100076031Y-35831158D01*
X100288032Y-35743344D01*
X100486756Y-35628611D01*
X100668805Y-35488919D01*
X100668811Y-35488913D01*
X100668814Y-35488911D01*
X100831055Y-35326670D01*
X100831058Y-35326665D01*
X100831063Y-35326661D01*
X100970755Y-35144612D01*
X101085488Y-34945888D01*
X101173302Y-34733887D01*
X101232692Y-34512238D01*
X101246812Y-34404986D01*
X105567145Y-34404986D01*
X105577638Y-34507697D01*
X105632785Y-34674119D01*
X105632787Y-34674124D01*
X105724828Y-34823345D01*
X105848798Y-34947315D01*
X105998019Y-35039356D01*
X105998024Y-35039358D01*
X106164446Y-35094505D01*
X106164453Y-35094506D01*
X106267163Y-35104999D01*
X106404643Y-35104999D01*
X106404644Y-35104998D01*
X106404644Y-34130000D01*
X105567145Y-34130000D01*
X105567145Y-34404986D01*
X101246812Y-34404986D01*
X101262644Y-34284734D01*
X101262644Y-34055266D01*
X101232692Y-33827762D01*
X101173302Y-33606113D01*
X101085488Y-33394112D01*
X101062914Y-33355013D01*
X105567144Y-33355013D01*
X105567144Y-33630000D01*
X106404644Y-33630000D01*
X106404644Y-32655000D01*
X106267171Y-32655000D01*
X106267156Y-32655001D01*
X106164446Y-32665494D01*
X105998024Y-32720641D01*
X105998019Y-32720643D01*
X105848798Y-32812684D01*
X105724828Y-32936654D01*
X105632787Y-33085875D01*
X105632785Y-33085880D01*
X105577638Y-33252302D01*
X105577637Y-33252309D01*
X105567144Y-33355013D01*
X101062914Y-33355013D01*
X100970755Y-33195388D01*
X100970752Y-33195385D01*
X100970751Y-33195382D01*
X100851916Y-33040515D01*
X100831063Y-33013339D01*
X100831062Y-33013338D01*
X100831055Y-33013330D01*
X100668814Y-32851089D01*
X100668805Y-32851081D01*
X100486761Y-32711392D01*
X100288034Y-32596657D01*
X100288020Y-32596650D01*
X100076031Y-32508842D01*
X100071698Y-32507681D01*
X99854382Y-32449452D01*
X99681269Y-32426660D01*
X99617374Y-32398394D01*
X99578903Y-32340070D01*
X99578072Y-32270205D01*
X99597139Y-32230835D01*
X99615058Y-32206172D01*
X99722246Y-31995802D01*
X99795209Y-31771247D01*
X99832144Y-31538052D01*
X99832144Y-31321440D01*
X99851829Y-31254401D01*
X99904633Y-31208646D01*
X99973791Y-31198702D01*
X100037347Y-31227727D01*
G37*
%TD.AperFunction*%
%TA.AperFunction,Conductor*%
G36*
X97866219Y-31612993D02*
G01*
X97932045Y-31727007D01*
X98025137Y-31820099D01*
X98139151Y-31885925D01*
X98202733Y-31902962D01*
X97463037Y-32642658D01*
X97545972Y-32702914D01*
X97756341Y-32810102D01*
X97980891Y-32883064D01*
X98053485Y-32894561D01*
X98116621Y-32924490D01*
X98153552Y-32983801D01*
X98152556Y-33053664D01*
X98132465Y-33092521D01*
X98053536Y-33195383D01*
X97938801Y-33394109D01*
X97938794Y-33394123D01*
X97850986Y-33606112D01*
X97791597Y-33827759D01*
X97791595Y-33827770D01*
X97761644Y-34055258D01*
X97761644Y-34284741D01*
X97786590Y-34474215D01*
X97791596Y-34512238D01*
X97834973Y-34674124D01*
X97850986Y-34733887D01*
X97938794Y-34945876D01*
X97938801Y-34945890D01*
X98053533Y-35144612D01*
X98132465Y-35247477D01*
X98157659Y-35312647D01*
X98143621Y-35381091D01*
X98094807Y-35431081D01*
X98053487Y-35445437D01*
X97980896Y-35456934D01*
X97756341Y-35529897D01*
X97545973Y-35637084D01*
X97422165Y-35727036D01*
X97356358Y-35750515D01*
X97288305Y-35734689D01*
X97240364Y-35685359D01*
X97240191Y-35685454D01*
X97239850Y-35684830D01*
X97239610Y-35684583D01*
X97239131Y-35683513D01*
X97235937Y-35677664D01*
X97149691Y-35562455D01*
X97149688Y-35562452D01*
X97034479Y-35476206D01*
X97034472Y-35476202D01*
X96899626Y-35425908D01*
X96899627Y-35425908D01*
X96840027Y-35419501D01*
X96840025Y-35419500D01*
X96840017Y-35419500D01*
X96840009Y-35419500D01*
X96021273Y-35419500D01*
X95954234Y-35399815D01*
X95908479Y-35347011D01*
X95898535Y-35277853D01*
X95922897Y-35220013D01*
X95980755Y-35144612D01*
X96095488Y-34945888D01*
X96183302Y-34733887D01*
X96242692Y-34512238D01*
X96272644Y-34284734D01*
X96272644Y-34055266D01*
X96242692Y-33827762D01*
X96183302Y-33606113D01*
X96095488Y-33394112D01*
X95980755Y-33195388D01*
X95980752Y-33195385D01*
X95980751Y-33195382D01*
X95911922Y-33105684D01*
X95886727Y-33040515D01*
X95900765Y-32972070D01*
X95949578Y-32922080D01*
X95990899Y-32907724D01*
X96143512Y-32883553D01*
X96368136Y-32810568D01*
X96578577Y-32703343D01*
X96769654Y-32564517D01*
X96936661Y-32397510D01*
X96979691Y-32338283D01*
X97035021Y-32295618D01*
X97089738Y-32287551D01*
X97109484Y-32289105D01*
X97849181Y-31549408D01*
X97866219Y-31612993D01*
G37*
%TD.AperFunction*%
%TD*%
M02*
