%TF.GenerationSoftware,KiCad,Pcbnew,9.0.4*%
%TF.CreationDate,2026-03-15T16:46:37+00:00*%
%TF.ProjectId,Line following V3,4c696e65-2066-46f6-9c6c-6f77696e6720,rev?*%
%TF.SameCoordinates,Original*%
%TF.FileFunction,Copper,L1,Top*%
%TF.FilePolarity,Positive*%
%FSLAX46Y46*%
G04 Gerber Fmt 4.6, Leading zero omitted, Abs format (unit mm)*
G04 Created by KiCad (PCBNEW 9.0.4) date 2026-03-15 16:46:37*
%MOMM*%
%LPD*%
G01*
G04 APERTURE LIST*
G04 Aperture macros list*
%AMRoundRect*
0 Rectangle with rounded corners*
0 $1 Rounding radius*
0 $2 $3 $4 $5 $6 $7 $8 $9 X,Y pos of 4 corners*
0 Add a 4 corners polygon primitive as box body*
4,1,4,$2,$3,$4,$5,$6,$7,$8,$9,$2,$3,0*
0 Add four circle primitives for the rounded corners*
1,1,$1+$1,$2,$3*
1,1,$1+$1,$4,$5*
1,1,$1+$1,$6,$7*
1,1,$1+$1,$8,$9*
0 Add four rect primitives between the rounded corners*
20,1,$1+$1,$2,$3,$4,$5,0*
20,1,$1+$1,$4,$5,$6,$7,0*
20,1,$1+$1,$6,$7,$8,$9,0*
20,1,$1+$1,$8,$9,$2,$3,0*%
G04 Aperture macros list end*
%ADD10C,0.100000*%
%TA.AperFunction,ComponentPad*%
%ADD11RoundRect,0.250000X-0.845000X0.620000X-0.845000X-0.620000X0.845000X-0.620000X0.845000X0.620000X0*%
%TD*%
%TA.AperFunction,ComponentPad*%
%ADD12O,2.190000X1.740000*%
%TD*%
%TA.AperFunction,ComponentPad*%
%ADD13C,6.000000*%
%TD*%
%TA.AperFunction,ComponentPad*%
%ADD14R,2.000000X2.000000*%
%TD*%
%TA.AperFunction,ComponentPad*%
%ADD15C,2.000000*%
%TD*%
%TA.AperFunction,ComponentPad*%
%ADD16RoundRect,0.250000X0.950000X0.550000X-0.950000X0.550000X-0.950000X-0.550000X0.950000X-0.550000X0*%
%TD*%
%TA.AperFunction,ComponentPad*%
%ADD17O,2.400000X1.600000*%
%TD*%
%TA.AperFunction,ViaPad*%
%ADD18C,2.000000*%
%TD*%
%TA.AperFunction,Conductor*%
%ADD19C,0.600000*%
%TD*%
G04 APERTURE END LIST*
D10*
G36*
X106769211Y-28969466D02*
G01*
X106600487Y-28463295D01*
X106937935Y-28463295D01*
X106769211Y-28969466D01*
G37*
G36*
X108549117Y-28216292D02*
G01*
X108585261Y-28252437D01*
X108623973Y-28329860D01*
X108623973Y-28591967D01*
X108585261Y-28669390D01*
X108549117Y-28705535D01*
X108471694Y-28744247D01*
X108304825Y-28744247D01*
X108247783Y-28715726D01*
X108247783Y-28206101D01*
X108304824Y-28177580D01*
X108471694Y-28177580D01*
X108549117Y-28216292D01*
G37*
G36*
X109493848Y-28212467D02*
G01*
X109528735Y-28282241D01*
X109528735Y-28353872D01*
X109493848Y-28423646D01*
X109424075Y-28458533D01*
X109197783Y-28458533D01*
X109195326Y-28459021D01*
X109194238Y-28458659D01*
X109186510Y-28460775D01*
X109178649Y-28462339D01*
X109177837Y-28463150D01*
X109175422Y-28463812D01*
X109152545Y-28475250D01*
X109152545Y-28206101D01*
X109209586Y-28177580D01*
X109424075Y-28177580D01*
X109493848Y-28212467D01*
G37*
G36*
X110398610Y-28212467D02*
G01*
X110433497Y-28282241D01*
X110433497Y-28353872D01*
X110398610Y-28423646D01*
X110328837Y-28458533D01*
X110102545Y-28458533D01*
X110100088Y-28459021D01*
X110099000Y-28458659D01*
X110091272Y-28460775D01*
X110083411Y-28462339D01*
X110082599Y-28463150D01*
X110080184Y-28463812D01*
X110057307Y-28475250D01*
X110057307Y-28206101D01*
X110114348Y-28177580D01*
X110328837Y-28177580D01*
X110398610Y-28212467D01*
G37*
G36*
X111596989Y-29288691D02*
G01*
X104229003Y-29288691D01*
X104229003Y-29060827D01*
X105199207Y-29060827D01*
X105199207Y-29099095D01*
X105210046Y-29115316D01*
X105257664Y-29162935D01*
X105273885Y-29173774D01*
X105273886Y-29173774D01*
X105312154Y-29173774D01*
X105328375Y-29162935D01*
X105375994Y-29115317D01*
X105386833Y-29099096D01*
X105386833Y-29060827D01*
X105386833Y-29060826D01*
X105375994Y-29044605D01*
X105328375Y-28996987D01*
X105312154Y-28986148D01*
X105273885Y-28986148D01*
X105257664Y-28996987D01*
X105210046Y-29044606D01*
X105199208Y-29060826D01*
X105199207Y-29060827D01*
X104229003Y-29060827D01*
X104229003Y-28780753D01*
X104340114Y-28780753D01*
X104342065Y-28797009D01*
X104342065Y-28813381D01*
X104344297Y-28815613D01*
X104344674Y-28818749D01*
X104357549Y-28828865D01*
X104369125Y-28840441D01*
X104373352Y-28841281D01*
X104374765Y-28842392D01*
X104377364Y-28842079D01*
X104388259Y-28844247D01*
X104912068Y-28844247D01*
X104931202Y-28840441D01*
X104958262Y-28813381D01*
X104958262Y-28775113D01*
X104931202Y-28748053D01*
X104912068Y-28744247D01*
X104491132Y-28744247D01*
X104951384Y-28158471D01*
X104956411Y-28148564D01*
X104958262Y-28146714D01*
X104958262Y-28144918D01*
X104960213Y-28141074D01*
X104958594Y-28127580D01*
X105243020Y-28127580D01*
X105243020Y-28794247D01*
X105246826Y-28813381D01*
X105273886Y-28840441D01*
X105312154Y-28840441D01*
X105339214Y-28813381D01*
X105343020Y-28794247D01*
X105343020Y-28780753D01*
X105625828Y-28780753D01*
X105627779Y-28797009D01*
X105627779Y-28813381D01*
X105630011Y-28815613D01*
X105630388Y-28818749D01*
X105643263Y-28828865D01*
X105654839Y-28840441D01*
X105659066Y-28841281D01*
X105660479Y-28842392D01*
X105663078Y-28842079D01*
X105673973Y-28844247D01*
X106197782Y-28844247D01*
X106216916Y-28840441D01*
X106243976Y-28813381D01*
X106243976Y-28775113D01*
X106216916Y-28748053D01*
X106197782Y-28744247D01*
X105776846Y-28744247D01*
X106237098Y-28158471D01*
X106242125Y-28148564D01*
X106243976Y-28146714D01*
X106243976Y-28144918D01*
X106245927Y-28141074D01*
X106243976Y-28124817D01*
X106243976Y-28124036D01*
X106386004Y-28124036D01*
X106388444Y-28143391D01*
X106721777Y-29143391D01*
X106731438Y-29160339D01*
X106734779Y-29162009D01*
X106736451Y-29165353D01*
X106751493Y-29170366D01*
X106765667Y-29177454D01*
X106769210Y-29176272D01*
X106772755Y-29177454D01*
X106786934Y-29170364D01*
X106801971Y-29165352D01*
X106803641Y-29162011D01*
X106806984Y-29160340D01*
X106816645Y-29143391D01*
X107149978Y-28143392D01*
X107151971Y-28127580D01*
X108147783Y-28127580D01*
X108147783Y-29127580D01*
X108151589Y-29146714D01*
X108178649Y-29173774D01*
X108216917Y-29173774D01*
X108243977Y-29146714D01*
X108247783Y-29127580D01*
X108247783Y-28827529D01*
X108270660Y-28838968D01*
X108273075Y-28839629D01*
X108273887Y-28840441D01*
X108281748Y-28842004D01*
X108289476Y-28844121D01*
X108290564Y-28843758D01*
X108293021Y-28844247D01*
X108483497Y-28844247D01*
X108485953Y-28843758D01*
X108487042Y-28844121D01*
X108494769Y-28842004D01*
X108502631Y-28840441D01*
X108503442Y-28839629D01*
X108505858Y-28838968D01*
X108601095Y-28791350D01*
X108607428Y-28786434D01*
X108614090Y-28781983D01*
X108661709Y-28734365D01*
X108666163Y-28727698D01*
X108671075Y-28721370D01*
X108718694Y-28626132D01*
X108719355Y-28623716D01*
X108720167Y-28622905D01*
X108721730Y-28615043D01*
X108723847Y-28607316D01*
X108723484Y-28606227D01*
X108723973Y-28603771D01*
X108723973Y-28318057D01*
X108723484Y-28315600D01*
X108723847Y-28314512D01*
X108721730Y-28306784D01*
X108720167Y-28298923D01*
X108719355Y-28298111D01*
X108718694Y-28295696D01*
X108671075Y-28200458D01*
X108666163Y-28194129D01*
X108661709Y-28187463D01*
X108614090Y-28139845D01*
X108607430Y-28135394D01*
X108601096Y-28130479D01*
X108595298Y-28127580D01*
X109052545Y-28127580D01*
X109052545Y-28651390D01*
X109053033Y-28653846D01*
X109052671Y-28654935D01*
X109054787Y-28662662D01*
X109056351Y-28670524D01*
X109057162Y-28671335D01*
X109057824Y-28673751D01*
X109105442Y-28768988D01*
X109111545Y-28776852D01*
X109112391Y-28779388D01*
X109115214Y-28781579D01*
X109117404Y-28784400D01*
X109119937Y-28785244D01*
X109127803Y-28791349D01*
X109223041Y-28838968D01*
X109225456Y-28839629D01*
X109226268Y-28840441D01*
X109234129Y-28842004D01*
X109241857Y-28844121D01*
X109242945Y-28843758D01*
X109245402Y-28844247D01*
X109435878Y-28844247D01*
X109438334Y-28843758D01*
X109439423Y-28844121D01*
X109447150Y-28842004D01*
X109455012Y-28840441D01*
X109455823Y-28839629D01*
X109458239Y-28838968D01*
X109553476Y-28791350D01*
X109568888Y-28779388D01*
X109580990Y-28743084D01*
X109563876Y-28708856D01*
X109527571Y-28696754D01*
X109508755Y-28701907D01*
X109424075Y-28744247D01*
X109257206Y-28744247D01*
X109187431Y-28709360D01*
X109152545Y-28639587D01*
X109152545Y-28587053D01*
X109209587Y-28558533D01*
X109435878Y-28558533D01*
X109438334Y-28558044D01*
X109439423Y-28558407D01*
X109447150Y-28556290D01*
X109455012Y-28554727D01*
X109455823Y-28553915D01*
X109458239Y-28553254D01*
X109553476Y-28505636D01*
X109561340Y-28499532D01*
X109563876Y-28498687D01*
X109566067Y-28495863D01*
X109568888Y-28493674D01*
X109569732Y-28491140D01*
X109575837Y-28483275D01*
X109623456Y-28388037D01*
X109624117Y-28385621D01*
X109624929Y-28384810D01*
X109626492Y-28376948D01*
X109628609Y-28369221D01*
X109628246Y-28368132D01*
X109628735Y-28365676D01*
X109628735Y-28270438D01*
X109628246Y-28267981D01*
X109628609Y-28266893D01*
X109626492Y-28259165D01*
X109624929Y-28251304D01*
X109624117Y-28250492D01*
X109623456Y-28248077D01*
X109575837Y-28152839D01*
X109569734Y-28144975D01*
X109568889Y-28142440D01*
X109566066Y-28140249D01*
X109563876Y-28137427D01*
X109561340Y-28136581D01*
X109553477Y-28130479D01*
X109547679Y-28127580D01*
X109957307Y-28127580D01*
X109957307Y-28651390D01*
X109957795Y-28653846D01*
X109957433Y-28654935D01*
X109959549Y-28662662D01*
X109961113Y-28670524D01*
X109961924Y-28671335D01*
X109962586Y-28673751D01*
X110010204Y-28768988D01*
X110016307Y-28776852D01*
X110017153Y-28779388D01*
X110019976Y-28781579D01*
X110022166Y-28784400D01*
X110024699Y-28785244D01*
X110032565Y-28791349D01*
X110127803Y-28838968D01*
X110130218Y-28839629D01*
X110131030Y-28840441D01*
X110138891Y-28842004D01*
X110146619Y-28844121D01*
X110147707Y-28843758D01*
X110150164Y-28844247D01*
X110340640Y-28844247D01*
X110343096Y-28843758D01*
X110344185Y-28844121D01*
X110351912Y-28842004D01*
X110359774Y-28840441D01*
X110360585Y-28839629D01*
X110363001Y-28838968D01*
X110458238Y-28791350D01*
X110473650Y-28779388D01*
X110485752Y-28743084D01*
X110468638Y-28708856D01*
X110432333Y-28696754D01*
X110413517Y-28701907D01*
X110328837Y-28744247D01*
X110161968Y-28744247D01*
X110092193Y-28709360D01*
X110057307Y-28639587D01*
X110057307Y-28587053D01*
X110114349Y-28558533D01*
X110340640Y-28558533D01*
X110343096Y-28558044D01*
X110344185Y-28558407D01*
X110351912Y-28556290D01*
X110359774Y-28554727D01*
X110360585Y-28553915D01*
X110363001Y-28553254D01*
X110458238Y-28505636D01*
X110466102Y-28499532D01*
X110468638Y-28498687D01*
X110470829Y-28495863D01*
X110473650Y-28493674D01*
X110474494Y-28491140D01*
X110480599Y-28483275D01*
X110528218Y-28388037D01*
X110528879Y-28385621D01*
X110529691Y-28384810D01*
X110531254Y-28376948D01*
X110533371Y-28369221D01*
X110533008Y-28368132D01*
X110533497Y-28365676D01*
X110533497Y-28318057D01*
X110814450Y-28318057D01*
X110814450Y-28413295D01*
X110814938Y-28415751D01*
X110814576Y-28416840D01*
X110816692Y-28424567D01*
X110818256Y-28432429D01*
X110819067Y-28433240D01*
X110819729Y-28435656D01*
X110867347Y-28530893D01*
X110872262Y-28537226D01*
X110876714Y-28543888D01*
X110924332Y-28591507D01*
X110930998Y-28595961D01*
X110937327Y-28600873D01*
X111032565Y-28648492D01*
X111037846Y-28649938D01*
X111042799Y-28652278D01*
X111227951Y-28698566D01*
X111311022Y-28740101D01*
X111347166Y-28776246D01*
X111385878Y-28853669D01*
X111385878Y-28925300D01*
X111347166Y-29002723D01*
X111311022Y-29038868D01*
X111233599Y-29077580D01*
X111015420Y-29077580D01*
X110880261Y-29032527D01*
X110860906Y-29030087D01*
X110826677Y-29047201D01*
X110814576Y-29083505D01*
X110831690Y-29117734D01*
X110848639Y-29127395D01*
X110991495Y-29175014D01*
X110999445Y-29176016D01*
X111007307Y-29177580D01*
X111245402Y-29177580D01*
X111247858Y-29177091D01*
X111248947Y-29177454D01*
X111256674Y-29175337D01*
X111264536Y-29173774D01*
X111265347Y-29172962D01*
X111267763Y-29172301D01*
X111363000Y-29124683D01*
X111369333Y-29119767D01*
X111375995Y-29115316D01*
X111423614Y-29067698D01*
X111428068Y-29061031D01*
X111432980Y-29054703D01*
X111480599Y-28959465D01*
X111481260Y-28957049D01*
X111482072Y-28956238D01*
X111483635Y-28948376D01*
X111485752Y-28940649D01*
X111485389Y-28939560D01*
X111485878Y-28937104D01*
X111485878Y-28841866D01*
X111485389Y-28839409D01*
X111485752Y-28838321D01*
X111483635Y-28830593D01*
X111482072Y-28822732D01*
X111481260Y-28821920D01*
X111480599Y-28819505D01*
X111432980Y-28724267D01*
X111428068Y-28717938D01*
X111423614Y-28711272D01*
X111375995Y-28663654D01*
X111369333Y-28659202D01*
X111363000Y-28654287D01*
X111267763Y-28606669D01*
X111262481Y-28605222D01*
X111257529Y-28602883D01*
X111072378Y-28556595D01*
X110989306Y-28515059D01*
X110953161Y-28478915D01*
X110914450Y-28401492D01*
X110914450Y-28329860D01*
X110953161Y-28252436D01*
X110989306Y-28216291D01*
X111066729Y-28177580D01*
X111284907Y-28177580D01*
X111420066Y-28222634D01*
X111439422Y-28225074D01*
X111473651Y-28207960D01*
X111485752Y-28171656D01*
X111468638Y-28137427D01*
X111451690Y-28127766D01*
X111308833Y-28080146D01*
X111300882Y-28079143D01*
X111293021Y-28077580D01*
X111054926Y-28077580D01*
X111052469Y-28078068D01*
X111051381Y-28077706D01*
X111043653Y-28079822D01*
X111035792Y-28081386D01*
X111034980Y-28082197D01*
X111032565Y-28082859D01*
X110937327Y-28130479D01*
X110930998Y-28135390D01*
X110924332Y-28139845D01*
X110876714Y-28187464D01*
X110872262Y-28194125D01*
X110867347Y-28200459D01*
X110819729Y-28295696D01*
X110819067Y-28298111D01*
X110818256Y-28298923D01*
X110816692Y-28306784D01*
X110814576Y-28314512D01*
X110814938Y-28315600D01*
X110814450Y-28318057D01*
X110533497Y-28318057D01*
X110533497Y-28270438D01*
X110533008Y-28267981D01*
X110533371Y-28266893D01*
X110531254Y-28259165D01*
X110529691Y-28251304D01*
X110528879Y-28250492D01*
X110528218Y-28248077D01*
X110480599Y-28152839D01*
X110474496Y-28144975D01*
X110473651Y-28142440D01*
X110470828Y-28140249D01*
X110468638Y-28137427D01*
X110466102Y-28136581D01*
X110458239Y-28130479D01*
X110363001Y-28082859D01*
X110360585Y-28082197D01*
X110359774Y-28081386D01*
X110351912Y-28079822D01*
X110344185Y-28077706D01*
X110343096Y-28078068D01*
X110340640Y-28077580D01*
X110102545Y-28077580D01*
X110100088Y-28078068D01*
X110099000Y-28077706D01*
X110091272Y-28079822D01*
X110083411Y-28081386D01*
X110082599Y-28082197D01*
X110080184Y-28082859D01*
X110045337Y-28100282D01*
X110026441Y-28081386D01*
X109988173Y-28081386D01*
X109961113Y-28108446D01*
X109957307Y-28127580D01*
X109547679Y-28127580D01*
X109458239Y-28082859D01*
X109455823Y-28082197D01*
X109455012Y-28081386D01*
X109447150Y-28079822D01*
X109439423Y-28077706D01*
X109438334Y-28078068D01*
X109435878Y-28077580D01*
X109197783Y-28077580D01*
X109195326Y-28078068D01*
X109194238Y-28077706D01*
X109186510Y-28079822D01*
X109178649Y-28081386D01*
X109177837Y-28082197D01*
X109175422Y-28082859D01*
X109140575Y-28100282D01*
X109121679Y-28081386D01*
X109083411Y-28081386D01*
X109056351Y-28108446D01*
X109052545Y-28127580D01*
X108595298Y-28127580D01*
X108505858Y-28082859D01*
X108503442Y-28082197D01*
X108502631Y-28081386D01*
X108494769Y-28079822D01*
X108487042Y-28077706D01*
X108485953Y-28078068D01*
X108483497Y-28077580D01*
X108293021Y-28077580D01*
X108290564Y-28078068D01*
X108289476Y-28077706D01*
X108281748Y-28079822D01*
X108273887Y-28081386D01*
X108273075Y-28082197D01*
X108270660Y-28082859D01*
X108235813Y-28100282D01*
X108216917Y-28081386D01*
X108178649Y-28081386D01*
X108151589Y-28108446D01*
X108147783Y-28127580D01*
X107151971Y-28127580D01*
X107152418Y-28124036D01*
X107135304Y-28089808D01*
X107099000Y-28077706D01*
X107064771Y-28094821D01*
X107055110Y-28111769D01*
X106971268Y-28363295D01*
X106567154Y-28363295D01*
X106483312Y-28111769D01*
X106473651Y-28094820D01*
X106439422Y-28077706D01*
X106403118Y-28089807D01*
X106386004Y-28124036D01*
X106243976Y-28124036D01*
X106243976Y-28108446D01*
X106241743Y-28106213D01*
X106241367Y-28103078D01*
X106228491Y-28092961D01*
X106216916Y-28081386D01*
X106212688Y-28080545D01*
X106211276Y-28079435D01*
X106208676Y-28079747D01*
X106197782Y-28077580D01*
X105673973Y-28077580D01*
X105654839Y-28081386D01*
X105627779Y-28108446D01*
X105627779Y-28146714D01*
X105654839Y-28173774D01*
X105673973Y-28177580D01*
X106094909Y-28177580D01*
X105634657Y-28763356D01*
X105629629Y-28773262D01*
X105627779Y-28775113D01*
X105627779Y-28776908D01*
X105625828Y-28780753D01*
X105343020Y-28780753D01*
X105343020Y-28127580D01*
X105339214Y-28108446D01*
X105312154Y-28081386D01*
X105273886Y-28081386D01*
X105246826Y-28108446D01*
X105243020Y-28127580D01*
X104958594Y-28127580D01*
X104958262Y-28124817D01*
X104958262Y-28108446D01*
X104956029Y-28106213D01*
X104955653Y-28103078D01*
X104942777Y-28092961D01*
X104931202Y-28081386D01*
X104926974Y-28080545D01*
X104925562Y-28079435D01*
X104922962Y-28079747D01*
X104912068Y-28077580D01*
X104388259Y-28077580D01*
X104369125Y-28081386D01*
X104342065Y-28108446D01*
X104342065Y-28146714D01*
X104369125Y-28173774D01*
X104388259Y-28177580D01*
X104809195Y-28177580D01*
X104348943Y-28763356D01*
X104343915Y-28773262D01*
X104342065Y-28775113D01*
X104342065Y-28776908D01*
X104340114Y-28780753D01*
X104229003Y-28780753D01*
X104229003Y-27966469D01*
X111596989Y-27966469D01*
X111596989Y-29288691D01*
G37*
D11*
%TO.P,J1,1,Pin_1*%
%TO.N,GND*%
X106692144Y-36840000D03*
D12*
%TO.P,J1,2,Pin_2*%
%TO.N,+5V*%
X106692144Y-39380000D03*
%TO.P,J1,3,Pin_3*%
%TO.N,+3.3V*%
X106692144Y-41920000D03*
%TO.P,J1,4,Pin_4*%
%TO.N,Output*%
X106692144Y-44460000D03*
%TO.P,J1,5,Pin_5*%
%TO.N,Threshold*%
X106692144Y-47000000D03*
%TO.P,J1,6,Pin_6*%
%TO.N,GND*%
X106692144Y-49540000D03*
%TD*%
D13*
%TO.P,H2,1,1*%
%TO.N,GND*%
X95192144Y-56000000D03*
%TD*%
%TO.P,H1,1,1*%
%TO.N,GND*%
X106692144Y-56000000D03*
%TD*%
D14*
%TO.P,Q1,1,C*%
%TO.N,Net-(Q1-C)*%
X95792144Y-36920000D03*
D15*
%TO.P,Q1,2,E*%
%TO.N,GND*%
X98332144Y-36920000D03*
%TO.P,Q1,3,K*%
X98332144Y-31420000D03*
%TO.P,Q1,4,A*%
%TO.N,Net-(Q1-A)*%
X95792144Y-31420000D03*
%TD*%
D16*
%TO.P,U2,1,GND*%
%TO.N,GND*%
X100812144Y-49500000D03*
D17*
%TO.P,U2,2,+*%
%TO.N,Net-(Q1-C)*%
X100812144Y-46960000D03*
%TO.P,U2,3,-*%
%TO.N,Threshold*%
X100812144Y-44420000D03*
%TO.P,U2,4,V-*%
%TO.N,GND*%
X100812144Y-41880000D03*
%TO.P,U2,5,BAL*%
%TO.N,unconnected-(U2-BAL-Pad5)*%
X93192144Y-41880000D03*
%TO.P,U2,6,STRB*%
%TO.N,+5V*%
X93192144Y-44420000D03*
%TO.P,U2,7*%
%TO.N,Output*%
X93192144Y-46960000D03*
%TO.P,U2,8,V+*%
%TO.N,+5V*%
X93192144Y-49500000D03*
%TD*%
D18*
%TO.N,GND*%
X103192144Y-33000000D03*
X97192144Y-47000000D03*
%TD*%
D19*
%TO.N,GND*%
X97192144Y-44500000D02*
X103192144Y-38500000D01*
X103192144Y-38500000D02*
X103192144Y-33000000D01*
X97192144Y-47000000D02*
X97192144Y-44500000D01*
%TD*%
%TA.AperFunction,Conductor*%
%TO.N,GND*%
G36*
X97866219Y-31612993D02*
G01*
X97932045Y-31727007D01*
X98025137Y-31820099D01*
X98139151Y-31885925D01*
X98202734Y-31902962D01*
X97463037Y-32642658D01*
X97545972Y-32702914D01*
X97756341Y-32810102D01*
X97980891Y-32883064D01*
X98053485Y-32894561D01*
X98116621Y-32924490D01*
X98153552Y-32983801D01*
X98152556Y-33053664D01*
X98132465Y-33092521D01*
X98053536Y-33195383D01*
X97938801Y-33394109D01*
X97938794Y-33394123D01*
X97850986Y-33606112D01*
X97791597Y-33827759D01*
X97791595Y-33827770D01*
X97761644Y-34055258D01*
X97761644Y-34284741D01*
X97786590Y-34474215D01*
X97791596Y-34512238D01*
X97791597Y-34512240D01*
X97850986Y-34733887D01*
X97938794Y-34945876D01*
X97938801Y-34945890D01*
X98053533Y-35144612D01*
X98132465Y-35247477D01*
X98157659Y-35312647D01*
X98143621Y-35381091D01*
X98094807Y-35431081D01*
X98053487Y-35445437D01*
X97980896Y-35456934D01*
X97756341Y-35529897D01*
X97545973Y-35637084D01*
X97422165Y-35727036D01*
X97356358Y-35750515D01*
X97288305Y-35734689D01*
X97240364Y-35685359D01*
X97240191Y-35685454D01*
X97239850Y-35684830D01*
X97239610Y-35684583D01*
X97239131Y-35683513D01*
X97235937Y-35677664D01*
X97149691Y-35562455D01*
X97149688Y-35562452D01*
X97034479Y-35476206D01*
X97034472Y-35476202D01*
X96899626Y-35425908D01*
X96899627Y-35425908D01*
X96840027Y-35419501D01*
X96840025Y-35419500D01*
X96840017Y-35419500D01*
X96840009Y-35419500D01*
X96021273Y-35419500D01*
X95954234Y-35399815D01*
X95908479Y-35347011D01*
X95898535Y-35277853D01*
X95922897Y-35220013D01*
X95980755Y-35144612D01*
X96095488Y-34945888D01*
X96183302Y-34733887D01*
X96242692Y-34512238D01*
X96272644Y-34284734D01*
X96272644Y-34055266D01*
X96242692Y-33827762D01*
X96183302Y-33606113D01*
X96095488Y-33394112D01*
X95980755Y-33195388D01*
X95980752Y-33195385D01*
X95980751Y-33195382D01*
X95911922Y-33105684D01*
X95886727Y-33040515D01*
X95900765Y-32972070D01*
X95949578Y-32922080D01*
X95990899Y-32907724D01*
X96143512Y-32883553D01*
X96368136Y-32810568D01*
X96578577Y-32703343D01*
X96769654Y-32564517D01*
X96936661Y-32397510D01*
X96979691Y-32338283D01*
X97035021Y-32295618D01*
X97089738Y-32287551D01*
X97109484Y-32289105D01*
X97849181Y-31549408D01*
X97866219Y-31612993D01*
G37*
%TD.AperFunction*%
%TA.AperFunction,Conductor*%
G36*
X111864683Y-27730185D02*
G01*
X111910438Y-27782989D01*
X111921644Y-27834500D01*
X111921644Y-59315500D01*
X111901959Y-59382539D01*
X111849155Y-59428294D01*
X111797644Y-59439500D01*
X90296644Y-59439500D01*
X90229605Y-59419815D01*
X90183850Y-59367011D01*
X90172644Y-59315500D01*
X90172644Y-41777648D01*
X91491644Y-41777648D01*
X91491644Y-41982351D01*
X91523666Y-42184534D01*
X91586925Y-42379223D01*
X91679859Y-42561613D01*
X91800172Y-42727213D01*
X91944930Y-42871971D01*
X92073466Y-42965356D01*
X92110534Y-42992287D01*
X92201984Y-43038883D01*
X92203224Y-43039515D01*
X92254020Y-43087490D01*
X92270815Y-43155311D01*
X92248278Y-43221446D01*
X92203224Y-43260485D01*
X92110530Y-43307715D01*
X91944930Y-43428028D01*
X91800172Y-43572786D01*
X91679859Y-43738386D01*
X91586925Y-43920776D01*
X91523666Y-44115465D01*
X91491644Y-44317648D01*
X91491644Y-44522351D01*
X91523666Y-44724534D01*
X91586925Y-44919223D01*
X91679859Y-45101613D01*
X91800172Y-45267213D01*
X91944930Y-45411971D01*
X92073466Y-45505356D01*
X92110534Y-45532287D01*
X92201984Y-45578883D01*
X92203224Y-45579515D01*
X92254020Y-45627490D01*
X92270815Y-45695311D01*
X92248278Y-45761446D01*
X92203224Y-45800485D01*
X92110530Y-45847715D01*
X91944930Y-45968028D01*
X91800172Y-46112786D01*
X91679859Y-46278386D01*
X91586925Y-46460776D01*
X91523666Y-46655465D01*
X91491644Y-46857648D01*
X91491644Y-47062351D01*
X91523666Y-47264534D01*
X91586925Y-47459223D01*
X91679859Y-47641613D01*
X91800172Y-47807213D01*
X91944930Y-47951971D01*
X92073466Y-48045356D01*
X92110534Y-48072287D01*
X92201984Y-48118883D01*
X92203224Y-48119515D01*
X92254020Y-48167490D01*
X92270815Y-48235311D01*
X92248278Y-48301446D01*
X92203224Y-48340485D01*
X92110530Y-48387715D01*
X91944930Y-48508028D01*
X91800172Y-48652786D01*
X91679859Y-48818386D01*
X91586925Y-49000776D01*
X91523666Y-49195465D01*
X91491644Y-49397648D01*
X91491644Y-49602351D01*
X91523666Y-49804534D01*
X91586925Y-49999223D01*
X91679859Y-50181613D01*
X91800172Y-50347213D01*
X91944930Y-50491971D01*
X92099893Y-50604556D01*
X92110534Y-50612287D01*
X92226751Y-50671503D01*
X92292920Y-50705218D01*
X92292922Y-50705218D01*
X92292925Y-50705220D01*
X92382603Y-50734358D01*
X92487609Y-50768477D01*
X92588701Y-50784488D01*
X92689792Y-50800500D01*
X92689793Y-50800500D01*
X93694495Y-50800500D01*
X93694496Y-50800500D01*
X93896678Y-50768477D01*
X94091363Y-50705220D01*
X94273754Y-50612287D01*
X94366734Y-50544732D01*
X94439357Y-50491971D01*
X94439359Y-50491968D01*
X94439363Y-50491966D01*
X94584110Y-50347219D01*
X94584112Y-50347215D01*
X94584115Y-50347213D01*
X94648905Y-50258036D01*
X94704431Y-50181610D01*
X94797364Y-49999219D01*
X94860621Y-49804534D01*
X94866144Y-49769661D01*
X94880466Y-49679240D01*
X94892644Y-49602351D01*
X94892644Y-49397648D01*
X94860621Y-49195465D01*
X94797362Y-49000776D01*
X94763647Y-48934607D01*
X94704431Y-48818390D01*
X94689110Y-48797302D01*
X94584115Y-48652786D01*
X94439357Y-48508028D01*
X94273758Y-48387715D01*
X94240221Y-48370627D01*
X94181061Y-48340483D01*
X94130267Y-48292511D01*
X94113472Y-48224690D01*
X94136009Y-48158555D01*
X94181061Y-48119516D01*
X94273754Y-48072287D01*
X94310822Y-48045356D01*
X94439357Y-47951971D01*
X94439359Y-47951968D01*
X94439363Y-47951966D01*
X94584110Y-47807219D01*
X94584112Y-47807215D01*
X94584115Y-47807213D01*
X94636876Y-47734590D01*
X94704431Y-47641610D01*
X94797364Y-47459219D01*
X94860621Y-47264534D01*
X94892644Y-47062352D01*
X94892644Y-46857648D01*
X94860621Y-46655466D01*
X94797364Y-46460781D01*
X94797362Y-46460778D01*
X94797362Y-46460776D01*
X94763647Y-46394607D01*
X94704431Y-46278390D01*
X94696700Y-46267749D01*
X94584115Y-46112786D01*
X94439357Y-45968028D01*
X94273758Y-45847715D01*
X94234757Y-45827843D01*
X94181061Y-45800483D01*
X94130267Y-45752511D01*
X94113472Y-45684690D01*
X94136009Y-45618555D01*
X94181061Y-45579516D01*
X94273754Y-45532287D01*
X94310822Y-45505356D01*
X94439357Y-45411971D01*
X94439359Y-45411968D01*
X94439363Y-45411966D01*
X94584110Y-45267219D01*
X94584112Y-45267215D01*
X94584115Y-45267213D01*
X94636876Y-45194590D01*
X94704431Y-45101610D01*
X94797364Y-44919219D01*
X94860621Y-44724534D01*
X94892644Y-44522352D01*
X94892644Y-44317648D01*
X99111644Y-44317648D01*
X99111644Y-44522351D01*
X99143666Y-44724534D01*
X99206925Y-44919223D01*
X99299859Y-45101613D01*
X99420172Y-45267213D01*
X99564930Y-45411971D01*
X99693466Y-45505356D01*
X99730534Y-45532287D01*
X99821984Y-45578883D01*
X99823224Y-45579515D01*
X99874020Y-45627490D01*
X99890815Y-45695311D01*
X99868278Y-45761446D01*
X99823224Y-45800485D01*
X99730530Y-45847715D01*
X99564930Y-45968028D01*
X99420172Y-46112786D01*
X99299859Y-46278386D01*
X99206925Y-46460776D01*
X99143666Y-46655465D01*
X99111644Y-46857648D01*
X99111644Y-47062351D01*
X99143666Y-47264534D01*
X99206925Y-47459223D01*
X99299859Y-47641613D01*
X99420172Y-47807213D01*
X99564926Y-47951967D01*
X99564931Y-47951971D01*
X99659092Y-48020383D01*
X99701758Y-48075713D01*
X99707737Y-48145326D01*
X99675132Y-48207121D01*
X99625212Y-48238407D01*
X99543022Y-48265642D01*
X99543019Y-48265643D01*
X99393798Y-48357684D01*
X99269828Y-48481654D01*
X99177787Y-48630875D01*
X99177785Y-48630880D01*
X99122638Y-48797302D01*
X99122637Y-48797309D01*
X99112144Y-48900013D01*
X99112144Y-49250000D01*
X100496458Y-49250000D01*
X100492064Y-49254394D01*
X100439403Y-49345606D01*
X100412144Y-49447339D01*
X100412144Y-49552661D01*
X100439403Y-49654394D01*
X100492064Y-49745606D01*
X100496458Y-49750000D01*
X99112145Y-49750000D01*
X99112145Y-50099986D01*
X99122638Y-50202697D01*
X99177785Y-50369119D01*
X99177787Y-50369124D01*
X99269828Y-50518345D01*
X99393798Y-50642315D01*
X99543019Y-50734356D01*
X99543024Y-50734358D01*
X99709446Y-50789505D01*
X99709453Y-50789506D01*
X99812163Y-50799999D01*
X100562143Y-50799999D01*
X100562144Y-50799998D01*
X100562144Y-49815686D01*
X100566538Y-49820080D01*
X100657750Y-49872741D01*
X100759483Y-49900000D01*
X100864805Y-49900000D01*
X100966538Y-49872741D01*
X101057750Y-49820080D01*
X101062144Y-49815686D01*
X101062144Y-50799999D01*
X101812116Y-50799999D01*
X101812130Y-50799998D01*
X101914841Y-50789505D01*
X102081263Y-50734358D01*
X102081268Y-50734356D01*
X102230489Y-50642315D01*
X102354459Y-50518345D01*
X102446500Y-50369124D01*
X102446502Y-50369119D01*
X102501649Y-50202697D01*
X102501650Y-50202690D01*
X102512143Y-50099986D01*
X102512144Y-50099973D01*
X102512144Y-49750000D01*
X101127830Y-49750000D01*
X101132224Y-49745606D01*
X101184885Y-49654394D01*
X101212144Y-49552661D01*
X101212144Y-49447339D01*
X101184885Y-49345606D01*
X101132224Y-49254394D01*
X101127830Y-49250000D01*
X102512143Y-49250000D01*
X102512143Y-48900028D01*
X102512142Y-48900013D01*
X102501649Y-48797302D01*
X102446502Y-48630880D01*
X102446500Y-48630875D01*
X102354459Y-48481654D01*
X102230489Y-48357684D01*
X102081268Y-48265643D01*
X102081263Y-48265641D01*
X101999075Y-48238407D01*
X101941630Y-48198634D01*
X101914807Y-48134119D01*
X101927122Y-48065343D01*
X101965193Y-48020383D01*
X102059363Y-47951966D01*
X102204110Y-47807219D01*
X102204112Y-47807215D01*
X102204115Y-47807213D01*
X102256876Y-47734590D01*
X102324431Y-47641610D01*
X102417364Y-47459219D01*
X102480621Y-47264534D01*
X102512644Y-47062352D01*
X102512644Y-46857648D01*
X102480621Y-46655466D01*
X102417364Y-46460781D01*
X102417362Y-46460778D01*
X102417362Y-46460776D01*
X102383647Y-46394607D01*
X102324431Y-46278390D01*
X102316700Y-46267749D01*
X102204115Y-46112786D01*
X102059357Y-45968028D01*
X101893758Y-45847715D01*
X101854757Y-45827843D01*
X101801061Y-45800483D01*
X101750267Y-45752511D01*
X101733472Y-45684690D01*
X101756009Y-45618555D01*
X101801061Y-45579516D01*
X101893754Y-45532287D01*
X101930822Y-45505356D01*
X102059357Y-45411971D01*
X102059359Y-45411968D01*
X102059363Y-45411966D01*
X102204110Y-45267219D01*
X102204112Y-45267215D01*
X102204115Y-45267213D01*
X102256876Y-45194590D01*
X102324431Y-45101610D01*
X102417364Y-44919219D01*
X102480621Y-44724534D01*
X102512644Y-44522352D01*
X102512644Y-44317648D01*
X102480621Y-44115466D01*
X102417364Y-43920781D01*
X102417362Y-43920778D01*
X102417362Y-43920776D01*
X102383647Y-43854607D01*
X102324431Y-43738390D01*
X102316700Y-43727749D01*
X102204115Y-43572786D01*
X102059357Y-43428028D01*
X101893755Y-43307713D01*
X101800513Y-43260203D01*
X101749718Y-43212229D01*
X101732923Y-43144407D01*
X101755461Y-43078273D01*
X101800515Y-43039234D01*
X101893491Y-42991861D01*
X102059038Y-42871582D01*
X102059039Y-42871582D01*
X102203726Y-42726895D01*
X102203726Y-42726894D01*
X102324003Y-42561349D01*
X102416899Y-42379029D01*
X102480134Y-42184413D01*
X102488753Y-42130000D01*
X101127830Y-42130000D01*
X101132224Y-42125606D01*
X101184885Y-42034394D01*
X101212144Y-41932661D01*
X101212144Y-41827339D01*
X101184885Y-41725606D01*
X101132224Y-41634394D01*
X101127830Y-41630000D01*
X102488753Y-41630000D01*
X102480134Y-41575586D01*
X102416899Y-41380970D01*
X102324003Y-41198650D01*
X102203726Y-41033105D01*
X102203726Y-41033104D01*
X102059039Y-40888417D01*
X101893493Y-40768140D01*
X101711175Y-40675244D01*
X101516561Y-40612009D01*
X101314461Y-40580000D01*
X101062144Y-40580000D01*
X101062144Y-41564314D01*
X101057750Y-41559920D01*
X100966538Y-41507259D01*
X100864805Y-41480000D01*
X100759483Y-41480000D01*
X100657750Y-41507259D01*
X100566538Y-41559920D01*
X100562144Y-41564314D01*
X100562144Y-40580000D01*
X100309827Y-40580000D01*
X100107726Y-40612009D01*
X99913112Y-40675244D01*
X99730794Y-40768140D01*
X99565249Y-40888417D01*
X99565248Y-40888417D01*
X99420561Y-41033104D01*
X99420561Y-41033105D01*
X99300284Y-41198650D01*
X99207388Y-41380970D01*
X99144153Y-41575586D01*
X99135535Y-41630000D01*
X100496458Y-41630000D01*
X100492064Y-41634394D01*
X100439403Y-41725606D01*
X100412144Y-41827339D01*
X100412144Y-41932661D01*
X100439403Y-42034394D01*
X100492064Y-42125606D01*
X100496458Y-42130000D01*
X99135535Y-42130000D01*
X99144153Y-42184413D01*
X99207388Y-42379029D01*
X99300284Y-42561349D01*
X99420561Y-42726894D01*
X99420561Y-42726895D01*
X99565248Y-42871582D01*
X99730796Y-42991861D01*
X99823772Y-43039234D01*
X99874569Y-43087208D01*
X99891364Y-43155029D01*
X99868827Y-43221164D01*
X99823774Y-43260203D01*
X99730532Y-43307713D01*
X99564930Y-43428028D01*
X99420172Y-43572786D01*
X99299859Y-43738386D01*
X99206925Y-43920776D01*
X99143666Y-44115465D01*
X99111644Y-44317648D01*
X94892644Y-44317648D01*
X94860621Y-44115466D01*
X94797364Y-43920781D01*
X94797362Y-43920778D01*
X94797362Y-43920776D01*
X94763647Y-43854607D01*
X94704431Y-43738390D01*
X94696700Y-43727749D01*
X94584115Y-43572786D01*
X94439357Y-43428028D01*
X94273758Y-43307715D01*
X94234757Y-43287843D01*
X94181061Y-43260483D01*
X94130267Y-43212511D01*
X94113472Y-43144690D01*
X94136009Y-43078555D01*
X94181061Y-43039516D01*
X94273754Y-42992287D01*
X94310822Y-42965356D01*
X94439357Y-42871971D01*
X94439359Y-42871968D01*
X94439363Y-42871966D01*
X94584110Y-42727219D01*
X94584112Y-42727215D01*
X94584115Y-42727213D01*
X94636876Y-42654590D01*
X94704431Y-42561610D01*
X94797364Y-42379219D01*
X94860621Y-42184534D01*
X94892644Y-41982352D01*
X94892644Y-41777648D01*
X94860621Y-41575466D01*
X94797364Y-41380781D01*
X94797362Y-41380778D01*
X94797362Y-41380776D01*
X94763647Y-41314607D01*
X94704431Y-41198390D01*
X94696700Y-41187749D01*
X94584115Y-41032786D01*
X94439357Y-40888028D01*
X94273757Y-40767715D01*
X94273756Y-40767714D01*
X94273754Y-40767713D01*
X94212340Y-40736421D01*
X94091367Y-40674781D01*
X93896678Y-40611522D01*
X93722139Y-40583878D01*
X93694496Y-40579500D01*
X92689792Y-40579500D01*
X92665473Y-40583351D01*
X92487609Y-40611522D01*
X92292920Y-40674781D01*
X92110530Y-40767715D01*
X91944930Y-40888028D01*
X91800172Y-41032786D01*
X91679859Y-41198386D01*
X91586925Y-41380776D01*
X91523666Y-41575465D01*
X91491644Y-41777648D01*
X90172644Y-41777648D01*
X90172644Y-34055258D01*
X92771644Y-34055258D01*
X92771644Y-34284741D01*
X92796590Y-34474215D01*
X92801596Y-34512238D01*
X92801597Y-34512240D01*
X92860986Y-34733887D01*
X92948794Y-34945876D01*
X92948801Y-34945890D01*
X93063536Y-35144617D01*
X93203225Y-35326661D01*
X93203233Y-35326670D01*
X93365474Y-35488911D01*
X93365482Y-35488918D01*
X93547526Y-35628607D01*
X93547529Y-35628608D01*
X93547532Y-35628611D01*
X93746256Y-35743344D01*
X93746261Y-35743346D01*
X93746267Y-35743349D01*
X93824573Y-35775784D01*
X93958257Y-35831158D01*
X94156146Y-35884181D01*
X94179898Y-35890546D01*
X94179899Y-35890546D01*
X94179906Y-35890548D01*
X94183829Y-35891064D01*
X94247723Y-35919328D01*
X94286196Y-35977651D01*
X94291644Y-36014003D01*
X94291644Y-37967870D01*
X94291645Y-37967876D01*
X94298052Y-38027483D01*
X94348346Y-38162328D01*
X94348350Y-38162335D01*
X94434596Y-38277544D01*
X94434599Y-38277547D01*
X94549808Y-38363793D01*
X94549815Y-38363797D01*
X94684661Y-38414091D01*
X94684660Y-38414091D01*
X94691588Y-38414835D01*
X94744271Y-38420500D01*
X96840016Y-38420499D01*
X96899627Y-38414091D01*
X97034475Y-38363796D01*
X97149690Y-38277546D01*
X97235940Y-38162331D01*
X97235941Y-38162326D01*
X97240191Y-38154546D01*
X97243344Y-38156267D01*
X97274958Y-38114025D01*
X97340419Y-38089599D01*
X97408694Y-38104442D01*
X97422167Y-38112964D01*
X97545972Y-38202914D01*
X97756341Y-38310102D01*
X97980896Y-38383065D01*
X97980895Y-38383065D01*
X98214092Y-38420000D01*
X98420514Y-38420000D01*
X98487553Y-38439685D01*
X98533308Y-38492489D01*
X98543252Y-38561647D01*
X98542131Y-38568192D01*
X98511644Y-38721456D01*
X98511644Y-38721459D01*
X98511644Y-38918541D01*
X98511644Y-38918543D01*
X98511643Y-38918543D01*
X98550091Y-39111829D01*
X98550094Y-39111839D01*
X98625508Y-39293907D01*
X98625515Y-39293920D01*
X98735004Y-39457781D01*
X98735007Y-39457785D01*
X98874358Y-39597136D01*
X98874362Y-39597139D01*
X99038223Y-39706628D01*
X99038236Y-39706635D01*
X99220304Y-39782049D01*
X99220309Y-39782051D01*
X99220313Y-39782051D01*
X99220314Y-39782052D01*
X99413600Y-39820500D01*
X99413603Y-39820500D01*
X99610687Y-39820500D01*
X99740726Y-39794632D01*
X99803979Y-39782051D01*
X99986058Y-39706632D01*
X100149926Y-39597139D01*
X100289283Y-39457782D01*
X100398776Y-39293914D01*
X100398779Y-39293907D01*
X100407798Y-39272133D01*
X105096644Y-39272133D01*
X105096644Y-39487866D01*
X105130389Y-39700922D01*
X105130390Y-39700926D01*
X105197052Y-39906089D01*
X105294987Y-40098299D01*
X105421785Y-40272821D01*
X105574323Y-40425359D01*
X105695598Y-40513471D01*
X105745438Y-40549682D01*
X105788103Y-40605012D01*
X105794082Y-40674626D01*
X105761476Y-40736421D01*
X105745438Y-40750318D01*
X105680182Y-40797729D01*
X105574323Y-40874641D01*
X105574321Y-40874643D01*
X105574320Y-40874643D01*
X105421787Y-41027176D01*
X105421787Y-41027177D01*
X105421785Y-41027179D01*
X105367330Y-41102129D01*
X105294987Y-41201700D01*
X105197053Y-41393908D01*
X105130389Y-41599077D01*
X105096644Y-41812133D01*
X105096644Y-42027866D01*
X105130389Y-42240922D01*
X105130390Y-42240926D01*
X105197052Y-42446089D01*
X105294987Y-42638299D01*
X105421785Y-42812821D01*
X105574323Y-42965359D01*
X105676003Y-43039234D01*
X105745438Y-43089682D01*
X105788103Y-43145012D01*
X105794082Y-43214626D01*
X105761476Y-43276421D01*
X105745438Y-43290318D01*
X105680182Y-43337729D01*
X105574323Y-43414641D01*
X105574321Y-43414643D01*
X105574320Y-43414643D01*
X105421787Y-43567176D01*
X105421787Y-43567177D01*
X105421785Y-43567179D01*
X105367330Y-43642129D01*
X105294987Y-43741700D01*
X105197053Y-43933908D01*
X105130389Y-44139077D01*
X105096644Y-44352133D01*
X105096644Y-44567866D01*
X105121458Y-44724534D01*
X105130390Y-44780926D01*
X105197052Y-44986089D01*
X105294987Y-45178299D01*
X105421785Y-45352821D01*
X105574323Y-45505359D01*
X105676390Y-45579515D01*
X105745438Y-45629682D01*
X105788103Y-45685012D01*
X105794082Y-45754626D01*
X105761476Y-45816421D01*
X105745438Y-45830318D01*
X105680182Y-45877729D01*
X105574323Y-45954641D01*
X105574321Y-45954643D01*
X105574320Y-45954643D01*
X105421787Y-46107176D01*
X105421787Y-46107177D01*
X105421785Y-46107179D01*
X105367330Y-46182129D01*
X105294987Y-46281700D01*
X105197053Y-46473908D01*
X105130389Y-46679077D01*
X105096644Y-46892133D01*
X105096644Y-47107866D01*
X105121458Y-47264534D01*
X105130390Y-47320926D01*
X105197052Y-47526089D01*
X105294987Y-47718299D01*
X105421785Y-47892821D01*
X105574323Y-48045359D01*
X105745864Y-48169991D01*
X105788529Y-48225321D01*
X105794508Y-48294935D01*
X105761902Y-48356730D01*
X105745864Y-48370627D01*
X105574647Y-48495024D01*
X105422169Y-48647502D01*
X105422169Y-48647503D01*
X105295415Y-48821963D01*
X105197516Y-49014098D01*
X105130877Y-49219190D01*
X105119663Y-49290000D01*
X106149435Y-49290000D01*
X106137692Y-49310339D01*
X106097144Y-49461667D01*
X106097144Y-49618333D01*
X106137692Y-49769661D01*
X106149435Y-49790000D01*
X105119663Y-49790000D01*
X105130877Y-49860809D01*
X105197516Y-50065901D01*
X105295415Y-50258036D01*
X105422169Y-50432496D01*
X105422169Y-50432497D01*
X105574646Y-50584974D01*
X105749107Y-50711728D01*
X105941242Y-50809627D01*
X106146334Y-50876265D01*
X106359324Y-50910000D01*
X106442144Y-50910000D01*
X106442144Y-50082709D01*
X106462483Y-50094452D01*
X106613811Y-50135000D01*
X106770477Y-50135000D01*
X106921805Y-50094452D01*
X106942144Y-50082709D01*
X106942144Y-50910000D01*
X107024964Y-50910000D01*
X107237953Y-50876265D01*
X107443045Y-50809627D01*
X107635180Y-50711728D01*
X107809640Y-50584974D01*
X107809641Y-50584974D01*
X107962118Y-50432497D01*
X107962118Y-50432496D01*
X108088872Y-50258036D01*
X108186771Y-50065901D01*
X108253410Y-49860809D01*
X108264625Y-49790000D01*
X107234853Y-49790000D01*
X107246596Y-49769661D01*
X107287144Y-49618333D01*
X107287144Y-49461667D01*
X107246596Y-49310339D01*
X107234853Y-49290000D01*
X108264625Y-49290000D01*
X108253410Y-49219190D01*
X108186771Y-49014098D01*
X108088872Y-48821963D01*
X107962118Y-48647503D01*
X107962118Y-48647502D01*
X107809641Y-48495025D01*
X107638423Y-48370627D01*
X107595758Y-48315297D01*
X107589779Y-48245683D01*
X107622385Y-48183888D01*
X107638424Y-48169991D01*
X107809965Y-48045359D01*
X107962503Y-47892821D01*
X108089301Y-47718299D01*
X108187236Y-47526089D01*
X108253898Y-47320926D01*
X108268896Y-47226230D01*
X108287644Y-47107866D01*
X108287644Y-46892133D01*
X108253898Y-46679077D01*
X108253898Y-46679074D01*
X108187236Y-46473911D01*
X108089301Y-46281701D01*
X107962503Y-46107179D01*
X107809965Y-45954641D01*
X107638848Y-45830317D01*
X107596184Y-45774988D01*
X107590205Y-45705374D01*
X107622811Y-45643580D01*
X107638846Y-45629684D01*
X107809965Y-45505359D01*
X107962503Y-45352821D01*
X108089301Y-45178299D01*
X108187236Y-44986089D01*
X108253898Y-44780926D01*
X108268896Y-44686230D01*
X108287644Y-44567866D01*
X108287644Y-44352133D01*
X108253898Y-44139077D01*
X108253898Y-44139074D01*
X108187236Y-43933911D01*
X108089301Y-43741701D01*
X107962503Y-43567179D01*
X107809965Y-43414641D01*
X107638848Y-43290317D01*
X107596184Y-43234988D01*
X107590205Y-43165374D01*
X107622811Y-43103580D01*
X107638846Y-43089684D01*
X107809965Y-42965359D01*
X107962503Y-42812821D01*
X108089301Y-42638299D01*
X108187236Y-42446089D01*
X108253898Y-42240926D01*
X108272163Y-42125606D01*
X108287644Y-42027866D01*
X108287644Y-41812133D01*
X108253898Y-41599077D01*
X108253898Y-41599074D01*
X108187236Y-41393911D01*
X108089301Y-41201701D01*
X107962503Y-41027179D01*
X107809965Y-40874641D01*
X107638848Y-40750317D01*
X107596184Y-40694988D01*
X107590205Y-40625374D01*
X107622811Y-40563580D01*
X107638846Y-40549684D01*
X107809965Y-40425359D01*
X107962503Y-40272821D01*
X108089301Y-40098299D01*
X108187236Y-39906089D01*
X108253898Y-39700926D01*
X108270337Y-39597136D01*
X108287644Y-39487866D01*
X108287644Y-39272133D01*
X108262254Y-39111835D01*
X108253898Y-39059074D01*
X108187236Y-38853911D01*
X108089301Y-38661701D01*
X107962503Y-38487179D01*
X107820140Y-38344816D01*
X107786655Y-38283493D01*
X107791639Y-38213801D01*
X107833511Y-38157868D01*
X107855433Y-38144745D01*
X107856271Y-38144354D01*
X108005489Y-38052315D01*
X108129459Y-37928345D01*
X108221500Y-37779124D01*
X108221502Y-37779119D01*
X108276649Y-37612697D01*
X108276650Y-37612690D01*
X108287143Y-37509986D01*
X108287144Y-37509973D01*
X108287144Y-37090000D01*
X107234853Y-37090000D01*
X107246596Y-37069661D01*
X107287144Y-36918333D01*
X107287144Y-36761667D01*
X107246596Y-36610339D01*
X107234853Y-36590000D01*
X108287143Y-36590000D01*
X108287143Y-36170028D01*
X108287142Y-36170013D01*
X108276649Y-36067302D01*
X108221502Y-35900880D01*
X108221500Y-35900875D01*
X108129459Y-35751654D01*
X108005489Y-35627684D01*
X107856268Y-35535643D01*
X107856263Y-35535641D01*
X107689841Y-35480494D01*
X107689834Y-35480493D01*
X107587130Y-35470000D01*
X106942144Y-35470000D01*
X106942144Y-36297290D01*
X106921805Y-36285548D01*
X106770477Y-36245000D01*
X106613811Y-36245000D01*
X106462483Y-36285548D01*
X106442144Y-36297290D01*
X106442144Y-35470000D01*
X105797172Y-35470000D01*
X105797156Y-35470001D01*
X105694446Y-35480494D01*
X105528024Y-35535641D01*
X105528019Y-35535643D01*
X105378798Y-35627684D01*
X105254828Y-35751654D01*
X105162787Y-35900875D01*
X105162785Y-35900880D01*
X105107638Y-36067302D01*
X105107637Y-36067309D01*
X105097144Y-36170013D01*
X105097144Y-36590000D01*
X106149435Y-36590000D01*
X106137692Y-36610339D01*
X106097144Y-36761667D01*
X106097144Y-36918333D01*
X106137692Y-37069661D01*
X106149435Y-37090000D01*
X105097145Y-37090000D01*
X105097145Y-37509986D01*
X105107638Y-37612697D01*
X105162785Y-37779119D01*
X105162787Y-37779124D01*
X105254828Y-37928345D01*
X105378798Y-38052315D01*
X105528020Y-38144356D01*
X105528860Y-38144748D01*
X105529339Y-38145170D01*
X105534169Y-38148149D01*
X105533660Y-38148973D01*
X105581304Y-38190915D01*
X105600462Y-38258107D01*
X105580253Y-38324990D01*
X105564148Y-38344816D01*
X105421784Y-38487180D01*
X105294987Y-38661700D01*
X105197053Y-38853908D01*
X105130389Y-39059077D01*
X105096644Y-39272133D01*
X100407798Y-39272133D01*
X100429469Y-39219815D01*
X100474193Y-39111839D01*
X100474195Y-39111835D01*
X100512644Y-38918541D01*
X100512644Y-38721459D01*
X100512644Y-38721456D01*
X100474196Y-38528170D01*
X100474195Y-38528169D01*
X100474195Y-38528165D01*
X100457218Y-38487179D01*
X100398779Y-38346092D01*
X100398772Y-38346079D01*
X100289283Y-38182218D01*
X100289280Y-38182214D01*
X100149929Y-38042863D01*
X100149925Y-38042860D01*
X99986064Y-37933371D01*
X99986051Y-37933364D01*
X99803983Y-37857950D01*
X99803973Y-37857947D01*
X99722886Y-37841818D01*
X99660975Y-37809433D01*
X99626401Y-37748717D01*
X99630141Y-37678948D01*
X99636593Y-37663906D01*
X99722246Y-37495802D01*
X99795209Y-37271247D01*
X99832144Y-37038052D01*
X99832144Y-36801947D01*
X99795209Y-36568752D01*
X99722246Y-36344197D01*
X99661758Y-36225481D01*
X99589433Y-36097163D01*
X99583094Y-36069804D01*
X99573658Y-36043356D01*
X99575315Y-36036226D01*
X99573664Y-36029096D01*
X99583121Y-36002657D01*
X99589483Y-35975302D01*
X99594732Y-35970199D01*
X99597198Y-35963309D01*
X99619447Y-35946181D01*
X99639589Y-35926607D01*
X99648602Y-35923737D01*
X99652563Y-35920689D01*
X99660227Y-35920037D01*
X99681266Y-35913339D01*
X99854382Y-35890548D01*
X100076031Y-35831158D01*
X100288032Y-35743344D01*
X100486756Y-35628611D01*
X100668805Y-35488919D01*
X100668809Y-35488914D01*
X100668814Y-35488911D01*
X100831055Y-35326670D01*
X100831058Y-35326665D01*
X100831063Y-35326661D01*
X100970755Y-35144612D01*
X101085488Y-34945888D01*
X101173302Y-34733887D01*
X101232692Y-34512238D01*
X101262644Y-34284734D01*
X101262644Y-34055266D01*
X101232692Y-33827762D01*
X101173302Y-33606113D01*
X101085488Y-33394112D01*
X100970755Y-33195388D01*
X100970752Y-33195385D01*
X100970751Y-33195382D01*
X100831062Y-33013338D01*
X100831055Y-33013330D01*
X100668814Y-32851089D01*
X100668805Y-32851081D01*
X100486761Y-32711392D01*
X100288034Y-32596657D01*
X100288020Y-32596650D01*
X100076031Y-32508842D01*
X99854382Y-32449452D01*
X99681269Y-32426660D01*
X99617374Y-32398394D01*
X99578903Y-32340070D01*
X99578072Y-32270205D01*
X99597139Y-32230835D01*
X99615058Y-32206172D01*
X99722246Y-31995802D01*
X99795209Y-31771247D01*
X99832144Y-31538052D01*
X99832144Y-31301947D01*
X99795209Y-31068752D01*
X99722246Y-30844197D01*
X99615058Y-30633828D01*
X99554802Y-30550894D01*
X99554802Y-30550893D01*
X98815106Y-31290590D01*
X98798069Y-31227007D01*
X98732243Y-31112993D01*
X98639151Y-31019901D01*
X98525137Y-30954075D01*
X98461553Y-30937037D01*
X99201249Y-30197340D01*
X99201248Y-30197338D01*
X99118318Y-30137087D01*
X98907946Y-30029897D01*
X98683391Y-29956934D01*
X98683392Y-29956934D01*
X98450196Y-29920000D01*
X98214092Y-29920000D01*
X97980896Y-29956934D01*
X97756341Y-30029897D01*
X97545974Y-30137084D01*
X97463038Y-30197340D01*
X98202735Y-30937037D01*
X98139151Y-30954075D01*
X98025137Y-31019901D01*
X97932045Y-31112993D01*
X97866219Y-31227007D01*
X97849181Y-31290590D01*
X97109484Y-30550893D01*
X97089737Y-30552448D01*
X97086004Y-30551663D01*
X97082366Y-30552808D01*
X97052080Y-30544537D01*
X97021359Y-30538084D01*
X97017573Y-30535114D01*
X97014965Y-30534402D01*
X97005575Y-30525701D01*
X96987856Y-30511800D01*
X96983514Y-30506978D01*
X96936661Y-30442490D01*
X96769654Y-30275483D01*
X96578577Y-30136657D01*
X96368140Y-30029433D01*
X96143512Y-29956446D01*
X95910241Y-29919500D01*
X95910236Y-29919500D01*
X95674052Y-29919500D01*
X95674047Y-29919500D01*
X95440775Y-29956446D01*
X95216147Y-30029433D01*
X95005710Y-30136657D01*
X94922191Y-30197338D01*
X94814634Y-30275483D01*
X94814632Y-30275485D01*
X94814631Y-30275485D01*
X94647629Y-30442487D01*
X94647629Y-30442488D01*
X94647627Y-30442490D01*
X94597270Y-30511800D01*
X94508801Y-30633566D01*
X94401577Y-30844003D01*
X94328590Y-31068631D01*
X94291644Y-31301902D01*
X94291644Y-31538097D01*
X94328590Y-31771368D01*
X94401577Y-31995996D01*
X94508800Y-32206432D01*
X94520558Y-32222615D01*
X94544037Y-32288422D01*
X94528211Y-32356476D01*
X94478105Y-32405170D01*
X94420239Y-32419500D01*
X94407402Y-32419500D01*
X94190859Y-32448009D01*
X94179906Y-32449452D01*
X94086220Y-32474554D01*
X93958256Y-32508842D01*
X93746267Y-32596650D01*
X93746253Y-32596657D01*
X93547526Y-32711392D01*
X93365482Y-32851081D01*
X93203225Y-33013338D01*
X93063536Y-33195382D01*
X92948801Y-33394109D01*
X92948794Y-33394123D01*
X92860986Y-33606112D01*
X92801597Y-33827759D01*
X92801595Y-33827770D01*
X92771644Y-34055258D01*
X90172644Y-34055258D01*
X90172644Y-29186307D01*
X104331183Y-29186307D01*
X111494605Y-29186307D01*
X111494605Y-28068853D01*
X104331183Y-28068853D01*
X104331183Y-29186307D01*
X90172644Y-29186307D01*
X90172644Y-27834500D01*
X90192329Y-27767461D01*
X90245133Y-27721706D01*
X90296644Y-27710500D01*
X111797644Y-27710500D01*
X111864683Y-27730185D01*
G37*
%TD.AperFunction*%
%TD*%
M02*
