%TF.GenerationSoftware,KiCad,Pcbnew,9.0.4*%
%TF.CreationDate,2026-01-29T00:14:07+00:00*%
%TF.ProjectId,Line following V1,4c696e65-2066-46f6-9c6c-6f77696e6720,rev?*%
%TF.SameCoordinates,Original*%
%TF.FileFunction,Legend,Top*%
%TF.FilePolarity,Positive*%
%FSLAX46Y46*%
G04 Gerber Fmt 4.6, Leading zero omitted, Abs format (unit mm)*
G04 Created by KiCad (PCBNEW 9.0.4) date 2026-01-29 00:14:07*
%MOMM*%
%LPD*%
G01*
G04 APERTURE LIST*
%ADD10C,0.150000*%
%ADD11C,0.120000*%
G04 APERTURE END LIST*
D10*
X108166666Y-49684819D02*
X108166666Y-50399104D01*
X108166666Y-50399104D02*
X108119047Y-50541961D01*
X108119047Y-50541961D02*
X108023809Y-50637200D01*
X108023809Y-50637200D02*
X107880952Y-50684819D01*
X107880952Y-50684819D02*
X107785714Y-50684819D01*
X108547619Y-49684819D02*
X109166666Y-49684819D01*
X109166666Y-49684819D02*
X108833333Y-50065771D01*
X108833333Y-50065771D02*
X108976190Y-50065771D01*
X108976190Y-50065771D02*
X109071428Y-50113390D01*
X109071428Y-50113390D02*
X109119047Y-50161009D01*
X109119047Y-50161009D02*
X109166666Y-50256247D01*
X109166666Y-50256247D02*
X109166666Y-50494342D01*
X109166666Y-50494342D02*
X109119047Y-50589580D01*
X109119047Y-50589580D02*
X109071428Y-50637200D01*
X109071428Y-50637200D02*
X108976190Y-50684819D01*
X108976190Y-50684819D02*
X108690476Y-50684819D01*
X108690476Y-50684819D02*
X108595238Y-50637200D01*
X108595238Y-50637200D02*
X108547619Y-50589580D01*
X106539580Y-38204166D02*
X106587200Y-38251785D01*
X106587200Y-38251785D02*
X106634819Y-38394642D01*
X106634819Y-38394642D02*
X106634819Y-38489880D01*
X106634819Y-38489880D02*
X106587200Y-38632737D01*
X106587200Y-38632737D02*
X106491961Y-38727975D01*
X106491961Y-38727975D02*
X106396723Y-38775594D01*
X106396723Y-38775594D02*
X106206247Y-38823213D01*
X106206247Y-38823213D02*
X106063390Y-38823213D01*
X106063390Y-38823213D02*
X105872914Y-38775594D01*
X105872914Y-38775594D02*
X105777676Y-38727975D01*
X105777676Y-38727975D02*
X105682438Y-38632737D01*
X105682438Y-38632737D02*
X105634819Y-38489880D01*
X105634819Y-38489880D02*
X105634819Y-38394642D01*
X105634819Y-38394642D02*
X105682438Y-38251785D01*
X105682438Y-38251785D02*
X105730057Y-38204166D01*
X106634819Y-37251785D02*
X106634819Y-37823213D01*
X106634819Y-37537499D02*
X105634819Y-37537499D01*
X105634819Y-37537499D02*
X105777676Y-37632737D01*
X105777676Y-37632737D02*
X105872914Y-37727975D01*
X105872914Y-37727975D02*
X105920533Y-37823213D01*
X104833333Y-29004819D02*
X104500000Y-28528628D01*
X104261905Y-29004819D02*
X104261905Y-28004819D01*
X104261905Y-28004819D02*
X104642857Y-28004819D01*
X104642857Y-28004819D02*
X104738095Y-28052438D01*
X104738095Y-28052438D02*
X104785714Y-28100057D01*
X104785714Y-28100057D02*
X104833333Y-28195295D01*
X104833333Y-28195295D02*
X104833333Y-28338152D01*
X104833333Y-28338152D02*
X104785714Y-28433390D01*
X104785714Y-28433390D02*
X104738095Y-28481009D01*
X104738095Y-28481009D02*
X104642857Y-28528628D01*
X104642857Y-28528628D02*
X104261905Y-28528628D01*
X105690476Y-28004819D02*
X105500000Y-28004819D01*
X105500000Y-28004819D02*
X105404762Y-28052438D01*
X105404762Y-28052438D02*
X105357143Y-28100057D01*
X105357143Y-28100057D02*
X105261905Y-28242914D01*
X105261905Y-28242914D02*
X105214286Y-28433390D01*
X105214286Y-28433390D02*
X105214286Y-28814342D01*
X105214286Y-28814342D02*
X105261905Y-28909580D01*
X105261905Y-28909580D02*
X105309524Y-28957200D01*
X105309524Y-28957200D02*
X105404762Y-29004819D01*
X105404762Y-29004819D02*
X105595238Y-29004819D01*
X105595238Y-29004819D02*
X105690476Y-28957200D01*
X105690476Y-28957200D02*
X105738095Y-28909580D01*
X105738095Y-28909580D02*
X105785714Y-28814342D01*
X105785714Y-28814342D02*
X105785714Y-28576247D01*
X105785714Y-28576247D02*
X105738095Y-28481009D01*
X105738095Y-28481009D02*
X105690476Y-28433390D01*
X105690476Y-28433390D02*
X105595238Y-28385771D01*
X105595238Y-28385771D02*
X105404762Y-28385771D01*
X105404762Y-28385771D02*
X105309524Y-28433390D01*
X105309524Y-28433390D02*
X105261905Y-28481009D01*
X105261905Y-28481009D02*
X105214286Y-28576247D01*
X113833333Y-32104819D02*
X113500000Y-31628628D01*
X113261905Y-32104819D02*
X113261905Y-31104819D01*
X113261905Y-31104819D02*
X113642857Y-31104819D01*
X113642857Y-31104819D02*
X113738095Y-31152438D01*
X113738095Y-31152438D02*
X113785714Y-31200057D01*
X113785714Y-31200057D02*
X113833333Y-31295295D01*
X113833333Y-31295295D02*
X113833333Y-31438152D01*
X113833333Y-31438152D02*
X113785714Y-31533390D01*
X113785714Y-31533390D02*
X113738095Y-31581009D01*
X113738095Y-31581009D02*
X113642857Y-31628628D01*
X113642857Y-31628628D02*
X113261905Y-31628628D01*
X114785714Y-32104819D02*
X114214286Y-32104819D01*
X114500000Y-32104819D02*
X114500000Y-31104819D01*
X114500000Y-31104819D02*
X114404762Y-31247676D01*
X114404762Y-31247676D02*
X114309524Y-31342914D01*
X114309524Y-31342914D02*
X114214286Y-31390533D01*
X119104819Y-55166666D02*
X118628628Y-55499999D01*
X119104819Y-55738094D02*
X118104819Y-55738094D01*
X118104819Y-55738094D02*
X118104819Y-55357142D01*
X118104819Y-55357142D02*
X118152438Y-55261904D01*
X118152438Y-55261904D02*
X118200057Y-55214285D01*
X118200057Y-55214285D02*
X118295295Y-55166666D01*
X118295295Y-55166666D02*
X118438152Y-55166666D01*
X118438152Y-55166666D02*
X118533390Y-55214285D01*
X118533390Y-55214285D02*
X118581009Y-55261904D01*
X118581009Y-55261904D02*
X118628628Y-55357142D01*
X118628628Y-55357142D02*
X118628628Y-55738094D01*
X118104819Y-54833332D02*
X118104819Y-54166666D01*
X118104819Y-54166666D02*
X119104819Y-54595237D01*
X116666666Y-38684819D02*
X116666666Y-39399104D01*
X116666666Y-39399104D02*
X116619047Y-39541961D01*
X116619047Y-39541961D02*
X116523809Y-39637200D01*
X116523809Y-39637200D02*
X116380952Y-39684819D01*
X116380952Y-39684819D02*
X116285714Y-39684819D01*
X117666666Y-39684819D02*
X117095238Y-39684819D01*
X117380952Y-39684819D02*
X117380952Y-38684819D01*
X117380952Y-38684819D02*
X117285714Y-38827676D01*
X117285714Y-38827676D02*
X117190476Y-38922914D01*
X117190476Y-38922914D02*
X117095238Y-38970533D01*
X113238095Y-62154819D02*
X113238095Y-61154819D01*
X113238095Y-61631009D02*
X113809523Y-61631009D01*
X113809523Y-62154819D02*
X113809523Y-61154819D01*
X114238095Y-61250057D02*
X114285714Y-61202438D01*
X114285714Y-61202438D02*
X114380952Y-61154819D01*
X114380952Y-61154819D02*
X114619047Y-61154819D01*
X114619047Y-61154819D02*
X114714285Y-61202438D01*
X114714285Y-61202438D02*
X114761904Y-61250057D01*
X114761904Y-61250057D02*
X114809523Y-61345295D01*
X114809523Y-61345295D02*
X114809523Y-61440533D01*
X114809523Y-61440533D02*
X114761904Y-61583390D01*
X114761904Y-61583390D02*
X114190476Y-62154819D01*
X114190476Y-62154819D02*
X114809523Y-62154819D01*
X117104819Y-34666666D02*
X116628628Y-34999999D01*
X117104819Y-35238094D02*
X116104819Y-35238094D01*
X116104819Y-35238094D02*
X116104819Y-34857142D01*
X116104819Y-34857142D02*
X116152438Y-34761904D01*
X116152438Y-34761904D02*
X116200057Y-34714285D01*
X116200057Y-34714285D02*
X116295295Y-34666666D01*
X116295295Y-34666666D02*
X116438152Y-34666666D01*
X116438152Y-34666666D02*
X116533390Y-34714285D01*
X116533390Y-34714285D02*
X116581009Y-34761904D01*
X116581009Y-34761904D02*
X116628628Y-34857142D01*
X116628628Y-34857142D02*
X116628628Y-35238094D01*
X116200057Y-34285713D02*
X116152438Y-34238094D01*
X116152438Y-34238094D02*
X116104819Y-34142856D01*
X116104819Y-34142856D02*
X116104819Y-33904761D01*
X116104819Y-33904761D02*
X116152438Y-33809523D01*
X116152438Y-33809523D02*
X116200057Y-33761904D01*
X116200057Y-33761904D02*
X116295295Y-33714285D01*
X116295295Y-33714285D02*
X116390533Y-33714285D01*
X116390533Y-33714285D02*
X116533390Y-33761904D01*
X116533390Y-33761904D02*
X117104819Y-34333332D01*
X117104819Y-34333332D02*
X117104819Y-33714285D01*
X102666666Y-38684819D02*
X102666666Y-39399104D01*
X102666666Y-39399104D02*
X102619047Y-39541961D01*
X102619047Y-39541961D02*
X102523809Y-39637200D01*
X102523809Y-39637200D02*
X102380952Y-39684819D01*
X102380952Y-39684819D02*
X102285714Y-39684819D01*
X103095238Y-38780057D02*
X103142857Y-38732438D01*
X103142857Y-38732438D02*
X103238095Y-38684819D01*
X103238095Y-38684819D02*
X103476190Y-38684819D01*
X103476190Y-38684819D02*
X103571428Y-38732438D01*
X103571428Y-38732438D02*
X103619047Y-38780057D01*
X103619047Y-38780057D02*
X103666666Y-38875295D01*
X103666666Y-38875295D02*
X103666666Y-38970533D01*
X103666666Y-38970533D02*
X103619047Y-39113390D01*
X103619047Y-39113390D02*
X103047619Y-39684819D01*
X103047619Y-39684819D02*
X103666666Y-39684819D01*
X107333333Y-55299819D02*
X107000000Y-54823628D01*
X106761905Y-55299819D02*
X106761905Y-54299819D01*
X106761905Y-54299819D02*
X107142857Y-54299819D01*
X107142857Y-54299819D02*
X107238095Y-54347438D01*
X107238095Y-54347438D02*
X107285714Y-54395057D01*
X107285714Y-54395057D02*
X107333333Y-54490295D01*
X107333333Y-54490295D02*
X107333333Y-54633152D01*
X107333333Y-54633152D02*
X107285714Y-54728390D01*
X107285714Y-54728390D02*
X107238095Y-54776009D01*
X107238095Y-54776009D02*
X107142857Y-54823628D01*
X107142857Y-54823628D02*
X106761905Y-54823628D01*
X108190476Y-54633152D02*
X108190476Y-55299819D01*
X107952381Y-54252200D02*
X107714286Y-54966485D01*
X107714286Y-54966485D02*
X108333333Y-54966485D01*
X105238095Y-62154819D02*
X105238095Y-61154819D01*
X105238095Y-61631009D02*
X105809523Y-61631009D01*
X105809523Y-62154819D02*
X105809523Y-61154819D01*
X106809523Y-62154819D02*
X106238095Y-62154819D01*
X106523809Y-62154819D02*
X106523809Y-61154819D01*
X106523809Y-61154819D02*
X106428571Y-61297676D01*
X106428571Y-61297676D02*
X106333333Y-61392914D01*
X106333333Y-61392914D02*
X106238095Y-61440533D01*
X104404819Y-53466666D02*
X103928628Y-53799999D01*
X104404819Y-54038094D02*
X103404819Y-54038094D01*
X103404819Y-54038094D02*
X103404819Y-53657142D01*
X103404819Y-53657142D02*
X103452438Y-53561904D01*
X103452438Y-53561904D02*
X103500057Y-53514285D01*
X103500057Y-53514285D02*
X103595295Y-53466666D01*
X103595295Y-53466666D02*
X103738152Y-53466666D01*
X103738152Y-53466666D02*
X103833390Y-53514285D01*
X103833390Y-53514285D02*
X103881009Y-53561904D01*
X103881009Y-53561904D02*
X103928628Y-53657142D01*
X103928628Y-53657142D02*
X103928628Y-54038094D01*
X103404819Y-53133332D02*
X103404819Y-52514285D01*
X103404819Y-52514285D02*
X103785771Y-52847618D01*
X103785771Y-52847618D02*
X103785771Y-52704761D01*
X103785771Y-52704761D02*
X103833390Y-52609523D01*
X103833390Y-52609523D02*
X103881009Y-52561904D01*
X103881009Y-52561904D02*
X103976247Y-52514285D01*
X103976247Y-52514285D02*
X104214342Y-52514285D01*
X104214342Y-52514285D02*
X104309580Y-52561904D01*
X104309580Y-52561904D02*
X104357200Y-52609523D01*
X104357200Y-52609523D02*
X104404819Y-52704761D01*
X104404819Y-52704761D02*
X104404819Y-52990475D01*
X104404819Y-52990475D02*
X104357200Y-53085713D01*
X104357200Y-53085713D02*
X104309580Y-53133332D01*
X111833333Y-55299819D02*
X111500000Y-54823628D01*
X111261905Y-55299819D02*
X111261905Y-54299819D01*
X111261905Y-54299819D02*
X111642857Y-54299819D01*
X111642857Y-54299819D02*
X111738095Y-54347438D01*
X111738095Y-54347438D02*
X111785714Y-54395057D01*
X111785714Y-54395057D02*
X111833333Y-54490295D01*
X111833333Y-54490295D02*
X111833333Y-54633152D01*
X111833333Y-54633152D02*
X111785714Y-54728390D01*
X111785714Y-54728390D02*
X111738095Y-54776009D01*
X111738095Y-54776009D02*
X111642857Y-54823628D01*
X111642857Y-54823628D02*
X111261905Y-54823628D01*
X112738095Y-54299819D02*
X112261905Y-54299819D01*
X112261905Y-54299819D02*
X112214286Y-54776009D01*
X112214286Y-54776009D02*
X112261905Y-54728390D01*
X112261905Y-54728390D02*
X112357143Y-54680771D01*
X112357143Y-54680771D02*
X112595238Y-54680771D01*
X112595238Y-54680771D02*
X112690476Y-54728390D01*
X112690476Y-54728390D02*
X112738095Y-54776009D01*
X112738095Y-54776009D02*
X112785714Y-54871247D01*
X112785714Y-54871247D02*
X112785714Y-55109342D01*
X112785714Y-55109342D02*
X112738095Y-55204580D01*
X112738095Y-55204580D02*
X112690476Y-55252200D01*
X112690476Y-55252200D02*
X112595238Y-55299819D01*
X112595238Y-55299819D02*
X112357143Y-55299819D01*
X112357143Y-55299819D02*
X112261905Y-55252200D01*
X112261905Y-55252200D02*
X112214286Y-55204580D01*
X109404761Y-57294819D02*
X109071428Y-56818628D01*
X108833333Y-57294819D02*
X108833333Y-56294819D01*
X108833333Y-56294819D02*
X109214285Y-56294819D01*
X109214285Y-56294819D02*
X109309523Y-56342438D01*
X109309523Y-56342438D02*
X109357142Y-56390057D01*
X109357142Y-56390057D02*
X109404761Y-56485295D01*
X109404761Y-56485295D02*
X109404761Y-56628152D01*
X109404761Y-56628152D02*
X109357142Y-56723390D01*
X109357142Y-56723390D02*
X109309523Y-56771009D01*
X109309523Y-56771009D02*
X109214285Y-56818628D01*
X109214285Y-56818628D02*
X108833333Y-56818628D01*
X109690476Y-56294819D02*
X110023809Y-57294819D01*
X110023809Y-57294819D02*
X110357142Y-56294819D01*
X111214285Y-57294819D02*
X110642857Y-57294819D01*
X110928571Y-57294819D02*
X110928571Y-56294819D01*
X110928571Y-56294819D02*
X110833333Y-56437676D01*
X110833333Y-56437676D02*
X110738095Y-56532914D01*
X110738095Y-56532914D02*
X110642857Y-56580533D01*
D11*
%TO.C,J3*%
X107170000Y-54210000D02*
X107170000Y-54330000D01*
X107170000Y-54330000D02*
X109830000Y-54330000D01*
X108500000Y-51670000D02*
X109830000Y-51670000D01*
X109830000Y-51670000D02*
X109830000Y-53000000D01*
X109830000Y-54210000D02*
X109830000Y-54330000D01*
%TO.C,C1*%
X103765000Y-37776248D02*
X103765000Y-38298752D01*
X105235000Y-37776248D02*
X105235000Y-38298752D01*
%TO.C,R6*%
X104772936Y-29465000D02*
X105227064Y-29465000D01*
X104772936Y-30935000D02*
X105227064Y-30935000D01*
%TO.C,R1*%
X114227064Y-29265000D02*
X113772936Y-29265000D01*
X114227064Y-30735000D02*
X113772936Y-30735000D01*
%TO.C,R7*%
X116265000Y-54772936D02*
X116265000Y-55227064D01*
X117735000Y-54772936D02*
X117735000Y-55227064D01*
%TO.C,J1*%
X115670000Y-43270000D02*
X115670000Y-50950000D01*
X115670000Y-43270000D02*
X118330000Y-43270000D01*
X115670000Y-50950000D02*
X118330000Y-50950000D01*
X117000000Y-40670000D02*
X118330000Y-40670000D01*
X118330000Y-40670000D02*
X118330000Y-42000000D01*
X118330000Y-43270000D02*
X118330000Y-50950000D01*
%TO.C,R2*%
X114265000Y-34272936D02*
X114265000Y-34727064D01*
X115735000Y-34272936D02*
X115735000Y-34727064D01*
%TO.C,J2*%
X101670000Y-43270000D02*
X101670000Y-50950000D01*
X101670000Y-43270000D02*
X104330000Y-43270000D01*
X101670000Y-50950000D02*
X104330000Y-50950000D01*
X103000000Y-40670000D02*
X104330000Y-40670000D01*
X104330000Y-40670000D02*
X104330000Y-42000000D01*
X104330000Y-43270000D02*
X104330000Y-50950000D01*
%TO.C,R4*%
X107272936Y-55760000D02*
X107727064Y-55760000D01*
X107272936Y-57230000D02*
X107727064Y-57230000D01*
%TO.C,R3*%
X104865000Y-53527064D02*
X104865000Y-53072936D01*
X106335000Y-53527064D02*
X106335000Y-53072936D01*
%TO.C,R5*%
X111772936Y-55760000D02*
X112227064Y-55760000D01*
X111772936Y-57230000D02*
X112227064Y-57230000D01*
%TO.C,RV1*%
X105125000Y-57980000D02*
X114875000Y-57980000D01*
X105125000Y-63030000D02*
X105125000Y-57980000D01*
X114875000Y-57980000D02*
X114875000Y-63030000D01*
X114875000Y-63030000D02*
X105125000Y-63030000D01*
%TD*%
M02*
