%TF.GenerationSoftware,KiCad,Pcbnew,9.0.4*%
%TF.CreationDate,2026-01-29T00:14:07+00:00*%
%TF.ProjectId,Line following V1,4c696e65-2066-46f6-9c6c-6f77696e6720,rev?*%
%TF.SameCoordinates,Original*%
%TF.FileFunction,Copper,L2,Bot*%
%TF.FilePolarity,Positive*%
%FSLAX46Y46*%
G04 Gerber Fmt 4.6, Leading zero omitted, Abs format (unit mm)*
G04 Created by KiCad (PCBNEW 9.0.4) date 2026-01-29 00:14:07*
%MOMM*%
%LPD*%
G01*
G04 APERTURE LIST*
G04 Aperture macros list*
%AMRoundRect*
0 Rectangle with rounded corners*
0 $1 Rounding radius*
0 $2 $3 $4 $5 $6 $7 $8 $9 X,Y pos of 4 corners*
0 Add a 4 corners polygon primitive as box body*
4,1,4,$2,$3,$4,$5,$6,$7,$8,$9,$2,$3,0*
0 Add four circle primitives for the rounded corners*
1,1,$1+$1,$2,$3*
1,1,$1+$1,$4,$5*
1,1,$1+$1,$6,$7*
1,1,$1+$1,$8,$9*
0 Add four rect primitives between the rounded corners*
20,1,$1+$1,$2,$3,$4,$5,0*
20,1,$1+$1,$4,$5,$6,$7,0*
20,1,$1+$1,$6,$7,$8,$9,0*
20,1,$1+$1,$8,$9,$2,$3,0*%
G04 Aperture macros list end*
%ADD10C,0.100000*%
%TA.AperFunction,ComponentPad*%
%ADD11R,1.700000X1.700000*%
%TD*%
%TA.AperFunction,ComponentPad*%
%ADD12C,1.700000*%
%TD*%
%TA.AperFunction,ComponentPad*%
%ADD13C,3.600000*%
%TD*%
%TA.AperFunction,ConnectorPad*%
%ADD14C,5.700000*%
%TD*%
%TA.AperFunction,ComponentPad*%
%ADD15C,1.440000*%
%TD*%
%TA.AperFunction,ComponentPad*%
%ADD16R,2.000000X2.000000*%
%TD*%
%TA.AperFunction,ComponentPad*%
%ADD17C,2.000000*%
%TD*%
%TA.AperFunction,ComponentPad*%
%ADD18RoundRect,0.250000X0.950000X0.550000X-0.950000X0.550000X-0.950000X-0.550000X0.950000X-0.550000X0*%
%TD*%
%TA.AperFunction,ComponentPad*%
%ADD19O,2.400000X1.600000*%
%TD*%
%TA.AperFunction,ViaPad*%
%ADD20C,2.000000*%
%TD*%
%TA.AperFunction,Conductor*%
%ADD21C,0.600000*%
%TD*%
G04 APERTURE END LIST*
D10*
G36*
X101406704Y-66501655D02*
G01*
X100900532Y-66332932D01*
X101406704Y-66164208D01*
X101406704Y-66501655D01*
G37*
G36*
X101617561Y-64516881D02*
G01*
X101653708Y-64553027D01*
X101692419Y-64630449D01*
X101692419Y-64797318D01*
X101663898Y-64854360D01*
X101154272Y-64854360D01*
X101125752Y-64797319D01*
X101125752Y-64630449D01*
X101164463Y-64553025D01*
X101200608Y-64516881D01*
X101278032Y-64478170D01*
X101540139Y-64478170D01*
X101617561Y-64516881D01*
G37*
G36*
X101657532Y-63608294D02*
G01*
X101692419Y-63678068D01*
X101692419Y-63892556D01*
X101663898Y-63949598D01*
X101394748Y-63949598D01*
X101406187Y-63926721D01*
X101406848Y-63924305D01*
X101407660Y-63923494D01*
X101409223Y-63915632D01*
X101411340Y-63907905D01*
X101410977Y-63906816D01*
X101411466Y-63904360D01*
X101411466Y-63678068D01*
X101446352Y-63608294D01*
X101516127Y-63573408D01*
X101587759Y-63573408D01*
X101657532Y-63608294D01*
G37*
G36*
X101657532Y-62703532D02*
G01*
X101692419Y-62773306D01*
X101692419Y-62987794D01*
X101663898Y-63044836D01*
X101394748Y-63044836D01*
X101406187Y-63021959D01*
X101406848Y-63019543D01*
X101407660Y-63018732D01*
X101409223Y-63010870D01*
X101411340Y-63003143D01*
X101410977Y-63002054D01*
X101411466Y-62999598D01*
X101411466Y-62773306D01*
X101446352Y-62703532D01*
X101516127Y-62668646D01*
X101587759Y-62668646D01*
X101657532Y-62703532D01*
G37*
G36*
X101903530Y-68873140D02*
G01*
X100581308Y-68873140D01*
X100581308Y-68190075D01*
X101025752Y-68190075D01*
X101025752Y-68713884D01*
X101027919Y-68724778D01*
X101027607Y-68727378D01*
X101028717Y-68728790D01*
X101029558Y-68733018D01*
X101041133Y-68744593D01*
X101051250Y-68757469D01*
X101054385Y-68757845D01*
X101056618Y-68760078D01*
X101072989Y-68760078D01*
X101089246Y-68762029D01*
X101093090Y-68760078D01*
X101094886Y-68760078D01*
X101096736Y-68758227D01*
X101106643Y-68753200D01*
X101692419Y-68292948D01*
X101692419Y-68713884D01*
X101696225Y-68733018D01*
X101723285Y-68760078D01*
X101761553Y-68760078D01*
X101788613Y-68733018D01*
X101792419Y-68713884D01*
X101792419Y-68190075D01*
X101790251Y-68179180D01*
X101790564Y-68176581D01*
X101789453Y-68175168D01*
X101788613Y-68170941D01*
X101777037Y-68159365D01*
X101766921Y-68146490D01*
X101763785Y-68146113D01*
X101761553Y-68143881D01*
X101745182Y-68143881D01*
X101728925Y-68141930D01*
X101725081Y-68143881D01*
X101723285Y-68143881D01*
X101721434Y-68145731D01*
X101711528Y-68150759D01*
X101125752Y-68611010D01*
X101125752Y-68190075D01*
X101121946Y-68170941D01*
X101094886Y-68143881D01*
X101056618Y-68143881D01*
X101029558Y-68170941D01*
X101025752Y-68190075D01*
X100581308Y-68190075D01*
X100581308Y-67789989D01*
X100696225Y-67789989D01*
X100696225Y-67828257D01*
X100707064Y-67844478D01*
X100754682Y-67892097D01*
X100770903Y-67902936D01*
X100770904Y-67902936D01*
X100809172Y-67902936D01*
X100825393Y-67892097D01*
X100873012Y-67844479D01*
X100883851Y-67828258D01*
X100883851Y-67789989D01*
X101029558Y-67789989D01*
X101029558Y-67828257D01*
X101056618Y-67855317D01*
X101075752Y-67859123D01*
X101742419Y-67859123D01*
X101761553Y-67855317D01*
X101788613Y-67828257D01*
X101788613Y-67789989D01*
X101761553Y-67762929D01*
X101742419Y-67759123D01*
X101075752Y-67759123D01*
X101056618Y-67762929D01*
X101029558Y-67789989D01*
X100883851Y-67789989D01*
X100883851Y-67789988D01*
X100873012Y-67773767D01*
X100825393Y-67726149D01*
X100809172Y-67715310D01*
X100770903Y-67715310D01*
X100754682Y-67726149D01*
X100707064Y-67773768D01*
X100696226Y-67789988D01*
X100696225Y-67789989D01*
X100581308Y-67789989D01*
X100581308Y-66904361D01*
X101025752Y-66904361D01*
X101025752Y-67428170D01*
X101027919Y-67439064D01*
X101027607Y-67441664D01*
X101028717Y-67443076D01*
X101029558Y-67447304D01*
X101041133Y-67458879D01*
X101051250Y-67471755D01*
X101054385Y-67472131D01*
X101056618Y-67474364D01*
X101072989Y-67474364D01*
X101089246Y-67476315D01*
X101093090Y-67474364D01*
X101094886Y-67474364D01*
X101096736Y-67472513D01*
X101106643Y-67467486D01*
X101692419Y-67007234D01*
X101692419Y-67428170D01*
X101696225Y-67447304D01*
X101723285Y-67474364D01*
X101761553Y-67474364D01*
X101788613Y-67447304D01*
X101792419Y-67428170D01*
X101792419Y-66904361D01*
X101790251Y-66893466D01*
X101790564Y-66890867D01*
X101789453Y-66889454D01*
X101788613Y-66885227D01*
X101777037Y-66873651D01*
X101766921Y-66860776D01*
X101763785Y-66860399D01*
X101761553Y-66858167D01*
X101745182Y-66858167D01*
X101728925Y-66856216D01*
X101725081Y-66858167D01*
X101723285Y-66858167D01*
X101721434Y-66860017D01*
X101711528Y-66865045D01*
X101125752Y-67325296D01*
X101125752Y-66904361D01*
X101121946Y-66885227D01*
X101094886Y-66858167D01*
X101056618Y-66858167D01*
X101029558Y-66885227D01*
X101025752Y-66904361D01*
X100581308Y-66904361D01*
X100581308Y-66329388D01*
X100692545Y-66329388D01*
X100693726Y-66332932D01*
X100692545Y-66336476D01*
X100699632Y-66350652D01*
X100704646Y-66365692D01*
X100707988Y-66367362D01*
X100709659Y-66370705D01*
X100726608Y-66380366D01*
X101726607Y-66713699D01*
X101745963Y-66716139D01*
X101780191Y-66699025D01*
X101792293Y-66662721D01*
X101775178Y-66628492D01*
X101758230Y-66618831D01*
X101506704Y-66534989D01*
X101506704Y-66130874D01*
X101758230Y-66047033D01*
X101775178Y-66037372D01*
X101792293Y-66003143D01*
X101780191Y-65966839D01*
X101745963Y-65949725D01*
X101726607Y-65952165D01*
X100726608Y-66285498D01*
X100709659Y-66295159D01*
X100707988Y-66298501D01*
X100704646Y-66300172D01*
X100699632Y-66315211D01*
X100692545Y-66329388D01*
X100581308Y-66329388D01*
X100581308Y-64885226D01*
X100696225Y-64885226D01*
X100696225Y-64923494D01*
X100723285Y-64950554D01*
X100742419Y-64954360D01*
X101742419Y-64954360D01*
X101761553Y-64950554D01*
X101788613Y-64923494D01*
X101788613Y-64885226D01*
X101769716Y-64866329D01*
X101787140Y-64831483D01*
X101787801Y-64829067D01*
X101788613Y-64828256D01*
X101790176Y-64820394D01*
X101792293Y-64812667D01*
X101791930Y-64811578D01*
X101792419Y-64809122D01*
X101792419Y-64618646D01*
X101791930Y-64616189D01*
X101792293Y-64615101D01*
X101790176Y-64607373D01*
X101788613Y-64599512D01*
X101787801Y-64598700D01*
X101787140Y-64596285D01*
X101739521Y-64501047D01*
X101734609Y-64494718D01*
X101730155Y-64488052D01*
X101682535Y-64440433D01*
X101675868Y-64435978D01*
X101669540Y-64431067D01*
X101574303Y-64383449D01*
X101571887Y-64382787D01*
X101571076Y-64381976D01*
X101563214Y-64380412D01*
X101555487Y-64378296D01*
X101554398Y-64378658D01*
X101551942Y-64378170D01*
X101266228Y-64378170D01*
X101263771Y-64378658D01*
X101262683Y-64378296D01*
X101254955Y-64380412D01*
X101247094Y-64381976D01*
X101246282Y-64382787D01*
X101243867Y-64383449D01*
X101148629Y-64431068D01*
X101142300Y-64435979D01*
X101135634Y-64440434D01*
X101088016Y-64488053D01*
X101083564Y-64494714D01*
X101078649Y-64501048D01*
X101031031Y-64596285D01*
X101030369Y-64598700D01*
X101029558Y-64599512D01*
X101027994Y-64607373D01*
X101025878Y-64615101D01*
X101026240Y-64616189D01*
X101025752Y-64618646D01*
X101025752Y-64809122D01*
X101026240Y-64811578D01*
X101025878Y-64812667D01*
X101027994Y-64820394D01*
X101029558Y-64828256D01*
X101030369Y-64829067D01*
X101031031Y-64831483D01*
X101042469Y-64854360D01*
X100742419Y-64854360D01*
X100723285Y-64858166D01*
X100696225Y-64885226D01*
X100581308Y-64885226D01*
X100581308Y-63666265D01*
X101025752Y-63666265D01*
X101025752Y-63856741D01*
X101026240Y-63859197D01*
X101025878Y-63860286D01*
X101027994Y-63868013D01*
X101029558Y-63875875D01*
X101030369Y-63876686D01*
X101031031Y-63879102D01*
X101078649Y-63974339D01*
X101084752Y-63982203D01*
X101085598Y-63984739D01*
X101088421Y-63986930D01*
X101090611Y-63989751D01*
X101093144Y-63990595D01*
X101101010Y-63996700D01*
X101196248Y-64044319D01*
X101198663Y-64044980D01*
X101199475Y-64045792D01*
X101207336Y-64047355D01*
X101215064Y-64049472D01*
X101216152Y-64049109D01*
X101218609Y-64049598D01*
X101742419Y-64049598D01*
X101761553Y-64045792D01*
X101788613Y-64018732D01*
X101788613Y-63980464D01*
X101769716Y-63961567D01*
X101787140Y-63926721D01*
X101787801Y-63924305D01*
X101788613Y-63923494D01*
X101790176Y-63915632D01*
X101792293Y-63907905D01*
X101791930Y-63906816D01*
X101792419Y-63904360D01*
X101792419Y-63666265D01*
X101791930Y-63663808D01*
X101792293Y-63662720D01*
X101790176Y-63654992D01*
X101788613Y-63647131D01*
X101787801Y-63646319D01*
X101787140Y-63643904D01*
X101739521Y-63548666D01*
X101733416Y-63540800D01*
X101732572Y-63538267D01*
X101729751Y-63536077D01*
X101727560Y-63533254D01*
X101725024Y-63532408D01*
X101717160Y-63526305D01*
X101621921Y-63478687D01*
X101619506Y-63478025D01*
X101618695Y-63477214D01*
X101610829Y-63475649D01*
X101603105Y-63473534D01*
X101602017Y-63473896D01*
X101599561Y-63473408D01*
X101504323Y-63473408D01*
X101501866Y-63473896D01*
X101500778Y-63473534D01*
X101493050Y-63475650D01*
X101485189Y-63477214D01*
X101484377Y-63478025D01*
X101481962Y-63478687D01*
X101386724Y-63526306D01*
X101378858Y-63532410D01*
X101376325Y-63533255D01*
X101374135Y-63536075D01*
X101371312Y-63538267D01*
X101370466Y-63540802D01*
X101364363Y-63548667D01*
X101316745Y-63643904D01*
X101316083Y-63646319D01*
X101315272Y-63647131D01*
X101313708Y-63654992D01*
X101311592Y-63662720D01*
X101311954Y-63663808D01*
X101311466Y-63666265D01*
X101311466Y-63892556D01*
X101282945Y-63949598D01*
X101230413Y-63949598D01*
X101160638Y-63914711D01*
X101125752Y-63844938D01*
X101125752Y-63678068D01*
X101168092Y-63593388D01*
X101173245Y-63574572D01*
X101161143Y-63538267D01*
X101126915Y-63521153D01*
X101090611Y-63533255D01*
X101078649Y-63548667D01*
X101031031Y-63643904D01*
X101030369Y-63646319D01*
X101029558Y-63647131D01*
X101027994Y-63654992D01*
X101025878Y-63662720D01*
X101026240Y-63663808D01*
X101025752Y-63666265D01*
X100581308Y-63666265D01*
X100581308Y-62761503D01*
X101025752Y-62761503D01*
X101025752Y-62951979D01*
X101026240Y-62954435D01*
X101025878Y-62955524D01*
X101027994Y-62963251D01*
X101029558Y-62971113D01*
X101030369Y-62971924D01*
X101031031Y-62974340D01*
X101078649Y-63069577D01*
X101084752Y-63077441D01*
X101085598Y-63079977D01*
X101088421Y-63082168D01*
X101090611Y-63084989D01*
X101093144Y-63085833D01*
X101101010Y-63091938D01*
X101196248Y-63139557D01*
X101198663Y-63140218D01*
X101199475Y-63141030D01*
X101207336Y-63142593D01*
X101215064Y-63144710D01*
X101216152Y-63144347D01*
X101218609Y-63144836D01*
X101742419Y-63144836D01*
X101761553Y-63141030D01*
X101788613Y-63113970D01*
X101788613Y-63075702D01*
X101769716Y-63056805D01*
X101787140Y-63021959D01*
X101787801Y-63019543D01*
X101788613Y-63018732D01*
X101790176Y-63010870D01*
X101792293Y-63003143D01*
X101791930Y-63002054D01*
X101792419Y-62999598D01*
X101792419Y-62761503D01*
X101791930Y-62759046D01*
X101792293Y-62757958D01*
X101790176Y-62750230D01*
X101788613Y-62742369D01*
X101787801Y-62741557D01*
X101787140Y-62739142D01*
X101739521Y-62643904D01*
X101733416Y-62636038D01*
X101732572Y-62633505D01*
X101729751Y-62631315D01*
X101727560Y-62628492D01*
X101725024Y-62627646D01*
X101717160Y-62621543D01*
X101621921Y-62573925D01*
X101619506Y-62573263D01*
X101618695Y-62572452D01*
X101610829Y-62570887D01*
X101603105Y-62568772D01*
X101602017Y-62569134D01*
X101599561Y-62568646D01*
X101504323Y-62568646D01*
X101501866Y-62569134D01*
X101500778Y-62568772D01*
X101493050Y-62570888D01*
X101485189Y-62572452D01*
X101484377Y-62573263D01*
X101481962Y-62573925D01*
X101386724Y-62621544D01*
X101378858Y-62627648D01*
X101376325Y-62628493D01*
X101374135Y-62631313D01*
X101371312Y-62633505D01*
X101370466Y-62636040D01*
X101364363Y-62643905D01*
X101316745Y-62739142D01*
X101316083Y-62741557D01*
X101315272Y-62742369D01*
X101313708Y-62750230D01*
X101311592Y-62757958D01*
X101311954Y-62759046D01*
X101311466Y-62761503D01*
X101311466Y-62987794D01*
X101282945Y-63044836D01*
X101230413Y-63044836D01*
X101160638Y-63009949D01*
X101125752Y-62940176D01*
X101125752Y-62773306D01*
X101168092Y-62688626D01*
X101173245Y-62669810D01*
X101161143Y-62633505D01*
X101126915Y-62616391D01*
X101090611Y-62628493D01*
X101078649Y-62643905D01*
X101031031Y-62739142D01*
X101030369Y-62741557D01*
X101029558Y-62742369D01*
X101027994Y-62750230D01*
X101025878Y-62757958D01*
X101026240Y-62759046D01*
X101025752Y-62761503D01*
X100581308Y-62761503D01*
X100581308Y-61856741D01*
X100692419Y-61856741D01*
X100692419Y-62094836D01*
X100693982Y-62102698D01*
X100694985Y-62110647D01*
X100742604Y-62253504D01*
X100752265Y-62270452D01*
X100786494Y-62287567D01*
X100822798Y-62275465D01*
X100839912Y-62241237D01*
X100837472Y-62221881D01*
X100792419Y-62086722D01*
X100792419Y-61868544D01*
X100831130Y-61791120D01*
X100867275Y-61754976D01*
X100944699Y-61716265D01*
X101016330Y-61716265D01*
X101093753Y-61754976D01*
X101129897Y-61791121D01*
X101171433Y-61874193D01*
X101217721Y-62059344D01*
X101220060Y-62064296D01*
X101221507Y-62069578D01*
X101269125Y-62164815D01*
X101274040Y-62171148D01*
X101278492Y-62177810D01*
X101326110Y-62225429D01*
X101332776Y-62229883D01*
X101339105Y-62234795D01*
X101434343Y-62282414D01*
X101436758Y-62283075D01*
X101437570Y-62283887D01*
X101445431Y-62285450D01*
X101453159Y-62287567D01*
X101454247Y-62287204D01*
X101456704Y-62287693D01*
X101551942Y-62287693D01*
X101554398Y-62287204D01*
X101555487Y-62287567D01*
X101563214Y-62285450D01*
X101571076Y-62283887D01*
X101571887Y-62283075D01*
X101574303Y-62282414D01*
X101669540Y-62234796D01*
X101675868Y-62229884D01*
X101682535Y-62225430D01*
X101730155Y-62177811D01*
X101734609Y-62171144D01*
X101739521Y-62164816D01*
X101787140Y-62069578D01*
X101787801Y-62067162D01*
X101788613Y-62066351D01*
X101790176Y-62058489D01*
X101792293Y-62050762D01*
X101791930Y-62049673D01*
X101792419Y-62047217D01*
X101792419Y-61809122D01*
X101790855Y-61801260D01*
X101789853Y-61793310D01*
X101742234Y-61650454D01*
X101732573Y-61633505D01*
X101698344Y-61616391D01*
X101662040Y-61628492D01*
X101644926Y-61662721D01*
X101647366Y-61682076D01*
X101692419Y-61817235D01*
X101692419Y-62035413D01*
X101653708Y-62112835D01*
X101617561Y-62148981D01*
X101540139Y-62187693D01*
X101468508Y-62187693D01*
X101391084Y-62148981D01*
X101354939Y-62112837D01*
X101313404Y-62029766D01*
X101267116Y-61844614D01*
X101264776Y-61839661D01*
X101263330Y-61834380D01*
X101215711Y-61739142D01*
X101210799Y-61732813D01*
X101206345Y-61726147D01*
X101158726Y-61678529D01*
X101152064Y-61674077D01*
X101145731Y-61669162D01*
X101050494Y-61621544D01*
X101048078Y-61620882D01*
X101047267Y-61620071D01*
X101039405Y-61618507D01*
X101031678Y-61616391D01*
X101030589Y-61616753D01*
X101028133Y-61616265D01*
X100932895Y-61616265D01*
X100930438Y-61616753D01*
X100929350Y-61616391D01*
X100921622Y-61618507D01*
X100913761Y-61620071D01*
X100912949Y-61620882D01*
X100910534Y-61621544D01*
X100815296Y-61669163D01*
X100808967Y-61674074D01*
X100802301Y-61678529D01*
X100754683Y-61726148D01*
X100750231Y-61732809D01*
X100745316Y-61739143D01*
X100697698Y-61834380D01*
X100697036Y-61836795D01*
X100696225Y-61837607D01*
X100694661Y-61845468D01*
X100692545Y-61853196D01*
X100692907Y-61854284D01*
X100692419Y-61856741D01*
X100581308Y-61856741D01*
X100581308Y-61505154D01*
X101903530Y-61505154D01*
X101903530Y-68873140D01*
G37*
D11*
%TO.P,J3,1,Pin_1*%
%TO.N,Output*%
X108500000Y-53000000D03*
%TD*%
%TO.P,J1,1,Pin_1*%
%TO.N,+5V*%
X117000000Y-42000000D03*
D12*
%TO.P,J1,2,Pin_2*%
%TO.N,+3.3V*%
X117000000Y-44540000D03*
%TO.P,J1,3,Pin_3*%
%TO.N,Enable*%
X117000000Y-47080000D03*
%TO.P,J1,4,Pin_4*%
%TO.N,GND*%
X117000000Y-49620000D03*
%TD*%
D13*
%TO.P,H2,1,1*%
%TO.N,GND*%
X114000000Y-65500000D03*
D14*
X114000000Y-65500000D03*
%TD*%
D11*
%TO.P,J2,1,Pin_1*%
%TO.N,+5V*%
X103000000Y-42000000D03*
D12*
%TO.P,J2,2,Pin_2*%
%TO.N,+3.3V*%
X103000000Y-44540000D03*
%TO.P,J2,3,Pin_3*%
%TO.N,Enable*%
X103000000Y-47080000D03*
%TO.P,J2,4,Pin_4*%
%TO.N,GND*%
X103000000Y-49620000D03*
%TD*%
D13*
%TO.P,H1,1,1*%
%TO.N,GND*%
X106000000Y-65500000D03*
D14*
X106000000Y-65500000D03*
%TD*%
D15*
%TO.P,RV1,1,1*%
%TO.N,+5V*%
X112540000Y-60500000D03*
%TO.P,RV1,2,2*%
%TO.N,Net-(R4-Pad1)*%
X110000000Y-60500000D03*
%TO.P,RV1,3,3*%
%TO.N,unconnected-(RV1-Pad3)*%
X107460000Y-60500000D03*
%TD*%
D16*
%TO.P,Q1,1,C*%
%TO.N,GND*%
X111000000Y-37000000D03*
D17*
%TO.P,Q1,2,E*%
%TO.N,Net-(Q1-E)*%
X108460000Y-37000000D03*
%TO.P,Q1,3,K*%
%TO.N,GND*%
X108460000Y-31500000D03*
%TO.P,Q1,4,A*%
%TO.N,Net-(Q1-A)*%
X111000000Y-31500000D03*
%TD*%
D18*
%TO.P,U2,1,GND*%
%TO.N,GND*%
X113810000Y-42190000D03*
D19*
%TO.P,U2,2,+*%
%TO.N,Net-(Q1-E)*%
X113810000Y-44730000D03*
%TO.P,U2,3,-*%
%TO.N,Net-(U2--)*%
X113810000Y-47270000D03*
%TO.P,U2,4,V-*%
%TO.N,GND*%
X113810000Y-49810000D03*
%TO.P,U2,5,BAL*%
%TO.N,unconnected-(U2-BAL-Pad5)*%
X106190000Y-49810000D03*
%TO.P,U2,6,STRB*%
%TO.N,Enable*%
X106190000Y-47270000D03*
%TO.P,U2,7*%
%TO.N,Output*%
X106190000Y-44730000D03*
%TO.P,U2,8,V+*%
%TO.N,+5V*%
X106190000Y-42190000D03*
%TD*%
D20*
%TO.N,GND*%
X110700000Y-41000000D03*
X103149000Y-52900000D03*
X114000000Y-38500000D03*
X110000000Y-64500000D03*
%TO.N,Enable*%
X107950767Y-47345392D03*
X117082793Y-52082793D03*
%TO.N,+5V*%
X111361668Y-53405235D03*
X115520293Y-56520293D03*
%TO.N,Output*%
X108908000Y-49960000D03*
%TO.N,Net-(R4-Pad1)*%
X104040024Y-56500000D03*
%TD*%
D21*
%TO.N,Enable*%
X112746844Y-51411000D02*
X114131000Y-51411000D01*
X114802793Y-52082793D02*
X117082793Y-52082793D01*
X108200000Y-47594625D02*
X110314625Y-47594625D01*
X114131000Y-51411000D02*
X114802793Y-52082793D01*
X111809000Y-49146844D02*
X111809000Y-50473156D01*
X111809000Y-50473156D02*
X112746844Y-51411000D01*
X107950767Y-47345392D02*
X108200000Y-47594625D01*
X110314625Y-47594625D02*
X111837922Y-49117922D01*
X111837922Y-49117922D02*
X111809000Y-49146844D01*
%TO.N,+5V*%
X112540000Y-54583567D02*
X112540000Y-60500000D01*
X112540000Y-59500586D02*
X112540000Y-60500000D01*
X115520293Y-56520293D02*
X112540000Y-59500586D01*
X111361668Y-53405235D02*
X112540000Y-54583567D01*
%TO.N,Output*%
X108908000Y-52592000D02*
X108500000Y-53000000D01*
X108908000Y-49960000D02*
X108908000Y-52592000D01*
%TO.N,Net-(R4-Pad1)*%
X104040024Y-56500000D02*
X106000000Y-56500000D01*
X106000000Y-56500000D02*
X110000000Y-60500000D01*
%TD*%
%TA.AperFunction,Conductor*%
%TO.N,GND*%
G36*
X116534075Y-49812993D02*
G01*
X116599901Y-49927007D01*
X116692993Y-50020099D01*
X116807007Y-50085925D01*
X116870590Y-50102962D01*
X116238282Y-50735269D01*
X116240753Y-50766663D01*
X116226389Y-50835040D01*
X116190021Y-50876710D01*
X116105281Y-50938277D01*
X115938278Y-51105280D01*
X115938278Y-51105281D01*
X115938276Y-51105283D01*
X115848199Y-51229263D01*
X115846807Y-51231179D01*
X115791477Y-51273844D01*
X115746489Y-51282293D01*
X115185733Y-51282293D01*
X115156292Y-51273648D01*
X115126306Y-51267125D01*
X115121290Y-51263370D01*
X115118694Y-51262608D01*
X115098052Y-51245974D01*
X114926006Y-51073928D01*
X114892521Y-51012605D01*
X114897505Y-50942913D01*
X114939377Y-50886980D01*
X114940802Y-50885928D01*
X115056896Y-50801581D01*
X115201582Y-50656895D01*
X115201582Y-50656894D01*
X115321859Y-50491349D01*
X115414755Y-50309031D01*
X115477988Y-50114421D01*
X115483438Y-50080011D01*
X115513366Y-50016876D01*
X115572677Y-49979943D01*
X115642539Y-49980939D01*
X115700773Y-50019547D01*
X115723843Y-50061087D01*
X115748905Y-50138218D01*
X115845375Y-50327550D01*
X115884728Y-50381716D01*
X116517037Y-49749408D01*
X116534075Y-49812993D01*
G37*
%TD.AperFunction*%
%TA.AperFunction,Conductor*%
G36*
X115642708Y-47443071D02*
G01*
X115700941Y-47481680D01*
X115724011Y-47523219D01*
X115748444Y-47598415D01*
X115844951Y-47787820D01*
X115969890Y-47959786D01*
X116120213Y-48110109D01*
X116292179Y-48235048D01*
X116292181Y-48235049D01*
X116292184Y-48235051D01*
X116301493Y-48239794D01*
X116352290Y-48287766D01*
X116369087Y-48355587D01*
X116346552Y-48421722D01*
X116301505Y-48460760D01*
X116292446Y-48465376D01*
X116292440Y-48465380D01*
X116238282Y-48504727D01*
X116238282Y-48504728D01*
X116870591Y-49137037D01*
X116807007Y-49154075D01*
X116692993Y-49219901D01*
X116599901Y-49312993D01*
X116534075Y-49427007D01*
X116517037Y-49490591D01*
X115884728Y-48858282D01*
X115884727Y-48858282D01*
X115845380Y-48912439D01*
X115748904Y-49101782D01*
X115683242Y-49303869D01*
X115683242Y-49303872D01*
X115675298Y-49354028D01*
X115645369Y-49417163D01*
X115586057Y-49454094D01*
X115516194Y-49453096D01*
X115457962Y-49414486D01*
X115434894Y-49372949D01*
X115414755Y-49310968D01*
X115321859Y-49128650D01*
X115201582Y-48963105D01*
X115201582Y-48963104D01*
X115056895Y-48818417D01*
X114891349Y-48698140D01*
X114798370Y-48650765D01*
X114747574Y-48602790D01*
X114730779Y-48534969D01*
X114753316Y-48468835D01*
X114798370Y-48429795D01*
X114798920Y-48429515D01*
X114891610Y-48382287D01*
X114928360Y-48355587D01*
X115057213Y-48261971D01*
X115057215Y-48261968D01*
X115057219Y-48261966D01*
X115201966Y-48117219D01*
X115201968Y-48117215D01*
X115201971Y-48117213D01*
X115316342Y-47959792D01*
X115322287Y-47951610D01*
X115415220Y-47769219D01*
X115478477Y-47574534D01*
X115483607Y-47542138D01*
X115513534Y-47479007D01*
X115572845Y-47442075D01*
X115642708Y-47443071D01*
G37*
%TD.AperFunction*%
%TA.AperFunction,Conductor*%
G36*
X104448630Y-47450261D02*
G01*
X104500106Y-47497505D01*
X104516392Y-47542140D01*
X104521522Y-47574534D01*
X104584781Y-47769223D01*
X104677715Y-47951613D01*
X104798028Y-48117213D01*
X104942786Y-48261971D01*
X105071640Y-48355587D01*
X105108390Y-48382287D01*
X105199840Y-48428883D01*
X105201080Y-48429515D01*
X105251876Y-48477490D01*
X105268671Y-48545311D01*
X105246134Y-48611446D01*
X105201080Y-48650485D01*
X105108386Y-48697715D01*
X104942786Y-48818028D01*
X104798028Y-48962786D01*
X104677715Y-49128386D01*
X104584779Y-49310780D01*
X104564932Y-49371863D01*
X104525494Y-49429538D01*
X104461135Y-49456735D01*
X104392289Y-49444819D01*
X104340814Y-49397574D01*
X104324528Y-49352940D01*
X104316755Y-49303865D01*
X104251095Y-49101782D01*
X104154624Y-48912449D01*
X104115270Y-48858282D01*
X104115269Y-48858282D01*
X103482962Y-49490590D01*
X103465925Y-49427007D01*
X103400099Y-49312993D01*
X103307007Y-49219901D01*
X103192993Y-49154075D01*
X103129409Y-49137037D01*
X103761716Y-48504728D01*
X103707547Y-48465373D01*
X103707547Y-48465372D01*
X103698500Y-48460763D01*
X103647706Y-48412788D01*
X103630912Y-48344966D01*
X103653451Y-48278832D01*
X103698508Y-48239793D01*
X103707816Y-48235051D01*
X103787007Y-48177515D01*
X103879786Y-48110109D01*
X103879788Y-48110106D01*
X103879792Y-48110104D01*
X104030104Y-47959792D01*
X104030106Y-47959788D01*
X104030109Y-47959786D01*
X104155048Y-47787820D01*
X104155047Y-47787820D01*
X104155051Y-47787816D01*
X104251557Y-47598412D01*
X104275988Y-47523218D01*
X104315425Y-47465544D01*
X104379784Y-47438346D01*
X104448630Y-47450261D01*
G37*
%TD.AperFunction*%
%TA.AperFunction,Conductor*%
G36*
X109682657Y-32369104D02*
G01*
X109702404Y-32367550D01*
X109770781Y-32381914D01*
X109812451Y-32418282D01*
X109855483Y-32477510D01*
X110022490Y-32644517D01*
X110213567Y-32783343D01*
X110312991Y-32834002D01*
X110424003Y-32890566D01*
X110424005Y-32890566D01*
X110424008Y-32890568D01*
X110544412Y-32929689D01*
X110648631Y-32963553D01*
X110801243Y-32987724D01*
X110864378Y-33017653D01*
X110901310Y-33076964D01*
X110900312Y-33146827D01*
X110880222Y-33185684D01*
X110811389Y-33275387D01*
X110696657Y-33474109D01*
X110696650Y-33474123D01*
X110608842Y-33686112D01*
X110549453Y-33907759D01*
X110549451Y-33907770D01*
X110519500Y-34135258D01*
X110519500Y-34364741D01*
X110544446Y-34554215D01*
X110549452Y-34592238D01*
X110549453Y-34592240D01*
X110608842Y-34813887D01*
X110696650Y-35025876D01*
X110696657Y-35025890D01*
X110811392Y-35224617D01*
X110869630Y-35300513D01*
X110894825Y-35365682D01*
X110880787Y-35434127D01*
X110831973Y-35484117D01*
X110771255Y-35500000D01*
X109952155Y-35500000D01*
X109892627Y-35506401D01*
X109892620Y-35506403D01*
X109757913Y-35556645D01*
X109757906Y-35556649D01*
X109642812Y-35642809D01*
X109642809Y-35642812D01*
X109556649Y-35757906D01*
X109552396Y-35765696D01*
X109549184Y-35763942D01*
X109517435Y-35806056D01*
X109451888Y-35830249D01*
X109383666Y-35815165D01*
X109370585Y-35806859D01*
X109246433Y-35716657D01*
X109230634Y-35708607D01*
X109035996Y-35609433D01*
X108811368Y-35536446D01*
X108739003Y-35524985D01*
X108675868Y-35495055D01*
X108638937Y-35435744D01*
X108639935Y-35365881D01*
X108660026Y-35327025D01*
X108738607Y-35224617D01*
X108738606Y-35224617D01*
X108738611Y-35224612D01*
X108853344Y-35025888D01*
X108941158Y-34813887D01*
X109000548Y-34592238D01*
X109030500Y-34364734D01*
X109030500Y-34135266D01*
X109000548Y-33907762D01*
X108941158Y-33686113D01*
X108853344Y-33474112D01*
X108738611Y-33275388D01*
X108659677Y-33172520D01*
X108634484Y-33107353D01*
X108648522Y-33038908D01*
X108697336Y-32988918D01*
X108738658Y-32974561D01*
X108811252Y-32963064D01*
X109035802Y-32890102D01*
X109246163Y-32782918D01*
X109246169Y-32782914D01*
X109329104Y-32722658D01*
X109329105Y-32722658D01*
X108589408Y-31982962D01*
X108652993Y-31965925D01*
X108767007Y-31900099D01*
X108860099Y-31807007D01*
X108925925Y-31692993D01*
X108942962Y-31629409D01*
X109682657Y-32369104D01*
G37*
%TD.AperFunction*%
%TA.AperFunction,Conductor*%
G36*
X119402539Y-26060185D02*
G01*
X119448294Y-26112989D01*
X119459500Y-26164500D01*
X119459500Y-68835500D01*
X119439815Y-68902539D01*
X119387011Y-68948294D01*
X119335500Y-68959500D01*
X101911967Y-68959500D01*
X101844928Y-68939815D01*
X101799173Y-68887011D01*
X101789229Y-68817853D01*
X101801145Y-68791760D01*
X101801145Y-61607538D01*
X100683692Y-61607538D01*
X100664500Y-61607538D01*
X100597461Y-61587853D01*
X100551706Y-61535049D01*
X100540500Y-61483538D01*
X100540500Y-41102135D01*
X101649500Y-41102135D01*
X101649500Y-42897870D01*
X101649501Y-42897876D01*
X101655908Y-42957483D01*
X101706202Y-43092328D01*
X101706206Y-43092335D01*
X101792452Y-43207544D01*
X101792455Y-43207547D01*
X101907664Y-43293793D01*
X101907671Y-43293797D01*
X102039082Y-43342810D01*
X102095016Y-43384681D01*
X102119433Y-43450145D01*
X102104582Y-43518418D01*
X102083431Y-43546673D01*
X101969889Y-43660215D01*
X101844951Y-43832179D01*
X101748444Y-44021585D01*
X101682753Y-44223760D01*
X101659439Y-44370961D01*
X101649500Y-44433713D01*
X101649500Y-44646287D01*
X101682754Y-44856243D01*
X101724011Y-44983219D01*
X101748444Y-45058414D01*
X101844951Y-45247820D01*
X101969890Y-45419786D01*
X102120213Y-45570109D01*
X102292182Y-45695050D01*
X102300946Y-45699516D01*
X102351742Y-45747491D01*
X102368536Y-45815312D01*
X102345998Y-45881447D01*
X102300946Y-45920484D01*
X102292182Y-45924949D01*
X102120213Y-46049890D01*
X101969890Y-46200213D01*
X101844951Y-46372179D01*
X101748444Y-46561585D01*
X101682753Y-46763760D01*
X101659439Y-46910961D01*
X101649500Y-46973713D01*
X101649500Y-47186287D01*
X101682754Y-47396243D01*
X101724011Y-47523219D01*
X101748444Y-47598414D01*
X101844951Y-47787820D01*
X101969890Y-47959786D01*
X102120213Y-48110109D01*
X102292179Y-48235048D01*
X102292181Y-48235049D01*
X102292184Y-48235051D01*
X102301493Y-48239794D01*
X102352290Y-48287766D01*
X102369087Y-48355587D01*
X102346552Y-48421722D01*
X102301505Y-48460760D01*
X102292446Y-48465376D01*
X102292440Y-48465380D01*
X102238282Y-48504727D01*
X102238282Y-48504728D01*
X102870591Y-49137037D01*
X102807007Y-49154075D01*
X102692993Y-49219901D01*
X102599901Y-49312993D01*
X102534075Y-49427007D01*
X102517037Y-49490591D01*
X101884728Y-48858282D01*
X101884727Y-48858282D01*
X101845380Y-48912439D01*
X101748904Y-49101782D01*
X101683242Y-49303869D01*
X101683242Y-49303872D01*
X101650000Y-49513753D01*
X101650000Y-49726246D01*
X101683242Y-49936127D01*
X101683242Y-49936130D01*
X101748904Y-50138217D01*
X101845375Y-50327550D01*
X101884728Y-50381716D01*
X102517037Y-49749408D01*
X102534075Y-49812993D01*
X102599901Y-49927007D01*
X102692993Y-50020099D01*
X102807007Y-50085925D01*
X102870590Y-50102962D01*
X102238282Y-50735269D01*
X102238282Y-50735270D01*
X102292449Y-50774624D01*
X102481782Y-50871095D01*
X102683870Y-50936757D01*
X102893754Y-50970000D01*
X103106246Y-50970000D01*
X103316127Y-50936757D01*
X103316130Y-50936757D01*
X103518217Y-50871095D01*
X103707554Y-50774622D01*
X103761716Y-50735270D01*
X103761717Y-50735270D01*
X103129408Y-50102962D01*
X103192993Y-50085925D01*
X103307007Y-50020099D01*
X103400099Y-49927007D01*
X103465925Y-49812993D01*
X103482962Y-49749409D01*
X104115270Y-50381717D01*
X104115270Y-50381716D01*
X104154622Y-50327554D01*
X104251096Y-50138215D01*
X104275816Y-50062135D01*
X104315253Y-50004459D01*
X104379611Y-49977260D01*
X104448458Y-49989174D01*
X104499934Y-50036418D01*
X104516220Y-50081054D01*
X104521522Y-50114534D01*
X104584781Y-50309223D01*
X104677715Y-50491613D01*
X104798028Y-50657213D01*
X104942786Y-50801971D01*
X105097749Y-50914556D01*
X105108390Y-50922287D01*
X105202032Y-50970000D01*
X105290776Y-51015218D01*
X105290778Y-51015218D01*
X105290781Y-51015220D01*
X105395137Y-51049127D01*
X105485465Y-51078477D01*
X105586557Y-51094488D01*
X105687648Y-51110500D01*
X105687649Y-51110500D01*
X106692351Y-51110500D01*
X106692352Y-51110500D01*
X106894534Y-51078477D01*
X107089219Y-51015220D01*
X107271610Y-50922287D01*
X107437219Y-50801966D01*
X107466489Y-50772694D01*
X107527809Y-50739211D01*
X107597501Y-50744195D01*
X107653435Y-50786065D01*
X107654487Y-50787491D01*
X107719309Y-50876710D01*
X107763483Y-50937510D01*
X107930490Y-51104517D01*
X108056388Y-51195987D01*
X108059726Y-51200316D01*
X108064703Y-51202589D01*
X108080831Y-51227685D01*
X108099051Y-51251313D01*
X108100304Y-51257986D01*
X108102477Y-51261367D01*
X108107500Y-51296302D01*
X108107500Y-51525500D01*
X108087815Y-51592539D01*
X108035011Y-51638294D01*
X107983500Y-51649500D01*
X107602130Y-51649500D01*
X107602123Y-51649501D01*
X107542516Y-51655908D01*
X107407671Y-51706202D01*
X107407664Y-51706206D01*
X107292455Y-51792452D01*
X107292452Y-51792455D01*
X107206206Y-51907664D01*
X107206202Y-51907671D01*
X107155908Y-52042517D01*
X107149501Y-52102116D01*
X107149501Y-52102123D01*
X107149500Y-52102135D01*
X107149500Y-53897870D01*
X107149501Y-53897876D01*
X107155908Y-53957483D01*
X107206202Y-54092328D01*
X107206206Y-54092335D01*
X107292452Y-54207544D01*
X107292455Y-54207547D01*
X107407664Y-54293793D01*
X107407671Y-54293797D01*
X107542517Y-54344091D01*
X107542516Y-54344091D01*
X107549444Y-54344835D01*
X107602127Y-54350500D01*
X109397872Y-54350499D01*
X109457483Y-54344091D01*
X109592331Y-54293796D01*
X109707546Y-54207546D01*
X109793796Y-54092331D01*
X109794063Y-54091612D01*
X109794523Y-54090998D01*
X109798047Y-54084546D01*
X109798974Y-54085052D01*
X109835929Y-54035676D01*
X109901391Y-54011253D01*
X109969665Y-54026098D01*
X110019075Y-54075499D01*
X110020733Y-54078640D01*
X110078323Y-54191666D01*
X110120033Y-54249074D01*
X110217151Y-54382745D01*
X110384158Y-54549752D01*
X110575235Y-54688578D01*
X110674659Y-54739237D01*
X110785671Y-54795801D01*
X110785673Y-54795801D01*
X110785676Y-54795803D01*
X110906080Y-54834924D01*
X111010299Y-54868788D01*
X111243571Y-54905735D01*
X111243576Y-54905735D01*
X111479758Y-54905735D01*
X111479760Y-54905735D01*
X111596104Y-54887307D01*
X111665395Y-54896261D01*
X111718847Y-54941257D01*
X111739487Y-55008008D01*
X111739500Y-55009780D01*
X111739500Y-59523091D01*
X111719815Y-59590130D01*
X111703181Y-59610772D01*
X111609057Y-59704895D01*
X111609057Y-59704896D01*
X111609055Y-59704898D01*
X111595954Y-59722930D01*
X111496135Y-59860318D01*
X111408916Y-60031493D01*
X111387931Y-60096081D01*
X111348494Y-60153756D01*
X111284135Y-60180955D01*
X111215289Y-60169041D01*
X111163813Y-60121797D01*
X111152069Y-60096081D01*
X111131083Y-60031493D01*
X111043864Y-59860318D01*
X110930945Y-59704898D01*
X110795102Y-59569055D01*
X110639681Y-59456135D01*
X110468506Y-59368916D01*
X110285802Y-59309553D01*
X110190928Y-59294526D01*
X110096055Y-59279500D01*
X110096054Y-59279500D01*
X109962940Y-59279500D01*
X109895901Y-59259815D01*
X109875259Y-59243181D01*
X106510292Y-55878213D01*
X106510288Y-55878210D01*
X106379185Y-55790609D01*
X106379172Y-55790602D01*
X106233501Y-55730264D01*
X106233489Y-55730261D01*
X106078845Y-55699500D01*
X106078842Y-55699500D01*
X105376328Y-55699500D01*
X105309289Y-55679815D01*
X105276010Y-55648386D01*
X105184541Y-55522490D01*
X105017534Y-55355483D01*
X104826457Y-55216657D01*
X104616020Y-55109433D01*
X104391392Y-55036446D01*
X104158121Y-54999500D01*
X104158116Y-54999500D01*
X103921932Y-54999500D01*
X103921927Y-54999500D01*
X103688655Y-55036446D01*
X103464027Y-55109433D01*
X103253590Y-55216657D01*
X103144574Y-55295862D01*
X103062514Y-55355483D01*
X103062512Y-55355485D01*
X103062511Y-55355485D01*
X102895509Y-55522487D01*
X102895509Y-55522488D01*
X102895507Y-55522490D01*
X102835886Y-55604550D01*
X102756681Y-55713566D01*
X102649457Y-55924003D01*
X102576470Y-56148631D01*
X102539524Y-56381902D01*
X102539524Y-56618097D01*
X102576470Y-56851368D01*
X102649457Y-57075996D01*
X102752125Y-57277491D01*
X102756681Y-57286433D01*
X102895507Y-57477510D01*
X103062514Y-57644517D01*
X103253591Y-57783343D01*
X103353015Y-57834002D01*
X103464027Y-57890566D01*
X103464029Y-57890566D01*
X103464032Y-57890568D01*
X103584436Y-57929689D01*
X103688655Y-57963553D01*
X103921927Y-58000500D01*
X103921932Y-58000500D01*
X104158121Y-58000500D01*
X104391392Y-57963553D01*
X104616016Y-57890568D01*
X104826457Y-57783343D01*
X105017534Y-57644517D01*
X105184541Y-57477510D01*
X105276010Y-57351613D01*
X105280342Y-57348273D01*
X105282615Y-57343297D01*
X105307714Y-57327166D01*
X105331340Y-57308949D01*
X105338011Y-57307696D01*
X105341393Y-57305523D01*
X105376328Y-57300500D01*
X105617060Y-57300500D01*
X105684099Y-57320185D01*
X105704741Y-57336819D01*
X107436579Y-59068657D01*
X107470064Y-59129980D01*
X107465080Y-59199672D01*
X107423208Y-59255605D01*
X107368296Y-59278811D01*
X107363946Y-59279500D01*
X107363945Y-59279500D01*
X107310305Y-59287995D01*
X107174197Y-59309553D01*
X106991493Y-59368916D01*
X106820318Y-59456135D01*
X106731645Y-59520560D01*
X106664898Y-59569055D01*
X106664896Y-59569057D01*
X106664895Y-59569057D01*
X106529057Y-59704895D01*
X106529057Y-59704896D01*
X106529055Y-59704898D01*
X106515954Y-59722930D01*
X106416135Y-59860318D01*
X106328916Y-60031493D01*
X106269553Y-60214197D01*
X106239500Y-60403945D01*
X106239500Y-60596054D01*
X106269553Y-60785802D01*
X106328916Y-60968506D01*
X106328918Y-60968509D01*
X106416135Y-61139681D01*
X106529055Y-61295102D01*
X106664898Y-61430945D01*
X106820319Y-61543865D01*
X106906650Y-61587853D01*
X106991493Y-61631083D01*
X107082845Y-61660764D01*
X107174199Y-61690447D01*
X107363945Y-61720500D01*
X107363946Y-61720500D01*
X107556054Y-61720500D01*
X107556055Y-61720500D01*
X107745801Y-61690447D01*
X107928509Y-61631082D01*
X108099681Y-61543865D01*
X108255102Y-61430945D01*
X108390945Y-61295102D01*
X108503865Y-61139681D01*
X108591082Y-60968509D01*
X108591084Y-60968504D01*
X108612069Y-60903919D01*
X108651506Y-60846243D01*
X108715864Y-60819044D01*
X108784711Y-60830958D01*
X108836187Y-60878202D01*
X108847931Y-60903919D01*
X108868915Y-60968504D01*
X108868918Y-60968509D01*
X108956135Y-61139681D01*
X109069055Y-61295102D01*
X109204898Y-61430945D01*
X109360319Y-61543865D01*
X109446650Y-61587853D01*
X109531493Y-61631083D01*
X109622845Y-61660764D01*
X109714199Y-61690447D01*
X109903945Y-61720500D01*
X109903946Y-61720500D01*
X110096054Y-61720500D01*
X110096055Y-61720500D01*
X110285801Y-61690447D01*
X110468509Y-61631082D01*
X110639681Y-61543865D01*
X110795102Y-61430945D01*
X110930945Y-61295102D01*
X111043865Y-61139681D01*
X111131082Y-60968509D01*
X111131084Y-60968504D01*
X111152069Y-60903919D01*
X111191506Y-60846243D01*
X111255864Y-60819044D01*
X111324711Y-60830958D01*
X111376187Y-60878202D01*
X111387931Y-60903919D01*
X111408915Y-60968504D01*
X111408918Y-60968509D01*
X111496135Y-61139681D01*
X111609055Y-61295102D01*
X111744898Y-61430945D01*
X111900319Y-61543865D01*
X111986650Y-61587853D01*
X112071493Y-61631083D01*
X112162845Y-61660764D01*
X112254199Y-61690447D01*
X112443945Y-61720500D01*
X112443946Y-61720500D01*
X112636054Y-61720500D01*
X112636055Y-61720500D01*
X112825801Y-61690447D01*
X113008509Y-61631082D01*
X113179681Y-61543865D01*
X113335102Y-61430945D01*
X113470945Y-61295102D01*
X113583865Y-61139681D01*
X113671082Y-60968509D01*
X113730447Y-60785801D01*
X113760500Y-60596055D01*
X113760500Y-60403945D01*
X113730447Y-60214199D01*
X113700424Y-60121797D01*
X113671083Y-60031493D01*
X113583864Y-59860318D01*
X113531855Y-59788733D01*
X113508376Y-59722930D01*
X113524201Y-59654876D01*
X113544489Y-59628173D01*
X115141424Y-58031238D01*
X115202745Y-57997755D01*
X115248496Y-57996448D01*
X115402201Y-58020793D01*
X115402203Y-58020793D01*
X115638390Y-58020793D01*
X115871661Y-57983846D01*
X115934116Y-57963553D01*
X116096285Y-57910861D01*
X116306726Y-57803636D01*
X116497803Y-57664810D01*
X116664810Y-57497803D01*
X116803636Y-57306726D01*
X116910861Y-57096285D01*
X116983846Y-56871661D01*
X116996450Y-56792083D01*
X117020793Y-56638390D01*
X117020793Y-56402195D01*
X116983846Y-56168924D01*
X116910859Y-55944296D01*
X116832551Y-55790609D01*
X116803636Y-55733860D01*
X116664810Y-55542783D01*
X116497803Y-55375776D01*
X116306726Y-55236950D01*
X116266899Y-55216657D01*
X116096289Y-55129726D01*
X115871661Y-55056739D01*
X115638390Y-55019793D01*
X115638385Y-55019793D01*
X115402201Y-55019793D01*
X115402196Y-55019793D01*
X115168924Y-55056739D01*
X114944296Y-55129726D01*
X114733859Y-55236950D01*
X114624843Y-55316155D01*
X114542783Y-55375776D01*
X114542781Y-55375778D01*
X114542780Y-55375778D01*
X114375778Y-55542780D01*
X114375778Y-55542781D01*
X114375776Y-55542783D01*
X114316155Y-55624843D01*
X114236950Y-55733859D01*
X114129726Y-55944296D01*
X114056739Y-56168924D01*
X114019793Y-56402195D01*
X114019793Y-56638390D01*
X114044136Y-56792083D01*
X114035182Y-56861376D01*
X114009344Y-56899162D01*
X113552181Y-57356326D01*
X113490858Y-57389811D01*
X113421167Y-57384827D01*
X113365233Y-57342956D01*
X113340816Y-57277491D01*
X113340500Y-57268645D01*
X113340500Y-54504722D01*
X113340499Y-54504720D01*
X113316237Y-54382747D01*
X113309737Y-54350070D01*
X113309735Y-54350065D01*
X113249397Y-54204394D01*
X113249390Y-54204381D01*
X113161790Y-54073279D01*
X113114609Y-54026098D01*
X113050289Y-53961778D01*
X112872615Y-53784104D01*
X112839130Y-53722781D01*
X112837823Y-53677030D01*
X112862168Y-53523327D01*
X112862168Y-53287143D01*
X112862168Y-53287137D01*
X112825221Y-53053866D01*
X112769798Y-52883293D01*
X112752236Y-52829243D01*
X112752234Y-52829240D01*
X112752234Y-52829238D01*
X112688718Y-52704582D01*
X112645011Y-52618802D01*
X112506185Y-52427725D01*
X112485137Y-52406677D01*
X112451652Y-52345354D01*
X112456636Y-52275662D01*
X112498508Y-52219729D01*
X112563972Y-52195312D01*
X112597009Y-52197379D01*
X112667999Y-52211499D01*
X112668001Y-52211500D01*
X112668002Y-52211500D01*
X112825687Y-52211500D01*
X113748060Y-52211500D01*
X113815099Y-52231185D01*
X113835741Y-52247819D01*
X114292500Y-52704579D01*
X114292504Y-52704582D01*
X114423607Y-52792183D01*
X114423611Y-52792185D01*
X114423614Y-52792187D01*
X114569296Y-52852531D01*
X114723946Y-52883292D01*
X114723950Y-52883293D01*
X114723951Y-52883293D01*
X114881636Y-52883293D01*
X115746489Y-52883293D01*
X115813528Y-52902978D01*
X115846806Y-52934406D01*
X115938276Y-53060303D01*
X116105283Y-53227310D01*
X116296360Y-53366136D01*
X116395784Y-53416795D01*
X116506796Y-53473359D01*
X116506798Y-53473359D01*
X116506801Y-53473361D01*
X116627205Y-53512482D01*
X116731424Y-53546346D01*
X116964696Y-53583293D01*
X116964701Y-53583293D01*
X117200890Y-53583293D01*
X117434161Y-53546346D01*
X117658785Y-53473361D01*
X117869226Y-53366136D01*
X118060303Y-53227310D01*
X118227310Y-53060303D01*
X118366136Y-52869226D01*
X118473361Y-52658785D01*
X118546346Y-52434161D01*
X118571450Y-52275662D01*
X118583293Y-52200890D01*
X118583293Y-51964695D01*
X118546346Y-51731424D01*
X118501219Y-51592539D01*
X118473361Y-51506801D01*
X118473359Y-51506798D01*
X118473359Y-51506796D01*
X118366135Y-51296359D01*
X118366094Y-51296302D01*
X118227310Y-51105283D01*
X118060303Y-50938276D01*
X117869226Y-50799450D01*
X117869225Y-50799449D01*
X117869223Y-50799448D01*
X117798380Y-50763351D01*
X117766995Y-50740548D01*
X117129408Y-50102962D01*
X117192993Y-50085925D01*
X117307007Y-50020099D01*
X117400099Y-49927007D01*
X117465925Y-49812993D01*
X117482962Y-49749409D01*
X118115270Y-50381717D01*
X118115270Y-50381716D01*
X118154622Y-50327554D01*
X118251095Y-50138217D01*
X118316757Y-49936130D01*
X118316757Y-49936127D01*
X118350000Y-49726246D01*
X118350000Y-49513753D01*
X118316757Y-49303872D01*
X118316757Y-49303869D01*
X118251095Y-49101782D01*
X118154624Y-48912449D01*
X118115270Y-48858282D01*
X118115269Y-48858282D01*
X117482962Y-49490590D01*
X117465925Y-49427007D01*
X117400099Y-49312993D01*
X117307007Y-49219901D01*
X117192993Y-49154075D01*
X117129409Y-49137037D01*
X117761716Y-48504728D01*
X117707547Y-48465373D01*
X117707547Y-48465372D01*
X117698500Y-48460763D01*
X117647706Y-48412788D01*
X117630912Y-48344966D01*
X117653451Y-48278832D01*
X117698508Y-48239793D01*
X117707816Y-48235051D01*
X117787007Y-48177515D01*
X117879786Y-48110109D01*
X117879788Y-48110106D01*
X117879792Y-48110104D01*
X118030104Y-47959792D01*
X118030106Y-47959788D01*
X118030109Y-47959786D01*
X118155048Y-47787820D01*
X118155047Y-47787820D01*
X118155051Y-47787816D01*
X118251557Y-47598412D01*
X118317246Y-47396243D01*
X118350500Y-47186287D01*
X118350500Y-46973713D01*
X118317246Y-46763757D01*
X118251557Y-46561588D01*
X118155051Y-46372184D01*
X118155049Y-46372181D01*
X118155048Y-46372179D01*
X118030109Y-46200213D01*
X117879786Y-46049890D01*
X117707820Y-45924951D01*
X117707115Y-45924591D01*
X117699054Y-45920485D01*
X117648259Y-45872512D01*
X117631463Y-45804692D01*
X117653999Y-45738556D01*
X117699054Y-45699515D01*
X117707816Y-45695051D01*
X117738595Y-45672689D01*
X117879786Y-45570109D01*
X117879788Y-45570106D01*
X117879792Y-45570104D01*
X118030104Y-45419792D01*
X118030106Y-45419788D01*
X118030109Y-45419786D01*
X118155048Y-45247820D01*
X118155047Y-45247820D01*
X118155051Y-45247816D01*
X118251557Y-45058412D01*
X118317246Y-44856243D01*
X118350500Y-44646287D01*
X118350500Y-44433713D01*
X118317246Y-44223757D01*
X118251557Y-44021588D01*
X118155051Y-43832184D01*
X118155049Y-43832181D01*
X118155048Y-43832179D01*
X118030109Y-43660213D01*
X117916569Y-43546673D01*
X117883084Y-43485350D01*
X117888068Y-43415658D01*
X117929940Y-43359725D01*
X117960915Y-43342810D01*
X118092331Y-43293796D01*
X118207546Y-43207546D01*
X118293796Y-43092331D01*
X118344091Y-42957483D01*
X118350500Y-42897873D01*
X118350499Y-41102128D01*
X118344091Y-41042517D01*
X118311688Y-40955641D01*
X118293797Y-40907671D01*
X118293793Y-40907664D01*
X118207547Y-40792455D01*
X118207544Y-40792452D01*
X118092335Y-40706206D01*
X118092328Y-40706202D01*
X117957482Y-40655908D01*
X117957483Y-40655908D01*
X117897883Y-40649501D01*
X117897881Y-40649500D01*
X117897873Y-40649500D01*
X117897864Y-40649500D01*
X116102129Y-40649500D01*
X116102123Y-40649501D01*
X116042516Y-40655908D01*
X115907671Y-40706202D01*
X115907664Y-40706206D01*
X115792455Y-40792452D01*
X115792452Y-40792455D01*
X115706206Y-40907664D01*
X115706202Y-40907671D01*
X115655908Y-41042517D01*
X115649501Y-41102116D01*
X115649501Y-41102123D01*
X115649500Y-41102135D01*
X115649500Y-41216228D01*
X115629815Y-41283267D01*
X115577011Y-41329022D01*
X115507853Y-41338966D01*
X115444297Y-41309941D01*
X115419961Y-41281325D01*
X115352315Y-41171654D01*
X115228345Y-41047684D01*
X115079124Y-40955643D01*
X115079119Y-40955641D01*
X114912697Y-40900494D01*
X114912690Y-40900493D01*
X114809986Y-40890000D01*
X114060000Y-40890000D01*
X114060000Y-41874314D01*
X114055606Y-41869920D01*
X113964394Y-41817259D01*
X113862661Y-41790000D01*
X113757339Y-41790000D01*
X113655606Y-41817259D01*
X113564394Y-41869920D01*
X113560000Y-41874314D01*
X113560000Y-40890000D01*
X112810028Y-40890000D01*
X112810012Y-40890001D01*
X112707302Y-40900494D01*
X112540880Y-40955641D01*
X112540875Y-40955643D01*
X112391654Y-41047684D01*
X112267684Y-41171654D01*
X112175643Y-41320875D01*
X112175641Y-41320880D01*
X112120494Y-41487302D01*
X112120493Y-41487309D01*
X112110000Y-41590013D01*
X112110000Y-41940000D01*
X113494314Y-41940000D01*
X113489920Y-41944394D01*
X113437259Y-42035606D01*
X113410000Y-42137339D01*
X113410000Y-42242661D01*
X113437259Y-42344394D01*
X113489920Y-42435606D01*
X113494314Y-42440000D01*
X112110001Y-42440000D01*
X112110001Y-42789986D01*
X112120494Y-42892697D01*
X112175641Y-43059119D01*
X112175643Y-43059124D01*
X112267684Y-43208345D01*
X112391654Y-43332315D01*
X112540875Y-43424356D01*
X112540882Y-43424359D01*
X112623067Y-43451592D01*
X112680512Y-43491364D01*
X112707336Y-43555880D01*
X112695021Y-43624656D01*
X112656949Y-43669616D01*
X112562787Y-43738028D01*
X112562782Y-43738032D01*
X112418028Y-43882786D01*
X112297715Y-44048386D01*
X112204781Y-44230776D01*
X112141522Y-44425465D01*
X112109500Y-44627648D01*
X112109500Y-44832351D01*
X112141522Y-45034534D01*
X112204781Y-45229223D01*
X112297715Y-45411613D01*
X112418028Y-45577213D01*
X112562786Y-45721971D01*
X112709335Y-45828443D01*
X112728390Y-45842287D01*
X112787710Y-45872512D01*
X112821080Y-45889515D01*
X112871876Y-45937490D01*
X112888671Y-46005311D01*
X112866134Y-46071446D01*
X112821080Y-46110485D01*
X112728386Y-46157715D01*
X112562786Y-46278028D01*
X112418028Y-46422786D01*
X112297715Y-46588386D01*
X112204781Y-46770776D01*
X112141522Y-46965465D01*
X112109500Y-47167648D01*
X112109500Y-47372351D01*
X112141522Y-47574534D01*
X112204781Y-47769223D01*
X112297715Y-47951613D01*
X112418028Y-48117213D01*
X112562786Y-48261971D01*
X112728385Y-48382284D01*
X112728387Y-48382285D01*
X112728390Y-48382287D01*
X112821080Y-48429515D01*
X112821630Y-48429795D01*
X112828508Y-48436291D01*
X112837443Y-48439402D01*
X112853498Y-48459894D01*
X112872426Y-48477770D01*
X112874700Y-48486952D01*
X112880535Y-48494400D01*
X112882963Y-48520321D01*
X112889221Y-48545591D01*
X112886169Y-48554545D01*
X112887052Y-48563966D01*
X112875081Y-48587083D01*
X112866684Y-48611725D01*
X112858419Y-48619260D01*
X112854924Y-48626011D01*
X112833745Y-48641757D01*
X112827142Y-48647778D01*
X112681572Y-48731475D01*
X112653773Y-48738166D01*
X112626841Y-48747775D01*
X112620236Y-48746238D01*
X112613643Y-48747826D01*
X112586638Y-48738425D01*
X112558788Y-48731948D01*
X112553235Y-48726797D01*
X112547657Y-48724855D01*
X112538380Y-48713016D01*
X112516663Y-48692868D01*
X112459711Y-48607633D01*
X112459709Y-48607630D01*
X112343892Y-48491813D01*
X112343869Y-48491792D01*
X110824917Y-46972838D01*
X110824913Y-46972835D01*
X110693810Y-46885234D01*
X110693797Y-46885227D01*
X110548126Y-46824889D01*
X110548114Y-46824886D01*
X110393470Y-46794125D01*
X110393467Y-46794125D01*
X109429920Y-46794125D01*
X109362881Y-46774440D01*
X109319436Y-46726421D01*
X109234110Y-46558959D01*
X109095284Y-46367882D01*
X108928277Y-46200875D01*
X108737200Y-46062049D01*
X108526763Y-45954825D01*
X108302135Y-45881838D01*
X108068864Y-45844892D01*
X108068859Y-45844892D01*
X107832675Y-45844892D01*
X107832670Y-45844892D01*
X107594587Y-45882601D01*
X107594256Y-45880512D01*
X107533292Y-45877437D01*
X107476491Y-45836750D01*
X107450704Y-45771813D01*
X107464118Y-45703244D01*
X107486488Y-45672696D01*
X107581966Y-45577219D01*
X107702287Y-45411610D01*
X107795220Y-45229219D01*
X107858477Y-45034534D01*
X107890500Y-44832352D01*
X107890500Y-44627648D01*
X107858477Y-44425466D01*
X107838431Y-44363772D01*
X107814726Y-44290814D01*
X107795220Y-44230781D01*
X107795218Y-44230778D01*
X107795218Y-44230776D01*
X107761503Y-44164607D01*
X107702287Y-44048390D01*
X107694556Y-44037749D01*
X107581971Y-43882786D01*
X107437213Y-43738028D01*
X107271614Y-43617715D01*
X107264884Y-43614286D01*
X107178917Y-43570483D01*
X107128123Y-43522511D01*
X107111328Y-43454690D01*
X107133865Y-43388555D01*
X107178917Y-43349516D01*
X107271610Y-43302287D01*
X107292770Y-43286913D01*
X107437213Y-43181971D01*
X107437215Y-43181968D01*
X107437219Y-43181966D01*
X107581966Y-43037219D01*
X107581968Y-43037215D01*
X107581971Y-43037213D01*
X107640144Y-42957143D01*
X107702287Y-42871610D01*
X107795220Y-42689219D01*
X107858477Y-42494534D01*
X107890500Y-42292352D01*
X107890500Y-42087648D01*
X107882257Y-42035606D01*
X107858477Y-41885465D01*
X107809728Y-41735432D01*
X107795220Y-41690781D01*
X107795217Y-41690777D01*
X107795217Y-41690774D01*
X107770956Y-41643160D01*
X107770955Y-41643159D01*
X107702284Y-41508385D01*
X107581971Y-41342786D01*
X107437213Y-41198028D01*
X107271613Y-41077715D01*
X107271612Y-41077714D01*
X107271610Y-41077713D01*
X107202532Y-41042516D01*
X107089223Y-40984781D01*
X106894534Y-40921522D01*
X106719995Y-40893878D01*
X106692352Y-40889500D01*
X105687648Y-40889500D01*
X105663329Y-40893351D01*
X105485465Y-40921522D01*
X105290776Y-40984781D01*
X105108386Y-41077715D01*
X104942786Y-41198028D01*
X104798028Y-41342786D01*
X104677715Y-41508386D01*
X104584984Y-41690379D01*
X104537009Y-41741175D01*
X104469188Y-41757970D01*
X104403053Y-41735432D01*
X104359602Y-41680717D01*
X104350499Y-41634084D01*
X104350499Y-41102129D01*
X104350498Y-41102123D01*
X104350497Y-41102116D01*
X104344091Y-41042517D01*
X104311688Y-40955641D01*
X104293797Y-40907671D01*
X104293793Y-40907664D01*
X104207547Y-40792455D01*
X104207544Y-40792452D01*
X104092335Y-40706206D01*
X104092328Y-40706202D01*
X103957482Y-40655908D01*
X103957483Y-40655908D01*
X103897883Y-40649501D01*
X103897881Y-40649500D01*
X103897873Y-40649500D01*
X103897864Y-40649500D01*
X102102129Y-40649500D01*
X102102123Y-40649501D01*
X102042516Y-40655908D01*
X101907671Y-40706202D01*
X101907664Y-40706206D01*
X101792455Y-40792452D01*
X101792452Y-40792455D01*
X101706206Y-40907664D01*
X101706202Y-40907671D01*
X101655908Y-41042517D01*
X101649501Y-41102116D01*
X101649501Y-41102123D01*
X101649500Y-41102135D01*
X100540500Y-41102135D01*
X100540500Y-34135258D01*
X105529500Y-34135258D01*
X105529500Y-34364741D01*
X105554446Y-34554215D01*
X105559452Y-34592238D01*
X105559453Y-34592240D01*
X105618842Y-34813887D01*
X105706650Y-35025876D01*
X105706657Y-35025890D01*
X105821392Y-35224617D01*
X105961081Y-35406661D01*
X105961089Y-35406670D01*
X106123330Y-35568911D01*
X106123338Y-35568918D01*
X106305382Y-35708607D01*
X106305385Y-35708608D01*
X106305388Y-35708611D01*
X106504112Y-35823344D01*
X106504117Y-35823346D01*
X106504123Y-35823349D01*
X106581702Y-35855483D01*
X106716113Y-35911158D01*
X106937762Y-35970548D01*
X107110309Y-35993264D01*
X107174205Y-36021530D01*
X107212676Y-36079855D01*
X107213507Y-36149720D01*
X107194442Y-36189088D01*
X107176656Y-36213567D01*
X107069433Y-36424003D01*
X106996446Y-36648631D01*
X106959500Y-36881902D01*
X106959500Y-37118097D01*
X106996446Y-37351368D01*
X107069433Y-37575996D01*
X107155040Y-37744007D01*
X107167936Y-37812676D01*
X107141660Y-37877417D01*
X107084553Y-37917674D01*
X107068747Y-37921919D01*
X106988170Y-37937947D01*
X106988160Y-37937950D01*
X106806092Y-38013364D01*
X106806079Y-38013371D01*
X106642218Y-38122860D01*
X106642214Y-38122863D01*
X106502863Y-38262214D01*
X106502860Y-38262218D01*
X106393371Y-38426079D01*
X106393364Y-38426092D01*
X106317950Y-38608160D01*
X106317947Y-38608170D01*
X106279500Y-38801456D01*
X106279500Y-38801459D01*
X106279500Y-38998541D01*
X106279500Y-38998543D01*
X106279499Y-38998543D01*
X106317947Y-39191829D01*
X106317950Y-39191839D01*
X106393364Y-39373907D01*
X106393371Y-39373920D01*
X106502860Y-39537781D01*
X106502863Y-39537785D01*
X106642214Y-39677136D01*
X106642218Y-39677139D01*
X106806079Y-39786628D01*
X106806092Y-39786635D01*
X106988160Y-39862049D01*
X106988165Y-39862051D01*
X106988169Y-39862051D01*
X106988170Y-39862052D01*
X107181456Y-39900500D01*
X107181459Y-39900500D01*
X107378543Y-39900500D01*
X107508582Y-39874632D01*
X107571835Y-39862051D01*
X107753914Y-39786632D01*
X107917782Y-39677139D01*
X108057139Y-39537782D01*
X108166632Y-39373914D01*
X108242051Y-39191835D01*
X108280500Y-38998541D01*
X108280500Y-38801459D01*
X108280500Y-38801456D01*
X108280499Y-38801454D01*
X108250113Y-38648691D01*
X108256340Y-38579100D01*
X108299203Y-38523922D01*
X108365093Y-38500678D01*
X108371730Y-38500500D01*
X108578097Y-38500500D01*
X108811368Y-38463553D01*
X109035992Y-38390568D01*
X109246433Y-38283343D01*
X109370579Y-38193145D01*
X109436383Y-38169665D01*
X109504437Y-38185490D01*
X109552057Y-38234489D01*
X109552396Y-38234304D01*
X109553061Y-38235522D01*
X109553132Y-38235595D01*
X109553276Y-38235916D01*
X109556649Y-38242093D01*
X109642809Y-38357187D01*
X109642812Y-38357190D01*
X109757906Y-38443350D01*
X109757913Y-38443354D01*
X109892620Y-38493596D01*
X109892627Y-38493598D01*
X109952155Y-38499999D01*
X109952172Y-38500000D01*
X110750000Y-38500000D01*
X110750000Y-37433012D01*
X110807007Y-37465925D01*
X110934174Y-37500000D01*
X111065826Y-37500000D01*
X111192993Y-37465925D01*
X111250000Y-37433012D01*
X111250000Y-38500000D01*
X112047828Y-38500000D01*
X112047844Y-38499999D01*
X112107372Y-38493598D01*
X112107379Y-38493596D01*
X112242086Y-38443354D01*
X112242093Y-38443350D01*
X112357187Y-38357190D01*
X112357190Y-38357187D01*
X112443350Y-38242093D01*
X112443354Y-38242086D01*
X112493596Y-38107379D01*
X112493598Y-38107372D01*
X112499999Y-38047844D01*
X112500000Y-38047827D01*
X112500000Y-37250000D01*
X111433012Y-37250000D01*
X111465925Y-37192993D01*
X111500000Y-37065826D01*
X111500000Y-36934174D01*
X111465925Y-36807007D01*
X111433012Y-36750000D01*
X112500000Y-36750000D01*
X112500000Y-36094069D01*
X112519685Y-36027030D01*
X112572489Y-35981275D01*
X112607814Y-35971130D01*
X112612238Y-35970548D01*
X112833887Y-35911158D01*
X113045888Y-35823344D01*
X113244612Y-35708611D01*
X113426661Y-35568919D01*
X113426665Y-35568914D01*
X113426670Y-35568911D01*
X113588911Y-35406670D01*
X113588914Y-35406665D01*
X113588919Y-35406661D01*
X113728611Y-35224612D01*
X113843344Y-35025888D01*
X113931158Y-34813887D01*
X113990548Y-34592238D01*
X114020500Y-34364734D01*
X114020500Y-34135266D01*
X113990548Y-33907762D01*
X113931158Y-33686113D01*
X113843344Y-33474112D01*
X113728611Y-33275388D01*
X113728608Y-33275385D01*
X113728607Y-33275382D01*
X113588918Y-33093338D01*
X113588911Y-33093330D01*
X113426670Y-32931089D01*
X113426661Y-32931081D01*
X113244617Y-32791392D01*
X113045890Y-32676657D01*
X113045876Y-32676650D01*
X112833887Y-32588842D01*
X112612238Y-32529452D01*
X112574215Y-32524446D01*
X112384741Y-32499500D01*
X112384734Y-32499500D01*
X112371905Y-32499500D01*
X112304866Y-32479815D01*
X112259111Y-32427011D01*
X112249167Y-32357853D01*
X112271586Y-32302615D01*
X112283343Y-32286433D01*
X112390568Y-32075992D01*
X112463553Y-31851368D01*
X112488637Y-31692993D01*
X112500500Y-31618097D01*
X112500500Y-31381902D01*
X112463553Y-31148631D01*
X112390566Y-30924003D01*
X112283342Y-30713566D01*
X112223277Y-30630894D01*
X112144517Y-30522490D01*
X111977510Y-30355483D01*
X111786433Y-30216657D01*
X111575996Y-30109433D01*
X111351368Y-30036446D01*
X111118097Y-29999500D01*
X111118092Y-29999500D01*
X110881908Y-29999500D01*
X110881903Y-29999500D01*
X110648631Y-30036446D01*
X110424003Y-30109433D01*
X110213566Y-30216657D01*
X110130047Y-30277338D01*
X110022490Y-30355483D01*
X110022488Y-30355485D01*
X110022487Y-30355485D01*
X109855482Y-30522490D01*
X109812451Y-30581717D01*
X109757120Y-30624382D01*
X109702405Y-30632448D01*
X109682658Y-30630893D01*
X108942962Y-31370590D01*
X108925925Y-31307007D01*
X108860099Y-31192993D01*
X108767007Y-31099901D01*
X108652993Y-31034075D01*
X108589409Y-31017037D01*
X109329105Y-30277340D01*
X109329104Y-30277338D01*
X109246174Y-30217087D01*
X109035802Y-30109897D01*
X108811247Y-30036934D01*
X108811248Y-30036934D01*
X108578052Y-30000000D01*
X108341948Y-30000000D01*
X108108752Y-30036934D01*
X107884197Y-30109897D01*
X107673830Y-30217084D01*
X107590894Y-30277340D01*
X108330591Y-31017037D01*
X108267007Y-31034075D01*
X108152993Y-31099901D01*
X108059901Y-31192993D01*
X107994075Y-31307007D01*
X107977037Y-31370591D01*
X107237340Y-30630894D01*
X107177084Y-30713830D01*
X107069897Y-30924197D01*
X106996934Y-31148752D01*
X106960000Y-31381947D01*
X106960000Y-31618052D01*
X106996934Y-31851247D01*
X107069897Y-32075802D01*
X107177087Y-32286175D01*
X107195005Y-32310837D01*
X107218485Y-32376644D01*
X107202659Y-32444697D01*
X107152553Y-32493392D01*
X107110873Y-32506661D01*
X106997496Y-32521587D01*
X106937762Y-32529452D01*
X106844076Y-32554554D01*
X106716112Y-32588842D01*
X106504123Y-32676650D01*
X106504109Y-32676657D01*
X106305382Y-32791392D01*
X106123338Y-32931081D01*
X105961081Y-33093338D01*
X105821392Y-33275382D01*
X105706657Y-33474109D01*
X105706650Y-33474123D01*
X105618842Y-33686112D01*
X105559453Y-33907759D01*
X105559451Y-33907770D01*
X105529500Y-34135258D01*
X100540500Y-34135258D01*
X100540500Y-26164500D01*
X100560185Y-26097461D01*
X100612989Y-26051706D01*
X100664500Y-26040500D01*
X119335500Y-26040500D01*
X119402539Y-26060185D01*
G37*
%TD.AperFunction*%
%TD*%
M02*
