%TF.GenerationSoftware,KiCad,Pcbnew,9.0.4*%
%TF.CreationDate,2026-03-10T17:46:50+00:00*%
%TF.ProjectId,LiDAR Distance Measurement V1,4c694441-5220-4446-9973-74616e636520,rev?*%
%TF.SameCoordinates,Original*%
%TF.FileFunction,Legend,Top*%
%TF.FilePolarity,Positive*%
%FSLAX46Y46*%
G04 Gerber Fmt 4.6, Leading zero omitted, Abs format (unit mm)*
G04 Created by KiCad (PCBNEW 9.0.4) date 2026-03-10 17:46:50*
%MOMM*%
%LPD*%
G01*
G04 APERTURE LIST*
%ADD10C,0.150000*%
%ADD11C,0.254000*%
%ADD12C,0.120000*%
%ADD13C,0.200000*%
%ADD14C,0.100000*%
G04 APERTURE END LIST*
D10*
X57345333Y-36018889D02*
X57297714Y-36066509D01*
X57297714Y-36066509D02*
X57154857Y-36114128D01*
X57154857Y-36114128D02*
X57059619Y-36114128D01*
X57059619Y-36114128D02*
X56916762Y-36066509D01*
X56916762Y-36066509D02*
X56821524Y-35971270D01*
X56821524Y-35971270D02*
X56773905Y-35876032D01*
X56773905Y-35876032D02*
X56726286Y-35685556D01*
X56726286Y-35685556D02*
X56726286Y-35542699D01*
X56726286Y-35542699D02*
X56773905Y-35352223D01*
X56773905Y-35352223D02*
X56821524Y-35256985D01*
X56821524Y-35256985D02*
X56916762Y-35161747D01*
X56916762Y-35161747D02*
X57059619Y-35114128D01*
X57059619Y-35114128D02*
X57154857Y-35114128D01*
X57154857Y-35114128D02*
X57297714Y-35161747D01*
X57297714Y-35161747D02*
X57345333Y-35209366D01*
X58297714Y-36114128D02*
X57726286Y-36114128D01*
X58012000Y-36114128D02*
X58012000Y-35114128D01*
X58012000Y-35114128D02*
X57916762Y-35256985D01*
X57916762Y-35256985D02*
X57821524Y-35352223D01*
X57821524Y-35352223D02*
X57726286Y-35399842D01*
X46833333Y-23554819D02*
X46500000Y-23078628D01*
X46261905Y-23554819D02*
X46261905Y-22554819D01*
X46261905Y-22554819D02*
X46642857Y-22554819D01*
X46642857Y-22554819D02*
X46738095Y-22602438D01*
X46738095Y-22602438D02*
X46785714Y-22650057D01*
X46785714Y-22650057D02*
X46833333Y-22745295D01*
X46833333Y-22745295D02*
X46833333Y-22888152D01*
X46833333Y-22888152D02*
X46785714Y-22983390D01*
X46785714Y-22983390D02*
X46738095Y-23031009D01*
X46738095Y-23031009D02*
X46642857Y-23078628D01*
X46642857Y-23078628D02*
X46261905Y-23078628D01*
X47166667Y-22554819D02*
X47785714Y-22554819D01*
X47785714Y-22554819D02*
X47452381Y-22935771D01*
X47452381Y-22935771D02*
X47595238Y-22935771D01*
X47595238Y-22935771D02*
X47690476Y-22983390D01*
X47690476Y-22983390D02*
X47738095Y-23031009D01*
X47738095Y-23031009D02*
X47785714Y-23126247D01*
X47785714Y-23126247D02*
X47785714Y-23364342D01*
X47785714Y-23364342D02*
X47738095Y-23459580D01*
X47738095Y-23459580D02*
X47690476Y-23507200D01*
X47690476Y-23507200D02*
X47595238Y-23554819D01*
X47595238Y-23554819D02*
X47309524Y-23554819D01*
X47309524Y-23554819D02*
X47214286Y-23507200D01*
X47214286Y-23507200D02*
X47166667Y-23459580D01*
X63238095Y-31204819D02*
X63238095Y-30204819D01*
X63238095Y-30681009D02*
X63809523Y-30681009D01*
X63809523Y-31204819D02*
X63809523Y-30204819D01*
X64238095Y-30300057D02*
X64285714Y-30252438D01*
X64285714Y-30252438D02*
X64380952Y-30204819D01*
X64380952Y-30204819D02*
X64619047Y-30204819D01*
X64619047Y-30204819D02*
X64714285Y-30252438D01*
X64714285Y-30252438D02*
X64761904Y-30300057D01*
X64761904Y-30300057D02*
X64809523Y-30395295D01*
X64809523Y-30395295D02*
X64809523Y-30490533D01*
X64809523Y-30490533D02*
X64761904Y-30633390D01*
X64761904Y-30633390D02*
X64190476Y-31204819D01*
X64190476Y-31204819D02*
X64809523Y-31204819D01*
X51345333Y-36018889D02*
X51297714Y-36066509D01*
X51297714Y-36066509D02*
X51154857Y-36114128D01*
X51154857Y-36114128D02*
X51059619Y-36114128D01*
X51059619Y-36114128D02*
X50916762Y-36066509D01*
X50916762Y-36066509D02*
X50821524Y-35971270D01*
X50821524Y-35971270D02*
X50773905Y-35876032D01*
X50773905Y-35876032D02*
X50726286Y-35685556D01*
X50726286Y-35685556D02*
X50726286Y-35542699D01*
X50726286Y-35542699D02*
X50773905Y-35352223D01*
X50773905Y-35352223D02*
X50821524Y-35256985D01*
X50821524Y-35256985D02*
X50916762Y-35161747D01*
X50916762Y-35161747D02*
X51059619Y-35114128D01*
X51059619Y-35114128D02*
X51154857Y-35114128D01*
X51154857Y-35114128D02*
X51297714Y-35161747D01*
X51297714Y-35161747D02*
X51345333Y-35209366D01*
X51726286Y-35209366D02*
X51773905Y-35161747D01*
X51773905Y-35161747D02*
X51869143Y-35114128D01*
X51869143Y-35114128D02*
X52107238Y-35114128D01*
X52107238Y-35114128D02*
X52202476Y-35161747D01*
X52202476Y-35161747D02*
X52250095Y-35209366D01*
X52250095Y-35209366D02*
X52297714Y-35304604D01*
X52297714Y-35304604D02*
X52297714Y-35399842D01*
X52297714Y-35399842D02*
X52250095Y-35542699D01*
X52250095Y-35542699D02*
X51678667Y-36114128D01*
X51678667Y-36114128D02*
X52297714Y-36114128D01*
X56832975Y-30018889D02*
X56785356Y-30066509D01*
X56785356Y-30066509D02*
X56642499Y-30114128D01*
X56642499Y-30114128D02*
X56547261Y-30114128D01*
X56547261Y-30114128D02*
X56404404Y-30066509D01*
X56404404Y-30066509D02*
X56309166Y-29971270D01*
X56309166Y-29971270D02*
X56261547Y-29876032D01*
X56261547Y-29876032D02*
X56213928Y-29685556D01*
X56213928Y-29685556D02*
X56213928Y-29542699D01*
X56213928Y-29542699D02*
X56261547Y-29352223D01*
X56261547Y-29352223D02*
X56309166Y-29256985D01*
X56309166Y-29256985D02*
X56404404Y-29161747D01*
X56404404Y-29161747D02*
X56547261Y-29114128D01*
X56547261Y-29114128D02*
X56642499Y-29114128D01*
X56642499Y-29114128D02*
X56785356Y-29161747D01*
X56785356Y-29161747D02*
X56832975Y-29209366D01*
X57166309Y-29114128D02*
X57785356Y-29114128D01*
X57785356Y-29114128D02*
X57452023Y-29495080D01*
X57452023Y-29495080D02*
X57594880Y-29495080D01*
X57594880Y-29495080D02*
X57690118Y-29542699D01*
X57690118Y-29542699D02*
X57737737Y-29590318D01*
X57737737Y-29590318D02*
X57785356Y-29685556D01*
X57785356Y-29685556D02*
X57785356Y-29923651D01*
X57785356Y-29923651D02*
X57737737Y-30018889D01*
X57737737Y-30018889D02*
X57690118Y-30066509D01*
X57690118Y-30066509D02*
X57594880Y-30114128D01*
X57594880Y-30114128D02*
X57309166Y-30114128D01*
X57309166Y-30114128D02*
X57213928Y-30066509D01*
X57213928Y-30066509D02*
X57166309Y-30018889D01*
D11*
X54032022Y-30521627D02*
X54032022Y-31549722D01*
X54032022Y-31549722D02*
X54092499Y-31670674D01*
X54092499Y-31670674D02*
X54152975Y-31731151D01*
X54152975Y-31731151D02*
X54273927Y-31791627D01*
X54273927Y-31791627D02*
X54515832Y-31791627D01*
X54515832Y-31791627D02*
X54636784Y-31731151D01*
X54636784Y-31731151D02*
X54697261Y-31670674D01*
X54697261Y-31670674D02*
X54757737Y-31549722D01*
X54757737Y-31549722D02*
X54757737Y-30521627D01*
X56027737Y-31791627D02*
X55302022Y-31791627D01*
X55664879Y-31791627D02*
X55664879Y-30521627D01*
X55664879Y-30521627D02*
X55543927Y-30703055D01*
X55543927Y-30703055D02*
X55422975Y-30824008D01*
X55422975Y-30824008D02*
X55302022Y-30884484D01*
D10*
X59583333Y-28104819D02*
X59250000Y-27628628D01*
X59011905Y-28104819D02*
X59011905Y-27104819D01*
X59011905Y-27104819D02*
X59392857Y-27104819D01*
X59392857Y-27104819D02*
X59488095Y-27152438D01*
X59488095Y-27152438D02*
X59535714Y-27200057D01*
X59535714Y-27200057D02*
X59583333Y-27295295D01*
X59583333Y-27295295D02*
X59583333Y-27438152D01*
X59583333Y-27438152D02*
X59535714Y-27533390D01*
X59535714Y-27533390D02*
X59488095Y-27581009D01*
X59488095Y-27581009D02*
X59392857Y-27628628D01*
X59392857Y-27628628D02*
X59011905Y-27628628D01*
X60535714Y-28104819D02*
X59964286Y-28104819D01*
X60250000Y-28104819D02*
X60250000Y-27104819D01*
X60250000Y-27104819D02*
X60154762Y-27247676D01*
X60154762Y-27247676D02*
X60059524Y-27342914D01*
X60059524Y-27342914D02*
X59964286Y-27390533D01*
X46833333Y-21554819D02*
X46500000Y-21078628D01*
X46261905Y-21554819D02*
X46261905Y-20554819D01*
X46261905Y-20554819D02*
X46642857Y-20554819D01*
X46642857Y-20554819D02*
X46738095Y-20602438D01*
X46738095Y-20602438D02*
X46785714Y-20650057D01*
X46785714Y-20650057D02*
X46833333Y-20745295D01*
X46833333Y-20745295D02*
X46833333Y-20888152D01*
X46833333Y-20888152D02*
X46785714Y-20983390D01*
X46785714Y-20983390D02*
X46738095Y-21031009D01*
X46738095Y-21031009D02*
X46642857Y-21078628D01*
X46642857Y-21078628D02*
X46261905Y-21078628D01*
X47214286Y-20650057D02*
X47261905Y-20602438D01*
X47261905Y-20602438D02*
X47357143Y-20554819D01*
X47357143Y-20554819D02*
X47595238Y-20554819D01*
X47595238Y-20554819D02*
X47690476Y-20602438D01*
X47690476Y-20602438D02*
X47738095Y-20650057D01*
X47738095Y-20650057D02*
X47785714Y-20745295D01*
X47785714Y-20745295D02*
X47785714Y-20840533D01*
X47785714Y-20840533D02*
X47738095Y-20983390D01*
X47738095Y-20983390D02*
X47166667Y-21554819D01*
X47166667Y-21554819D02*
X47785714Y-21554819D01*
X45238095Y-31204819D02*
X45238095Y-30204819D01*
X45238095Y-30681009D02*
X45809523Y-30681009D01*
X45809523Y-31204819D02*
X45809523Y-30204819D01*
X46809523Y-31204819D02*
X46238095Y-31204819D01*
X46523809Y-31204819D02*
X46523809Y-30204819D01*
X46523809Y-30204819D02*
X46428571Y-30347676D01*
X46428571Y-30347676D02*
X46333333Y-30442914D01*
X46333333Y-30442914D02*
X46238095Y-30490533D01*
D12*
%TO.C,C1*%
X57652580Y-33719309D02*
X57371420Y-33719309D01*
X57652580Y-34739309D02*
X57371420Y-34739309D01*
%TO.C,R3*%
X46772936Y-24015000D02*
X47227064Y-24015000D01*
X46772936Y-25485000D02*
X47227064Y-25485000D01*
%TO.C,C2*%
X51652580Y-33719309D02*
X51371420Y-33719309D01*
X51652580Y-34739309D02*
X51371420Y-34739309D01*
%TO.C,C3*%
X57140222Y-27719309D02*
X56859062Y-27719309D01*
X57140222Y-28739309D02*
X56859062Y-28739309D01*
D13*
%TO.C,U1*%
X53199642Y-31417309D02*
X53199642Y-31017309D01*
D14*
X56499642Y-29517309D02*
X56499642Y-29517309D01*
X56499642Y-29617309D02*
X56499642Y-29617309D01*
D13*
X56799642Y-31017309D02*
X56799642Y-31417309D01*
D14*
X56499642Y-29517309D02*
G75*
G02*
X56499642Y-29617309I0J-50000D01*
G01*
X56499642Y-29617309D02*
G75*
G02*
X56499642Y-29517309I0J50000D01*
G01*
D12*
%TO.C,R1*%
X59977064Y-25265000D02*
X59522936Y-25265000D01*
X59977064Y-26735000D02*
X59522936Y-26735000D01*
%TO.C,R2*%
X46772936Y-22015000D02*
X47227064Y-22015000D01*
X46772936Y-23485000D02*
X47227064Y-23485000D01*
%TD*%
M02*
