%TF.GenerationSoftware,KiCad,Pcbnew,9.0.4*%
%TF.CreationDate,2026-03-10T17:46:49+00:00*%
%TF.ProjectId,LiDAR Distance Measurement V1,4c694441-5220-4446-9973-74616e636520,rev?*%
%TF.SameCoordinates,Original*%
%TF.FileFunction,Copper,L1,Top*%
%TF.FilePolarity,Positive*%
%FSLAX46Y46*%
G04 Gerber Fmt 4.6, Leading zero omitted, Abs format (unit mm)*
G04 Created by KiCad (PCBNEW 9.0.4) date 2026-03-10 17:46:49*
%MOMM*%
%LPD*%
G01*
G04 APERTURE LIST*
G04 Aperture macros list*
%AMRoundRect*
0 Rectangle with rounded corners*
0 $1 Rounding radius*
0 $2 $3 $4 $5 $6 $7 $8 $9 X,Y pos of 4 corners*
0 Add a 4 corners polygon primitive as box body*
4,1,4,$2,$3,$4,$5,$6,$7,$8,$9,$2,$3,0*
0 Add four circle primitives for the rounded corners*
1,1,$1+$1,$2,$3*
1,1,$1+$1,$4,$5*
1,1,$1+$1,$6,$7*
1,1,$1+$1,$8,$9*
0 Add four rect primitives between the rounded corners*
20,1,$1+$1,$2,$3,$4,$5,0*
20,1,$1+$1,$4,$5,$6,$7,0*
20,1,$1+$1,$6,$7,$8,$9,0*
20,1,$1+$1,$8,$9,$2,$3,0*%
G04 Aperture macros list end*
%ADD10C,0.250000*%
%ADD11C,0.300000*%
%TA.AperFunction,SMDPad,CuDef*%
%ADD12RoundRect,0.225000X0.225000X0.250000X-0.225000X0.250000X-0.225000X-0.250000X0.225000X-0.250000X0*%
%TD*%
%TA.AperFunction,SMDPad,CuDef*%
%ADD13RoundRect,0.250000X-0.350000X-0.450000X0.350000X-0.450000X0.350000X0.450000X-0.350000X0.450000X0*%
%TD*%
%TA.AperFunction,ComponentPad*%
%ADD14C,3.600000*%
%TD*%
%TA.AperFunction,ConnectorPad*%
%ADD15C,5.600000*%
%TD*%
%TA.AperFunction,SMDPad,CuDef*%
%ADD16R,0.350000X0.575000*%
%TD*%
%TA.AperFunction,SMDPad,CuDef*%
%ADD17RoundRect,0.250000X0.350000X0.450000X-0.350000X0.450000X-0.350000X-0.450000X0.350000X-0.450000X0*%
%TD*%
%TA.AperFunction,ComponentPad*%
%ADD18R,1.700000X1.700000*%
%TD*%
%TA.AperFunction,ComponentPad*%
%ADD19C,1.700000*%
%TD*%
%TA.AperFunction,ViaPad*%
%ADD20C,1.800000*%
%TD*%
%TA.AperFunction,Conductor*%
%ADD21C,0.350000*%
%TD*%
G04 APERTURE END LIST*
D10*
G36*
X59830722Y-30587058D02*
G01*
X58950605Y-30587058D01*
X58950605Y-30122614D01*
X59172827Y-30122614D01*
X59172827Y-30171387D01*
X59191492Y-30216447D01*
X59191496Y-30216451D01*
X59207037Y-30235388D01*
X59302275Y-30330626D01*
X59321211Y-30346166D01*
X59321217Y-30346172D01*
X59353078Y-30359369D01*
X59366276Y-30364836D01*
X59366277Y-30364836D01*
X59415049Y-30364836D01*
X59415050Y-30364836D01*
X59428247Y-30359369D01*
X59460109Y-30346172D01*
X59460114Y-30346166D01*
X59479051Y-30330626D01*
X59574289Y-30235388D01*
X59589829Y-30216451D01*
X59589834Y-30216447D01*
X59608499Y-30171388D01*
X59608500Y-30122614D01*
X59589835Y-30077554D01*
X59574290Y-30058612D01*
X59479052Y-29963373D01*
X59460110Y-29947828D01*
X59460109Y-29947827D01*
X59415049Y-29929162D01*
X59366276Y-29929163D01*
X59347612Y-29936894D01*
X59321217Y-29947827D01*
X59321216Y-29947828D01*
X59302274Y-29963373D01*
X59207036Y-30058612D01*
X59191491Y-30077554D01*
X59178293Y-30109415D01*
X59173410Y-30121207D01*
X59172827Y-30122614D01*
X58950605Y-30122614D01*
X58950605Y-29706940D01*
X59830722Y-29706940D01*
X59830722Y-30587058D01*
G37*
D11*
G36*
X64508174Y-25570645D02*
G01*
X64616606Y-25679077D01*
X64732742Y-25911348D01*
X64732742Y-26269100D01*
X64616606Y-26501370D01*
X64508173Y-26609804D01*
X64275904Y-26725939D01*
X63489581Y-26725939D01*
X63257311Y-26609804D01*
X63148878Y-26501371D01*
X63032742Y-26269099D01*
X63032742Y-25911349D01*
X63148877Y-25679078D01*
X63257311Y-25570645D01*
X63489581Y-25454510D01*
X64275904Y-25454510D01*
X64508174Y-25570645D01*
G37*
G36*
X66366075Y-30070676D02*
G01*
X62399409Y-30070676D01*
X62399409Y-28132389D01*
X62735624Y-28132389D01*
X62735624Y-28190917D01*
X62758022Y-28244989D01*
X62799406Y-28286373D01*
X62853478Y-28308771D01*
X62882742Y-28311653D01*
X64304171Y-28311653D01*
X64304171Y-29161653D01*
X64307053Y-29190917D01*
X64329451Y-29244989D01*
X64370835Y-29286373D01*
X64424907Y-29308771D01*
X64483435Y-29308771D01*
X64537507Y-29286373D01*
X64578891Y-29244989D01*
X64601289Y-29190917D01*
X64604171Y-29161653D01*
X64604171Y-28311653D01*
X65732742Y-28311653D01*
X65732742Y-29590225D01*
X65735624Y-29619489D01*
X65758022Y-29673561D01*
X65799406Y-29714945D01*
X65853478Y-29737343D01*
X65912006Y-29737343D01*
X65966078Y-29714945D01*
X66007462Y-29673561D01*
X66029860Y-29619489D01*
X66032742Y-29590225D01*
X66032742Y-28161653D01*
X66029860Y-28132389D01*
X66007462Y-28078317D01*
X65966078Y-28036933D01*
X65912006Y-28014535D01*
X65882742Y-28011653D01*
X62882742Y-28011653D01*
X62853478Y-28014535D01*
X62799406Y-28036933D01*
X62758022Y-28078317D01*
X62735624Y-28132389D01*
X62399409Y-28132389D01*
X62399409Y-25875939D01*
X62732742Y-25875939D01*
X62732742Y-26304510D01*
X62735624Y-26333774D01*
X62737687Y-26338754D01*
X62738069Y-26344129D01*
X62748578Y-26371592D01*
X62891436Y-26657306D01*
X62899363Y-26669899D01*
X62900879Y-26673559D01*
X62904260Y-26677678D01*
X62907101Y-26682192D01*
X62910094Y-26684788D01*
X62919534Y-26696290D01*
X63062391Y-26839148D01*
X63073893Y-26848588D01*
X63076489Y-26851581D01*
X63080998Y-26854419D01*
X63085121Y-26857803D01*
X63088783Y-26859319D01*
X63101375Y-26867246D01*
X63387089Y-27010103D01*
X63414552Y-27020613D01*
X63419929Y-27020995D01*
X63424907Y-27023057D01*
X63454171Y-27025939D01*
X64311314Y-27025939D01*
X64340578Y-27023057D01*
X64345555Y-27020995D01*
X64350933Y-27020613D01*
X64378396Y-27010103D01*
X64664110Y-26867246D01*
X64676701Y-26859319D01*
X64680364Y-26857803D01*
X64684486Y-26854419D01*
X64688996Y-26851581D01*
X64691591Y-26848588D01*
X64703094Y-26839148D01*
X64845951Y-26696290D01*
X64855390Y-26684788D01*
X64858384Y-26682192D01*
X64861224Y-26677678D01*
X64864606Y-26673559D01*
X64866121Y-26669899D01*
X64874049Y-26657306D01*
X65016906Y-26371592D01*
X65027416Y-26344129D01*
X65027798Y-26338751D01*
X65029860Y-26333774D01*
X65032742Y-26304510D01*
X65032742Y-25875939D01*
X65029860Y-25846675D01*
X65027797Y-25841696D01*
X65027416Y-25836321D01*
X65016906Y-25808857D01*
X64874049Y-25523142D01*
X64866122Y-25510550D01*
X64864606Y-25506888D01*
X64861222Y-25502765D01*
X64858384Y-25498256D01*
X64855391Y-25495660D01*
X64845951Y-25484158D01*
X64703094Y-25341301D01*
X64691592Y-25331861D01*
X64688996Y-25328868D01*
X64684482Y-25326027D01*
X64680363Y-25322646D01*
X64676703Y-25321130D01*
X64664110Y-25313203D01*
X64378396Y-25170346D01*
X64350933Y-25159836D01*
X64345555Y-25159453D01*
X64340578Y-25157392D01*
X64311314Y-25154510D01*
X63454171Y-25154510D01*
X63424907Y-25157392D01*
X63419929Y-25159453D01*
X63414552Y-25159836D01*
X63387089Y-25170346D01*
X63101375Y-25313203D01*
X63088783Y-25321129D01*
X63085121Y-25322646D01*
X63080998Y-25326029D01*
X63076489Y-25328868D01*
X63073893Y-25331860D01*
X63062391Y-25341301D01*
X62919534Y-25484158D01*
X62910094Y-25495659D01*
X62907101Y-25498256D01*
X62904260Y-25502769D01*
X62900879Y-25506889D01*
X62899363Y-25510548D01*
X62891436Y-25523142D01*
X62748578Y-25808857D01*
X62738068Y-25836320D01*
X62737685Y-25841697D01*
X62735624Y-25846675D01*
X62732742Y-25875939D01*
X62399409Y-25875939D01*
X62399409Y-23560961D01*
X62735624Y-23560961D01*
X62735624Y-23619489D01*
X62758022Y-23673561D01*
X62799406Y-23714945D01*
X62853478Y-23737343D01*
X62882742Y-23740225D01*
X65732742Y-23740225D01*
X65732742Y-24447368D01*
X65735624Y-24476632D01*
X65758022Y-24530704D01*
X65799406Y-24572088D01*
X65853478Y-24594486D01*
X65912006Y-24594486D01*
X65966078Y-24572088D01*
X66007462Y-24530704D01*
X66029860Y-24476632D01*
X66032742Y-24447368D01*
X66032742Y-22733082D01*
X66029860Y-22703818D01*
X66007462Y-22649746D01*
X65966078Y-22608362D01*
X65912006Y-22585964D01*
X65853478Y-22585964D01*
X65799406Y-22608362D01*
X65758022Y-22649746D01*
X65735624Y-22703818D01*
X65732742Y-22733082D01*
X65732742Y-23440225D01*
X62882742Y-23440225D01*
X62853478Y-23443107D01*
X62799406Y-23465505D01*
X62758022Y-23506889D01*
X62735624Y-23560961D01*
X62399409Y-23560961D01*
X62399409Y-22252631D01*
X66366075Y-22252631D01*
X66366075Y-30070676D01*
G37*
D12*
%TO.P,C1,1*%
%TO.N,+3V3*%
X58287000Y-34229309D03*
%TO.P,C1,2*%
%TO.N,GND*%
X56737000Y-34229309D03*
%TD*%
D13*
%TO.P,R3,1*%
%TO.N,+3V3*%
X46000000Y-24750000D03*
%TO.P,R3,2*%
%TO.N,I2C_DATA*%
X48000000Y-24750000D03*
%TD*%
D14*
%TO.P,H2,1,1*%
%TO.N,GND*%
X64000000Y-34500000D03*
D15*
X64000000Y-34500000D03*
%TD*%
D12*
%TO.P,C2,1*%
%TO.N,GND*%
X52287000Y-34229309D03*
%TO.P,C2,2*%
%TO.N,+3V3*%
X50737000Y-34229309D03*
%TD*%
%TO.P,C3,1*%
%TO.N,+3V3*%
X57774642Y-28229309D03*
%TO.P,C3,2*%
%TO.N,GND*%
X56224642Y-28229309D03*
%TD*%
D16*
%TO.P,U1,1,VDDC*%
%TO.N,+3V3*%
X56499642Y-30479309D03*
%TO.P,U1,2,GNDC*%
%TO.N,GND*%
X55899642Y-30479309D03*
%TO.P,U1,3,GPIO0*%
%TO.N,+3V3*%
X55299642Y-30479309D03*
%TO.P,U1,4,INT*%
%TO.N,GND*%
X54699642Y-30479309D03*
%TO.P,U1,5,SCL*%
%TO.N,I2C_CLK*%
X54099642Y-30479309D03*
%TO.P,U1,6,SDA*%
%TO.N,I2C_DATA*%
X53499642Y-30479309D03*
%TO.P,U1,7,VDD*%
%TO.N,+3V3*%
X53499642Y-31955309D03*
%TO.P,U1,8,GND*%
%TO.N,GND*%
X54099642Y-31955309D03*
%TO.P,U1,9,EN*%
%TO.N,EN_ToF*%
X54699642Y-31955309D03*
%TO.P,U1,10,GPIO1*%
%TO.N,GND*%
X55299642Y-31955309D03*
%TO.P,U1,11,GNDV*%
X55899642Y-31955309D03*
%TO.P,U1,12,VDDV*%
%TO.N,+3V3*%
X56499642Y-31955309D03*
%TD*%
D17*
%TO.P,R1,1*%
%TO.N,+3V3*%
X60750000Y-26000000D03*
%TO.P,R1,2*%
%TO.N,EN_ToF*%
X58750000Y-26000000D03*
%TD*%
D13*
%TO.P,R2,1*%
%TO.N,+3V3*%
X46000000Y-22750000D03*
%TO.P,R2,2*%
%TO.N,I2C_CLK*%
X48000000Y-22750000D03*
%TD*%
D14*
%TO.P,H1,1,1*%
%TO.N,GND*%
X46000000Y-34500000D03*
D15*
X46000000Y-34500000D03*
%TD*%
D18*
%TO.P,J1,1,Pin_1*%
%TO.N,+3V3*%
X61030000Y-23540000D03*
D19*
%TO.P,J1,2,Pin_2*%
%TO.N,EN_ToF*%
X58490000Y-23540000D03*
%TO.P,J1,3,Pin_3*%
%TO.N,GND*%
X55950000Y-23540000D03*
%TO.P,J1,4,Pin_4*%
%TO.N,I2C_CLK*%
X53410000Y-23540000D03*
%TO.P,J1,5,Pin_5*%
%TO.N,I2C_DATA*%
X50870000Y-23540000D03*
%TD*%
D20*
%TO.N,GND*%
X56262000Y-36250000D03*
X55750719Y-26103309D03*
X51000000Y-27250000D03*
%TO.N,EN_ToF*%
X60250000Y-28000000D03*
X54512000Y-34275000D03*
%TD*%
D21*
%TO.N,GND*%
X54699642Y-30479309D02*
X54699642Y-27154386D01*
X54673642Y-31142809D02*
X54699642Y-31116809D01*
X55299642Y-32791951D02*
X55899642Y-33391951D01*
X54699642Y-30479309D02*
X54699642Y-31116809D01*
X54699642Y-31116809D02*
X54874642Y-31291809D01*
X55899642Y-30479309D02*
X55899642Y-31955309D01*
X54297642Y-31142809D02*
X54673642Y-31142809D01*
X55899642Y-30479309D02*
X55899642Y-28554309D01*
X55899642Y-31955309D02*
X55899642Y-33391951D01*
X52287000Y-34229309D02*
X54099642Y-32416667D01*
X54699642Y-27154386D02*
X55750719Y-26103309D01*
X55273642Y-31291809D02*
X55299642Y-31317809D01*
X54099642Y-32416667D02*
X54099642Y-31955309D01*
X54099642Y-31955309D02*
X54099642Y-31340809D01*
X55299642Y-31955309D02*
X55299642Y-32791951D01*
X54874642Y-31291809D02*
X55273642Y-31291809D01*
X55899642Y-28554309D02*
X56224642Y-28229309D01*
X54099642Y-31340809D02*
X54297642Y-31142809D01*
X55899642Y-33391951D02*
X56737000Y-34229309D01*
X55299642Y-31317809D02*
X55299642Y-31955309D01*
%TO.N,EN_ToF*%
X60250000Y-28000000D02*
X60250000Y-27500000D01*
X54699642Y-34087358D02*
X54512000Y-34275000D01*
X58750000Y-23800000D02*
X58490000Y-23540000D01*
X54699642Y-31955309D02*
X54699642Y-34087358D01*
X60250000Y-27500000D02*
X58750000Y-26000000D01*
X58750000Y-26000000D02*
X58750000Y-23800000D01*
%TO.N,I2C_CLK*%
X54099642Y-30479309D02*
X54099642Y-27154179D01*
X53410000Y-26464537D02*
X53410000Y-23540000D01*
X53410000Y-23540000D02*
X52184000Y-22314000D01*
X52184000Y-22314000D02*
X48436000Y-22314000D01*
X54099642Y-27154179D02*
X53410000Y-26464537D01*
X48436000Y-22314000D02*
X48000000Y-22750000D01*
%TO.N,+3V3*%
X57012000Y-37525000D02*
X51762000Y-37525000D01*
X58821333Y-29276000D02*
X58287000Y-28741667D01*
X50737000Y-34229309D02*
X50737000Y-29487000D01*
X53499642Y-31955309D02*
X53011000Y-31955309D01*
X53011000Y-31955309D02*
X50737000Y-34229309D01*
X55744466Y-27378309D02*
X55299642Y-27823133D01*
X56499642Y-32441951D02*
X58287000Y-34229309D01*
X61526000Y-28528537D02*
X60778537Y-29276000D01*
X46000000Y-22750000D02*
X46000000Y-24750000D01*
X58287000Y-36250000D02*
X57012000Y-37525000D01*
X60778537Y-29276000D02*
X58821333Y-29276000D01*
X58287000Y-34229309D02*
X58287000Y-36250000D01*
X56499642Y-29504309D02*
X57774642Y-28229309D01*
X50737000Y-29487000D02*
X46000000Y-24750000D01*
X58287000Y-34229309D02*
X58287000Y-28741667D01*
X61526000Y-26776000D02*
X61526000Y-28528537D01*
X58287000Y-28741667D02*
X57774642Y-28229309D01*
X57774642Y-28229309D02*
X56923642Y-27378309D01*
X50737000Y-36500000D02*
X50737000Y-34229309D01*
X56499642Y-31955309D02*
X56499642Y-32441951D01*
X55299642Y-27823133D02*
X55299642Y-30479309D01*
X60750000Y-26000000D02*
X60750000Y-23820000D01*
X51762000Y-37525000D02*
X50737000Y-36500000D01*
X56499642Y-30479309D02*
X56499642Y-29504309D01*
X60750000Y-23820000D02*
X61030000Y-23540000D01*
X60750000Y-26000000D02*
X61526000Y-26776000D01*
X56923642Y-27378309D02*
X55744466Y-27378309D01*
%TO.N,I2C_DATA*%
X52859000Y-25609000D02*
X52859000Y-26692769D01*
X50870000Y-23540000D02*
X50870000Y-23620000D01*
X50870000Y-23540000D02*
X49210000Y-23540000D01*
X52859000Y-26692769D02*
X53499642Y-27333411D01*
X50870000Y-23620000D02*
X52859000Y-25609000D01*
X53499642Y-27333411D02*
X53499642Y-30479309D01*
X49210000Y-23540000D02*
X48000000Y-24750000D01*
%TD*%
%TA.AperFunction,Conductor*%
%TO.N,GND*%
G36*
X52496191Y-34248216D02*
G01*
X52532155Y-34297716D01*
X52537000Y-34328309D01*
X52537000Y-35204307D01*
X52537001Y-35204308D01*
X52560322Y-35204308D01*
X52659597Y-35194166D01*
X52659609Y-35194163D01*
X52820487Y-35140854D01*
X52964729Y-35051883D01*
X53084574Y-34932038D01*
X53173545Y-34787796D01*
X53226856Y-34626912D01*
X53236999Y-34527634D01*
X53236999Y-34517785D01*
X53255902Y-34459593D01*
X53305399Y-34423625D01*
X53366584Y-34423620D01*
X53416087Y-34459580D01*
X53433780Y-34502288D01*
X53438598Y-34532704D01*
X53438598Y-34532706D01*
X53492123Y-34697438D01*
X53492125Y-34697441D01*
X53546702Y-34804557D01*
X53570768Y-34851788D01*
X53672586Y-34991928D01*
X53795072Y-35114414D01*
X53935212Y-35216232D01*
X54089555Y-35294873D01*
X54089557Y-35294873D01*
X54089558Y-35294874D01*
X54089561Y-35294876D01*
X54254293Y-35348401D01*
X54254297Y-35348402D01*
X54425386Y-35375500D01*
X54425389Y-35375500D01*
X54598614Y-35375500D01*
X54769702Y-35348402D01*
X54769706Y-35348401D01*
X54934438Y-35294876D01*
X54934440Y-35294874D01*
X54934445Y-35294873D01*
X55088788Y-35216232D01*
X55228928Y-35114414D01*
X55351414Y-34991928D01*
X55453232Y-34851788D01*
X55531873Y-34697445D01*
X55531874Y-34697440D01*
X55531876Y-34697438D01*
X55585400Y-34532708D01*
X55585401Y-34532704D01*
X55585402Y-34532701D01*
X55590219Y-34502283D01*
X55617994Y-34447770D01*
X55672510Y-34419990D01*
X55732942Y-34429560D01*
X55776208Y-34472823D01*
X55787000Y-34517763D01*
X55787000Y-34527631D01*
X55797142Y-34626906D01*
X55797145Y-34626918D01*
X55850454Y-34787796D01*
X55939425Y-34932038D01*
X56059270Y-35051883D01*
X56203512Y-35140854D01*
X56364396Y-35194165D01*
X56463676Y-35204308D01*
X56487000Y-35204307D01*
X56487000Y-34328309D01*
X56505907Y-34270118D01*
X56555407Y-34234154D01*
X56586000Y-34229309D01*
X56888000Y-34229309D01*
X56946191Y-34248216D01*
X56982155Y-34297716D01*
X56987000Y-34328309D01*
X56987000Y-35204307D01*
X56987001Y-35204308D01*
X57010322Y-35204308D01*
X57109597Y-35194166D01*
X57109609Y-35194163D01*
X57270487Y-35140854D01*
X57414729Y-35051883D01*
X57534571Y-34932041D01*
X57613205Y-34804557D01*
X57659847Y-34764956D01*
X57720857Y-34760333D01*
X57755990Y-34776681D01*
X57762108Y-34781165D01*
X57808780Y-34827837D01*
X57864572Y-34856264D01*
X57871024Y-34860993D01*
X57884454Y-34879640D01*
X57900709Y-34895895D01*
X57902983Y-34905369D01*
X57906781Y-34910642D01*
X57906737Y-34921006D01*
X57911500Y-34940842D01*
X57911500Y-36053455D01*
X57892593Y-36111646D01*
X57882504Y-36123459D01*
X56885459Y-37120504D01*
X56830942Y-37148281D01*
X56815455Y-37149500D01*
X51958545Y-37149500D01*
X51900354Y-37130593D01*
X51888541Y-37120504D01*
X51141496Y-36373459D01*
X51113719Y-36318942D01*
X51112500Y-36303455D01*
X51112500Y-34940842D01*
X51131407Y-34882651D01*
X51152976Y-34860993D01*
X51159427Y-34856264D01*
X51215220Y-34827837D01*
X51261894Y-34781162D01*
X51268009Y-34776681D01*
X51290212Y-34769364D01*
X51311045Y-34758749D01*
X51318730Y-34759966D01*
X51326120Y-34757531D01*
X51348385Y-34764662D01*
X51371477Y-34768320D01*
X51377694Y-34774050D01*
X51384389Y-34776195D01*
X51393482Y-34788602D01*
X51410793Y-34804557D01*
X51489426Y-34932038D01*
X51489426Y-34932039D01*
X51609270Y-35051883D01*
X51753512Y-35140854D01*
X51914396Y-35194165D01*
X52013676Y-35204308D01*
X52037000Y-35204307D01*
X52037000Y-34328309D01*
X52055907Y-34270118D01*
X52105407Y-34234154D01*
X52136000Y-34229309D01*
X52438000Y-34229309D01*
X52496191Y-34248216D01*
G37*
%TD.AperFunction*%
%TA.AperFunction,Conductor*%
G36*
X49847909Y-23923809D02*
G01*
X49874061Y-23930088D01*
X49876683Y-23933158D01*
X49880525Y-23934407D01*
X49913798Y-23976614D01*
X49939058Y-24037597D01*
X49972147Y-24087118D01*
X50054023Y-24209655D01*
X50200345Y-24355977D01*
X50372402Y-24470941D01*
X50563580Y-24550130D01*
X50766535Y-24590500D01*
X50766536Y-24590500D01*
X50973464Y-24590500D01*
X50973465Y-24590500D01*
X51176420Y-24550130D01*
X51180830Y-24548302D01*
X51241826Y-24543499D01*
X51288724Y-24569761D01*
X52454504Y-25735541D01*
X52482281Y-25790058D01*
X52483500Y-25805545D01*
X52483500Y-26742204D01*
X52509090Y-26837707D01*
X52509091Y-26837709D01*
X52545343Y-26900498D01*
X52545343Y-26900501D01*
X52558524Y-26923329D01*
X52558526Y-26923332D01*
X53095147Y-27459953D01*
X53122923Y-27514468D01*
X53124142Y-27529955D01*
X53124142Y-30786555D01*
X53124143Y-30786567D01*
X53135774Y-30845036D01*
X53135775Y-30845040D01*
X53180090Y-30911361D01*
X53246411Y-30955676D01*
X53290873Y-30964520D01*
X53304883Y-30967307D01*
X53304888Y-30967307D01*
X53304894Y-30967309D01*
X53304895Y-30967309D01*
X53694389Y-30967309D01*
X53694390Y-30967309D01*
X53752873Y-30955676D01*
X53752878Y-30955672D01*
X53761755Y-30951996D01*
X53822752Y-30947195D01*
X53837529Y-30951996D01*
X53846407Y-30955673D01*
X53846411Y-30955676D01*
X53904894Y-30967309D01*
X53904895Y-30967309D01*
X54000600Y-30967309D01*
X54058791Y-30986216D01*
X54079853Y-31006980D01*
X54121647Y-31062809D01*
X54175642Y-31062809D01*
X54233833Y-31081716D01*
X54269797Y-31131216D01*
X54274642Y-31161809D01*
X54274642Y-31780308D01*
X54295146Y-31800812D01*
X54298772Y-31807929D01*
X54305235Y-31812625D01*
X54312398Y-31834673D01*
X54322923Y-31855329D01*
X54324142Y-31870816D01*
X54324142Y-32039802D01*
X54305235Y-32097993D01*
X54295146Y-32109806D01*
X54274642Y-32130310D01*
X54274642Y-32742808D01*
X54295146Y-32763312D01*
X54322923Y-32817829D01*
X54324142Y-32833316D01*
X54324142Y-33106977D01*
X54305235Y-33165168D01*
X54255735Y-33201132D01*
X54254302Y-33201597D01*
X54254299Y-33201598D01*
X54150262Y-33235402D01*
X54089554Y-33255127D01*
X53935214Y-33333766D01*
X53795073Y-33435585D01*
X53672585Y-33558073D01*
X53570766Y-33698214D01*
X53492125Y-33852558D01*
X53492123Y-33852561D01*
X53438598Y-34017293D01*
X53438598Y-34017296D01*
X53433780Y-34047715D01*
X53406002Y-34102231D01*
X53351485Y-34130008D01*
X53291053Y-34120436D01*
X53247789Y-34077171D01*
X53236999Y-34032227D01*
X53236999Y-33930986D01*
X53226857Y-33831711D01*
X53226854Y-33831699D01*
X53173545Y-33670821D01*
X53084574Y-33526579D01*
X52964729Y-33406734D01*
X52820487Y-33317763D01*
X52659603Y-33264452D01*
X52560323Y-33254309D01*
X52482043Y-33254309D01*
X52423852Y-33235402D01*
X52387888Y-33185902D01*
X52387888Y-33124716D01*
X52412036Y-33085308D01*
X53080616Y-32416728D01*
X53135131Y-32388953D01*
X53195563Y-32398524D01*
X53205614Y-32404416D01*
X53246411Y-32431676D01*
X53290873Y-32440520D01*
X53304883Y-32443307D01*
X53304888Y-32443307D01*
X53304894Y-32443309D01*
X53304895Y-32443309D01*
X53400599Y-32443309D01*
X53458790Y-32462216D01*
X53479852Y-32482980D01*
X53567449Y-32599993D01*
X53567457Y-32600001D01*
X53682551Y-32686161D01*
X53682553Y-32686162D01*
X53817260Y-32736405D01*
X53817271Y-32736407D01*
X53876818Y-32742809D01*
X53924641Y-32742809D01*
X53924642Y-32742808D01*
X53924642Y-31167810D01*
X53924641Y-31167809D01*
X53876818Y-31167809D01*
X53817271Y-31174210D01*
X53817260Y-31174212D01*
X53682553Y-31224455D01*
X53682551Y-31224456D01*
X53567457Y-31310616D01*
X53567449Y-31310624D01*
X53479852Y-31427638D01*
X53429843Y-31462891D01*
X53400599Y-31467309D01*
X53304894Y-31467309D01*
X53304893Y-31467309D01*
X53304883Y-31467310D01*
X53246414Y-31478941D01*
X53246408Y-31478943D01*
X53180093Y-31523254D01*
X53180090Y-31523257D01*
X53171701Y-31535811D01*
X53123653Y-31573690D01*
X53089387Y-31579809D01*
X53060436Y-31579809D01*
X52961564Y-31579809D01*
X52897896Y-31596868D01*
X52866062Y-31605398D01*
X52780437Y-31654834D01*
X51281504Y-33153767D01*
X51226987Y-33181544D01*
X51166555Y-33171973D01*
X51123290Y-33128708D01*
X51112500Y-33083763D01*
X51112500Y-29437568D01*
X51112500Y-29437565D01*
X51108045Y-29420937D01*
X51086911Y-29342063D01*
X51037475Y-29256437D01*
X47600542Y-25819504D01*
X47572765Y-25764987D01*
X47582336Y-25704555D01*
X47625601Y-25661290D01*
X47670546Y-25650500D01*
X48404273Y-25650500D01*
X48404273Y-25650499D01*
X48434699Y-25647646D01*
X48562882Y-25602793D01*
X48672150Y-25522150D01*
X48752793Y-25412882D01*
X48797646Y-25284699D01*
X48800499Y-25254273D01*
X48800500Y-25254273D01*
X48800500Y-24521545D01*
X48819407Y-24463354D01*
X48829496Y-24451541D01*
X49336541Y-23944496D01*
X49391058Y-23916719D01*
X49406545Y-23915500D01*
X49822334Y-23915500D01*
X49847909Y-23923809D01*
G37*
%TD.AperFunction*%
%TA.AperFunction,Conductor*%
G36*
X55805282Y-29178672D02*
G01*
X55852038Y-29194165D01*
X55951318Y-29204308D01*
X56067783Y-29204308D01*
X56125974Y-29223215D01*
X56161938Y-29272715D01*
X56161939Y-29333900D01*
X56153521Y-29352807D01*
X56149733Y-29359367D01*
X56149732Y-29359371D01*
X56133236Y-29420937D01*
X56124142Y-29454875D01*
X56124142Y-29601302D01*
X56105235Y-29659493D01*
X56095146Y-29671306D01*
X56074642Y-29691810D01*
X56074642Y-32742808D01*
X56074643Y-32742809D01*
X56122466Y-32742809D01*
X56182012Y-32736407D01*
X56188040Y-32734983D01*
X56188358Y-32736328D01*
X56242559Y-32734004D01*
X56286033Y-32759379D01*
X56611959Y-33085305D01*
X56639736Y-33139822D01*
X56630165Y-33200254D01*
X56586900Y-33243519D01*
X56541956Y-33254309D01*
X56463677Y-33254309D01*
X56364402Y-33264451D01*
X56364390Y-33264454D01*
X56203512Y-33317763D01*
X56059270Y-33406734D01*
X55939425Y-33526579D01*
X55850454Y-33670821D01*
X55797143Y-33831705D01*
X55787000Y-33930985D01*
X55787000Y-34032223D01*
X55768093Y-34090414D01*
X55718593Y-34126378D01*
X55657407Y-34126378D01*
X55607907Y-34090414D01*
X55590219Y-34047710D01*
X55585402Y-34017297D01*
X55585401Y-34017293D01*
X55531876Y-33852561D01*
X55531874Y-33852558D01*
X55531873Y-33852557D01*
X55531873Y-33852555D01*
X55453232Y-33698212D01*
X55351414Y-33558072D01*
X55228928Y-33435586D01*
X55228924Y-33435583D01*
X55228922Y-33435581D01*
X55115951Y-33353502D01*
X55079987Y-33304002D01*
X55075142Y-33273410D01*
X55075142Y-32833316D01*
X55094049Y-32775125D01*
X55104138Y-32763312D01*
X55124642Y-32742808D01*
X55124642Y-32130310D01*
X55104138Y-32109806D01*
X55076361Y-32055289D01*
X55075142Y-32039802D01*
X55075142Y-31879309D01*
X55079987Y-31864397D01*
X55079987Y-31848716D01*
X55089203Y-31836030D01*
X55094049Y-31821118D01*
X55106734Y-31811901D01*
X55115951Y-31799216D01*
X55130863Y-31794370D01*
X55143549Y-31785154D01*
X55174142Y-31780309D01*
X55200642Y-31780309D01*
X55258833Y-31799216D01*
X55294797Y-31848716D01*
X55299642Y-31879309D01*
X55299642Y-31955308D01*
X55299643Y-31955309D01*
X55375642Y-31955309D01*
X55433833Y-31974216D01*
X55469797Y-32023716D01*
X55474642Y-32054309D01*
X55474642Y-32742808D01*
X55474643Y-32742809D01*
X55522467Y-32742809D01*
X55522466Y-32742808D01*
X55588177Y-32735745D01*
X55588380Y-32737631D01*
X55610904Y-32737631D01*
X55611107Y-32735745D01*
X55676817Y-32742808D01*
X55676817Y-32742809D01*
X55724641Y-32742809D01*
X55724642Y-32742808D01*
X55724642Y-30654310D01*
X55704138Y-30633806D01*
X55700511Y-30626688D01*
X55694049Y-30621993D01*
X55686885Y-30599944D01*
X55676361Y-30579289D01*
X55675142Y-30563802D01*
X55675142Y-30394816D01*
X55694049Y-30336625D01*
X55704138Y-30324812D01*
X55724642Y-30304308D01*
X55724642Y-29691810D01*
X55704138Y-29671306D01*
X55676361Y-29616789D01*
X55675142Y-29601302D01*
X55675142Y-29272647D01*
X55694049Y-29214456D01*
X55743549Y-29178492D01*
X55804735Y-29178492D01*
X55805282Y-29178672D01*
G37*
%TD.AperFunction*%
%TA.AperFunction,Conductor*%
G36*
X55484075Y-23732993D02*
G01*
X55549901Y-23847007D01*
X55642993Y-23940099D01*
X55757007Y-24005925D01*
X55820589Y-24022962D01*
X55188282Y-24655269D01*
X55188282Y-24655270D01*
X55242440Y-24694619D01*
X55242446Y-24694623D01*
X55431784Y-24791095D01*
X55633878Y-24856759D01*
X55843750Y-24890000D01*
X56056250Y-24890000D01*
X56266121Y-24856759D01*
X56468215Y-24791095D01*
X56657556Y-24694620D01*
X56711716Y-24655270D01*
X56079408Y-24022962D01*
X56142993Y-24005925D01*
X56257007Y-23940099D01*
X56350099Y-23847007D01*
X56415925Y-23732993D01*
X56432962Y-23669408D01*
X57065270Y-24301716D01*
X57104620Y-24247556D01*
X57201095Y-24058215D01*
X57266759Y-23856121D01*
X57275359Y-23801823D01*
X57303136Y-23747307D01*
X57357653Y-23719529D01*
X57418085Y-23729100D01*
X57461349Y-23772365D01*
X57470238Y-23797996D01*
X57479869Y-23846418D01*
X57559058Y-24037597D01*
X57592147Y-24087118D01*
X57674023Y-24209655D01*
X57820345Y-24355977D01*
X57992402Y-24470941D01*
X58183580Y-24550130D01*
X58294814Y-24572255D01*
X58348198Y-24602151D01*
X58373814Y-24657716D01*
X58374500Y-24669353D01*
X58374500Y-25011395D01*
X58355593Y-25069586D01*
X58308198Y-25104839D01*
X58187116Y-25147207D01*
X58077855Y-25227845D01*
X58077845Y-25227855D01*
X57997207Y-25337116D01*
X57952355Y-25465296D01*
X57952353Y-25465305D01*
X57949500Y-25495725D01*
X57949500Y-26504274D01*
X57952353Y-26534694D01*
X57952355Y-26534703D01*
X57997207Y-26662883D01*
X58077845Y-26772144D01*
X58077847Y-26772146D01*
X58077850Y-26772150D01*
X58077853Y-26772152D01*
X58077855Y-26772154D01*
X58187116Y-26852792D01*
X58187117Y-26852792D01*
X58187118Y-26852793D01*
X58315301Y-26897646D01*
X58345725Y-26900499D01*
X58345727Y-26900500D01*
X58345734Y-26900500D01*
X59078455Y-26900500D01*
X59136646Y-26919407D01*
X59148459Y-26929496D01*
X59389280Y-27170317D01*
X59417057Y-27224834D01*
X59407486Y-27285266D01*
X59399368Y-27298512D01*
X59308771Y-27423206D01*
X59308767Y-27423212D01*
X59230125Y-27577558D01*
X59230123Y-27577561D01*
X59176598Y-27742293D01*
X59176597Y-27742297D01*
X59149500Y-27913385D01*
X59149500Y-28086614D01*
X59176597Y-28257702D01*
X59176598Y-28257706D01*
X59230123Y-28422438D01*
X59230125Y-28422441D01*
X59275301Y-28511106D01*
X59308768Y-28576788D01*
X59410586Y-28716928D01*
X59425156Y-28731498D01*
X59452932Y-28786013D01*
X59443361Y-28846445D01*
X59400096Y-28889710D01*
X59355151Y-28900500D01*
X59017878Y-28900500D01*
X58959687Y-28881593D01*
X58947874Y-28871504D01*
X58587476Y-28511106D01*
X58587476Y-28511105D01*
X58454138Y-28377766D01*
X58426361Y-28323250D01*
X58425142Y-28307763D01*
X58425142Y-27945819D01*
X58420005Y-27913385D01*
X58409361Y-27846183D01*
X58409358Y-27846178D01*
X58409358Y-27846176D01*
X58348171Y-27726091D01*
X58348170Y-27726089D01*
X58252862Y-27630781D01*
X58252859Y-27630779D01*
X58132774Y-27569592D01*
X58132769Y-27569590D01*
X58132768Y-27569590D01*
X58099555Y-27564329D01*
X58033132Y-27553809D01*
X58033130Y-27553809D01*
X57671187Y-27553809D01*
X57612996Y-27534902D01*
X57601184Y-27524813D01*
X57165730Y-27089360D01*
X57154205Y-27077835D01*
X57154204Y-27077834D01*
X57068580Y-27028399D01*
X57020828Y-27015604D01*
X57011368Y-27013069D01*
X57011364Y-27013067D01*
X56973080Y-27002809D01*
X56973078Y-27002809D01*
X56973077Y-27002809D01*
X55793902Y-27002809D01*
X55695030Y-27002809D01*
X55647279Y-27015604D01*
X55647278Y-27015603D01*
X55599528Y-27028398D01*
X55599524Y-27028400D01*
X55513902Y-27077834D01*
X55513903Y-27077835D01*
X55069080Y-27522658D01*
X55069079Y-27522657D01*
X54999166Y-27592571D01*
X54949733Y-27678190D01*
X54924142Y-27773699D01*
X54924142Y-29601302D01*
X54905235Y-29659493D01*
X54895146Y-29671306D01*
X54874642Y-29691810D01*
X54874642Y-30304308D01*
X54895146Y-30324812D01*
X54922923Y-30379329D01*
X54924142Y-30394816D01*
X54924142Y-30555309D01*
X54919297Y-30570220D01*
X54919297Y-30585902D01*
X54910080Y-30598587D01*
X54905235Y-30613500D01*
X54892549Y-30622716D01*
X54883333Y-30635402D01*
X54868420Y-30640247D01*
X54855735Y-30649464D01*
X54825142Y-30654309D01*
X54798642Y-30654309D01*
X54740451Y-30635402D01*
X54704487Y-30585902D01*
X54699642Y-30555309D01*
X54699642Y-30479310D01*
X54699641Y-30479309D01*
X54623642Y-30479309D01*
X54565451Y-30460402D01*
X54529487Y-30410902D01*
X54524642Y-30380309D01*
X54524642Y-29691810D01*
X54504138Y-29671306D01*
X54476361Y-29616789D01*
X54475142Y-29601302D01*
X54475142Y-27104743D01*
X54467931Y-27077835D01*
X54467930Y-27077831D01*
X54449552Y-27009241D01*
X54449552Y-27009240D01*
X54400117Y-26923617D01*
X54330204Y-26853703D01*
X54330204Y-26853704D01*
X53814496Y-26337996D01*
X53786719Y-26283479D01*
X53785500Y-26267992D01*
X53785500Y-24587664D01*
X53804407Y-24529473D01*
X53846612Y-24496201D01*
X53907598Y-24470941D01*
X54079655Y-24355977D01*
X54225977Y-24209655D01*
X54340941Y-24037598D01*
X54420130Y-23846420D01*
X54429762Y-23797996D01*
X54459656Y-23744613D01*
X54515221Y-23718996D01*
X54575231Y-23730932D01*
X54616764Y-23775861D01*
X54624640Y-23801822D01*
X54633241Y-23856122D01*
X54698904Y-24058215D01*
X54795376Y-24247553D01*
X54795380Y-24247559D01*
X54834728Y-24301716D01*
X54834729Y-24301716D01*
X55467037Y-23669407D01*
X55484075Y-23732993D01*
G37*
%TD.AperFunction*%
%TA.AperFunction,Conductor*%
G36*
X67168691Y-21559407D02*
G01*
X67204655Y-21608907D01*
X67209500Y-21639500D01*
X67209500Y-42110500D01*
X67190593Y-42168691D01*
X67141093Y-42204655D01*
X67110500Y-42209500D01*
X42889500Y-42209500D01*
X42831309Y-42190593D01*
X42795345Y-42141093D01*
X42790500Y-42110500D01*
X42790500Y-22245725D01*
X45199500Y-22245725D01*
X45199500Y-23254274D01*
X45202353Y-23284694D01*
X45202355Y-23284703D01*
X45247207Y-23412883D01*
X45327845Y-23522144D01*
X45327847Y-23522146D01*
X45327850Y-23522150D01*
X45327853Y-23522152D01*
X45327855Y-23522154D01*
X45437114Y-23602791D01*
X45437116Y-23602791D01*
X45437118Y-23602793D01*
X45558199Y-23645161D01*
X45581680Y-23663039D01*
X45605593Y-23680413D01*
X45605952Y-23681520D01*
X45606878Y-23682225D01*
X45624500Y-23738604D01*
X45624500Y-23761395D01*
X45605593Y-23819586D01*
X45558198Y-23854839D01*
X45437116Y-23897207D01*
X45327855Y-23977845D01*
X45327845Y-23977855D01*
X45247207Y-24087116D01*
X45202355Y-24215296D01*
X45202353Y-24215305D01*
X45199500Y-24245725D01*
X45199500Y-25254274D01*
X45202353Y-25284694D01*
X45202355Y-25284703D01*
X45247207Y-25412883D01*
X45327845Y-25522144D01*
X45327847Y-25522146D01*
X45327850Y-25522150D01*
X45327853Y-25522152D01*
X45327855Y-25522154D01*
X45437116Y-25602792D01*
X45437117Y-25602792D01*
X45437118Y-25602793D01*
X45565301Y-25647646D01*
X45595725Y-25650499D01*
X45595727Y-25650500D01*
X45595734Y-25650500D01*
X46328455Y-25650500D01*
X46386646Y-25669407D01*
X46398459Y-25679496D01*
X50332504Y-29613541D01*
X50360281Y-29668058D01*
X50361500Y-29683545D01*
X50361500Y-33517775D01*
X50342593Y-33575966D01*
X50307445Y-33605984D01*
X50258784Y-33630778D01*
X50258782Y-33630779D01*
X50163470Y-33726091D01*
X50102283Y-33846176D01*
X50102281Y-33846183D01*
X50086500Y-33945819D01*
X50086500Y-34512798D01*
X50102281Y-34612434D01*
X50102283Y-34612441D01*
X50163470Y-34732526D01*
X50163472Y-34732529D01*
X50258780Y-34827837D01*
X50258782Y-34827838D01*
X50258783Y-34827839D01*
X50287360Y-34842399D01*
X50307444Y-34852632D01*
X50350709Y-34895895D01*
X50361500Y-34940842D01*
X50361500Y-36549438D01*
X50374294Y-36597184D01*
X50374294Y-36597185D01*
X50387088Y-36644934D01*
X50387091Y-36644941D01*
X50436525Y-36730563D01*
X50436526Y-36730563D01*
X51461525Y-37755562D01*
X51461524Y-37755562D01*
X51531438Y-37825475D01*
X51617058Y-37874908D01*
X51617062Y-37874910D01*
X51664812Y-37887705D01*
X51664813Y-37887705D01*
X51712564Y-37900500D01*
X51712565Y-37900500D01*
X57061436Y-37900500D01*
X57109186Y-37887705D01*
X57109187Y-37887705D01*
X57156934Y-37874911D01*
X57156933Y-37874911D01*
X57156938Y-37874910D01*
X57242562Y-37825475D01*
X57312475Y-37755562D01*
X58587474Y-36480563D01*
X58604794Y-36450564D01*
X58636910Y-36394938D01*
X58662500Y-36299435D01*
X58662500Y-34940842D01*
X58681407Y-34882651D01*
X58716555Y-34852632D01*
X58765220Y-34827837D01*
X58860528Y-34732529D01*
X58921719Y-34612435D01*
X58936710Y-34517785D01*
X58937500Y-34512798D01*
X58937500Y-33945819D01*
X58933703Y-33921850D01*
X58921719Y-33846183D01*
X58921716Y-33846178D01*
X58921716Y-33846176D01*
X58860529Y-33726091D01*
X58860528Y-33726089D01*
X58765220Y-33630781D01*
X58765217Y-33630779D01*
X58765215Y-33630778D01*
X58716555Y-33605984D01*
X58673290Y-33562720D01*
X58662500Y-33517775D01*
X58662500Y-30372238D01*
X59165425Y-30372238D01*
X59165426Y-30372238D01*
X59615901Y-30372238D01*
X59615902Y-30372238D01*
X59615902Y-29921760D01*
X59165425Y-29921760D01*
X59165425Y-30372238D01*
X58662500Y-30372238D01*
X58662500Y-29749985D01*
X58664047Y-29745225D01*
X62726017Y-29745225D01*
X62726018Y-29745225D01*
X66037741Y-29745225D01*
X66037742Y-29745225D01*
X66037742Y-22578082D01*
X62726017Y-22578082D01*
X62726017Y-29745225D01*
X58664047Y-29745225D01*
X58681407Y-29691794D01*
X58730907Y-29655830D01*
X58765408Y-29652662D01*
X58765408Y-29651500D01*
X60827973Y-29651500D01*
X60875723Y-29638705D01*
X60875724Y-29638705D01*
X60923471Y-29625911D01*
X60923470Y-29625911D01*
X60923475Y-29625910D01*
X61009099Y-29576475D01*
X61079012Y-29506562D01*
X61826474Y-28759100D01*
X61850822Y-28716928D01*
X61875910Y-28673475D01*
X61901500Y-28577972D01*
X61901500Y-26726565D01*
X61893069Y-26695099D01*
X61875911Y-26631063D01*
X61826475Y-26545437D01*
X61710493Y-26429455D01*
X61579496Y-26298457D01*
X61551719Y-26243941D01*
X61550500Y-26228454D01*
X61550500Y-25495727D01*
X61550499Y-25495725D01*
X61547646Y-25465305D01*
X61547646Y-25465301D01*
X61502793Y-25337118D01*
X61464109Y-25284703D01*
X61422154Y-25227855D01*
X61422152Y-25227853D01*
X61422150Y-25227850D01*
X61422146Y-25227847D01*
X61422144Y-25227845D01*
X61312883Y-25147207D01*
X61191802Y-25104839D01*
X61143122Y-25067774D01*
X61125500Y-25011395D01*
X61125500Y-24689500D01*
X61144407Y-24631309D01*
X61193907Y-24595345D01*
X61224500Y-24590500D01*
X61899747Y-24590500D01*
X61899748Y-24590500D01*
X61958231Y-24578867D01*
X62024552Y-24534552D01*
X62068867Y-24468231D01*
X62080500Y-24409748D01*
X62080500Y-22670252D01*
X62068867Y-22611769D01*
X62024552Y-22545448D01*
X62006924Y-22533669D01*
X61958233Y-22501134D01*
X61958231Y-22501133D01*
X61958228Y-22501132D01*
X61958227Y-22501132D01*
X61899758Y-22489501D01*
X61899748Y-22489500D01*
X60160252Y-22489500D01*
X60160251Y-22489500D01*
X60160241Y-22489501D01*
X60101772Y-22501132D01*
X60101766Y-22501134D01*
X60035451Y-22545445D01*
X60035445Y-22545451D01*
X59991134Y-22611766D01*
X59991132Y-22611772D01*
X59979501Y-22670241D01*
X59979500Y-22670253D01*
X59979500Y-24409746D01*
X59979501Y-24409758D01*
X59991132Y-24468227D01*
X59991134Y-24468233D01*
X60032054Y-24529473D01*
X60035448Y-24534552D01*
X60101769Y-24578867D01*
X60145994Y-24587664D01*
X60160241Y-24590498D01*
X60160246Y-24590498D01*
X60160252Y-24590500D01*
X60275500Y-24590500D01*
X60333691Y-24609407D01*
X60369655Y-24658907D01*
X60374500Y-24689500D01*
X60374500Y-25011395D01*
X60355593Y-25069586D01*
X60308198Y-25104839D01*
X60187116Y-25147207D01*
X60077855Y-25227845D01*
X60077845Y-25227855D01*
X59997207Y-25337116D01*
X59952355Y-25465296D01*
X59952353Y-25465305D01*
X59949500Y-25495725D01*
X59949500Y-26429455D01*
X59930593Y-26487646D01*
X59881093Y-26523610D01*
X59819907Y-26523610D01*
X59780496Y-26499459D01*
X59579496Y-26298459D01*
X59551719Y-26243942D01*
X59550500Y-26228455D01*
X59550500Y-25495727D01*
X59550499Y-25495725D01*
X59547646Y-25465305D01*
X59547646Y-25465301D01*
X59502793Y-25337118D01*
X59464109Y-25284703D01*
X59422154Y-25227855D01*
X59422152Y-25227853D01*
X59422150Y-25227850D01*
X59422146Y-25227847D01*
X59422144Y-25227845D01*
X59312883Y-25147207D01*
X59191802Y-25104839D01*
X59143122Y-25067774D01*
X59125500Y-25011395D01*
X59125500Y-24430830D01*
X59144407Y-24372639D01*
X59156555Y-24359756D01*
X59156215Y-24359416D01*
X59159651Y-24355979D01*
X59159655Y-24355977D01*
X59305977Y-24209655D01*
X59420941Y-24037598D01*
X59500130Y-23846420D01*
X59540500Y-23643465D01*
X59540500Y-23436535D01*
X59500130Y-23233580D01*
X59420941Y-23042402D01*
X59305977Y-22870345D01*
X59159655Y-22724023D01*
X59159651Y-22724020D01*
X58987597Y-22609058D01*
X58796418Y-22529869D01*
X58593467Y-22489500D01*
X58593465Y-22489500D01*
X58386535Y-22489500D01*
X58386532Y-22489500D01*
X58183581Y-22529869D01*
X57992402Y-22609058D01*
X57820348Y-22724020D01*
X57674020Y-22870348D01*
X57559058Y-23042402D01*
X57479869Y-23233581D01*
X57470238Y-23282003D01*
X57440341Y-23335387D01*
X57384776Y-23361003D01*
X57324766Y-23349066D01*
X57283234Y-23304136D01*
X57275359Y-23278176D01*
X57266759Y-23223878D01*
X57201095Y-23021784D01*
X57104623Y-22832446D01*
X57104619Y-22832440D01*
X57065270Y-22778282D01*
X57065269Y-22778282D01*
X56432962Y-23410589D01*
X56415925Y-23347007D01*
X56350099Y-23232993D01*
X56257007Y-23139901D01*
X56142993Y-23074075D01*
X56079407Y-23057037D01*
X56711716Y-22424729D01*
X56711716Y-22424728D01*
X56657559Y-22385380D01*
X56657553Y-22385376D01*
X56468215Y-22288904D01*
X56266121Y-22223240D01*
X56056250Y-22190000D01*
X55843750Y-22190000D01*
X55633878Y-22223240D01*
X55431784Y-22288904D01*
X55242446Y-22385376D01*
X55242442Y-22385378D01*
X55188282Y-22424728D01*
X55820591Y-23057037D01*
X55757007Y-23074075D01*
X55642993Y-23139901D01*
X55549901Y-23232993D01*
X55484075Y-23347007D01*
X55467037Y-23410591D01*
X54834728Y-22778282D01*
X54795378Y-22832442D01*
X54795376Y-22832446D01*
X54698904Y-23021784D01*
X54633241Y-23223877D01*
X54624640Y-23278177D01*
X54596862Y-23332694D01*
X54542345Y-23360470D01*
X54481913Y-23350898D01*
X54438649Y-23307633D01*
X54429762Y-23282006D01*
X54420130Y-23233580D01*
X54340941Y-23042402D01*
X54225977Y-22870345D01*
X54079655Y-22724023D01*
X54079651Y-22724020D01*
X53907597Y-22609058D01*
X53788988Y-22559929D01*
X53716420Y-22529870D01*
X53716418Y-22529869D01*
X53513467Y-22489500D01*
X53513465Y-22489500D01*
X53306535Y-22489500D01*
X53306532Y-22489500D01*
X53103581Y-22529869D01*
X53042595Y-22555130D01*
X52981598Y-22559929D01*
X52934707Y-22533669D01*
X52414563Y-22013526D01*
X52414563Y-22013525D01*
X52328941Y-21964091D01*
X52328934Y-21964088D01*
X52281185Y-21951294D01*
X52281184Y-21951294D01*
X52233438Y-21938500D01*
X52233436Y-21938500D01*
X52233435Y-21938500D01*
X48651409Y-21938500D01*
X48593218Y-21919593D01*
X48592620Y-21919155D01*
X48562881Y-21897206D01*
X48434703Y-21852355D01*
X48434694Y-21852353D01*
X48404274Y-21849500D01*
X48404266Y-21849500D01*
X47595734Y-21849500D01*
X47595725Y-21849500D01*
X47565305Y-21852353D01*
X47565296Y-21852355D01*
X47437116Y-21897207D01*
X47327855Y-21977845D01*
X47327845Y-21977855D01*
X47247207Y-22087116D01*
X47202355Y-22215296D01*
X47202353Y-22215305D01*
X47199500Y-22245725D01*
X47199500Y-23254274D01*
X47202353Y-23284694D01*
X47202355Y-23284703D01*
X47247207Y-23412883D01*
X47327845Y-23522144D01*
X47327847Y-23522146D01*
X47327850Y-23522150D01*
X47327853Y-23522152D01*
X47327855Y-23522154D01*
X47437116Y-23602792D01*
X47437117Y-23602792D01*
X47437118Y-23602793D01*
X47565301Y-23647646D01*
X47595725Y-23650499D01*
X47595727Y-23650500D01*
X48329455Y-23650500D01*
X48351502Y-23657663D01*
X48374400Y-23661290D01*
X48380048Y-23666938D01*
X48387646Y-23669407D01*
X48401273Y-23688163D01*
X48417665Y-23704555D01*
X48418914Y-23712444D01*
X48423610Y-23718907D01*
X48423610Y-23742092D01*
X48427236Y-23764987D01*
X48423610Y-23772103D01*
X48423610Y-23780093D01*
X48399459Y-23819504D01*
X48398459Y-23820504D01*
X48343942Y-23848281D01*
X48328455Y-23849500D01*
X47595725Y-23849500D01*
X47565305Y-23852353D01*
X47565296Y-23852355D01*
X47437116Y-23897207D01*
X47327855Y-23977845D01*
X47327845Y-23977855D01*
X47247207Y-24087116D01*
X47202355Y-24215296D01*
X47202353Y-24215305D01*
X47199500Y-24245725D01*
X47199500Y-25179454D01*
X47180593Y-25237645D01*
X47131093Y-25273609D01*
X47069907Y-25273609D01*
X47030496Y-25249458D01*
X46829496Y-25048458D01*
X46801719Y-24993941D01*
X46800500Y-24978454D01*
X46800500Y-24245727D01*
X46800499Y-24245725D01*
X46797646Y-24215305D01*
X46797646Y-24215301D01*
X46752793Y-24087118D01*
X46741532Y-24071860D01*
X46672154Y-23977855D01*
X46672152Y-23977853D01*
X46672150Y-23977850D01*
X46672146Y-23977847D01*
X46672144Y-23977845D01*
X46562883Y-23897207D01*
X46441802Y-23854839D01*
X46418322Y-23836961D01*
X46394407Y-23819586D01*
X46394047Y-23818478D01*
X46393122Y-23817774D01*
X46375500Y-23761395D01*
X46375500Y-23738604D01*
X46394407Y-23680413D01*
X46441799Y-23645161D01*
X46562882Y-23602793D01*
X46672150Y-23522150D01*
X46752793Y-23412882D01*
X46797646Y-23284699D01*
X46800499Y-23254273D01*
X46800500Y-23254273D01*
X46800500Y-22245727D01*
X46800499Y-22245725D01*
X46797646Y-22215301D01*
X46752793Y-22087118D01*
X46698479Y-22013525D01*
X46672154Y-21977855D01*
X46672152Y-21977853D01*
X46672150Y-21977850D01*
X46672146Y-21977847D01*
X46672144Y-21977845D01*
X46562883Y-21897207D01*
X46434703Y-21852355D01*
X46434694Y-21852353D01*
X46404274Y-21849500D01*
X46404266Y-21849500D01*
X45595734Y-21849500D01*
X45595725Y-21849500D01*
X45565305Y-21852353D01*
X45565296Y-21852355D01*
X45437116Y-21897207D01*
X45327855Y-21977845D01*
X45327845Y-21977855D01*
X45247207Y-22087116D01*
X45202355Y-22215296D01*
X45202353Y-22215305D01*
X45199500Y-22245725D01*
X42790500Y-22245725D01*
X42790500Y-21639500D01*
X42809407Y-21581309D01*
X42858907Y-21545345D01*
X42889500Y-21540500D01*
X67110500Y-21540500D01*
X67168691Y-21559407D01*
G37*
%TD.AperFunction*%
%TD*%
M02*
