%TF.GenerationSoftware,KiCad,Pcbnew,9.0.4*%
%TF.CreationDate,2026-03-10T17:46:49+00:00*%
%TF.ProjectId,LiDAR Distance Measurement V1,4c694441-5220-4446-9973-74616e636520,rev?*%
%TF.SameCoordinates,Original*%
%TF.FileFunction,Copper,L2,Bot*%
%TF.FilePolarity,Positive*%
%FSLAX46Y46*%
G04 Gerber Fmt 4.6, Leading zero omitted, Abs format (unit mm)*
G04 Created by KiCad (PCBNEW 9.0.4) date 2026-03-10 17:46:49*
%MOMM*%
%LPD*%
G01*
G04 APERTURE LIST*
%ADD10C,0.300000*%
%TA.AperFunction,ComponentPad*%
%ADD11C,3.600000*%
%TD*%
%TA.AperFunction,ConnectorPad*%
%ADD12C,5.600000*%
%TD*%
%TA.AperFunction,ComponentPad*%
%ADD13R,1.700000X1.700000*%
%TD*%
%TA.AperFunction,ComponentPad*%
%ADD14C,1.700000*%
%TD*%
%TA.AperFunction,ViaPad*%
%ADD15C,1.800000*%
%TD*%
%TA.AperFunction,Conductor*%
%ADD16C,0.350000*%
%TD*%
G04 APERTURE END LIST*
D10*
G36*
X55774967Y-40370114D02*
G01*
X54762623Y-40370114D01*
X55268795Y-38851598D01*
X55774967Y-40370114D01*
G37*
G36*
X63037842Y-41860590D02*
G01*
X47643050Y-41860590D01*
X47643050Y-39388783D01*
X47976383Y-39388783D01*
X47978821Y-39397482D01*
X47978821Y-39406521D01*
X47986653Y-39425429D01*
X47992177Y-39445139D01*
X47999707Y-39456944D01*
X48001219Y-39460593D01*
X48003472Y-39462846D01*
X48007991Y-39469930D01*
X49388747Y-41227257D01*
X48125939Y-41227257D01*
X48096675Y-41230139D01*
X48042603Y-41252537D01*
X48001219Y-41293921D01*
X47978821Y-41347993D01*
X47978821Y-41406521D01*
X48001219Y-41460593D01*
X48042603Y-41501977D01*
X48096675Y-41524375D01*
X48125939Y-41527257D01*
X49697367Y-41527257D01*
X49705725Y-41526433D01*
X49708893Y-41526814D01*
X49712700Y-41525746D01*
X49726631Y-41524375D01*
X49745536Y-41516543D01*
X49765249Y-41511019D01*
X49772357Y-41505434D01*
X49780703Y-41501977D01*
X49795171Y-41487508D01*
X49811271Y-41474859D01*
X49815699Y-41466980D01*
X49822087Y-41460593D01*
X49829919Y-41441683D01*
X49839950Y-41423840D01*
X49841026Y-41414870D01*
X49844485Y-41406521D01*
X49844485Y-41386053D01*
X49846924Y-41365731D01*
X49844485Y-41357028D01*
X49844485Y-41347993D01*
X49836653Y-41329087D01*
X49831129Y-41309375D01*
X49823598Y-41297569D01*
X49822087Y-41293921D01*
X49819833Y-41291667D01*
X49815315Y-41284584D01*
X48434559Y-39527257D01*
X49697367Y-39527257D01*
X49726631Y-39524375D01*
X49780703Y-39501977D01*
X49822087Y-39460593D01*
X49844485Y-39406521D01*
X49844485Y-39377257D01*
X50690224Y-39377257D01*
X50690224Y-41377257D01*
X50693106Y-41406521D01*
X50715504Y-41460593D01*
X50756888Y-41501977D01*
X50810960Y-41524375D01*
X50869488Y-41524375D01*
X50923560Y-41501977D01*
X50964944Y-41460593D01*
X50987342Y-41406521D01*
X50990224Y-41377257D01*
X50990224Y-39388783D01*
X51833525Y-39388783D01*
X51835963Y-39397482D01*
X51835963Y-39406521D01*
X51843795Y-39425429D01*
X51849319Y-39445139D01*
X51856849Y-39456944D01*
X51858361Y-39460593D01*
X51860614Y-39462846D01*
X51865133Y-39469930D01*
X53245889Y-41227257D01*
X51983081Y-41227257D01*
X51953817Y-41230139D01*
X51899745Y-41252537D01*
X51858361Y-41293921D01*
X51835963Y-41347993D01*
X51835963Y-41406521D01*
X51858361Y-41460593D01*
X51899745Y-41501977D01*
X51953817Y-41524375D01*
X51983081Y-41527257D01*
X53554509Y-41527257D01*
X53562867Y-41526433D01*
X53566035Y-41526814D01*
X53569842Y-41525746D01*
X53583773Y-41524375D01*
X53602678Y-41516543D01*
X53622391Y-41511019D01*
X53629499Y-41505434D01*
X53637845Y-41501977D01*
X53652313Y-41487508D01*
X53668413Y-41474859D01*
X53672841Y-41466980D01*
X53679229Y-41460593D01*
X53687061Y-41441683D01*
X53697092Y-41423840D01*
X53698168Y-41414870D01*
X53701627Y-41406521D01*
X53701627Y-41386053D01*
X53704066Y-41365731D01*
X53702038Y-41358496D01*
X54119973Y-41358496D01*
X54124122Y-41416877D01*
X54150296Y-41469224D01*
X54194510Y-41507571D01*
X54250034Y-41526079D01*
X54308415Y-41521930D01*
X54360762Y-41495756D01*
X54399109Y-41451542D01*
X54411097Y-41424691D01*
X54662623Y-40670114D01*
X55874967Y-40670114D01*
X56126493Y-41424691D01*
X56138481Y-41451542D01*
X56176828Y-41495757D01*
X56229176Y-41521930D01*
X56287556Y-41526080D01*
X56343080Y-41507572D01*
X56387295Y-41469224D01*
X56413468Y-41416877D01*
X56417618Y-41358497D01*
X56411098Y-41329823D01*
X56369536Y-41205138D01*
X59264534Y-41205138D01*
X59264534Y-41263663D01*
X59286931Y-41317736D01*
X59286935Y-41317740D01*
X59305586Y-41340466D01*
X59448443Y-41483323D01*
X59471173Y-41501978D01*
X59509408Y-41517814D01*
X59525245Y-41524375D01*
X59525246Y-41524375D01*
X59583772Y-41524375D01*
X59583773Y-41524375D01*
X59615046Y-41511421D01*
X59637844Y-41501978D01*
X59660575Y-41483323D01*
X59803432Y-41340466D01*
X59822087Y-41317736D01*
X59844484Y-41263663D01*
X59844484Y-41205137D01*
X59822087Y-41151065D01*
X59803432Y-41128334D01*
X59660575Y-40985476D01*
X59637845Y-40966821D01*
X59599609Y-40950984D01*
X59583773Y-40944424D01*
X59525245Y-40944424D01*
X59509408Y-40950984D01*
X59471173Y-40966821D01*
X59448443Y-40985476D01*
X59305586Y-41128334D01*
X59286931Y-41151065D01*
X59264534Y-41205138D01*
X56369536Y-41205138D01*
X56141195Y-40520114D01*
X60690223Y-40520114D01*
X60690223Y-40805828D01*
X60693105Y-40835092D01*
X60695166Y-40840069D01*
X60695549Y-40845447D01*
X60706059Y-40872910D01*
X60848916Y-41158624D01*
X60856843Y-41171217D01*
X60858359Y-41174877D01*
X60861740Y-41178996D01*
X60864581Y-41183510D01*
X60867574Y-41186106D01*
X60877014Y-41197608D01*
X61019872Y-41340466D01*
X61031373Y-41349905D01*
X61033970Y-41352899D01*
X61038483Y-41355739D01*
X61042603Y-41359121D01*
X61046262Y-41360636D01*
X61058856Y-41368564D01*
X61344570Y-41511421D01*
X61372033Y-41521931D01*
X61377410Y-41522313D01*
X61382388Y-41524375D01*
X61411652Y-41527257D01*
X62125938Y-41527257D01*
X62140749Y-41525798D01*
X62144699Y-41526079D01*
X62149893Y-41524897D01*
X62155202Y-41524375D01*
X62158864Y-41522857D01*
X62173372Y-41519559D01*
X62601943Y-41376703D01*
X62628794Y-41364714D01*
X62673008Y-41326367D01*
X62699181Y-41274020D01*
X62703331Y-41215640D01*
X62684823Y-41160115D01*
X62646475Y-41115901D01*
X62594128Y-41089727D01*
X62535748Y-41085578D01*
X62507074Y-41092098D01*
X62101598Y-41227257D01*
X61447062Y-41227257D01*
X61214792Y-41111122D01*
X61106358Y-41002688D01*
X60990223Y-40770418D01*
X60990223Y-40555524D01*
X61106358Y-40323254D01*
X61214792Y-40214820D01*
X61464007Y-40090212D01*
X62019461Y-39951349D01*
X62021616Y-39950578D01*
X62022698Y-39950502D01*
X62034872Y-39945842D01*
X62047152Y-39941456D01*
X62048023Y-39940810D01*
X62050162Y-39939992D01*
X62335877Y-39797135D01*
X62348470Y-39789207D01*
X62352130Y-39787692D01*
X62356249Y-39784310D01*
X62360763Y-39781470D01*
X62363359Y-39778476D01*
X62374861Y-39769037D01*
X62517718Y-39626180D01*
X62527158Y-39614677D01*
X62530151Y-39612082D01*
X62532989Y-39607572D01*
X62536373Y-39603450D01*
X62537889Y-39599787D01*
X62545816Y-39587196D01*
X62688673Y-39301482D01*
X62699183Y-39274019D01*
X62699565Y-39268641D01*
X62701627Y-39263664D01*
X62704509Y-39234400D01*
X62704509Y-38948685D01*
X62701627Y-38919421D01*
X62699565Y-38914443D01*
X62699183Y-38909066D01*
X62688673Y-38881603D01*
X62545816Y-38595889D01*
X62537889Y-38583297D01*
X62536373Y-38579635D01*
X62532989Y-38575512D01*
X62530151Y-38571003D01*
X62527158Y-38568407D01*
X62517718Y-38556905D01*
X62374861Y-38414048D01*
X62363359Y-38404608D01*
X62360763Y-38401615D01*
X62356249Y-38398774D01*
X62352130Y-38395393D01*
X62348470Y-38393877D01*
X62335877Y-38385950D01*
X62050162Y-38243093D01*
X62022698Y-38232583D01*
X62017322Y-38232201D01*
X62012344Y-38230139D01*
X61983080Y-38227257D01*
X61268795Y-38227257D01*
X61253983Y-38228715D01*
X61250034Y-38228435D01*
X61244839Y-38229616D01*
X61239531Y-38230139D01*
X61235868Y-38231656D01*
X61221361Y-38234955D01*
X60792789Y-38377811D01*
X60765938Y-38389800D01*
X60721724Y-38428147D01*
X60695550Y-38480494D01*
X60691401Y-38538874D01*
X60709909Y-38594399D01*
X60748256Y-38638613D01*
X60800603Y-38664787D01*
X60858983Y-38668936D01*
X60887657Y-38662417D01*
X61293138Y-38527257D01*
X61947670Y-38527257D01*
X62179941Y-38643392D01*
X62288374Y-38751825D01*
X62404509Y-38984095D01*
X62404509Y-39198990D01*
X62288374Y-39431260D01*
X62179941Y-39539692D01*
X61930724Y-39664300D01*
X61375272Y-39803164D01*
X61373116Y-39803934D01*
X61372033Y-39804011D01*
X61359844Y-39808675D01*
X61347580Y-39813057D01*
X61346708Y-39813702D01*
X61344570Y-39814521D01*
X61058856Y-39957378D01*
X61046262Y-39965305D01*
X61042603Y-39966821D01*
X61038483Y-39970202D01*
X61033970Y-39973043D01*
X61031373Y-39976036D01*
X61019872Y-39985476D01*
X60877014Y-40128334D01*
X60867574Y-40139835D01*
X60864581Y-40142432D01*
X60861740Y-40146945D01*
X60858359Y-40151065D01*
X60856843Y-40154724D01*
X60848916Y-40167318D01*
X60706059Y-40453032D01*
X60695549Y-40480495D01*
X60695166Y-40485872D01*
X60693105Y-40490850D01*
X60690223Y-40520114D01*
X56141195Y-40520114D01*
X55411097Y-38329823D01*
X55399109Y-38302972D01*
X55392088Y-38294877D01*
X55387295Y-38285290D01*
X55373082Y-38272963D01*
X55360762Y-38258758D01*
X55351179Y-38253966D01*
X55343080Y-38246942D01*
X55325232Y-38240992D01*
X55308415Y-38232584D01*
X55297727Y-38231824D01*
X55287556Y-38228434D01*
X55268790Y-38229767D01*
X55250034Y-38228435D01*
X55239866Y-38231824D01*
X55229176Y-38232584D01*
X55212352Y-38240995D01*
X55194510Y-38246943D01*
X55186415Y-38253963D01*
X55176828Y-38258757D01*
X55164502Y-38272968D01*
X55150296Y-38285290D01*
X55145503Y-38294874D01*
X55138481Y-38302972D01*
X55126493Y-38329823D01*
X54126493Y-41329823D01*
X54119973Y-41358496D01*
X53702038Y-41358496D01*
X53701627Y-41357028D01*
X53701627Y-41347993D01*
X53693795Y-41329087D01*
X53688271Y-41309375D01*
X53680740Y-41297569D01*
X53679229Y-41293921D01*
X53676975Y-41291667D01*
X53672457Y-41284584D01*
X52291701Y-39527257D01*
X53554509Y-39527257D01*
X53583773Y-39524375D01*
X53637845Y-39501977D01*
X53679229Y-39460593D01*
X53701627Y-39406521D01*
X53701627Y-39347993D01*
X53679229Y-39293921D01*
X53637845Y-39252537D01*
X53583773Y-39230139D01*
X53554509Y-39227257D01*
X51983081Y-39227257D01*
X51974718Y-39228080D01*
X51971555Y-39227701D01*
X51967752Y-39228766D01*
X51953817Y-39230139D01*
X51934908Y-39237971D01*
X51915199Y-39243495D01*
X51908091Y-39249079D01*
X51899745Y-39252537D01*
X51885274Y-39267007D01*
X51869178Y-39279655D01*
X51864749Y-39287532D01*
X51858361Y-39293921D01*
X51850527Y-39312833D01*
X51840498Y-39330674D01*
X51839421Y-39339643D01*
X51835963Y-39347993D01*
X51835963Y-39368466D01*
X51833525Y-39388783D01*
X50990224Y-39388783D01*
X50990224Y-39377257D01*
X50987342Y-39347993D01*
X50964944Y-39293921D01*
X50923560Y-39252537D01*
X50869488Y-39230139D01*
X50810960Y-39230139D01*
X50756888Y-39252537D01*
X50715504Y-39293921D01*
X50693106Y-39347993D01*
X50690224Y-39377257D01*
X49844485Y-39377257D01*
X49844485Y-39347993D01*
X49822087Y-39293921D01*
X49780703Y-39252537D01*
X49726631Y-39230139D01*
X49697367Y-39227257D01*
X48125939Y-39227257D01*
X48117576Y-39228080D01*
X48114413Y-39227701D01*
X48110610Y-39228766D01*
X48096675Y-39230139D01*
X48077766Y-39237971D01*
X48058057Y-39243495D01*
X48050949Y-39249079D01*
X48042603Y-39252537D01*
X48028132Y-39267007D01*
X48012036Y-39279655D01*
X48007607Y-39287532D01*
X48001219Y-39293921D01*
X47993385Y-39312833D01*
X47983356Y-39330674D01*
X47982279Y-39339643D01*
X47978821Y-39347993D01*
X47978821Y-39368466D01*
X47976383Y-39388783D01*
X47643050Y-39388783D01*
X47643050Y-38490851D01*
X50550249Y-38490851D01*
X50550249Y-38549377D01*
X50572646Y-38603449D01*
X50591301Y-38626180D01*
X50734158Y-38769037D01*
X50756888Y-38787692D01*
X50795123Y-38803528D01*
X50810960Y-38810089D01*
X50810961Y-38810089D01*
X50869487Y-38810089D01*
X50869488Y-38810089D01*
X50891885Y-38800811D01*
X50923559Y-38787692D01*
X50923560Y-38787691D01*
X50946290Y-38769037D01*
X51089147Y-38626180D01*
X51107802Y-38603450D01*
X51130199Y-38549377D01*
X51130199Y-38490851D01*
X51107802Y-38436779D01*
X51107802Y-38436778D01*
X51089147Y-38414048D01*
X50946290Y-38271191D01*
X50923559Y-38252536D01*
X50891885Y-38239416D01*
X50869488Y-38230139D01*
X50810960Y-38230139D01*
X50795123Y-38236699D01*
X50756888Y-38252536D01*
X50734158Y-38271191D01*
X50591301Y-38414048D01*
X50572647Y-38436778D01*
X50572646Y-38436779D01*
X50550249Y-38490851D01*
X47643050Y-38490851D01*
X47643050Y-37893924D01*
X63037842Y-37893924D01*
X63037842Y-41860590D01*
G37*
G36*
X48997368Y-30848054D02*
G01*
X43607550Y-30848054D01*
X43607550Y-27339789D01*
X43940883Y-27339789D01*
X43941228Y-27368106D01*
X43941228Y-27396521D01*
X43941584Y-27397382D01*
X43941596Y-27398312D01*
X43950474Y-27426345D01*
X45236188Y-30426345D01*
X45250365Y-30452108D01*
X45292252Y-30492985D01*
X45346592Y-30514721D01*
X45405115Y-30514008D01*
X45458911Y-30490952D01*
X45499788Y-30449065D01*
X45521524Y-30394726D01*
X45520811Y-30336203D01*
X45511932Y-30308169D01*
X44315827Y-27517257D01*
X46088346Y-27517257D01*
X46117610Y-27514375D01*
X46171682Y-27491977D01*
X46213066Y-27450593D01*
X46235464Y-27396521D01*
X46235464Y-27337993D01*
X46655514Y-27337993D01*
X46655514Y-27396521D01*
X46677912Y-27450593D01*
X46719296Y-27491977D01*
X46773368Y-27514375D01*
X46802632Y-27517257D01*
X47509774Y-27517257D01*
X47509774Y-30367257D01*
X47512656Y-30396521D01*
X47535054Y-30450593D01*
X47576438Y-30491977D01*
X47630510Y-30514375D01*
X47689038Y-30514375D01*
X47743110Y-30491977D01*
X47784494Y-30450593D01*
X47806892Y-30396521D01*
X47809774Y-30367257D01*
X47809774Y-27517257D01*
X48516917Y-27517257D01*
X48546181Y-27514375D01*
X48600253Y-27491977D01*
X48641637Y-27450593D01*
X48664035Y-27396521D01*
X48664035Y-27337993D01*
X48641637Y-27283921D01*
X48600253Y-27242537D01*
X48546181Y-27220139D01*
X48516917Y-27217257D01*
X46802632Y-27217257D01*
X46773368Y-27220139D01*
X46719296Y-27242537D01*
X46677912Y-27283921D01*
X46655514Y-27337993D01*
X46235464Y-27337993D01*
X46213066Y-27283921D01*
X46171682Y-27242537D01*
X46117610Y-27220139D01*
X46088346Y-27217257D01*
X44088346Y-27217257D01*
X44059082Y-27220139D01*
X44058220Y-27220495D01*
X44057291Y-27220507D01*
X44031229Y-27231676D01*
X44005010Y-27242537D01*
X44004351Y-27243195D01*
X44003496Y-27243562D01*
X43983705Y-27263841D01*
X43963626Y-27283921D01*
X43963268Y-27284783D01*
X43962619Y-27285449D01*
X43952100Y-27311744D01*
X43941228Y-27337993D01*
X43941228Y-27338926D01*
X43940883Y-27339789D01*
X43607550Y-27339789D01*
X43607550Y-26883924D01*
X48997368Y-26883924D01*
X48997368Y-30848054D01*
G37*
D11*
%TO.P,H2,1,1*%
%TO.N,GND*%
X64000000Y-34500000D03*
D12*
X64000000Y-34500000D03*
%TD*%
D11*
%TO.P,H1,1,1*%
%TO.N,GND*%
X46000000Y-34500000D03*
D12*
X46000000Y-34500000D03*
%TD*%
D13*
%TO.P,J1,1,Pin_1*%
%TO.N,+3V3*%
X61030000Y-23540000D03*
D14*
%TO.P,J1,2,Pin_2*%
%TO.N,EN_ToF*%
X58490000Y-23540000D03*
%TO.P,J1,3,Pin_3*%
%TO.N,GND*%
X55950000Y-23540000D03*
%TO.P,J1,4,Pin_4*%
%TO.N,I2C_CLK*%
X53410000Y-23540000D03*
%TO.P,J1,5,Pin_5*%
%TO.N,I2C_DATA*%
X50870000Y-23540000D03*
%TD*%
D15*
%TO.N,GND*%
X56262000Y-36250000D03*
X55750719Y-26103309D03*
X51000000Y-27250000D03*
%TO.N,EN_ToF*%
X60250000Y-28000000D03*
X54512000Y-34275000D03*
%TD*%
D16*
%TO.N,EN_ToF*%
X60250000Y-32000000D02*
X60250000Y-28000000D01*
X54512000Y-34275000D02*
X57975000Y-34275000D01*
X57975000Y-34275000D02*
X60250000Y-32000000D01*
%TD*%
%TA.AperFunction,Conductor*%
%TO.N,GND*%
G36*
X67168691Y-21559407D02*
G01*
X67204655Y-21608907D01*
X67209500Y-21639500D01*
X67209500Y-42110500D01*
X67190593Y-42168691D01*
X67141093Y-42204655D01*
X67110500Y-42209500D01*
X42889500Y-42209500D01*
X42831309Y-42190593D01*
X42795345Y-42141093D01*
X42790500Y-42110500D01*
X42790500Y-41534708D01*
X47968489Y-41534708D01*
X47968490Y-41534708D01*
X62711233Y-41534708D01*
X62711234Y-41534708D01*
X62711234Y-38220532D01*
X47968489Y-38220532D01*
X47968489Y-41534708D01*
X42790500Y-41534708D01*
X42790500Y-34188385D01*
X53411500Y-34188385D01*
X53411500Y-34361614D01*
X53438597Y-34532702D01*
X53438598Y-34532706D01*
X53492123Y-34697438D01*
X53492125Y-34697441D01*
X53492126Y-34697444D01*
X53492127Y-34697445D01*
X53570768Y-34851788D01*
X53672586Y-34991928D01*
X53795072Y-35114414D01*
X53935212Y-35216232D01*
X54089555Y-35294873D01*
X54089557Y-35294873D01*
X54089558Y-35294874D01*
X54089561Y-35294876D01*
X54254293Y-35348401D01*
X54254297Y-35348402D01*
X54425386Y-35375500D01*
X54425389Y-35375500D01*
X54598614Y-35375500D01*
X54769702Y-35348402D01*
X54769706Y-35348401D01*
X54934438Y-35294876D01*
X54934440Y-35294874D01*
X54934445Y-35294873D01*
X55088788Y-35216232D01*
X55228928Y-35114414D01*
X55351414Y-34991928D01*
X55453232Y-34851788D01*
X55528250Y-34704554D01*
X55571514Y-34661291D01*
X55616460Y-34650500D01*
X58024436Y-34650500D01*
X58072186Y-34637705D01*
X58072187Y-34637705D01*
X58119934Y-34624911D01*
X58119933Y-34624911D01*
X58119938Y-34624910D01*
X58205562Y-34575475D01*
X58275475Y-34505562D01*
X58275474Y-34505562D01*
X60550475Y-32230563D01*
X60575192Y-32187750D01*
X60599910Y-32144938D01*
X60625500Y-32049435D01*
X60625500Y-29104460D01*
X60644407Y-29046269D01*
X60679554Y-29016250D01*
X60826788Y-28941232D01*
X60966928Y-28839414D01*
X61089414Y-28716928D01*
X61191232Y-28576788D01*
X61269873Y-28422445D01*
X61269874Y-28422440D01*
X61269876Y-28422438D01*
X61323401Y-28257706D01*
X61323402Y-28257702D01*
X61350500Y-28086614D01*
X61350500Y-27913385D01*
X61323402Y-27742297D01*
X61323401Y-27742293D01*
X61269876Y-27577561D01*
X61269874Y-27577558D01*
X61269873Y-27577557D01*
X61269873Y-27577555D01*
X61191232Y-27423212D01*
X61089414Y-27283072D01*
X60966928Y-27160586D01*
X60826788Y-27058768D01*
X60826787Y-27058767D01*
X60826785Y-27058766D01*
X60672441Y-26980125D01*
X60672438Y-26980123D01*
X60507706Y-26926598D01*
X60507702Y-26926597D01*
X60336614Y-26899500D01*
X60336611Y-26899500D01*
X60163389Y-26899500D01*
X60163386Y-26899500D01*
X59992297Y-26926597D01*
X59992293Y-26926598D01*
X59827561Y-26980123D01*
X59827558Y-26980125D01*
X59673214Y-27058766D01*
X59533073Y-27160585D01*
X59410585Y-27283073D01*
X59308766Y-27423214D01*
X59230125Y-27577558D01*
X59230123Y-27577561D01*
X59176598Y-27742293D01*
X59176597Y-27742297D01*
X59149500Y-27913385D01*
X59149500Y-28086614D01*
X59176597Y-28257702D01*
X59176598Y-28257706D01*
X59230123Y-28422438D01*
X59230125Y-28422441D01*
X59230126Y-28422444D01*
X59230127Y-28422445D01*
X59308768Y-28576788D01*
X59410586Y-28716928D01*
X59533072Y-28839414D01*
X59634891Y-28913390D01*
X59673213Y-28941233D01*
X59763916Y-28987447D01*
X59820445Y-29016250D01*
X59863709Y-29059514D01*
X59874500Y-29104460D01*
X59874500Y-31803454D01*
X59855593Y-31861645D01*
X59845504Y-31873458D01*
X57848459Y-33870504D01*
X57793942Y-33898281D01*
X57778455Y-33899500D01*
X55616460Y-33899500D01*
X55558269Y-33880593D01*
X55528250Y-33845445D01*
X55453233Y-33698213D01*
X55425390Y-33659891D01*
X55351414Y-33558072D01*
X55228928Y-33435586D01*
X55088788Y-33333768D01*
X55088787Y-33333767D01*
X55088785Y-33333766D01*
X54934441Y-33255125D01*
X54934438Y-33255123D01*
X54769706Y-33201598D01*
X54769702Y-33201597D01*
X54598614Y-33174500D01*
X54598611Y-33174500D01*
X54425389Y-33174500D01*
X54425386Y-33174500D01*
X54254297Y-33201597D01*
X54254293Y-33201598D01*
X54089561Y-33255123D01*
X54089558Y-33255125D01*
X53935214Y-33333766D01*
X53795073Y-33435585D01*
X53672585Y-33558073D01*
X53570766Y-33698214D01*
X53492125Y-33852558D01*
X53492123Y-33852561D01*
X53438598Y-34017293D01*
X53438597Y-34017297D01*
X53411500Y-34188385D01*
X42790500Y-34188385D01*
X42790500Y-30522610D01*
X43932993Y-30522610D01*
X43932994Y-30522610D01*
X48671916Y-30522610D01*
X48671917Y-30522610D01*
X48671917Y-27211904D01*
X43932993Y-27211904D01*
X43932993Y-30522610D01*
X42790500Y-30522610D01*
X42790500Y-23436532D01*
X49819500Y-23436532D01*
X49819500Y-23643467D01*
X49859869Y-23846418D01*
X49939058Y-24037597D01*
X50054020Y-24209651D01*
X50054023Y-24209655D01*
X50200345Y-24355977D01*
X50372402Y-24470941D01*
X50563580Y-24550130D01*
X50766535Y-24590500D01*
X50766536Y-24590500D01*
X50973464Y-24590500D01*
X50973465Y-24590500D01*
X51176420Y-24550130D01*
X51367598Y-24470941D01*
X51539655Y-24355977D01*
X51685977Y-24209655D01*
X51800941Y-24037598D01*
X51880130Y-23846420D01*
X51920500Y-23643465D01*
X51920500Y-23436535D01*
X51920499Y-23436532D01*
X52359500Y-23436532D01*
X52359500Y-23643467D01*
X52399869Y-23846418D01*
X52479058Y-24037597D01*
X52594020Y-24209651D01*
X52594023Y-24209655D01*
X52740345Y-24355977D01*
X52912402Y-24470941D01*
X53103580Y-24550130D01*
X53306535Y-24590500D01*
X53306536Y-24590500D01*
X53513464Y-24590500D01*
X53513465Y-24590500D01*
X53716420Y-24550130D01*
X53907598Y-24470941D01*
X54079655Y-24355977D01*
X54225977Y-24209655D01*
X54340941Y-24037598D01*
X54420130Y-23846420D01*
X54429762Y-23797996D01*
X54459656Y-23744613D01*
X54515221Y-23718996D01*
X54575231Y-23730932D01*
X54616764Y-23775861D01*
X54624640Y-23801822D01*
X54633241Y-23856122D01*
X54698904Y-24058215D01*
X54795376Y-24247553D01*
X54795380Y-24247559D01*
X54834728Y-24301716D01*
X54834729Y-24301716D01*
X55467037Y-23669407D01*
X55484075Y-23732993D01*
X55549901Y-23847007D01*
X55642993Y-23940099D01*
X55757007Y-24005925D01*
X55820589Y-24022962D01*
X55188282Y-24655269D01*
X55188282Y-24655270D01*
X55242440Y-24694619D01*
X55242446Y-24694623D01*
X55431784Y-24791095D01*
X55633878Y-24856759D01*
X55843750Y-24890000D01*
X56056250Y-24890000D01*
X56266121Y-24856759D01*
X56468215Y-24791095D01*
X56657556Y-24694620D01*
X56711716Y-24655270D01*
X56079408Y-24022962D01*
X56142993Y-24005925D01*
X56257007Y-23940099D01*
X56350099Y-23847007D01*
X56415925Y-23732993D01*
X56432962Y-23669408D01*
X57065270Y-24301716D01*
X57104620Y-24247556D01*
X57201095Y-24058215D01*
X57266759Y-23856121D01*
X57275359Y-23801823D01*
X57303136Y-23747307D01*
X57357653Y-23719529D01*
X57418085Y-23729100D01*
X57461349Y-23772365D01*
X57470238Y-23797996D01*
X57479869Y-23846418D01*
X57559058Y-24037597D01*
X57674020Y-24209651D01*
X57674023Y-24209655D01*
X57820345Y-24355977D01*
X57992402Y-24470941D01*
X58183580Y-24550130D01*
X58386535Y-24590500D01*
X58386536Y-24590500D01*
X58593464Y-24590500D01*
X58593465Y-24590500D01*
X58796420Y-24550130D01*
X58987598Y-24470941D01*
X59159655Y-24355977D01*
X59305977Y-24209655D01*
X59420941Y-24037598D01*
X59500130Y-23846420D01*
X59540500Y-23643465D01*
X59540500Y-23436535D01*
X59500130Y-23233580D01*
X59420941Y-23042402D01*
X59305977Y-22870345D01*
X59159655Y-22724023D01*
X59079182Y-22670253D01*
X59979500Y-22670253D01*
X59979500Y-24409746D01*
X59979501Y-24409758D01*
X59991132Y-24468227D01*
X59991134Y-24468233D01*
X60029783Y-24526074D01*
X60035448Y-24534552D01*
X60101769Y-24578867D01*
X60146231Y-24587711D01*
X60160241Y-24590498D01*
X60160246Y-24590498D01*
X60160252Y-24590500D01*
X60160253Y-24590500D01*
X61899747Y-24590500D01*
X61899748Y-24590500D01*
X61958231Y-24578867D01*
X62024552Y-24534552D01*
X62068867Y-24468231D01*
X62080500Y-24409748D01*
X62080500Y-22670252D01*
X62068867Y-22611769D01*
X62024552Y-22545448D01*
X62024548Y-22545445D01*
X61958233Y-22501134D01*
X61958231Y-22501133D01*
X61958228Y-22501132D01*
X61958227Y-22501132D01*
X61899758Y-22489501D01*
X61899748Y-22489500D01*
X60160252Y-22489500D01*
X60160251Y-22489500D01*
X60160241Y-22489501D01*
X60101772Y-22501132D01*
X60101766Y-22501134D01*
X60035451Y-22545445D01*
X60035445Y-22545451D01*
X59991134Y-22611766D01*
X59991132Y-22611772D01*
X59979501Y-22670241D01*
X59979500Y-22670253D01*
X59079182Y-22670253D01*
X58987597Y-22609058D01*
X58796418Y-22529869D01*
X58593467Y-22489500D01*
X58593465Y-22489500D01*
X58386535Y-22489500D01*
X58386532Y-22489500D01*
X58183581Y-22529869D01*
X57992402Y-22609058D01*
X57820348Y-22724020D01*
X57674020Y-22870348D01*
X57559058Y-23042402D01*
X57479869Y-23233581D01*
X57470238Y-23282003D01*
X57440341Y-23335387D01*
X57384776Y-23361003D01*
X57324766Y-23349066D01*
X57283234Y-23304136D01*
X57275359Y-23278176D01*
X57266759Y-23223878D01*
X57201095Y-23021784D01*
X57104623Y-22832446D01*
X57104619Y-22832440D01*
X57065270Y-22778282D01*
X57065269Y-22778282D01*
X56432962Y-23410589D01*
X56415925Y-23347007D01*
X56350099Y-23232993D01*
X56257007Y-23139901D01*
X56142993Y-23074075D01*
X56079407Y-23057037D01*
X56711716Y-22424729D01*
X56711716Y-22424728D01*
X56657559Y-22385380D01*
X56657553Y-22385376D01*
X56468215Y-22288904D01*
X56266121Y-22223240D01*
X56056250Y-22190000D01*
X55843750Y-22190000D01*
X55633878Y-22223240D01*
X55431784Y-22288904D01*
X55242446Y-22385376D01*
X55242442Y-22385378D01*
X55188282Y-22424728D01*
X55820591Y-23057037D01*
X55757007Y-23074075D01*
X55642993Y-23139901D01*
X55549901Y-23232993D01*
X55484075Y-23347007D01*
X55467037Y-23410591D01*
X54834728Y-22778282D01*
X54795378Y-22832442D01*
X54795376Y-22832446D01*
X54698904Y-23021784D01*
X54633241Y-23223877D01*
X54624640Y-23278177D01*
X54596862Y-23332694D01*
X54542345Y-23360470D01*
X54481913Y-23350898D01*
X54438649Y-23307633D01*
X54429762Y-23282006D01*
X54420130Y-23233580D01*
X54340941Y-23042402D01*
X54225977Y-22870345D01*
X54079655Y-22724023D01*
X53999182Y-22670253D01*
X53907597Y-22609058D01*
X53833937Y-22578547D01*
X53716420Y-22529870D01*
X53716418Y-22529869D01*
X53513467Y-22489500D01*
X53513465Y-22489500D01*
X53306535Y-22489500D01*
X53306532Y-22489500D01*
X53103581Y-22529869D01*
X52912402Y-22609058D01*
X52740348Y-22724020D01*
X52594020Y-22870348D01*
X52479058Y-23042402D01*
X52399869Y-23233581D01*
X52359500Y-23436532D01*
X51920499Y-23436532D01*
X51880130Y-23233580D01*
X51800941Y-23042402D01*
X51685977Y-22870345D01*
X51539655Y-22724023D01*
X51459182Y-22670253D01*
X51367597Y-22609058D01*
X51176418Y-22529869D01*
X50973467Y-22489500D01*
X50973465Y-22489500D01*
X50766535Y-22489500D01*
X50766532Y-22489500D01*
X50563581Y-22529869D01*
X50372402Y-22609058D01*
X50200348Y-22724020D01*
X50054020Y-22870348D01*
X49939058Y-23042402D01*
X49859869Y-23233581D01*
X49819500Y-23436532D01*
X42790500Y-23436532D01*
X42790500Y-21639500D01*
X42809407Y-21581309D01*
X42858907Y-21545345D01*
X42889500Y-21540500D01*
X67110500Y-21540500D01*
X67168691Y-21559407D01*
G37*
%TD.AperFunction*%
%TD*%
M02*
