M48
; DRILL file {KiCad 9.0.4} date 2026-03-05T01:37:05+0000
; FORMAT={-:-/ absolute / metric / decimal}
; #@! TF.CreationDate,2026-03-05T01:37:05+00:00
; #@! TF.GenerationSoftware,Kicad,Pcbnew,9.0.4
; #@! TF.FileFunction,MixedPlating,1,2
FMAT,2
METRIC
; #@! TA.AperFunction,Plated,PTH,ComponentDrill
T1C0.900
; #@! TA.AperFunction,Plated,PTH,ViaDrill
T2C1.000
; #@! TA.AperFunction,Plated,PTH,ComponentDrill
T3C1.000
; #@! TA.AperFunction,Plated,PTH,ComponentDrill
T4C1.100
%
G90
G05
T1
X108.65Y-53.0
X115.15Y-53.0
T2
X95.99Y-28.25
X99.0Y-51.0
X100.25Y-26.5
X100.8Y-52.75
X102.25Y-56.75
X104.875Y-57.125
X105.25Y-34.1
X105.25Y-37.58
X105.25Y-40.9
X108.825Y-34.0
X108.825Y-41.0
X112.4Y-34.1
X112.4Y-40.9
X112.5Y-37.58
X113.75Y-27.0
X119.6Y-17.8
X123.892Y-35.282
X124.0Y-55.25
X124.151Y-31.639
X126.5Y-19.5
T3
X93.96Y-59.75
X93.98Y-22.0
X93.98Y-24.54
X93.98Y-27.08
X93.98Y-29.62
X93.98Y-32.16
X93.98Y-34.7
X93.98Y-37.24
X93.98Y-39.78
X93.98Y-42.32
X93.98Y-44.86
X93.98Y-47.4
X93.98Y-49.94
X93.98Y-52.48
X93.98Y-55.02
X96.5Y-59.75
X99.04Y-59.75
X101.58Y-59.75
X107.96Y-59.75
X110.5Y-59.75
X113.04Y-59.75
X115.58Y-59.75
X122.0Y-59.75
X124.54Y-59.75
X127.0Y-22.02
X127.0Y-24.56
X127.0Y-27.1
X127.0Y-29.64
X127.0Y-32.18
X127.0Y-34.72
X127.0Y-37.26
X127.0Y-39.8
X127.0Y-42.34
X127.0Y-44.88
X127.0Y-47.42
X127.0Y-49.96
X127.0Y-52.5
X127.0Y-55.04
X127.08Y-59.75
T4
X116.5Y-25.25
X119.04Y-25.25
X121.58Y-25.25
M30
