M48
; DRILL file {KiCad 9.0.4} date 2026-03-18T07:23:37+0000
; FORMAT={-:-/ absolute / metric / decimal}
; #@! TF.CreationDate,2026-03-18T07:23:37+00:00
; #@! TF.GenerationSoftware,Kicad,Pcbnew,9.0.4
; #@! TF.FileFunction,MixedPlating,1,2
FMAT,2
METRIC
; #@! TA.AperFunction,Plated,PTH,ComponentDrill
T1C0.800
; #@! TA.AperFunction,Plated,PTH,ViaDrill
T2C1.000
; #@! TA.AperFunction,Plated,PTH,ComponentDrill
T3C1.190
; #@! TA.AperFunction,NonPlated,NPTH,ComponentDrill
T4C3.200
%
G90
G05
T1
X57.4Y-70.09
X57.4Y-77.71
X60.1Y-70.04
X60.1Y-77.66
X62.8Y-69.09
X62.8Y-76.71
X65.4Y-67.88
X65.4Y-75.5
X69.355Y-61.51
X69.355Y-64.05
X69.355Y-66.59
X69.355Y-69.13
X69.355Y-71.67
X69.355Y-74.21
X69.355Y-76.75
X69.355Y-79.29
X74.29Y-97.15
X76.975Y-61.51
X76.975Y-64.05
X76.975Y-66.59
X76.975Y-69.13
X76.975Y-71.67
X76.975Y-74.21
X76.975Y-76.75
X76.975Y-79.29
X79.85Y-66.84
X79.85Y-74.46
X81.91Y-97.15
X82.75Y-66.89
X82.75Y-74.51
X83.9Y-54.4
X83.9Y-62.02
X84.04Y-97.15
X85.5Y-64.64
X85.5Y-72.26
X86.4Y-54.4
X86.4Y-62.02
X88.0Y-65.24
X88.0Y-72.86
X88.9Y-54.4
X88.9Y-62.02
X91.5Y-54.39
X91.5Y-62.01
X91.66Y-97.15
X93.06Y-47.9
X93.84Y-97.15
X95.27Y-61.21
X95.27Y-63.75
X95.27Y-66.29
X95.27Y-68.83
X95.27Y-71.37
X95.27Y-73.91
X95.27Y-76.45
X95.27Y-78.99
X95.6Y-47.9
X98.14Y-47.9
X101.46Y-97.15
X102.89Y-61.21
X102.89Y-63.75
X102.89Y-66.29
X102.89Y-68.83
X102.89Y-71.37
X102.89Y-73.91
X102.89Y-76.45
X102.89Y-78.99
X103.64Y-97.15
X109.0Y-59.69
X109.0Y-67.31
X111.26Y-97.15
X111.55Y-61.84
X111.55Y-69.46
X114.15Y-66.43
X114.15Y-74.05
X116.65Y-61.04
X116.65Y-68.66
X117.69Y-83.95
X119.942Y-61.31
X119.942Y-63.85
X119.942Y-66.39
X119.942Y-68.93
X119.942Y-71.47
X119.942Y-74.01
X119.942Y-76.55
X119.942Y-79.09
X121.39Y-86.55
X125.31Y-83.95
X127.562Y-61.31
X127.562Y-63.85
X127.562Y-66.39
X127.562Y-68.93
X127.562Y-71.47
X127.562Y-74.01
X127.562Y-76.55
X127.562Y-79.09
X129.01Y-86.55
T2
X54.0Y-94.0
X54.7Y-62.8
X59.0Y-57.0
X59.53Y-63.504
X61.191Y-61.842
X65.283Y-60.383
X66.9Y-79.4
X67.7Y-52.1
X71.18Y-53.079
X71.598Y-58.914
X71.953Y-56.591
X72.0Y-64.0
X72.9Y-76.7
X73.528Y-52.999
X75.153Y-85.101
X79.7Y-76.79
X80.349Y-79.503
X85.0Y-50.8
X86.423Y-67.827
X89.24Y-68.212
X90.0Y-87.05
X91.581Y-68.422
X92.297Y-87.546
X92.5Y-52.2
X92.65Y-76.45
X93.05Y-79.001
X95.25Y-87.3
X96.0Y-58.0
X98.0Y-84.593
X98.99Y-58.17
X99.0Y-63.65
X103.745Y-84.645
X104.14Y-47.98
X105.801Y-78.991
X105.801Y-76.491
X116.284Y-73.267
X117.0Y-50.0
X117.108Y-79.2
X117.416Y-76.87
X124.2Y-63.65
X130.4Y-76.59
X131.949Y-78.552
T3
X49.4Y-60.18
X49.4Y-62.72
X49.4Y-65.26
X49.4Y-67.8
X49.4Y-70.34
X49.4Y-72.88
X49.4Y-75.42
X49.4Y-77.96
X57.38Y-90.5
X59.92Y-90.5
X62.46Y-90.5
X65.0Y-90.5
X67.15Y-47.92
X67.54Y-90.5
X69.69Y-47.92
X70.08Y-90.5
X72.23Y-47.92
X72.62Y-90.5
X74.77Y-47.92
X75.16Y-90.5
X77.31Y-47.92
X77.7Y-90.5
X79.85Y-47.92
X80.24Y-90.5
X82.39Y-47.92
X84.0Y-90.5
X84.93Y-47.92
X86.54Y-90.5
X87.47Y-47.92
X89.08Y-90.5
X90.01Y-47.92
X91.62Y-90.5
X94.16Y-90.5
X96.7Y-90.5
X99.24Y-90.5
X101.78Y-90.5
X105.5Y-90.5
X108.04Y-90.5
X110.58Y-90.5
X113.12Y-90.5
X115.66Y-90.5
X118.2Y-90.5
T4
X49.0Y-46.12
X49.0Y-96.58
X134.0Y-46.0
X134.0Y-96.46
M30
