M48
; DRILL file {KiCad 9.0.4} date 2026-03-23T09:13:16+0000
; FORMAT={-:-/ absolute / metric / decimal}
; #@! TF.CreationDate,2026-03-23T09:13:16+00:00
; #@! TF.GenerationSoftware,Kicad,Pcbnew,9.0.4
; #@! TF.FileFunction,Plated,1,2,PTH
FMAT,2
METRIC
; #@! TA.AperFunction,Plated,PTH,ComponentDrill
T1C0.800
; #@! TA.AperFunction,Plated,PTH,ViaDrill
T2C0.900
; #@! TA.AperFunction,Plated,PTH,ComponentDrill
T3C0.900
; #@! TA.AperFunction,Plated,PTH,ComponentDrill
T4C1.000
; #@! TA.AperFunction,Plated,PTH,ComponentDrill
T5C1.190
; #@! TA.AperFunction,Plated,PTH,ComponentDrill
T6C1.300
; #@! TA.AperFunction,Plated,PTH,ComponentDrill
T7C1.600
; #@! TA.AperFunction,Plated,PTH,ComponentDrill
T8C3.000
; #@! TA.AperFunction,Plated,PTH,ComponentDrill
T9C3.200
%
G90
G05
T1
X56.75Y-176.25
X56.75Y-183.87
X77.61Y-175.52
X77.61Y-178.06
X77.61Y-180.6
X85.5Y-175.52
X85.5Y-178.06
X85.5Y-180.6
X100.5Y-171.75
X103.04Y-171.75
X105.58Y-171.75
X108.5Y-171.75
X111.04Y-171.75
X113.58Y-171.75
T2
X36.25Y-147.25
X38.75Y-182.0
X43.5Y-108.75
X47.5Y-135.5
X53.25Y-167.5
X61.75Y-157.25
X66.0Y-197.0
X67.229Y-113.733
X67.5Y-131.75
X91.893Y-185.357
X94.5Y-53.0
X96.5Y-166.5
X99.5Y-155.75
X107.25Y-166.0
X108.0Y-42.5
X108.0Y-88.0
X112.25Y-30.25
X113.0Y-34.25
X114.25Y-141.5
X118.25Y-157.5
X120.0Y-59.5
X120.0Y-116.5
X127.9Y-101.25
X127.9Y-106.75
X128.19Y-76.75
X129.75Y-87.25
X130.089Y-81.661
X130.5Y-157.75
X133.25Y-170.0
X137.5Y-65.5
X138.496Y-108.036
X138.5Y-117.75
X138.673Y-112.327
X138.75Y-103.25
X138.75Y-105.75
X138.75Y-115.0
X139.497Y-66.641
X139.75Y-27.75
X142.75Y-68.0
X143.25Y-152.0
X143.615Y-172.135
X143.762Y-174.43
X144.25Y-185.0
X145.0Y-154.0
X149.0Y-159.5
X150.5Y-179.25
X152.75Y-141.5
X158.0Y-137.75
X158.25Y-170.25
X161.0Y-157.75
X162.5Y-62.25
X165.0Y-131.7
X167.298Y-161.048
X167.5Y-133.5
X167.5Y-150.75
X168.75Y-174.75
X169.25Y-178.0
X171.75Y-56.0
X173.0Y-68.134
X175.5Y-64.734
X176.25Y-31.0
X176.25Y-154.0
X176.25Y-162.75
X178.49Y-39.0
X178.5Y-169.0
X178.5Y-176.0
X179.25Y-182.75
X180.75Y-39.5
X181.5Y-59.0
X182.75Y-31.0
X182.75Y-132.5
X183.0Y-40.25
X183.0Y-100.0
X187.0Y-133.25
X188.75Y-39.75
X189.75Y-132.25
X191.45Y-119.944
X192.75Y-171.25
X194.25Y-120.75
X195.0Y-28.25
X197.0Y-123.5
X197.724Y-100.724
X198.0Y-119.25
X201.0Y-188.0
X201.5Y-115.11
T3
X60.747Y-113.632
X60.747Y-116.172
X60.747Y-118.712
X60.747Y-121.252
X60.747Y-123.792
X60.747Y-126.332
X60.747Y-128.873
X60.747Y-131.412
X60.747Y-139.727
X60.747Y-142.267
X139.75Y-146.96
X139.75Y-149.5
X139.75Y-152.04
X139.75Y-154.58
X139.75Y-157.12
X139.75Y-159.66
X139.75Y-162.2
X139.75Y-164.74
X139.75Y-167.28
X139.75Y-169.82
X139.75Y-172.36
X139.75Y-174.9
X139.75Y-177.44
X139.75Y-179.98
X172.77Y-146.98
X172.77Y-149.52
X172.77Y-152.06
X172.77Y-154.6
X172.77Y-157.14
X172.77Y-159.68
X172.77Y-162.22
X172.77Y-164.76
X172.77Y-167.3
X172.77Y-169.84
X172.77Y-172.38
X172.77Y-174.92
X172.77Y-177.46
X172.77Y-180.0
X203.8Y-93.77
X203.8Y-96.31
X203.8Y-98.85
X203.8Y-101.39
X203.95Y-110.03
X203.95Y-112.57
X203.95Y-115.11
X203.95Y-117.65
X210.65Y-100.65
X210.65Y-103.21
X210.65Y-105.75
X210.65Y-108.29
X210.65Y-110.83
X222.35Y-72.12
X222.375Y-138.67
X224.89Y-72.12
X224.915Y-138.67
T4
X66.0Y-177.77
X66.0Y-182.85
X132.3Y-79.782
X132.3Y-82.322
X132.3Y-84.862
X132.3Y-87.402
X132.3Y-89.942
X132.3Y-92.482
X132.3Y-95.022
X132.3Y-97.562
X132.3Y-102.642
X132.3Y-105.182
X132.3Y-107.722
X132.3Y-110.262
X132.3Y-112.802
X132.3Y-115.342
X134.84Y-79.782
X134.84Y-82.322
X134.84Y-84.862
X134.84Y-87.402
X134.84Y-89.942
X134.84Y-92.482
X134.84Y-95.022
X134.84Y-97.562
X134.84Y-102.642
X134.84Y-105.182
X134.84Y-107.722
X134.84Y-110.262
X134.84Y-112.802
X134.84Y-115.342
X178.02Y-70.892
X178.02Y-73.432
X178.02Y-75.972
X178.02Y-78.512
X178.02Y-81.052
X178.02Y-83.592
X178.02Y-86.132
X178.02Y-88.672
X178.02Y-91.212
X178.02Y-93.752
X178.02Y-97.562
X178.02Y-100.102
X178.02Y-102.642
X178.02Y-105.182
X178.02Y-107.722
X178.02Y-110.262
X178.02Y-112.802
X178.02Y-115.342
X180.56Y-70.892
X180.56Y-73.432
X180.56Y-75.972
X180.56Y-78.512
X180.56Y-81.052
X180.56Y-83.592
X180.56Y-86.132
X180.56Y-88.672
X180.56Y-91.212
X180.56Y-93.752
X180.56Y-97.562
X180.56Y-100.102
X180.56Y-102.642
X180.56Y-105.182
X180.56Y-107.722
X180.56Y-110.262
X180.56Y-112.802
X180.56Y-115.342
T5
X56.42Y-25.5
X58.96Y-25.5
X61.5Y-25.5
X64.04Y-25.5
X99.42Y-25.5
X101.96Y-25.5
X102.88Y-182.75
X104.5Y-25.5
X105.42Y-182.75
X107.04Y-25.5
X107.96Y-182.75
X110.5Y-182.75
X171.51Y-35.75
X171.55Y-25.75
X171.71Y-46.0
X174.05Y-35.75
X174.09Y-25.75
X174.25Y-46.0
X176.59Y-35.75
X176.63Y-25.75
X176.79Y-46.0
X179.13Y-35.75
X179.17Y-25.75
X179.33Y-46.0
X181.67Y-35.75
X181.71Y-25.75
X181.87Y-46.0
X183.3Y-183.5
X184.21Y-35.75
X184.25Y-25.75
X184.41Y-46.0
X185.84Y-183.5
X186.75Y-35.75
X186.79Y-25.75
X186.95Y-46.0
X188.38Y-183.5
X189.29Y-35.75
X189.33Y-25.75
X189.49Y-46.0
X190.92Y-183.5
X191.98Y-153.73
X192.23Y-56.0
X193.46Y-183.5
X194.52Y-153.73
X194.77Y-56.0
X196.0Y-183.5
X198.54Y-183.5
X198.73Y-153.73
X198.98Y-56.0
X201.08Y-183.5
X201.27Y-153.73
X201.52Y-56.0
X203.62Y-183.5
X206.16Y-183.5
T6
X122.75Y-177.75
X129.25Y-177.75
X139.25Y-34.75
X145.75Y-34.75
T7
X40.88Y-141.25
X56.12Y-141.25
X203.76Y-130.0
X203.88Y-81.0
X219.0Y-130.0
X219.12Y-81.0
T8
X199.6Y-69.62
X199.6Y-138.62
X243.35Y-69.67
X243.35Y-138.67
T9
X13.497Y-70.302
X13.497Y-143.343
X66.047Y-70.192
X66.097Y-105.192
M30
