M48
; DRILL file {KiCad 9.0.4} date 2026-01-29T23:05:23+0000
; FORMAT={-:-/ absolute / metric / decimal}
; #@! TF.CreationDate,2026-01-29T23:05:23+00:00
; #@! TF.GenerationSoftware,Kicad,Pcbnew,9.0.4
; #@! TF.FileFunction,Plated,1,2,PTH
FMAT,2
METRIC
; #@! TA.AperFunction,Plated,PTH,ComponentDrill
T1C0.800
; #@! TA.AperFunction,Plated,PTH,ViaDrill
T2C1.000
; #@! TA.AperFunction,Plated,PTH,ComponentDrill
T3C1.000
; #@! TA.AperFunction,Plated,PTH,ComponentDrill
T4C5.300
%
G90
G05
T1
X105.88Y-41.96
X105.88Y-44.5
X105.88Y-47.04
X105.88Y-49.58
X107.16Y-59.83
X109.7Y-57.29
X112.24Y-59.83
X113.5Y-41.96
X113.5Y-44.5
X113.5Y-47.04
X113.5Y-49.58
T2
X102.1Y-29.84
X103.164Y-51.136
X103.9Y-38.9
X107.3Y-57.3
X107.442Y-49.381
X108.0Y-54.3
X108.482Y-42.427
X109.64Y-66.603
X109.8Y-59.551
X110.25Y-44.41
X116.5Y-52.0
X117.369Y-39.469
T3
X103.2Y-41.88
X103.2Y-44.42
X103.2Y-46.96
X103.2Y-49.5
X108.36Y-31.5
X108.36Y-37.0
X109.7Y-54.3
X110.9Y-31.5
X110.9Y-37.0
X116.2Y-41.88
X116.2Y-44.42
X116.2Y-46.96
X116.2Y-49.5
T4
X103.71Y-70.49
X115.58Y-70.49
M30
