%TF.GenerationSoftware,KiCad,Pcbnew,9.0.4*%
%TF.CreationDate,2026-02-19T09:50:08+00:00*%
%TF.ProjectId,TDP3_T7_H-Bridge_V-3,54445033-5f54-4375-9f48-2d4272696467,rev?*%
%TF.SameCoordinates,Original*%
%TF.FileFunction,Soldermask,Top*%
%TF.FilePolarity,Negative*%
%FSLAX46Y46*%
G04 Gerber Fmt 4.6, Leading zero omitted, Abs format (unit mm)*
G04 Created by KiCad (PCBNEW 9.0.4) date 2026-02-19 09:50:08*
%MOMM*%
%LPD*%
G01*
G04 APERTURE LIST*
G04 Aperture macros list*
%AMRoundRect*
0 Rectangle with rounded corners*
0 $1 Rounding radius*
0 $2 $3 $4 $5 $6 $7 $8 $9 X,Y pos of 4 corners*
0 Add a 4 corners polygon primitive as box body*
4,1,4,$2,$3,$4,$5,$6,$7,$8,$9,$2,$3,0*
0 Add four circle primitives for the rounded corners*
1,1,$1+$1,$2,$3*
1,1,$1+$1,$4,$5*
1,1,$1+$1,$6,$7*
1,1,$1+$1,$8,$9*
0 Add four rect primitives between the rounded corners*
20,1,$1+$1,$2,$3,$4,$5,0*
20,1,$1+$1,$4,$5,$6,$7,0*
20,1,$1+$1,$6,$7,$8,$9,0*
20,1,$1+$1,$8,$9,$2,$3,0*%
G04 Aperture macros list end*
%ADD10RoundRect,0.250000X-0.550000X0.550000X-0.550000X-0.550000X0.550000X-0.550000X0.550000X0.550000X0*%
%ADD11C,1.600000*%
%ADD12C,4.700000*%
%ADD13C,7.500000*%
%ADD14RoundRect,0.249999X-0.850001X-0.850001X0.850001X-0.850001X0.850001X0.850001X-0.850001X0.850001X0*%
%ADD15C,2.200000*%
%ADD16R,1.700000X1.700000*%
%ADD17C,1.700000*%
%ADD18RoundRect,0.250000X-0.550000X0.950000X-0.550000X-0.950000X0.550000X-0.950000X0.550000X0.950000X0*%
%ADD19O,1.600000X2.400000*%
%ADD20RoundRect,0.249999X0.850001X0.850001X-0.850001X0.850001X-0.850001X-0.850001X0.850001X-0.850001X0*%
%ADD21C,2.670000*%
%ADD22R,1.800000X1.800000*%
%ADD23C,1.800000*%
G04 APERTURE END LIST*
D10*
%TO.C,D3*%
X171400000Y-52870000D03*
D11*
X171400000Y-60490000D03*
%TD*%
D12*
%TO.C,H1*%
X165000000Y-42000000D03*
D13*
X165000000Y-42000000D03*
%TD*%
D10*
%TO.C,D9*%
X223400000Y-62950000D03*
D11*
X223400000Y-70570000D03*
%TD*%
D14*
%TO.C,D1*%
X189290000Y-87350000D03*
D15*
X196910000Y-87350000D03*
%TD*%
D10*
%TO.C,D10*%
X228400000Y-60450000D03*
D11*
X228400000Y-68070000D03*
%TD*%
D16*
%TO.C,J1*%
X195980000Y-74700000D03*
D17*
X198520000Y-74700000D03*
X201060000Y-74700000D03*
X203600000Y-74700000D03*
X206140000Y-74700000D03*
%TD*%
D18*
%TO.C,IC1*%
X189310000Y-69190000D03*
D19*
X186770000Y-69190000D03*
X184230000Y-69190000D03*
X181690000Y-69190000D03*
X181690000Y-76810000D03*
X184230000Y-76810000D03*
X186770000Y-76810000D03*
X189310000Y-76810000D03*
%TD*%
D12*
%TO.C,H3*%
X233950000Y-85750000D03*
D13*
X233950000Y-85750000D03*
%TD*%
D10*
%TO.C,D4*%
X176400000Y-55370000D03*
D11*
X176400000Y-62990000D03*
%TD*%
D10*
%TO.C,D7*%
X225900000Y-55330000D03*
D11*
X225900000Y-62950000D03*
%TD*%
D18*
%TO.C,IC2*%
X220600000Y-69050000D03*
D19*
X218060000Y-69050000D03*
X215520000Y-69050000D03*
X212980000Y-69050000D03*
X212980000Y-76670000D03*
X215520000Y-76670000D03*
X218060000Y-76670000D03*
X220600000Y-76670000D03*
%TD*%
D20*
%TO.C,D2*%
X213000000Y-87350000D03*
D15*
X205380000Y-87350000D03*
%TD*%
D10*
%TO.C,D6*%
X178900000Y-62990000D03*
D11*
X178900000Y-70610000D03*
%TD*%
D21*
%TO.C,U1*%
X188412500Y-54887500D03*
X213812500Y-54887500D03*
D22*
X192222500Y-65507500D03*
D23*
X193492500Y-60427500D03*
X194762500Y-65507500D03*
X196032500Y-60427500D03*
X197302500Y-65507500D03*
X198572500Y-60427500D03*
X199842500Y-65507500D03*
X201112500Y-60427500D03*
X202382500Y-65507500D03*
X203652500Y-60427500D03*
X204922500Y-65507500D03*
X206192500Y-60427500D03*
X207462500Y-65507500D03*
X208732500Y-60427500D03*
X210002500Y-65507500D03*
%TD*%
D12*
%TO.C,H2*%
X234000000Y-42000000D03*
D13*
X234000000Y-42000000D03*
%TD*%
D10*
%TO.C,D8*%
X230900000Y-52830000D03*
D11*
X230900000Y-60450000D03*
%TD*%
D10*
%TO.C,D5*%
X173900000Y-60490000D03*
D11*
X173900000Y-68110000D03*
%TD*%
D12*
%TO.C,H4*%
X164950000Y-85750000D03*
D13*
X164950000Y-85750000D03*
%TD*%
D16*
%TO.C,J3*%
X212980000Y-81400000D03*
D17*
X210440000Y-81400000D03*
X207900000Y-81400000D03*
X205360000Y-81400000D03*
%TD*%
D16*
%TO.C,J4*%
X167450000Y-60460000D03*
D17*
X167450000Y-63000000D03*
%TD*%
D16*
%TO.C,J2*%
X189310000Y-81550000D03*
D17*
X191850000Y-81550000D03*
X194390000Y-81550000D03*
X196930000Y-81550000D03*
%TD*%
D16*
%TO.C,J5*%
X234000000Y-62975000D03*
D17*
X234000000Y-60435000D03*
%TD*%
M02*
