%TF.GenerationSoftware,KiCad,Pcbnew,9.0.4*%
%TF.CreationDate,2026-02-19T09:50:08+00:00*%
%TF.ProjectId,TDP3_T7_H-Bridge_V-3,54445033-5f54-4375-9f48-2d4272696467,rev?*%
%TF.SameCoordinates,Original*%
%TF.FileFunction,Legend,Bot*%
%TF.FilePolarity,Positive*%
%FSLAX46Y46*%
G04 Gerber Fmt 4.6, Leading zero omitted, Abs format (unit mm)*
G04 Created by KiCad (PCBNEW 9.0.4) date 2026-02-19 09:50:08*
%MOMM*%
%LPD*%
G01*
G04 APERTURE LIST*
%ADD10C,0.150000*%
%ADD11C,0.120000*%
G04 APERTURE END LIST*
D10*
X214814819Y-81066666D02*
X215529104Y-81066666D01*
X215529104Y-81066666D02*
X215671961Y-81019047D01*
X215671961Y-81019047D02*
X215767200Y-80923809D01*
X215767200Y-80923809D02*
X215814819Y-80780952D01*
X215814819Y-80780952D02*
X215814819Y-80685714D01*
X214814819Y-81447619D02*
X214814819Y-82066666D01*
X214814819Y-82066666D02*
X215195771Y-81733333D01*
X215195771Y-81733333D02*
X215195771Y-81876190D01*
X215195771Y-81876190D02*
X215243390Y-81971428D01*
X215243390Y-81971428D02*
X215291009Y-82019047D01*
X215291009Y-82019047D02*
X215386247Y-82066666D01*
X215386247Y-82066666D02*
X215624342Y-82066666D01*
X215624342Y-82066666D02*
X215719580Y-82019047D01*
X215719580Y-82019047D02*
X215767200Y-81971428D01*
X215767200Y-81971428D02*
X215814819Y-81876190D01*
X215814819Y-81876190D02*
X215814819Y-81590476D01*
X215814819Y-81590476D02*
X215767200Y-81495238D01*
X215767200Y-81495238D02*
X215719580Y-81447619D01*
X167783333Y-57534819D02*
X167783333Y-58249104D01*
X167783333Y-58249104D02*
X167830952Y-58391961D01*
X167830952Y-58391961D02*
X167926190Y-58487200D01*
X167926190Y-58487200D02*
X168069047Y-58534819D01*
X168069047Y-58534819D02*
X168164285Y-58534819D01*
X166878571Y-57868152D02*
X166878571Y-58534819D01*
X167116666Y-57487200D02*
X167354761Y-58201485D01*
X167354761Y-58201485D02*
X166735714Y-58201485D01*
X197066666Y-86354819D02*
X197399999Y-85878628D01*
X197638094Y-86354819D02*
X197638094Y-85354819D01*
X197638094Y-85354819D02*
X197257142Y-85354819D01*
X197257142Y-85354819D02*
X197161904Y-85402438D01*
X197161904Y-85402438D02*
X197114285Y-85450057D01*
X197114285Y-85450057D02*
X197066666Y-85545295D01*
X197066666Y-85545295D02*
X197066666Y-85688152D01*
X197066666Y-85688152D02*
X197114285Y-85783390D01*
X197114285Y-85783390D02*
X197161904Y-85831009D01*
X197161904Y-85831009D02*
X197257142Y-85878628D01*
X197257142Y-85878628D02*
X197638094Y-85878628D01*
X196161904Y-85354819D02*
X196638094Y-85354819D01*
X196638094Y-85354819D02*
X196685713Y-85831009D01*
X196685713Y-85831009D02*
X196638094Y-85783390D01*
X196638094Y-85783390D02*
X196542856Y-85735771D01*
X196542856Y-85735771D02*
X196304761Y-85735771D01*
X196304761Y-85735771D02*
X196209523Y-85783390D01*
X196209523Y-85783390D02*
X196161904Y-85831009D01*
X196161904Y-85831009D02*
X196114285Y-85926247D01*
X196114285Y-85926247D02*
X196114285Y-86164342D01*
X196114285Y-86164342D02*
X196161904Y-86259580D01*
X196161904Y-86259580D02*
X196209523Y-86307200D01*
X196209523Y-86307200D02*
X196304761Y-86354819D01*
X196304761Y-86354819D02*
X196542856Y-86354819D01*
X196542856Y-86354819D02*
X196638094Y-86307200D01*
X196638094Y-86307200D02*
X196685713Y-86259580D01*
X189566666Y-83054819D02*
X189899999Y-82578628D01*
X190138094Y-83054819D02*
X190138094Y-82054819D01*
X190138094Y-82054819D02*
X189757142Y-82054819D01*
X189757142Y-82054819D02*
X189661904Y-82102438D01*
X189661904Y-82102438D02*
X189614285Y-82150057D01*
X189614285Y-82150057D02*
X189566666Y-82245295D01*
X189566666Y-82245295D02*
X189566666Y-82388152D01*
X189566666Y-82388152D02*
X189614285Y-82483390D01*
X189614285Y-82483390D02*
X189661904Y-82531009D01*
X189661904Y-82531009D02*
X189757142Y-82578628D01*
X189757142Y-82578628D02*
X190138094Y-82578628D01*
X188614285Y-83054819D02*
X189185713Y-83054819D01*
X188899999Y-83054819D02*
X188899999Y-82054819D01*
X188899999Y-82054819D02*
X188995237Y-82197676D01*
X188995237Y-82197676D02*
X189090475Y-82292914D01*
X189090475Y-82292914D02*
X189185713Y-82340533D01*
X183054819Y-82607142D02*
X182578628Y-82273809D01*
X183054819Y-82035714D02*
X182054819Y-82035714D01*
X182054819Y-82035714D02*
X182054819Y-82416666D01*
X182054819Y-82416666D02*
X182102438Y-82511904D01*
X182102438Y-82511904D02*
X182150057Y-82559523D01*
X182150057Y-82559523D02*
X182245295Y-82607142D01*
X182245295Y-82607142D02*
X182388152Y-82607142D01*
X182388152Y-82607142D02*
X182483390Y-82559523D01*
X182483390Y-82559523D02*
X182531009Y-82511904D01*
X182531009Y-82511904D02*
X182578628Y-82416666D01*
X182578628Y-82416666D02*
X182578628Y-82035714D01*
X183054819Y-83559523D02*
X183054819Y-82988095D01*
X183054819Y-83273809D02*
X182054819Y-83273809D01*
X182054819Y-83273809D02*
X182197676Y-83178571D01*
X182197676Y-83178571D02*
X182292914Y-83083333D01*
X182292914Y-83083333D02*
X182340533Y-82988095D01*
X182150057Y-83940476D02*
X182102438Y-83988095D01*
X182102438Y-83988095D02*
X182054819Y-84083333D01*
X182054819Y-84083333D02*
X182054819Y-84321428D01*
X182054819Y-84321428D02*
X182102438Y-84416666D01*
X182102438Y-84416666D02*
X182150057Y-84464285D01*
X182150057Y-84464285D02*
X182245295Y-84511904D01*
X182245295Y-84511904D02*
X182340533Y-84511904D01*
X182340533Y-84511904D02*
X182483390Y-84464285D01*
X182483390Y-84464285D02*
X183054819Y-83892857D01*
X183054819Y-83892857D02*
X183054819Y-84511904D01*
X217542857Y-81204819D02*
X217876190Y-80728628D01*
X218114285Y-81204819D02*
X218114285Y-80204819D01*
X218114285Y-80204819D02*
X217733333Y-80204819D01*
X217733333Y-80204819D02*
X217638095Y-80252438D01*
X217638095Y-80252438D02*
X217590476Y-80300057D01*
X217590476Y-80300057D02*
X217542857Y-80395295D01*
X217542857Y-80395295D02*
X217542857Y-80538152D01*
X217542857Y-80538152D02*
X217590476Y-80633390D01*
X217590476Y-80633390D02*
X217638095Y-80681009D01*
X217638095Y-80681009D02*
X217733333Y-80728628D01*
X217733333Y-80728628D02*
X218114285Y-80728628D01*
X216590476Y-81204819D02*
X217161904Y-81204819D01*
X216876190Y-81204819D02*
X216876190Y-80204819D01*
X216876190Y-80204819D02*
X216971428Y-80347676D01*
X216971428Y-80347676D02*
X217066666Y-80442914D01*
X217066666Y-80442914D02*
X217161904Y-80490533D01*
X215733333Y-80538152D02*
X215733333Y-81204819D01*
X215971428Y-80157200D02*
X216209523Y-80871485D01*
X216209523Y-80871485D02*
X215590476Y-80871485D01*
X193316666Y-86354819D02*
X193649999Y-85878628D01*
X193888094Y-86354819D02*
X193888094Y-85354819D01*
X193888094Y-85354819D02*
X193507142Y-85354819D01*
X193507142Y-85354819D02*
X193411904Y-85402438D01*
X193411904Y-85402438D02*
X193364285Y-85450057D01*
X193364285Y-85450057D02*
X193316666Y-85545295D01*
X193316666Y-85545295D02*
X193316666Y-85688152D01*
X193316666Y-85688152D02*
X193364285Y-85783390D01*
X193364285Y-85783390D02*
X193411904Y-85831009D01*
X193411904Y-85831009D02*
X193507142Y-85878628D01*
X193507142Y-85878628D02*
X193888094Y-85878628D01*
X192983332Y-85354819D02*
X192364285Y-85354819D01*
X192364285Y-85354819D02*
X192697618Y-85735771D01*
X192697618Y-85735771D02*
X192554761Y-85735771D01*
X192554761Y-85735771D02*
X192459523Y-85783390D01*
X192459523Y-85783390D02*
X192411904Y-85831009D01*
X192411904Y-85831009D02*
X192364285Y-85926247D01*
X192364285Y-85926247D02*
X192364285Y-86164342D01*
X192364285Y-86164342D02*
X192411904Y-86259580D01*
X192411904Y-86259580D02*
X192459523Y-86307200D01*
X192459523Y-86307200D02*
X192554761Y-86354819D01*
X192554761Y-86354819D02*
X192840475Y-86354819D01*
X192840475Y-86354819D02*
X192935713Y-86307200D01*
X192935713Y-86307200D02*
X192983332Y-86259580D01*
X186384819Y-81216666D02*
X187099104Y-81216666D01*
X187099104Y-81216666D02*
X187241961Y-81169047D01*
X187241961Y-81169047D02*
X187337200Y-81073809D01*
X187337200Y-81073809D02*
X187384819Y-80930952D01*
X187384819Y-80930952D02*
X187384819Y-80835714D01*
X186480057Y-81645238D02*
X186432438Y-81692857D01*
X186432438Y-81692857D02*
X186384819Y-81788095D01*
X186384819Y-81788095D02*
X186384819Y-82026190D01*
X186384819Y-82026190D02*
X186432438Y-82121428D01*
X186432438Y-82121428D02*
X186480057Y-82169047D01*
X186480057Y-82169047D02*
X186575295Y-82216666D01*
X186575295Y-82216666D02*
X186670533Y-82216666D01*
X186670533Y-82216666D02*
X186813390Y-82169047D01*
X186813390Y-82169047D02*
X187384819Y-81597619D01*
X187384819Y-81597619D02*
X187384819Y-82216666D01*
X205566666Y-82904819D02*
X205899999Y-82428628D01*
X206138094Y-82904819D02*
X206138094Y-81904819D01*
X206138094Y-81904819D02*
X205757142Y-81904819D01*
X205757142Y-81904819D02*
X205661904Y-81952438D01*
X205661904Y-81952438D02*
X205614285Y-82000057D01*
X205614285Y-82000057D02*
X205566666Y-82095295D01*
X205566666Y-82095295D02*
X205566666Y-82238152D01*
X205566666Y-82238152D02*
X205614285Y-82333390D01*
X205614285Y-82333390D02*
X205661904Y-82381009D01*
X205661904Y-82381009D02*
X205757142Y-82428628D01*
X205757142Y-82428628D02*
X206138094Y-82428628D01*
X204709523Y-81904819D02*
X204899999Y-81904819D01*
X204899999Y-81904819D02*
X204995237Y-81952438D01*
X204995237Y-81952438D02*
X205042856Y-82000057D01*
X205042856Y-82000057D02*
X205138094Y-82142914D01*
X205138094Y-82142914D02*
X205185713Y-82333390D01*
X205185713Y-82333390D02*
X205185713Y-82714342D01*
X205185713Y-82714342D02*
X205138094Y-82809580D01*
X205138094Y-82809580D02*
X205090475Y-82857200D01*
X205090475Y-82857200D02*
X204995237Y-82904819D01*
X204995237Y-82904819D02*
X204804761Y-82904819D01*
X204804761Y-82904819D02*
X204709523Y-82857200D01*
X204709523Y-82857200D02*
X204661904Y-82809580D01*
X204661904Y-82809580D02*
X204614285Y-82714342D01*
X204614285Y-82714342D02*
X204614285Y-82476247D01*
X204614285Y-82476247D02*
X204661904Y-82381009D01*
X204661904Y-82381009D02*
X204709523Y-82333390D01*
X204709523Y-82333390D02*
X204804761Y-82285771D01*
X204804761Y-82285771D02*
X204995237Y-82285771D01*
X204995237Y-82285771D02*
X205090475Y-82333390D01*
X205090475Y-82333390D02*
X205138094Y-82381009D01*
X205138094Y-82381009D02*
X205185713Y-82476247D01*
X198316666Y-65039580D02*
X198364285Y-65087200D01*
X198364285Y-65087200D02*
X198507142Y-65134819D01*
X198507142Y-65134819D02*
X198602380Y-65134819D01*
X198602380Y-65134819D02*
X198745237Y-65087200D01*
X198745237Y-65087200D02*
X198840475Y-64991961D01*
X198840475Y-64991961D02*
X198888094Y-64896723D01*
X198888094Y-64896723D02*
X198935713Y-64706247D01*
X198935713Y-64706247D02*
X198935713Y-64563390D01*
X198935713Y-64563390D02*
X198888094Y-64372914D01*
X198888094Y-64372914D02*
X198840475Y-64277676D01*
X198840475Y-64277676D02*
X198745237Y-64182438D01*
X198745237Y-64182438D02*
X198602380Y-64134819D01*
X198602380Y-64134819D02*
X198507142Y-64134819D01*
X198507142Y-64134819D02*
X198364285Y-64182438D01*
X198364285Y-64182438D02*
X198316666Y-64230057D01*
X197935713Y-64230057D02*
X197888094Y-64182438D01*
X197888094Y-64182438D02*
X197792856Y-64134819D01*
X197792856Y-64134819D02*
X197554761Y-64134819D01*
X197554761Y-64134819D02*
X197459523Y-64182438D01*
X197459523Y-64182438D02*
X197411904Y-64230057D01*
X197411904Y-64230057D02*
X197364285Y-64325295D01*
X197364285Y-64325295D02*
X197364285Y-64420533D01*
X197364285Y-64420533D02*
X197411904Y-64563390D01*
X197411904Y-64563390D02*
X197983332Y-65134819D01*
X197983332Y-65134819D02*
X197364285Y-65134819D01*
X209316666Y-82904819D02*
X209649999Y-82428628D01*
X209888094Y-82904819D02*
X209888094Y-81904819D01*
X209888094Y-81904819D02*
X209507142Y-81904819D01*
X209507142Y-81904819D02*
X209411904Y-81952438D01*
X209411904Y-81952438D02*
X209364285Y-82000057D01*
X209364285Y-82000057D02*
X209316666Y-82095295D01*
X209316666Y-82095295D02*
X209316666Y-82238152D01*
X209316666Y-82238152D02*
X209364285Y-82333390D01*
X209364285Y-82333390D02*
X209411904Y-82381009D01*
X209411904Y-82381009D02*
X209507142Y-82428628D01*
X209507142Y-82428628D02*
X209888094Y-82428628D01*
X208459523Y-82238152D02*
X208459523Y-82904819D01*
X208697618Y-81857200D02*
X208935713Y-82571485D01*
X208935713Y-82571485D02*
X208316666Y-82571485D01*
X213066666Y-86204819D02*
X213399999Y-85728628D01*
X213638094Y-86204819D02*
X213638094Y-85204819D01*
X213638094Y-85204819D02*
X213257142Y-85204819D01*
X213257142Y-85204819D02*
X213161904Y-85252438D01*
X213161904Y-85252438D02*
X213114285Y-85300057D01*
X213114285Y-85300057D02*
X213066666Y-85395295D01*
X213066666Y-85395295D02*
X213066666Y-85538152D01*
X213066666Y-85538152D02*
X213114285Y-85633390D01*
X213114285Y-85633390D02*
X213161904Y-85681009D01*
X213161904Y-85681009D02*
X213257142Y-85728628D01*
X213257142Y-85728628D02*
X213638094Y-85728628D01*
X212685713Y-85300057D02*
X212638094Y-85252438D01*
X212638094Y-85252438D02*
X212542856Y-85204819D01*
X212542856Y-85204819D02*
X212304761Y-85204819D01*
X212304761Y-85204819D02*
X212209523Y-85252438D01*
X212209523Y-85252438D02*
X212161904Y-85300057D01*
X212161904Y-85300057D02*
X212114285Y-85395295D01*
X212114285Y-85395295D02*
X212114285Y-85490533D01*
X212114285Y-85490533D02*
X212161904Y-85633390D01*
X212161904Y-85633390D02*
X212733332Y-86204819D01*
X212733332Y-86204819D02*
X212114285Y-86204819D01*
X234333333Y-64809819D02*
X234333333Y-65524104D01*
X234333333Y-65524104D02*
X234380952Y-65666961D01*
X234380952Y-65666961D02*
X234476190Y-65762200D01*
X234476190Y-65762200D02*
X234619047Y-65809819D01*
X234619047Y-65809819D02*
X234714285Y-65809819D01*
X233380952Y-64809819D02*
X233857142Y-64809819D01*
X233857142Y-64809819D02*
X233904761Y-65286009D01*
X233904761Y-65286009D02*
X233857142Y-65238390D01*
X233857142Y-65238390D02*
X233761904Y-65190771D01*
X233761904Y-65190771D02*
X233523809Y-65190771D01*
X233523809Y-65190771D02*
X233428571Y-65238390D01*
X233428571Y-65238390D02*
X233380952Y-65286009D01*
X233380952Y-65286009D02*
X233333333Y-65381247D01*
X233333333Y-65381247D02*
X233333333Y-65619342D01*
X233333333Y-65619342D02*
X233380952Y-65714580D01*
X233380952Y-65714580D02*
X233428571Y-65762200D01*
X233428571Y-65762200D02*
X233523809Y-65809819D01*
X233523809Y-65809819D02*
X233761904Y-65809819D01*
X233761904Y-65809819D02*
X233857142Y-65762200D01*
X233857142Y-65762200D02*
X233904761Y-65714580D01*
X203166666Y-65039580D02*
X203214285Y-65087200D01*
X203214285Y-65087200D02*
X203357142Y-65134819D01*
X203357142Y-65134819D02*
X203452380Y-65134819D01*
X203452380Y-65134819D02*
X203595237Y-65087200D01*
X203595237Y-65087200D02*
X203690475Y-64991961D01*
X203690475Y-64991961D02*
X203738094Y-64896723D01*
X203738094Y-64896723D02*
X203785713Y-64706247D01*
X203785713Y-64706247D02*
X203785713Y-64563390D01*
X203785713Y-64563390D02*
X203738094Y-64372914D01*
X203738094Y-64372914D02*
X203690475Y-64277676D01*
X203690475Y-64277676D02*
X203595237Y-64182438D01*
X203595237Y-64182438D02*
X203452380Y-64134819D01*
X203452380Y-64134819D02*
X203357142Y-64134819D01*
X203357142Y-64134819D02*
X203214285Y-64182438D01*
X203214285Y-64182438D02*
X203166666Y-64230057D01*
X202214285Y-65134819D02*
X202785713Y-65134819D01*
X202499999Y-65134819D02*
X202499999Y-64134819D01*
X202499999Y-64134819D02*
X202595237Y-64277676D01*
X202595237Y-64277676D02*
X202690475Y-64372914D01*
X202690475Y-64372914D02*
X202785713Y-64420533D01*
X183166666Y-64124819D02*
X183499999Y-63648628D01*
X183738094Y-64124819D02*
X183738094Y-63124819D01*
X183738094Y-63124819D02*
X183357142Y-63124819D01*
X183357142Y-63124819D02*
X183261904Y-63172438D01*
X183261904Y-63172438D02*
X183214285Y-63220057D01*
X183214285Y-63220057D02*
X183166666Y-63315295D01*
X183166666Y-63315295D02*
X183166666Y-63458152D01*
X183166666Y-63458152D02*
X183214285Y-63553390D01*
X183214285Y-63553390D02*
X183261904Y-63601009D01*
X183261904Y-63601009D02*
X183357142Y-63648628D01*
X183357142Y-63648628D02*
X183738094Y-63648628D01*
X182595237Y-63553390D02*
X182690475Y-63505771D01*
X182690475Y-63505771D02*
X182738094Y-63458152D01*
X182738094Y-63458152D02*
X182785713Y-63362914D01*
X182785713Y-63362914D02*
X182785713Y-63315295D01*
X182785713Y-63315295D02*
X182738094Y-63220057D01*
X182738094Y-63220057D02*
X182690475Y-63172438D01*
X182690475Y-63172438D02*
X182595237Y-63124819D01*
X182595237Y-63124819D02*
X182404761Y-63124819D01*
X182404761Y-63124819D02*
X182309523Y-63172438D01*
X182309523Y-63172438D02*
X182261904Y-63220057D01*
X182261904Y-63220057D02*
X182214285Y-63315295D01*
X182214285Y-63315295D02*
X182214285Y-63362914D01*
X182214285Y-63362914D02*
X182261904Y-63458152D01*
X182261904Y-63458152D02*
X182309523Y-63505771D01*
X182309523Y-63505771D02*
X182404761Y-63553390D01*
X182404761Y-63553390D02*
X182595237Y-63553390D01*
X182595237Y-63553390D02*
X182690475Y-63601009D01*
X182690475Y-63601009D02*
X182738094Y-63648628D01*
X182738094Y-63648628D02*
X182785713Y-63743866D01*
X182785713Y-63743866D02*
X182785713Y-63934342D01*
X182785713Y-63934342D02*
X182738094Y-64029580D01*
X182738094Y-64029580D02*
X182690475Y-64077200D01*
X182690475Y-64077200D02*
X182595237Y-64124819D01*
X182595237Y-64124819D02*
X182404761Y-64124819D01*
X182404761Y-64124819D02*
X182309523Y-64077200D01*
X182309523Y-64077200D02*
X182261904Y-64029580D01*
X182261904Y-64029580D02*
X182214285Y-63934342D01*
X182214285Y-63934342D02*
X182214285Y-63743866D01*
X182214285Y-63743866D02*
X182261904Y-63648628D01*
X182261904Y-63648628D02*
X182309523Y-63601009D01*
X182309523Y-63601009D02*
X182404761Y-63553390D01*
X188166666Y-64124819D02*
X188499999Y-63648628D01*
X188738094Y-64124819D02*
X188738094Y-63124819D01*
X188738094Y-63124819D02*
X188357142Y-63124819D01*
X188357142Y-63124819D02*
X188261904Y-63172438D01*
X188261904Y-63172438D02*
X188214285Y-63220057D01*
X188214285Y-63220057D02*
X188166666Y-63315295D01*
X188166666Y-63315295D02*
X188166666Y-63458152D01*
X188166666Y-63458152D02*
X188214285Y-63553390D01*
X188214285Y-63553390D02*
X188261904Y-63601009D01*
X188261904Y-63601009D02*
X188357142Y-63648628D01*
X188357142Y-63648628D02*
X188738094Y-63648628D01*
X187833332Y-63124819D02*
X187166666Y-63124819D01*
X187166666Y-63124819D02*
X187595237Y-64124819D01*
X217154819Y-82557142D02*
X216678628Y-82223809D01*
X217154819Y-81985714D02*
X216154819Y-81985714D01*
X216154819Y-81985714D02*
X216154819Y-82366666D01*
X216154819Y-82366666D02*
X216202438Y-82461904D01*
X216202438Y-82461904D02*
X216250057Y-82509523D01*
X216250057Y-82509523D02*
X216345295Y-82557142D01*
X216345295Y-82557142D02*
X216488152Y-82557142D01*
X216488152Y-82557142D02*
X216583390Y-82509523D01*
X216583390Y-82509523D02*
X216631009Y-82461904D01*
X216631009Y-82461904D02*
X216678628Y-82366666D01*
X216678628Y-82366666D02*
X216678628Y-81985714D01*
X217154819Y-83509523D02*
X217154819Y-82938095D01*
X217154819Y-83223809D02*
X216154819Y-83223809D01*
X216154819Y-83223809D02*
X216297676Y-83128571D01*
X216297676Y-83128571D02*
X216392914Y-83033333D01*
X216392914Y-83033333D02*
X216440533Y-82938095D01*
X216154819Y-83842857D02*
X216154819Y-84461904D01*
X216154819Y-84461904D02*
X216535771Y-84128571D01*
X216535771Y-84128571D02*
X216535771Y-84271428D01*
X216535771Y-84271428D02*
X216583390Y-84366666D01*
X216583390Y-84366666D02*
X216631009Y-84414285D01*
X216631009Y-84414285D02*
X216726247Y-84461904D01*
X216726247Y-84461904D02*
X216964342Y-84461904D01*
X216964342Y-84461904D02*
X217059580Y-84414285D01*
X217059580Y-84414285D02*
X217107200Y-84366666D01*
X217107200Y-84366666D02*
X217154819Y-84271428D01*
X217154819Y-84271428D02*
X217154819Y-83985714D01*
X217154819Y-83985714D02*
X217107200Y-83890476D01*
X217107200Y-83890476D02*
X217059580Y-83842857D01*
X219642857Y-67784819D02*
X219976190Y-67308628D01*
X220214285Y-67784819D02*
X220214285Y-66784819D01*
X220214285Y-66784819D02*
X219833333Y-66784819D01*
X219833333Y-66784819D02*
X219738095Y-66832438D01*
X219738095Y-66832438D02*
X219690476Y-66880057D01*
X219690476Y-66880057D02*
X219642857Y-66975295D01*
X219642857Y-66975295D02*
X219642857Y-67118152D01*
X219642857Y-67118152D02*
X219690476Y-67213390D01*
X219690476Y-67213390D02*
X219738095Y-67261009D01*
X219738095Y-67261009D02*
X219833333Y-67308628D01*
X219833333Y-67308628D02*
X220214285Y-67308628D01*
X218690476Y-67784819D02*
X219261904Y-67784819D01*
X218976190Y-67784819D02*
X218976190Y-66784819D01*
X218976190Y-66784819D02*
X219071428Y-66927676D01*
X219071428Y-66927676D02*
X219166666Y-67022914D01*
X219166666Y-67022914D02*
X219261904Y-67070533D01*
X218071428Y-66784819D02*
X217976190Y-66784819D01*
X217976190Y-66784819D02*
X217880952Y-66832438D01*
X217880952Y-66832438D02*
X217833333Y-66880057D01*
X217833333Y-66880057D02*
X217785714Y-66975295D01*
X217785714Y-66975295D02*
X217738095Y-67165771D01*
X217738095Y-67165771D02*
X217738095Y-67403866D01*
X217738095Y-67403866D02*
X217785714Y-67594342D01*
X217785714Y-67594342D02*
X217833333Y-67689580D01*
X217833333Y-67689580D02*
X217880952Y-67737200D01*
X217880952Y-67737200D02*
X217976190Y-67784819D01*
X217976190Y-67784819D02*
X218071428Y-67784819D01*
X218071428Y-67784819D02*
X218166666Y-67737200D01*
X218166666Y-67737200D02*
X218214285Y-67689580D01*
X218214285Y-67689580D02*
X218261904Y-67594342D01*
X218261904Y-67594342D02*
X218309523Y-67403866D01*
X218309523Y-67403866D02*
X218309523Y-67165771D01*
X218309523Y-67165771D02*
X218261904Y-66975295D01*
X218261904Y-66975295D02*
X218214285Y-66880057D01*
X218214285Y-66880057D02*
X218166666Y-66832438D01*
X218166666Y-66832438D02*
X218071428Y-66784819D01*
X186142857Y-81354819D02*
X186476190Y-80878628D01*
X186714285Y-81354819D02*
X186714285Y-80354819D01*
X186714285Y-80354819D02*
X186333333Y-80354819D01*
X186333333Y-80354819D02*
X186238095Y-80402438D01*
X186238095Y-80402438D02*
X186190476Y-80450057D01*
X186190476Y-80450057D02*
X186142857Y-80545295D01*
X186142857Y-80545295D02*
X186142857Y-80688152D01*
X186142857Y-80688152D02*
X186190476Y-80783390D01*
X186190476Y-80783390D02*
X186238095Y-80831009D01*
X186238095Y-80831009D02*
X186333333Y-80878628D01*
X186333333Y-80878628D02*
X186714285Y-80878628D01*
X185190476Y-81354819D02*
X185761904Y-81354819D01*
X185476190Y-81354819D02*
X185476190Y-80354819D01*
X185476190Y-80354819D02*
X185571428Y-80497676D01*
X185571428Y-80497676D02*
X185666666Y-80592914D01*
X185666666Y-80592914D02*
X185761904Y-80640533D01*
X184238095Y-81354819D02*
X184809523Y-81354819D01*
X184523809Y-81354819D02*
X184523809Y-80354819D01*
X184523809Y-80354819D02*
X184619047Y-80497676D01*
X184619047Y-80497676D02*
X184714285Y-80592914D01*
X184714285Y-80592914D02*
X184809523Y-80640533D01*
X214166666Y-67784819D02*
X214499999Y-67308628D01*
X214738094Y-67784819D02*
X214738094Y-66784819D01*
X214738094Y-66784819D02*
X214357142Y-66784819D01*
X214357142Y-66784819D02*
X214261904Y-66832438D01*
X214261904Y-66832438D02*
X214214285Y-66880057D01*
X214214285Y-66880057D02*
X214166666Y-66975295D01*
X214166666Y-66975295D02*
X214166666Y-67118152D01*
X214166666Y-67118152D02*
X214214285Y-67213390D01*
X214214285Y-67213390D02*
X214261904Y-67261009D01*
X214261904Y-67261009D02*
X214357142Y-67308628D01*
X214357142Y-67308628D02*
X214738094Y-67308628D01*
X213690475Y-67784819D02*
X213499999Y-67784819D01*
X213499999Y-67784819D02*
X213404761Y-67737200D01*
X213404761Y-67737200D02*
X213357142Y-67689580D01*
X213357142Y-67689580D02*
X213261904Y-67546723D01*
X213261904Y-67546723D02*
X213214285Y-67356247D01*
X213214285Y-67356247D02*
X213214285Y-66975295D01*
X213214285Y-66975295D02*
X213261904Y-66880057D01*
X213261904Y-66880057D02*
X213309523Y-66832438D01*
X213309523Y-66832438D02*
X213404761Y-66784819D01*
X213404761Y-66784819D02*
X213595237Y-66784819D01*
X213595237Y-66784819D02*
X213690475Y-66832438D01*
X213690475Y-66832438D02*
X213738094Y-66880057D01*
X213738094Y-66880057D02*
X213785713Y-66975295D01*
X213785713Y-66975295D02*
X213785713Y-67213390D01*
X213785713Y-67213390D02*
X213738094Y-67308628D01*
X213738094Y-67308628D02*
X213690475Y-67356247D01*
X213690475Y-67356247D02*
X213595237Y-67403866D01*
X213595237Y-67403866D02*
X213404761Y-67403866D01*
X213404761Y-67403866D02*
X213309523Y-67356247D01*
X213309523Y-67356247D02*
X213261904Y-67308628D01*
X213261904Y-67308628D02*
X213214285Y-67213390D01*
D11*
%TO.C,J3*%
X203980000Y-82780000D02*
X203980000Y-80020000D01*
X211710000Y-80020000D02*
X203980000Y-80020000D01*
X211710000Y-82780000D02*
X203980000Y-82780000D01*
X211710000Y-82780000D02*
X211710000Y-80020000D01*
X212980000Y-82780000D02*
X214360000Y-82780000D01*
X214360000Y-82780000D02*
X214360000Y-81400000D01*
%TO.C,J4*%
X166070000Y-61730000D02*
X166070000Y-64380000D01*
X168830000Y-59080000D02*
X167450000Y-59080000D01*
X168830000Y-60460000D02*
X168830000Y-59080000D01*
X168830000Y-61730000D02*
X166070000Y-61730000D01*
X168830000Y-61730000D02*
X168830000Y-64380000D01*
X168830000Y-64380000D02*
X166070000Y-64380000D01*
%TO.C,R5*%
X196672936Y-83515000D02*
X197127064Y-83515000D01*
X196672936Y-84985000D02*
X197127064Y-84985000D01*
%TO.C,R1*%
X189627064Y-83515000D02*
X189172936Y-83515000D01*
X189627064Y-84985000D02*
X189172936Y-84985000D01*
%TO.C,R12*%
X183515000Y-83022936D02*
X183515000Y-83477064D01*
X184985000Y-83022936D02*
X184985000Y-83477064D01*
%TO.C,R14*%
X216672936Y-78365000D02*
X217127064Y-78365000D01*
X216672936Y-79835000D02*
X217127064Y-79835000D01*
%TO.C,R3*%
X192922936Y-83515000D02*
X193377064Y-83515000D01*
X192922936Y-84985000D02*
X193377064Y-84985000D01*
%TO.C,J2*%
X187930000Y-80170000D02*
X187930000Y-81550000D01*
X189310000Y-80170000D02*
X187930000Y-80170000D01*
X190580000Y-80170000D02*
X190580000Y-82930000D01*
X190580000Y-80170000D02*
X198310000Y-80170000D01*
X190580000Y-82930000D02*
X198310000Y-82930000D01*
X198310000Y-80170000D02*
X198310000Y-82930000D01*
%TO.C,R6*%
X205627064Y-83365000D02*
X205172936Y-83365000D01*
X205627064Y-84835000D02*
X205172936Y-84835000D01*
%TO.C,C2*%
X197888748Y-62265000D02*
X198411252Y-62265000D01*
X197888748Y-63735000D02*
X198411252Y-63735000D01*
%TO.C,R4*%
X209377064Y-83365000D02*
X208922936Y-83365000D01*
X209377064Y-84835000D02*
X208922936Y-84835000D01*
%TO.C,R2*%
X212672936Y-83365000D02*
X213127064Y-83365000D01*
X212672936Y-84835000D02*
X213127064Y-84835000D01*
%TO.C,J5*%
X232620000Y-59055000D02*
X235380000Y-59055000D01*
X232620000Y-61705000D02*
X232620000Y-59055000D01*
X232620000Y-61705000D02*
X235380000Y-61705000D01*
X232620000Y-62975000D02*
X232620000Y-64355000D01*
X232620000Y-64355000D02*
X234000000Y-64355000D01*
X235380000Y-61705000D02*
X235380000Y-59055000D01*
%TO.C,C1*%
X202738748Y-62265000D02*
X203261252Y-62265000D01*
X202738748Y-63735000D02*
X203261252Y-63735000D01*
%TO.C,R8*%
X183727064Y-64590000D02*
X182272936Y-64590000D01*
X183727064Y-66410000D02*
X182272936Y-66410000D01*
%TO.C,R7*%
X188727064Y-64590000D02*
X187272936Y-64590000D01*
X188727064Y-66410000D02*
X187272936Y-66410000D01*
%TO.C,R13*%
X217615000Y-82972936D02*
X217615000Y-83427064D01*
X219085000Y-82972936D02*
X219085000Y-83427064D01*
%TO.C,R10*%
X218272936Y-64590000D02*
X219727064Y-64590000D01*
X218272936Y-66410000D02*
X219727064Y-66410000D01*
%TO.C,R11*%
X185272936Y-78515000D02*
X185727064Y-78515000D01*
X185272936Y-79985000D02*
X185727064Y-79985000D01*
%TO.C,R9*%
X213272936Y-64590000D02*
X214727064Y-64590000D01*
X213272936Y-66410000D02*
X214727064Y-66410000D01*
%TD*%
M02*
