%TF.GenerationSoftware,KiCad,Pcbnew,9.0.4*%
%TF.CreationDate,2026-03-05T01:49:54+00:00*%
%TF.ProjectId,Slip Ring Rotating Contacts V2,536c6970-2052-4696-9e67-20526f746174,rev?*%
%TF.SameCoordinates,Original*%
%TF.FileFunction,Copper,L1,Top*%
%TF.FilePolarity,Positive*%
%FSLAX46Y46*%
G04 Gerber Fmt 4.6, Leading zero omitted, Abs format (unit mm)*
G04 Created by KiCad (PCBNEW 9.0.4) date 2026-03-05 01:49:54*
%MOMM*%
%LPD*%
G01*
G04 APERTURE LIST*
%ADD10C,0.300000*%
%TA.AperFunction,ComponentPad*%
%ADD11C,2.000000*%
%TD*%
%TA.AperFunction,ViaPad*%
%ADD12C,2.000000*%
%TD*%
%TA.AperFunction,Conductor*%
%ADD13C,2.800000*%
%TD*%
G04 APERTURE END LIST*
D10*
G36*
X69953909Y-88011917D02*
G01*
X70058571Y-88221238D01*
X70058571Y-88348571D01*
X68929999Y-88574286D01*
X68929999Y-88221238D01*
X69034659Y-88011917D01*
X69243981Y-87907257D01*
X69744589Y-87907257D01*
X69953909Y-88011917D01*
G37*
G36*
X72630000Y-89521694D02*
G01*
X72458875Y-89607257D01*
X71815410Y-89607257D01*
X71606088Y-89502596D01*
X71501428Y-89293275D01*
X71501428Y-89078381D01*
X71606088Y-88869060D01*
X71815410Y-88764400D01*
X72494285Y-88764400D01*
X72523549Y-88761518D01*
X72528526Y-88759456D01*
X72533904Y-88759074D01*
X72561367Y-88748564D01*
X72630000Y-88714247D01*
X72630000Y-89521694D01*
G37*
G36*
X71627543Y-82201386D02*
G01*
X71871008Y-82444850D01*
X71995615Y-82694065D01*
X72130000Y-83231606D01*
X72130000Y-83623242D01*
X71995615Y-84160783D01*
X71871008Y-84409999D01*
X71627543Y-84653463D01*
X71255660Y-84777425D01*
X70715714Y-84777425D01*
X70715714Y-82077425D01*
X71255660Y-82077425D01*
X71627543Y-82201386D01*
G37*
G36*
X74905432Y-82193560D02*
G01*
X75013865Y-82301993D01*
X75130000Y-82534263D01*
X75130000Y-82892015D01*
X75013865Y-83124285D01*
X74905432Y-83232717D01*
X74673161Y-83348853D01*
X73715714Y-83348853D01*
X73715714Y-82077425D01*
X74673161Y-82077425D01*
X74905432Y-82193560D01*
G37*
G36*
X82689368Y-90240590D02*
G01*
X65728120Y-90240590D01*
X65728120Y-86727993D01*
X66061453Y-86727993D01*
X66061453Y-86786521D01*
X66083851Y-86840593D01*
X66125235Y-86881977D01*
X66179307Y-86904375D01*
X66208571Y-86907257D01*
X66915714Y-86907257D01*
X66915714Y-89757257D01*
X66918596Y-89786521D01*
X66940994Y-89840593D01*
X66982378Y-89881977D01*
X67036450Y-89904375D01*
X67094978Y-89904375D01*
X67149050Y-89881977D01*
X67190434Y-89840593D01*
X67212832Y-89786521D01*
X67215714Y-89757257D01*
X67215714Y-88185828D01*
X68629999Y-88185828D01*
X68629999Y-89328685D01*
X68632881Y-89357949D01*
X68634943Y-89362927D01*
X68635325Y-89368303D01*
X68645835Y-89395767D01*
X68788692Y-89681482D01*
X68791772Y-89686376D01*
X68792542Y-89688684D01*
X68795034Y-89691558D01*
X68804357Y-89706368D01*
X68818565Y-89718690D01*
X68830888Y-89732899D01*
X68845697Y-89742221D01*
X68848572Y-89744714D01*
X68850879Y-89745483D01*
X68855774Y-89748564D01*
X69141489Y-89891421D01*
X69168953Y-89901931D01*
X69174328Y-89902312D01*
X69179307Y-89904375D01*
X69208571Y-89907257D01*
X69779999Y-89907257D01*
X69809263Y-89904375D01*
X69814240Y-89902313D01*
X69819618Y-89901931D01*
X69847081Y-89891421D01*
X70132795Y-89748564D01*
X70157681Y-89732899D01*
X70196027Y-89688684D01*
X70214535Y-89633161D01*
X70210387Y-89574781D01*
X70184212Y-89522432D01*
X70139997Y-89484086D01*
X70084475Y-89465578D01*
X70026094Y-89469726D01*
X69998631Y-89480236D01*
X69744589Y-89607257D01*
X69243981Y-89607257D01*
X69034659Y-89502596D01*
X68929999Y-89293275D01*
X68929999Y-89042971D01*
X71201428Y-89042971D01*
X71201428Y-89328685D01*
X71204310Y-89357949D01*
X71206372Y-89362927D01*
X71206754Y-89368303D01*
X71217264Y-89395767D01*
X71360121Y-89681482D01*
X71363201Y-89686376D01*
X71363971Y-89688684D01*
X71366463Y-89691558D01*
X71375786Y-89706368D01*
X71389994Y-89718690D01*
X71402317Y-89732899D01*
X71417126Y-89742221D01*
X71420001Y-89744714D01*
X71422308Y-89745483D01*
X71427203Y-89748564D01*
X71712918Y-89891421D01*
X71740382Y-89901931D01*
X71745757Y-89902312D01*
X71750736Y-89904375D01*
X71780000Y-89907257D01*
X72494285Y-89907257D01*
X72523549Y-89904375D01*
X72528527Y-89902312D01*
X72533903Y-89901931D01*
X72561367Y-89891421D01*
X72657861Y-89843174D01*
X72696664Y-89881977D01*
X72750736Y-89904375D01*
X72809264Y-89904375D01*
X72863336Y-89881977D01*
X72904720Y-89840593D01*
X72927118Y-89786521D01*
X72930000Y-89757257D01*
X72930000Y-88185828D01*
X72927118Y-88156564D01*
X72925054Y-88151583D01*
X72924673Y-88146209D01*
X72914164Y-88118745D01*
X72771306Y-87833032D01*
X72768225Y-87828137D01*
X72767456Y-87825830D01*
X72764963Y-87822955D01*
X72755641Y-87808146D01*
X72741431Y-87795822D01*
X72729110Y-87781615D01*
X72714304Y-87772295D01*
X72711426Y-87769799D01*
X72709114Y-87769028D01*
X72704224Y-87765950D01*
X72686838Y-87757257D01*
X74058571Y-87757257D01*
X74058571Y-89757257D01*
X74061453Y-89786521D01*
X74083851Y-89840593D01*
X74125235Y-89881977D01*
X74179307Y-89904375D01*
X74237835Y-89904375D01*
X74291907Y-89881977D01*
X74333291Y-89840593D01*
X74355689Y-89786521D01*
X74358571Y-89757257D01*
X74358571Y-88105103D01*
X74440281Y-88023392D01*
X74672553Y-87907257D01*
X75030304Y-87907257D01*
X75239624Y-88011917D01*
X75344286Y-88221238D01*
X75344286Y-89757257D01*
X75347168Y-89786521D01*
X75369566Y-89840593D01*
X75410950Y-89881977D01*
X75465022Y-89904375D01*
X75523550Y-89904375D01*
X75577622Y-89881977D01*
X75619006Y-89840593D01*
X75641404Y-89786521D01*
X75644286Y-89757257D01*
X75644286Y-88221238D01*
X75748946Y-88011917D01*
X75958267Y-87907257D01*
X76316018Y-87907257D01*
X76525339Y-88011917D01*
X76630000Y-88221238D01*
X76630000Y-89757257D01*
X76632882Y-89786521D01*
X76655280Y-89840593D01*
X76696664Y-89881977D01*
X76750736Y-89904375D01*
X76809264Y-89904375D01*
X76863336Y-89881977D01*
X76904720Y-89840593D01*
X76927118Y-89786521D01*
X76930000Y-89757257D01*
X76930000Y-88185828D01*
X76927118Y-88156564D01*
X76925056Y-88151586D01*
X76924674Y-88146209D01*
X76914164Y-88118746D01*
X76771307Y-87833032D01*
X76768226Y-87828137D01*
X76767457Y-87825830D01*
X76764964Y-87822955D01*
X76755642Y-87808146D01*
X76741433Y-87795823D01*
X76729111Y-87781615D01*
X76714301Y-87772292D01*
X76711427Y-87769800D01*
X76709119Y-87769030D01*
X76704225Y-87765950D01*
X76418510Y-87623093D01*
X76391046Y-87612583D01*
X76385670Y-87612201D01*
X76380692Y-87610139D01*
X76351428Y-87607257D01*
X75922857Y-87607257D01*
X75893593Y-87610139D01*
X75888615Y-87612200D01*
X75883238Y-87612583D01*
X75855775Y-87623093D01*
X75570061Y-87765950D01*
X75565166Y-87769030D01*
X75562859Y-87769800D01*
X75559984Y-87772292D01*
X75545175Y-87781615D01*
X75532852Y-87795823D01*
X75518644Y-87808146D01*
X75509321Y-87822955D01*
X75506829Y-87825830D01*
X75506059Y-87828137D01*
X75502979Y-87833032D01*
X75494285Y-87850418D01*
X75485592Y-87833032D01*
X75482511Y-87828137D01*
X75481742Y-87825830D01*
X75479249Y-87822955D01*
X75469927Y-87808146D01*
X75455717Y-87795822D01*
X75443396Y-87781615D01*
X75428590Y-87772295D01*
X75425712Y-87769799D01*
X75423400Y-87769028D01*
X75418510Y-87765950D01*
X75132796Y-87623093D01*
X75105333Y-87612583D01*
X75099955Y-87612200D01*
X75094978Y-87610139D01*
X75065714Y-87607257D01*
X74637143Y-87607257D01*
X74607879Y-87610139D01*
X74602900Y-87612201D01*
X74597525Y-87612583D01*
X74570061Y-87623093D01*
X74355903Y-87730171D01*
X74355689Y-87727993D01*
X74333291Y-87673921D01*
X74291907Y-87632537D01*
X74237835Y-87610139D01*
X74179307Y-87610139D01*
X74125235Y-87632537D01*
X74083851Y-87673921D01*
X74061453Y-87727993D01*
X74058571Y-87757257D01*
X72686838Y-87757257D01*
X72418510Y-87623093D01*
X72391047Y-87612583D01*
X72385669Y-87612200D01*
X72380692Y-87610139D01*
X72351428Y-87607257D01*
X71780000Y-87607257D01*
X71750736Y-87610139D01*
X71745757Y-87612201D01*
X71740382Y-87612583D01*
X71712918Y-87623093D01*
X71427203Y-87765950D01*
X71402317Y-87781615D01*
X71363971Y-87825830D01*
X71345463Y-87881352D01*
X71349611Y-87939732D01*
X71375786Y-87992082D01*
X71420001Y-88030428D01*
X71475523Y-88048936D01*
X71533903Y-88044788D01*
X71561367Y-88034278D01*
X71815410Y-87907257D01*
X72316018Y-87907257D01*
X72525338Y-88011917D01*
X72630000Y-88221238D01*
X72630000Y-88378837D01*
X72458875Y-88464400D01*
X71780000Y-88464400D01*
X71750736Y-88467282D01*
X71745757Y-88469344D01*
X71740382Y-88469726D01*
X71712918Y-88480236D01*
X71427203Y-88623093D01*
X71422308Y-88626173D01*
X71420001Y-88626943D01*
X71417126Y-88629435D01*
X71402317Y-88638758D01*
X71389994Y-88652966D01*
X71375786Y-88665289D01*
X71366463Y-88680098D01*
X71363971Y-88682973D01*
X71363201Y-88685280D01*
X71360121Y-88690175D01*
X71217264Y-88975889D01*
X71206754Y-89003352D01*
X71206371Y-89008729D01*
X71204310Y-89013707D01*
X71201428Y-89042971D01*
X68929999Y-89042971D01*
X68929999Y-88880227D01*
X70237833Y-88618660D01*
X70237835Y-88618660D01*
X70237836Y-88618659D01*
X70237988Y-88618629D01*
X70266119Y-88610064D01*
X70278331Y-88601885D01*
X70291907Y-88596262D01*
X70302407Y-88585761D01*
X70314748Y-88577497D01*
X70322899Y-88565269D01*
X70333291Y-88554878D01*
X70338975Y-88541155D01*
X70347212Y-88528800D01*
X70350063Y-88514386D01*
X70355689Y-88500806D01*
X70358571Y-88471542D01*
X70358571Y-88185828D01*
X70355689Y-88156564D01*
X70353625Y-88151583D01*
X70353244Y-88146209D01*
X70342735Y-88118745D01*
X70199877Y-87833032D01*
X70196796Y-87828137D01*
X70196027Y-87825830D01*
X70193534Y-87822955D01*
X70184212Y-87808146D01*
X70170002Y-87795822D01*
X70157681Y-87781615D01*
X70142875Y-87772295D01*
X70139997Y-87769799D01*
X70137685Y-87769028D01*
X70132795Y-87765950D01*
X69847081Y-87623093D01*
X69819618Y-87612583D01*
X69814240Y-87612200D01*
X69809263Y-87610139D01*
X69779999Y-87607257D01*
X69208571Y-87607257D01*
X69179307Y-87610139D01*
X69174328Y-87612201D01*
X69168953Y-87612583D01*
X69141489Y-87623093D01*
X68855774Y-87765950D01*
X68850879Y-87769030D01*
X68848572Y-87769800D01*
X68845697Y-87772292D01*
X68830888Y-87781615D01*
X68818565Y-87795823D01*
X68804357Y-87808146D01*
X68795034Y-87822955D01*
X68792542Y-87825830D01*
X68791772Y-87828137D01*
X68788692Y-87833032D01*
X68645835Y-88118746D01*
X68635325Y-88146209D01*
X68634942Y-88151586D01*
X68632881Y-88156564D01*
X68629999Y-88185828D01*
X67215714Y-88185828D01*
X67215714Y-86907257D01*
X67922857Y-86907257D01*
X67952121Y-86904375D01*
X68006193Y-86881977D01*
X68047577Y-86840593D01*
X68069975Y-86786521D01*
X68069975Y-86727993D01*
X80061453Y-86727993D01*
X80061453Y-86786521D01*
X80083851Y-86840593D01*
X80125235Y-86881977D01*
X80179307Y-86904375D01*
X80208571Y-86907257D01*
X81981090Y-86907257D01*
X80784985Y-89698169D01*
X80776107Y-89726202D01*
X80775394Y-89784725D01*
X80797130Y-89839065D01*
X80838007Y-89880952D01*
X80891802Y-89904007D01*
X80950325Y-89904720D01*
X81004665Y-89882984D01*
X81046552Y-89842107D01*
X81060729Y-89816345D01*
X82346443Y-86816345D01*
X82355322Y-86788311D01*
X82355333Y-86787379D01*
X82355689Y-86786521D01*
X82355689Y-86758187D01*
X82356035Y-86729788D01*
X82355689Y-86728923D01*
X82355689Y-86727993D01*
X82344850Y-86701828D01*
X82334299Y-86675449D01*
X82333647Y-86674781D01*
X82333291Y-86673921D01*
X82313253Y-86653883D01*
X82293422Y-86633562D01*
X82292564Y-86633194D01*
X82291907Y-86632537D01*
X82265737Y-86621697D01*
X82239626Y-86610506D01*
X82238693Y-86610494D01*
X82237835Y-86610139D01*
X82208571Y-86607257D01*
X80208571Y-86607257D01*
X80179307Y-86610139D01*
X80125235Y-86632537D01*
X80083851Y-86673921D01*
X80061453Y-86727993D01*
X68069975Y-86727993D01*
X68047577Y-86673921D01*
X68006193Y-86632537D01*
X67952121Y-86610139D01*
X67922857Y-86607257D01*
X66208571Y-86607257D01*
X66179307Y-86610139D01*
X66125235Y-86632537D01*
X66083851Y-86673921D01*
X66061453Y-86727993D01*
X65728120Y-86727993D01*
X65728120Y-81898161D01*
X67704311Y-81898161D01*
X67704311Y-81956689D01*
X67726709Y-82010761D01*
X67768093Y-82052145D01*
X67822165Y-82074543D01*
X67851429Y-82077425D01*
X68558572Y-82077425D01*
X68558572Y-84927425D01*
X68561454Y-84956689D01*
X68583852Y-85010761D01*
X68625236Y-85052145D01*
X68679308Y-85074543D01*
X68737836Y-85074543D01*
X68791908Y-85052145D01*
X68833292Y-85010761D01*
X68855690Y-84956689D01*
X68858572Y-84927425D01*
X68858572Y-82077425D01*
X69565715Y-82077425D01*
X69594979Y-82074543D01*
X69649051Y-82052145D01*
X69690435Y-82010761D01*
X69712833Y-81956689D01*
X69712833Y-81927425D01*
X70415714Y-81927425D01*
X70415714Y-84927425D01*
X70418596Y-84956689D01*
X70440994Y-85010761D01*
X70482378Y-85052145D01*
X70536450Y-85074543D01*
X70565714Y-85077425D01*
X71280000Y-85077425D01*
X71294811Y-85075966D01*
X71298761Y-85076247D01*
X71303955Y-85075065D01*
X71309264Y-85074543D01*
X71312926Y-85073025D01*
X71327434Y-85069727D01*
X71756005Y-84926871D01*
X71782856Y-84914882D01*
X71786926Y-84911351D01*
X71791906Y-84909289D01*
X71814637Y-84890634D01*
X72100352Y-84604919D01*
X72109791Y-84593417D01*
X72112785Y-84590821D01*
X72115625Y-84586307D01*
X72119007Y-84582188D01*
X72120522Y-84578528D01*
X72128450Y-84565935D01*
X72271307Y-84280221D01*
X72272125Y-84278082D01*
X72272771Y-84277211D01*
X72277152Y-84264946D01*
X72281817Y-84252758D01*
X72281893Y-84251674D01*
X72282664Y-84249519D01*
X72425521Y-83678091D01*
X72426271Y-83673018D01*
X72427118Y-83670974D01*
X72428203Y-83659954D01*
X72429823Y-83649002D01*
X72429497Y-83646813D01*
X72430000Y-83641710D01*
X72430000Y-83213139D01*
X72429497Y-83208035D01*
X72429823Y-83205847D01*
X72428203Y-83194894D01*
X72427118Y-83183875D01*
X72426271Y-83181830D01*
X72425521Y-83176758D01*
X72282664Y-82605330D01*
X72281893Y-82603174D01*
X72281817Y-82602091D01*
X72277152Y-82589902D01*
X72272771Y-82577638D01*
X72272125Y-82576766D01*
X72271307Y-82574628D01*
X72128450Y-82288914D01*
X72120523Y-82276322D01*
X72119007Y-82272660D01*
X72115623Y-82268537D01*
X72112785Y-82264028D01*
X72109792Y-82261432D01*
X72100352Y-82249930D01*
X71814637Y-81964216D01*
X71791906Y-81945561D01*
X71786926Y-81943498D01*
X71782856Y-81939968D01*
X71756005Y-81927979D01*
X71754343Y-81927425D01*
X73415714Y-81927425D01*
X73415714Y-84927425D01*
X73418596Y-84956689D01*
X73440994Y-85010761D01*
X73482378Y-85052145D01*
X73536450Y-85074543D01*
X73594978Y-85074543D01*
X73649050Y-85052145D01*
X73690434Y-85010761D01*
X73712832Y-84956689D01*
X73715714Y-84927425D01*
X73715714Y-83648853D01*
X74708571Y-83648853D01*
X74737835Y-83645971D01*
X74742813Y-83643908D01*
X74748189Y-83643527D01*
X74775653Y-83633017D01*
X75061368Y-83490160D01*
X75073961Y-83482232D01*
X75077621Y-83480717D01*
X75081740Y-83477335D01*
X75086254Y-83474495D01*
X75088850Y-83471501D01*
X75100352Y-83462062D01*
X75243209Y-83319205D01*
X75252649Y-83307702D01*
X75255642Y-83305107D01*
X75258480Y-83300597D01*
X75261864Y-83296475D01*
X75263380Y-83292812D01*
X75271307Y-83280221D01*
X75414164Y-82994507D01*
X75424674Y-82967044D01*
X75425056Y-82961666D01*
X75427118Y-82956689D01*
X75430000Y-82927425D01*
X75430000Y-82498853D01*
X75427118Y-82469589D01*
X75425056Y-82464611D01*
X75424674Y-82459234D01*
X75414164Y-82431771D01*
X75271307Y-82146057D01*
X75263380Y-82133465D01*
X75261864Y-82129803D01*
X75258480Y-82125680D01*
X75255642Y-82121171D01*
X75252649Y-82118575D01*
X75243209Y-82107073D01*
X75100352Y-81964216D01*
X75088850Y-81954776D01*
X75086254Y-81951783D01*
X75081740Y-81948942D01*
X75077621Y-81945561D01*
X75073961Y-81944045D01*
X75061368Y-81936118D01*
X74985454Y-81898161D01*
X78418596Y-81898161D01*
X78418596Y-81956689D01*
X78440994Y-82010761D01*
X78482378Y-82052145D01*
X78536450Y-82074543D01*
X78565714Y-82077425D01*
X80092291Y-82077425D01*
X79309971Y-82971506D01*
X79300928Y-82984154D01*
X79298137Y-82986946D01*
X79297040Y-82989592D01*
X79292869Y-82995428D01*
X79285062Y-83018509D01*
X79275739Y-83041018D01*
X79275739Y-83046077D01*
X79274118Y-83050870D01*
X79275739Y-83075179D01*
X79275739Y-83099546D01*
X79277675Y-83104221D01*
X79278012Y-83109266D01*
X79288810Y-83131101D01*
X79298137Y-83153618D01*
X79301713Y-83157194D01*
X79303956Y-83161729D01*
X79322291Y-83177772D01*
X79339521Y-83195002D01*
X79344195Y-83196938D01*
X79348003Y-83200270D01*
X79371084Y-83208076D01*
X79393593Y-83217400D01*
X79400730Y-83218102D01*
X79403445Y-83219021D01*
X79407384Y-83218758D01*
X79422857Y-83220282D01*
X79816018Y-83220282D01*
X80048289Y-83336417D01*
X80156722Y-83444850D01*
X80272857Y-83677120D01*
X80272857Y-84320586D01*
X80156721Y-84552856D01*
X80048288Y-84661290D01*
X79816018Y-84777425D01*
X79029695Y-84777425D01*
X78797425Y-84661290D01*
X78671780Y-84535644D01*
X78649050Y-84516989D01*
X78594977Y-84494592D01*
X78536452Y-84494592D01*
X78482379Y-84516989D01*
X78440993Y-84558374D01*
X78418596Y-84612447D01*
X78418596Y-84670972D01*
X78440993Y-84725045D01*
X78459648Y-84747776D01*
X78602505Y-84890634D01*
X78614007Y-84900074D01*
X78616603Y-84903067D01*
X78621112Y-84905905D01*
X78625235Y-84909289D01*
X78628897Y-84910805D01*
X78641489Y-84918732D01*
X78927203Y-85061589D01*
X78954666Y-85072099D01*
X78960043Y-85072481D01*
X78965021Y-85074543D01*
X78994285Y-85077425D01*
X79851428Y-85077425D01*
X79880692Y-85074543D01*
X79885670Y-85072480D01*
X79891046Y-85072099D01*
X79918510Y-85061589D01*
X80204225Y-84918732D01*
X80216816Y-84910805D01*
X80220479Y-84909289D01*
X80224601Y-84905905D01*
X80229111Y-84903067D01*
X80231706Y-84900074D01*
X80243209Y-84890634D01*
X80386066Y-84747776D01*
X80395505Y-84736274D01*
X80398499Y-84733678D01*
X80401339Y-84729164D01*
X80404721Y-84725045D01*
X80406236Y-84721385D01*
X80414164Y-84708792D01*
X80557021Y-84423078D01*
X80567531Y-84395615D01*
X80567913Y-84390237D01*
X80569975Y-84385260D01*
X80572857Y-84355996D01*
X80572857Y-83641710D01*
X80569975Y-83612446D01*
X80567913Y-83607468D01*
X80567531Y-83602091D01*
X80557021Y-83574628D01*
X80414164Y-83288914D01*
X80406237Y-83276322D01*
X80404721Y-83272660D01*
X80401337Y-83268537D01*
X80398499Y-83264028D01*
X80395506Y-83261432D01*
X80386066Y-83249930D01*
X80243209Y-83107073D01*
X80231707Y-83097633D01*
X80229111Y-83094640D01*
X80224597Y-83091799D01*
X80220478Y-83088418D01*
X80216818Y-83086902D01*
X80204225Y-83078975D01*
X79918510Y-82936118D01*
X79891046Y-82925608D01*
X79885670Y-82925226D01*
X79880692Y-82923164D01*
X79851428Y-82920282D01*
X79753422Y-82920282D01*
X80535743Y-82026201D01*
X80544786Y-82013551D01*
X80547577Y-82010761D01*
X80548672Y-82008116D01*
X80552845Y-82002280D01*
X80560650Y-81979200D01*
X80569975Y-81956689D01*
X80569975Y-81951627D01*
X80571595Y-81946837D01*
X80569975Y-81922536D01*
X80569975Y-81898161D01*
X80568038Y-81893485D01*
X80567702Y-81888441D01*
X80556903Y-81866605D01*
X80547577Y-81844089D01*
X80544000Y-81840512D01*
X80541758Y-81835978D01*
X80523422Y-81819934D01*
X80506193Y-81802705D01*
X80501518Y-81800768D01*
X80497711Y-81797437D01*
X80474635Y-81789633D01*
X80452121Y-81780307D01*
X80444979Y-81779603D01*
X80442269Y-81778687D01*
X80438334Y-81778949D01*
X80422857Y-81777425D01*
X78565714Y-81777425D01*
X78536450Y-81780307D01*
X78482378Y-81802705D01*
X78440994Y-81844089D01*
X78418596Y-81898161D01*
X74985454Y-81898161D01*
X74775653Y-81793261D01*
X74748189Y-81782751D01*
X74742813Y-81782369D01*
X74737835Y-81780307D01*
X74708571Y-81777425D01*
X73565714Y-81777425D01*
X73536450Y-81780307D01*
X73482378Y-81802705D01*
X73440994Y-81844089D01*
X73418596Y-81898161D01*
X73415714Y-81927425D01*
X71754343Y-81927425D01*
X71327434Y-81785123D01*
X71312926Y-81781824D01*
X71309264Y-81780307D01*
X71303955Y-81779784D01*
X71298761Y-81778603D01*
X71294811Y-81778883D01*
X71280000Y-81777425D01*
X70565714Y-81777425D01*
X70536450Y-81780307D01*
X70482378Y-81802705D01*
X70440994Y-81844089D01*
X70418596Y-81898161D01*
X70415714Y-81927425D01*
X69712833Y-81927425D01*
X69712833Y-81898161D01*
X69690435Y-81844089D01*
X69649051Y-81802705D01*
X69594979Y-81780307D01*
X69565715Y-81777425D01*
X67851429Y-81777425D01*
X67822165Y-81780307D01*
X67768093Y-81802705D01*
X67726709Y-81844089D01*
X67704311Y-81898161D01*
X65728120Y-81898161D01*
X65728120Y-81444092D01*
X82689368Y-81444092D01*
X82689368Y-90240590D01*
G37*
G36*
X97384286Y-72222819D02*
G01*
X97384286Y-73751694D01*
X97213161Y-73837257D01*
X96712553Y-73837257D01*
X96480282Y-73721122D01*
X96371849Y-73612688D01*
X96255714Y-73380418D01*
X96255714Y-72594095D01*
X96371849Y-72361825D01*
X96480281Y-72253392D01*
X96712553Y-72137257D01*
X97213161Y-72137257D01*
X97384286Y-72222819D01*
G37*
G36*
X84302573Y-72253392D02*
G01*
X84411007Y-72361825D01*
X84527142Y-72594095D01*
X84527142Y-73380418D01*
X84411007Y-73612688D01*
X84302573Y-73721122D01*
X84070303Y-73837257D01*
X83712552Y-73837257D01*
X83480281Y-73721122D01*
X83371848Y-73612688D01*
X83255713Y-73380418D01*
X83255713Y-72594095D01*
X83371848Y-72361825D01*
X83480280Y-72253392D01*
X83712552Y-72137257D01*
X84070303Y-72137257D01*
X84302573Y-72253392D01*
G37*
G36*
X88812857Y-73751694D02*
G01*
X88641732Y-73837257D01*
X87998267Y-73837257D01*
X87788945Y-73732596D01*
X87684285Y-73523275D01*
X87684285Y-73308381D01*
X87788945Y-73099060D01*
X87998267Y-72994400D01*
X88677142Y-72994400D01*
X88706406Y-72991518D01*
X88711383Y-72989456D01*
X88716761Y-72989074D01*
X88744224Y-72978564D01*
X88812857Y-72944247D01*
X88812857Y-73751694D01*
G37*
G36*
X105302574Y-72253392D02*
G01*
X105411008Y-72361825D01*
X105527143Y-72594095D01*
X105527143Y-73380418D01*
X105411008Y-73612688D01*
X105302574Y-73721122D01*
X105070304Y-73837257D01*
X104712553Y-73837257D01*
X104480282Y-73721122D01*
X104371849Y-73612688D01*
X104255714Y-73380418D01*
X104255714Y-72594095D01*
X104371849Y-72361825D01*
X104480281Y-72253392D01*
X104712553Y-72137257D01*
X105070304Y-72137257D01*
X105302574Y-72253392D01*
G37*
G36*
X112527144Y-73751694D02*
G01*
X112356019Y-73837257D01*
X111712554Y-73837257D01*
X111503232Y-73732596D01*
X111398572Y-73523275D01*
X111398572Y-73308381D01*
X111503232Y-73099060D01*
X111712554Y-72994400D01*
X112391429Y-72994400D01*
X112420693Y-72991518D01*
X112425670Y-72989456D01*
X112431048Y-72989074D01*
X112458511Y-72978564D01*
X112527144Y-72944247D01*
X112527144Y-73751694D01*
G37*
G36*
X81588288Y-71253392D02*
G01*
X81696721Y-71361825D01*
X81812856Y-71594095D01*
X81812856Y-71951847D01*
X81696721Y-72184117D01*
X81588288Y-72292549D01*
X81356017Y-72408685D01*
X80398570Y-72408685D01*
X80398570Y-71137257D01*
X81356017Y-71137257D01*
X81588288Y-71253392D01*
G37*
G36*
X116670000Y-67392987D02*
G01*
X116670000Y-68921862D01*
X116498875Y-69007425D01*
X115998267Y-69007425D01*
X115765996Y-68891290D01*
X115657563Y-68782856D01*
X115541428Y-68550586D01*
X115541428Y-67764263D01*
X115657563Y-67531993D01*
X115765995Y-67423560D01*
X115998267Y-67307425D01*
X116498875Y-67307425D01*
X116670000Y-67392987D01*
G37*
G36*
X104445431Y-67423560D02*
G01*
X104553865Y-67531993D01*
X104670000Y-67764263D01*
X104670000Y-68550586D01*
X104553865Y-68782856D01*
X104445431Y-68891290D01*
X104213161Y-69007425D01*
X103712553Y-69007425D01*
X103541428Y-68921862D01*
X103541428Y-67392987D01*
X103712553Y-67307425D01*
X104213161Y-67307425D01*
X104445431Y-67423560D01*
G37*
G36*
X87738971Y-66431386D02*
G01*
X87982436Y-66674850D01*
X88107043Y-66924065D01*
X88241428Y-67461606D01*
X88241428Y-67853242D01*
X88107043Y-68390783D01*
X87982436Y-68639999D01*
X87738971Y-68883463D01*
X87367088Y-69007425D01*
X86827142Y-69007425D01*
X86827142Y-66307425D01*
X87367088Y-66307425D01*
X87738971Y-66431386D01*
G37*
G36*
X93588289Y-66423560D02*
G01*
X93696722Y-66531993D01*
X93812857Y-66764263D01*
X93812857Y-67122015D01*
X93696722Y-67354285D01*
X93588289Y-67462717D01*
X93356018Y-67578853D01*
X92398571Y-67578853D01*
X92398571Y-66307425D01*
X93356018Y-66307425D01*
X93588289Y-66423560D01*
G37*
G36*
X109731146Y-66423560D02*
G01*
X109839579Y-66531993D01*
X109955714Y-66764263D01*
X109955714Y-67122015D01*
X109839579Y-67354285D01*
X109731146Y-67462717D01*
X109498875Y-67578853D01*
X108541428Y-67578853D01*
X108541428Y-66307425D01*
X109498875Y-66307425D01*
X109731146Y-66423560D01*
G37*
G36*
X90754743Y-68150282D02*
G01*
X89742399Y-68150282D01*
X90248571Y-66631766D01*
X90754743Y-68150282D01*
G37*
G36*
X120017620Y-75470590D02*
G01*
X79765237Y-75470590D01*
X79765237Y-70987257D01*
X80098570Y-70987257D01*
X80098570Y-73987257D01*
X80101452Y-74016521D01*
X80123850Y-74070593D01*
X80165234Y-74111977D01*
X80219306Y-74134375D01*
X80277834Y-74134375D01*
X80331906Y-74111977D01*
X80373290Y-74070593D01*
X80395688Y-74016521D01*
X80398570Y-73987257D01*
X80398570Y-72708685D01*
X80884758Y-72708685D01*
X81839971Y-74073276D01*
X81859114Y-74095598D01*
X81908471Y-74127051D01*
X81966107Y-74137222D01*
X82023249Y-74124562D01*
X82071197Y-74090999D01*
X82102650Y-74041641D01*
X82112821Y-73984006D01*
X82100162Y-73926864D01*
X82085741Y-73901238D01*
X81250954Y-72708685D01*
X81391427Y-72708685D01*
X81420691Y-72705803D01*
X81425669Y-72703740D01*
X81431045Y-72703359D01*
X81458509Y-72692849D01*
X81726838Y-72558685D01*
X82955713Y-72558685D01*
X82955713Y-73415828D01*
X82958595Y-73445092D01*
X82960656Y-73450069D01*
X82961039Y-73455447D01*
X82971549Y-73482910D01*
X83114406Y-73768624D01*
X83122333Y-73781217D01*
X83123849Y-73784877D01*
X83127230Y-73788996D01*
X83130071Y-73793510D01*
X83133064Y-73796106D01*
X83142504Y-73807608D01*
X83285361Y-73950466D01*
X83296863Y-73959906D01*
X83299459Y-73962899D01*
X83303968Y-73965737D01*
X83308091Y-73969121D01*
X83311753Y-73970637D01*
X83324345Y-73978564D01*
X83610060Y-74121421D01*
X83637524Y-74131931D01*
X83642899Y-74132312D01*
X83647878Y-74134375D01*
X83677142Y-74137257D01*
X84105713Y-74137257D01*
X84134977Y-74134375D01*
X84139954Y-74132313D01*
X84145332Y-74131931D01*
X84172795Y-74121421D01*
X84458509Y-73978564D01*
X84471102Y-73970636D01*
X84474762Y-73969121D01*
X84478881Y-73965739D01*
X84483395Y-73962899D01*
X84485991Y-73959905D01*
X84497493Y-73950466D01*
X84640351Y-73807608D01*
X84649790Y-73796106D01*
X84652784Y-73793510D01*
X84655624Y-73788996D01*
X84659006Y-73784877D01*
X84660521Y-73781217D01*
X84668449Y-73768624D01*
X84811306Y-73482910D01*
X84821816Y-73455447D01*
X84822198Y-73450069D01*
X84824260Y-73445092D01*
X84827142Y-73415828D01*
X84827142Y-72558685D01*
X84824260Y-72529421D01*
X84822198Y-72524443D01*
X84821816Y-72519066D01*
X84811306Y-72491603D01*
X84668449Y-72205889D01*
X84660522Y-72193297D01*
X84659006Y-72189635D01*
X84655622Y-72185512D01*
X84652784Y-72181003D01*
X84649791Y-72178407D01*
X84640351Y-72166905D01*
X84497493Y-72024048D01*
X84485991Y-72014608D01*
X84483395Y-72011615D01*
X84478881Y-72008774D01*
X84474762Y-72005393D01*
X84471102Y-72003877D01*
X84458509Y-71995950D01*
X84382595Y-71957993D01*
X85387167Y-71957993D01*
X85387167Y-72016521D01*
X85409565Y-72070593D01*
X85450949Y-72111977D01*
X85505021Y-72134375D01*
X85534285Y-72137257D01*
X85812856Y-72137257D01*
X85812856Y-73558685D01*
X85815738Y-73587949D01*
X85817800Y-73592927D01*
X85818182Y-73598303D01*
X85828692Y-73625767D01*
X85971549Y-73911482D01*
X85974629Y-73916376D01*
X85975399Y-73918684D01*
X85977891Y-73921558D01*
X85987214Y-73936368D01*
X86001422Y-73948690D01*
X86013745Y-73962899D01*
X86028554Y-73972221D01*
X86031429Y-73974714D01*
X86033736Y-73975483D01*
X86038631Y-73978564D01*
X86324346Y-74121421D01*
X86351810Y-74131931D01*
X86357185Y-74132312D01*
X86362164Y-74134375D01*
X86391428Y-74137257D01*
X86677142Y-74137257D01*
X86706406Y-74134375D01*
X86760478Y-74111977D01*
X86801862Y-74070593D01*
X86824260Y-74016521D01*
X86824260Y-73957993D01*
X86801862Y-73903921D01*
X86760478Y-73862537D01*
X86706406Y-73840139D01*
X86677142Y-73837257D01*
X86426838Y-73837257D01*
X86217516Y-73732596D01*
X86112856Y-73523275D01*
X86112856Y-73272971D01*
X87384285Y-73272971D01*
X87384285Y-73558685D01*
X87387167Y-73587949D01*
X87389229Y-73592927D01*
X87389611Y-73598303D01*
X87400121Y-73625767D01*
X87542978Y-73911482D01*
X87546058Y-73916376D01*
X87546828Y-73918684D01*
X87549320Y-73921558D01*
X87558643Y-73936368D01*
X87572851Y-73948690D01*
X87585174Y-73962899D01*
X87599983Y-73972221D01*
X87602858Y-73974714D01*
X87605165Y-73975483D01*
X87610060Y-73978564D01*
X87895775Y-74121421D01*
X87923239Y-74131931D01*
X87928614Y-74132312D01*
X87933593Y-74134375D01*
X87962857Y-74137257D01*
X88677142Y-74137257D01*
X88706406Y-74134375D01*
X88711384Y-74132312D01*
X88716760Y-74131931D01*
X88744224Y-74121421D01*
X88840718Y-74073174D01*
X88879521Y-74111977D01*
X88933593Y-74134375D01*
X88992121Y-74134375D01*
X89046193Y-74111977D01*
X89087577Y-74070593D01*
X89109975Y-74016521D01*
X89112857Y-73987257D01*
X89112857Y-72415828D01*
X89109975Y-72386564D01*
X89107911Y-72381583D01*
X89107530Y-72376209D01*
X89097021Y-72348745D01*
X88954163Y-72063032D01*
X88951082Y-72058137D01*
X88950313Y-72055830D01*
X88947820Y-72052955D01*
X88938498Y-72038146D01*
X88924288Y-72025822D01*
X88911967Y-72011615D01*
X88897161Y-72002295D01*
X88894283Y-71999799D01*
X88891971Y-71999028D01*
X88887081Y-71995950D01*
X88811167Y-71957993D01*
X89815739Y-71957993D01*
X89815739Y-72016521D01*
X89838137Y-72070593D01*
X89879521Y-72111977D01*
X89933593Y-72134375D01*
X89962857Y-72137257D01*
X90241428Y-72137257D01*
X90241428Y-73558685D01*
X90244310Y-73587949D01*
X90246372Y-73592927D01*
X90246754Y-73598303D01*
X90257264Y-73625767D01*
X90400121Y-73911482D01*
X90403201Y-73916376D01*
X90403971Y-73918684D01*
X90406463Y-73921558D01*
X90415786Y-73936368D01*
X90429994Y-73948690D01*
X90442317Y-73962899D01*
X90457126Y-73972221D01*
X90460001Y-73974714D01*
X90462308Y-73975483D01*
X90467203Y-73978564D01*
X90752918Y-74121421D01*
X90780382Y-74131931D01*
X90785757Y-74132312D01*
X90790736Y-74134375D01*
X90820000Y-74137257D01*
X91105714Y-74137257D01*
X91134978Y-74134375D01*
X91189050Y-74111977D01*
X91230434Y-74070593D01*
X91252832Y-74016521D01*
X91252832Y-73957993D01*
X91230434Y-73903921D01*
X91189050Y-73862537D01*
X91134978Y-73840139D01*
X91105714Y-73837257D01*
X90855410Y-73837257D01*
X90646088Y-73732596D01*
X90541428Y-73523275D01*
X90541428Y-72137257D01*
X91105714Y-72137257D01*
X91134978Y-72134375D01*
X91189050Y-72111977D01*
X91230434Y-72070593D01*
X91252832Y-72016521D01*
X91252832Y-71987257D01*
X91955714Y-71987257D01*
X91955714Y-73987257D01*
X91958596Y-74016521D01*
X91980994Y-74070593D01*
X92022378Y-74111977D01*
X92076450Y-74134375D01*
X92134978Y-74134375D01*
X92189050Y-74111977D01*
X92230434Y-74070593D01*
X92252832Y-74016521D01*
X92255714Y-73987257D01*
X92255714Y-71987257D01*
X93384285Y-71987257D01*
X93384285Y-73987257D01*
X93387167Y-74016521D01*
X93409565Y-74070593D01*
X93450949Y-74111977D01*
X93505021Y-74134375D01*
X93563549Y-74134375D01*
X93617621Y-74111977D01*
X93659005Y-74070593D01*
X93681403Y-74016521D01*
X93684285Y-73987257D01*
X93684285Y-72335103D01*
X93765995Y-72253392D01*
X93998267Y-72137257D01*
X94356018Y-72137257D01*
X94565338Y-72241917D01*
X94670000Y-72451238D01*
X94670000Y-73987257D01*
X94672882Y-74016521D01*
X94695280Y-74070593D01*
X94736664Y-74111977D01*
X94790736Y-74134375D01*
X94849264Y-74134375D01*
X94903336Y-74111977D01*
X94944720Y-74070593D01*
X94967118Y-74016521D01*
X94970000Y-73987257D01*
X94970000Y-72558685D01*
X95955714Y-72558685D01*
X95955714Y-73415828D01*
X95958596Y-73445092D01*
X95960657Y-73450069D01*
X95961040Y-73455447D01*
X95971550Y-73482910D01*
X96114407Y-73768624D01*
X96122334Y-73781217D01*
X96123850Y-73784877D01*
X96127231Y-73788996D01*
X96130072Y-73793510D01*
X96133065Y-73796106D01*
X96142505Y-73807608D01*
X96285362Y-73950466D01*
X96296864Y-73959906D01*
X96299460Y-73962899D01*
X96303969Y-73965737D01*
X96308092Y-73969121D01*
X96311754Y-73970637D01*
X96324346Y-73978564D01*
X96610061Y-74121421D01*
X96637525Y-74131931D01*
X96642900Y-74132312D01*
X96647879Y-74134375D01*
X96677143Y-74137257D01*
X97248571Y-74137257D01*
X97277835Y-74134375D01*
X97282813Y-74132312D01*
X97288189Y-74131931D01*
X97315653Y-74121421D01*
X97384286Y-74087104D01*
X97384286Y-74380417D01*
X97268150Y-74612688D01*
X97159716Y-74721122D01*
X96927447Y-74837257D01*
X96569696Y-74837257D01*
X96315653Y-74710236D01*
X96288189Y-74699726D01*
X96229809Y-74695578D01*
X96174287Y-74714086D01*
X96130072Y-74752432D01*
X96103897Y-74804782D01*
X96099749Y-74863162D01*
X96118257Y-74918684D01*
X96156603Y-74962899D01*
X96181489Y-74978564D01*
X96467204Y-75121421D01*
X96494668Y-75131931D01*
X96500043Y-75132312D01*
X96505022Y-75134375D01*
X96534286Y-75137257D01*
X96962857Y-75137257D01*
X96992121Y-75134375D01*
X96997098Y-75132313D01*
X97002476Y-75131931D01*
X97029939Y-75121421D01*
X97315653Y-74978564D01*
X97328244Y-74970637D01*
X97331907Y-74969121D01*
X97336029Y-74965737D01*
X97340539Y-74962899D01*
X97343134Y-74959906D01*
X97354637Y-74950466D01*
X97497494Y-74807608D01*
X97506932Y-74796106D01*
X97509927Y-74793510D01*
X97512767Y-74788996D01*
X97516149Y-74784877D01*
X97517664Y-74781217D01*
X97525592Y-74768624D01*
X97668450Y-74482911D01*
X97678959Y-74455447D01*
X97679340Y-74450072D01*
X97681404Y-74445092D01*
X97684286Y-74415828D01*
X97684286Y-72272971D01*
X100955714Y-72272971D01*
X100955714Y-72701542D01*
X100956216Y-72706645D01*
X100955891Y-72708833D01*
X100957510Y-72719783D01*
X100958596Y-72730806D01*
X100959443Y-72732850D01*
X100960193Y-72737922D01*
X101103049Y-73309351D01*
X101103820Y-73311509D01*
X101103897Y-73312590D01*
X101108557Y-73324768D01*
X101112943Y-73337042D01*
X101113587Y-73337912D01*
X101114407Y-73340053D01*
X101257264Y-73625767D01*
X101265191Y-73638360D01*
X101266707Y-73642020D01*
X101270088Y-73646139D01*
X101272929Y-73650653D01*
X101275922Y-73653249D01*
X101285362Y-73664751D01*
X101571077Y-73950466D01*
X101593808Y-73969121D01*
X101598787Y-73971183D01*
X101602858Y-73974714D01*
X101629709Y-73986702D01*
X102058279Y-74129559D01*
X102072788Y-74132858D01*
X102076450Y-74134375D01*
X102081758Y-74134897D01*
X102086953Y-74136079D01*
X102090902Y-74135798D01*
X102105714Y-74137257D01*
X102391428Y-74137257D01*
X102406239Y-74135798D01*
X102410188Y-74136079D01*
X102415383Y-74134897D01*
X102420692Y-74134375D01*
X102424352Y-74132858D01*
X102438862Y-74129560D01*
X102867434Y-73986703D01*
X102894285Y-73974714D01*
X102898354Y-73971184D01*
X102903336Y-73969121D01*
X102926066Y-73950466D01*
X103068923Y-73807608D01*
X103087578Y-73784877D01*
X103109975Y-73730804D01*
X103109975Y-73672279D01*
X103087578Y-73618206D01*
X103046192Y-73576821D01*
X102992119Y-73554424D01*
X102933594Y-73554424D01*
X102879521Y-73576821D01*
X102856791Y-73595476D01*
X102738971Y-73713295D01*
X102367085Y-73837257D01*
X102130057Y-73837257D01*
X101758170Y-73713295D01*
X101514706Y-73469831D01*
X101390098Y-73220616D01*
X101255714Y-72683078D01*
X101255714Y-72558685D01*
X103955714Y-72558685D01*
X103955714Y-73415828D01*
X103958596Y-73445092D01*
X103960657Y-73450069D01*
X103961040Y-73455447D01*
X103971550Y-73482910D01*
X104114407Y-73768624D01*
X104122334Y-73781217D01*
X104123850Y-73784877D01*
X104127231Y-73788996D01*
X104130072Y-73793510D01*
X104133065Y-73796106D01*
X104142505Y-73807608D01*
X104285362Y-73950466D01*
X104296864Y-73959906D01*
X104299460Y-73962899D01*
X104303969Y-73965737D01*
X104308092Y-73969121D01*
X104311754Y-73970637D01*
X104324346Y-73978564D01*
X104610061Y-74121421D01*
X104637525Y-74131931D01*
X104642900Y-74132312D01*
X104647879Y-74134375D01*
X104677143Y-74137257D01*
X105105714Y-74137257D01*
X105134978Y-74134375D01*
X105139955Y-74132313D01*
X105145333Y-74131931D01*
X105172796Y-74121421D01*
X105458510Y-73978564D01*
X105471103Y-73970636D01*
X105474763Y-73969121D01*
X105478882Y-73965739D01*
X105483396Y-73962899D01*
X105485992Y-73959905D01*
X105497494Y-73950466D01*
X105640352Y-73807608D01*
X105649791Y-73796106D01*
X105652785Y-73793510D01*
X105655625Y-73788996D01*
X105659007Y-73784877D01*
X105660522Y-73781217D01*
X105668450Y-73768624D01*
X105811307Y-73482910D01*
X105821817Y-73455447D01*
X105822199Y-73450069D01*
X105824261Y-73445092D01*
X105827143Y-73415828D01*
X105827143Y-72558685D01*
X105824261Y-72529421D01*
X105822199Y-72524443D01*
X105821817Y-72519066D01*
X105811307Y-72491603D01*
X105668450Y-72205889D01*
X105660523Y-72193297D01*
X105659007Y-72189635D01*
X105655623Y-72185512D01*
X105652785Y-72181003D01*
X105649792Y-72178407D01*
X105640352Y-72166905D01*
X105497494Y-72024048D01*
X105485992Y-72014608D01*
X105483396Y-72011615D01*
X105478882Y-72008774D01*
X105474763Y-72005393D01*
X105471103Y-72003877D01*
X105458510Y-71995950D01*
X105441124Y-71987257D01*
X106812857Y-71987257D01*
X106812857Y-73987257D01*
X106815739Y-74016521D01*
X106838137Y-74070593D01*
X106879521Y-74111977D01*
X106933593Y-74134375D01*
X106992121Y-74134375D01*
X107046193Y-74111977D01*
X107087577Y-74070593D01*
X107109975Y-74016521D01*
X107112857Y-73987257D01*
X107112857Y-72335103D01*
X107194567Y-72253392D01*
X107426839Y-72137257D01*
X107784590Y-72137257D01*
X107993910Y-72241917D01*
X108098572Y-72451238D01*
X108098572Y-73987257D01*
X108101454Y-74016521D01*
X108123852Y-74070593D01*
X108165236Y-74111977D01*
X108219308Y-74134375D01*
X108277836Y-74134375D01*
X108331908Y-74111977D01*
X108373292Y-74070593D01*
X108395690Y-74016521D01*
X108398572Y-73987257D01*
X108398572Y-72415828D01*
X108395690Y-72386564D01*
X108393626Y-72381583D01*
X108393245Y-72376209D01*
X108382736Y-72348745D01*
X108239878Y-72063032D01*
X108236797Y-72058137D01*
X108236028Y-72055830D01*
X108233535Y-72052955D01*
X108224213Y-72038146D01*
X108210003Y-72025822D01*
X108197682Y-72011615D01*
X108182876Y-72002295D01*
X108179998Y-71999799D01*
X108177686Y-71999028D01*
X108172796Y-71995950D01*
X108096882Y-71957993D01*
X109101454Y-71957993D01*
X109101454Y-72016521D01*
X109123852Y-72070593D01*
X109165236Y-72111977D01*
X109219308Y-72134375D01*
X109248572Y-72137257D01*
X109527143Y-72137257D01*
X109527143Y-73558685D01*
X109530025Y-73587949D01*
X109532087Y-73592927D01*
X109532469Y-73598303D01*
X109542979Y-73625767D01*
X109685836Y-73911482D01*
X109688916Y-73916376D01*
X109689686Y-73918684D01*
X109692178Y-73921558D01*
X109701501Y-73936368D01*
X109715709Y-73948690D01*
X109728032Y-73962899D01*
X109742841Y-73972221D01*
X109745716Y-73974714D01*
X109748023Y-73975483D01*
X109752918Y-73978564D01*
X110038633Y-74121421D01*
X110066097Y-74131931D01*
X110071472Y-74132312D01*
X110076451Y-74134375D01*
X110105715Y-74137257D01*
X110391429Y-74137257D01*
X110420693Y-74134375D01*
X110474765Y-74111977D01*
X110516149Y-74070593D01*
X110538547Y-74016521D01*
X110538547Y-73957993D01*
X110516149Y-73903921D01*
X110474765Y-73862537D01*
X110420693Y-73840139D01*
X110391429Y-73837257D01*
X110141125Y-73837257D01*
X109931803Y-73732596D01*
X109827143Y-73523275D01*
X109827143Y-73272971D01*
X111098572Y-73272971D01*
X111098572Y-73558685D01*
X111101454Y-73587949D01*
X111103516Y-73592927D01*
X111103898Y-73598303D01*
X111114408Y-73625767D01*
X111257265Y-73911482D01*
X111260345Y-73916376D01*
X111261115Y-73918684D01*
X111263607Y-73921558D01*
X111272930Y-73936368D01*
X111287138Y-73948690D01*
X111299461Y-73962899D01*
X111314270Y-73972221D01*
X111317145Y-73974714D01*
X111319452Y-73975483D01*
X111324347Y-73978564D01*
X111610062Y-74121421D01*
X111637526Y-74131931D01*
X111642901Y-74132312D01*
X111647880Y-74134375D01*
X111677144Y-74137257D01*
X112391429Y-74137257D01*
X112420693Y-74134375D01*
X112425671Y-74132312D01*
X112431047Y-74131931D01*
X112458511Y-74121421D01*
X112555005Y-74073174D01*
X112593808Y-74111977D01*
X112647880Y-74134375D01*
X112706408Y-74134375D01*
X112760480Y-74111977D01*
X112801864Y-74070593D01*
X112824262Y-74016521D01*
X112827144Y-73987257D01*
X112827144Y-72558685D01*
X113812858Y-72558685D01*
X113812858Y-73415828D01*
X113815740Y-73445092D01*
X113817801Y-73450069D01*
X113818184Y-73455447D01*
X113828694Y-73482910D01*
X113971551Y-73768624D01*
X113979478Y-73781217D01*
X113980994Y-73784877D01*
X113984375Y-73788996D01*
X113987216Y-73793510D01*
X113990209Y-73796106D01*
X113999649Y-73807608D01*
X114142506Y-73950466D01*
X114154008Y-73959906D01*
X114156604Y-73962899D01*
X114161113Y-73965737D01*
X114165236Y-73969121D01*
X114168898Y-73970637D01*
X114181490Y-73978564D01*
X114467205Y-74121421D01*
X114494669Y-74131931D01*
X114500044Y-74132312D01*
X114505023Y-74134375D01*
X114534287Y-74137257D01*
X115105715Y-74137257D01*
X115134979Y-74134375D01*
X115139957Y-74132312D01*
X115145333Y-74131931D01*
X115172797Y-74121421D01*
X115458512Y-73978564D01*
X115483398Y-73962899D01*
X115521744Y-73918684D01*
X115540252Y-73863162D01*
X115536104Y-73804781D01*
X115509929Y-73752432D01*
X115465714Y-73714086D01*
X115410192Y-73695578D01*
X115351812Y-73699726D01*
X115324348Y-73710236D01*
X115070305Y-73837257D01*
X114569697Y-73837257D01*
X114337426Y-73721122D01*
X114228993Y-73612688D01*
X114112858Y-73380418D01*
X114112858Y-72594095D01*
X114228993Y-72361825D01*
X114337425Y-72253392D01*
X114569697Y-72137257D01*
X115070305Y-72137257D01*
X115324348Y-72264278D01*
X115351812Y-72274788D01*
X115410192Y-72278936D01*
X115465714Y-72260428D01*
X115509929Y-72222082D01*
X115536104Y-72169733D01*
X115540252Y-72111352D01*
X115521744Y-72055830D01*
X115483398Y-72011615D01*
X115458512Y-71995950D01*
X115382598Y-71957993D01*
X116101455Y-71957993D01*
X116101455Y-72016521D01*
X116123853Y-72070593D01*
X116165237Y-72111977D01*
X116219309Y-72134375D01*
X116248573Y-72137257D01*
X116527144Y-72137257D01*
X116527144Y-73558685D01*
X116530026Y-73587949D01*
X116532088Y-73592927D01*
X116532470Y-73598303D01*
X116542980Y-73625767D01*
X116685837Y-73911482D01*
X116688917Y-73916376D01*
X116689687Y-73918684D01*
X116692179Y-73921558D01*
X116701502Y-73936368D01*
X116715710Y-73948690D01*
X116728033Y-73962899D01*
X116742842Y-73972221D01*
X116745717Y-73974714D01*
X116748024Y-73975483D01*
X116752919Y-73978564D01*
X117038634Y-74121421D01*
X117066098Y-74131931D01*
X117071473Y-74132312D01*
X117076452Y-74134375D01*
X117105716Y-74137257D01*
X117391430Y-74137257D01*
X117420694Y-74134375D01*
X117474766Y-74111977D01*
X117516150Y-74070593D01*
X117538548Y-74016521D01*
X117538548Y-73957993D01*
X117516150Y-73903921D01*
X117474766Y-73862537D01*
X117420694Y-73840139D01*
X117391430Y-73837257D01*
X117141126Y-73837257D01*
X116931804Y-73732596D01*
X116827144Y-73523275D01*
X116827144Y-72415828D01*
X118098573Y-72415828D01*
X118098573Y-72558685D01*
X118101455Y-72587949D01*
X118103517Y-72592927D01*
X118103899Y-72598303D01*
X118114409Y-72625767D01*
X118257266Y-72911482D01*
X118260346Y-72916376D01*
X118261116Y-72918684D01*
X118263608Y-72921558D01*
X118272931Y-72936368D01*
X118287139Y-72948690D01*
X118299462Y-72962899D01*
X118314271Y-72972221D01*
X118317146Y-72974714D01*
X118319453Y-72975483D01*
X118324348Y-72978564D01*
X118610063Y-73121421D01*
X118637527Y-73131931D01*
X118642902Y-73132312D01*
X118647881Y-73134375D01*
X118677145Y-73137257D01*
X119070306Y-73137257D01*
X119279626Y-73241917D01*
X119384287Y-73451238D01*
X119384287Y-73523275D01*
X119279626Y-73732596D01*
X119070306Y-73837257D01*
X118569697Y-73837257D01*
X118315655Y-73710236D01*
X118288192Y-73699726D01*
X118229811Y-73695578D01*
X118174289Y-73714086D01*
X118130074Y-73752432D01*
X118103899Y-73804781D01*
X118099751Y-73863162D01*
X118118259Y-73918684D01*
X118156605Y-73962899D01*
X118181491Y-73978564D01*
X118467205Y-74121421D01*
X118494668Y-74131931D01*
X118500045Y-74132313D01*
X118505023Y-74134375D01*
X118534287Y-74137257D01*
X119105716Y-74137257D01*
X119134980Y-74134375D01*
X119139957Y-74132313D01*
X119145335Y-74131931D01*
X119172798Y-74121421D01*
X119458512Y-73978564D01*
X119463406Y-73975483D01*
X119465714Y-73974714D01*
X119468588Y-73972221D01*
X119483398Y-73962899D01*
X119495720Y-73948690D01*
X119509929Y-73936368D01*
X119519251Y-73921558D01*
X119521744Y-73918684D01*
X119522513Y-73916376D01*
X119525594Y-73911482D01*
X119668451Y-73625767D01*
X119678961Y-73598303D01*
X119679342Y-73592927D01*
X119681405Y-73587949D01*
X119684287Y-73558685D01*
X119684287Y-73415828D01*
X119681405Y-73386564D01*
X119679343Y-73381586D01*
X119678961Y-73376209D01*
X119668451Y-73348746D01*
X119525594Y-73063032D01*
X119522513Y-73058137D01*
X119521744Y-73055830D01*
X119519251Y-73052955D01*
X119509929Y-73038146D01*
X119495720Y-73025823D01*
X119483398Y-73011615D01*
X119468588Y-73002292D01*
X119465714Y-72999800D01*
X119463406Y-72999030D01*
X119458512Y-72995950D01*
X119172798Y-72853093D01*
X119145335Y-72842583D01*
X119139957Y-72842200D01*
X119134980Y-72840139D01*
X119105716Y-72837257D01*
X118712555Y-72837257D01*
X118503233Y-72732596D01*
X118398573Y-72523275D01*
X118398573Y-72451238D01*
X118503233Y-72241917D01*
X118712555Y-72137257D01*
X119070306Y-72137257D01*
X119324348Y-72264278D01*
X119351811Y-72274788D01*
X119410192Y-72278936D01*
X119465714Y-72260428D01*
X119509929Y-72222082D01*
X119536104Y-72169733D01*
X119540252Y-72111353D01*
X119521744Y-72055830D01*
X119483398Y-72011615D01*
X119458512Y-71995950D01*
X119172798Y-71853093D01*
X119145335Y-71842583D01*
X119139957Y-71842200D01*
X119134980Y-71840139D01*
X119105716Y-71837257D01*
X118677145Y-71837257D01*
X118647881Y-71840139D01*
X118642902Y-71842201D01*
X118637527Y-71842583D01*
X118610063Y-71853093D01*
X118324348Y-71995950D01*
X118319453Y-71999030D01*
X118317146Y-71999800D01*
X118314271Y-72002292D01*
X118299462Y-72011615D01*
X118287139Y-72025823D01*
X118272931Y-72038146D01*
X118263608Y-72052955D01*
X118261116Y-72055830D01*
X118260346Y-72058137D01*
X118257266Y-72063032D01*
X118114409Y-72348746D01*
X118103899Y-72376209D01*
X118103516Y-72381586D01*
X118101455Y-72386564D01*
X118098573Y-72415828D01*
X116827144Y-72415828D01*
X116827144Y-72137257D01*
X117391430Y-72137257D01*
X117420694Y-72134375D01*
X117474766Y-72111977D01*
X117516150Y-72070593D01*
X117538548Y-72016521D01*
X117538548Y-71957993D01*
X117516150Y-71903921D01*
X117474766Y-71862537D01*
X117420694Y-71840139D01*
X117391430Y-71837257D01*
X116827144Y-71837257D01*
X116827144Y-70987257D01*
X116824262Y-70957993D01*
X116801864Y-70903921D01*
X116760480Y-70862537D01*
X116706408Y-70840139D01*
X116647880Y-70840139D01*
X116593808Y-70862537D01*
X116552424Y-70903921D01*
X116530026Y-70957993D01*
X116527144Y-70987257D01*
X116527144Y-71837257D01*
X116248573Y-71837257D01*
X116219309Y-71840139D01*
X116165237Y-71862537D01*
X116123853Y-71903921D01*
X116101455Y-71957993D01*
X115382598Y-71957993D01*
X115172797Y-71853093D01*
X115145333Y-71842583D01*
X115139957Y-71842201D01*
X115134979Y-71840139D01*
X115105715Y-71837257D01*
X114534287Y-71837257D01*
X114505023Y-71840139D01*
X114500044Y-71842201D01*
X114494669Y-71842583D01*
X114467205Y-71853093D01*
X114181490Y-71995950D01*
X114168898Y-72003876D01*
X114165236Y-72005393D01*
X114161113Y-72008776D01*
X114156604Y-72011615D01*
X114154008Y-72014607D01*
X114142506Y-72024048D01*
X113999649Y-72166905D01*
X113990209Y-72178406D01*
X113987216Y-72181003D01*
X113984375Y-72185516D01*
X113980994Y-72189636D01*
X113979478Y-72193295D01*
X113971551Y-72205889D01*
X113828694Y-72491603D01*
X113818184Y-72519066D01*
X113817801Y-72524443D01*
X113815740Y-72529421D01*
X113812858Y-72558685D01*
X112827144Y-72558685D01*
X112827144Y-72415828D01*
X112824262Y-72386564D01*
X112822198Y-72381583D01*
X112821817Y-72376209D01*
X112811308Y-72348745D01*
X112668450Y-72063032D01*
X112665369Y-72058137D01*
X112664600Y-72055830D01*
X112662107Y-72052955D01*
X112652785Y-72038146D01*
X112638575Y-72025822D01*
X112626254Y-72011615D01*
X112611448Y-72002295D01*
X112608570Y-71999799D01*
X112606258Y-71999028D01*
X112601368Y-71995950D01*
X112315654Y-71853093D01*
X112288191Y-71842583D01*
X112282813Y-71842200D01*
X112277836Y-71840139D01*
X112248572Y-71837257D01*
X111677144Y-71837257D01*
X111647880Y-71840139D01*
X111642901Y-71842201D01*
X111637526Y-71842583D01*
X111610062Y-71853093D01*
X111324347Y-71995950D01*
X111299461Y-72011615D01*
X111261115Y-72055830D01*
X111242607Y-72111352D01*
X111246755Y-72169732D01*
X111272930Y-72222082D01*
X111317145Y-72260428D01*
X111372667Y-72278936D01*
X111431047Y-72274788D01*
X111458511Y-72264278D01*
X111712554Y-72137257D01*
X112213162Y-72137257D01*
X112422482Y-72241917D01*
X112527144Y-72451238D01*
X112527144Y-72608837D01*
X112356019Y-72694400D01*
X111677144Y-72694400D01*
X111647880Y-72697282D01*
X111642901Y-72699344D01*
X111637526Y-72699726D01*
X111610062Y-72710236D01*
X111324347Y-72853093D01*
X111319452Y-72856173D01*
X111317145Y-72856943D01*
X111314270Y-72859435D01*
X111299461Y-72868758D01*
X111287138Y-72882966D01*
X111272930Y-72895289D01*
X111263607Y-72910098D01*
X111261115Y-72912973D01*
X111260345Y-72915280D01*
X111257265Y-72920175D01*
X111114408Y-73205889D01*
X111103898Y-73233352D01*
X111103515Y-73238729D01*
X111101454Y-73243707D01*
X111098572Y-73272971D01*
X109827143Y-73272971D01*
X109827143Y-72137257D01*
X110391429Y-72137257D01*
X110420693Y-72134375D01*
X110474765Y-72111977D01*
X110516149Y-72070593D01*
X110538547Y-72016521D01*
X110538547Y-71957993D01*
X110516149Y-71903921D01*
X110474765Y-71862537D01*
X110420693Y-71840139D01*
X110391429Y-71837257D01*
X109827143Y-71837257D01*
X109827143Y-70987257D01*
X109824261Y-70957993D01*
X109801863Y-70903921D01*
X109760479Y-70862537D01*
X109706407Y-70840139D01*
X109647879Y-70840139D01*
X109593807Y-70862537D01*
X109552423Y-70903921D01*
X109530025Y-70957993D01*
X109527143Y-70987257D01*
X109527143Y-71837257D01*
X109248572Y-71837257D01*
X109219308Y-71840139D01*
X109165236Y-71862537D01*
X109123852Y-71903921D01*
X109101454Y-71957993D01*
X108096882Y-71957993D01*
X107887082Y-71853093D01*
X107859619Y-71842583D01*
X107854241Y-71842200D01*
X107849264Y-71840139D01*
X107820000Y-71837257D01*
X107391429Y-71837257D01*
X107362165Y-71840139D01*
X107357186Y-71842201D01*
X107351811Y-71842583D01*
X107324347Y-71853093D01*
X107110189Y-71960171D01*
X107109975Y-71957993D01*
X107087577Y-71903921D01*
X107046193Y-71862537D01*
X106992121Y-71840139D01*
X106933593Y-71840139D01*
X106879521Y-71862537D01*
X106838137Y-71903921D01*
X106815739Y-71957993D01*
X106812857Y-71987257D01*
X105441124Y-71987257D01*
X105172796Y-71853093D01*
X105145333Y-71842583D01*
X105139955Y-71842200D01*
X105134978Y-71840139D01*
X105105714Y-71837257D01*
X104677143Y-71837257D01*
X104647879Y-71840139D01*
X104642900Y-71842201D01*
X104637525Y-71842583D01*
X104610061Y-71853093D01*
X104324346Y-71995950D01*
X104311754Y-72003876D01*
X104308092Y-72005393D01*
X104303969Y-72008776D01*
X104299460Y-72011615D01*
X104296864Y-72014607D01*
X104285362Y-72024048D01*
X104142505Y-72166905D01*
X104133065Y-72178406D01*
X104130072Y-72181003D01*
X104127231Y-72185516D01*
X104123850Y-72189636D01*
X104122334Y-72193295D01*
X104114407Y-72205889D01*
X103971550Y-72491603D01*
X103961040Y-72519066D01*
X103960657Y-72524443D01*
X103958596Y-72529421D01*
X103955714Y-72558685D01*
X101255714Y-72558685D01*
X101255714Y-72291435D01*
X101390098Y-71753897D01*
X101514705Y-71504682D01*
X101758170Y-71261218D01*
X102130057Y-71137257D01*
X102367085Y-71137257D01*
X102738972Y-71261218D01*
X102856791Y-71379037D01*
X102879521Y-71397692D01*
X102933594Y-71420089D01*
X102992120Y-71420089D01*
X103046192Y-71397692D01*
X103087578Y-71356306D01*
X103109975Y-71302234D01*
X103109975Y-71243708D01*
X103087578Y-71189635D01*
X103068923Y-71166905D01*
X102926066Y-71024048D01*
X102903335Y-71005393D01*
X102898355Y-71003330D01*
X102894285Y-70999800D01*
X102867434Y-70987811D01*
X102438862Y-70844954D01*
X102424352Y-70841655D01*
X102420692Y-70840139D01*
X102415383Y-70839616D01*
X102410188Y-70838435D01*
X102406239Y-70838715D01*
X102391428Y-70837257D01*
X102105714Y-70837257D01*
X102090902Y-70838715D01*
X102086953Y-70838435D01*
X102081758Y-70839616D01*
X102076450Y-70840139D01*
X102072788Y-70841655D01*
X102058279Y-70844955D01*
X101629709Y-70987812D01*
X101602858Y-70999800D01*
X101598787Y-71003330D01*
X101593808Y-71005393D01*
X101571077Y-71024048D01*
X101285362Y-71309762D01*
X101275921Y-71321264D01*
X101272929Y-71323860D01*
X101270090Y-71328369D01*
X101266707Y-71332492D01*
X101265190Y-71336154D01*
X101257264Y-71348746D01*
X101114407Y-71634460D01*
X101113587Y-71636600D01*
X101112943Y-71637471D01*
X101108557Y-71649744D01*
X101103897Y-71661923D01*
X101103820Y-71663003D01*
X101103049Y-71665162D01*
X100960193Y-72236591D01*
X100959443Y-72241662D01*
X100958596Y-72243707D01*
X100957510Y-72254729D01*
X100955891Y-72265680D01*
X100956216Y-72267867D01*
X100955714Y-72272971D01*
X97684286Y-72272971D01*
X97684286Y-71987257D01*
X97681404Y-71957993D01*
X97659006Y-71903921D01*
X97617622Y-71862537D01*
X97563550Y-71840139D01*
X97505022Y-71840139D01*
X97450950Y-71862537D01*
X97412147Y-71901339D01*
X97315653Y-71853093D01*
X97288189Y-71842583D01*
X97282813Y-71842201D01*
X97277835Y-71840139D01*
X97248571Y-71837257D01*
X96677143Y-71837257D01*
X96647879Y-71840139D01*
X96642900Y-71842201D01*
X96637525Y-71842583D01*
X96610061Y-71853093D01*
X96324346Y-71995950D01*
X96311754Y-72003876D01*
X96308092Y-72005393D01*
X96303969Y-72008776D01*
X96299460Y-72011615D01*
X96296864Y-72014607D01*
X96285362Y-72024048D01*
X96142505Y-72166905D01*
X96133065Y-72178406D01*
X96130072Y-72181003D01*
X96127231Y-72185516D01*
X96123850Y-72189636D01*
X96122334Y-72193295D01*
X96114407Y-72205889D01*
X95971550Y-72491603D01*
X95961040Y-72519066D01*
X95960657Y-72524443D01*
X95958596Y-72529421D01*
X95955714Y-72558685D01*
X94970000Y-72558685D01*
X94970000Y-72415828D01*
X94967118Y-72386564D01*
X94965054Y-72381583D01*
X94964673Y-72376209D01*
X94954164Y-72348745D01*
X94811306Y-72063032D01*
X94808225Y-72058137D01*
X94807456Y-72055830D01*
X94804963Y-72052955D01*
X94795641Y-72038146D01*
X94781431Y-72025822D01*
X94769110Y-72011615D01*
X94754304Y-72002295D01*
X94751426Y-71999799D01*
X94749114Y-71999028D01*
X94744224Y-71995950D01*
X94458510Y-71853093D01*
X94431047Y-71842583D01*
X94425669Y-71842200D01*
X94420692Y-71840139D01*
X94391428Y-71837257D01*
X93962857Y-71837257D01*
X93933593Y-71840139D01*
X93928614Y-71842201D01*
X93923239Y-71842583D01*
X93895775Y-71853093D01*
X93681617Y-71960171D01*
X93681403Y-71957993D01*
X93659005Y-71903921D01*
X93617621Y-71862537D01*
X93563549Y-71840139D01*
X93505021Y-71840139D01*
X93450949Y-71862537D01*
X93409565Y-71903921D01*
X93387167Y-71957993D01*
X93384285Y-71987257D01*
X92255714Y-71987257D01*
X92252832Y-71957993D01*
X92230434Y-71903921D01*
X92189050Y-71862537D01*
X92134978Y-71840139D01*
X92076450Y-71840139D01*
X92022378Y-71862537D01*
X91980994Y-71903921D01*
X91958596Y-71957993D01*
X91955714Y-71987257D01*
X91252832Y-71987257D01*
X91252832Y-71957993D01*
X91230434Y-71903921D01*
X91189050Y-71862537D01*
X91134978Y-71840139D01*
X91105714Y-71837257D01*
X90541428Y-71837257D01*
X90541428Y-71100851D01*
X91815739Y-71100851D01*
X91815739Y-71159377D01*
X91838136Y-71213449D01*
X91856791Y-71236180D01*
X91999648Y-71379037D01*
X92022378Y-71397692D01*
X92060613Y-71413528D01*
X92076450Y-71420089D01*
X92076451Y-71420089D01*
X92134977Y-71420089D01*
X92134978Y-71420089D01*
X92157375Y-71410811D01*
X92189049Y-71397692D01*
X92211780Y-71379037D01*
X92354637Y-71236180D01*
X92373292Y-71213450D01*
X92395689Y-71159377D01*
X92395689Y-71100851D01*
X92373292Y-71046779D01*
X92373292Y-71046778D01*
X92354637Y-71024048D01*
X92211780Y-70881191D01*
X92189049Y-70862536D01*
X92157375Y-70849416D01*
X92134978Y-70840139D01*
X92076450Y-70840139D01*
X92060613Y-70846699D01*
X92022378Y-70862536D01*
X91999648Y-70881191D01*
X91856791Y-71024048D01*
X91838137Y-71046778D01*
X91838136Y-71046779D01*
X91815739Y-71100851D01*
X90541428Y-71100851D01*
X90541428Y-70987257D01*
X90538546Y-70957993D01*
X90516148Y-70903921D01*
X90474764Y-70862537D01*
X90420692Y-70840139D01*
X90362164Y-70840139D01*
X90308092Y-70862537D01*
X90266708Y-70903921D01*
X90244310Y-70957993D01*
X90241428Y-70987257D01*
X90241428Y-71837257D01*
X89962857Y-71837257D01*
X89933593Y-71840139D01*
X89879521Y-71862537D01*
X89838137Y-71903921D01*
X89815739Y-71957993D01*
X88811167Y-71957993D01*
X88601367Y-71853093D01*
X88573904Y-71842583D01*
X88568526Y-71842200D01*
X88563549Y-71840139D01*
X88534285Y-71837257D01*
X87962857Y-71837257D01*
X87933593Y-71840139D01*
X87928614Y-71842201D01*
X87923239Y-71842583D01*
X87895775Y-71853093D01*
X87610060Y-71995950D01*
X87585174Y-72011615D01*
X87546828Y-72055830D01*
X87528320Y-72111352D01*
X87532468Y-72169732D01*
X87558643Y-72222082D01*
X87602858Y-72260428D01*
X87658380Y-72278936D01*
X87716760Y-72274788D01*
X87744224Y-72264278D01*
X87998267Y-72137257D01*
X88498875Y-72137257D01*
X88708195Y-72241917D01*
X88812857Y-72451238D01*
X88812857Y-72608837D01*
X88641732Y-72694400D01*
X87962857Y-72694400D01*
X87933593Y-72697282D01*
X87928614Y-72699344D01*
X87923239Y-72699726D01*
X87895775Y-72710236D01*
X87610060Y-72853093D01*
X87605165Y-72856173D01*
X87602858Y-72856943D01*
X87599983Y-72859435D01*
X87585174Y-72868758D01*
X87572851Y-72882966D01*
X87558643Y-72895289D01*
X87549320Y-72910098D01*
X87546828Y-72912973D01*
X87546058Y-72915280D01*
X87542978Y-72920175D01*
X87400121Y-73205889D01*
X87389611Y-73233352D01*
X87389228Y-73238729D01*
X87387167Y-73243707D01*
X87384285Y-73272971D01*
X86112856Y-73272971D01*
X86112856Y-72137257D01*
X86677142Y-72137257D01*
X86706406Y-72134375D01*
X86760478Y-72111977D01*
X86801862Y-72070593D01*
X86824260Y-72016521D01*
X86824260Y-71957993D01*
X86801862Y-71903921D01*
X86760478Y-71862537D01*
X86706406Y-71840139D01*
X86677142Y-71837257D01*
X86112856Y-71837257D01*
X86112856Y-70987257D01*
X86109974Y-70957993D01*
X86087576Y-70903921D01*
X86046192Y-70862537D01*
X85992120Y-70840139D01*
X85933592Y-70840139D01*
X85879520Y-70862537D01*
X85838136Y-70903921D01*
X85815738Y-70957993D01*
X85812856Y-70987257D01*
X85812856Y-71837257D01*
X85534285Y-71837257D01*
X85505021Y-71840139D01*
X85450949Y-71862537D01*
X85409565Y-71903921D01*
X85387167Y-71957993D01*
X84382595Y-71957993D01*
X84172795Y-71853093D01*
X84145332Y-71842583D01*
X84139954Y-71842200D01*
X84134977Y-71840139D01*
X84105713Y-71837257D01*
X83677142Y-71837257D01*
X83647878Y-71840139D01*
X83642899Y-71842201D01*
X83637524Y-71842583D01*
X83610060Y-71853093D01*
X83324345Y-71995950D01*
X83311753Y-72003876D01*
X83308091Y-72005393D01*
X83303968Y-72008776D01*
X83299459Y-72011615D01*
X83296863Y-72014607D01*
X83285361Y-72024048D01*
X83142504Y-72166905D01*
X83133064Y-72178406D01*
X83130071Y-72181003D01*
X83127230Y-72185516D01*
X83123849Y-72189636D01*
X83122333Y-72193295D01*
X83114406Y-72205889D01*
X82971549Y-72491603D01*
X82961039Y-72519066D01*
X82960656Y-72524443D01*
X82958595Y-72529421D01*
X82955713Y-72558685D01*
X81726838Y-72558685D01*
X81744224Y-72549992D01*
X81756817Y-72542064D01*
X81760477Y-72540549D01*
X81764596Y-72537167D01*
X81769110Y-72534327D01*
X81771706Y-72531333D01*
X81783208Y-72521894D01*
X81926065Y-72379037D01*
X81935505Y-72367534D01*
X81938498Y-72364939D01*
X81941336Y-72360429D01*
X81944720Y-72356307D01*
X81946236Y-72352644D01*
X81954163Y-72340053D01*
X82097020Y-72054339D01*
X82107530Y-72026876D01*
X82107912Y-72021498D01*
X82109974Y-72016521D01*
X82112856Y-71987257D01*
X82112856Y-71558685D01*
X82109974Y-71529421D01*
X82107912Y-71524443D01*
X82107530Y-71519066D01*
X82097020Y-71491603D01*
X81954163Y-71205889D01*
X81946236Y-71193297D01*
X81944720Y-71189635D01*
X81941336Y-71185512D01*
X81938498Y-71181003D01*
X81935505Y-71178407D01*
X81926065Y-71166905D01*
X81783208Y-71024048D01*
X81771706Y-71014608D01*
X81769110Y-71011615D01*
X81764596Y-71008774D01*
X81760477Y-71005393D01*
X81756817Y-71003877D01*
X81744224Y-70995950D01*
X81458509Y-70853093D01*
X81431045Y-70842583D01*
X81425669Y-70842201D01*
X81420691Y-70840139D01*
X81391427Y-70837257D01*
X80248570Y-70837257D01*
X80219306Y-70840139D01*
X80165234Y-70862537D01*
X80123850Y-70903921D01*
X80101452Y-70957993D01*
X80098570Y-70987257D01*
X79765237Y-70987257D01*
X79765237Y-66157425D01*
X82670000Y-66157425D01*
X82670000Y-69157425D01*
X82672882Y-69186689D01*
X82695280Y-69240761D01*
X82736664Y-69282145D01*
X82790736Y-69304543D01*
X82820000Y-69307425D01*
X84248572Y-69307425D01*
X84277836Y-69304543D01*
X84331908Y-69282145D01*
X84373292Y-69240761D01*
X84395690Y-69186689D01*
X84395690Y-69128161D01*
X84373292Y-69074089D01*
X84331908Y-69032705D01*
X84277836Y-69010307D01*
X84248572Y-69007425D01*
X82970000Y-69007425D01*
X82970000Y-67157425D01*
X85098571Y-67157425D01*
X85098571Y-69157425D01*
X85101453Y-69186689D01*
X85123851Y-69240761D01*
X85165235Y-69282145D01*
X85219307Y-69304543D01*
X85277835Y-69304543D01*
X85331907Y-69282145D01*
X85373291Y-69240761D01*
X85395689Y-69186689D01*
X85398571Y-69157425D01*
X85398571Y-67157425D01*
X85395689Y-67128161D01*
X85373291Y-67074089D01*
X85331907Y-67032705D01*
X85277835Y-67010307D01*
X85219307Y-67010307D01*
X85165235Y-67032705D01*
X85123851Y-67074089D01*
X85101453Y-67128161D01*
X85098571Y-67157425D01*
X82970000Y-67157425D01*
X82970000Y-66271019D01*
X84958596Y-66271019D01*
X84958596Y-66329545D01*
X84980993Y-66383617D01*
X84999648Y-66406348D01*
X85142505Y-66549205D01*
X85165235Y-66567860D01*
X85203470Y-66583696D01*
X85219307Y-66590257D01*
X85219308Y-66590257D01*
X85277834Y-66590257D01*
X85277835Y-66590257D01*
X85300232Y-66580979D01*
X85331906Y-66567860D01*
X85354637Y-66549205D01*
X85497494Y-66406348D01*
X85516149Y-66383618D01*
X85538546Y-66329545D01*
X85538546Y-66271019D01*
X85516149Y-66216947D01*
X85516149Y-66216946D01*
X85497494Y-66194216D01*
X85460703Y-66157425D01*
X86527142Y-66157425D01*
X86527142Y-69157425D01*
X86530024Y-69186689D01*
X86552422Y-69240761D01*
X86593806Y-69282145D01*
X86647878Y-69304543D01*
X86677142Y-69307425D01*
X87391428Y-69307425D01*
X87406239Y-69305966D01*
X87410189Y-69306247D01*
X87415383Y-69305065D01*
X87420692Y-69304543D01*
X87424354Y-69303025D01*
X87438862Y-69299727D01*
X87867433Y-69156871D01*
X87894284Y-69144882D01*
X87898354Y-69141351D01*
X87903334Y-69139289D01*
X87904096Y-69138664D01*
X89099749Y-69138664D01*
X89103898Y-69197045D01*
X89130072Y-69249392D01*
X89174286Y-69287739D01*
X89229810Y-69306247D01*
X89288191Y-69302098D01*
X89340538Y-69275924D01*
X89378885Y-69231710D01*
X89390873Y-69204859D01*
X89642399Y-68450282D01*
X90854743Y-68450282D01*
X91106269Y-69204859D01*
X91118257Y-69231710D01*
X91156604Y-69275925D01*
X91208952Y-69302098D01*
X91267332Y-69306248D01*
X91322856Y-69287740D01*
X91367071Y-69249392D01*
X91393244Y-69197045D01*
X91397394Y-69138665D01*
X91390874Y-69109991D01*
X90406684Y-66157425D01*
X92098571Y-66157425D01*
X92098571Y-69157425D01*
X92101453Y-69186689D01*
X92123851Y-69240761D01*
X92165235Y-69282145D01*
X92219307Y-69304543D01*
X92277835Y-69304543D01*
X92331907Y-69282145D01*
X92373291Y-69240761D01*
X92395689Y-69186689D01*
X92398571Y-69157425D01*
X92398571Y-67878853D01*
X92884759Y-67878853D01*
X93839972Y-69243444D01*
X93859115Y-69265766D01*
X93908472Y-69297219D01*
X93966108Y-69307390D01*
X94023250Y-69294730D01*
X94071198Y-69261167D01*
X94102651Y-69211809D01*
X94112822Y-69154174D01*
X94100163Y-69097032D01*
X94085742Y-69071406D01*
X93250955Y-67878853D01*
X93391428Y-67878853D01*
X93420692Y-67875971D01*
X93425670Y-67873908D01*
X93431046Y-67873527D01*
X93458510Y-67863017D01*
X93744225Y-67720160D01*
X93756818Y-67712232D01*
X93760478Y-67710717D01*
X93764597Y-67707335D01*
X93769111Y-67704495D01*
X93771707Y-67701501D01*
X93783209Y-67692062D01*
X93926066Y-67549205D01*
X93935506Y-67537702D01*
X93938499Y-67535107D01*
X93941337Y-67530597D01*
X93944721Y-67526475D01*
X93946237Y-67522812D01*
X93954164Y-67510221D01*
X94097021Y-67224507D01*
X94107531Y-67197044D01*
X94107913Y-67191666D01*
X94109975Y-67186689D01*
X94112857Y-67157425D01*
X94112857Y-66728853D01*
X97241428Y-66728853D01*
X97241428Y-67014568D01*
X97244310Y-67043832D01*
X97246371Y-67048809D01*
X97246754Y-67054187D01*
X97257264Y-67081650D01*
X97400121Y-67367364D01*
X97408048Y-67379957D01*
X97409564Y-67383617D01*
X97412945Y-67387736D01*
X97415786Y-67392250D01*
X97418779Y-67394846D01*
X97428219Y-67406348D01*
X97571076Y-67549205D01*
X97582578Y-67558645D01*
X97585174Y-67561638D01*
X97589683Y-67564476D01*
X97593806Y-67567860D01*
X97597468Y-67569376D01*
X97610060Y-67577303D01*
X97895775Y-67720160D01*
X97897913Y-67720978D01*
X97898785Y-67721624D01*
X97911058Y-67726008D01*
X97923239Y-67730670D01*
X97924321Y-67730746D01*
X97926477Y-67731517D01*
X98481929Y-67870380D01*
X98731145Y-67994987D01*
X98839578Y-68103421D01*
X98955714Y-68335692D01*
X98955714Y-68550586D01*
X98839578Y-68782856D01*
X98731145Y-68891290D01*
X98498875Y-69007425D01*
X97844343Y-69007425D01*
X97438862Y-68872265D01*
X97410188Y-68865746D01*
X97351808Y-68869895D01*
X97299461Y-68896069D01*
X97261114Y-68940283D01*
X97242606Y-68995808D01*
X97246755Y-69054188D01*
X97272929Y-69106535D01*
X97317143Y-69144882D01*
X97343994Y-69156871D01*
X97772566Y-69299727D01*
X97787073Y-69303025D01*
X97790736Y-69304543D01*
X97796044Y-69305065D01*
X97801239Y-69306247D01*
X97805188Y-69305966D01*
X97820000Y-69307425D01*
X98534285Y-69307425D01*
X98563549Y-69304543D01*
X98568527Y-69302480D01*
X98573903Y-69302099D01*
X98601367Y-69291589D01*
X98887082Y-69148732D01*
X98899673Y-69140805D01*
X98903336Y-69139289D01*
X98907458Y-69135905D01*
X98911968Y-69133067D01*
X98914563Y-69130074D01*
X98926066Y-69120634D01*
X99068923Y-68977776D01*
X99078362Y-68966274D01*
X99081356Y-68963678D01*
X99084196Y-68959164D01*
X99087578Y-68955045D01*
X99089093Y-68951385D01*
X99097021Y-68938792D01*
X99239878Y-68653078D01*
X99250388Y-68625615D01*
X99250770Y-68620237D01*
X99252832Y-68615260D01*
X99255714Y-68585996D01*
X99255714Y-68300282D01*
X99252832Y-68271018D01*
X99250770Y-68266040D01*
X99250388Y-68260663D01*
X99239878Y-68233200D01*
X99097021Y-67947486D01*
X99089093Y-67934892D01*
X99087578Y-67931233D01*
X99084196Y-67927113D01*
X99081356Y-67922600D01*
X99078362Y-67920003D01*
X99068923Y-67908502D01*
X98926066Y-67765644D01*
X98914563Y-67756203D01*
X98911968Y-67753211D01*
X98907458Y-67750372D01*
X98903336Y-67746989D01*
X98899673Y-67745472D01*
X98887082Y-67737546D01*
X98601367Y-67594689D01*
X98599228Y-67593870D01*
X98598357Y-67593225D01*
X98586077Y-67588838D01*
X98573903Y-67584179D01*
X98572821Y-67584102D01*
X98570666Y-67583332D01*
X98015212Y-67444468D01*
X97765995Y-67319860D01*
X97657563Y-67211428D01*
X97541428Y-66979158D01*
X97541428Y-66764263D01*
X97657563Y-66531993D01*
X97765995Y-66423560D01*
X97998267Y-66307425D01*
X98652799Y-66307425D01*
X99058280Y-66442584D01*
X99086953Y-66449104D01*
X99145333Y-66444955D01*
X99197680Y-66418781D01*
X99236028Y-66374567D01*
X99254536Y-66319042D01*
X99250386Y-66260662D01*
X99224213Y-66208315D01*
X99179999Y-66169968D01*
X99153148Y-66157979D01*
X99151486Y-66157425D01*
X100241428Y-66157425D01*
X100241428Y-68728853D01*
X100244310Y-68758117D01*
X100246372Y-68763095D01*
X100246754Y-68768471D01*
X100257264Y-68795935D01*
X100400121Y-69081650D01*
X100403201Y-69086544D01*
X100403971Y-69088852D01*
X100406463Y-69091726D01*
X100415786Y-69106536D01*
X100429994Y-69118858D01*
X100442317Y-69133067D01*
X100457126Y-69142389D01*
X100460001Y-69144882D01*
X100462308Y-69145651D01*
X100467203Y-69148732D01*
X100752918Y-69291589D01*
X100780382Y-69302099D01*
X100838762Y-69306247D01*
X100894284Y-69287739D01*
X100938499Y-69249393D01*
X100964674Y-69197044D01*
X100968822Y-69138663D01*
X100950314Y-69083141D01*
X100911968Y-69038926D01*
X100887082Y-69023261D01*
X100646088Y-68902764D01*
X100541428Y-68693443D01*
X100541428Y-67157425D01*
X101812857Y-67157425D01*
X101812857Y-69157425D01*
X101815739Y-69186689D01*
X101838137Y-69240761D01*
X101879521Y-69282145D01*
X101933593Y-69304543D01*
X101992121Y-69304543D01*
X102046193Y-69282145D01*
X102087577Y-69240761D01*
X102109975Y-69186689D01*
X102112857Y-69157425D01*
X102112857Y-67157425D01*
X103241428Y-67157425D01*
X103241428Y-70157425D01*
X103244310Y-70186689D01*
X103266708Y-70240761D01*
X103308092Y-70282145D01*
X103362164Y-70304543D01*
X103420692Y-70304543D01*
X103474764Y-70282145D01*
X103516148Y-70240761D01*
X103538546Y-70186689D01*
X103541428Y-70157425D01*
X103541428Y-69257272D01*
X103610061Y-69291589D01*
X103637525Y-69302099D01*
X103642900Y-69302480D01*
X103647879Y-69304543D01*
X103677143Y-69307425D01*
X104248571Y-69307425D01*
X104277835Y-69304543D01*
X104282812Y-69302481D01*
X104288190Y-69302099D01*
X104315653Y-69291589D01*
X104601367Y-69148732D01*
X104613960Y-69140804D01*
X104617620Y-69139289D01*
X104621739Y-69135907D01*
X104626253Y-69133067D01*
X104628849Y-69130073D01*
X104640351Y-69120634D01*
X104783209Y-68977776D01*
X104792648Y-68966274D01*
X104795642Y-68963678D01*
X104798482Y-68959164D01*
X104801864Y-68955045D01*
X104803379Y-68951385D01*
X104811307Y-68938792D01*
X104954164Y-68653078D01*
X104964674Y-68625615D01*
X104965056Y-68620237D01*
X104967118Y-68615260D01*
X104970000Y-68585996D01*
X104970000Y-67728853D01*
X104967118Y-67699589D01*
X104965056Y-67694611D01*
X104964674Y-67689234D01*
X104954164Y-67661771D01*
X104811307Y-67376057D01*
X104803380Y-67363465D01*
X104801864Y-67359803D01*
X104798480Y-67355680D01*
X104795642Y-67351171D01*
X104792649Y-67348575D01*
X104783209Y-67337073D01*
X104640351Y-67194216D01*
X104628849Y-67184776D01*
X104626253Y-67181783D01*
X104621739Y-67178942D01*
X104617620Y-67175561D01*
X104613960Y-67174045D01*
X104601367Y-67166118D01*
X104315653Y-67023261D01*
X104288190Y-67012751D01*
X104282812Y-67012368D01*
X104277835Y-67010307D01*
X104248571Y-67007425D01*
X103677143Y-67007425D01*
X103647879Y-67010307D01*
X103642900Y-67012369D01*
X103637525Y-67012751D01*
X103610061Y-67023261D01*
X103513566Y-67071507D01*
X103474764Y-67032705D01*
X103420692Y-67010307D01*
X103362164Y-67010307D01*
X103308092Y-67032705D01*
X103266708Y-67074089D01*
X103244310Y-67128161D01*
X103241428Y-67157425D01*
X102112857Y-67157425D01*
X102109975Y-67128161D01*
X102087577Y-67074089D01*
X102046193Y-67032705D01*
X101992121Y-67010307D01*
X101933593Y-67010307D01*
X101879521Y-67032705D01*
X101838137Y-67074089D01*
X101815739Y-67128161D01*
X101812857Y-67157425D01*
X100541428Y-67157425D01*
X100541428Y-66271019D01*
X101672882Y-66271019D01*
X101672882Y-66329545D01*
X101695279Y-66383617D01*
X101713934Y-66406348D01*
X101856791Y-66549205D01*
X101879521Y-66567860D01*
X101917756Y-66583696D01*
X101933593Y-66590257D01*
X101933594Y-66590257D01*
X101992120Y-66590257D01*
X101992121Y-66590257D01*
X102014518Y-66580979D01*
X102046192Y-66567860D01*
X102068923Y-66549205D01*
X102211780Y-66406348D01*
X102230435Y-66383618D01*
X102252832Y-66329545D01*
X102252832Y-66271019D01*
X102230435Y-66216947D01*
X102230435Y-66216946D01*
X102211780Y-66194216D01*
X102174989Y-66157425D01*
X108241428Y-66157425D01*
X108241428Y-69157425D01*
X108244310Y-69186689D01*
X108266708Y-69240761D01*
X108308092Y-69282145D01*
X108362164Y-69304543D01*
X108420692Y-69304543D01*
X108474764Y-69282145D01*
X108516148Y-69240761D01*
X108538546Y-69186689D01*
X108541428Y-69157425D01*
X108541428Y-67878853D01*
X109027616Y-67878853D01*
X109982829Y-69243444D01*
X110001972Y-69265766D01*
X110051329Y-69297219D01*
X110108965Y-69307390D01*
X110166107Y-69294730D01*
X110214055Y-69261167D01*
X110245508Y-69211809D01*
X110255679Y-69154174D01*
X110243020Y-69097032D01*
X110228599Y-69071406D01*
X109393812Y-67878853D01*
X109534285Y-67878853D01*
X109563549Y-67875971D01*
X109568527Y-67873908D01*
X109573903Y-67873527D01*
X109601367Y-67863017D01*
X109887082Y-67720160D01*
X109899675Y-67712232D01*
X109903335Y-67710717D01*
X109907454Y-67707335D01*
X109911968Y-67704495D01*
X109914564Y-67701501D01*
X109926066Y-67692062D01*
X110068923Y-67549205D01*
X110078363Y-67537702D01*
X110081356Y-67535107D01*
X110084194Y-67530597D01*
X110087578Y-67526475D01*
X110089094Y-67522812D01*
X110097021Y-67510221D01*
X110239878Y-67224507D01*
X110250388Y-67197044D01*
X110250770Y-67191666D01*
X110252832Y-67186689D01*
X110255714Y-67157425D01*
X111241428Y-67157425D01*
X111241428Y-69157425D01*
X111244310Y-69186689D01*
X111266708Y-69240761D01*
X111308092Y-69282145D01*
X111362164Y-69304543D01*
X111420692Y-69304543D01*
X111474764Y-69282145D01*
X111516148Y-69240761D01*
X111538546Y-69186689D01*
X111541428Y-69157425D01*
X111541428Y-67157425D01*
X112669999Y-67157425D01*
X112669999Y-69157425D01*
X112672881Y-69186689D01*
X112695279Y-69240761D01*
X112736663Y-69282145D01*
X112790735Y-69304543D01*
X112849263Y-69304543D01*
X112903335Y-69282145D01*
X112944719Y-69240761D01*
X112967117Y-69186689D01*
X112969999Y-69157425D01*
X112969999Y-67505271D01*
X113051709Y-67423560D01*
X113283981Y-67307425D01*
X113641732Y-67307425D01*
X113851052Y-67412085D01*
X113955714Y-67621406D01*
X113955714Y-69157425D01*
X113958596Y-69186689D01*
X113980994Y-69240761D01*
X114022378Y-69282145D01*
X114076450Y-69304543D01*
X114134978Y-69304543D01*
X114189050Y-69282145D01*
X114230434Y-69240761D01*
X114252832Y-69186689D01*
X114255714Y-69157425D01*
X114255714Y-67728853D01*
X115241428Y-67728853D01*
X115241428Y-68585996D01*
X115244310Y-68615260D01*
X115246371Y-68620237D01*
X115246754Y-68625615D01*
X115257264Y-68653078D01*
X115400121Y-68938792D01*
X115408048Y-68951385D01*
X115409564Y-68955045D01*
X115412945Y-68959164D01*
X115415786Y-68963678D01*
X115418779Y-68966274D01*
X115428219Y-68977776D01*
X115571076Y-69120634D01*
X115582578Y-69130074D01*
X115585174Y-69133067D01*
X115589683Y-69135905D01*
X115593806Y-69139289D01*
X115597468Y-69140805D01*
X115610060Y-69148732D01*
X115895775Y-69291589D01*
X115923239Y-69302099D01*
X115928614Y-69302480D01*
X115933593Y-69304543D01*
X115962857Y-69307425D01*
X116534285Y-69307425D01*
X116563549Y-69304543D01*
X116568527Y-69302480D01*
X116573903Y-69302099D01*
X116601367Y-69291589D01*
X116670000Y-69257272D01*
X116670000Y-69550585D01*
X116553864Y-69782856D01*
X116445430Y-69891290D01*
X116213161Y-70007425D01*
X115855410Y-70007425D01*
X115601367Y-69880404D01*
X115573903Y-69869894D01*
X115515523Y-69865746D01*
X115460001Y-69884254D01*
X115415786Y-69922600D01*
X115389611Y-69974950D01*
X115385463Y-70033330D01*
X115403971Y-70088852D01*
X115442317Y-70133067D01*
X115467203Y-70148732D01*
X115752918Y-70291589D01*
X115780382Y-70302099D01*
X115785757Y-70302480D01*
X115790736Y-70304543D01*
X115820000Y-70307425D01*
X116248571Y-70307425D01*
X116277835Y-70304543D01*
X116282812Y-70302481D01*
X116288190Y-70302099D01*
X116315653Y-70291589D01*
X116601367Y-70148732D01*
X116613958Y-70140805D01*
X116617621Y-70139289D01*
X116621743Y-70135905D01*
X116626253Y-70133067D01*
X116628848Y-70130074D01*
X116640351Y-70120634D01*
X116783208Y-69977776D01*
X116792646Y-69966274D01*
X116795641Y-69963678D01*
X116798481Y-69959164D01*
X116801863Y-69955045D01*
X116803378Y-69951385D01*
X116811306Y-69938792D01*
X116954164Y-69653079D01*
X116964673Y-69625615D01*
X116965054Y-69620240D01*
X116967118Y-69615260D01*
X116970000Y-69585996D01*
X116970000Y-67157425D01*
X116967118Y-67128161D01*
X116944720Y-67074089D01*
X116903336Y-67032705D01*
X116849264Y-67010307D01*
X116790736Y-67010307D01*
X116736664Y-67032705D01*
X116697861Y-67071507D01*
X116601367Y-67023261D01*
X116573903Y-67012751D01*
X116568527Y-67012369D01*
X116563549Y-67010307D01*
X116534285Y-67007425D01*
X115962857Y-67007425D01*
X115933593Y-67010307D01*
X115928614Y-67012369D01*
X115923239Y-67012751D01*
X115895775Y-67023261D01*
X115610060Y-67166118D01*
X115597468Y-67174044D01*
X115593806Y-67175561D01*
X115589683Y-67178944D01*
X115585174Y-67181783D01*
X115582578Y-67184775D01*
X115571076Y-67194216D01*
X115428219Y-67337073D01*
X115418779Y-67348574D01*
X115415786Y-67351171D01*
X115412945Y-67355684D01*
X115409564Y-67359804D01*
X115408048Y-67363463D01*
X115400121Y-67376057D01*
X115257264Y-67661771D01*
X115246754Y-67689234D01*
X115246371Y-67694611D01*
X115244310Y-67699589D01*
X115241428Y-67728853D01*
X114255714Y-67728853D01*
X114255714Y-67585996D01*
X114252832Y-67556732D01*
X114250768Y-67551751D01*
X114250387Y-67546377D01*
X114239878Y-67518913D01*
X114097020Y-67233200D01*
X114093939Y-67228305D01*
X114093170Y-67225998D01*
X114090677Y-67223123D01*
X114081355Y-67208314D01*
X114067145Y-67195990D01*
X114054824Y-67181783D01*
X114040018Y-67172463D01*
X114037140Y-67169967D01*
X114034828Y-67169196D01*
X114029938Y-67166118D01*
X113744224Y-67023261D01*
X113716761Y-67012751D01*
X113711383Y-67012368D01*
X113706406Y-67010307D01*
X113677142Y-67007425D01*
X113248571Y-67007425D01*
X113219307Y-67010307D01*
X113214328Y-67012369D01*
X113208953Y-67012751D01*
X113181489Y-67023261D01*
X112967331Y-67130339D01*
X112967117Y-67128161D01*
X112944719Y-67074089D01*
X112903335Y-67032705D01*
X112849263Y-67010307D01*
X112790735Y-67010307D01*
X112736663Y-67032705D01*
X112695279Y-67074089D01*
X112672881Y-67128161D01*
X112669999Y-67157425D01*
X111541428Y-67157425D01*
X111538546Y-67128161D01*
X111516148Y-67074089D01*
X111474764Y-67032705D01*
X111420692Y-67010307D01*
X111362164Y-67010307D01*
X111308092Y-67032705D01*
X111266708Y-67074089D01*
X111244310Y-67128161D01*
X111241428Y-67157425D01*
X110255714Y-67157425D01*
X110255714Y-66728853D01*
X110252832Y-66699589D01*
X110250770Y-66694611D01*
X110250388Y-66689234D01*
X110239878Y-66661771D01*
X110097021Y-66376057D01*
X110089094Y-66363465D01*
X110087578Y-66359803D01*
X110084194Y-66355680D01*
X110081356Y-66351171D01*
X110078363Y-66348575D01*
X110068923Y-66337073D01*
X110002869Y-66271019D01*
X111101453Y-66271019D01*
X111101453Y-66329545D01*
X111123850Y-66383617D01*
X111142505Y-66406348D01*
X111285362Y-66549205D01*
X111308092Y-66567860D01*
X111346327Y-66583696D01*
X111362164Y-66590257D01*
X111362165Y-66590257D01*
X111420691Y-66590257D01*
X111420692Y-66590257D01*
X111443089Y-66580979D01*
X111474763Y-66567860D01*
X111497494Y-66549205D01*
X111640351Y-66406348D01*
X111659006Y-66383618D01*
X111681403Y-66329545D01*
X111681403Y-66271019D01*
X111659006Y-66216947D01*
X111659006Y-66216946D01*
X111640351Y-66194216D01*
X111497494Y-66051359D01*
X111474763Y-66032704D01*
X111443089Y-66019584D01*
X111420692Y-66010307D01*
X111362164Y-66010307D01*
X111346327Y-66016867D01*
X111308092Y-66032704D01*
X111285362Y-66051359D01*
X111142505Y-66194216D01*
X111123851Y-66216946D01*
X111123850Y-66216947D01*
X111101453Y-66271019D01*
X110002869Y-66271019D01*
X109926066Y-66194216D01*
X109914564Y-66184776D01*
X109911968Y-66181783D01*
X109907454Y-66178942D01*
X109903335Y-66175561D01*
X109899675Y-66174045D01*
X109887082Y-66166118D01*
X109601367Y-66023261D01*
X109573903Y-66012751D01*
X109568527Y-66012369D01*
X109563549Y-66010307D01*
X109534285Y-66007425D01*
X108391428Y-66007425D01*
X108362164Y-66010307D01*
X108308092Y-66032705D01*
X108266708Y-66074089D01*
X108244310Y-66128161D01*
X108241428Y-66157425D01*
X102174989Y-66157425D01*
X102068923Y-66051359D01*
X102046192Y-66032704D01*
X102014518Y-66019584D01*
X101992121Y-66010307D01*
X101933593Y-66010307D01*
X101917756Y-66016867D01*
X101879521Y-66032704D01*
X101856791Y-66051359D01*
X101713934Y-66194216D01*
X101695280Y-66216946D01*
X101695279Y-66216947D01*
X101672882Y-66271019D01*
X100541428Y-66271019D01*
X100541428Y-66157425D01*
X100538546Y-66128161D01*
X100516148Y-66074089D01*
X100474764Y-66032705D01*
X100420692Y-66010307D01*
X100362164Y-66010307D01*
X100308092Y-66032705D01*
X100266708Y-66074089D01*
X100244310Y-66128161D01*
X100241428Y-66157425D01*
X99151486Y-66157425D01*
X98724576Y-66015122D01*
X98710066Y-66011823D01*
X98706406Y-66010307D01*
X98701097Y-66009784D01*
X98695902Y-66008603D01*
X98691953Y-66008883D01*
X98677142Y-66007425D01*
X97962857Y-66007425D01*
X97933593Y-66010307D01*
X97928614Y-66012369D01*
X97923239Y-66012751D01*
X97895775Y-66023261D01*
X97610060Y-66166118D01*
X97597468Y-66174044D01*
X97593806Y-66175561D01*
X97589683Y-66178944D01*
X97585174Y-66181783D01*
X97582578Y-66184775D01*
X97571076Y-66194216D01*
X97428219Y-66337073D01*
X97418779Y-66348574D01*
X97415786Y-66351171D01*
X97412945Y-66355684D01*
X97409564Y-66359804D01*
X97408048Y-66363463D01*
X97400121Y-66376057D01*
X97257264Y-66661771D01*
X97246754Y-66689234D01*
X97246371Y-66694611D01*
X97244310Y-66699589D01*
X97241428Y-66728853D01*
X94112857Y-66728853D01*
X94109975Y-66699589D01*
X94107913Y-66694611D01*
X94107531Y-66689234D01*
X94097021Y-66661771D01*
X93954164Y-66376057D01*
X93946237Y-66363465D01*
X93944721Y-66359803D01*
X93941337Y-66355680D01*
X93938499Y-66351171D01*
X93935506Y-66348575D01*
X93926066Y-66337073D01*
X93783209Y-66194216D01*
X93771707Y-66184776D01*
X93769111Y-66181783D01*
X93764597Y-66178942D01*
X93760478Y-66175561D01*
X93756818Y-66174045D01*
X93744225Y-66166118D01*
X93458510Y-66023261D01*
X93431046Y-66012751D01*
X93425670Y-66012369D01*
X93420692Y-66010307D01*
X93391428Y-66007425D01*
X92248571Y-66007425D01*
X92219307Y-66010307D01*
X92165235Y-66032705D01*
X92123851Y-66074089D01*
X92101453Y-66128161D01*
X92098571Y-66157425D01*
X90406684Y-66157425D01*
X90390873Y-66109991D01*
X90378885Y-66083140D01*
X90371864Y-66075045D01*
X90367071Y-66065458D01*
X90352858Y-66053131D01*
X90340538Y-66038926D01*
X90330955Y-66034134D01*
X90322856Y-66027110D01*
X90305008Y-66021160D01*
X90288191Y-66012752D01*
X90277503Y-66011992D01*
X90267332Y-66008602D01*
X90248566Y-66009935D01*
X90229810Y-66008603D01*
X90219642Y-66011992D01*
X90208952Y-66012752D01*
X90192128Y-66021163D01*
X90174286Y-66027111D01*
X90166191Y-66034131D01*
X90156604Y-66038925D01*
X90144278Y-66053136D01*
X90130072Y-66065458D01*
X90125279Y-66075042D01*
X90118257Y-66083140D01*
X90106269Y-66109991D01*
X89106269Y-69109991D01*
X89099749Y-69138664D01*
X87904096Y-69138664D01*
X87926065Y-69120634D01*
X88211780Y-68834919D01*
X88221219Y-68823417D01*
X88224213Y-68820821D01*
X88227053Y-68816307D01*
X88230435Y-68812188D01*
X88231950Y-68808528D01*
X88239878Y-68795935D01*
X88382735Y-68510221D01*
X88383553Y-68508082D01*
X88384199Y-68507211D01*
X88388580Y-68494946D01*
X88393245Y-68482758D01*
X88393321Y-68481674D01*
X88394092Y-68479519D01*
X88536949Y-67908091D01*
X88537699Y-67903018D01*
X88538546Y-67900974D01*
X88539631Y-67889954D01*
X88541251Y-67879002D01*
X88540925Y-67876813D01*
X88541428Y-67871710D01*
X88541428Y-67443139D01*
X88540925Y-67438035D01*
X88541251Y-67435847D01*
X88539631Y-67424894D01*
X88538546Y-67413875D01*
X88537699Y-67411830D01*
X88536949Y-67406758D01*
X88394092Y-66835330D01*
X88393321Y-66833174D01*
X88393245Y-66832091D01*
X88388580Y-66819902D01*
X88384199Y-66807638D01*
X88383553Y-66806766D01*
X88382735Y-66804628D01*
X88239878Y-66518914D01*
X88231951Y-66506322D01*
X88230435Y-66502660D01*
X88227051Y-66498537D01*
X88224213Y-66494028D01*
X88221220Y-66491432D01*
X88211780Y-66479930D01*
X87926065Y-66194216D01*
X87903334Y-66175561D01*
X87898354Y-66173498D01*
X87894284Y-66169968D01*
X87867433Y-66157979D01*
X87438862Y-66015123D01*
X87424354Y-66011824D01*
X87420692Y-66010307D01*
X87415383Y-66009784D01*
X87410189Y-66008603D01*
X87406239Y-66008883D01*
X87391428Y-66007425D01*
X86677142Y-66007425D01*
X86647878Y-66010307D01*
X86593806Y-66032705D01*
X86552422Y-66074089D01*
X86530024Y-66128161D01*
X86527142Y-66157425D01*
X85460703Y-66157425D01*
X85354637Y-66051359D01*
X85331906Y-66032704D01*
X85300232Y-66019584D01*
X85277835Y-66010307D01*
X85219307Y-66010307D01*
X85203470Y-66016867D01*
X85165235Y-66032704D01*
X85142505Y-66051359D01*
X84999648Y-66194216D01*
X84980994Y-66216946D01*
X84980993Y-66216947D01*
X84958596Y-66271019D01*
X82970000Y-66271019D01*
X82970000Y-66157425D01*
X82967118Y-66128161D01*
X82944720Y-66074089D01*
X82903336Y-66032705D01*
X82849264Y-66010307D01*
X82790736Y-66010307D01*
X82736664Y-66032705D01*
X82695280Y-66074089D01*
X82672882Y-66128161D01*
X82670000Y-66157425D01*
X79765237Y-66157425D01*
X79765237Y-65674092D01*
X120017620Y-65674092D01*
X120017620Y-75470590D01*
G37*
G36*
X117853315Y-88590114D02*
G01*
X116840971Y-88590114D01*
X117347143Y-87071598D01*
X117853315Y-88590114D01*
G37*
G36*
X119697143Y-84531862D02*
G01*
X119526018Y-84617425D01*
X118882553Y-84617425D01*
X118673231Y-84512764D01*
X118568571Y-84303443D01*
X118568571Y-84088549D01*
X118673231Y-83879228D01*
X118882553Y-83774568D01*
X119561428Y-83774568D01*
X119590692Y-83771686D01*
X119595669Y-83769624D01*
X119601047Y-83769242D01*
X119628510Y-83758732D01*
X119697143Y-83724415D01*
X119697143Y-84531862D01*
G37*
G36*
X122411429Y-84531862D02*
G01*
X122240304Y-84617425D01*
X121596839Y-84617425D01*
X121387517Y-84512764D01*
X121282857Y-84303443D01*
X121282857Y-84088549D01*
X121387517Y-83879228D01*
X121596839Y-83774568D01*
X122275714Y-83774568D01*
X122304978Y-83771686D01*
X122309955Y-83769624D01*
X122315333Y-83769242D01*
X122342796Y-83758732D01*
X122411429Y-83724415D01*
X122411429Y-84531862D01*
G37*
G36*
X125125715Y-83002987D02*
G01*
X125125715Y-84531862D01*
X124954590Y-84617425D01*
X124453982Y-84617425D01*
X124221711Y-84501290D01*
X124113278Y-84392856D01*
X123997143Y-84160586D01*
X123997143Y-83374263D01*
X124113278Y-83141993D01*
X124221710Y-83033560D01*
X124453982Y-82917425D01*
X124954590Y-82917425D01*
X125125715Y-83002987D01*
G37*
G36*
X125759048Y-90080590D02*
G01*
X115078095Y-90080590D01*
X115078095Y-89578496D01*
X116198321Y-89578496D01*
X116202470Y-89636877D01*
X116228644Y-89689224D01*
X116272858Y-89727571D01*
X116328382Y-89746079D01*
X116386763Y-89741930D01*
X116439110Y-89715756D01*
X116477457Y-89671542D01*
X116489445Y-89644691D01*
X116740971Y-88890114D01*
X117953315Y-88890114D01*
X118204841Y-89644691D01*
X118216829Y-89671542D01*
X118255176Y-89715757D01*
X118307524Y-89741930D01*
X118365904Y-89746080D01*
X118421428Y-89727572D01*
X118465643Y-89689224D01*
X118491816Y-89636877D01*
X118495452Y-89585731D01*
X118911873Y-89585731D01*
X118914311Y-89606047D01*
X118914311Y-89626521D01*
X118917769Y-89634870D01*
X118918846Y-89643840D01*
X118928876Y-89661683D01*
X118936709Y-89680593D01*
X118943096Y-89686980D01*
X118947525Y-89694859D01*
X118963624Y-89707508D01*
X118978093Y-89721977D01*
X118986438Y-89725434D01*
X118993547Y-89731019D01*
X119013256Y-89736542D01*
X119032165Y-89744375D01*
X119046100Y-89745747D01*
X119049903Y-89746813D01*
X119053066Y-89746433D01*
X119061429Y-89747257D01*
X120632858Y-89747257D01*
X120662122Y-89744375D01*
X120716194Y-89721977D01*
X120757578Y-89680593D01*
X120779976Y-89626521D01*
X120779976Y-89567993D01*
X120757578Y-89513921D01*
X120716194Y-89472537D01*
X120662122Y-89450139D01*
X120632858Y-89447257D01*
X119370049Y-89447257D01*
X120750806Y-87689931D01*
X120755325Y-87682845D01*
X120757578Y-87680593D01*
X120759089Y-87676943D01*
X120766619Y-87665139D01*
X120772141Y-87645433D01*
X120779976Y-87626521D01*
X120779976Y-87617481D01*
X120782414Y-87608783D01*
X120781031Y-87597257D01*
X121625714Y-87597257D01*
X121625714Y-89597257D01*
X121628596Y-89626521D01*
X121650994Y-89680593D01*
X121692378Y-89721977D01*
X121746450Y-89744375D01*
X121804978Y-89744375D01*
X121859050Y-89721977D01*
X121900434Y-89680593D01*
X121922832Y-89626521D01*
X121925714Y-89597257D01*
X121925714Y-89585731D01*
X122769015Y-89585731D01*
X122771453Y-89606047D01*
X122771453Y-89626521D01*
X122774911Y-89634870D01*
X122775988Y-89643840D01*
X122786018Y-89661683D01*
X122793851Y-89680593D01*
X122800238Y-89686980D01*
X122804667Y-89694859D01*
X122820766Y-89707508D01*
X122835235Y-89721977D01*
X122843580Y-89725434D01*
X122850689Y-89731019D01*
X122870398Y-89736542D01*
X122889307Y-89744375D01*
X122903242Y-89745747D01*
X122907045Y-89746813D01*
X122910208Y-89746433D01*
X122918571Y-89747257D01*
X124490000Y-89747257D01*
X124519264Y-89744375D01*
X124573336Y-89721977D01*
X124614720Y-89680593D01*
X124637118Y-89626521D01*
X124637118Y-89567993D01*
X124614720Y-89513921D01*
X124573336Y-89472537D01*
X124519264Y-89450139D01*
X124490000Y-89447257D01*
X123227191Y-89447257D01*
X124607948Y-87689931D01*
X124612467Y-87682845D01*
X124614720Y-87680593D01*
X124616231Y-87676943D01*
X124623761Y-87665139D01*
X124629283Y-87645433D01*
X124637118Y-87626521D01*
X124637118Y-87617481D01*
X124639556Y-87608783D01*
X124637118Y-87588466D01*
X124637118Y-87567993D01*
X124633659Y-87559643D01*
X124632583Y-87550674D01*
X124622554Y-87532834D01*
X124614720Y-87513921D01*
X124608329Y-87507530D01*
X124603903Y-87499656D01*
X124587811Y-87487012D01*
X124573336Y-87472537D01*
X124564987Y-87469078D01*
X124557882Y-87463496D01*
X124538176Y-87457973D01*
X124519264Y-87450139D01*
X124505327Y-87448766D01*
X124501526Y-87447701D01*
X124498362Y-87448080D01*
X124490000Y-87447257D01*
X122918571Y-87447257D01*
X122889307Y-87450139D01*
X122835235Y-87472537D01*
X122793851Y-87513921D01*
X122771453Y-87567993D01*
X122771453Y-87626521D01*
X122793851Y-87680593D01*
X122835235Y-87721977D01*
X122889307Y-87744375D01*
X122918571Y-87747257D01*
X124181380Y-87747257D01*
X122800623Y-89504584D01*
X122796104Y-89511667D01*
X122793851Y-89513921D01*
X122792339Y-89517569D01*
X122784809Y-89529375D01*
X122779285Y-89549084D01*
X122771453Y-89567993D01*
X122771453Y-89577031D01*
X122769015Y-89585731D01*
X121925714Y-89585731D01*
X121925714Y-87597257D01*
X121922832Y-87567993D01*
X121900434Y-87513921D01*
X121859050Y-87472537D01*
X121804978Y-87450139D01*
X121746450Y-87450139D01*
X121692378Y-87472537D01*
X121650994Y-87513921D01*
X121628596Y-87567993D01*
X121625714Y-87597257D01*
X120781031Y-87597257D01*
X120779976Y-87588466D01*
X120779976Y-87567993D01*
X120776517Y-87559643D01*
X120775441Y-87550674D01*
X120765412Y-87532834D01*
X120757578Y-87513921D01*
X120751187Y-87507530D01*
X120746761Y-87499656D01*
X120730669Y-87487012D01*
X120716194Y-87472537D01*
X120707845Y-87469078D01*
X120700740Y-87463496D01*
X120681034Y-87457973D01*
X120662122Y-87450139D01*
X120648185Y-87448766D01*
X120644384Y-87447701D01*
X120641220Y-87448080D01*
X120632858Y-87447257D01*
X119061429Y-87447257D01*
X119032165Y-87450139D01*
X118978093Y-87472537D01*
X118936709Y-87513921D01*
X118914311Y-87567993D01*
X118914311Y-87626521D01*
X118936709Y-87680593D01*
X118978093Y-87721977D01*
X119032165Y-87744375D01*
X119061429Y-87747257D01*
X120324238Y-87747257D01*
X118943481Y-89504584D01*
X118938962Y-89511667D01*
X118936709Y-89513921D01*
X118935197Y-89517569D01*
X118927667Y-89529375D01*
X118922143Y-89549084D01*
X118914311Y-89567993D01*
X118914311Y-89577031D01*
X118911873Y-89585731D01*
X118495452Y-89585731D01*
X118495966Y-89578497D01*
X118489446Y-89549823D01*
X117543121Y-86710851D01*
X121485739Y-86710851D01*
X121485739Y-86769377D01*
X121508136Y-86823449D01*
X121526791Y-86846180D01*
X121669648Y-86989037D01*
X121692378Y-87007692D01*
X121730613Y-87023528D01*
X121746450Y-87030089D01*
X121746451Y-87030089D01*
X121804977Y-87030089D01*
X121804978Y-87030089D01*
X121827375Y-87020811D01*
X121859049Y-87007692D01*
X121881780Y-86989037D01*
X122024637Y-86846180D01*
X122043292Y-86823450D01*
X122065689Y-86769377D01*
X122065689Y-86710851D01*
X122043292Y-86656779D01*
X122043292Y-86656778D01*
X122024637Y-86634048D01*
X121881780Y-86491191D01*
X121859049Y-86472536D01*
X121827375Y-86459416D01*
X121804978Y-86450139D01*
X121746450Y-86450139D01*
X121730613Y-86456699D01*
X121692378Y-86472536D01*
X121669648Y-86491191D01*
X121526791Y-86634048D01*
X121508137Y-86656778D01*
X121508136Y-86656779D01*
X121485739Y-86710851D01*
X117543121Y-86710851D01*
X117489445Y-86549823D01*
X117477457Y-86522972D01*
X117470436Y-86514877D01*
X117465643Y-86505290D01*
X117451430Y-86492963D01*
X117439110Y-86478758D01*
X117429527Y-86473966D01*
X117421428Y-86466942D01*
X117403580Y-86460992D01*
X117386763Y-86452584D01*
X117376075Y-86451824D01*
X117365904Y-86448434D01*
X117347138Y-86449767D01*
X117328382Y-86448435D01*
X117318214Y-86451824D01*
X117307524Y-86452584D01*
X117290700Y-86460995D01*
X117272858Y-86466943D01*
X117264763Y-86473963D01*
X117255176Y-86478757D01*
X117242850Y-86492968D01*
X117228644Y-86505290D01*
X117223851Y-86514874D01*
X117216829Y-86522972D01*
X117204841Y-86549823D01*
X116204841Y-89549823D01*
X116198321Y-89578496D01*
X115078095Y-89578496D01*
X115078095Y-82338853D01*
X115411428Y-82338853D01*
X115411428Y-82624568D01*
X115414310Y-82653832D01*
X115416371Y-82658809D01*
X115416754Y-82664187D01*
X115427264Y-82691650D01*
X115570121Y-82977364D01*
X115578048Y-82989957D01*
X115579564Y-82993617D01*
X115582945Y-82997736D01*
X115585786Y-83002250D01*
X115588779Y-83004846D01*
X115598219Y-83016348D01*
X115741076Y-83159205D01*
X115752578Y-83168645D01*
X115755174Y-83171638D01*
X115759683Y-83174476D01*
X115763806Y-83177860D01*
X115767468Y-83179376D01*
X115780060Y-83187303D01*
X116065775Y-83330160D01*
X116067913Y-83330978D01*
X116068785Y-83331624D01*
X116081058Y-83336008D01*
X116093239Y-83340670D01*
X116094321Y-83340746D01*
X116096477Y-83341517D01*
X116651929Y-83480380D01*
X116901145Y-83604987D01*
X117009578Y-83713421D01*
X117125714Y-83945692D01*
X117125714Y-84160586D01*
X117009578Y-84392856D01*
X116901145Y-84501290D01*
X116668875Y-84617425D01*
X116014343Y-84617425D01*
X115608862Y-84482265D01*
X115580188Y-84475746D01*
X115521808Y-84479895D01*
X115469461Y-84506069D01*
X115431114Y-84550283D01*
X115412606Y-84605808D01*
X115416755Y-84664188D01*
X115442929Y-84716535D01*
X115487143Y-84754882D01*
X115513994Y-84766871D01*
X115942566Y-84909727D01*
X115957073Y-84913025D01*
X115960736Y-84914543D01*
X115966044Y-84915065D01*
X115971239Y-84916247D01*
X115975188Y-84915966D01*
X115990000Y-84917425D01*
X116704285Y-84917425D01*
X116733549Y-84914543D01*
X116738527Y-84912480D01*
X116743903Y-84912099D01*
X116771367Y-84901589D01*
X117057082Y-84758732D01*
X117069673Y-84750805D01*
X117073336Y-84749289D01*
X117077458Y-84745905D01*
X117081968Y-84743067D01*
X117084563Y-84740074D01*
X117096066Y-84730634D01*
X117238923Y-84587776D01*
X117248362Y-84576274D01*
X117251356Y-84573678D01*
X117254196Y-84569164D01*
X117257578Y-84565045D01*
X117259093Y-84561385D01*
X117267021Y-84548792D01*
X117409878Y-84263078D01*
X117420388Y-84235615D01*
X117420770Y-84230237D01*
X117422832Y-84225260D01*
X117425714Y-84195996D01*
X117425714Y-84053139D01*
X118268571Y-84053139D01*
X118268571Y-84338853D01*
X118271453Y-84368117D01*
X118273515Y-84373095D01*
X118273897Y-84378471D01*
X118284407Y-84405935D01*
X118427264Y-84691650D01*
X118430344Y-84696544D01*
X118431114Y-84698852D01*
X118433606Y-84701726D01*
X118442929Y-84716536D01*
X118457137Y-84728858D01*
X118469460Y-84743067D01*
X118484269Y-84752389D01*
X118487144Y-84754882D01*
X118489451Y-84755651D01*
X118494346Y-84758732D01*
X118780061Y-84901589D01*
X118807525Y-84912099D01*
X118812900Y-84912480D01*
X118817879Y-84914543D01*
X118847143Y-84917425D01*
X119561428Y-84917425D01*
X119590692Y-84914543D01*
X119595670Y-84912480D01*
X119601046Y-84912099D01*
X119628510Y-84901589D01*
X119725004Y-84853342D01*
X119763807Y-84892145D01*
X119817879Y-84914543D01*
X119876407Y-84914543D01*
X119930479Y-84892145D01*
X119971863Y-84850761D01*
X119994261Y-84796689D01*
X119997143Y-84767425D01*
X119997143Y-84053139D01*
X120982857Y-84053139D01*
X120982857Y-84338853D01*
X120985739Y-84368117D01*
X120987801Y-84373095D01*
X120988183Y-84378471D01*
X120998693Y-84405935D01*
X121141550Y-84691650D01*
X121144630Y-84696544D01*
X121145400Y-84698852D01*
X121147892Y-84701726D01*
X121157215Y-84716536D01*
X121171423Y-84728858D01*
X121183746Y-84743067D01*
X121198555Y-84752389D01*
X121201430Y-84754882D01*
X121203737Y-84755651D01*
X121208632Y-84758732D01*
X121494347Y-84901589D01*
X121521811Y-84912099D01*
X121527186Y-84912480D01*
X121532165Y-84914543D01*
X121561429Y-84917425D01*
X122275714Y-84917425D01*
X122304978Y-84914543D01*
X122309956Y-84912480D01*
X122315332Y-84912099D01*
X122342796Y-84901589D01*
X122439290Y-84853342D01*
X122478093Y-84892145D01*
X122532165Y-84914543D01*
X122590693Y-84914543D01*
X122644765Y-84892145D01*
X122686149Y-84850761D01*
X122708547Y-84796689D01*
X122711429Y-84767425D01*
X122711429Y-83338853D01*
X123697143Y-83338853D01*
X123697143Y-84195996D01*
X123700025Y-84225260D01*
X123702086Y-84230237D01*
X123702469Y-84235615D01*
X123712979Y-84263078D01*
X123855836Y-84548792D01*
X123863763Y-84561385D01*
X123865279Y-84565045D01*
X123868660Y-84569164D01*
X123871501Y-84573678D01*
X123874494Y-84576274D01*
X123883934Y-84587776D01*
X124026791Y-84730634D01*
X124038293Y-84740074D01*
X124040889Y-84743067D01*
X124045398Y-84745905D01*
X124049521Y-84749289D01*
X124053183Y-84750805D01*
X124065775Y-84758732D01*
X124351490Y-84901589D01*
X124378954Y-84912099D01*
X124384329Y-84912480D01*
X124389308Y-84914543D01*
X124418572Y-84917425D01*
X124990000Y-84917425D01*
X125019264Y-84914543D01*
X125024242Y-84912480D01*
X125029618Y-84912099D01*
X125057082Y-84901589D01*
X125153576Y-84853342D01*
X125192379Y-84892145D01*
X125246451Y-84914543D01*
X125304979Y-84914543D01*
X125359051Y-84892145D01*
X125400435Y-84850761D01*
X125422833Y-84796689D01*
X125425715Y-84767425D01*
X125425715Y-81767425D01*
X125422833Y-81738161D01*
X125400435Y-81684089D01*
X125359051Y-81642705D01*
X125304979Y-81620307D01*
X125246451Y-81620307D01*
X125192379Y-81642705D01*
X125150995Y-81684089D01*
X125128597Y-81738161D01*
X125125715Y-81767425D01*
X125125715Y-82667577D01*
X125057082Y-82633261D01*
X125029618Y-82622751D01*
X125024242Y-82622369D01*
X125019264Y-82620307D01*
X124990000Y-82617425D01*
X124418572Y-82617425D01*
X124389308Y-82620307D01*
X124384329Y-82622369D01*
X124378954Y-82622751D01*
X124351490Y-82633261D01*
X124065775Y-82776118D01*
X124053183Y-82784044D01*
X124049521Y-82785561D01*
X124045398Y-82788944D01*
X124040889Y-82791783D01*
X124038293Y-82794775D01*
X124026791Y-82804216D01*
X123883934Y-82947073D01*
X123874494Y-82958574D01*
X123871501Y-82961171D01*
X123868660Y-82965684D01*
X123865279Y-82969804D01*
X123863763Y-82973463D01*
X123855836Y-82986057D01*
X123712979Y-83271771D01*
X123702469Y-83299234D01*
X123702086Y-83304611D01*
X123700025Y-83309589D01*
X123697143Y-83338853D01*
X122711429Y-83338853D01*
X122711429Y-83195996D01*
X122708547Y-83166732D01*
X122706483Y-83161751D01*
X122706102Y-83156377D01*
X122695593Y-83128913D01*
X122552735Y-82843200D01*
X122549654Y-82838305D01*
X122548885Y-82835998D01*
X122546392Y-82833123D01*
X122537070Y-82818314D01*
X122522860Y-82805990D01*
X122510539Y-82791783D01*
X122495733Y-82782463D01*
X122492855Y-82779967D01*
X122490543Y-82779196D01*
X122485653Y-82776118D01*
X122199939Y-82633261D01*
X122172476Y-82622751D01*
X122167098Y-82622368D01*
X122162121Y-82620307D01*
X122132857Y-82617425D01*
X121561429Y-82617425D01*
X121532165Y-82620307D01*
X121527186Y-82622369D01*
X121521811Y-82622751D01*
X121494347Y-82633261D01*
X121208632Y-82776118D01*
X121183746Y-82791783D01*
X121145400Y-82835998D01*
X121126892Y-82891520D01*
X121131040Y-82949900D01*
X121157215Y-83002250D01*
X121201430Y-83040596D01*
X121256952Y-83059104D01*
X121315332Y-83054956D01*
X121342796Y-83044446D01*
X121596839Y-82917425D01*
X122097447Y-82917425D01*
X122306767Y-83022085D01*
X122411429Y-83231406D01*
X122411429Y-83389005D01*
X122240304Y-83474568D01*
X121561429Y-83474568D01*
X121532165Y-83477450D01*
X121527186Y-83479512D01*
X121521811Y-83479894D01*
X121494347Y-83490404D01*
X121208632Y-83633261D01*
X121203737Y-83636341D01*
X121201430Y-83637111D01*
X121198555Y-83639603D01*
X121183746Y-83648926D01*
X121171423Y-83663134D01*
X121157215Y-83675457D01*
X121147892Y-83690266D01*
X121145400Y-83693141D01*
X121144630Y-83695448D01*
X121141550Y-83700343D01*
X120998693Y-83986057D01*
X120988183Y-84013520D01*
X120987800Y-84018897D01*
X120985739Y-84023875D01*
X120982857Y-84053139D01*
X119997143Y-84053139D01*
X119997143Y-83195996D01*
X119994261Y-83166732D01*
X119992197Y-83161751D01*
X119991816Y-83156377D01*
X119981307Y-83128913D01*
X119838449Y-82843200D01*
X119835368Y-82838305D01*
X119834599Y-82835998D01*
X119832106Y-82833123D01*
X119822784Y-82818314D01*
X119808574Y-82805990D01*
X119796253Y-82791783D01*
X119781447Y-82782463D01*
X119778569Y-82779967D01*
X119776257Y-82779196D01*
X119771367Y-82776118D01*
X119485653Y-82633261D01*
X119458190Y-82622751D01*
X119452812Y-82622368D01*
X119447835Y-82620307D01*
X119418571Y-82617425D01*
X118847143Y-82617425D01*
X118817879Y-82620307D01*
X118812900Y-82622369D01*
X118807525Y-82622751D01*
X118780061Y-82633261D01*
X118494346Y-82776118D01*
X118469460Y-82791783D01*
X118431114Y-82835998D01*
X118412606Y-82891520D01*
X118416754Y-82949900D01*
X118442929Y-83002250D01*
X118487144Y-83040596D01*
X118542666Y-83059104D01*
X118601046Y-83054956D01*
X118628510Y-83044446D01*
X118882553Y-82917425D01*
X119383161Y-82917425D01*
X119592481Y-83022085D01*
X119697143Y-83231406D01*
X119697143Y-83389005D01*
X119526018Y-83474568D01*
X118847143Y-83474568D01*
X118817879Y-83477450D01*
X118812900Y-83479512D01*
X118807525Y-83479894D01*
X118780061Y-83490404D01*
X118494346Y-83633261D01*
X118489451Y-83636341D01*
X118487144Y-83637111D01*
X118484269Y-83639603D01*
X118469460Y-83648926D01*
X118457137Y-83663134D01*
X118442929Y-83675457D01*
X118433606Y-83690266D01*
X118431114Y-83693141D01*
X118430344Y-83695448D01*
X118427264Y-83700343D01*
X118284407Y-83986057D01*
X118273897Y-84013520D01*
X118273514Y-84018897D01*
X118271453Y-84023875D01*
X118268571Y-84053139D01*
X117425714Y-84053139D01*
X117425714Y-83910282D01*
X117422832Y-83881018D01*
X117420770Y-83876040D01*
X117420388Y-83870663D01*
X117409878Y-83843200D01*
X117267021Y-83557486D01*
X117259093Y-83544892D01*
X117257578Y-83541233D01*
X117254196Y-83537113D01*
X117251356Y-83532600D01*
X117248362Y-83530003D01*
X117238923Y-83518502D01*
X117096066Y-83375644D01*
X117084563Y-83366203D01*
X117081968Y-83363211D01*
X117077458Y-83360372D01*
X117073336Y-83356989D01*
X117069673Y-83355472D01*
X117057082Y-83347546D01*
X116771367Y-83204689D01*
X116769228Y-83203870D01*
X116768357Y-83203225D01*
X116756077Y-83198838D01*
X116743903Y-83194179D01*
X116742821Y-83194102D01*
X116740666Y-83193332D01*
X116185212Y-83054468D01*
X115935995Y-82929860D01*
X115827563Y-82821428D01*
X115711428Y-82589158D01*
X115711428Y-82374263D01*
X115827563Y-82141993D01*
X115935995Y-82033560D01*
X116168267Y-81917425D01*
X116822799Y-81917425D01*
X117228280Y-82052584D01*
X117256953Y-82059104D01*
X117315333Y-82054955D01*
X117367680Y-82028781D01*
X117406028Y-81984567D01*
X117424536Y-81929042D01*
X117420386Y-81870662D01*
X117394213Y-81818315D01*
X117349999Y-81779968D01*
X117323148Y-81767979D01*
X116894576Y-81625122D01*
X116880066Y-81621823D01*
X116876406Y-81620307D01*
X116871097Y-81619784D01*
X116865902Y-81618603D01*
X116861953Y-81618883D01*
X116847142Y-81617425D01*
X116132857Y-81617425D01*
X116103593Y-81620307D01*
X116098614Y-81622369D01*
X116093239Y-81622751D01*
X116065775Y-81633261D01*
X115780060Y-81776118D01*
X115767468Y-81784044D01*
X115763806Y-81785561D01*
X115759683Y-81788944D01*
X115755174Y-81791783D01*
X115752578Y-81794775D01*
X115741076Y-81804216D01*
X115598219Y-81947073D01*
X115588779Y-81958574D01*
X115585786Y-81961171D01*
X115582945Y-81965684D01*
X115579564Y-81969804D01*
X115578048Y-81973463D01*
X115570121Y-81986057D01*
X115427264Y-82271771D01*
X115416754Y-82299234D01*
X115416371Y-82304611D01*
X115414310Y-82309589D01*
X115411428Y-82338853D01*
X115078095Y-82338853D01*
X115078095Y-81284092D01*
X125759048Y-81284092D01*
X125759048Y-90080590D01*
G37*
D11*
%TO.P,J1,1,Pin_1*%
%TO.N,/INTR1_6AXIS*%
X100000000Y-93500000D03*
%TO.P,J1,2,Pin_2*%
%TO.N,/INTR2_6AXIS*%
X104600000Y-95400000D03*
%TO.P,J1,3,Pin_3*%
%TO.N,/3.3V*%
X106500000Y-100000000D03*
%TO.P,J1,4,Pin_4*%
%TO.N,/EN_ToF*%
X104600000Y-104600000D03*
%TO.P,J1,5,Pin_5*%
%TO.N,/GND*%
X100000000Y-106500000D03*
%TO.P,J1,6,Pin_6*%
%TO.N,/I2C_CLK*%
X95400000Y-104600000D03*
%TO.P,J1,7,Pin_7*%
%TO.N,/I2C_DATA*%
X93500000Y-100000000D03*
%TO.P,J1,8,Pin_8*%
%TO.N,unconnected-(J1-Pin_8-Pad8)*%
X95400000Y-95400000D03*
%TD*%
D12*
%TO.N,/EN_ToF*%
X110100000Y-104600000D03*
X128600000Y-100000000D03*
%TO.N,/INTR1_6AXIS*%
X100000000Y-88550000D03*
X100000000Y-82800000D03*
%TO.N,/3.3V*%
X124800000Y-100000000D03*
X111350000Y-100000000D03*
%TO.N,/GND*%
X100000000Y-132400000D03*
X100000000Y-110710000D03*
%TO.N,/INTR2_6AXIS*%
X100000000Y-79000000D03*
X104600000Y-89650000D03*
%TO.N,/I2C_CLK*%
X95400000Y-110100000D03*
X100000000Y-136200000D03*
%TO.N,/I2C_DATA*%
X60000000Y-100000000D03*
X88050000Y-100000000D03*
%TD*%
D13*
%TO.N,/EN_ToF*%
X126140000Y-104600000D02*
X128600000Y-102140000D01*
X128600000Y-102140000D02*
X128600000Y-100000000D01*
X110100000Y-104600000D02*
X126140000Y-104600000D01*
%TO.N,/INTR1_6AXIS*%
X100000000Y-88550000D02*
X100000000Y-82800000D01*
%TO.N,/3.3V*%
X111350000Y-100000000D02*
X124800000Y-100000000D01*
%TO.N,/GND*%
X100000000Y-110710000D02*
X100000000Y-132400000D01*
%TO.N,/INTR2_6AXIS*%
X104600000Y-89650000D02*
X104600000Y-81090000D01*
X102510000Y-79000000D02*
X100000000Y-79000000D01*
X104600000Y-81090000D02*
X102510000Y-79000000D01*
%TO.N,/I2C_CLK*%
X95400000Y-110100000D02*
X95400000Y-133940000D01*
X95400000Y-133940000D02*
X97660000Y-136200000D01*
X97660000Y-136200000D02*
X100000000Y-136200000D01*
%TO.N,/I2C_DATA*%
X88050000Y-100000000D02*
X60000000Y-100000000D01*
%TD*%
%TA.AperFunction,Conductor*%
%TO.N,/GND*%
G36*
X100639386Y-57795371D02*
G01*
X101910073Y-57833767D01*
X101913718Y-57833931D01*
X103182778Y-57910696D01*
X103186426Y-57910972D01*
X104452519Y-58026024D01*
X104456183Y-58026413D01*
X105718265Y-58179657D01*
X105721874Y-58180151D01*
X106976828Y-58371152D01*
X106978683Y-58371435D01*
X106982377Y-58372054D01*
X108232875Y-58601216D01*
X108236468Y-58601931D01*
X109479433Y-58868748D01*
X109483064Y-58869584D01*
X110717433Y-59173830D01*
X110720972Y-59174759D01*
X111490052Y-59389156D01*
X111945612Y-59516153D01*
X111949204Y-59517214D01*
X113162860Y-59895404D01*
X113166417Y-59896571D01*
X114368184Y-60311275D01*
X114371614Y-60312517D01*
X115316575Y-60670893D01*
X115560307Y-60763329D01*
X115563789Y-60764710D01*
X115811584Y-60867350D01*
X116738306Y-61251211D01*
X116741669Y-61252664D01*
X117900999Y-61774435D01*
X117904355Y-61776007D01*
X119047330Y-62332524D01*
X119050644Y-62334200D01*
X120176352Y-62925017D01*
X120179588Y-62926778D01*
X120865873Y-63313845D01*
X121286889Y-63551299D01*
X121290123Y-63553188D01*
X122378035Y-64210853D01*
X122381211Y-64212839D01*
X123448775Y-64903070D01*
X123451889Y-64905151D01*
X124498104Y-65627302D01*
X124501154Y-65629476D01*
X125525084Y-66382897D01*
X125528067Y-66385162D01*
X126528780Y-67169171D01*
X126531693Y-67171525D01*
X127508281Y-67985409D01*
X127511122Y-67987851D01*
X128462656Y-68830837D01*
X128465422Y-68833363D01*
X129391075Y-69704716D01*
X129393763Y-69707324D01*
X130292675Y-70606236D01*
X130295283Y-70608924D01*
X131166636Y-71534577D01*
X131169162Y-71537343D01*
X132012148Y-72488877D01*
X132014590Y-72491718D01*
X132828474Y-73468306D01*
X132830828Y-73471219D01*
X133614837Y-74471932D01*
X133617102Y-74474915D01*
X134370523Y-75498845D01*
X134372697Y-75501895D01*
X135094848Y-76548110D01*
X135096929Y-76551224D01*
X135787160Y-77618788D01*
X135789146Y-77621964D01*
X136446811Y-78709876D01*
X136448700Y-78713110D01*
X137073206Y-79820384D01*
X137074997Y-79823674D01*
X137665792Y-80949341D01*
X137667482Y-80952684D01*
X138223983Y-82095626D01*
X138225572Y-82099018D01*
X138747319Y-83258293D01*
X138748804Y-83261731D01*
X139235289Y-84436210D01*
X139236670Y-84439692D01*
X139687465Y-85628339D01*
X139688740Y-85631861D01*
X140103427Y-86833580D01*
X140104595Y-86837139D01*
X140482785Y-88050795D01*
X140483846Y-88054387D01*
X140825229Y-89278985D01*
X140826180Y-89282608D01*
X141130412Y-90516926D01*
X141131253Y-90520576D01*
X141398060Y-91763491D01*
X141398791Y-91767164D01*
X141627945Y-93017622D01*
X141628564Y-93021316D01*
X141819840Y-94278069D01*
X141820348Y-94281781D01*
X141973583Y-95543790D01*
X141973978Y-95547514D01*
X142089023Y-96813529D01*
X142089306Y-96817264D01*
X142166065Y-98086233D01*
X142166234Y-98089975D01*
X142204629Y-99360613D01*
X142204686Y-99364358D01*
X142204686Y-100635641D01*
X142204629Y-100639386D01*
X142166234Y-101910024D01*
X142166065Y-101913766D01*
X142089306Y-103182735D01*
X142089023Y-103186470D01*
X141973978Y-104452485D01*
X141973583Y-104456209D01*
X141820348Y-105718218D01*
X141819840Y-105721930D01*
X141628564Y-106978683D01*
X141627945Y-106982377D01*
X141398791Y-108232835D01*
X141398060Y-108236508D01*
X141131253Y-109479423D01*
X141130412Y-109483073D01*
X140826180Y-110717391D01*
X140825229Y-110721014D01*
X140483846Y-111945612D01*
X140482785Y-111949204D01*
X140104595Y-113162860D01*
X140103427Y-113166419D01*
X139688740Y-114368138D01*
X139687465Y-114371660D01*
X139236670Y-115560307D01*
X139235289Y-115563789D01*
X138748804Y-116738268D01*
X138747319Y-116741706D01*
X138225572Y-117900981D01*
X138223983Y-117904373D01*
X137667482Y-119047315D01*
X137665792Y-119050658D01*
X137074997Y-120176325D01*
X137073206Y-120179615D01*
X136448700Y-121286889D01*
X136446811Y-121290123D01*
X135789146Y-122378035D01*
X135787160Y-122381211D01*
X135096929Y-123448775D01*
X135094848Y-123451889D01*
X134372697Y-124498104D01*
X134370523Y-124501154D01*
X133617102Y-125525084D01*
X133614837Y-125528067D01*
X132830828Y-126528780D01*
X132828474Y-126531693D01*
X132014590Y-127508281D01*
X132012148Y-127511122D01*
X131169162Y-128462656D01*
X131166636Y-128465422D01*
X130295283Y-129391075D01*
X130292675Y-129393763D01*
X129393763Y-130292675D01*
X129391075Y-130295283D01*
X128465422Y-131166636D01*
X128462656Y-131169162D01*
X127511122Y-132012148D01*
X127508281Y-132014590D01*
X126531693Y-132828474D01*
X126528780Y-132830828D01*
X125528067Y-133614837D01*
X125525084Y-133617102D01*
X124501154Y-134370523D01*
X124498104Y-134372697D01*
X123451889Y-135094848D01*
X123448775Y-135096929D01*
X122381211Y-135787160D01*
X122378035Y-135789146D01*
X121290123Y-136446811D01*
X121286889Y-136448700D01*
X120179615Y-137073206D01*
X120176325Y-137074997D01*
X119050658Y-137665792D01*
X119047315Y-137667482D01*
X117904373Y-138223983D01*
X117900981Y-138225572D01*
X116741706Y-138747319D01*
X116738268Y-138748804D01*
X115563789Y-139235289D01*
X115560307Y-139236670D01*
X114371660Y-139687465D01*
X114368138Y-139688740D01*
X113166419Y-140103427D01*
X113162860Y-140104595D01*
X111949204Y-140482785D01*
X111945612Y-140483846D01*
X110721014Y-140825229D01*
X110717391Y-140826180D01*
X109483073Y-141130412D01*
X109479423Y-141131253D01*
X108236508Y-141398060D01*
X108232835Y-141398791D01*
X106982377Y-141627945D01*
X106978683Y-141628564D01*
X105721930Y-141819840D01*
X105718218Y-141820348D01*
X104456209Y-141973583D01*
X104452485Y-141973978D01*
X103186470Y-142089023D01*
X103182735Y-142089306D01*
X101913766Y-142166065D01*
X101910024Y-142166234D01*
X100639386Y-142204629D01*
X100635641Y-142204686D01*
X99364359Y-142204686D01*
X99360614Y-142204629D01*
X98089975Y-142166234D01*
X98086233Y-142166065D01*
X96817264Y-142089306D01*
X96813529Y-142089023D01*
X95547514Y-141973978D01*
X95543790Y-141973583D01*
X94281781Y-141820348D01*
X94278069Y-141819840D01*
X93021316Y-141628564D01*
X93017622Y-141627945D01*
X91767164Y-141398791D01*
X91763491Y-141398060D01*
X90520576Y-141131253D01*
X90516926Y-141130412D01*
X89282608Y-140826180D01*
X89278985Y-140825229D01*
X88054387Y-140483846D01*
X88050795Y-140482785D01*
X86837139Y-140104595D01*
X86833580Y-140103427D01*
X85631861Y-139688740D01*
X85628339Y-139687465D01*
X84439692Y-139236670D01*
X84436210Y-139235289D01*
X83261731Y-138748804D01*
X83258293Y-138747319D01*
X82099018Y-138225572D01*
X82095626Y-138223983D01*
X80952684Y-137667482D01*
X80949341Y-137665792D01*
X79823674Y-137074997D01*
X79820384Y-137073206D01*
X78713110Y-136448700D01*
X78709876Y-136446811D01*
X77621964Y-135789146D01*
X77618788Y-135787160D01*
X76551224Y-135096929D01*
X76548110Y-135094848D01*
X75501895Y-134372697D01*
X75498845Y-134370523D01*
X74474915Y-133617102D01*
X74471932Y-133614837D01*
X73471219Y-132830828D01*
X73468306Y-132828474D01*
X72491718Y-132014590D01*
X72488877Y-132012148D01*
X71537343Y-131169162D01*
X71534577Y-131166636D01*
X70608924Y-130295283D01*
X70606236Y-130292675D01*
X69707324Y-129393763D01*
X69704716Y-129391075D01*
X68833363Y-128465422D01*
X68830837Y-128462656D01*
X67987851Y-127511122D01*
X67985409Y-127508281D01*
X67171525Y-126531693D01*
X67169171Y-126528780D01*
X66385162Y-125528067D01*
X66382897Y-125525084D01*
X65629476Y-124501154D01*
X65627302Y-124498104D01*
X64905151Y-123451889D01*
X64903070Y-123448775D01*
X64212839Y-122381211D01*
X64210853Y-122378035D01*
X63553188Y-121290123D01*
X63551299Y-121286889D01*
X63169104Y-120609242D01*
X62926778Y-120179588D01*
X62925017Y-120176352D01*
X62334200Y-119050644D01*
X62332517Y-119047315D01*
X61776016Y-117904373D01*
X61774427Y-117900981D01*
X61288224Y-116820681D01*
X61252664Y-116741669D01*
X61251211Y-116738306D01*
X60764710Y-115563789D01*
X60763329Y-115560307D01*
X60670893Y-115316575D01*
X60312517Y-114371614D01*
X60311275Y-114368184D01*
X59896571Y-113166417D01*
X59895404Y-113162860D01*
X59517214Y-111949204D01*
X59516153Y-111945612D01*
X59412909Y-111575259D01*
X59174759Y-110720972D01*
X59173830Y-110717433D01*
X58988417Y-109965186D01*
X92999500Y-109965186D01*
X92999500Y-134074813D01*
X93029686Y-134342719D01*
X93029688Y-134342735D01*
X93089682Y-134605589D01*
X93089686Y-134605601D01*
X93161010Y-134809430D01*
X93161010Y-134809432D01*
X93161011Y-134809432D01*
X93178733Y-134860080D01*
X93295714Y-135102994D01*
X93295716Y-135102997D01*
X93370799Y-135222490D01*
X93439162Y-135331289D01*
X93564573Y-135488549D01*
X93601144Y-135534409D01*
X93607266Y-135542085D01*
X95867266Y-137802085D01*
X96057915Y-137992734D01*
X96268711Y-138160838D01*
X96497003Y-138304284D01*
X96739921Y-138421267D01*
X96739927Y-138421269D01*
X96994398Y-138510313D01*
X96994404Y-138510315D01*
X96994410Y-138510317D01*
X97257268Y-138570312D01*
X97525187Y-138600499D01*
X97525188Y-138600500D01*
X97525191Y-138600500D01*
X100134812Y-138600500D01*
X100134812Y-138600499D01*
X100402732Y-138570312D01*
X100665591Y-138510316D01*
X100920079Y-138421267D01*
X101162997Y-138304284D01*
X101391289Y-138160838D01*
X101602085Y-137992734D01*
X101792734Y-137802085D01*
X101960838Y-137591289D01*
X102104284Y-137362997D01*
X102221267Y-137120079D01*
X102310316Y-136865591D01*
X102370312Y-136602732D01*
X102400500Y-136334809D01*
X102400500Y-136065191D01*
X102370312Y-135797268D01*
X102310316Y-135534409D01*
X102221267Y-135279921D01*
X102104284Y-135037003D01*
X101960838Y-134808711D01*
X101792734Y-134597915D01*
X101602085Y-134407266D01*
X101391289Y-134239162D01*
X101162997Y-134095716D01*
X101162994Y-134095714D01*
X100920082Y-133978734D01*
X100665602Y-133889687D01*
X100665594Y-133889684D01*
X100468446Y-133844687D01*
X100402732Y-133829688D01*
X100402728Y-133829687D01*
X100402719Y-133829686D01*
X100134813Y-133799500D01*
X100134809Y-133799500D01*
X98705681Y-133799500D01*
X98638642Y-133779815D01*
X98618000Y-133763181D01*
X97836819Y-132982000D01*
X97803334Y-132920677D01*
X97800500Y-132894319D01*
X97800500Y-109965188D01*
X97800499Y-109965186D01*
X97770313Y-109697280D01*
X97770312Y-109697268D01*
X97710316Y-109434409D01*
X97621267Y-109179921D01*
X97504284Y-108937003D01*
X97360838Y-108708711D01*
X97192734Y-108497915D01*
X97002085Y-108307266D01*
X96791289Y-108139162D01*
X96562997Y-107995716D01*
X96562994Y-107995714D01*
X96320082Y-107878734D01*
X96073474Y-107792441D01*
X96073471Y-107792441D01*
X96065592Y-107789684D01*
X96065594Y-107789684D01*
X95868446Y-107744687D01*
X95802732Y-107729688D01*
X95802728Y-107729687D01*
X95802719Y-107729686D01*
X95534813Y-107699500D01*
X95534809Y-107699500D01*
X95265191Y-107699500D01*
X95265186Y-107699500D01*
X94997280Y-107729686D01*
X94997268Y-107729688D01*
X94734405Y-107789684D01*
X94734397Y-107789687D01*
X94479917Y-107878734D01*
X94237005Y-107995714D01*
X94008712Y-108139161D01*
X93797915Y-108307265D01*
X93607265Y-108497915D01*
X93439161Y-108708712D01*
X93295714Y-108937005D01*
X93178734Y-109179917D01*
X93089687Y-109434397D01*
X93089684Y-109434405D01*
X93029688Y-109697268D01*
X93029686Y-109697280D01*
X92999500Y-109965186D01*
X58988417Y-109965186D01*
X58869584Y-109483064D01*
X58868746Y-109479423D01*
X58859083Y-109434409D01*
X58601931Y-108236468D01*
X58601216Y-108232875D01*
X58372054Y-106982377D01*
X58371435Y-106978683D01*
X58361030Y-106910316D01*
X58180151Y-105721874D01*
X58179658Y-105718274D01*
X58027953Y-104468872D01*
X93399500Y-104468872D01*
X93399500Y-104731127D01*
X93426123Y-104933339D01*
X93433730Y-104991116D01*
X93501602Y-105244418D01*
X93501605Y-105244428D01*
X93601953Y-105486690D01*
X93601958Y-105486700D01*
X93733075Y-105713803D01*
X93892718Y-105921851D01*
X93892726Y-105921860D01*
X94078140Y-106107274D01*
X94078148Y-106107281D01*
X94286196Y-106266924D01*
X94513299Y-106398041D01*
X94513309Y-106398046D01*
X94755571Y-106498394D01*
X94755581Y-106498398D01*
X95008884Y-106566270D01*
X95268880Y-106600500D01*
X95268887Y-106600500D01*
X95531113Y-106600500D01*
X95531120Y-106600500D01*
X95791116Y-106566270D01*
X96044419Y-106498398D01*
X96286697Y-106398043D01*
X96314576Y-106381947D01*
X98500000Y-106381947D01*
X98500000Y-106618052D01*
X98536934Y-106851247D01*
X98609897Y-107075802D01*
X98717087Y-107286174D01*
X98777338Y-107369104D01*
X98777340Y-107369105D01*
X99517037Y-106629408D01*
X99534075Y-106692993D01*
X99599901Y-106807007D01*
X99692993Y-106900099D01*
X99807007Y-106965925D01*
X99870590Y-106982962D01*
X99130893Y-107722658D01*
X99213828Y-107782914D01*
X99424197Y-107890102D01*
X99648752Y-107963065D01*
X99648751Y-107963065D01*
X99881948Y-108000000D01*
X100118052Y-108000000D01*
X100351247Y-107963065D01*
X100575802Y-107890102D01*
X100786163Y-107782918D01*
X100786169Y-107782914D01*
X100869104Y-107722658D01*
X100869105Y-107722658D01*
X100129408Y-106982962D01*
X100192993Y-106965925D01*
X100307007Y-106900099D01*
X100400099Y-106807007D01*
X100465925Y-106692993D01*
X100482962Y-106629409D01*
X101222658Y-107369105D01*
X101222658Y-107369104D01*
X101282914Y-107286169D01*
X101282918Y-107286163D01*
X101390102Y-107075802D01*
X101463065Y-106851247D01*
X101500000Y-106618052D01*
X101500000Y-106381947D01*
X101463065Y-106148752D01*
X101390102Y-105924197D01*
X101282914Y-105713828D01*
X101222658Y-105630894D01*
X101222658Y-105630893D01*
X100482962Y-106370590D01*
X100465925Y-106307007D01*
X100400099Y-106192993D01*
X100307007Y-106099901D01*
X100192993Y-106034075D01*
X100129409Y-106017037D01*
X100869105Y-105277340D01*
X100869104Y-105277338D01*
X100786174Y-105217087D01*
X100575802Y-105109897D01*
X100351247Y-105036934D01*
X100351248Y-105036934D01*
X100118052Y-105000000D01*
X99881948Y-105000000D01*
X99648752Y-105036934D01*
X99424197Y-105109897D01*
X99213830Y-105217084D01*
X99130894Y-105277340D01*
X99870591Y-106017037D01*
X99807007Y-106034075D01*
X99692993Y-106099901D01*
X99599901Y-106192993D01*
X99534075Y-106307007D01*
X99517037Y-106370591D01*
X98777340Y-105630894D01*
X98717084Y-105713830D01*
X98609897Y-105924197D01*
X98536934Y-106148752D01*
X98500000Y-106381947D01*
X96314576Y-106381947D01*
X96509017Y-106269687D01*
X96509018Y-106269687D01*
X96510958Y-106268566D01*
X96513803Y-106266924D01*
X96721851Y-106107282D01*
X96721855Y-106107277D01*
X96721860Y-106107274D01*
X96907274Y-105921860D01*
X96907277Y-105921855D01*
X96907282Y-105921851D01*
X97066924Y-105713803D01*
X97198043Y-105486697D01*
X97298398Y-105244419D01*
X97366270Y-104991116D01*
X97400500Y-104731120D01*
X97400500Y-104468880D01*
X97400499Y-104468872D01*
X102599500Y-104468872D01*
X102599500Y-104731127D01*
X102626123Y-104933339D01*
X102633730Y-104991116D01*
X102701602Y-105244418D01*
X102701605Y-105244428D01*
X102801953Y-105486690D01*
X102801958Y-105486700D01*
X102933075Y-105713803D01*
X103092718Y-105921851D01*
X103092726Y-105921860D01*
X103278140Y-106107274D01*
X103278148Y-106107281D01*
X103486196Y-106266924D01*
X103713299Y-106398041D01*
X103713309Y-106398046D01*
X103955571Y-106498394D01*
X103955581Y-106498398D01*
X104208884Y-106566270D01*
X104468880Y-106600500D01*
X104468887Y-106600500D01*
X104731113Y-106600500D01*
X104731120Y-106600500D01*
X104991116Y-106566270D01*
X105244419Y-106498398D01*
X105486697Y-106398043D01*
X105713803Y-106266924D01*
X105921851Y-106107282D01*
X105921855Y-106107277D01*
X105921860Y-106107274D01*
X106107274Y-105921860D01*
X106107277Y-105921855D01*
X106107282Y-105921851D01*
X106266924Y-105713803D01*
X106398043Y-105486697D01*
X106498398Y-105244419D01*
X106566270Y-104991116D01*
X106600500Y-104731120D01*
X106600500Y-104468880D01*
X106600014Y-104465186D01*
X107699500Y-104465186D01*
X107699500Y-104734813D01*
X107729686Y-105002719D01*
X107729687Y-105002728D01*
X107729688Y-105002732D01*
X107744687Y-105068446D01*
X107789684Y-105265594D01*
X107789687Y-105265602D01*
X107878734Y-105520082D01*
X107995714Y-105762994D01*
X107995716Y-105762997D01*
X108139162Y-105991289D01*
X108307266Y-106202085D01*
X108497915Y-106392734D01*
X108708711Y-106560838D01*
X108937003Y-106704284D01*
X109179921Y-106821267D01*
X109371049Y-106888145D01*
X109434397Y-106910312D01*
X109434405Y-106910315D01*
X109434408Y-106910315D01*
X109434409Y-106910316D01*
X109697268Y-106970312D01*
X109965187Y-107000499D01*
X109965188Y-107000500D01*
X109965191Y-107000500D01*
X126274812Y-107000500D01*
X126274812Y-107000499D01*
X126542732Y-106970312D01*
X126805590Y-106910317D01*
X127060079Y-106821267D01*
X127302997Y-106704284D01*
X127531289Y-106560838D01*
X127742085Y-106392734D01*
X127932734Y-106202085D01*
X127991293Y-106143526D01*
X127991305Y-106143512D01*
X130392734Y-103742086D01*
X130560838Y-103531289D01*
X130620464Y-103436395D01*
X130704284Y-103302997D01*
X130821267Y-103060079D01*
X130910316Y-102805591D01*
X130970312Y-102542732D01*
X131000500Y-102274809D01*
X131000500Y-99865191D01*
X130970312Y-99597268D01*
X130910316Y-99334409D01*
X130902523Y-99312139D01*
X130871507Y-99223498D01*
X130821267Y-99079921D01*
X130704284Y-98837003D01*
X130560838Y-98608711D01*
X130392734Y-98397915D01*
X130202085Y-98207266D01*
X129991289Y-98039162D01*
X129762997Y-97895716D01*
X129762994Y-97895714D01*
X129520082Y-97778734D01*
X129265602Y-97689687D01*
X129265594Y-97689684D01*
X129068446Y-97644687D01*
X129002732Y-97629688D01*
X129002728Y-97629687D01*
X129002719Y-97629686D01*
X128734813Y-97599500D01*
X128734809Y-97599500D01*
X128465191Y-97599500D01*
X128465186Y-97599500D01*
X128197280Y-97629686D01*
X128197268Y-97629688D01*
X127934405Y-97689684D01*
X127934397Y-97689687D01*
X127679917Y-97778734D01*
X127437005Y-97895714D01*
X127208712Y-98039161D01*
X126997915Y-98207265D01*
X126807264Y-98397916D01*
X126796946Y-98410855D01*
X126739757Y-98450995D01*
X126669945Y-98453844D01*
X126609676Y-98418497D01*
X126603054Y-98410855D01*
X126592735Y-98397916D01*
X126402084Y-98207265D01*
X126269586Y-98101602D01*
X126191289Y-98039162D01*
X125962997Y-97895716D01*
X125962994Y-97895714D01*
X125720082Y-97778734D01*
X125465602Y-97689687D01*
X125465594Y-97689684D01*
X125268446Y-97644687D01*
X125202732Y-97629688D01*
X125202728Y-97629687D01*
X125202719Y-97629686D01*
X124934813Y-97599500D01*
X124934809Y-97599500D01*
X111215191Y-97599500D01*
X111215186Y-97599500D01*
X110947280Y-97629686D01*
X110947268Y-97629688D01*
X110684405Y-97689684D01*
X110684397Y-97689687D01*
X110429917Y-97778734D01*
X110187005Y-97895714D01*
X109958712Y-98039161D01*
X109747915Y-98207265D01*
X109557265Y-98397915D01*
X109389161Y-98608712D01*
X109245714Y-98837005D01*
X109128734Y-99079917D01*
X109039687Y-99334397D01*
X109039684Y-99334405D01*
X108979688Y-99597268D01*
X108979686Y-99597280D01*
X108949500Y-99865186D01*
X108949500Y-100134813D01*
X108979686Y-100402719D01*
X108979688Y-100402731D01*
X109039684Y-100665594D01*
X109039687Y-100665602D01*
X109128734Y-100920082D01*
X109245714Y-101162994D01*
X109245716Y-101162997D01*
X109389162Y-101391289D01*
X109557266Y-101602085D01*
X109747915Y-101792734D01*
X109958711Y-101960838D01*
X109981715Y-101975292D01*
X110028005Y-102027625D01*
X110038655Y-102096679D01*
X110010280Y-102160527D01*
X109951891Y-102198900D01*
X109929627Y-102203506D01*
X109697280Y-102229686D01*
X109697268Y-102229688D01*
X109434405Y-102289684D01*
X109434397Y-102289687D01*
X109179917Y-102378734D01*
X108937005Y-102495714D01*
X108708712Y-102639161D01*
X108497915Y-102807265D01*
X108307265Y-102997915D01*
X108139161Y-103208712D01*
X107995714Y-103437005D01*
X107878734Y-103679917D01*
X107789687Y-103934397D01*
X107789684Y-103934405D01*
X107729688Y-104197268D01*
X107729686Y-104197280D01*
X107699500Y-104465186D01*
X106600014Y-104465186D01*
X106566270Y-104208884D01*
X106498398Y-103955581D01*
X106489623Y-103934397D01*
X106398046Y-103713309D01*
X106398041Y-103713299D01*
X106266924Y-103486196D01*
X106107281Y-103278148D01*
X106107274Y-103278140D01*
X105921860Y-103092726D01*
X105921851Y-103092718D01*
X105713803Y-102933075D01*
X105486700Y-102801958D01*
X105486690Y-102801953D01*
X105244428Y-102701605D01*
X105244421Y-102701603D01*
X105244419Y-102701602D01*
X104991116Y-102633730D01*
X104933339Y-102626123D01*
X104731127Y-102599500D01*
X104731120Y-102599500D01*
X104468880Y-102599500D01*
X104468872Y-102599500D01*
X104237772Y-102629926D01*
X104208884Y-102633730D01*
X103979145Y-102695288D01*
X103955581Y-102701602D01*
X103955571Y-102701605D01*
X103713309Y-102801953D01*
X103713299Y-102801958D01*
X103486196Y-102933075D01*
X103278148Y-103092718D01*
X103092718Y-103278148D01*
X102933075Y-103486196D01*
X102801958Y-103713299D01*
X102801953Y-103713309D01*
X102701605Y-103955571D01*
X102701602Y-103955581D01*
X102636840Y-104197280D01*
X102633730Y-104208885D01*
X102599500Y-104468872D01*
X97400499Y-104468872D01*
X97366270Y-104208884D01*
X97298398Y-103955581D01*
X97289623Y-103934397D01*
X97198046Y-103713309D01*
X97198041Y-103713299D01*
X97066924Y-103486196D01*
X96907281Y-103278148D01*
X96907274Y-103278140D01*
X96721860Y-103092726D01*
X96721851Y-103092718D01*
X96513803Y-102933075D01*
X96286700Y-102801958D01*
X96286690Y-102801953D01*
X96044428Y-102701605D01*
X96044421Y-102701603D01*
X96044419Y-102701602D01*
X95791116Y-102633730D01*
X95733339Y-102626123D01*
X95531127Y-102599500D01*
X95531120Y-102599500D01*
X95268880Y-102599500D01*
X95268872Y-102599500D01*
X95037772Y-102629926D01*
X95008884Y-102633730D01*
X94779145Y-102695288D01*
X94755581Y-102701602D01*
X94755571Y-102701605D01*
X94513309Y-102801953D01*
X94513299Y-102801958D01*
X94286196Y-102933075D01*
X94078148Y-103092718D01*
X93892718Y-103278148D01*
X93733075Y-103486196D01*
X93601958Y-103713299D01*
X93601953Y-103713309D01*
X93501605Y-103955571D01*
X93501602Y-103955581D01*
X93436840Y-104197280D01*
X93433730Y-104208885D01*
X93399500Y-104468872D01*
X58027953Y-104468872D01*
X58026414Y-104456197D01*
X58026024Y-104452519D01*
X57910972Y-103186426D01*
X57910696Y-103182778D01*
X57833931Y-101913718D01*
X57833767Y-101910073D01*
X57820629Y-101475300D01*
X57838279Y-101407700D01*
X57889677Y-101360371D01*
X57958504Y-101348343D01*
X58022907Y-101375435D01*
X58041519Y-101394245D01*
X58207266Y-101602085D01*
X58397915Y-101792734D01*
X58608711Y-101960838D01*
X58837003Y-102104284D01*
X59079921Y-102221267D01*
X59232947Y-102274813D01*
X59334397Y-102310312D01*
X59334405Y-102310315D01*
X59334408Y-102310315D01*
X59334409Y-102310316D01*
X59597268Y-102370312D01*
X59865187Y-102400499D01*
X59865188Y-102400500D01*
X59865191Y-102400500D01*
X88184812Y-102400500D01*
X88184812Y-102400499D01*
X88452732Y-102370312D01*
X88715591Y-102310316D01*
X88970079Y-102221267D01*
X89212997Y-102104284D01*
X89441289Y-101960838D01*
X89652085Y-101792734D01*
X89842734Y-101602085D01*
X90010838Y-101391289D01*
X90154284Y-101162997D01*
X90271267Y-100920079D01*
X90360316Y-100665591D01*
X90420312Y-100402732D01*
X90450500Y-100134809D01*
X90450500Y-99868872D01*
X91499500Y-99868872D01*
X91499500Y-100131127D01*
X91526123Y-100333339D01*
X91533730Y-100391116D01*
X91601602Y-100644418D01*
X91601605Y-100644428D01*
X91701953Y-100886690D01*
X91701958Y-100886700D01*
X91833075Y-101113803D01*
X91992718Y-101321851D01*
X91992726Y-101321860D01*
X92178140Y-101507274D01*
X92178148Y-101507281D01*
X92386196Y-101666924D01*
X92613299Y-101798041D01*
X92613309Y-101798046D01*
X92784714Y-101869044D01*
X92855581Y-101898398D01*
X93108884Y-101966270D01*
X93368880Y-102000500D01*
X93368887Y-102000500D01*
X93631113Y-102000500D01*
X93631120Y-102000500D01*
X93891116Y-101966270D01*
X94144419Y-101898398D01*
X94386697Y-101798043D01*
X94613803Y-101666924D01*
X94821851Y-101507282D01*
X94821855Y-101507277D01*
X94821860Y-101507274D01*
X95007274Y-101321860D01*
X95007277Y-101321855D01*
X95007282Y-101321851D01*
X95166924Y-101113803D01*
X95298043Y-100886697D01*
X95398398Y-100644419D01*
X95466270Y-100391116D01*
X95500500Y-100131120D01*
X95500500Y-99868880D01*
X95497056Y-99842724D01*
X95497056Y-99842722D01*
X97199500Y-99842722D01*
X97199500Y-100157277D01*
X97234716Y-100469827D01*
X97234718Y-100469843D01*
X97304710Y-100776499D01*
X97304711Y-100776501D01*
X97408598Y-101073395D01*
X97545072Y-101356786D01*
X97566752Y-101391289D01*
X97712423Y-101623123D01*
X97908539Y-101869044D01*
X98130956Y-102091461D01*
X98376877Y-102287577D01*
X98643211Y-102454926D01*
X98926606Y-102591402D01*
X99223500Y-102695289D01*
X99530160Y-102765282D01*
X99842723Y-102800499D01*
X99842724Y-102800500D01*
X99842727Y-102800500D01*
X100157276Y-102800500D01*
X100157276Y-102800499D01*
X100469840Y-102765282D01*
X100776500Y-102695289D01*
X101073394Y-102591402D01*
X101356789Y-102454926D01*
X101623123Y-102287577D01*
X101869044Y-102091461D01*
X102091461Y-101869044D01*
X102287577Y-101623123D01*
X102454926Y-101356789D01*
X102591402Y-101073394D01*
X102695289Y-100776500D01*
X102765282Y-100469840D01*
X102800500Y-100157273D01*
X102800500Y-99868872D01*
X104499500Y-99868872D01*
X104499500Y-100131127D01*
X104526123Y-100333339D01*
X104533730Y-100391116D01*
X104601602Y-100644418D01*
X104601605Y-100644428D01*
X104701953Y-100886690D01*
X104701958Y-100886700D01*
X104833075Y-101113803D01*
X104992718Y-101321851D01*
X104992726Y-101321860D01*
X105178140Y-101507274D01*
X105178148Y-101507281D01*
X105386196Y-101666924D01*
X105613299Y-101798041D01*
X105613309Y-101798046D01*
X105784714Y-101869044D01*
X105855581Y-101898398D01*
X106108884Y-101966270D01*
X106368880Y-102000500D01*
X106368887Y-102000500D01*
X106631113Y-102000500D01*
X106631120Y-102000500D01*
X106891116Y-101966270D01*
X107144419Y-101898398D01*
X107386697Y-101798043D01*
X107613803Y-101666924D01*
X107821851Y-101507282D01*
X107821855Y-101507277D01*
X107821860Y-101507274D01*
X108007274Y-101321860D01*
X108007277Y-101321855D01*
X108007282Y-101321851D01*
X108166924Y-101113803D01*
X108298043Y-100886697D01*
X108398398Y-100644419D01*
X108466270Y-100391116D01*
X108500500Y-100131120D01*
X108500500Y-99868880D01*
X108466270Y-99608884D01*
X108398398Y-99355581D01*
X108380404Y-99312139D01*
X108298046Y-99113309D01*
X108298041Y-99113299D01*
X108166924Y-98886196D01*
X108007281Y-98678148D01*
X108007274Y-98678140D01*
X107821860Y-98492726D01*
X107821851Y-98492718D01*
X107613803Y-98333075D01*
X107386700Y-98201958D01*
X107386690Y-98201953D01*
X107144428Y-98101605D01*
X107144421Y-98101603D01*
X107144419Y-98101602D01*
X106891116Y-98033730D01*
X106833339Y-98026123D01*
X106631127Y-97999500D01*
X106631120Y-97999500D01*
X106368880Y-97999500D01*
X106368872Y-97999500D01*
X106137772Y-98029926D01*
X106108884Y-98033730D01*
X105898974Y-98089975D01*
X105855581Y-98101602D01*
X105855571Y-98101605D01*
X105613309Y-98201953D01*
X105613299Y-98201958D01*
X105386196Y-98333075D01*
X105178148Y-98492718D01*
X104992718Y-98678148D01*
X104833075Y-98886196D01*
X104701958Y-99113299D01*
X104701953Y-99113309D01*
X104601605Y-99355571D01*
X104601602Y-99355581D01*
X104536840Y-99597280D01*
X104533730Y-99608885D01*
X104499500Y-99868872D01*
X102800500Y-99868872D01*
X102800500Y-99842727D01*
X102765282Y-99530160D01*
X102695289Y-99223500D01*
X102591402Y-98926606D01*
X102454926Y-98643211D01*
X102287577Y-98376877D01*
X102091461Y-98130956D01*
X101869044Y-97908539D01*
X101623123Y-97712423D01*
X101356789Y-97545074D01*
X101356786Y-97545072D01*
X101073395Y-97408598D01*
X100776501Y-97304711D01*
X100776499Y-97304710D01*
X100469843Y-97234718D01*
X100469827Y-97234716D01*
X100157277Y-97199500D01*
X100157273Y-97199500D01*
X99842727Y-97199500D01*
X99842722Y-97199500D01*
X99530172Y-97234716D01*
X99530156Y-97234718D01*
X99223500Y-97304710D01*
X99223498Y-97304711D01*
X98926604Y-97408598D01*
X98643213Y-97545072D01*
X98376878Y-97712422D01*
X98130956Y-97908538D01*
X97908538Y-98130956D01*
X97712422Y-98376878D01*
X97545072Y-98643213D01*
X97408598Y-98926604D01*
X97304711Y-99223498D01*
X97304710Y-99223500D01*
X97234718Y-99530156D01*
X97234716Y-99530172D01*
X97199500Y-99842722D01*
X95497056Y-99842722D01*
X95490626Y-99793883D01*
X95466270Y-99608884D01*
X95398398Y-99355581D01*
X95380404Y-99312139D01*
X95298046Y-99113309D01*
X95298041Y-99113299D01*
X95166924Y-98886196D01*
X95007281Y-98678148D01*
X95007274Y-98678140D01*
X94821860Y-98492726D01*
X94821851Y-98492718D01*
X94613803Y-98333075D01*
X94386700Y-98201958D01*
X94386690Y-98201953D01*
X94144428Y-98101605D01*
X94144421Y-98101603D01*
X94144419Y-98101602D01*
X93891116Y-98033730D01*
X93833339Y-98026123D01*
X93631127Y-97999500D01*
X93631120Y-97999500D01*
X93368880Y-97999500D01*
X93368872Y-97999500D01*
X93137772Y-98029926D01*
X93108884Y-98033730D01*
X92898974Y-98089975D01*
X92855581Y-98101602D01*
X92855571Y-98101605D01*
X92613309Y-98201953D01*
X92613299Y-98201958D01*
X92386196Y-98333075D01*
X92178148Y-98492718D01*
X91992718Y-98678148D01*
X91833075Y-98886196D01*
X91701958Y-99113299D01*
X91701953Y-99113309D01*
X91601605Y-99355571D01*
X91601602Y-99355581D01*
X91536840Y-99597280D01*
X91533730Y-99608885D01*
X91499500Y-99868872D01*
X90450500Y-99868872D01*
X90450500Y-99865191D01*
X90420312Y-99597268D01*
X90360316Y-99334409D01*
X90352523Y-99312139D01*
X90321507Y-99223498D01*
X90271267Y-99079921D01*
X90154284Y-98837003D01*
X90010838Y-98608711D01*
X89842734Y-98397915D01*
X89652085Y-98207266D01*
X89441289Y-98039162D01*
X89212997Y-97895716D01*
X89212994Y-97895714D01*
X88970082Y-97778734D01*
X88715602Y-97689687D01*
X88715594Y-97689684D01*
X88518446Y-97644687D01*
X88452732Y-97629688D01*
X88452728Y-97629687D01*
X88452719Y-97629686D01*
X88184813Y-97599500D01*
X88184809Y-97599500D01*
X59865191Y-97599500D01*
X59865186Y-97599500D01*
X59597280Y-97629686D01*
X59597268Y-97629688D01*
X59334405Y-97689684D01*
X59334397Y-97689687D01*
X59079917Y-97778734D01*
X58837005Y-97895714D01*
X58608712Y-98039161D01*
X58397915Y-98207265D01*
X58207265Y-98397915D01*
X58041519Y-98605754D01*
X57984330Y-98645894D01*
X57914519Y-98648744D01*
X57854249Y-98613398D01*
X57822656Y-98551079D01*
X57820629Y-98524702D01*
X57833767Y-98089923D01*
X57833931Y-98086284D01*
X57910696Y-96817216D01*
X57910972Y-96813578D01*
X58026025Y-95547473D01*
X58026411Y-95543829D01*
X58059797Y-95268872D01*
X93399500Y-95268872D01*
X93399500Y-95531127D01*
X93401658Y-95547514D01*
X93433730Y-95791116D01*
X93501602Y-96044418D01*
X93501605Y-96044428D01*
X93601953Y-96286690D01*
X93601958Y-96286700D01*
X93733075Y-96513803D01*
X93892718Y-96721851D01*
X93892726Y-96721860D01*
X94078140Y-96907274D01*
X94078148Y-96907281D01*
X94286196Y-97066924D01*
X94513299Y-97198041D01*
X94513309Y-97198046D01*
X94755571Y-97298394D01*
X94755581Y-97298398D01*
X95008884Y-97366270D01*
X95268880Y-97400500D01*
X95268887Y-97400500D01*
X95531113Y-97400500D01*
X95531120Y-97400500D01*
X95791116Y-97366270D01*
X96044419Y-97298398D01*
X96221340Y-97225114D01*
X96286690Y-97198046D01*
X96286691Y-97198045D01*
X96286697Y-97198043D01*
X96513803Y-97066924D01*
X96721851Y-96907282D01*
X96721855Y-96907277D01*
X96721860Y-96907274D01*
X96907274Y-96721860D01*
X96907277Y-96721855D01*
X96907282Y-96721851D01*
X97066924Y-96513803D01*
X97198043Y-96286697D01*
X97298398Y-96044419D01*
X97366270Y-95791116D01*
X97400500Y-95531120D01*
X97400500Y-95268880D01*
X97366270Y-95008884D01*
X97298398Y-94755581D01*
X97239672Y-94613803D01*
X97198046Y-94513309D01*
X97198041Y-94513299D01*
X97066924Y-94286196D01*
X96907281Y-94078148D01*
X96907274Y-94078140D01*
X96721860Y-93892726D01*
X96721851Y-93892718D01*
X96513803Y-93733075D01*
X96286700Y-93601958D01*
X96286690Y-93601953D01*
X96044428Y-93501605D01*
X96044421Y-93501603D01*
X96044419Y-93501602D01*
X95791116Y-93433730D01*
X95733339Y-93426123D01*
X95531127Y-93399500D01*
X95531120Y-93399500D01*
X95268880Y-93399500D01*
X95268872Y-93399500D01*
X95037772Y-93429926D01*
X95008884Y-93433730D01*
X94819049Y-93484596D01*
X94755581Y-93501602D01*
X94755571Y-93501605D01*
X94513309Y-93601953D01*
X94513299Y-93601958D01*
X94286196Y-93733075D01*
X94078148Y-93892718D01*
X93892718Y-94078148D01*
X93733075Y-94286196D01*
X93601958Y-94513299D01*
X93601953Y-94513309D01*
X93501605Y-94755571D01*
X93501602Y-94755581D01*
X93434160Y-95007282D01*
X93433730Y-95008885D01*
X93399500Y-95268872D01*
X58059797Y-95268872D01*
X58179658Y-94281725D01*
X58180150Y-94278134D01*
X58318537Y-93368872D01*
X97999500Y-93368872D01*
X97999500Y-93631127D01*
X98012923Y-93733075D01*
X98033730Y-93891116D01*
X98083843Y-94078140D01*
X98101602Y-94144418D01*
X98101605Y-94144428D01*
X98201953Y-94386690D01*
X98201958Y-94386700D01*
X98333075Y-94613803D01*
X98492718Y-94821851D01*
X98492726Y-94821860D01*
X98678140Y-95007274D01*
X98678148Y-95007281D01*
X98886196Y-95166924D01*
X99113299Y-95298041D01*
X99113309Y-95298046D01*
X99355571Y-95398394D01*
X99355581Y-95398398D01*
X99608884Y-95466270D01*
X99868880Y-95500500D01*
X99868887Y-95500500D01*
X100131113Y-95500500D01*
X100131120Y-95500500D01*
X100391116Y-95466270D01*
X100644419Y-95398398D01*
X100886697Y-95298043D01*
X100937223Y-95268872D01*
X102599500Y-95268872D01*
X102599500Y-95531127D01*
X102601658Y-95547514D01*
X102633730Y-95791116D01*
X102701602Y-96044418D01*
X102701605Y-96044428D01*
X102801953Y-96286690D01*
X102801958Y-96286700D01*
X102933075Y-96513803D01*
X103092718Y-96721851D01*
X103092726Y-96721860D01*
X103278140Y-96907274D01*
X103278148Y-96907281D01*
X103486196Y-97066924D01*
X103713299Y-97198041D01*
X103713309Y-97198046D01*
X103955571Y-97298394D01*
X103955581Y-97298398D01*
X104208884Y-97366270D01*
X104468880Y-97400500D01*
X104468887Y-97400500D01*
X104731113Y-97400500D01*
X104731120Y-97400500D01*
X104991116Y-97366270D01*
X105244419Y-97298398D01*
X105421340Y-97225114D01*
X105486690Y-97198046D01*
X105486691Y-97198045D01*
X105486697Y-97198043D01*
X105713803Y-97066924D01*
X105921851Y-96907282D01*
X105921855Y-96907277D01*
X105921860Y-96907274D01*
X106107274Y-96721860D01*
X106107277Y-96721855D01*
X106107282Y-96721851D01*
X106266924Y-96513803D01*
X106398043Y-96286697D01*
X106498398Y-96044419D01*
X106566270Y-95791116D01*
X106600500Y-95531120D01*
X106600500Y-95268880D01*
X106566270Y-95008884D01*
X106498398Y-94755581D01*
X106439672Y-94613803D01*
X106398046Y-94513309D01*
X106398041Y-94513299D01*
X106266924Y-94286196D01*
X106107281Y-94078148D01*
X106107274Y-94078140D01*
X105921860Y-93892726D01*
X105921851Y-93892718D01*
X105713803Y-93733075D01*
X105486700Y-93601958D01*
X105486690Y-93601953D01*
X105244428Y-93501605D01*
X105244421Y-93501603D01*
X105244419Y-93501602D01*
X104991116Y-93433730D01*
X104933339Y-93426123D01*
X104731127Y-93399500D01*
X104731120Y-93399500D01*
X104468880Y-93399500D01*
X104468872Y-93399500D01*
X104237772Y-93429926D01*
X104208884Y-93433730D01*
X104019049Y-93484596D01*
X103955581Y-93501602D01*
X103955571Y-93501605D01*
X103713309Y-93601953D01*
X103713299Y-93601958D01*
X103486196Y-93733075D01*
X103278148Y-93892718D01*
X103092718Y-94078148D01*
X102933075Y-94286196D01*
X102801958Y-94513299D01*
X102801953Y-94513309D01*
X102701605Y-94755571D01*
X102701602Y-94755581D01*
X102634160Y-95007282D01*
X102633730Y-95008885D01*
X102599500Y-95268872D01*
X100937223Y-95268872D01*
X101113803Y-95166924D01*
X101321851Y-95007282D01*
X101321855Y-95007277D01*
X101321860Y-95007274D01*
X101507274Y-94821860D01*
X101507277Y-94821855D01*
X101507282Y-94821851D01*
X101666924Y-94613803D01*
X101798043Y-94386697D01*
X101898398Y-94144419D01*
X101966270Y-93891116D01*
X102000500Y-93631120D01*
X102000500Y-93368880D01*
X101966270Y-93108884D01*
X101898398Y-92855581D01*
X101898394Y-92855571D01*
X101798046Y-92613309D01*
X101798041Y-92613299D01*
X101666924Y-92386196D01*
X101507281Y-92178148D01*
X101507274Y-92178140D01*
X101321860Y-91992726D01*
X101321851Y-91992718D01*
X101113803Y-91833075D01*
X100886700Y-91701958D01*
X100886690Y-91701953D01*
X100644428Y-91601605D01*
X100644421Y-91601603D01*
X100644419Y-91601602D01*
X100391116Y-91533730D01*
X100333339Y-91526123D01*
X100131127Y-91499500D01*
X100131120Y-91499500D01*
X99868880Y-91499500D01*
X99868872Y-91499500D01*
X99637772Y-91529926D01*
X99608884Y-91533730D01*
X99355581Y-91601602D01*
X99355571Y-91601605D01*
X99113309Y-91701953D01*
X99113299Y-91701958D01*
X98886196Y-91833075D01*
X98678148Y-91992718D01*
X98492718Y-92178148D01*
X98333075Y-92386196D01*
X98201958Y-92613299D01*
X98201953Y-92613309D01*
X98101605Y-92855571D01*
X98101602Y-92855581D01*
X98057694Y-93019451D01*
X98033730Y-93108885D01*
X97999500Y-93368872D01*
X58318537Y-93368872D01*
X58371436Y-93021306D01*
X58372054Y-93017622D01*
X58446149Y-92613299D01*
X58601218Y-91767111D01*
X58601928Y-91763544D01*
X58868751Y-90520551D01*
X58869587Y-90516926D01*
X58871088Y-90510838D01*
X59018200Y-89913982D01*
X66053571Y-89913982D01*
X82363924Y-89913982D01*
X82363924Y-81770700D01*
X66053571Y-81770700D01*
X66053571Y-89913982D01*
X59018200Y-89913982D01*
X59173834Y-89282549D01*
X59174754Y-89279043D01*
X59516156Y-88054376D01*
X59517214Y-88050795D01*
X59895410Y-86837118D01*
X59896572Y-86833580D01*
X60311283Y-85631793D01*
X60312509Y-85628406D01*
X60763333Y-84439681D01*
X60764710Y-84436210D01*
X61251221Y-83261669D01*
X61252653Y-83258354D01*
X61774447Y-82098974D01*
X61775995Y-82095670D01*
X62332538Y-80952642D01*
X62334186Y-80949381D01*
X62925031Y-79823619D01*
X62926762Y-79820439D01*
X63465527Y-78865186D01*
X97599500Y-78865186D01*
X97599500Y-79134813D01*
X97629686Y-79402719D01*
X97629688Y-79402731D01*
X97689684Y-79665594D01*
X97689687Y-79665602D01*
X97778734Y-79920082D01*
X97895714Y-80162994D01*
X97895716Y-80162997D01*
X98039162Y-80391289D01*
X98164573Y-80548549D01*
X98207265Y-80602084D01*
X98397916Y-80792735D01*
X98410855Y-80803054D01*
X98450995Y-80860243D01*
X98453844Y-80930055D01*
X98418497Y-80990324D01*
X98410855Y-80996946D01*
X98397916Y-81007264D01*
X98207265Y-81197915D01*
X98039161Y-81408712D01*
X97895714Y-81637005D01*
X97778734Y-81879917D01*
X97689687Y-82134397D01*
X97689684Y-82134405D01*
X97629688Y-82397268D01*
X97629686Y-82397280D01*
X97599500Y-82665186D01*
X97599500Y-88684813D01*
X97629686Y-88952719D01*
X97629688Y-88952731D01*
X97689684Y-89215594D01*
X97689687Y-89215602D01*
X97778734Y-89470082D01*
X97895714Y-89712994D01*
X97895716Y-89712997D01*
X98039162Y-89941289D01*
X98207266Y-90152085D01*
X98397915Y-90342734D01*
X98608711Y-90510838D01*
X98837003Y-90654284D01*
X99079921Y-90771267D01*
X99199179Y-90812997D01*
X99334397Y-90860312D01*
X99334405Y-90860315D01*
X99334408Y-90860315D01*
X99334409Y-90860316D01*
X99597268Y-90920312D01*
X99865187Y-90950499D01*
X99865188Y-90950500D01*
X99865191Y-90950500D01*
X100134812Y-90950500D01*
X100134812Y-90950499D01*
X100402732Y-90920312D01*
X100665591Y-90860316D01*
X100920079Y-90771267D01*
X101162997Y-90654284D01*
X101391289Y-90510838D01*
X101602085Y-90342734D01*
X101792734Y-90152085D01*
X101960838Y-89941289D01*
X101989624Y-89895475D01*
X102041956Y-89849186D01*
X102111009Y-89838536D01*
X102174858Y-89866910D01*
X102213231Y-89925299D01*
X102217837Y-89947563D01*
X102229686Y-90052721D01*
X102229688Y-90052731D01*
X102289684Y-90315594D01*
X102289687Y-90315602D01*
X102378734Y-90570082D01*
X102495714Y-90812994D01*
X102495716Y-90812997D01*
X102639162Y-91041289D01*
X102807266Y-91252085D01*
X102997915Y-91442734D01*
X103208711Y-91610838D01*
X103437003Y-91754284D01*
X103437005Y-91754285D01*
X103459951Y-91765335D01*
X103679921Y-91871267D01*
X103871049Y-91938145D01*
X103934397Y-91960312D01*
X103934405Y-91960315D01*
X103934408Y-91960315D01*
X103934409Y-91960316D01*
X104197268Y-92020312D01*
X104465187Y-92050499D01*
X104465188Y-92050500D01*
X104465191Y-92050500D01*
X104734812Y-92050500D01*
X104734812Y-92050499D01*
X105002732Y-92020312D01*
X105265591Y-91960316D01*
X105520079Y-91871267D01*
X105762997Y-91754284D01*
X105991289Y-91610838D01*
X106202085Y-91442734D01*
X106392734Y-91252085D01*
X106560838Y-91041289D01*
X106704284Y-90812997D01*
X106821267Y-90570079D01*
X106910316Y-90315591D01*
X106970312Y-90052732D01*
X107000500Y-89784809D01*
X107000500Y-89754707D01*
X115404703Y-89754707D01*
X125432440Y-89754707D01*
X125432440Y-81610700D01*
X115404703Y-81610700D01*
X115404703Y-89754707D01*
X107000500Y-89754707D01*
X107000500Y-80955191D01*
X106970312Y-80687268D01*
X106910316Y-80424409D01*
X106821267Y-80169921D01*
X106704284Y-79927003D01*
X106560838Y-79698711D01*
X106462973Y-79575992D01*
X106392734Y-79487914D01*
X104112085Y-77207266D01*
X103901289Y-77039162D01*
X103901284Y-77039158D01*
X103892645Y-77033730D01*
X103892644Y-77033730D01*
X103672994Y-76895714D01*
X103430086Y-76778736D01*
X103430072Y-76778730D01*
X103175601Y-76689686D01*
X103175589Y-76689682D01*
X102912735Y-76629688D01*
X102912719Y-76629686D01*
X102644813Y-76599500D01*
X102644809Y-76599500D01*
X99865191Y-76599500D01*
X99865186Y-76599500D01*
X99597280Y-76629686D01*
X99597268Y-76629688D01*
X99334405Y-76689684D01*
X99334397Y-76689687D01*
X99079917Y-76778734D01*
X98837005Y-76895714D01*
X98608712Y-77039161D01*
X98397915Y-77207265D01*
X98207265Y-77397915D01*
X98039161Y-77608712D01*
X97895714Y-77837005D01*
X97778734Y-78079917D01*
X97689687Y-78334397D01*
X97689684Y-78334405D01*
X97629688Y-78597268D01*
X97629686Y-78597280D01*
X97599500Y-78865186D01*
X63465527Y-78865186D01*
X63551305Y-78713098D01*
X63553188Y-78709876D01*
X63621262Y-78597268D01*
X64210863Y-77621947D01*
X64212839Y-77618788D01*
X64219354Y-77608712D01*
X64903085Y-76551200D01*
X64905135Y-76548133D01*
X65627312Y-75501880D01*
X65629476Y-75498845D01*
X65890589Y-75143982D01*
X80093570Y-75143982D01*
X119691012Y-75143982D01*
X119691012Y-66000700D01*
X80093570Y-66000700D01*
X80093570Y-75143982D01*
X65890589Y-75143982D01*
X66382897Y-74474915D01*
X66385162Y-74471932D01*
X67169171Y-73471219D01*
X67171525Y-73468306D01*
X67985427Y-72491695D01*
X67987832Y-72488899D01*
X68830868Y-71537308D01*
X68833330Y-71534612D01*
X69704748Y-70608890D01*
X69707291Y-70606269D01*
X70606269Y-69707291D01*
X70608890Y-69704748D01*
X71534612Y-68833330D01*
X71537308Y-68830868D01*
X72488899Y-67987832D01*
X72491695Y-67985427D01*
X73468322Y-67171511D01*
X73471202Y-67169184D01*
X74471950Y-66385147D01*
X74474895Y-66382911D01*
X75498859Y-65629465D01*
X75501895Y-65627302D01*
X76548133Y-64905135D01*
X76551200Y-64903085D01*
X77618805Y-64212828D01*
X77621947Y-64210863D01*
X78709888Y-63553180D01*
X78713110Y-63551299D01*
X79820439Y-62926762D01*
X79823619Y-62925031D01*
X80949381Y-62334186D01*
X80952642Y-62332538D01*
X82095670Y-61775995D01*
X82098974Y-61774447D01*
X83258354Y-61252653D01*
X83261669Y-61251221D01*
X84436220Y-60764706D01*
X84439692Y-60763329D01*
X85628406Y-60312509D01*
X85631793Y-60311283D01*
X86833602Y-59896564D01*
X86837118Y-59895410D01*
X88050807Y-59517210D01*
X88054376Y-59516156D01*
X89279043Y-59174754D01*
X89282549Y-59173834D01*
X90516950Y-58869581D01*
X90520551Y-58868751D01*
X91763544Y-58601928D01*
X91767111Y-58601218D01*
X93017633Y-58372052D01*
X93021306Y-58371436D01*
X94278134Y-58180150D01*
X94281725Y-58179658D01*
X95543823Y-58026412D01*
X95547473Y-58026025D01*
X96813578Y-57910972D01*
X96817216Y-57910696D01*
X98086284Y-57833931D01*
X98089923Y-57833767D01*
X99360614Y-57795371D01*
X99364359Y-57795314D01*
X100635641Y-57795314D01*
X100639386Y-57795371D01*
G37*
%TD.AperFunction*%
%TD*%
M02*
