%TF.GenerationSoftware,KiCad,Pcbnew,9.0.4*%
%TF.CreationDate,2026-03-23T09:51:16+00:00*%
%TF.ProjectId,Light Sensor,4c696768-7420-4536-956e-736f722e6b69,rev?*%
%TF.SameCoordinates,Original*%
%TF.FileFunction,Copper,L1,Top*%
%TF.FilePolarity,Positive*%
%FSLAX46Y46*%
G04 Gerber Fmt 4.6, Leading zero omitted, Abs format (unit mm)*
G04 Created by KiCad (PCBNEW 9.0.4) date 2026-03-23 09:51:16*
%MOMM*%
%LPD*%
G01*
G04 APERTURE LIST*
G04 Aperture macros list*
%AMRoundRect*
0 Rectangle with rounded corners*
0 $1 Rounding radius*
0 $2 $3 $4 $5 $6 $7 $8 $9 X,Y pos of 4 corners*
0 Add a 4 corners polygon primitive as box body*
4,1,4,$2,$3,$4,$5,$6,$7,$8,$9,$2,$3,0*
0 Add four circle primitives for the rounded corners*
1,1,$1+$1,$2,$3*
1,1,$1+$1,$4,$5*
1,1,$1+$1,$6,$7*
1,1,$1+$1,$8,$9*
0 Add four rect primitives between the rounded corners*
20,1,$1+$1,$2,$3,$4,$5,0*
20,1,$1+$1,$4,$5,$6,$7,0*
20,1,$1+$1,$6,$7,$8,$9,0*
20,1,$1+$1,$8,$9,$2,$3,0*%
G04 Aperture macros list end*
%TA.AperFunction,ComponentPad*%
%ADD10RoundRect,0.250000X-0.620000X-0.845000X0.620000X-0.845000X0.620000X0.845000X-0.620000X0.845000X0*%
%TD*%
%TA.AperFunction,ComponentPad*%
%ADD11O,1.740000X2.190000*%
%TD*%
%TA.AperFunction,SMDPad,CuDef*%
%ADD12RoundRect,0.250000X0.337500X0.475000X-0.337500X0.475000X-0.337500X-0.475000X0.337500X-0.475000X0*%
%TD*%
%TA.AperFunction,SMDPad,CuDef*%
%ADD13R,0.500000X1.500000*%
%TD*%
%TA.AperFunction,SMDPad,CuDef*%
%ADD14R,0.600000X1.500000*%
%TD*%
%TA.AperFunction,ViaPad*%
%ADD15C,2.000000*%
%TD*%
%TA.AperFunction,Conductor*%
%ADD16C,0.400000*%
%TD*%
G04 APERTURE END LIST*
D10*
%TO.P,J1,1,Pin_1*%
%TO.N,/+3V3*%
X76190000Y-31750000D03*
D11*
%TO.P,J1,2,Pin_2*%
%TO.N,/GND*%
X78730000Y-31750000D03*
%TO.P,J1,3,Pin_3*%
%TO.N,/SDA*%
X81270000Y-31750000D03*
%TO.P,J1,4,Pin_4*%
%TO.N,/SCL*%
X83810000Y-31750000D03*
%TD*%
D12*
%TO.P,C1,1*%
%TO.N,/+3V3*%
X74500000Y-37877500D03*
%TO.P,C1,2*%
%TO.N,/GND*%
X72425000Y-37877500D03*
%TD*%
D13*
%TO.P,U1,1,Pin_1*%
%TO.N,/+3V3*%
X79000000Y-37750000D03*
D14*
%TO.P,U1,2,Pin_2*%
%TO.N,/GND*%
X79860000Y-37750000D03*
%TO.P,U1,3,Pin_3*%
%TO.N,/SDA*%
X80880000Y-37750000D03*
D13*
%TO.P,U1,4,Pin_4*%
%TO.N,/SCL*%
X81740000Y-37750000D03*
%TD*%
D15*
%TO.N,/+3V3*%
X73000000Y-32250000D03*
%TO.N,/GND*%
X76250000Y-36377500D03*
%TO.N,/SCL*%
X86000000Y-38250000D03*
%TO.N,/SDA*%
X84500000Y-36250000D03*
%TD*%
D16*
%TO.N,/+3V3*%
X73000000Y-32250000D02*
X74500000Y-33750000D01*
X74500000Y-37877500D02*
X78872500Y-37877500D01*
X74500000Y-33750000D02*
X74500000Y-37877500D01*
X78872500Y-37877500D02*
X79000000Y-37750000D01*
%TO.N,/GND*%
X79629500Y-36377500D02*
X76250000Y-36377500D01*
X79860000Y-37750000D02*
X79860000Y-36608000D01*
X79860000Y-36608000D02*
X79629500Y-36377500D01*
%TO.N,/SCL*%
X86000000Y-38250000D02*
X84250000Y-38250000D01*
X83750000Y-37750000D02*
X81740000Y-37750000D01*
X84250000Y-38250000D02*
X83750000Y-37750000D01*
%TO.N,/SDA*%
X84500000Y-36250000D02*
X81230000Y-36250000D01*
X80880000Y-36600000D02*
X80880000Y-37750000D01*
X81230000Y-36250000D02*
X80880000Y-36600000D01*
%TD*%
%TA.AperFunction,Conductor*%
%TO.N,/GND*%
G36*
X95402539Y-29560185D02*
G01*
X95448294Y-29612989D01*
X95459500Y-29664500D01*
X95459500Y-39335500D01*
X95439815Y-39402539D01*
X95387011Y-39448294D01*
X95335500Y-39459500D01*
X87211889Y-39459500D01*
X87144850Y-39439815D01*
X87099095Y-39387011D01*
X87089151Y-39317853D01*
X87118176Y-39254297D01*
X87124208Y-39247819D01*
X87144517Y-39227510D01*
X87283343Y-39036433D01*
X87390568Y-38825992D01*
X87463553Y-38601368D01*
X87481696Y-38486819D01*
X87500500Y-38368097D01*
X87500500Y-38131902D01*
X87463553Y-37898631D01*
X87390566Y-37674003D01*
X87283342Y-37463566D01*
X87144517Y-37272490D01*
X86977510Y-37105483D01*
X86786433Y-36966657D01*
X86757918Y-36952128D01*
X86575996Y-36859433D01*
X86351368Y-36786446D01*
X86118097Y-36749500D01*
X86118092Y-36749500D01*
X86085276Y-36749500D01*
X86018237Y-36729815D01*
X85972482Y-36677011D01*
X85962538Y-36607853D01*
X85962803Y-36606102D01*
X86000500Y-36368097D01*
X86000500Y-36131902D01*
X85963553Y-35898631D01*
X85890566Y-35674003D01*
X85818513Y-35532592D01*
X85783343Y-35463567D01*
X85644517Y-35272490D01*
X85477510Y-35105483D01*
X85286433Y-34966657D01*
X85075996Y-34859433D01*
X84851368Y-34786446D01*
X84618097Y-34749500D01*
X84618092Y-34749500D01*
X84381908Y-34749500D01*
X84381903Y-34749500D01*
X84148631Y-34786446D01*
X83924003Y-34859433D01*
X83713566Y-34966657D01*
X83604550Y-35045862D01*
X83522490Y-35105483D01*
X83522488Y-35105485D01*
X83522487Y-35105485D01*
X83355485Y-35272487D01*
X83355485Y-35272488D01*
X83355483Y-35272490D01*
X83295862Y-35354550D01*
X83216657Y-35463566D01*
X83207368Y-35481797D01*
X83159392Y-35532592D01*
X83096884Y-35549500D01*
X81161004Y-35549500D01*
X81025677Y-35576418D01*
X81025667Y-35576421D01*
X80898192Y-35629222D01*
X80783454Y-35705887D01*
X80335887Y-36153454D01*
X80259223Y-36268192D01*
X80206421Y-36395668D01*
X80206420Y-36395673D01*
X80205522Y-36400189D01*
X80173138Y-36462101D01*
X80114515Y-36495484D01*
X80110000Y-36500000D01*
X80110000Y-36805553D01*
X80102182Y-36848886D01*
X80085908Y-36892517D01*
X80080856Y-36939511D01*
X80079500Y-36952127D01*
X80079500Y-37674008D01*
X80079501Y-37750000D01*
X80079501Y-38547876D01*
X80085908Y-38607481D01*
X80085909Y-38607483D01*
X80101949Y-38650489D01*
X80102182Y-38651112D01*
X80110000Y-38694446D01*
X80110000Y-39000000D01*
X80207828Y-39000000D01*
X80207844Y-38999999D01*
X80267377Y-38993597D01*
X80267379Y-38993597D01*
X80325950Y-38971751D01*
X80395642Y-38966765D01*
X80412612Y-38971748D01*
X80454248Y-38987277D01*
X80472511Y-38994089D01*
X80472517Y-38994091D01*
X80532127Y-39000500D01*
X81227872Y-39000499D01*
X81287483Y-38994091D01*
X81291663Y-38992531D01*
X81361352Y-38987545D01*
X81378323Y-38992526D01*
X81382517Y-38994091D01*
X81442127Y-39000500D01*
X82037872Y-39000499D01*
X82097483Y-38994091D01*
X82232331Y-38943796D01*
X82347546Y-38857546D01*
X82433796Y-38742331D01*
X82484091Y-38607483D01*
X82489062Y-38561242D01*
X82515799Y-38496694D01*
X82573191Y-38456846D01*
X82612351Y-38450500D01*
X83408481Y-38450500D01*
X83475520Y-38470185D01*
X83496162Y-38486819D01*
X83803453Y-38794111D01*
X83803454Y-38794112D01*
X83918192Y-38870777D01*
X84045667Y-38923578D01*
X84045672Y-38923580D01*
X84045676Y-38923580D01*
X84045677Y-38923581D01*
X84181003Y-38950500D01*
X84181006Y-38950500D01*
X84181007Y-38950500D01*
X84596884Y-38950500D01*
X84663923Y-38970185D01*
X84707368Y-39018203D01*
X84716657Y-39036433D01*
X84855483Y-39227510D01*
X84855485Y-39227512D01*
X84875792Y-39247819D01*
X84909277Y-39309142D01*
X84904293Y-39378834D01*
X84862421Y-39434767D01*
X84796957Y-39459184D01*
X84788111Y-39459500D01*
X64664500Y-39459500D01*
X64597461Y-39439815D01*
X64551706Y-39387011D01*
X64540500Y-39335500D01*
X64540500Y-38402486D01*
X71337501Y-38402486D01*
X71347994Y-38505197D01*
X71403141Y-38671619D01*
X71403143Y-38671624D01*
X71495184Y-38820845D01*
X71619154Y-38944815D01*
X71768375Y-39036856D01*
X71768380Y-39036858D01*
X71934802Y-39092005D01*
X71934809Y-39092006D01*
X72037519Y-39102499D01*
X72174999Y-39102499D01*
X72175000Y-39102498D01*
X72175000Y-38127500D01*
X71337501Y-38127500D01*
X71337501Y-38402486D01*
X64540500Y-38402486D01*
X64540500Y-37352513D01*
X71337500Y-37352513D01*
X71337500Y-37627500D01*
X72175000Y-37627500D01*
X72175000Y-36652500D01*
X72037527Y-36652500D01*
X72037512Y-36652501D01*
X71934802Y-36662994D01*
X71768380Y-36718141D01*
X71768375Y-36718143D01*
X71619154Y-36810184D01*
X71495184Y-36934154D01*
X71403143Y-37083375D01*
X71403141Y-37083380D01*
X71347994Y-37249802D01*
X71347993Y-37249809D01*
X71337500Y-37352513D01*
X64540500Y-37352513D01*
X64540500Y-34362332D01*
X66149500Y-34362332D01*
X66149500Y-34637667D01*
X66149501Y-34637684D01*
X66185438Y-34910655D01*
X66185439Y-34910660D01*
X66185440Y-34910666D01*
X66185441Y-34910668D01*
X66256704Y-35176630D01*
X66362075Y-35431017D01*
X66362080Y-35431028D01*
X66420719Y-35532592D01*
X66499751Y-35669479D01*
X66499753Y-35669482D01*
X66499754Y-35669483D01*
X66667370Y-35887926D01*
X66667376Y-35887933D01*
X66862066Y-36082623D01*
X66862072Y-36082628D01*
X67080521Y-36250249D01*
X67233778Y-36338732D01*
X67318971Y-36387919D01*
X67318976Y-36387921D01*
X67318979Y-36387923D01*
X67573368Y-36493295D01*
X67839334Y-36564560D01*
X68112326Y-36600500D01*
X68112333Y-36600500D01*
X68387667Y-36600500D01*
X68387674Y-36600500D01*
X68660666Y-36564560D01*
X68926632Y-36493295D01*
X69181021Y-36387923D01*
X69419479Y-36250249D01*
X69637928Y-36082628D01*
X69832628Y-35887928D01*
X70000249Y-35669479D01*
X70137923Y-35431021D01*
X70243295Y-35176632D01*
X70314560Y-34910666D01*
X70350500Y-34637674D01*
X70350500Y-34362326D01*
X70314560Y-34089334D01*
X70243295Y-33823368D01*
X70137923Y-33568979D01*
X70137921Y-33568976D01*
X70137919Y-33568971D01*
X70037195Y-33394514D01*
X70000249Y-33330521D01*
X69859549Y-33147156D01*
X69832629Y-33112073D01*
X69832623Y-33112066D01*
X69637933Y-32917376D01*
X69637926Y-32917370D01*
X69419483Y-32749754D01*
X69419482Y-32749753D01*
X69419479Y-32749751D01*
X69299822Y-32680667D01*
X69181028Y-32612080D01*
X69181017Y-32612075D01*
X68926630Y-32506704D01*
X68793649Y-32471072D01*
X68660666Y-32435440D01*
X68660660Y-32435439D01*
X68660655Y-32435438D01*
X68387684Y-32399501D01*
X68387679Y-32399500D01*
X68387674Y-32399500D01*
X68112326Y-32399500D01*
X68112320Y-32399500D01*
X68112315Y-32399501D01*
X67839344Y-32435438D01*
X67839337Y-32435439D01*
X67839334Y-32435440D01*
X67783125Y-32450500D01*
X67573369Y-32506704D01*
X67318982Y-32612075D01*
X67318971Y-32612080D01*
X67096106Y-32740752D01*
X67083899Y-32747801D01*
X67080516Y-32749754D01*
X66862073Y-32917370D01*
X66862066Y-32917376D01*
X66667376Y-33112066D01*
X66667370Y-33112073D01*
X66499754Y-33330516D01*
X66362080Y-33568971D01*
X66362075Y-33568982D01*
X66256704Y-33823369D01*
X66185441Y-34089331D01*
X66185438Y-34089344D01*
X66149501Y-34362315D01*
X66149500Y-34362332D01*
X64540500Y-34362332D01*
X64540500Y-32131902D01*
X71499500Y-32131902D01*
X71499500Y-32368097D01*
X71536446Y-32601368D01*
X71609433Y-32825996D01*
X71708271Y-33019974D01*
X71716657Y-33036433D01*
X71855483Y-33227510D01*
X72022490Y-33394517D01*
X72213567Y-33533343D01*
X72283491Y-33568971D01*
X72424003Y-33640566D01*
X72424005Y-33640566D01*
X72424008Y-33640568D01*
X72544412Y-33679689D01*
X72648631Y-33713553D01*
X72881903Y-33750500D01*
X72881908Y-33750500D01*
X73118097Y-33750500D01*
X73247689Y-33729973D01*
X73351368Y-33713553D01*
X73370824Y-33707230D01*
X73440663Y-33705234D01*
X73496824Y-33737480D01*
X73763181Y-34003837D01*
X73796666Y-34065160D01*
X73799500Y-34091518D01*
X73799500Y-36675411D01*
X73779815Y-36742450D01*
X73740598Y-36780949D01*
X73693844Y-36809787D01*
X73569788Y-36933843D01*
X73569783Y-36933849D01*
X73567741Y-36937161D01*
X73565747Y-36938953D01*
X73565307Y-36939511D01*
X73565211Y-36939435D01*
X73515791Y-36983883D01*
X73446828Y-36995102D01*
X73382747Y-36967255D01*
X73356668Y-36937156D01*
X73354819Y-36934159D01*
X73354816Y-36934155D01*
X73230845Y-36810184D01*
X73081624Y-36718143D01*
X73081619Y-36718141D01*
X72915197Y-36662994D01*
X72915190Y-36662993D01*
X72812486Y-36652500D01*
X72675000Y-36652500D01*
X72675000Y-39102499D01*
X72812472Y-39102499D01*
X72812486Y-39102498D01*
X72915197Y-39092005D01*
X73081619Y-39036858D01*
X73081624Y-39036856D01*
X73230845Y-38944815D01*
X73354818Y-38820842D01*
X73356665Y-38817848D01*
X73358469Y-38816224D01*
X73359298Y-38815177D01*
X73359476Y-38815318D01*
X73408610Y-38771121D01*
X73477573Y-38759896D01*
X73541656Y-38787736D01*
X73567743Y-38817841D01*
X73569788Y-38821156D01*
X73693844Y-38945212D01*
X73843166Y-39037314D01*
X74009703Y-39092499D01*
X74112491Y-39103000D01*
X74887508Y-39102999D01*
X74887516Y-39102998D01*
X74887519Y-39102998D01*
X74943802Y-39097248D01*
X74990297Y-39092499D01*
X75156834Y-39037314D01*
X75306156Y-38945212D01*
X75430212Y-38821156D01*
X75522314Y-38671834D01*
X75525244Y-38662993D01*
X75565018Y-38605549D01*
X75629535Y-38578728D01*
X75642949Y-38578000D01*
X78158817Y-38578000D01*
X78225856Y-38597685D01*
X78271611Y-38650489D01*
X78274999Y-38658667D01*
X78306202Y-38742328D01*
X78306206Y-38742335D01*
X78392452Y-38857544D01*
X78392455Y-38857547D01*
X78507664Y-38943793D01*
X78507671Y-38943797D01*
X78511460Y-38945210D01*
X78642517Y-38994091D01*
X78702127Y-39000500D01*
X79297872Y-39000499D01*
X79357483Y-38994091D01*
X79362373Y-38992266D01*
X79432063Y-38987277D01*
X79449051Y-38992265D01*
X79452623Y-38993597D01*
X79452627Y-38993598D01*
X79512155Y-38999999D01*
X79512172Y-39000000D01*
X79610000Y-39000000D01*
X79610000Y-38895537D01*
X79629685Y-38828498D01*
X79634709Y-38821260D01*
X79693796Y-38742331D01*
X79744091Y-38607483D01*
X79750500Y-38547873D01*
X79750499Y-36952128D01*
X79744091Y-36892517D01*
X79731751Y-36859433D01*
X79693797Y-36757671D01*
X79693796Y-36757670D01*
X79693796Y-36757669D01*
X79634733Y-36678771D01*
X79610316Y-36613307D01*
X79610000Y-36604460D01*
X79610000Y-36500000D01*
X79512155Y-36500000D01*
X79452627Y-36506401D01*
X79452612Y-36506404D01*
X79449038Y-36507738D01*
X79446074Y-36507949D01*
X79445070Y-36508187D01*
X79445031Y-36508024D01*
X79379346Y-36512717D01*
X79362386Y-36507737D01*
X79357487Y-36505910D01*
X79357485Y-36505909D01*
X79357483Y-36505909D01*
X79297873Y-36499500D01*
X79297863Y-36499500D01*
X78702129Y-36499500D01*
X78702123Y-36499501D01*
X78642516Y-36505908D01*
X78507671Y-36556202D01*
X78507664Y-36556206D01*
X78392455Y-36642452D01*
X78392452Y-36642455D01*
X78306206Y-36757664D01*
X78306202Y-36757671D01*
X78255908Y-36892517D01*
X78250856Y-36939511D01*
X78249501Y-36952123D01*
X78249500Y-36952135D01*
X78249500Y-37053000D01*
X78229815Y-37120039D01*
X78177011Y-37165794D01*
X78125500Y-37177000D01*
X75642949Y-37177000D01*
X75575910Y-37157315D01*
X75530155Y-37104511D01*
X75525244Y-37092007D01*
X75522314Y-37083167D01*
X75522314Y-37083166D01*
X75430212Y-36933844D01*
X75306156Y-36809788D01*
X75306155Y-36809787D01*
X75259402Y-36780949D01*
X75212678Y-36729000D01*
X75200500Y-36675411D01*
X75200500Y-34362332D01*
X89649500Y-34362332D01*
X89649500Y-34637667D01*
X89649501Y-34637684D01*
X89685438Y-34910655D01*
X89685439Y-34910660D01*
X89685440Y-34910666D01*
X89685441Y-34910668D01*
X89756704Y-35176630D01*
X89862075Y-35431017D01*
X89862080Y-35431028D01*
X89920719Y-35532592D01*
X89999751Y-35669479D01*
X89999753Y-35669482D01*
X89999754Y-35669483D01*
X90167370Y-35887926D01*
X90167376Y-35887933D01*
X90362066Y-36082623D01*
X90362072Y-36082628D01*
X90580521Y-36250249D01*
X90733778Y-36338732D01*
X90818971Y-36387919D01*
X90818976Y-36387921D01*
X90818979Y-36387923D01*
X91073368Y-36493295D01*
X91339334Y-36564560D01*
X91612326Y-36600500D01*
X91612333Y-36600500D01*
X91887667Y-36600500D01*
X91887674Y-36600500D01*
X92160666Y-36564560D01*
X92426632Y-36493295D01*
X92681021Y-36387923D01*
X92919479Y-36250249D01*
X93137928Y-36082628D01*
X93332628Y-35887928D01*
X93500249Y-35669479D01*
X93637923Y-35431021D01*
X93743295Y-35176632D01*
X93814560Y-34910666D01*
X93850500Y-34637674D01*
X93850500Y-34362326D01*
X93814560Y-34089334D01*
X93743295Y-33823368D01*
X93637923Y-33568979D01*
X93637921Y-33568976D01*
X93637919Y-33568971D01*
X93537195Y-33394514D01*
X93500249Y-33330521D01*
X93359549Y-33147156D01*
X93332629Y-33112073D01*
X93332623Y-33112066D01*
X93137933Y-32917376D01*
X93137926Y-32917370D01*
X92919483Y-32749754D01*
X92919482Y-32749753D01*
X92919479Y-32749751D01*
X92799822Y-32680667D01*
X92681028Y-32612080D01*
X92681017Y-32612075D01*
X92426630Y-32506704D01*
X92293649Y-32471072D01*
X92160666Y-32435440D01*
X92160660Y-32435439D01*
X92160655Y-32435438D01*
X91887684Y-32399501D01*
X91887679Y-32399500D01*
X91887674Y-32399500D01*
X91612326Y-32399500D01*
X91612320Y-32399500D01*
X91612315Y-32399501D01*
X91339344Y-32435438D01*
X91339337Y-32435439D01*
X91339334Y-32435440D01*
X91283125Y-32450500D01*
X91073369Y-32506704D01*
X90818982Y-32612075D01*
X90818971Y-32612080D01*
X90596106Y-32740752D01*
X90583899Y-32747801D01*
X90580516Y-32749754D01*
X90362073Y-32917370D01*
X90362066Y-32917376D01*
X90167376Y-33112066D01*
X90167370Y-33112073D01*
X89999754Y-33330516D01*
X89862080Y-33568971D01*
X89862075Y-33568982D01*
X89756704Y-33823369D01*
X89685441Y-34089331D01*
X89685438Y-34089344D01*
X89649501Y-34362315D01*
X89649500Y-34362332D01*
X75200500Y-34362332D01*
X75200500Y-33681004D01*
X75173581Y-33545677D01*
X75173580Y-33545676D01*
X75173580Y-33545672D01*
X75137399Y-33458325D01*
X75129931Y-33388856D01*
X75161206Y-33326377D01*
X75221295Y-33290725D01*
X75290962Y-33293166D01*
X75417203Y-33334999D01*
X75519991Y-33345500D01*
X76860008Y-33345499D01*
X76962797Y-33334999D01*
X77129334Y-33279814D01*
X77278656Y-33187712D01*
X77402712Y-33063656D01*
X77494814Y-32914334D01*
X77494817Y-32914323D01*
X77495353Y-32913177D01*
X77495934Y-32912516D01*
X77498605Y-32908187D01*
X77499344Y-32908643D01*
X77541521Y-32860734D01*
X77608713Y-32841577D01*
X77675596Y-32861788D01*
X77695420Y-32877892D01*
X77837502Y-33019974D01*
X78011963Y-33146728D01*
X78204098Y-33244627D01*
X78409190Y-33311266D01*
X78480000Y-33322481D01*
X78480000Y-32292709D01*
X78500339Y-32304452D01*
X78651667Y-32345000D01*
X78808333Y-32345000D01*
X78959661Y-32304452D01*
X78980000Y-32292709D01*
X78980000Y-33322480D01*
X79050809Y-33311266D01*
X79255901Y-33244627D01*
X79448036Y-33146728D01*
X79622496Y-33019974D01*
X79622497Y-33019974D01*
X79774974Y-32867497D01*
X79774979Y-32867491D01*
X79899372Y-32696280D01*
X79954702Y-32653614D01*
X80024315Y-32647635D01*
X80086110Y-32680241D01*
X80100008Y-32696279D01*
X80224641Y-32867821D01*
X80377179Y-33020359D01*
X80551701Y-33147157D01*
X80743911Y-33245092D01*
X80949074Y-33311754D01*
X81016796Y-33322480D01*
X81162134Y-33345500D01*
X81162139Y-33345500D01*
X81377866Y-33345500D01*
X81496230Y-33326752D01*
X81590926Y-33311754D01*
X81796089Y-33245092D01*
X81988299Y-33147157D01*
X82162821Y-33020359D01*
X82315359Y-32867821D01*
X82439682Y-32696704D01*
X82495012Y-32654040D01*
X82564626Y-32648061D01*
X82626420Y-32680667D01*
X82640315Y-32696702D01*
X82764641Y-32867821D01*
X82917179Y-33020359D01*
X83091701Y-33147157D01*
X83283911Y-33245092D01*
X83489074Y-33311754D01*
X83556796Y-33322480D01*
X83702134Y-33345500D01*
X83702139Y-33345500D01*
X83917866Y-33345500D01*
X84036230Y-33326752D01*
X84130926Y-33311754D01*
X84336089Y-33245092D01*
X84528299Y-33147157D01*
X84702821Y-33020359D01*
X84855359Y-32867821D01*
X84982157Y-32693299D01*
X85080092Y-32501089D01*
X85146754Y-32295926D01*
X85172733Y-32131902D01*
X85180500Y-32082866D01*
X85180500Y-31417133D01*
X85146754Y-31204077D01*
X85146754Y-31204074D01*
X85080092Y-30998911D01*
X84982157Y-30806701D01*
X84855359Y-30632179D01*
X84702821Y-30479641D01*
X84528299Y-30352843D01*
X84336089Y-30254908D01*
X84130926Y-30188246D01*
X84130924Y-30188245D01*
X84130922Y-30188245D01*
X83917866Y-30154500D01*
X83917861Y-30154500D01*
X83702139Y-30154500D01*
X83702134Y-30154500D01*
X83489077Y-30188245D01*
X83283908Y-30254909D01*
X83091700Y-30352843D01*
X82992129Y-30425186D01*
X82917179Y-30479641D01*
X82917177Y-30479643D01*
X82917176Y-30479643D01*
X82764643Y-30632176D01*
X82764643Y-30632177D01*
X82764641Y-30632179D01*
X82687729Y-30738038D01*
X82640318Y-30803294D01*
X82584988Y-30845959D01*
X82515374Y-30851938D01*
X82453579Y-30819332D01*
X82439682Y-30803294D01*
X82417435Y-30772674D01*
X82315359Y-30632179D01*
X82162821Y-30479641D01*
X81988299Y-30352843D01*
X81796089Y-30254908D01*
X81590926Y-30188246D01*
X81590924Y-30188245D01*
X81590922Y-30188245D01*
X81377866Y-30154500D01*
X81377861Y-30154500D01*
X81162139Y-30154500D01*
X81162134Y-30154500D01*
X80949077Y-30188245D01*
X80743908Y-30254909D01*
X80551700Y-30352843D01*
X80452129Y-30425186D01*
X80377179Y-30479641D01*
X80377177Y-30479643D01*
X80377176Y-30479643D01*
X80224642Y-30632177D01*
X80100008Y-30803720D01*
X80044677Y-30846385D01*
X79975064Y-30852364D01*
X79913269Y-30819758D01*
X79899372Y-30803720D01*
X79774974Y-30632503D01*
X79774974Y-30632502D01*
X79622497Y-30480025D01*
X79448036Y-30353271D01*
X79255899Y-30255372D01*
X79050805Y-30188733D01*
X78980000Y-30177518D01*
X78980000Y-31207290D01*
X78959661Y-31195548D01*
X78808333Y-31155000D01*
X78651667Y-31155000D01*
X78500339Y-31195548D01*
X78480000Y-31207290D01*
X78480000Y-30177518D01*
X78479999Y-30177518D01*
X78409194Y-30188733D01*
X78204100Y-30255372D01*
X78011963Y-30353271D01*
X77837506Y-30480022D01*
X77695420Y-30622108D01*
X77634097Y-30655592D01*
X77564405Y-30650608D01*
X77508472Y-30608736D01*
X77495356Y-30586828D01*
X77494816Y-30585670D01*
X77429654Y-30480025D01*
X77402712Y-30436344D01*
X77278656Y-30312288D01*
X77129334Y-30220186D01*
X76962797Y-30165001D01*
X76962795Y-30165000D01*
X76860010Y-30154500D01*
X75519998Y-30154500D01*
X75519981Y-30154501D01*
X75417203Y-30165000D01*
X75417200Y-30165001D01*
X75250668Y-30220185D01*
X75250663Y-30220187D01*
X75101342Y-30312289D01*
X74977289Y-30436342D01*
X74885187Y-30585663D01*
X74885185Y-30585668D01*
X74884801Y-30586828D01*
X74830001Y-30752203D01*
X74830001Y-30752204D01*
X74830000Y-30752204D01*
X74819500Y-30854983D01*
X74819500Y-32645001D01*
X74819501Y-32645018D01*
X74830000Y-32747796D01*
X74830001Y-32747801D01*
X74834697Y-32761971D01*
X74834928Y-32768703D01*
X74838156Y-32774614D01*
X74836113Y-32803177D01*
X74837097Y-32831799D01*
X74833652Y-32837586D01*
X74833172Y-32844306D01*
X74816008Y-32867232D01*
X74801364Y-32891840D01*
X74795336Y-32894847D01*
X74791300Y-32900239D01*
X74764468Y-32910246D01*
X74738843Y-32923031D01*
X74732147Y-32922302D01*
X74725836Y-32924656D01*
X74697851Y-32918568D01*
X74669384Y-32915469D01*
X74662534Y-32910885D01*
X74657563Y-32909804D01*
X74629309Y-32888653D01*
X74487480Y-32746824D01*
X74453995Y-32685501D01*
X74457230Y-32620825D01*
X74463553Y-32601368D01*
X74489833Y-32435441D01*
X74500500Y-32368097D01*
X74500500Y-32131902D01*
X74463553Y-31898631D01*
X74390566Y-31674003D01*
X74283342Y-31463566D01*
X74144517Y-31272490D01*
X73977510Y-31105483D01*
X73786433Y-30966657D01*
X73575996Y-30859433D01*
X73351368Y-30786446D01*
X73118097Y-30749500D01*
X73118092Y-30749500D01*
X72881908Y-30749500D01*
X72881903Y-30749500D01*
X72648631Y-30786446D01*
X72424003Y-30859433D01*
X72213566Y-30966657D01*
X72169422Y-30998730D01*
X72022490Y-31105483D01*
X72022488Y-31105485D01*
X72022487Y-31105485D01*
X71855485Y-31272487D01*
X71855485Y-31272488D01*
X71855483Y-31272490D01*
X71854472Y-31273882D01*
X71716657Y-31463566D01*
X71609433Y-31674003D01*
X71536446Y-31898631D01*
X71499500Y-32131902D01*
X64540500Y-32131902D01*
X64540500Y-29664500D01*
X64560185Y-29597461D01*
X64612989Y-29551706D01*
X64664500Y-29540500D01*
X95335500Y-29540500D01*
X95402539Y-29560185D01*
G37*
%TD.AperFunction*%
%TD*%
M02*
