M48
; DRILL file {KiCad 9.0.4} date 2026-02-19T09:20:09+0000
; FORMAT={-:-/ absolute / metric / decimal}
; #@! TF.CreationDate,2026-02-19T09:20:09+00:00
; #@! TF.GenerationSoftware,Kicad,Pcbnew,9.0.4
; #@! TF.FileFunction,Plated,1,2,PTH
FMAT,2
METRIC
; #@! TA.AperFunction,Plated,PTH,ComponentDrill
T1C0.800
; #@! TA.AperFunction,Plated,PTH,ViaDrill
T2C1.000
; #@! TA.AperFunction,Plated,PTH,ComponentDrill
T3C1.000
; #@! TA.AperFunction,Plated,PTH,ComponentDrill
T4C1.190
; #@! TA.AperFunction,Plated,PTH,ComponentDrill
T5C5.300
%
G90
G05
T1
X69.88Y-38.38
X69.88Y-40.92
X69.88Y-43.46
X69.88Y-46.0
X77.5Y-38.38
X77.5Y-40.92
X77.5Y-43.46
X77.5Y-46.0
X89.88Y-38.38
X89.88Y-40.92
X89.88Y-43.46
X89.88Y-46.0
X97.5Y-38.38
X97.5Y-40.92
X97.5Y-43.46
X97.5Y-46.0
X109.88Y-38.42
X109.88Y-40.96
X109.88Y-43.5
X109.88Y-46.04
X117.5Y-38.42
X117.5Y-40.96
X117.5Y-43.5
X117.5Y-46.04
T2
X70.0Y-25.0
X73.84Y-35.87
X83.4Y-42.4
X89.8Y-25.0
X93.57Y-35.82
X95.2Y-53.1
X104.5Y-42.7
X107.2Y-41.075
X109.5Y-25.0
X113.83Y-35.93
T3
X72.37Y-27.5
X72.37Y-33.0
X74.91Y-27.5
X74.91Y-33.0
X92.37Y-27.5
X92.37Y-33.0
X94.91Y-27.5
X94.91Y-33.0
X112.37Y-27.5
X112.37Y-33.0
X114.91Y-27.5
X114.91Y-33.0
T4
X84.84Y-55.68
X87.38Y-55.68
X89.92Y-55.68
X92.46Y-55.68
X95.0Y-55.68
X97.54Y-55.68
X100.08Y-55.68
X102.62Y-55.68
T5
X72.685Y-55.5
X114.685Y-55.5
M30
